<svg width="580" height="404" viewBox="0 0 580 404" fill="none" xmlns="http://www.w3.org/2000/svg">
<g opacity="0.5">
<path d="M-1366.61 763.326L-1479.68 610.035L-1351.77 463.463L-1213.59 766.308L-1072.58 867.04L-974.121 699.886L-1047.19 508.102L-889.534 479.753L-665.254 439.464L-833.079 751.545L-565.359 665.025L-573.988 817.459L-473.136 1020.66L-303.884 1140.67L-154.356 1217.57L-272.647 980.709L-324.024 649.051L7.04425 539.788L251.686 459.079L409.272 449.904L337.591 698.862L307.732 802.579L-96.456 617.867L-208.248 856.692L82.7526 682.932L166.878 632.686L17.0235 620.642L229.688 350.656L249.944 460.636L280.749 674.941L47.7575 722.275L124.892 780.697L-4.80719 987.654L80.3568 1058.27L214.259 942.059L137.53 835.922L198.369 1197.23L339.058 1100.91L455.435 731.969L308.822 802.038L384.806 877.982L447.89 1142.42L696.769 1473.05L812.894 1410.13L778.734 1216.01L572.87 1266.78L746.859 914.612L530.548 828.078L474.262 943.562L717.221 795.959L409.823 450.033L422.579 647.78L651.884 693.517L761.274 577.534L629.182 197.64L638.165 563.262L504.603 497.264L464.445 345.894L642.959 321.114L677.562 401.307L779.063 302.186L433.066 190.107L465.284 21.4213L628.173 196.425L727.128 -55.9004L778.273 301.044" stroke="#589CFF" stroke-width="0.4628" stroke-miterlimit="10"/>
<path d="M409.758 451.656L464.445 345.894L423.429 649.407L504.811 495.113L409.758 451.656Z" stroke="#589CFF" stroke-width="0.4628" stroke-miterlimit="10"/>
<path d="M-324.024 649.051L-96.2319 619.094L-4.80728 987.654L-271.646 980.028L-565.36 665.025L-324.024 649.051ZM-324.024 649.051L121.746 781.428L80.3568 1058.27L196.468 1195.77L-156.087 1217.92L-5.19768 989.032L138.249 837.369L307.732 802.579L214.259 942.059L474.262 943.562L339.058 1100.91L746.859 914.612L715.838 796.155L455.602 733.039L474.262 943.562L384.091 879.196L529.084 830.03L308.822 802.038L280.749 674.941L166.878 632.686L409.823 450.033L229.333 354.431L327.937 274.909L433.066 190.107L642.959 321.113L504.811 495.113L678.195 398.255" stroke="#589CFF" stroke-width="0.4628" stroke-miterlimit="10"/>
<path d="M13.9021 621.382L-96.2318 619.094L78.3783 1057.56L166.878 632.686L229.688 350.656L421.876 649.794L455.602 733.04L529.084 830.03L504.811 495.113L746.859 914.612L761.274 577.534L780.254 300.582L629.182 197.64L433.066 190.107L464.445 345.894L674.989 399.844L761.567 574.452L636.217 562.201L651.884 693.517L529.97 830.792L572.87 1266.78L444.829 1142.3L198.369 1197.23L696.769 1473.05L778.869 1213.67L745.492 912.921" stroke="#589CFF" stroke-width="0.4628" stroke-miterlimit="10"/>
<path d="M-1350.87 463.739L-974.121 699.886L-833.079 751.545L-573.988 817.459L-272.647 980.709L-303.884 1140.67L-4.80724 987.654L-208.248 856.692L47.7574 722.275L135.961 836.276L384.091 879.196L214.259 942.059L339.026 1099.26L446.328 1142.66L746.859 914.612L474.262 943.562L572.87 1266.78L812.894 1410.13" stroke="#589CFF" stroke-width="0.4628" stroke-miterlimit="10"/>
<path d="M464.832 350.959C458.774 350.362 459.661 340.759 465.743 341.365C471.81 341.937 470.923 351.54 464.832 350.959Z" fill="#589CFF"/>
<path d="M465.141 347.745C465.765 347.816 466.047 347.609 466.2 347.468C466.474 347.203 466.642 346.765 466.689 346.287C466.766 345.545 466.592 344.665 465.418 344.547C464.794 344.475 464.512 344.683 464.359 344.824C464.085 345.089 463.917 345.526 463.87 346.004C463.793 346.746 463.967 347.627 465.141 347.745Z" fill="#EEF5FF"/>
<path d="M230.052 357.633C223.994 357.035 224.881 347.433 230.963 348.038C237.03 348.611 236.142 358.214 230.052 357.633Z" fill="#589CFF"/>
<path d="M230.361 354.419C231.536 354.537 231.864 353.686 231.909 352.961C231.986 352.219 231.812 351.338 230.638 351.22C230.014 351.149 229.732 351.356 229.579 351.497C229.305 351.762 229.137 352.2 229.09 352.678C229.037 353.428 229.187 354.301 230.361 354.419Z" fill="#EEF5FF"/>
<path d="M433.144 194.712C427.086 194.115 427.973 184.512 434.055 185.118C440.122 185.69 439.21 195.285 433.144 194.712Z" fill="#589CFF"/>
<path d="M433.453 191.498C434.077 191.569 434.359 191.362 434.512 191.221C434.786 190.956 434.954 190.519 435.001 190.041C435.078 189.299 434.904 188.418 433.73 188.3C433.106 188.229 432.824 188.436 432.671 188.577C432.397 188.842 432.229 189.279 432.182 189.757C432.105 190.499 432.279 191.38 433.453 191.498Z" fill="#EEF5FF"/>
<path d="M465.223 27.5431C459.165 26.9456 460.052 17.3427 466.134 17.9483C472.193 18.5457 471.305 28.1487 465.223 27.5431Z" fill="#589CFF"/>
<path d="M465.524 24.3529C466.698 24.4709 467.026 23.6207 467.096 22.9036C467.174 22.1617 467 21.2809 465.825 21.1629C465.201 21.0917 464.919 21.299 464.766 21.4398C464.492 21.7048 464.324 22.1422 464.277 22.6203C464.184 23.3293 464.35 24.2348 465.524 24.3529Z" fill="#EEF5FF"/>
</g>
</svg>
