<svg width="54" height="54" viewBox="0 0 54 54" fill="none" xmlns="http://www.w3.org/2000/svg">
<path d="M48.4608 5.53923C45.1043 2.18195 40.4536 0.494447 35.6974 0.906197C28.4445 1.53479 22.3822 7.2166 21.2819 14.418C21.1317 15.4027 21.0752 16.3958 21.1056 17.3813L11.9146 8.19029C10.9865 7.26132 9.75122 6.75001 8.4375 6.75001C7.12378 6.75001 5.88853 7.26132 4.96041 8.19029L2.28403 10.8667C1.35506 11.7948 0.84375 13.03 0.84375 14.3438C0.84375 15.6575 1.35506 16.8927 2.28403 17.8209L13.5726 29.1094L12.2344 30.4476L10.4017 28.6149C9.90478 28.118 9.24328 27.8438 8.53959 27.8438C7.0875 27.8438 5.90625 29.025 5.90625 30.4771C5.90625 31.1589 6.16781 31.7976 6.63609 32.2886C5.71134 32.6979 5.0625 33.6209 5.0625 34.6959C5.0625 35.3995 5.33672 36.061 5.83369 36.558L5.97881 36.7031L4.8735 37.8084C3.36319 39.3188 2.53125 41.3277 2.53125 43.4658C2.53125 47.8786 6.12141 51.4688 10.5342 51.4688C12.6723 51.4688 14.6821 50.636 16.1932 49.1248L17.2969 48.0212L17.442 48.1663C17.939 48.6633 18.6005 48.9375 19.3042 48.9375C20.3791 48.9375 21.3022 48.2887 21.7114 47.3639C22.2024 47.8322 22.8412 48.0938 23.5229 48.0938C24.975 48.0938 26.1562 46.9125 26.1562 45.4604C26.1562 44.7567 25.882 44.0952 25.3851 43.5983L23.5524 41.7656L24.8906 40.4274L34.1457 49.6825L45.3144 53.1191L47.25 53.1563V51.4688L43.7763 40.052L36.6196 32.8953C37.6051 32.9257 38.5982 32.8691 39.5828 32.7189C46.7834 31.6187 52.4661 25.5564 53.0947 18.3035C53.5064 13.5481 51.8181 8.89567 48.4608 5.53923ZM19.3396 23.3424L18.9844 23.6976L14.2712 18.9844L17.2969 15.9587L21.0988 19.7606C20.9014 21.1275 20.2964 22.3847 19.3396 23.3424ZM8.85938 22.0101L7.52119 20.6719L14.7656 13.4274L16.1038 14.7656L8.85938 22.0101ZM2.53125 14.3438C2.53125 13.4814 2.86706 12.6698 3.47709 12.0597L6.15347 9.38335C7.37353 8.16329 9.50147 8.16329 10.7215 9.38335L13.5726 12.2344L6.32812 19.4788L3.47709 16.6278C2.86706 16.0178 2.53125 15.2061 2.53125 14.3438ZM10.0524 23.2031L13.0781 20.1774L17.7913 24.8906L14.7656 27.9163L10.0524 23.2031ZM15.0002 47.9318C13.8071 49.124 12.2217 49.7813 10.5342 49.7813C7.05206 49.7813 4.21875 46.9479 4.21875 43.4658C4.21875 41.7783 4.87519 40.1937 6.06656 39.0015L7.17188 37.8962L16.1038 46.8281L15.0002 47.9318ZM19.3042 47.25C19.051 47.25 18.8139 47.1513 18.6351 46.9733L7.02675 35.3649C6.84872 35.1861 6.75 34.949 6.75 34.6959C6.75 34.1744 7.17441 33.75 7.69584 33.75C7.94897 33.75 8.18606 33.8487 8.36494 34.0268L19.9733 45.6351C20.1513 45.8139 20.25 46.051 20.25 46.3042C20.25 46.8256 19.8256 47.25 19.3042 47.25ZM24.4688 45.4604C24.4688 45.9819 24.0443 46.4063 23.5229 46.4063C23.2698 46.4063 23.0327 46.3075 22.8538 46.1295L21.1663 44.442L9.558 32.8337L7.8705 31.1462C7.69247 30.9673 7.59375 30.7302 7.59375 30.4771C7.59375 29.9557 8.01816 29.5313 8.53959 29.5313C8.79272 29.5313 9.02981 29.63 9.20869 29.808L24.192 44.7913C24.37 44.9702 24.4688 45.2073 24.4688 45.4604ZM34.4486 15.6819C34.6022 15.5284 34.7389 15.363 34.8578 15.1875H38.8125V19.0131L18.5996 36.812L17.1863 35.3987L34.4486 15.6819ZM33.7373 13.5H32.0625C31.1318 13.5 30.375 12.7432 30.375 11.8125C30.375 10.8819 31.1318 10.125 32.0625 10.125C32.9932 10.125 33.75 10.8819 33.75 11.8125V13.295C33.75 13.3642 33.7458 13.4325 33.7373 13.5ZM34.2394 32.9012L41.8382 40.5L38.8125 43.5257L30.3024 35.0156L30.6551 34.6629C31.6145 33.7044 32.8717 33.0986 34.2394 32.9012ZM29.1094 36.2087L37.6194 44.7188L34.5938 47.7444L26.0837 39.2344L29.1094 36.2087ZM45.506 51.4122L36.1808 48.5435L42.6364 42.0879L45.506 51.4122ZM51.4131 18.1575C50.8503 24.6443 45.7684 30.067 39.328 31.0509C38.1999 31.223 37.0583 31.2635 35.9378 31.1698C33.4918 30.9665 31.1276 31.8043 29.4621 33.4699L22.3594 40.5726L19.7944 38.0076L38.8159 21.2558C38.9011 23.042 40.381 24.4688 42.1875 24.4688C44.0488 24.4688 45.5625 22.9551 45.5625 21.0938C45.5625 19.2324 44.0488 17.7188 42.1875 17.7188H41.5488C41.186 17.7188 40.8324 17.7753 40.5 17.8824V13.5H35.4316C35.4358 13.4317 35.4375 13.3642 35.4375 13.295V11.8125C35.4375 9.9512 33.9238 8.43751 32.0625 8.43751C30.2012 8.43751 28.6875 9.9512 28.6875 11.8125C28.6875 13.6738 30.2012 15.1875 32.0625 15.1875H32.6413L15.9899 34.2031L13.4274 31.6406L20.5327 24.5354C22.1965 22.8715 23.0344 20.5116 22.8302 18.0622C22.7365 16.9408 22.777 15.8009 22.9492 14.672C23.9338 8.23164 29.3557 3.14888 35.8425 2.58695C40.1034 2.22076 44.264 3.72938 47.2677 6.73229C50.2715 9.73604 51.7818 13.8999 51.4131 18.1575ZM40.5 21.0938V19.7716C40.7978 19.5345 41.1632 19.4063 41.5488 19.4063H42.1875C43.1182 19.4063 43.875 20.1631 43.875 21.0938C43.875 22.0244 43.1182 22.7813 42.1875 22.7813C41.2568 22.7813 40.5 22.0244 40.5 21.0938Z" fill="#B961FF"/>
<path d="M37.125 4.21875V5.90625C41.9428 5.90625 46.267 9.12769 47.6398 13.7405L49.2573 13.2595C47.6727 7.93631 42.6836 4.21875 37.125 4.21875Z" fill="#B961FF"/>
<path d="M48.0937 16.8748H49.7812C49.7812 16.2707 49.7382 15.6624 49.6529 15.0684L47.9832 15.3063C48.0566 15.8227 48.0937 16.35 48.0937 16.8748Z" fill="#B961FF"/>
</svg>
