<svg width="55" height="56" viewBox="0 0 55 56" fill="none" xmlns="http://www.w3.org/2000/svg">
<g clip-path="url(#clip0)">
<path d="M52.7551 0.378418H2.2449C1.00706 0.378418 0 1.38548 0 2.62332V53.1335C0 54.3714 1.00706 55.3784 2.2449 55.3784H52.7551C53.9929 55.3784 55 54.3714 55 53.1335V2.62332C55 1.38548 53.9929 0.378418 52.7551 0.378418ZM52.7551 53.1335H2.2449V10.4805H52.7551V53.1335ZM52.7551 8.23556H2.2449V2.62332H52.7551V8.23556Z" fill="#B961FF"/>
<path d="M8.41836 4.30688H4.48979V6.55178H8.41836V4.30688Z" fill="#B961FF"/>
<path d="M14.0306 4.30688H10.102V6.55178H14.0306V4.30688Z" fill="#B961FF"/>
<path d="M50.5102 4.30688H46.5816V6.55178H50.5102V4.30688Z" fill="#B961FF"/>
<path d="M13.4694 34.052H15.3991C15.5117 34.3588 15.6336 34.6561 15.7643 34.9433L14.4043 36.3113C13.9805 36.735 13.7472 37.2979 13.7472 37.8964C13.7472 38.4949 13.9807 39.0578 14.4043 39.4814L17.5807 42.6579C18.0044 43.0816 18.5673 43.3149 19.1658 43.3149C19.7643 43.3149 20.3272 43.0816 20.7486 42.6602L22.119 41.2978C22.406 41.4284 22.7034 41.5503 23.0102 41.6629V43.5927C23.0102 44.8306 24.0173 45.8376 25.2551 45.8376H29.7449C30.9827 45.8376 31.9898 44.8306 31.9899 43.5927V41.6629C32.2967 41.5503 32.594 41.4284 32.8811 41.2977L34.2492 42.6577C34.6729 43.0815 35.2358 43.3148 35.8343 43.3148C36.4328 43.3148 36.9957 43.0814 37.4193 42.6577L40.5957 39.4813C41.0194 39.0576 41.2528 38.4947 41.2528 37.8962C41.2528 37.2977 41.0194 36.7348 40.5981 36.3134L39.2356 34.943C39.3663 34.656 39.4882 34.3586 39.6008 34.0518H41.5306C42.7684 34.0518 43.7755 33.0448 43.7755 31.8069V27.3171C43.7755 26.0793 42.7684 25.0722 41.5306 25.0722H39.6008C39.4882 24.7655 39.3663 24.4681 39.2355 24.181L40.5956 22.813C41.0193 22.3892 41.2527 21.8263 41.2527 21.2278C41.2527 20.6293 41.0192 20.0664 40.5956 19.6428L37.4192 16.4664C36.9955 16.0427 36.4326 15.8093 35.8341 15.8093C35.2356 15.8093 34.6727 16.0427 34.2513 16.464L32.8809 17.8265C32.5939 17.6958 32.2964 17.5739 31.9897 17.4613V15.5315C31.9897 14.2937 30.9826 13.2866 29.7448 13.2866H25.255C24.0171 13.2866 23.0101 14.2937 23.0101 15.5315V17.4613C22.7033 17.5739 22.406 17.6958 22.1189 17.8266L20.7508 16.4665C20.3271 16.0428 19.7642 15.8094 19.1657 15.8094C18.5672 15.8094 18.0043 16.0429 17.5807 16.4665L14.4043 19.6429C13.9805 20.0667 13.7472 20.6296 13.7472 21.2281C13.7472 21.8266 13.9805 22.3895 14.4019 22.8108L15.7643 24.1812C15.6337 24.4682 15.5118 24.7657 15.3992 25.0724H13.4694C12.2315 25.0724 11.2245 26.0795 11.2245 27.3173V31.8071C11.2245 33.045 12.2315 34.052 13.4694 34.052ZM13.4694 27.3171H16.2084C16.7041 27.3171 17.141 26.9919 17.2835 26.5172C17.5049 25.7791 17.784 25.1006 18.113 24.5006C18.3523 24.0643 18.2756 23.5226 17.9247 23.1696L15.9919 21.2303L19.1658 18.0561L21.1076 19.9866C21.4605 20.3375 22.0022 20.4139 22.4386 20.1749C23.0387 19.8459 23.7172 19.5668 24.4552 19.3454C24.9301 19.2031 25.2552 18.766 25.2552 18.2703V15.5315H29.745V18.2705C29.745 18.7662 30.0702 19.2032 30.545 19.3456C31.283 19.5671 31.9615 19.8461 32.5616 20.1751C32.9979 20.4144 33.5394 20.3378 33.8926 19.9869L35.8318 18.054L39.006 21.2279L37.0755 23.1698C36.7246 23.5227 36.6479 24.0644 36.8873 24.5008C37.2162 25.1008 37.4953 25.7794 37.7167 26.5174C37.8591 26.9923 38.2962 27.3173 38.7918 27.3173H41.5306V31.8071H38.7918C38.2962 31.8071 37.8592 32.1323 37.7167 32.6071C37.4953 33.3451 37.2162 34.0236 36.8873 34.6237C36.6479 35.06 36.7246 35.6017 37.0755 35.9547L39.0083 37.894L35.8344 41.0681L33.8926 39.1376C33.5394 38.7868 32.9979 38.7101 32.5616 38.9494C31.9615 39.2784 31.283 39.5574 30.545 39.7789C30.0701 39.9212 29.745 40.3583 29.745 40.854V43.5927H25.2552V40.8539C25.2552 40.3582 24.93 39.9212 24.4552 39.7788C23.7172 39.5573 23.0387 39.2783 22.4386 38.9493C22.269 38.8563 22.0835 38.8111 21.8993 38.8111C21.6096 38.8111 21.3234 38.923 21.1074 39.1374L19.1682 41.0703L15.994 37.8963L17.9245 35.9545C18.2754 35.6016 18.352 35.0599 18.1127 34.6235C17.7837 34.0234 17.5047 33.3449 17.2832 32.6069C17.1409 32.132 16.7038 31.8069 16.2082 31.8069H13.4694V27.3171Z" fill="#B961FF"/>
<path d="M27.5 35.1744C30.5946 35.1744 33.1122 32.6568 33.1122 29.5622C33.1122 26.4676 30.5946 23.95 27.5 23.95C24.4054 23.95 21.8878 26.4676 21.8878 29.5622C21.8878 32.6568 24.4054 35.1744 27.5 35.1744ZM27.5 26.1948C29.3568 26.1948 30.8673 27.7054 30.8673 29.5622C30.8673 31.419 29.3568 32.9295 27.5 32.9295C25.6432 32.9295 24.1327 31.419 24.1327 29.5622C24.1327 27.7054 25.6432 26.1948 27.5 26.1948Z" fill="#B961FF"/>
<path d="M44.898 17.2151H42.6531V19.46H44.898V17.2151Z" fill="#B961FF"/>
<path d="M48.2653 17.2151H46.0204V19.46H48.2653V17.2151Z" fill="#B961FF"/>
<path d="M51.6327 17.2151H49.3878V19.46H51.6327V17.2151Z" fill="#B961FF"/>
<path d="M5.61225 39.6641H3.36735V41.909H5.61225V39.6641Z" fill="#B961FF"/>
<path d="M8.97959 39.6641H6.7347V41.909H8.97959V39.6641Z" fill="#B961FF"/>
<path d="M12.3469 39.6641H10.102V41.909H12.3469V39.6641Z" fill="#B961FF"/>
<path d="M47.7041 48.6436H7.29592V50.8884H47.7041V48.6436Z" fill="#B961FF"/>
</g>
<defs>
<clipPath id="clip0">
<rect width="55" height="55" fill="white" transform="translate(0 0.378418)"/>
</clipPath>
</defs>
</svg>
