<svg width="155" height="250" viewBox="0 0 155 250" fill="none" xmlns="http://www.w3.org/2000/svg">
<path d="M90.3219 189.414H84.6257V226.466H90.3219V189.414Z" fill="#F0E1D4"/>
<path fill-rule="evenodd" clip-rule="evenodd" d="M84.1334 188.924H90.814V226.956H84.1334V188.924ZM85.1178 189.905V225.975H89.8296V189.905H85.1178Z" fill="#D8BAA3"/>
<path d="M81.7785 162.001H93.1709V188.012C93.1699 188.723 92.8854 189.405 92.3799 189.907C91.8745 190.41 91.1894 190.692 90.4754 190.691H84.4681C83.7538 190.691 83.0686 190.409 82.5635 189.905C82.0584 189.402 81.7746 188.719 81.7746 188.008V162.001H81.7785Z" fill="white"/>
<path fill-rule="evenodd" clip-rule="evenodd" d="M81.2823 161.511H93.6631V188.011L93.6631 188.012C93.6619 188.854 93.3254 189.66 92.7276 190.255C92.1298 190.849 91.3196 191.182 90.475 191.182L90.4754 190.691V191.182H90.475H84.4681C83.6232 191.182 82.8129 190.847 82.2154 190.252C81.618 189.657 81.2823 188.849 81.2823 188.008V161.511ZM82.2668 162.492V188.008C82.2668 188.589 82.4987 189.147 82.9116 189.559C83.3244 189.97 83.8843 190.201 84.4681 190.201H90.4758C91.0593 190.201 91.6191 189.971 92.0322 189.56C92.4452 189.15 92.6777 188.593 92.6787 188.011C92.6787 188.011 92.6787 188.011 92.6787 188.011V162.492H82.2668Z" fill="#D8BAA3"/>
<path d="M107.06 232.804V241.274H101.62V237.85C101.62 236.169 100.949 234.556 99.7558 233.367C98.5624 232.178 96.9438 231.51 95.256 231.51H79.7544C78.0667 231.51 76.4481 232.178 75.2547 233.367C74.0612 234.556 73.3908 236.169 73.3908 237.85V241.274H67.9506V232.804C67.9506 231.123 68.621 229.51 69.8144 228.321C71.0079 227.132 72.6265 226.464 74.3142 226.464H100.698C102.386 226.464 104.004 227.132 105.197 228.321C106.39 229.511 107.06 231.123 107.06 232.804Z" fill="#F0E1D4"/>
<path fill-rule="evenodd" clip-rule="evenodd" d="M74.3142 226.954C72.757 226.954 71.2636 227.57 70.1625 228.668C69.0614 229.765 68.4428 231.253 68.4428 232.804V240.783H72.8985V237.85C72.8985 236.039 73.6209 234.301 74.9066 233.02C76.1923 231.739 77.9361 231.019 79.7544 231.019H95.256C97.0743 231.019 98.8181 231.739 100.104 233.02C101.39 234.301 102.112 236.039 102.112 237.85V240.783H106.568V232.804C106.568 231.253 105.949 229.765 104.849 228.668C103.748 227.571 102.255 226.955 100.698 226.954C100.698 226.954 100.698 226.954 100.698 226.954H74.3142ZM69.4664 227.974C70.7521 226.693 72.4959 225.973 74.3142 225.973H100.698C102.516 225.974 104.26 226.694 105.545 227.975C106.83 229.256 107.552 230.993 107.552 232.804V241.764H101.127V237.85C101.127 236.299 100.509 234.811 99.4077 233.714C98.3066 232.616 96.8132 232 95.256 232H79.7544C78.1972 232 76.7038 232.616 75.6027 233.714C74.5016 234.811 73.883 236.299 73.883 237.85V241.764H67.4583V232.804C67.4583 230.993 68.1806 229.255 69.4664 227.974Z" fill="#D8BAA3"/>
<path d="M104.311 249.411C107.432 249.411 109.962 246.891 109.962 243.781C109.962 240.671 107.432 238.15 104.311 238.15C101.19 238.15 98.6603 240.671 98.6603 243.781C98.6603 246.891 101.19 249.411 104.311 249.411Z" fill="white"/>
<path fill-rule="evenodd" clip-rule="evenodd" d="M104.311 238.641C101.462 238.641 99.1526 240.942 99.1526 243.781C99.1526 246.62 101.462 248.921 104.311 248.921C107.16 248.921 109.47 246.62 109.47 243.781C109.47 240.942 107.16 238.641 104.311 238.641ZM98.1681 243.781C98.1681 240.4 100.918 237.66 104.311 237.66C107.704 237.66 110.454 240.4 110.454 243.781C110.454 247.161 107.704 249.902 104.311 249.902C100.918 249.902 98.1681 247.161 98.1681 243.781Z" fill="#D8BAA3"/>
<path d="M70.4452 249.411C73.5661 249.411 76.0961 246.891 76.0961 243.781C76.0961 240.671 73.5661 238.15 70.4452 238.15C67.3243 238.15 64.7943 240.671 64.7943 243.781C64.7943 246.891 67.3243 249.411 70.4452 249.411Z" fill="white"/>
<path fill-rule="evenodd" clip-rule="evenodd" d="M70.4453 238.641C67.5962 238.641 65.2866 240.942 65.2866 243.781C65.2866 246.62 67.5962 248.921 70.4453 248.921C73.2943 248.921 75.6039 246.62 75.6039 243.781C75.6039 240.942 73.2943 238.641 70.4453 238.641ZM64.3021 243.781C64.3021 240.4 67.0525 237.66 70.4453 237.66C73.838 237.66 76.5884 240.4 76.5884 243.781C76.5884 247.161 73.838 249.902 70.4453 249.902C67.0525 249.902 64.3021 247.161 64.3021 243.781Z" fill="#D8BAA3"/>
<path d="M100.665 149.004L114.709 107.878H124.751L110.706 149.004H100.665Z" fill="#F0E1D4"/>
<path fill-rule="evenodd" clip-rule="evenodd" d="M114.357 107.387H125.438L111.059 149.495H99.9773L114.357 107.387ZM115.062 108.368L101.352 148.514H110.354L124.064 108.368H115.062Z" fill="#D8BAA3"/>
<path d="M97.9082 149.004L111.953 107.878H121.994L107.95 149.004H97.9082Z" fill="white"/>
<path fill-rule="evenodd" clip-rule="evenodd" d="M111.6 107.387H122.682L108.302 149.495H97.2208L111.6 107.387ZM112.305 108.368L98.5957 148.514H107.597L121.307 108.368H112.305Z" fill="#D8BAA3"/>
<path d="M131.993 153.709C131.993 154.509 130.78 155.278 128.586 155.965C122.101 158.013 107.054 159.449 89.5263 159.449C73.3947 159.449 59.3659 158.233 52.1753 156.441C51.5531 156.287 50.9828 156.128 50.4643 155.965C48.2709 155.272 47.058 154.509 47.058 153.709C47.058 153.03 47.9263 152.38 49.5231 151.776C55.3906 149.555 71.0871 147.966 89.5263 147.966C112.981 147.966 131.993 150.538 131.993 153.709Z" fill="white"/>
<path fill-rule="evenodd" clip-rule="evenodd" d="M64.858 149.527C57.8974 150.201 52.5646 151.15 49.6979 152.235L49.6979 152.235C48.9189 152.529 48.3546 152.822 47.9938 153.102C47.624 153.388 47.5502 153.594 47.5502 153.709C47.5502 153.847 47.6618 154.11 48.2086 154.467C48.7308 154.808 49.533 155.156 50.613 155.497C51.1201 155.657 51.6803 155.813 52.2942 155.966L52.2947 155.966C59.4247 157.742 73.4041 158.959 89.5263 158.959C107.053 158.959 122.032 157.52 128.438 155.497L128.439 155.497C129.518 155.159 130.32 154.811 130.842 154.469C131.388 154.112 131.501 153.847 131.501 153.709C131.501 153.572 131.392 153.313 130.858 152.96C130.348 152.623 129.563 152.279 128.505 151.941C126.397 151.267 123.321 150.653 119.489 150.135C111.832 149.099 101.238 148.457 89.5263 148.457C80.3198 148.457 71.802 148.854 64.858 149.527ZM64.7626 148.55C71.7436 147.874 80.2937 147.476 89.5263 147.476C101.268 147.476 111.908 148.119 119.621 149.163C123.474 149.684 126.616 150.307 128.806 151.007C129.897 151.356 130.781 151.733 131.402 152.143C132 152.538 132.485 153.053 132.485 153.709C132.485 154.37 131.991 154.891 131.383 155.289C130.75 155.704 129.849 156.084 128.735 156.432C122.169 158.506 107.054 159.939 89.5263 159.939C73.3853 159.939 59.3071 158.724 52.0559 156.917C51.4256 156.761 50.8454 156.599 50.3157 156.432L50.3156 156.432C49.2021 156.081 48.3011 155.701 47.6686 155.287C47.0606 154.89 46.5657 154.371 46.5657 153.709C46.5657 153.145 46.9261 152.686 47.3896 152.327C47.8622 151.961 48.5305 151.627 49.3483 151.318M64.7626 148.55C57.7983 149.225 52.3492 150.182 49.3483 151.318L64.7626 148.55Z" fill="#D8BAA3"/>
<path d="M131.993 153.709V158.221C131.993 161.391 112.981 163.961 89.5264 163.961C73.3947 163.961 59.3659 162.745 52.1753 160.954C48.9108 160.142 47.056 159.212 47.056 158.221V153.709C47.056 154.509 48.2689 155.278 50.4623 155.965C50.9795 156.128 51.5498 156.287 52.1733 156.441C59.364 158.233 73.3928 159.449 89.5244 159.449C107.048 159.449 122.099 158.013 128.585 155.965C130.78 155.272 131.993 154.509 131.993 153.709Z" fill="#F0E1D4"/>
<path fill-rule="evenodd" clip-rule="evenodd" d="M47.5483 155.209V158.221C47.5483 158.305 47.5853 158.435 47.7561 158.616C47.9291 158.8 48.2104 159.005 48.621 159.22C49.4409 159.651 50.676 160.075 52.2945 160.478L52.2947 160.478C59.4247 162.254 73.4041 163.471 89.5264 163.471C101.238 163.471 111.832 162.829 119.489 161.794C123.321 161.276 126.397 160.662 128.505 159.988C129.563 159.65 130.348 159.306 130.858 158.969C131.392 158.616 131.501 158.357 131.501 158.221V155.207C131.462 155.234 131.422 155.261 131.382 155.287C130.749 155.701 129.848 156.081 128.733 156.432C122.168 158.506 107.049 159.939 89.5244 159.939C73.3837 159.939 59.3056 158.724 52.0543 156.917C51.4228 156.761 50.8426 156.599 50.3141 156.432C49.2002 156.084 48.2991 155.704 47.6663 155.289C47.6264 155.263 47.587 155.236 47.5483 155.209ZM46.5638 153.709V158.221C46.5638 158.632 46.7586 158.99 47.0376 159.287C47.3144 159.581 47.7007 159.846 48.1619 160.088C49.0856 160.573 50.4101 161.02 52.056 161.43C59.3073 163.236 73.3854 164.452 89.5264 164.452C101.268 164.452 111.908 163.809 119.621 162.766C123.474 162.245 126.616 161.622 128.806 160.922C129.897 160.574 130.781 160.197 131.402 159.787C132 159.392 132.485 158.877 132.485 158.221V153.709H131.501C131.501 153.847 131.389 154.11 130.842 154.467C130.32 154.808 129.517 155.156 128.436 155.497L128.436 155.497C122.03 157.52 107.047 158.959 89.5244 158.959C73.4021 158.959 59.4227 157.742 52.2927 155.966L52.292 155.965C51.6769 155.813 51.1168 155.657 50.6112 155.497L50.6099 155.497C49.5307 155.159 48.7289 154.811 48.207 154.469C47.6606 154.112 47.5483 153.847 47.5483 153.709H46.5638ZM52.1753 160.954L52.056 161.43L52.1753 160.954Z" fill="#D8BAA3"/>
<path d="M152.643 81.962H99.0384C97.67 81.962 96.4236 82.9174 95.8388 84.4162L81.5147 126.28C80.924 127.775 81.8337 129.498 83.2001 129.498H136.126C137.898 129.498 139.524 128.256 140.282 126.306L154.329 85.1794C154.911 83.6825 154.01 81.962 152.643 81.962Z" fill="white"/>
<path fill-rule="evenodd" clip-rule="evenodd" d="M95.38 84.2385C96.0216 82.5941 97.4243 81.4715 99.0384 81.4715H152.643C153.554 81.4715 154.268 82.0465 154.653 82.7824C155.038 83.5166 155.132 84.4638 154.791 85.3467L140.745 126.473L140.741 126.483C139.926 128.579 138.143 129.988 136.126 129.988H83.2001C82.2894 129.988 81.574 129.413 81.1874 128.677C80.8016 127.942 80.7073 126.994 81.0523 126.111L95.3763 84.2482L95.38 84.2385ZM96.3013 84.5845L81.9769 126.449L81.9727 126.46C81.7322 127.068 81.7982 127.724 82.0596 128.222C82.3218 128.721 82.7443 129.007 83.2001 129.007H136.126C137.65 129.007 139.117 127.936 139.819 126.138L153.866 85.0116L153.87 85.002C154.108 84.3909 154.041 83.7338 153.78 83.2363C153.519 82.7376 153.099 82.4524 152.643 82.4524H99.0384C97.9183 82.4524 96.8307 83.237 96.3013 84.5845Z" fill="#D8BAA3"/>
<path d="M40.6648 120.834L31.8262 122.207C30.7117 124.901 28.0851 127.957 27.524 128.254C26.9156 128.568 23.7534 130.267 23.7534 130.267C23.7534 130.267 23.1509 129.231 23.6609 128.324C23.9956 127.736 26.065 126.725 25.8268 125.899C25.5885 125.074 24.352 125.17 23.8046 125.413C22.4933 126.002 20.1384 127.469 20.3905 129.656C20.6071 131.503 18.9039 131.677 18.9039 131.677C18.9039 131.677 18.01 129.323 17.949 128.878C17.8879 128.432 18.2522 124.02 19.3272 122.725C20.1857 121.699 24.3697 119.692 26.7049 118.654L38.5186 113.324L40.6648 120.834Z" fill="#FFCFC9"/>
<path d="M78.7582 80.3572C78.7582 80.3572 80.607 106.116 74.8202 112.684C69.0335 119.253 49.4522 123.086 40.4541 121.046L38.2134 113.248C47.1013 107.262 60.0688 99.4205 60.0688 99.4205C60.0688 99.4205 64.3848 63.3284 71.2761 58.8279C78.1675 54.3274 78.5258 75.2623 78.7582 80.3572Z" fill="#FFB000"/>
<path fill-rule="evenodd" clip-rule="evenodd" d="M38.1069 113.104C38.2994 113.003 38.5375 113.077 38.6388 113.269C39.8741 115.609 40.5866 118.188 40.7273 120.829C40.7388 121.045 40.5721 121.23 40.3549 121.241C40.1377 121.253 39.9523 121.087 39.9408 120.87C39.8061 118.343 39.1242 115.874 37.9417 113.634C37.8405 113.442 37.9144 113.205 38.1069 113.104Z" fill="white"/>
<path fill-rule="evenodd" clip-rule="evenodd" d="M44.2809 111.855C44.3851 112.045 44.3147 112.284 44.1238 112.387L39.1108 115.112C38.9199 115.216 38.6807 115.146 38.5766 114.956C38.4724 114.766 38.5427 114.527 38.7337 114.424L43.7466 111.699C43.9375 111.595 44.1767 111.665 44.2809 111.855Z" fill="white"/>
<path fill-rule="evenodd" clip-rule="evenodd" d="M43.0035 115.051C43.0687 115.257 42.9534 115.477 42.7459 115.542L39.5641 116.539C39.3566 116.604 39.1356 116.489 39.0704 116.282C39.0051 116.076 39.1205 115.855 39.3279 115.79L42.5098 114.794C42.7172 114.729 42.9383 114.844 43.0035 115.051Z" fill="white"/>
<path fill-rule="evenodd" clip-rule="evenodd" d="M46.7186 117.093C46.752 117.308 46.6048 117.508 46.3899 117.541L40.0381 118.524C39.8232 118.557 39.6219 118.411 39.5885 118.197C39.5551 117.983 39.7023 117.782 39.9172 117.749L46.2691 116.766C46.484 116.733 46.6852 116.879 46.7186 117.093Z" fill="white"/>
<path fill-rule="evenodd" clip-rule="evenodd" d="M39.9402 119.682C39.9402 119.466 40.1166 119.29 40.334 119.29H43.4548C43.6723 119.29 43.8486 119.466 43.8486 119.682C43.8486 119.899 43.6723 120.075 43.4548 120.075H40.334C40.1166 120.075 39.9402 119.899 39.9402 119.682Z" fill="white"/>
<path d="M62.3804 250H38.3178C38.3178 250 37.989 246.155 41.0743 245.621C43.6851 245.168 46.166 242.431 46.166 242.431C46.166 242.431 52.2009 245.582 55.8139 240.509C59.4269 235.435 58.9386 230.111 58.9386 230.111C60.0846 231.496 63.3471 234.851 63.481 240.089C63.5337 243.425 63.1639 246.756 62.3804 250Z" fill="#E69900"/>
<path d="M36.0988 145.541C32.0782 146.087 23.3537 153.267 28.2741 167.428C33.1946 181.588 52.254 225.856 52.0729 229.958C51.8307 235.435 46.166 242.431 46.166 242.431C46.166 242.431 52.2009 245.582 55.8139 240.509C59.4269 235.435 58.9367 230.111 58.9367 230.111C58.9367 230.111 62.0476 195.975 56.6605 168.056C54.1875 155.274 43.3268 144.559 36.0988 145.541Z" fill="#FAB6AD"/>
<path d="M81.0696 250H57.0051C57.0051 250 56.6763 246.155 59.7616 245.621C62.3705 245.168 64.8533 242.431 64.8533 242.431C64.8533 242.431 70.8882 245.582 74.5012 240.509C78.1142 235.435 77.624 230.111 77.624 230.111C78.7719 231.496 82.0325 234.851 82.1683 240.089C82.2216 243.425 81.8525 246.755 81.0696 250Z" fill="#FFB000"/>
<path d="M54.788 145.418C51.5353 147.833 48.2295 153.265 53.1518 167.428C58.0742 181.59 71.089 225.865 70.7602 229.958C70.4314 234.05 64.8533 242.431 64.8533 242.431C64.8533 242.431 70.8882 245.582 74.5012 240.509C78.1142 235.435 77.624 230.111 77.624 230.111C77.624 230.111 84.5862 185.185 81.9281 168.056C79.9395 155.192 63.8216 138.702 54.788 145.418Z" fill="#FFCFC9"/>
<path d="M113.89 108.259C113.89 108.259 121.622 123.561 124.558 135.381C127.762 148.282 119.659 156.842 101.521 156.995C86.9726 157.118 89.806 166.449 89.806 166.449C89.806 166.449 82.9835 170.165 75.6295 166.449C67.8679 162.525 63.9378 164.56 58.3834 166.694C51.3897 169.396 45.0891 164.193 39.6705 163.865C31.5387 163.375 29.3276 169.148 20.8158 164.112C20.8158 164.112 17.7462 142.636 30.5582 134.412C43.3702 126.188 84.7182 117.358 83.0899 108.996L113.89 108.259Z" fill="#3F4D90"/>
<path d="M71.2761 58.8279C76.228 55.4221 88.3726 51.3101 93.0902 46.7272L112.666 45.7875C119.029 50.7215 130.939 57.3153 133.651 61.2861L120.449 87.0255C120.449 87.0255 114.672 105.112 113.847 108.753C113.022 112.394 92.3853 113.106 82.4814 109.459C82.4814 109.459 79.528 93.372 78.5908 92.4284C77.6536 91.4847 72.5776 88.6754 73.5247 81.7383L71.2761 58.8279Z" fill="#FFB000"/>
<path fill-rule="evenodd" clip-rule="evenodd" d="M76.7618 71.8416C76.9581 71.9349 77.0414 72.169 76.9478 72.3647L76.9396 72.3608C76.9478 72.3647 76.9478 72.3647 76.9478 72.3647L76.9459 72.3686L76.94 72.3811C76.9346 72.3923 76.9267 72.4091 76.9162 72.4313C76.8953 72.4757 76.8644 72.5416 76.8249 72.6269C76.7458 72.7973 76.6323 73.0453 76.4948 73.3539C76.2196 73.9714 75.8489 74.8307 75.4668 75.7983C74.6975 77.7462 73.9002 80.0879 73.7194 81.7798C73.3588 85.1531 74.3567 87.4936 75.5476 89.108C76.1461 89.9194 76.7974 90.5525 77.3614 91.0436C77.623 91.2714 77.8643 91.4674 78.0754 91.6389C78.0923 91.6526 78.109 91.6662 78.1255 91.6796C78.3414 91.855 78.5387 92.0163 78.6738 92.1524C78.7874 92.2667 78.8796 92.4436 78.9556 92.6119C79.0385 92.7956 79.127 93.0272 79.2195 93.295C79.4047 93.8316 79.615 94.5391 79.8386 95.3533C80.2862 96.9832 80.7938 99.0639 81.2712 101.111C81.7487 103.158 82.1968 105.176 82.5255 106.682C82.6899 107.435 82.8244 108.06 82.9178 108.496C82.9646 108.715 83.001 108.886 83.0258 109.003C83.0382 109.062 83.0477 109.106 83.0541 109.136L83.0637 109.182C83.0637 109.182 83.0638 109.182 82.6784 109.263C82.293 109.344 82.293 109.343 82.2929 109.343L82.2834 109.298C82.277 109.268 82.2676 109.224 82.2553 109.165C82.2306 109.049 82.1942 108.878 82.1476 108.66C82.0543 108.224 81.92 107.6 81.7559 106.849C81.4277 105.345 80.9804 103.331 80.504 101.288C80.0274 99.2445 79.5225 97.1755 79.0789 95.5604C78.8569 94.7522 78.6519 94.0634 78.4747 93.5503C78.386 93.2933 78.3064 93.0868 78.2374 92.934C78.2029 92.8576 78.1732 92.7995 78.1486 92.7574C78.1253 92.7178 78.1131 92.7036 78.1132 92.7035C78.1132 92.7035 78.1135 92.7038 78.114 92.7044C78.0148 92.6045 77.8549 92.4723 77.6277 92.2877C77.611 92.2741 77.594 92.2603 77.5768 92.2463C77.3664 92.0754 77.1153 91.8715 76.8431 91.6345C76.2531 91.1207 75.5569 90.4456 74.913 89.5728C73.6191 87.8187 72.5525 85.286 72.9362 81.6967C73.1295 79.8887 73.9645 77.4592 74.7339 75.5109C75.1212 74.5303 75.4965 73.6603 75.7749 73.0354C75.9142 72.7229 76.0294 72.4714 76.1099 72.2978C76.1501 72.211 76.1817 72.1436 76.2033 72.0978C76.2141 72.0749 76.2224 72.0573 76.2281 72.0455L76.2345 72.0319L76.2368 72.0272C76.2368 72.0271 76.2368 72.027 76.5923 72.1958L76.2368 72.0272C76.3304 71.8315 76.5654 71.7484 76.7618 71.8416ZM82.7592 109.647C82.5464 109.691 82.3376 109.555 82.2929 109.343L82.6784 109.263L83.0638 109.182C83.1084 109.394 82.9721 109.602 82.7592 109.647Z" fill="white"/>
<path d="M87.2975 123.008C87.1931 123.61 86.691 125.558 84.6709 126.525C82.3082 127.651 81.9262 127.803 79.8588 128.934C78.2108 129.839 77.0707 131.93 76.3422 132.803C74.708 134.765 73.436 128.834 73.8613 127.618C75.7633 124.624 79.7328 120.752 82.826 118.89C83.7418 118.387 84.6903 117.945 85.6652 117.568C88.1914 116.587 92.6078 115.017 97.4947 113.304L99.6606 120.83L87.2975 123.008Z" fill="#FFCFC9"/>
<path d="M97.4789 113.255C106.367 107.27 121.313 101.194 121.313 101.194L120.161 77.7166C119.886 72.1194 121.953 66.6204 125.98 62.7065C129.575 59.2124 133.855 57.7901 136.248 66.8264C136.248 66.8264 144.167 100.798 136.051 112.69C131.128 119.914 108.708 123.088 99.7098 121.06L97.4789 113.255Z" fill="#FFB000"/>
<path fill-rule="evenodd" clip-rule="evenodd" d="M120.425 86.6339C120.642 86.6207 120.829 86.7854 120.842 87.0017L121.723 101.451L121.462 101.557L121.313 101.194C121.462 101.557 121.462 101.557 121.462 101.557L121.42 101.575C121.391 101.586 121.349 101.603 121.293 101.626C121.182 101.672 121.018 101.74 120.806 101.829C120.381 102.006 119.764 102.266 118.995 102.597C117.458 103.259 115.316 104.204 112.896 105.335C108.053 107.6 102.117 110.605 97.6994 113.58C97.5192 113.702 97.2744 113.655 97.1527 113.475C97.0309 113.296 97.0782 113.052 97.2584 112.93C101.729 109.92 107.71 106.894 112.562 104.625C114.99 103.489 117.14 102.541 118.683 101.877C119.454 101.544 120.074 101.283 120.501 101.105C120.664 101.037 120.798 100.981 120.903 100.938L120.056 87.0493C120.042 86.833 120.208 86.647 120.425 86.6339Z" fill="white"/>
<path fill-rule="evenodd" clip-rule="evenodd" d="M97.0989 113.104C97.2914 113.003 97.5295 113.077 97.6307 113.269C98.8649 115.61 99.5773 118.188 99.7191 120.829C99.7307 121.045 99.564 121.23 99.3469 121.241C99.1297 121.253 98.9442 121.087 98.9326 120.871C98.7969 118.343 98.1149 115.875 96.9334 113.634C96.8323 113.442 96.9064 113.205 97.0989 113.104Z" fill="white"/>
<path fill-rule="evenodd" clip-rule="evenodd" d="M103.271 111.855C103.375 112.045 103.305 112.284 103.114 112.387L98.1028 115.112C97.9119 115.216 97.6727 115.146 97.5685 114.956C97.4643 114.766 97.5346 114.527 97.7255 114.424L102.736 111.699C102.927 111.595 103.167 111.665 103.271 111.855Z" fill="white"/>
<path fill-rule="evenodd" clip-rule="evenodd" d="M101.995 115.051C102.061 115.257 101.945 115.478 101.738 115.543L98.5539 116.539C98.3464 116.604 98.1253 116.489 98.0601 116.282C97.995 116.076 98.1103 115.855 98.3178 115.79L101.502 114.794C101.709 114.729 101.93 114.844 101.995 115.051Z" fill="white"/>
<path fill-rule="evenodd" clip-rule="evenodd" d="M105.71 117.093C105.744 117.308 105.597 117.508 105.382 117.541L99.0299 118.524C98.815 118.557 98.6137 118.411 98.5803 118.197C98.547 117.983 98.6941 117.782 98.909 117.749L105.261 116.766C105.476 116.733 105.677 116.879 105.71 117.093Z" fill="white"/>
<path fill-rule="evenodd" clip-rule="evenodd" d="M98.932 119.682C98.932 119.466 99.1083 119.29 99.3258 119.29H102.447C102.664 119.29 102.84 119.466 102.84 119.682C102.84 119.899 102.664 120.075 102.447 120.075H99.3258C99.1083 120.075 98.932 119.899 98.932 119.682Z" fill="white"/>
<path d="M126.186 32.3155C126.186 32.3155 100.196 40.1511 78.006 39.0937C78.006 39.0937 70.6205 29.9279 75.0191 25.8924C78.9925 22.2493 84.289 20.0971 82.0877 17.1995C79.8864 14.3018 77.7678 10.0328 83.9779 6.58588C90.188 3.13892 101.348 -2.22477 108.149 0.980888C113.168 3.35472 110.389 10.0054 113.412 10.1094C116.911 10.229 121.364 12.546 120.175 18.3805C118.641 25.8963 128.388 19.9402 126.186 32.3155Z" fill="#722D54"/>
<path fill-rule="evenodd" clip-rule="evenodd" d="M93.8087 2.06478C89.3953 3.29991 85.0379 5.13493 81.9538 6.84678C78.9107 8.53588 77.9796 10.3791 78.006 12.098C78.033 13.8574 79.0598 15.5836 80.1553 17.0257C80.7537 17.8134 80.8805 18.5584 80.5962 19.2779C80.3261 19.9614 79.7015 20.5731 78.9312 21.1665C78.3124 21.6433 77.5658 22.1325 76.7721 22.6525C76.5708 22.7844 76.3665 22.9183 76.1605 23.0545C75.1355 23.7319 74.0553 24.4738 73.0431 25.3353C71.5561 26.6006 70.9663 28.0571 70.9037 29.5358C70.8406 31.027 71.3134 32.5595 71.9898 33.9543C72.6649 35.3464 73.5327 36.5808 74.2344 37.4693C74.5847 37.9129 74.8924 38.2686 75.112 38.513C75.2218 38.6352 75.3095 38.7294 75.3694 38.7928C75.3993 38.8244 75.4223 38.8484 75.4376 38.8642C75.4453 38.8721 75.451 38.878 75.4548 38.8819L75.4599 38.8871C75.4599 38.8871 75.4599 38.8871 75.2495 39.0936C75.0391 39.3001 75.039 39.3 75.0388 39.2998L75.0384 39.2994L75.037 39.2979L75.0318 39.2926C75.0273 39.2881 75.0208 39.2814 75.0124 39.2727C74.9955 39.2553 74.971 39.2297 74.9394 39.1963C74.8763 39.1296 74.7853 39.0317 74.6719 38.9056C74.4453 38.6534 74.1294 38.2881 73.7702 37.8333C73.0528 36.925 72.1579 35.6537 71.4579 34.2103C70.7592 32.7694 70.2447 31.1364 70.3135 29.511C70.3829 27.8732 71.0444 26.262 72.6595 24.8877C73.7 24.0021 74.8048 23.2442 75.834 22.564C76.046 22.4239 76.2543 22.2874 76.458 22.1539C77.2493 21.6354 77.9707 21.1625 78.5699 20.7009C79.3287 20.1163 79.8391 19.5872 80.0465 19.0622C80.2398 18.5732 80.1866 18.042 79.6844 17.3809C78.5786 15.9254 77.4455 14.0682 77.4154 12.107C77.3846 10.1052 78.4993 8.09049 81.6663 6.33262C84.7923 4.59751 89.1928 2.74524 93.649 1.49815C98.0959 0.253671 102.643 -0.40111 106.043 0.30025L105.923 0.876581C102.666 0.204649 98.2315 0.82703 93.8087 2.06478Z" fill="#722D54"/>
<path d="M107.952 25.1116C107.952 25.1116 106.891 39.2094 112.677 45.7894C112.677 45.7894 105.359 56.8327 92.8598 57.3015C80.3609 57.7704 93.102 46.7292 93.102 46.7292C93.102 46.7292 96.1676 42.6093 95.6931 32.1605L107.952 25.1116Z" fill="#FFCFC9"/>
<path d="M107.871 25.1567C106.129 29.7278 101.909 38.7091 95.3879 39.5566C95.7177 37.1052 95.8192 34.6286 95.6912 32.1585L107.871 25.1567Z" fill="#FAB6AD"/>
<path d="M107.952 25.1116C107.952 25.1116 104.177 34.6658 94.7441 34.6658C93.0941 34.6658 86.7738 28.3742 87.2404 18.1863C87.7071 7.99845 98.7529 7.71594 98.7529 7.71594C98.7529 7.71594 97.9653 18.3688 107.363 19.8578C107.363 19.8578 109.757 17.7429 110.71 19.6224C111.663 21.5018 107.952 25.1116 107.952 25.1116Z" fill="#FFCFC9"/>
<path fill-rule="evenodd" clip-rule="evenodd" d="M98.4719 7.43489C98.472 7.4347 98.472 7.43454 98.7529 7.52563C99.0337 7.61671 99.0337 7.61664 99.0337 7.61661L99.0337 7.61675L99.0334 7.61778L99.0318 7.62275C99.0303 7.62735 99.028 7.63451 99.025 7.64416C99.019 7.66345 99.01 7.69266 98.9986 7.73119C98.9758 7.80826 98.9431 7.92253 98.9047 8.0691C98.8278 8.36233 98.7279 8.78421 98.6367 9.2955C98.4541 10.3201 98.3087 11.694 98.4494 13.1072C98.5902 14.5208 99.0154 15.9555 99.9574 17.1233C100.895 18.2854 102.366 19.2107 104.653 19.5731L104.56 20.1543C102.148 19.7722 100.538 18.7829 99.497 17.492C98.4604 16.2069 98.0095 14.6501 97.8616 13.1653C97.7137 11.6802 97.8669 10.2487 98.0551 9.1926C98.1494 8.66353 98.253 8.2262 98.3332 7.92031C98.3733 7.76731 98.4076 7.64705 98.4321 7.56447C98.4444 7.52317 98.4541 7.49129 98.461 7.46943C98.4644 7.4585 98.467 7.45008 98.4689 7.44424L98.4711 7.43743L98.4717 7.43549L98.4719 7.43489Z" fill="#722D54"/>
<path fill-rule="evenodd" clip-rule="evenodd" d="M110.387 23.9266C109.083 23.9266 108.025 24.9807 108.025 26.2809C108.025 27.5811 109.083 28.6351 110.387 28.6351C111.692 28.6351 112.75 27.5811 112.75 26.2809C112.75 24.9807 111.692 23.9266 110.387 23.9266ZM107.237 26.2809C107.237 24.5473 108.648 23.1419 110.387 23.1419C112.127 23.1419 113.538 24.5473 113.538 26.2809C113.538 28.0145 112.127 29.4198 110.387 29.4198C108.648 29.4198 107.237 28.0145 107.237 26.2809Z" fill="white"/>
<path d="M112.449 44.936C112.646 44.9144 113.085 45.7541 112.921 45.864C110.387 47.5571 101.976 50.18 96.4118 48.4497C89.0754 46.1661 93.8245 44.1062 94.4428 44.4534C96.3822 45.5148 104.189 45.7875 112.449 44.936Z" fill="white"/>
<path fill-rule="evenodd" clip-rule="evenodd" d="M96.5584 47.9815C94.7431 47.4164 93.7456 46.8844 93.2485 46.4458L96.5584 47.9815ZM93.2485 46.4458C93.0043 46.2304 92.9073 46.0607 92.8727 45.9473L93.2485 46.4458ZM92.8727 45.9473C92.8413 45.8445 92.8511 45.758 92.892 45.669L92.8727 45.9473ZM92.892 45.669C92.9902 45.4549 93.2767 45.2227 93.6534 45.0603L92.892 45.669ZM93.6534 45.0603C93.8303 44.9841 93.998 44.9364 94.126 44.9162L93.6534 45.0603ZM94.126 44.9162C94.182 44.9073 94.2223 44.9051 94.2473 44.9055L94.126 44.9162ZM94.2473 44.9055C94.8196 45.2055 95.7316 45.4234 96.8433 45.5818C98.0011 45.7468 99.4365 45.8547 101.061 45.9023C104.261 45.9959 108.225 45.8561 112.306 45.4437C112.309 45.4481 112.312 45.4526 112.315 45.4573C112.338 45.493 112.361 45.5331 112.382 45.5749C112.389 45.5875 112.395 45.6 112.401 45.6123C111.112 46.3879 108.589 47.3571 105.702 47.9606C102.62 48.6048 99.2232 48.8101 96.5585 47.9815M94.2697 44.907C94.2697 44.907 94.2683 44.9069 94.2658 44.9064C94.2685 44.9067 94.2698 44.9069 94.2697 44.907ZM94.6813 44.0243C94.549 43.951 94.409 43.9313 94.3077 43.9261C94.1973 43.9205 94.0825 43.9299 93.972 43.9473C93.7506 43.9822 93.5032 44.0563 93.2625 44.16C92.8041 44.3576 92.2459 44.718 91.9967 45.261C91.8638 45.5505 91.8241 45.8835 91.9309 46.233C92.0344 46.5718 92.2633 46.8869 92.5959 47.1803C93.2522 47.7593 94.4122 48.3411 96.265 48.9178L96.2651 48.9179C99.1647 49.8196 102.756 49.5786 105.904 48.9206C109.05 48.263 111.855 47.1669 113.196 46.2713L113.197 46.2705C113.392 46.139 113.436 45.9389 113.446 45.8389C113.456 45.7321 113.441 45.633 113.424 45.5616C113.391 45.4137 113.326 45.2587 113.258 45.1265C113.189 44.993 113.101 44.8522 113.003 44.738C112.955 44.6821 112.891 44.6164 112.813 44.5622C112.747 44.5165 112.597 44.4272 112.397 44.4482C108.287 44.8719 104.293 45.0155 101.09 44.9217C99.4884 44.8749 98.0922 44.7688 96.9826 44.6108C95.8555 44.4502 95.0822 44.2432 94.6813 44.0243Z" fill="#D8BAA3"/>
<path d="M115.461 44.0885C115.461 44.0885 118.218 39.9686 122.132 40.5278C122.132 40.5278 120.201 44.7869 115.461 44.0885Z" fill="white"/>
<path fill-rule="evenodd" clip-rule="evenodd" d="M115.461 44.0885L115.052 43.8165L114.621 44.4605L115.389 44.5737C117.937 44.9491 119.747 43.9856 120.906 42.9324C121.481 42.4094 121.896 41.8647 122.168 41.451C122.304 41.2436 122.406 41.0676 122.474 40.9416C122.508 40.8785 122.533 40.8278 122.551 40.7918C122.56 40.7738 122.567 40.7594 122.572 40.749C122.574 40.7437 122.576 40.7395 122.578 40.7363L122.58 40.7322L122.58 40.7308L122.581 40.7302C122.581 40.73 122.613 40.6311 122.624 40.5278V40.1026L122.202 40.0423C120.05 39.7348 118.245 40.7183 117.017 41.7188C116.399 42.2227 115.911 42.7432 115.577 43.1373C115.41 43.3348 115.28 43.5017 115.192 43.6205C115.148 43.6799 115.114 43.7274 115.09 43.7607C115.079 43.7774 115.069 43.7906 115.063 43.8L115.055 43.8112L115.053 43.8146L115.052 43.8161C115.052 43.8163 115.052 43.8165 115.461 44.0885ZM117.641 42.4782C117.128 42.8954 116.712 43.3279 116.411 43.6748C118.14 43.6971 119.388 42.9839 120.242 42.2077C120.718 41.7752 121.071 41.3228 121.309 40.9672C119.864 40.9959 118.605 41.6922 117.641 42.4782Z" fill="#D8BAA3"/>
<path d="M115.751 44.5142C115.751 44.5142 123.001 44.4848 125.73 49.7641C125.73 49.7641 119.033 50.9098 115.751 44.5142Z" fill="white"/>
<path fill-rule="evenodd" clip-rule="evenodd" d="M116.62 45.0539C118.165 47.5498 120.288 48.618 122.089 49.0614C123.082 49.3057 123.979 49.3599 124.626 49.3528C124.731 49.3516 124.828 49.3489 124.918 49.3451C123.589 47.2931 121.474 46.2047 119.574 45.6287C118.533 45.3133 117.572 45.1569 116.872 45.0796C116.784 45.0698 116.699 45.0613 116.62 45.0539ZM125.729 49.7641L125.813 50.2475L126.475 50.1343L126.167 49.5395C124.717 46.7334 122.076 45.3618 119.86 44.6902C118.747 44.353 117.725 44.1868 116.98 44.1046C116.608 44.0635 116.303 44.0433 116.091 44.0333C115.984 44.0284 115.901 44.026 115.843 44.0248C115.814 44.0242 115.791 44.024 115.775 44.0238C115.768 44.0238 115.761 44.0238 115.757 44.0237L115.752 44.0237L115.75 44.0237L115.749 44.0237C115.749 44.0237 115.749 44.0237 115.751 44.5142L115.749 44.0237L114.948 44.027L115.313 44.7375C117.031 48.0862 119.659 49.4737 121.853 50.0137C122.945 50.2823 123.927 50.3414 124.637 50.3336C124.993 50.3297 125.282 50.309 125.484 50.2889C125.585 50.2788 125.665 50.2689 125.721 50.2613C125.748 50.2575 125.77 50.2543 125.786 50.2519C125.793 50.2507 125.799 50.2497 125.804 50.249L125.81 50.248L125.812 50.2477L125.812 50.2476C125.813 50.2475 125.813 50.2475 125.729 49.7641Z" fill="#D8BAA3"/>
<path d="M114.128 46.1936C114.944 46.1936 115.605 45.5349 115.605 44.7222C115.605 43.9096 114.944 43.2509 114.128 43.2509C113.313 43.2509 112.652 43.9096 112.652 44.7222C112.652 45.5349 113.313 46.1936 114.128 46.1936Z" fill="white"/>
<path fill-rule="evenodd" clip-rule="evenodd" d="M114.128 43.7412C113.585 43.7412 113.144 44.1804 113.144 44.7222C113.144 45.2639 113.585 45.7031 114.128 45.7031C114.672 45.7031 115.113 45.2639 115.113 44.7222C115.113 44.1804 114.672 43.7412 114.128 43.7412ZM112.159 44.7222C112.159 43.6387 113.041 42.7603 114.128 42.7603C115.216 42.7603 116.097 43.6387 116.097 44.7222C116.097 45.8057 115.216 46.684 114.128 46.684C113.041 46.684 112.159 45.8057 112.159 44.7222Z" fill="#D8BAA3"/>
<path d="M73.8692 129.017H20.2802C19.61 129.016 18.9539 128.825 18.3879 128.468C17.8219 128.11 17.3693 127.6 17.0826 126.996L0.771808 92.5539C0.637642 92.2713 0.577414 91.9594 0.596728 91.6473C0.616042 91.3352 0.71427 91.033 0.882274 90.7689C1.05028 90.5048 1.2826 90.2873 1.55762 90.1367C1.83264 89.986 2.14144 89.9072 2.45526 89.9074H55.3827C56.2541 89.9071 57.1075 90.1537 57.8435 90.6185C58.5795 91.0833 59.1676 91.7471 59.5392 92.5324L75.5547 126.368C75.6888 126.651 75.7489 126.963 75.7295 127.276C75.71 127.588 75.6117 127.89 75.4435 128.155C75.2753 128.419 75.0428 128.637 74.7675 128.787C74.4923 128.938 74.1833 129.017 73.8692 129.017Z" fill="white"/>
<path fill-rule="evenodd" clip-rule="evenodd" d="M2.45481 90.496C2.24061 90.4958 2.02985 90.5496 1.84213 90.6524C1.65442 90.7552 1.49585 90.9037 1.38118 91.0839C1.26651 91.2642 1.19947 91.4704 1.18628 91.6835C1.1731 91.8965 1.21421 92.1094 1.30578 92.3023L17.6165 126.744C17.6166 126.744 17.6167 126.745 17.6167 126.745C17.8557 127.248 18.2327 127.673 18.7042 127.971C19.1759 128.269 19.7227 128.427 20.2812 128.428H73.8692V129.017L73.8696 128.428C74.0841 128.428 74.2951 128.374 74.483 128.272C74.671 128.169 74.8298 128.02 74.9446 127.84C75.0595 127.659 75.1266 127.453 75.1399 127.239C75.1532 127.026 75.1121 126.813 75.0205 126.62L75.0204 126.619L59.0049 92.7834C58.6811 92.0991 58.1686 91.5206 57.5272 91.1156C56.8859 90.7106 56.1422 90.4957 55.3829 90.496L2.45481 90.496ZM73.8688 129.605H20.2792C19.4973 129.604 18.7318 129.382 18.0715 128.965C17.4112 128.547 16.8832 127.952 16.5487 127.248L0.23781 92.8055C0.237772 92.8055 0.237734 92.8054 0.237696 92.8053C0.0610176 92.4329 -0.0182903 92.0221 0.00714965 91.611C0.0325951 91.1998 0.162007 90.8018 0.383345 90.4538C0.604684 90.1058 0.910757 89.8193 1.27309 89.6209C1.63534 89.4225 2.04189 89.3186 2.45525 89.3188" fill="#FFB000"/>
<path d="M103.937 129.017H18.4628C17.4863 129.017 16.6947 129.806 16.6947 130.779V131.167C16.6947 132.14 17.4863 132.929 18.4628 132.929H103.937C104.914 132.929 105.705 132.14 105.705 131.167V130.779C105.705 129.806 104.914 129.017 103.937 129.017Z" fill="white"/>
<path fill-rule="evenodd" clip-rule="evenodd" d="M18.4629 129.605C17.8126 129.605 17.2854 130.131 17.2854 130.778V131.167C17.2854 131.815 17.8126 132.34 18.4629 132.34H103.937C104.587 132.34 105.115 131.815 105.115 131.167V130.778C105.115 130.131 104.587 129.605 103.937 129.605H18.4629ZM16.1041 130.778C16.1041 129.48 17.1601 128.428 18.4629 128.428H103.937C105.24 128.428 106.296 129.48 106.296 130.778V131.167C106.296 132.465 105.24 133.517 103.937 133.517H18.4629C17.1601 133.517 16.1041 132.465 16.1041 131.167V130.778Z" fill="#FFB000"/>
</svg>
