<svg width="114" height="219" viewBox="0 0 114 219" fill="none" xmlns="http://www.w3.org/2000/svg">
<path fill-rule="evenodd" clip-rule="evenodd" d="M30.0271 175.566V147.639H31.063V175.854L5.42025 219L4.53122 218.465L30.0271 175.566Z" fill="#6562CF"/>
<path fill-rule="evenodd" clip-rule="evenodd" d="M39.6782 147.639H40.7141V175.566L66.2099 218.465L65.3209 219L39.6782 175.854V147.639Z" fill="#6562CF"/>
<path d="M58.3622 138.083H12.3806C9.75848 138.083 7.6328 140.222 7.6328 142.86C7.6328 145.499 9.75848 147.638 12.3806 147.638H58.3622C60.9844 147.638 63.11 145.499 63.11 142.86C63.11 140.222 60.9844 138.083 58.3622 138.083Z" fill="white"/>
<path fill-rule="evenodd" clip-rule="evenodd" d="M12.3806 138.517C9.99685 138.517 8.06442 140.462 8.06442 142.861C8.06442 145.259 9.99685 147.204 12.3806 147.204H58.3622C60.746 147.204 62.6784 145.259 62.6784 142.861C62.6784 140.462 60.746 138.517 58.3622 138.517H12.3806ZM7.20117 142.861C7.20117 139.982 9.5201 137.648 12.3806 137.648H58.3622C61.2227 137.648 63.5416 139.982 63.5416 142.861C63.5416 145.739 61.2227 148.073 58.3622 148.073H12.3806C9.5201 148.073 7.20117 145.739 7.20117 142.861Z" fill="#FFB000"/>
<path fill-rule="evenodd" clip-rule="evenodd" d="M34.8526 218.799V148.085H35.8885V218.799H34.8526Z" fill="#6562CF"/>
<path d="M63.0168 70.0947C63.0168 70.0947 62.0517 79.6104 62.7665 79.6625C71.6199 80.3019 81.8131 81.3999 83.3877 81.9733C85.5354 82.6178 91.7836 84.4716 92.6468 85.2743C93.7362 86.2889 94.268 89.6178 94.268 90.0278C94.268 90.4378 93.7483 92.6026 93.7483 92.6026C93.7483 92.6026 92.2463 92.6426 92.2256 90.9973C92.1962 89.0479 90.4127 88.6657 89.2059 88.3043C88.7018 88.1532 87.4794 88.4033 87.3551 89.1556C87.2308 89.9079 89.1472 90.5455 89.5063 91.039C90.0519 91.7774 89.6548 92.7364 89.6462 92.7555L86.1397 91.4177C85.6217 91.2214 82.9871 88.836 81.7113 86.5982C81.7113 86.5982 56.7635 94.38 50.5602 90.4639C48.2157 88.9854 48.6611 84.2492 49.6158 76.98L63.0168 70.0947Z" fill="#B65A18"/>
<path d="M25.5848 143.204C49.6227 143.232 52.5353 143.439 66.14 142.829C66.14 142.829 65.4063 135.997 67.573 130.537C73.9437 114.483 82.1152 117.348 82.1152 117.348C76.126 113.912 68.0858 110.793 49.6072 109.657C47.7857 104.862 47.6217 100.899 47.273 97.363L16.69 97.3179C16.69 97.3179 12.5775 104.808 8.51676 119.935C4.57346 134.628 15.9424 143.194 25.5848 143.204Z" fill="#3F4D79"/>
<path d="M89.9759 148.986C91.0377 143.208 89.7912 133.477 81.126 134.926C72.4607 136.375 73.9921 141.945 74.0007 145.635C74.0249 156.255 70.4459 161.619 69.2753 170.758C67.6594 183.38 70.2594 198.622 72.5954 208.676L70.6807 212.941C70.6807 212.941 74.0076 216.069 81.6836 216.59C89.3596 217.111 83.8901 213.735 83.8901 213.735C80.1367 210.017 78.0787 207.338 79.0455 200.264C79.7379 195.196 88.3427 157.88 89.9759 148.986Z" fill="#B65A18"/>
<path d="M71.4611 211.051C71.4611 211.051 67.5264 218.784 72.497 218.798C74.6223 218.798 91.143 218.749 91.143 218.749C91.143 218.749 91.787 214.779 86.3365 214.039C85.5786 213.937 83.8452 213.692 83.8452 213.692C83.8452 213.692 85.8462 216.112 81.3815 215.716C73.9144 215.049 73.8419 210.257 71.4611 211.051Z" fill="#3F4D79"/>
<path d="M77.174 117.908C85.0865 114.072 86.0896 124.117 84.8603 128.805C84.3579 130.742 79.0731 146.114 77.4537 151.311C75.8343 156.507 63.6297 186.959 62.3763 205.034C62.3625 205.231 60.5358 209.91 56.1333 196.467C54.5 191.476 58.8612 192.037 58.6143 189.839C57.423 179.269 55.7051 156.82 58.1343 144.667C59.1149 139.761 65.4339 123.598 77.174 117.908Z" fill="#C36F0B"/>
<path d="M58.4831 190.48C58.4831 190.48 50.2408 191.261 52.6579 195.63C53.6938 197.496 62.5213 212.888 62.5213 212.888C62.5213 212.888 65.9294 211.498 63.9025 206.362C63.6194 205.646 62.5627 203.084 62.5627 203.084C62.5627 203.084 61.3542 205.957 59.6778 201.777C57.1243 195.434 60.1491 193.893 58.4831 190.48Z" fill="#3F4D79"/>
<path d="M50.4359 95.662C50.4359 95.662 52.4784 84.4663 56.1609 73.6319C56.1609 73.6319 57.4696 72.9717 66.3593 68.4197C66.3593 68.4197 66.5734 55.6586 59.9868 49.602C55.6378 45.606 46.7309 42.6525 46.7309 42.6525L29.611 41.7334C26.31 41.9297 18.028 42.9357 10.6386 48.815C3.33387 54.6248 0.0414581 61.2061 0.0414581 61.2061C0.0414581 61.2061 9.70979 63.489 16.747 71.898L11.823 95.662C11.823 95.662 17.5187 98.8571 30.7574 99.2046C46.9277 99.6215 50.4359 95.662 50.4359 95.662Z" fill="#DBDAFF"/>
<path d="M58.5798 82.0867C58.5262 84.0968 53.5729 82.5714 53.5401 83.348C53.5158 83.4808 53.5185 83.6172 53.5482 83.749C53.5779 83.8807 53.6339 84.005 53.7128 84.1142C53.9407 84.4356 54.0909 84.8561 53.7732 85.4763C53.3485 86.3068 54.7642 86.5187 54.3343 87.8583C53.9044 89.1978 54.5691 89.0275 54.652 90.4036C54.7435 91.9585 48.2381 93.3085 46.2958 92.551C46.1039 92.4719 45.9325 92.3494 45.7951 92.1931C43.0845 92.2904 4.06244 93.5969 0.977202 89.1283C-2.56555 84.0047 4.66153 62.8555 4.66153 62.8555C11.5468 65.4233 17.2787 71.9003 17.2787 71.9003L15.5056 79.3798C26.2927 79.9427 38.3436 83.5495 44.5434 85.6344C44.5779 84.4582 44.8732 83.7146 45.0614 82.9293C45.215 82.2882 45.9557 81.0512 48.5437 80.9869C51.1317 80.9226 58.6091 81.0373 58.5798 82.0867Z" fill="#C36F0B"/>
<path d="M4.66154 62.8555C4.66154 62.8555 11.3241 64.7353 17.2787 71.8986L16.6209 74.708C16.6209 74.708 10.8648 69.4523 3.20784 67.8279L4.66154 62.8555Z" fill="#B65A18"/>
<path d="M64.4533 21.6669C63.3034 24.3355 64.1874 25.2268 64.3635 26.026C64.5361 26.7974 64.3963 31.3268 58.0721 31.226C57.7943 31.5742 57.6034 31.9843 57.5153 32.422C57.4273 32.8597 57.4448 33.3122 57.5663 33.7417C57.7238 34.2945 58.0926 34.7618 58.592 35.0413C59.0914 35.3207 59.6806 35.3895 60.2303 35.2324C60.6497 35.1107 61.0044 34.8271 61.2172 34.4435C61.43 34.0599 61.4835 33.6072 61.3663 33.184C61.3214 33.0241 61.2454 32.8746 61.1429 32.7443C61.0404 32.614 60.9133 32.5053 60.7689 32.4246C60.6245 32.3439 60.4656 32.2926 60.3015 32.2739C60.1374 32.2551 59.9712 32.2692 59.8125 32.3153C59.5746 32.3845 59.3735 32.5455 59.2532 32.7633C59.1329 32.981 59.103 33.2378 59.1702 33.4777C59.1945 33.564 59.2354 33.6448 59.2908 33.7151C59.3462 33.7855 59.4148 33.8442 59.4928 33.8878C59.5708 33.9314 59.6565 33.959 59.7452 33.9692C59.8338 33.9793 59.9236 33.9717 60.0093 33.9468C60.0974 33.9214 60.192 33.9323 60.2721 33.9771C60.3522 34.0219 60.4114 34.0969 60.4366 34.1856C60.4618 34.2743 60.4509 34.3695 60.4064 34.4501C60.3619 34.5308 60.2873 34.5903 60.1992 34.6157C59.8501 34.7154 59.4759 34.6717 59.1587 34.4942C58.8415 34.3167 58.6073 34.0198 58.5072 33.6688C58.4485 33.4622 58.4307 33.2459 58.4551 33.0325C58.4794 32.819 58.5454 32.6124 58.6491 32.4246C58.7529 32.2367 58.8924 32.0713 59.0597 31.9378C59.227 31.8043 59.4189 31.7053 59.6243 31.6465C60.1204 31.5045 60.6522 31.5666 61.1029 31.8191C61.5535 32.0716 61.8861 32.4938 62.0275 32.9929C62.1962 33.5921 62.1226 34.2342 61.8228 34.779C61.523 35.3238 61.0213 35.7272 60.4271 35.9013C60.172 35.9737 59.9083 36.0105 59.6433 36.0108C59.0246 36.0096 58.4232 35.8054 57.9303 35.4291C57.4374 35.0529 57.0799 34.5251 56.912 33.9259C56.7819 33.4686 56.7465 32.9894 56.808 32.5178C56.8694 32.0462 57.0265 31.5923 57.2693 31.1843C50.1476 30.7447 29.6196 41.7268 29.6196 41.7268C29.6196 41.7268 25.1998 43.0159 23.8721 40.1631C23.8721 40.1631 16.8868 40.5297 15.4728 36.1671C14.9117 34.4384 15.0584 33.158 15.4417 32.2406C15.0611 32.4604 14.6363 32.5911 14.1986 32.6229C14.1434 32.6229 14.0858 32.6229 14.026 32.6229C13.3019 32.6221 12.6054 32.3437 12.0781 31.8444C11.5509 31.345 11.2324 30.6623 11.1876 29.9351C11.1542 29.3113 11.3678 28.6995 11.7817 28.2338C12.1956 27.7681 12.776 27.4865 13.3958 27.4506C13.9107 27.4222 14.4158 27.6002 14.8006 27.9457C15.1853 28.2912 15.4183 28.776 15.4486 29.294C15.4726 29.7268 15.3251 30.1515 15.0383 30.475C14.7515 30.7984 14.349 30.9942 13.9189 31.0193C13.5565 31.0401 13.2007 30.9153 12.9297 30.6723C12.6588 30.4292 12.4948 30.0878 12.4739 29.7232C12.4713 29.6775 12.4776 29.6318 12.4926 29.5887C12.5075 29.5455 12.5307 29.5057 12.561 29.4716C12.5912 29.4375 12.6278 29.4097 12.6687 29.3898C12.7096 29.3699 12.754 29.3583 12.7993 29.3557C12.8447 29.3531 12.8901 29.3595 12.933 29.3745C12.9759 29.3895 13.0154 29.4129 13.0493 29.4433C13.0832 29.4738 13.1108 29.5106 13.1306 29.5517C13.1503 29.5929 13.1619 29.6376 13.1645 29.6832C13.1695 29.7728 13.1921 29.8604 13.2308 29.9412C13.2696 30.022 13.3238 30.0943 13.3903 30.154C13.4569 30.2137 13.5345 30.2596 13.6186 30.2892C13.7028 30.3187 13.792 30.3312 13.881 30.326C14.1283 30.3117 14.36 30.1992 14.525 30.0132C14.6901 29.8272 14.7751 29.583 14.7615 29.334C14.7522 29.1682 14.7105 29.006 14.6388 28.8565C14.5671 28.707 14.4668 28.5732 14.3436 28.4628C14.2205 28.3524 14.0768 28.2675 13.921 28.2131C13.7652 28.1587 13.6002 28.1357 13.4355 28.1456C13.2188 28.158 13.0066 28.2133 12.8112 28.3084C12.6157 28.4034 12.4408 28.5363 12.2965 28.6995C12.1522 28.8626 12.0412 29.0528 11.9701 29.2592C11.8989 29.4656 11.8688 29.684 11.8817 29.9021C11.9155 30.4756 12.1741 31.0122 12.6008 31.394C13.0274 31.7758 13.5872 31.9716 14.1572 31.9383C15.1465 31.881 16.2083 30.9428 16.7625 29.8413C15.9251 28.7884 14.1037 26.0607 14.8478 23.0898C15.73 19.5612 19.1813 18.861 19.1813 18.861C19.1813 18.861 16.0736 12.285 21.9437 9.11943C23.5061 8.27679 24.9115 7.98665 26.139 8.01792C25.9954 7.86322 25.8676 7.69443 25.7575 7.51408C25.5153 7.11315 25.4331 6.63472 25.5276 6.17526C25.6222 5.71579 25.8863 5.30949 26.2668 5.03829C26.4236 4.92972 26.6009 4.8546 26.7876 4.81755C26.9744 4.7805 27.1667 4.78231 27.3527 4.82286C27.5442 4.865 27.725 4.94588 27.8844 5.06057C28.0438 5.17526 28.1784 5.32137 28.2799 5.49002C28.4524 5.77438 28.511 6.11417 28.4436 6.44039C28.3763 6.76661 28.1881 7.05483 27.9173 7.24652C27.8415 7.29836 27.7484 7.31778 27.6584 7.30051C27.5684 7.28324 27.4889 7.2307 27.4373 7.15444C27.3858 7.07818 27.3665 6.98445 27.3837 6.89387C27.4008 6.80329 27.4531 6.72328 27.5288 6.67144C27.6537 6.58138 27.7399 6.44696 27.7701 6.29537C27.8002 6.14378 27.772 5.98633 27.6911 5.85487C27.6383 5.76691 27.5681 5.69073 27.485 5.63098C27.4019 5.57124 27.3075 5.52918 27.2077 5.50739C27.1129 5.48739 27.0151 5.48693 26.9202 5.50604C26.8252 5.52516 26.7351 5.56344 26.6552 5.61858C26.4185 5.78806 26.2548 6.04189 26.1974 6.32846C26.14 6.61504 26.1932 6.91286 26.3462 7.16139C26.5482 7.49323 27.3182 8.53914 28.6718 8.04746C28.6367 7.41245 28.7331 6.77703 28.9549 6.1815C29.1174 5.76805 29.3706 5.39687 29.6956 5.09563C30.0947 4.74285 30.5776 4.49986 31.0975 4.39025C31.848 4.23837 32.62 4.22659 33.3747 4.3555C33.3747 4.3555 33.6285 2.20461 36.0283 1.3307C39.6799 -0.000143488 43.107 2.4461 43.107 2.4461C43.107 2.4461 46.2492 -1.24759 50.7587 0.442891C54.6675 1.91099 55.113 4.69081 55.163 5.3962C55.7322 5.44182 56.2993 5.28638 56.7669 4.95664C57.9306 4.10358 57.5007 2.87177 57.3418 2.52429C57.2229 2.25751 57.0076 2.04624 56.7395 1.93332C56.4715 1.8204 56.1708 1.81428 55.8985 1.9162C55.8082 1.9519 55.7262 2.00574 55.6573 2.07445C55.5884 2.14316 55.5342 2.22528 55.498 2.3158C55.4605 2.41177 55.4429 2.51441 55.4462 2.61747C55.4494 2.72052 55.4735 2.82182 55.5169 2.9152C55.5797 3.05721 55.6941 3.16964 55.8367 3.22941C55.9792 3.28919 56.1391 3.29177 56.2835 3.23662C56.3687 3.20252 56.4638 3.20386 56.548 3.24036C56.6322 3.27685 56.6985 3.3455 56.7324 3.43121C56.7663 3.51691 56.7649 3.61265 56.7287 3.69737C56.6924 3.78208 56.6242 3.84883 56.539 3.88293C56.2292 4.00105 55.8863 3.99602 55.5801 3.86887C55.2738 3.74172 55.0272 3.50199 54.8902 3.1984C54.8084 3.01955 54.7636 2.8258 54.7585 2.62896C54.7535 2.43212 54.7883 2.23631 54.8609 2.05345C54.932 1.87596 55.0383 1.71492 55.1734 1.5802C55.3085 1.44547 55.4694 1.33988 55.6464 1.26989C56.0837 1.10284 56.5678 1.10976 57.0001 1.28922C57.4325 1.46868 57.7807 1.8072 57.9737 2.23588C58.414 3.21751 58.4347 4.59526 57.1761 5.51955C57.1347 5.55082 57.0915 5.58036 57.0466 5.60989C57.713 5.70893 58.3967 5.92089 58.7973 6.36045C59.7693 7.42894 58.7973 8.85187 58.7973 8.85187C58.7973 8.85187 61.2282 9.29664 62.0016 11.1661C62.7751 13.0355 61.5372 14.0137 62.9529 15.348C64.3687 16.6823 65.6065 18.9965 64.4533 21.6669Z" fill="#3F4D79"/>
<path d="M40.6191 30.0375C40.6191 30.0375 40.6657 16.6822 51.1886 16.8612C61.7116 17.0401 57.309 31.1929 57.309 31.1929L40.6191 30.0375Z" fill="white"/>
<path d="M40.6277 29.5928C40.6277 29.5928 38.5645 36.2313 29.611 41.7319C29.611 41.7319 39.6954 46.1362 47.9118 42.9342L40.6277 29.5928Z" fill="#C36F0B"/>
<path d="M47.9186 42.9326C46.0528 43.6352 44.0848 44.0238 42.0935 44.0827C37.6253 40.1649 39.9181 31.4085 40.4844 30.0377C40.5258 29.9369 40.5863 29.8101 40.657 29.6606L47.9186 42.9326Z" fill="#B65A18"/>
<path d="M40.6191 30.0378C39.9199 31.73 43.6715 42.9344 47.9187 42.9344C52.8685 42.9344 62.1968 27.2701 55.2097 23.533C48.2226 19.7958 41.2838 28.422 40.6191 30.0378Z" fill="#C36F0B"/>
<path d="M32.8153 92.5752H114V97.1428H32.8153C32.2138 97.1428 31.6369 96.9026 31.2112 96.4749C30.7855 96.0471 30.5459 95.4669 30.545 94.8616C30.545 94.2557 30.7842 93.6745 31.21 93.2461C31.6357 92.8176 32.2132 92.5769 32.8153 92.5769V92.5752Z" fill="white"/>
<path fill-rule="evenodd" clip-rule="evenodd" d="M32.8153 93.0113C32.3277 93.0113 31.86 93.2062 31.5152 93.5532C31.1704 93.9002 30.9767 94.3708 30.9766 94.8614C30.977 95.3519 31.1709 95.8221 31.5157 96.1687C31.8605 96.5154 32.3279 96.7102 32.8153 96.7102H114V97.5789H32.8153C32.0991 97.5789 31.4122 97.2927 30.9055 96.7832C30.3988 96.2738 30.1139 95.5827 30.1134 94.8619L30.545 94.8616H30.1134C30.1134 94.1405 30.3981 93.4489 30.9048 92.939C31.4115 92.429 32.0987 92.1426 32.8153 92.1426H114V93.0113H32.8153Z" fill="#FFB000"/>
<path fill-rule="evenodd" clip-rule="evenodd" d="M101.985 63.2562C101.812 63.1609 101.618 63.1114 101.421 63.1122L101.421 63.1122H62.2882C61.6282 63.1117 60.9816 63.3 60.4238 63.6551C59.866 64.0102 59.42 64.5175 59.1377 65.1178L47.0954 90.668C47.0111 90.8466 46.9729 91.0438 46.9846 91.2411C46.9964 91.4384 47.0576 91.6295 47.1625 91.7967C47.2674 91.9638 47.4127 92.1014 47.5848 92.1968C47.7568 92.2922 47.9501 92.3422 48.1466 92.3421H87.2792C87.9387 92.3421 88.5847 92.154 89.1423 91.7997C89.6999 91.4453 90.1463 90.9391 90.4297 90.3398L102.475 64.7898L102.476 64.7895C102.561 64.6106 102.599 64.4128 102.588 64.2148C102.576 64.0167 102.515 63.8249 102.41 63.6572C102.304 63.4895 102.158 63.3516 101.985 63.2562ZM101.421 62.9385C101.647 62.9375 101.87 62.9944 102.068 63.1039C102.267 63.2133 102.435 63.3718 102.556 63.5643C102.677 63.7568 102.747 63.9772 102.76 64.2046C102.774 64.4319 102.729 64.6589 102.631 64.8643M102.631 64.8646L90.5857 90.4144C90.2882 91.0433 89.8197 91.5746 89.2345 91.9465C88.6493 92.3185 87.9713 92.5159 87.2792 92.5159H48.1466C47.921 92.5159 47.6991 92.4585 47.5015 92.349C47.3039 92.2395 47.1371 92.0814 47.0165 91.8895C46.896 91.6976 46.8258 91.4781 46.8123 91.2515C46.7988 91.0249 46.8426 90.7985 46.9395 90.5935L58.9817 65.0435C59.2779 64.4134 59.7461 63.8809 60.3315 63.5082C60.9169 63.1356 61.5955 62.938 62.2883 62.9385C62.2883 62.9385 62.2883 62.9385 62.2883 62.9385H101.421C101.421 62.9385 101.421 62.9385 101.42 62.9385L101.421 63.0254V62.9385H101.421" fill="black"/>
<path d="M87.4121 92.429H48.2795C48.0685 92.4291 47.8609 92.3754 47.6761 92.2729C47.4912 92.1705 47.3352 92.0226 47.2225 91.8431C47.1098 91.6635 47.044 91.4582 47.0314 91.2463C47.0188 91.0343 47.0597 90.8226 47.1504 90.6308L59.1926 65.0807C59.4824 64.4658 59.9396 63.9463 60.5111 63.5825C61.0826 63.2187 61.7449 63.0255 62.4212 63.0254H101.554C101.765 63.0253 101.972 63.079 102.157 63.1815C102.342 63.2839 102.498 63.4318 102.611 63.6113C102.724 63.7909 102.789 63.9962 102.802 64.2081C102.814 64.4201 102.774 64.6318 102.683 64.8236L90.6406 90.3771C90.3505 90.9915 89.8932 91.5104 89.3217 91.8736C88.7502 92.2368 88.088 92.4294 87.4121 92.429Z" fill="#EAEEFF"/>
<path fill-rule="evenodd" clip-rule="evenodd" d="M101.907 63.6382C101.799 63.5782 101.677 63.5468 101.554 63.5468H62.4212C62.4212 63.5468 62.4213 63.5468 62.4212 63.5468C61.843 63.5469 61.2766 63.7121 60.788 64.0232C60.2993 64.3343 59.9084 64.7785 59.6606 65.3043L47.6181 90.8549C47.565 90.9672 47.541 91.0912 47.5484 91.2154C47.5558 91.3395 47.5943 91.4597 47.6603 91.5649C47.7263 91.67 47.8177 91.7566 47.926 91.8166C48.0342 91.8766 48.1558 91.908 48.2794 91.908H87.4121V92.4292L87.4124 91.908C87.9903 91.9084 88.5565 91.7437 89.0451 91.4332C89.5337 91.1226 89.9248 90.6789 90.1728 90.1537L102.215 64.6005L102.215 64.5999C102.268 64.4876 102.292 64.3636 102.285 64.2395C102.277 64.1153 102.239 63.9951 102.173 63.89C102.107 63.7849 102.016 63.6983 101.907 63.6382ZM87.4118 92.9504H48.2796C48.2796 92.9504 48.2797 92.9504 48.2796 92.9504C47.9813 92.9505 47.6875 92.8746 47.4262 92.7297C47.1647 92.5848 46.944 92.3756 46.7846 92.1217C46.6252 91.8678 46.5322 91.5774 46.5144 91.2776C46.4966 90.9778 46.5545 90.6784 46.6827 90.4071L58.7246 64.8576C59.0564 64.1536 59.5799 63.5588 60.2342 63.1422C60.8885 62.7257 61.6468 62.5045 62.4211 62.5044L101.554 62.5044C101.554 62.5044 101.554 62.5044 101.554 62.5044C101.852 62.5043 102.146 62.5803 102.407 62.7252C102.669 62.8701 102.889 63.0792 103.049 63.3331C103.208 63.587 103.301 63.8774 103.319 64.1772C103.337 64.4768 103.279 64.7761 103.151 65.0471L103.151 65.0477" fill="#6562CF"/>
<path d="M48.6162 91.7866L60.4167 66.7456C60.7009 66.1431 61.1491 65.634 61.7093 65.2776C62.2695 64.9211 62.9186 64.7319 63.5814 64.7319H100.033C100.24 64.732 100.443 64.7847 100.624 64.8852C100.805 64.9858 100.958 65.1308 101.069 65.3068C101.179 65.4828 101.244 65.6841 101.256 65.892C101.268 66.0998 101.228 66.3074 101.139 66.4954L89.95 90.2455C89.7683 90.6316 89.4821 90.9582 89.1241 91.1878C88.7662 91.4174 88.3511 91.5406 87.9266 91.5434L48.6162 91.7866Z" fill="white"/>
<path d="M66.9204 77.9478V91.7861H74.9158L66.9204 77.9478Z" fill="#EAEEFF"/>
<path fill-rule="evenodd" clip-rule="evenodd" d="M67.4351 78.438H88.1644L96.2602 92.4483H75.5308L67.4351 78.438ZM67.7352 78.6117L75.6301 92.2746H95.9601L88.0651 78.6117H67.7352Z" fill="black"/>
<path d="M94.7444 92.3615H75.6806L67.6852 78.5249H86.7491L94.7444 92.3615Z" fill="#C7BFFF"/>
<path d="M96.6436 92.3615H77.5797L69.5844 78.5249H88.6482L96.6436 92.3615Z" fill="white"/>
<path fill-rule="evenodd" clip-rule="evenodd" d="M66.6848 78.0752H88.4127L97.0105 92.9542H75.2825L66.6848 78.0752ZM68.4854 79.1176L75.8784 91.9118H95.2098L87.8168 79.1176H68.4854Z" fill="#6562CF"/>
</svg>
