<svg width="213" height="317" viewBox="0 0 213 317" fill="none" xmlns="http://www.w3.org/2000/svg">
<g clip-path="url(#clip0)">
<path d="M86.5369 222.267H23.1426C17.198 222.267 11.497 219.903 7.29355 215.695C3.09013 211.486 0.728668 205.779 0.728668 199.828V162.47C0.728668 159.982 1.71568 157.597 3.47257 155.838C5.22946 154.079 7.61232 153.091 10.0969 153.091H57.9463C58.7578 153.09 59.5615 153.249 60.3115 153.559C61.0615 153.869 61.7429 154.325 62.3167 154.899C62.8905 155.474 63.3454 156.156 63.6554 156.907C63.9654 157.657 64.1243 158.462 64.123 159.275V199.828C64.123 205.779 66.4844 211.486 70.6879 215.695C74.8913 219.903 80.5923 222.267 86.5369 222.267Z" fill="white"/>
<path fill-rule="evenodd" clip-rule="evenodd" d="M60.0332 154.233C59.3718 153.959 58.663 153.819 57.9474 153.82L10.0969 153.82C7.80557 153.82 5.60806 154.732 3.98782 156.354C2.36758 157.976 1.45734 160.176 1.45734 162.47V199.828C1.45734 205.585 3.74203 211.107 7.80879 215.179C11.8756 219.25 17.3913 221.538 23.1426 221.538H78.4542C75.3732 220.388 72.5424 218.583 70.1726 216.21C65.8325 211.865 63.3943 205.972 63.3943 199.828V159.273C63.3954 158.557 63.2553 157.847 62.982 157.185C62.7086 156.523 62.3075 155.922 61.8015 155.415C61.2955 154.908 60.6945 154.507 60.0332 154.233ZM86.5369 221.538V222.997H23.1426C17.0048 222.997 11.1184 220.556 6.7783 216.21C2.43823 211.865 0 205.972 0 199.828V162.47C0 159.789 1.06378 157.218 2.95732 155.322C4.85087 153.426 7.41907 152.361 10.0969 152.361H57.9457C58.8529 152.36 59.7514 152.538 60.5898 152.885C61.4284 153.232 62.1904 153.741 62.832 154.383C63.4736 155.026 63.9822 155.788 64.3288 156.628C64.6754 157.468 64.8531 158.367 64.8516 159.276V199.828C64.8516 205.585 67.1363 211.107 71.2031 215.179C75.2699 219.25 80.7856 221.538 86.5369 221.538Z" fill="#D8BAA3"/>
<path d="M96.1529 217.501C96.1529 218.765 95.6517 219.976 94.7594 220.87C93.8671 221.764 92.6568 222.266 91.3947 222.267H23.1426C20.1991 222.267 17.2845 221.687 14.5651 220.559C11.8458 219.431 9.37487 217.778 7.29355 215.695C5.21222 213.611 3.56123 211.137 2.43482 208.415C1.30842 205.692 0.728668 202.774 0.728668 199.828V162.47C0.728668 159.982 1.71568 157.597 3.47257 155.838C5.22946 154.079 7.61232 153.091 10.0969 153.091H10.8256C9.93363 153.964 9.2254 155.007 8.74273 156.158C8.26006 157.31 8.01274 158.546 8.01537 159.795V197.153C8.01287 199.561 8.39835 201.953 9.15695 204.239C9.97991 206.717 11.5615 208.873 13.6773 210.4C15.7931 211.928 18.3357 212.75 20.9444 212.749H91.3825C92.0074 212.748 92.6264 212.869 93.2043 213.107C93.7822 213.345 94.3077 213.695 94.7507 214.136C95.1936 214.577 95.5455 215.102 95.786 215.679C96.0266 216.256 96.1513 216.875 96.1529 217.501Z" fill="#F0E1D4"/>
<path fill-rule="evenodd" clip-rule="evenodd" d="M9.19811 153.867C7.23707 154.073 5.39479 154.945 3.98782 156.354C2.36758 157.976 1.45734 160.176 1.45734 162.47V199.828C1.45734 202.679 2.01824 205.502 3.10803 208.136C4.19781 210.77 5.79513 213.163 7.80879 215.179C9.82245 217.195 12.213 218.794 14.844 219.885C17.475 220.976 20.2948 221.538 23.1426 221.538H91.3943C92.4633 221.537 93.4883 221.111 94.244 220.355C94.9993 219.598 95.4238 218.572 95.4242 217.503C95.4228 216.973 95.3173 216.449 95.1135 215.96C94.9098 215.471 94.6118 215.027 94.2367 214.653C93.8616 214.28 93.4166 213.984 92.9272 213.782C92.4378 213.581 91.9136 213.478 91.3844 213.479L91.3825 213.479H20.9446C20.9445 213.479 20.9446 213.479 20.9446 213.479C18.1829 213.48 15.491 212.609 13.2511 210.992C11.0111 209.375 9.33674 207.092 8.46549 204.469C7.68222 202.109 7.28417 199.639 7.2867 197.152C7.2867 197.152 7.2867 197.152 7.2867 197.152L7.2867 159.796V159.795H8.01537L7.2867 159.796C7.2867 159.796 7.2867 159.796 7.2867 159.796C7.28396 158.45 7.55058 157.117 8.07083 155.876C8.36938 155.164 8.74798 154.49 9.19811 153.867ZM9.19811 153.867C9.49536 153.836 9.79533 153.82 10.0969 153.82H10.8256V153.091L10.3163 152.569C10.242 152.642 10.1688 152.716 10.0969 152.791C9.77214 153.129 9.47189 153.489 9.19811 153.867ZM96.1529 217.501H96.8815C96.8815 218.958 96.3036 220.355 95.2748 221.386C94.2459 222.416 92.8504 222.996 91.395 222.997H23.1426C20.1034 222.997 17.0941 222.397 14.2863 221.233C11.4785 220.069 8.92729 218.362 6.7783 216.21C4.62931 214.059 2.92465 211.505 1.76162 208.694C0.5986 205.883 0 202.87 0 199.828V162.47C0 159.789 1.06378 157.218 2.95732 155.322C4.85087 153.426 7.41906 152.361 10.0969 152.361H12.6135L11.335 153.613C10.5126 154.417 9.85963 155.379 9.41463 156.44C8.96963 157.502 8.74161 158.642 8.74404 159.793L8.74404 159.795L8.74404 197.153C8.74162 199.483 9.11453 201.798 9.84842 204.008C10.6231 206.341 12.1119 208.371 14.1035 209.809C16.0952 211.247 18.4886 212.02 20.9443 212.02L91.3807 212.02C91.3812 212.02 91.3817 212.02 91.3822 212.02C92.1022 212.018 92.8155 212.159 93.4815 212.433C94.1479 212.707 94.7538 213.11 95.2646 213.619C95.7754 214.128 96.1811 214.732 96.4585 215.398C96.736 216.064 96.8797 216.778 96.8815 217.499L96.1529 217.501Z" fill="#D8BAA3"/>
<path d="M35.7291 222.255H70.3313V226.493C70.3313 227.407 69.9689 228.282 69.3239 228.928C68.6789 229.574 67.8041 229.937 66.8919 229.937H39.166C38.2539 229.937 37.3791 229.574 36.7341 228.928C36.0891 228.282 35.7267 227.407 35.7267 226.493V222.255H35.7291Z" fill="white"/>
<path fill-rule="evenodd" clip-rule="evenodd" d="M34.998 221.525H71.0599V226.493C71.0599 227.6 70.6208 228.661 69.8391 229.444C69.0575 230.226 67.9973 230.666 66.8919 230.666H39.166C38.0606 230.666 37.0004 230.226 36.2188 229.444C35.4371 228.661 34.998 227.6 34.998 226.493V221.525ZM36.4554 222.984V226.493C36.4554 227.213 36.7409 227.903 37.2493 228.412C37.7576 228.921 38.4471 229.207 39.166 229.207H66.8919C67.6108 229.207 68.3003 228.921 68.8086 228.412C69.317 227.903 69.6026 227.213 69.6026 226.493V222.984H36.4554Z" fill="#D8BAA3"/>
<path d="M56.6735 229.946H49.3868V288.36H56.6735V229.946Z" fill="#F0E1D4"/>
<path fill-rule="evenodd" clip-rule="evenodd" d="M48.6582 229.217H57.4022V289.089H48.6582V229.217ZM50.1155 230.676V287.63H55.9449V230.676H50.1155Z" fill="#D8BAA3"/>
<path d="M57.101 288.36H48.9594C47.3174 288.36 45.9864 289.692 45.9864 291.336V300.453C45.9864 302.096 47.3174 303.429 48.9594 303.429H57.101C58.743 303.429 60.074 302.096 60.074 300.453V291.336C60.074 289.692 58.743 288.36 57.101 288.36Z" fill="white"/>
<path fill-rule="evenodd" clip-rule="evenodd" d="M48.9593 289.089C47.7198 289.089 46.715 290.095 46.715 291.336V300.453C46.715 301.693 47.7198 302.699 48.9593 302.699H57.101C58.3405 302.699 59.3453 301.693 59.3453 300.453V291.336C59.3453 290.095 58.3405 289.089 57.101 289.089H48.9593ZM45.2577 291.336C45.2577 289.29 46.915 287.63 48.9593 287.63H57.101C59.1454 287.63 60.8027 289.29 60.8027 291.336V300.453C60.8027 302.499 59.1454 304.158 57.101 304.158H48.9593C46.915 304.158 45.2577 302.499 45.2577 300.453V291.336Z" fill="#D8BAA3"/>
<path fill-rule="evenodd" clip-rule="evenodd" d="M34.3349 304.158C30.933 304.158 27.6704 305.511 25.2649 307.919C22.8593 310.328 21.5079 313.594 21.5079 317H20.0506C20.0506 313.207 21.5555 309.57 24.2344 306.888C26.9132 304.206 30.5465 302.699 34.3349 302.699H71.7254C75.5139 302.699 79.1472 304.206 81.826 306.888C84.5048 309.57 86.0098 313.207 86.0098 317H84.5524C84.5524 313.594 83.201 310.328 80.7955 307.919C78.39 305.511 75.1274 304.158 71.7254 304.158H34.3349Z" fill="#D8BAA3"/>
<path fill-rule="evenodd" clip-rule="evenodd" d="M48.0145 304.168C46.2108 304.168 44.481 304.885 43.2055 306.162C41.9301 307.439 41.2136 309.171 41.2136 310.977V317H39.7563V310.977C39.7563 308.784 40.6263 306.681 42.175 305.131C43.7238 303.58 45.8243 302.709 48.0145 302.709H58.0507C60.241 302.709 62.3415 303.58 63.8902 305.131C65.4389 306.681 66.309 308.784 66.309 310.977V317H64.8517V310.977C64.8517 309.171 64.1351 307.439 62.8597 306.162C61.5843 304.885 59.8544 304.168 58.0507 304.168H48.0145Z" fill="#D8BAA3"/>
<path d="M31.9862 153.149C31.9862 153.149 0.922983 197.71 33.033 209.197C51.4465 215.787 85.8713 216.154 111.887 215.276C121.754 214.937 131.27 211.527 139.111 205.52C146.951 199.514 152.727 191.211 155.634 181.765L156.584 178.687C156.584 178.687 151.306 160.512 70.1345 153.088C70.1345 153.088 52.9865 156.558 31.9862 153.149Z" fill="#722D54"/>
<path d="M213 317H194.995C192.753 317 188.437 307.91 186.88 307.988C185.323 308.066 183.946 317 183.946 317H182.561C176.372 299.249 184.813 296.114 184.813 296.114L184.861 296.146C186.476 304.657 198.444 306.359 200.892 306.621L201.329 306.906C201.329 306.906 207.047 312.63 209.83 313.017C212.614 313.403 213 317 213 317Z" fill="#722D54"/>
<path d="M154.736 176.931C165.928 180.362 171.427 257.993 201.332 306.906C201.332 306.906 186.379 305.86 184.815 296.114C184.815 296.114 139.424 250.336 138.212 223.006C137 195.677 147.852 174.82 154.736 176.931Z" fill="#B65A18"/>
<path d="M164.437 317H146.436C144.194 317 139.878 307.91 138.323 307.988C136.769 308.066 135.387 317 135.387 317H134.002C127.814 299.249 136.254 296.114 136.254 296.114L136.29 296.139L136.305 296.185C133.519 304.997 151.831 307.215 153.256 307.37C154.692 308.752 158.979 312.696 161.272 313.014C164.055 313.403 164.437 317 164.437 317Z" fill="#722D54"/>
<path d="M136.305 296.178C136.305 296.178 117.802 237.725 122.747 214.812C128.771 186.918 144.988 171.824 152.754 176.931C160.519 182.037 139.433 260.619 147.143 296.178C148.092 300.555 153.344 307.363 153.344 307.363C153.344 307.363 133.407 305.352 136.305 296.178Z" fill="#C36F0B"/>
<path d="M70.6203 65.2273C70.6203 65.2273 71.4874 79.7638 85.9442 105.654C92.082 116.647 79.1822 124.135 78.8203 125.457C78.4583 126.78 70.6203 154.304 70.6203 154.304C70.6203 154.304 53.8609 159.374 31.4373 154.304C31.4373 154.304 24.8064 88.5422 29.0254 78.8665C32.7634 70.2973 50.9705 59.7949 50.9705 59.7949C50.9705 59.7949 59.5299 65.3464 70.6203 65.2273Z" fill="#F0E1D4"/>
<path fill-rule="evenodd" clip-rule="evenodd" d="M44.9769 63.753C45.2495 63.5574 45.6288 63.6201 45.8242 63.893C49.4969 69.0246 53.3215 71.0547 56.1842 71.8221C57.6215 72.2074 58.8292 72.2778 59.6708 72.2536C60.0916 72.2415 60.4204 72.2058 60.6401 72.174C60.6819 72.168 60.7198 72.1621 60.7535 72.1565L65.9081 65.3651C66.0352 65.1976 66.2398 65.1078 66.4489 65.1277C66.6581 65.1476 66.8421 65.2743 66.9355 65.4627L66.9356 65.4628L66.9359 65.4636L66.9375 65.4668L66.9442 65.4802C66.9502 65.4922 66.9592 65.5102 66.9712 65.534C66.995 65.5815 67.0305 65.6518 67.0765 65.7419C67.1685 65.9223 67.3025 66.1823 67.4698 66.499C67.8047 67.1329 68.2719 67.9919 68.802 68.8944C69.3329 69.7985 69.9222 70.7379 70.5011 71.536C71.0912 72.3495 71.6313 72.9602 72.0575 73.2599C72.3319 73.4529 72.3981 73.8321 72.2053 74.1068C72.0125 74.3816 71.6338 74.4478 71.3594 74.2548C70.7569 73.8311 70.1181 73.0771 69.5184 72.2504C68.9075 71.4082 68.2961 70.4319 67.7551 69.5107C67.2131 68.588 66.7368 67.7121 66.3962 67.0675C66.3599 66.9987 66.3251 66.9324 66.2919 66.8691L61.58 73.0771C61.4958 73.1882 61.376 73.2668 61.2407 73.2999L61.0966 72.7093C61.2407 73.2999 61.2402 73.3 61.2397 73.3001L61.2386 73.3004L61.2359 73.301L61.2281 73.3029C61.2219 73.3043 61.2136 73.3062 61.2034 73.3085C61.183 73.313 61.1547 73.319 61.1188 73.326C61.0469 73.3401 60.9444 73.3585 60.8136 73.3774C60.5521 73.4152 60.1768 73.4554 59.7056 73.469C58.7634 73.496 57.4364 73.4165 55.8701 72.9966C52.7255 72.1536 48.6671 69.9526 44.837 64.6012C44.6416 64.3283 44.7043 63.9485 44.9769 63.753Z" fill="#D8BAA3"/>
<path fill-rule="evenodd" clip-rule="evenodd" d="M53.5816 116.261C53.8728 116.094 54.2437 116.196 54.41 116.487C56.8309 120.731 60.8758 122.016 64.4061 122.224C66.1703 122.328 67.7847 122.161 68.9602 121.966C69.5469 121.868 70.0216 121.765 70.3477 121.686C70.5107 121.647 70.6363 121.613 70.72 121.591C70.7619 121.579 70.7933 121.57 70.8136 121.564C70.8196 121.563 70.8247 121.561 70.8288 121.56C70.8315 121.559 70.8338 121.558 70.8356 121.558L70.8407 121.556C70.8408 121.556 70.8409 121.556 70.841 121.556C70.8409 121.556 70.8407 121.556 71.0162 122.138L71.1917 122.72C71.5127 122.623 71.6944 122.284 71.5975 121.963C71.5006 121.641 71.1619 121.459 70.841 121.556M71.0162 122.138C71.1917 122.72 71.1914 122.72 71.1911 122.721L71.1877 122.722L71.1793 122.724C71.1722 122.726 71.1623 122.729 71.1496 122.733C71.1241 122.74 71.0874 122.75 71.04 122.763C70.9453 122.789 70.8079 122.825 70.6325 122.868C70.2817 122.953 69.778 123.062 69.1587 123.165C67.9221 123.37 66.2136 123.549 64.3347 123.438C60.5789 123.216 56.0571 121.826 53.3554 117.09C53.1891 116.799 53.2904 116.427 53.5816 116.261" fill="#D8BAA3"/>
<path d="M106.966 148.712C106.628 148.932 106.225 149.032 105.823 148.995C105.42 148.959 105.042 148.788 104.749 148.51C104.042 147.899 102.84 146.438 101.871 145.638C102.571 147.091 103.191 148.581 103.729 150.103C102.178 150.27 100.611 150.188 99.087 149.859C97.8045 149.602 96.1723 147.172 94.5328 145.772C92.8933 144.371 89.8256 145.48 86.5976 145.312C83.3696 145.144 80.6395 140.758 80.6395 140.758C80.6395 140.758 28.9622 152.366 20.8351 143.676C18.8337 141.538 17.9593 139.508 18.105 137.713C17.5245 131.235 18.1706 122.914 19.4555 114.97C23.6745 116.453 31.3887 118.88 39.1004 119.855C38.4398 124.035 37.7573 127.841 37.2375 130.605C45.1776 131.206 78.298 133.742 82.8692 134.53C87.7708 135.367 97.5714 140.266 99.2449 141.001C100.663 141.504 103.245 143.736 104.04 144.578C104.834 145.419 106.966 148.712 106.966 148.712Z" fill="#C36F0B"/>
<path d="M39.1053 119.853C38.9814 120.645 38.8624 121.423 38.7288 122.182C29.9848 120.835 22.1588 121.849 18.4548 122.525C18.7147 120.015 19.0571 117.472 19.4628 114.967C23.672 116.451 31.3838 118.877 39.1053 119.853Z" fill="#B65A18"/>
<path d="M32.3044 74.0495C27.4466 78.5651 21.3573 94.7989 16.174 113.749C16.174 113.749 28.6659 118.819 40.6015 120.025C40.6015 120.025 46.1467 95.1613 46.0252 82.3658C45.9038 69.5703 38.724 68.1016 32.3044 74.0495Z" fill="#F0E1D4"/>
<path fill-rule="evenodd" clip-rule="evenodd" d="M45.2093 99.6296C45.5384 99.6942 45.7529 100.014 45.6884 100.343C44.6209 105.795 43.5534 110.75 42.7529 114.342C42.3526 116.138 42.019 117.594 41.7854 118.6C41.6686 119.104 41.5768 119.495 41.5141 119.761C41.4828 119.893 41.4588 119.995 41.4426 120.063L41.4179 120.166C41.4179 120.167 41.4179 120.167 40.8274 120.025C40.2369 119.883 40.2369 119.883 40.2369 119.883L40.2611 119.781C40.2772 119.714 40.3011 119.613 40.3322 119.481C40.3945 119.217 40.486 118.827 40.6024 118.325C40.8353 117.322 41.1682 115.87 41.5676 114.077C42.3665 110.493 43.4316 105.548 44.4966 100.109C44.5612 99.7798 44.8802 99.565 45.2093 99.6296ZM40.6858 120.616C40.3597 120.538 40.1587 120.21 40.2369 119.883L40.8274 120.025L41.4179 120.166C41.3397 120.493 41.012 120.694 40.6858 120.616Z" fill="#D8BAA3"/>
<path fill-rule="evenodd" clip-rule="evenodd" d="M93.681 141.208C93.7797 141.033 94.0019 140.971 94.1772 141.069L93.9984 141.387L93.8196 141.705C93.6443 141.606 93.5822 141.384 93.681 141.208ZM98.3045 143.393C97.4112 142.891 96.3797 142.311 95.5713 141.855C95.1669 141.627 94.8184 141.431 94.571 141.291L94.1772 141.069C94.1772 141.069 94.1772 141.069 93.9984 141.387C93.8196 141.705 93.8196 141.705 93.8196 141.705L94.2135 141.927C94.4609 142.067 94.8095 142.263 95.214 142.491C96.0228 142.947 97.0552 143.528 97.9493 144.03L97.9508 144.031L97.9523 144.032C98.0233 144.071 98.1479 144.176 98.3238 144.371C98.4925 144.557 98.6856 144.801 98.8945 145.084C99.3119 145.652 99.7775 146.361 100.215 147.058C100.651 147.754 101.057 148.433 101.353 148.939C101.501 149.191 101.622 149.4 101.705 149.546C101.747 149.619 101.78 149.676 101.802 149.715L101.827 149.759L101.835 149.773C101.835 149.773 101.835 149.774 102.152 149.594L101.835 149.773C101.934 149.949 102.156 150.011 102.331 149.912C102.507 149.813 102.568 149.59 102.469 149.415L102.152 149.594C102.469 149.415 102.469 149.415 102.469 149.415L102.461 149.399L102.435 149.354C102.412 149.314 102.379 149.257 102.337 149.183C102.253 149.035 102.131 148.824 101.981 148.569C101.683 148.06 101.274 147.374 100.832 146.67C100.391 145.967 99.9142 145.24 99.4811 144.652C99.2648 144.358 99.0556 144.093 98.8643 143.881C98.6809 143.678 98.4887 143.495 98.3045 143.393Z" fill="#B65A18"/>
<path fill-rule="evenodd" clip-rule="evenodd" d="M91.9298 142.032C92.0285 141.857 92.2507 141.795 92.426 141.894L92.2472 142.211L92.0684 142.529C91.8931 142.43 91.831 142.208 91.9298 142.032ZM96.1979 144.854C95.3039 144.352 94.2716 143.771 93.4627 143.315C93.0583 143.087 92.7097 142.891 92.4622 142.751L92.0684 142.529C92.0684 142.529 92.0684 142.529 92.2472 142.211C92.426 141.894 92.426 141.894 92.426 141.894L92.8197 142.116C93.0672 142.255 93.4157 142.452 93.8201 142.679C94.6288 143.135 95.661 143.716 96.5546 144.218L96.5549 144.218C96.7283 144.316 96.9102 144.477 97.0865 144.658C97.2677 144.844 97.463 145.072 97.6631 145.323C98.0634 145.824 98.4968 146.434 98.8947 147.02C99.2932 147.607 99.6594 148.175 99.9257 148.597C100.059 148.808 100.167 148.982 100.243 149.104C100.28 149.164 100.309 149.212 100.329 149.245L100.352 149.282L100.36 149.295C100.36 149.295 100.36 149.295 100.076 149.468L100.36 149.295C100.465 149.467 100.41 149.692 100.238 149.796C100.066 149.901 99.842 149.846 99.7375 149.674L99.7302 149.662L99.7081 149.626C99.6887 149.594 99.6599 149.547 99.6228 149.487C99.5488 149.367 99.4416 149.195 99.3099 148.987C99.0463 148.57 98.6847 148.008 98.292 147.43C97.8986 146.85 97.4773 146.258 97.0939 145.778C96.9021 145.538 96.7232 145.33 96.5648 145.168C96.4015 145 96.2783 144.899 96.1979 144.854Z" fill="#B65A18"/>
<path d="M57.8418 41.9321C57.8418 41.9321 58.9276 53.2783 50.9705 59.7952C50.9705 59.7952 61.0966 66.5552 70.6203 65.2275L73.9965 50.8637L57.8418 41.9321Z" fill="#C36F0B"/>
<path d="M73.9989 50.8637L70.6227 65.2275L70.205 65.2786C59.2506 60.0846 57.9949 47.0654 57.8589 44.6556C57.9135 43.7484 57.9078 42.8386 57.8419 41.9321L73.9989 50.8637Z" fill="#B65A18"/>
<path d="M57.8418 41.9317C57.8418 41.9317 59.4765 56.7771 78.2859 59.1309C78.2859 59.1309 87.5983 53.6062 86.5175 35.4683C85.643 20.7738 68.8812 17.2989 62.5515 25.4474C56.2218 33.596 57.8418 41.9317 57.8418 41.9317Z" fill="#C36F0B"/>
<path fill-rule="evenodd" clip-rule="evenodd" d="M89.4448 20.4793C86.9942 17.3344 83.3413 15.6003 81.0871 15.1119L81.2412 14.3989C83.6335 14.9172 87.4471 16.7297 90.0194 20.0306C92.6127 23.3584 93.919 28.1693 91.3071 34.5896L90.6322 34.3144C93.1477 28.1312 91.8745 23.5972 89.4448 20.4793Z" fill="#FFB000"/>
<path fill-rule="evenodd" clip-rule="evenodd" d="M58.527 14.6003C58.5269 14.6005 58.5269 14.6007 58.1892 14.4638C57.8514 14.327 57.8514 14.327 57.8514 14.3271L57.8518 14.326L57.8537 14.3212C57.8555 14.3168 57.8583 14.3098 57.8619 14.3004C57.8693 14.2816 57.8803 14.253 57.8946 14.2151C57.9231 14.1394 57.9643 14.0268 58.0144 13.8815C58.1146 13.591 58.25 13.1704 58.3892 12.6543C58.668 11.6203 58.9599 10.2113 59.0183 8.70002C59.1354 5.67198 58.3206 2.32835 54.6997 0.662362L55.004 -0.000488281C59.0147 1.84486 59.8686 5.56766 59.7464 8.72823C59.6852 10.3113 59.3805 11.7771 59.0926 12.8444C58.9485 13.3789 58.808 13.8156 58.7032 14.1196C58.6507 14.2716 58.6072 14.3906 58.5765 14.4722C58.5611 14.513 58.549 14.5445 58.5406 14.5661C58.5377 14.5734 58.5353 14.5796 58.5333 14.5846C58.5323 14.587 58.5315 14.5891 58.5308 14.591L58.5281 14.5978L58.5273 14.5997L58.527 14.6003Z" fill="#FFB000"/>
<path fill-rule="evenodd" clip-rule="evenodd" d="M67.0058 26.5799C67.8796 28.5021 69.3237 30.4862 71.3388 31.7764L70.9462 32.391C68.7836 31.0063 67.2584 28.8967 66.3426 26.882C65.884 25.8732 65.5744 24.8799 65.4143 24.001C65.2557 23.1302 65.2383 22.3412 65.3933 21.7554L66.0977 21.9421C65.9818 22.3801 65.9814 23.0479 66.1312 23.8701C66.2795 24.6844 66.5697 25.6203 67.0058 26.5799Z" fill="#FFB000"/>
<path d="M57.6281 45.9415C57.6281 45.9415 46.0277 40.1371 48.2088 26.138C48.3785 25.0911 48.6528 24.0638 49.0274 23.0717C47.2956 23.1689 40.4121 23.0474 37.3808 15.4192C34.3884 7.89805 41.0096 -2.07666 52.372 1.23284C57.8394 2.82558 58.1552 10.1863 58.0483 13.1869C58.628 12.9458 59.2237 12.7451 59.8311 12.5863C67.4239 10.6215 78.8227 13.0216 82.7478 15.018C86.9887 17.1749 94.8923 24.8735 87.251 35.6337C87.038 35.9349 86.8094 36.2247 86.566 36.5018C86.566 36.1614 86.5369 35.8185 86.5175 35.4683C86.4634 34.5227 86.335 33.5828 86.1337 32.6573C81.6086 31.2859 76.559 31.7917 73.6904 32.0056C69.9864 29.7345 67.4117 25.1119 66.0394 22.5513C65.7528 22.6996 65.4735 22.8626 65.2038 23.0376C65.2038 23.0376 65.0217 33.4403 57.6743 40.0982C57.6886 40.7127 57.7463 41.3254 57.8467 41.9317L57.6281 45.9415Z" fill="#FFB000"/>
<path fill-rule="evenodd" clip-rule="evenodd" d="M84.5355 34.8096C82.031 34.8096 80.0007 36.8422 80.0007 39.3495C80.0007 41.8569 82.031 43.8894 84.5355 43.8894C87.0399 43.8894 89.0702 41.8569 89.0702 39.3495C89.0702 36.8422 87.0399 34.8096 84.5355 34.8096ZM78.7863 39.3495C78.7863 36.1707 81.3603 33.5938 84.5355 33.5938C87.7107 33.5938 90.2847 36.1707 90.2847 39.3495C90.2847 42.5283 87.7107 45.1053 84.5355 45.1053C81.3603 45.1053 78.7863 42.5283 78.7863 39.3495Z" fill="#F0E1D4"/>
<path fill-rule="evenodd" clip-rule="evenodd" d="M71.7133 34.8096C69.2088 34.8096 67.1785 36.8422 67.1785 39.3495C67.1785 41.8569 69.2088 43.8894 71.7133 43.8894C74.2178 43.8894 76.2481 41.8569 76.2481 39.3495C76.2481 36.8422 74.2178 34.8096 71.7133 34.8096ZM65.9641 39.3495C65.9641 36.1707 68.5381 33.5938 71.7133 33.5938C74.8885 33.5938 77.4625 36.1707 77.4625 39.3495C77.4625 42.5283 74.8885 45.1053 71.7133 45.1053C68.5381 45.1053 65.9641 42.5283 65.9641 39.3495Z" fill="#F0E1D4"/>
<path fill-rule="evenodd" clip-rule="evenodd" d="M76.8529 38.7417H79.3959V39.9575H76.8529V38.7417Z" fill="#F0E1D4"/>
<path fill-rule="evenodd" clip-rule="evenodd" d="M60.2451 36.3511L66.7132 37.9073L66.4294 39.0895L59.9613 37.5332L60.2451 36.3511Z" fill="#F0E1D4"/>
<path d="M138.508 153.468H142.513C143.41 153.468 144.286 153.206 145.036 152.714C145.785 152.222 146.375 151.521 146.732 150.699L172.637 91.1226C172.938 90.4212 173.061 89.6559 172.995 88.8951C172.929 88.1343 172.675 87.4019 172.257 86.7633C171.839 86.1246 171.269 85.5998 170.598 85.2356C169.928 84.8713 169.178 84.6792 168.415 84.6763L138.508 153.468Z" fill="white"/>
<path fill-rule="evenodd" clip-rule="evenodd" d="M167.938 83.9448L168.418 83.9467C169.301 83.95 170.17 84.1725 170.946 84.5943C171.722 85.016 172.382 85.6237 172.866 86.3632C173.35 87.1027 173.644 87.9508 173.721 88.8316C173.798 89.7125 173.655 90.5987 173.306 91.4109L173.305 91.4137L147.401 150.989C146.987 151.943 146.304 152.754 145.435 153.324C144.567 153.894 143.552 154.198 142.513 154.198H137.396L167.938 83.9448ZM168.88 85.4357L139.62 152.739H142.513C143.268 152.739 144.006 152.518 144.636 152.104C145.267 151.69 145.763 151.1 146.064 150.408L146.064 150.407L171.967 90.8342C171.967 90.8336 171.968 90.8331 171.968 90.8326C172.221 90.2423 172.325 89.5984 172.269 88.9584C172.213 88.3177 172 87.7009 171.647 87.1631C171.295 86.6253 170.815 86.1833 170.251 85.8766C169.824 85.6447 169.359 85.4957 168.88 85.4357Z" fill="#D8BAA3"/>
<path d="M65.9203 160.063H135.967C139.183 160.063 141.797 157.111 141.797 153.468H71.7424C68.5266 153.468 65.9131 156.42 65.9131 160.063H65.9203Z" fill="white"/>
<path fill-rule="evenodd" clip-rule="evenodd" d="M65.1844 160.063C65.1844 156.103 68.0433 152.739 71.7424 152.739H142.525V153.468C142.525 157.428 139.667 160.792 135.967 160.792H65.1844V160.063ZM66.6803 159.333H135.967C138.496 159.333 140.713 157.158 141.029 154.198H71.7424C69.2134 154.198 66.9966 156.373 66.6803 159.333Z" fill="#D8BAA3"/>
</g>
<defs>
<clipPath id="clip0">
<rect width="213" height="317" fill="white"/>
</clipPath>
</defs>
</svg>
