<svg width="962" height="963" viewBox="0 0 962 963" fill="none" xmlns="http://www.w3.org/2000/svg">
<g filter="url(#filter0_f)">
<path d="M100 477.5L476.695 210.805L861.945 486.055L485.25 722.75L100 477.5Z" fill="url(#paint0_linear)" fill-opacity="0.2"/>
</g>
<mask id="mask0" style="mask-type:alpha" maskUnits="userSpaceOnUse" x="109" y="290" width="748" height="395">
<rect x="109" y="290" width="748" height="395" fill="#C4C4C4"/>
</mask>
<g mask="url(#mask0)">
<rect x="651.644" y="-164.361" width="1873.22" height="99" transform="rotate(45 651.644 -164.361)" stroke="#B961FF" stroke-opacity="0.2"/>
<rect x="495.327" y="-37.6777" width="2133.98" height="99" transform="rotate(45 495.327 -37.6777)" stroke="#B961FF" stroke-opacity="0.2"/>
<rect x="49.2607" y="-200.744" width="2732.33" height="99" transform="rotate(45 49.2607 -200.744)" stroke="#B961FF" stroke-opacity="0.2"/>
<rect x="-372.11" y="-339.115" width="3395.88" height="99" transform="rotate(45 -372.11 -339.115)" stroke="#B961FF" stroke-opacity="0.2"/>
<rect x="-513.61" y="-197.615" width="3584.46" height="99" transform="rotate(45 -513.61 -197.615)" stroke="#B961FF" stroke-opacity="0.2"/>
<rect x="-694.622" y="-95.6259" width="3959.31" height="99" transform="rotate(45 -694.622 -95.6259)" stroke="#B961FF" stroke-opacity="0.2"/>
<rect x="-520.032" y="361.964" width="3833.58" height="99" transform="rotate(45 -520.032 361.964)" stroke="#B961FF" stroke-opacity="0.2"/>
<rect y="0.707107" width="734.764" height="99" transform="matrix(-0.707107 0.707107 0.707107 0.707107 300.423 48.9605)" stroke="#B961FF" stroke-opacity="0.2"/>
<rect y="0.707107" width="1873.22" height="99" transform="matrix(-0.707107 0.707107 0.707107 0.707107 1080.25 -164.861)" stroke="#B961FF" stroke-opacity="0.2"/>
<rect y="0.707107" width="2732.33" height="99" transform="matrix(-0.707107 0.707107 0.707107 0.707107 1682.63 -201.244)" stroke="#B961FF" stroke-opacity="0.2"/>
<rect y="0.707107" width="3584.46" height="99" transform="matrix(-0.707107 0.707107 0.707107 0.707107 2245.5 -198.115)" stroke="#B961FF" stroke-opacity="0.2"/>
<rect y="0.707107" width="3833.58" height="99" transform="matrix(-0.707107 0.707107 0.707107 0.707107 2251.92 361.464)" stroke="#B961FF" stroke-opacity="0.2"/>
<g opacity="0.4">
<path d="M1865.74 1231.74L1771.33 1346.05L1621.36 1287.59L1829.43 1122.3L1874.6 999.767L1715.56 966.789L1580.14 1061.19L1517.52 955.406L1428.47 804.902L1721.34 855.094L1584.2 683.948L1708.7 656.328L1846.26 539.644L1899.75 392.761L1923.64 269.445L1763.49 405.977L1510.34 515.936L1338.93 304.796L1212.29 148.768L1165.07 38.783L1382.97 34.6093L1473.75 32.8686L1427.76 361.079L1647.68 387.661L1434.65 219.284L1373.05 170.611L1401.29 279.799L1130.85 188.413L1213.98 149.662L1378.15 80.3118L1475.07 235.448L1502.44 167.683L1701.32 214.05L1736.44 137.876L1609.32 68.4269L1543.56 146.47L1818.1 23.2202L1705.23 -55.4587L1379.73 -56.4889L1473.04 32.2131L1514.77 -38.6146L1711.01 -142.01L1913.37 -392.132L1833.51 -460.746L1686.38 -393.48L1779.19 -258.388L1452.59 -304.085L1437.86 -131.163L1544.77 -116.724L1364.87 -256.744L1165.03 38.3627L1320.49 -14.4918L1299.19 -187.616L1178.45 -239.692L907.015 -61.6779L1198.14 -149.022L1178.96 -39.4682L1067.65 22.5951L1002.61 -98.8114L1058.21 -141.165L952.999 -191.368L950.574 79.3955L807.063 93.8461L906.296 -60.6914L678.788 -75.1597L952.283 -190.553" stroke="#589CFF" stroke-width="0.4628" stroke-miterlimit="10"/>
</g>
</g>
<defs>
<filter id="filter0_f" x="0" y="0.804688" width="961.945" height="961.945" filterUnits="userSpaceOnUse" color-interpolation-filters="sRGB">
<feFlood flood-opacity="0" result="BackgroundImageFix"/>
<feBlend mode="normal" in="SourceGraphic" in2="BackgroundImageFix" result="shape"/>
<feGaussianBlur stdDeviation="50" result="effect1_foregroundBlur"/>
</filter>
<linearGradient id="paint0_linear" x1="288.347" y1="289.152" x2="673.597" y2="674.403" gradientUnits="userSpaceOnUse">
<stop offset="0.0001" stop-color="#6411A6"/>
<stop offset="1" stop-color="#3F046D"/>
</linearGradient>
</defs>
</svg>
