<svg width="1132" height="433" viewBox="0 0 1132 433" fill="none" xmlns="http://www.w3.org/2000/svg">
<path d="M1116.93 257.481C1115.19 281.001 1098.49 302.56 1069.15 321.354C1039.83 340.13 998.165 355.97 947.091 368.108C844.959 392.378 705.562 401.761 553.129 390.457C400.696 379.154 264.208 349.313 166.773 310.245C118.047 290.707 79.1695 268.894 52.9481 246C26.7022 223.085 13.3629 199.298 15.107 175.778C16.8511 152.258 33.5528 130.699 62.8916 111.905C92.203 93.1294 133.873 77.2889 184.947 65.1518C287.079 40.8817 426.476 31.4988 578.909 42.8021C731.342 54.1055 867.83 83.9459 965.265 123.014C1013.99 142.552 1052.87 164.365 1079.09 187.259C1105.34 210.175 1118.67 233.961 1116.93 257.481Z" stroke="url(#paint0_linear)" stroke-opacity="0.4" stroke-width="3"/>
<defs>
<linearGradient id="paint0_linear" x1="579.02" y1="41.3063" x2="553.018" y2="391.953" gradientUnits="userSpaceOnUse">
<stop offset="0.0001" stop-color="#6411A6"/>
<stop offset="1" stop-color="#3F046D"/>
</linearGradient>
</defs>
</svg>
