<svg width="580" height="404" viewBox="0 0 580 404" fill="none" xmlns="http://www.w3.org/2000/svg">
<g opacity="0.5">
<path d="M1187.94 -316.398L1344.86 -212.036L1271.54 -30.2297L1042.16 -266.018L875.925 -311.417L837.174 -120.553L968.766 33.7844L828.805 115.136L629.68 230.833L686.881 -119.952L461.701 54.1642L420.232 -91.6859L258.626 -247.069L59.3812 -300.719L-107.161 -320.819L81.9065 -139.955L238.518 153L-39.2053 370.445L-244.438 531.095L-390.579 594.457L-403.81 336.238L-409.324 228.665L33.317 261.306L61.3448 -1.35404L-157.46 262.608L-220.71 338.93L-74.9759 298.141L-188.317 625.058L-243.297 529.031L-342.228 338.902L-137.154 213.577L-229.171 185.633L-173.821 -53.3868L-277.409 -89.971L-366.284 65.4704L-259.114 138.271L-434.334 -179.181L-536.11 -40.0295L-526.11 346.164L-410.18 229.551L-506.814 184.786L-652.616 -41.1049L-995.796 -264.464L-1085.2 -165.144L-989.667 4.90182L-811.384 -114.219L-861.365 276.276L-628.486 282.199L-612.823 154.415L-794.683 377.17L-391.143 594.527L-467.604 413.644L-699.495 450.467L-765.249 597.173L-516.548 907.284L-644.1 567.767L-496.215 583.202L-408.924 711.101L-569.79 796.36L-628.647 733.232L-692.427 861.395L-328.504 846.191L-304.066 1015.47L-515.197 908.072L-526.681 1178.92L-691.307 862.19" stroke="#589CFF" stroke-width="0.4628" stroke-miterlimit="10"/>
<path d="M238.518 153L246.75 -10.7969L258.626 -247.069L81.1809 -138.969L61.3447 -1.35399L238.518 153Z" stroke="#589CFF" stroke-width="0.4628" stroke-miterlimit="10"/>
<path d="M238.518 153L32.7055 260.235L-173.821 -53.387L81.181 -138.97L461.701 54.164L238.518 153ZM238.518 153L-226.432 183.854L-277.409 -89.9712L-432.06 -178.476L-105.638 -321.753L-173.9 -54.8139L-260.265 137.165L-409.324 228.665L-366.284 65.4702L-612.823 154.414L-536.11 -40.0297L-861.365 276.275L-793.437 376.506L-526.616 345.219L-612.823 154.414L-506.533 183.399L-627.735 279.861L-410.18 229.55L-342.228 338.902L-220.71 338.93L-391.143 594.527L-189.21 621.397L-256.629 730.186L-328.504 846.191L-569.79 796.359L-495.712 585.29L-628.253 736.312" stroke="#589CFF" stroke-width="0.4628" stroke-miterlimit="10"/>
<path d="M-72.2631 296.363L32.7052 260.235L-275.303 -89.9879L-220.71 338.93L-188.317 625.058L-467.594 411.512L-526.616 345.219L-627.735 279.862L-495.713 585.29L-861.365 276.276L-765.249 597.173L-693.031 863.312L-516.548 907.284L-328.504 846.191L-408.925 711.101L-625.736 733.709L-764.523 600.164L-641.911 568.085L-699.495 450.467L-628.822 279.455L-811.384 -114.219L-649.682 -42.0585L-434.334 -179.181L-995.796 -264.464L-989.033 7.1422L-859.52 277.385" stroke="#589CFF" stroke-width="0.4628" stroke-miterlimit="10"/>
<path d="M1270.59 -30.1727L837.174 -120.553L686.881 -119.952L420.232 -91.6859L81.9064 -139.955L59.3811 -300.719L-173.821 -53.3868L61.3447 -1.354L-137.154 213.577L-257.744 137.395L-506.533 183.399L-366.285 65.4704L-535.541 -38.4887L-651.219 -41.8783L-861.365 276.276L-612.823 154.415L-811.384 -114.219L-1085.2 -165.144" stroke="#589CFF" stroke-width="0.4628" stroke-miterlimit="10"/>
<path d="M630.719 231.448L837.175 -120.554L1042.16 -266.018L258.626 -247.069L555.516 134.731L630.719 231.448Z" stroke="#589CFF" stroke-width="0.4628" stroke-miterlimit="10"/>
<path d="M237.194 148.313C243.122 146.768 245.409 156.075 239.456 157.622C233.529 159.193 231.241 149.859 237.194 148.313Z" fill="#589CFF"/>
<path d="M237.948 151.407C237.334 151.557 237.135 151.85 237.035 152.035C236.862 152.379 236.846 152.847 236.958 153.311C237.126 154.033 237.577 154.798 238.727 154.501C239.34 154.351 239.54 154.058 239.639 153.873C239.812 153.53 239.829 153.061 239.717 152.597C239.549 151.901 239.097 151.11 237.948 151.407Z" fill="#EEF5FF"/>
<path d="M459.105 48.8171C465.033 47.2718 467.32 56.5793 461.367 58.1255C455.44 59.6968 453.153 50.3893 459.105 48.8171Z" fill="#589CFF"/>
<path d="M459.86 51.9367C458.71 52.2342 458.676 53.145 458.844 53.8412C459.012 54.5634 459.464 55.3284 460.614 55.0309C461.227 54.8809 461.427 54.5884 461.526 54.4033C461.699 54.0597 461.715 53.5914 461.604 53.1272C461.436 52.431 461.01 51.6392 459.86 51.9367Z" fill="#EEF5FF"/>
<path d="M31.6976 254.654C37.6252 253.108 39.9126 262.416 33.9593 263.962C28.0317 265.507 25.7443 256.2 31.6976 254.654Z" fill="#589CFF"/>
<path d="M32.4514 257.748C31.3016 258.045 31.268 258.956 31.4357 259.652C31.6038 260.374 32.0553 261.139 33.2051 260.842C34.3549 260.544 34.3884 259.634 34.1951 258.938C34.0531 258.241 33.6011 257.45 32.4514 257.748Z" fill="#EEF5FF"/>
</g>
</svg>
