<svg width="1920" height="1050" viewBox="0 0 1920 1050" fill="none" xmlns="http://www.w3.org/2000/svg">
<g opacity="0.5">
<g opacity="0.1027">
<g opacity="0.1027">
<path opacity="0.1027" d="M1767.93 759.47C1851.92 759.47 1920 694.924 1920 615.303C1920 535.683 1851.92 471.137 1767.93 471.137C1683.95 471.137 1615.87 535.683 1615.87 615.303C1615.87 694.924 1683.95 759.47 1767.93 759.47Z" fill="url(#paint0_radial)"/>
</g>
</g>
<g opacity="0.1279">
<g opacity="0.1279">
<path opacity="0.1279" d="M1156.62 823.965C1291.38 823.965 1400.63 720.394 1400.63 592.633C1400.63 464.872 1291.38 361.302 1156.62 361.302C1021.86 361.302 912.609 464.872 912.609 592.633C912.609 720.394 1021.86 823.965 1156.62 823.965Z" fill="url(#paint1_radial)"/>
</g>
</g>
<g opacity="0.2148">
<g opacity="0.2148">
<path opacity="0.2148" d="M1044.9 843.993C1085.97 843.993 1119.26 812.433 1119.26 773.501C1119.26 734.569 1085.97 703.009 1044.9 703.009C1003.84 703.009 970.548 734.569 970.548 773.501C970.548 812.433 1003.84 843.993 1044.9 843.993Z" fill="url(#paint2_radial)"/>
</g>
</g>
<g opacity="0.168">
<g opacity="0.168">
<path opacity="0.168" d="M1356.98 1050C1390.36 1050 1417.42 1024.35 1417.42 992.703C1417.42 961.059 1390.36 935.407 1356.98 935.407C1323.61 935.407 1296.55 961.059 1296.55 992.703C1296.55 1024.35 1323.61 1050 1356.98 1050Z" fill="url(#paint3_radial)"/>
</g>
</g>
<g opacity="0.929">
<g opacity="0.929">
<path opacity="0.929" d="M1528.47 881.576C1585.72 881.576 1632.13 837.577 1632.13 783.302C1632.13 729.027 1585.72 685.028 1528.47 685.028C1471.22 685.028 1424.81 729.027 1424.81 783.302C1424.81 837.577 1471.22 881.576 1528.47 881.576Z" fill="url(#paint4_radial)" fill-opacity="0.4"/>
</g>
</g>
<g opacity="0.2893">
<g opacity="0.2893">
<path opacity="0.2893" d="M1282.65 929.167C1315.03 929.167 1341.27 904.288 1341.27 873.597C1341.27 842.907 1315.03 818.027 1282.65 818.027C1250.28 818.027 1224.04 842.907 1224.04 873.597C1224.04 904.288 1250.28 929.167 1282.65 929.167Z" fill="url(#paint5_radial)"/>
</g>
</g>
<g opacity="0.2618">
<g opacity="0.2618">
<path opacity="0.2618" d="M1507.54 748.842C1543.25 748.842 1572.19 721.401 1572.19 687.55C1572.19 653.699 1543.25 626.258 1507.54 626.258C1471.84 626.258 1442.89 653.699 1442.89 687.55C1442.89 721.401 1471.84 748.842 1507.54 748.842Z" fill="url(#paint6_radial)"/>
</g>
</g>
<g opacity="0.4936">
<g opacity="0.4936">
<path opacity="0.4936" d="M1507.83 578.458C1533.13 578.458 1553.64 559.011 1553.64 535.023C1553.64 511.034 1533.13 491.588 1507.83 491.588C1482.52 491.588 1462.01 511.034 1462.01 535.023C1462.01 559.011 1482.52 578.458 1507.83 578.458Z" fill="url(#paint7_radial)"/>
</g>
</g>
<g opacity="0.5833">
<g opacity="0.5833">
<path opacity="0.5833" d="M1666.06 524.466C1694.06 524.466 1716.77 502.944 1716.77 476.395C1716.77 449.845 1694.06 428.323 1666.06 428.323C1638.06 428.323 1615.35 449.845 1615.35 476.395C1615.35 502.944 1638.06 524.466 1666.06 524.466Z" fill="url(#paint8_radial)"/>
</g>
</g>
<g opacity="0.3249">
<g opacity="0.3249">
<path opacity="0.3249" d="M1349.8 572.858C1373.12 572.858 1392.03 554.936 1392.03 532.827C1392.03 510.719 1373.12 492.796 1349.8 492.796C1326.48 492.796 1307.58 510.719 1307.58 532.827C1307.58 554.936 1326.48 572.858 1349.8 572.858Z" fill="url(#paint9_radial)"/>
</g>
</g>
<g opacity="0.6515">
<g opacity="0.6515">
<path opacity="0.6515" d="M1074.65 679.658C1097.13 679.658 1115.34 662.387 1115.34 641.082C1115.34 619.777 1097.13 602.506 1074.65 602.506C1052.18 602.506 1033.96 619.777 1033.96 641.082C1033.96 662.387 1052.18 679.658 1074.65 679.658Z" fill="url(#paint10_radial)"/>
</g>
</g>
<g opacity="0.7722">
<g opacity="0.7722">
<path opacity="0.7722" d="M840.921 731.7C864.069 731.7 882.833 713.91 882.833 691.965C882.833 670.02 864.069 652.23 840.921 652.23C817.773 652.23 799.008 670.02 799.008 691.965C799.008 713.91 817.773 731.7 840.921 731.7Z" fill="url(#paint11_radial)"/>
</g>
</g>
<g opacity="0.5299">
<g opacity="0.5299">
<path opacity="0.5299" d="M1130.6 448.006C1190.37 448.006 1238.82 402.068 1238.82 345.4C1238.82 288.733 1190.37 242.795 1130.6 242.795C1070.82 242.795 1022.37 288.733 1022.37 345.4C1022.37 402.068 1070.82 448.006 1130.6 448.006Z" fill="url(#paint12_radial)"/>
</g>
</g>
<g opacity="0.6239">
<g opacity="0.6239">
<path opacity="0.6239" d="M1367.11 316.45C1459.28 316.45 1534 245.61 1534 158.225C1534 70.8398 1459.28 0 1367.11 0C1274.94 0 1200.21 70.8398 1200.21 158.225C1200.21 245.61 1274.94 316.45 1367.11 316.45Z" fill="url(#paint13_radial)"/>
</g>
</g>
<g opacity="0.6576">
<g opacity="0.6576">
<path opacity="0.6576" d="M1661.27 492.032C1687.97 492.032 1709.61 471.514 1709.61 446.204C1709.61 420.895 1687.97 400.377 1661.27 400.377C1634.58 400.377 1612.93 420.895 1612.93 446.204C1612.93 471.514 1634.58 492.032 1661.27 492.032Z" fill="url(#paint14_radial)"/>
</g>
</g>
<g opacity="0.9476">
<g opacity="0.9476">
<path opacity="0.9476" d="M1746.89 317.923C1774.08 317.923 1796.12 297.03 1796.12 271.257C1796.12 245.484 1774.08 224.591 1746.89 224.591C1719.71 224.591 1697.67 245.484 1697.67 271.257C1697.67 297.03 1719.71 317.923 1746.89 317.923Z" fill="url(#paint15_radial)"/>
</g>
</g>
<path d="M1823.98 235.123C1854.86 235.123 1879.89 211.392 1879.89 182.118C1879.89 152.844 1854.86 129.113 1823.98 129.113C1793.1 129.113 1768.07 152.844 1768.07 182.118C1768.07 211.392 1793.1 235.123 1823.98 235.123Z" fill="url(#paint16_radial)"/>
<g opacity="0.8134">
<g opacity="0.8134">
<path opacity="0.8134" d="M432.956 687.967C513.794 687.967 579.325 625.84 579.325 549.203C579.325 472.565 513.794 410.438 432.956 410.438C352.119 410.438 286.588 472.565 286.588 549.203C286.588 625.84 352.119 687.967 432.956 687.967Z" fill="url(#paint17_radial)" fill-opacity="0.5"/>
</g>
</g>
<g opacity="0.7474">
<g opacity="0.7474">
<path opacity="0.7474" d="M453.553 831.076C476.73 831.076 495.518 813.264 495.518 791.292C495.518 769.319 476.73 751.507 453.553 751.507C430.377 751.507 411.589 769.319 411.589 791.292C411.589 813.264 430.377 831.076 453.553 831.076Z" fill="url(#paint18_radial)"/>
</g>
</g>
<path d="M41.9125 712.471C65.0602 712.471 83.8251 694.681 83.8251 672.736C83.8251 650.79 65.0602 633 41.9125 633C18.7649 633 0 650.79 0 672.736C0 694.681 18.7649 712.471 41.9125 712.471Z" fill="url(#paint19_radial)"/>
<path d="M75.1665 220.564C97.0353 220.564 114.764 203.757 114.764 183.024C114.764 162.291 97.0353 145.484 75.1665 145.484C53.2976 145.484 35.5694 162.291 35.5694 183.024C35.5694 203.757 53.2976 220.564 75.1665 220.564Z" fill="url(#paint20_radial)" fill-opacity="0.5"/>
<g opacity="0.5306">
<g opacity="0.5306">
<path opacity="0.5306" d="M275.9 753.402C304.235 753.402 327.204 731.625 327.204 704.763C327.204 677.9 304.235 656.124 275.9 656.124C247.565 656.124 224.595 677.9 224.595 704.763C224.595 731.625 247.565 753.402 275.9 753.402Z" fill="url(#paint21_radial)"/>
</g>
</g>
</g>
<defs>
<radialGradient id="paint0_radial" cx="0" cy="0" r="1" gradientUnits="userSpaceOnUse" gradientTransform="translate(1767.92 615.304) scale(152.053 144.154)">
<stop stop-color="#DC0046"/>
<stop offset="0.0498" stop-color="#CB0041"/>
<stop offset="0.2433" stop-color="#8E002D"/>
<stop offset="0.4292" stop-color="#5B001D"/>
<stop offset="0.6026" stop-color="#340010"/>
<stop offset="0.7607" stop-color="#170007"/>
<stop offset="0.8983" stop-color="#060002"/>
<stop offset="1"/>
</radialGradient>
<radialGradient id="paint1_radial" cx="0" cy="0" r="1" gradientUnits="userSpaceOnUse" gradientTransform="translate(1156.63 592.641) scale(244.001 231.324)">
<stop stop-color="#DC0046"/>
<stop offset="0.0498" stop-color="#CB0041"/>
<stop offset="0.2433" stop-color="#8E002D"/>
<stop offset="0.4292" stop-color="#5B001D"/>
<stop offset="0.6026" stop-color="#340010"/>
<stop offset="0.7607" stop-color="#170007"/>
<stop offset="0.8983" stop-color="#060002"/>
<stop offset="1"/>
</radialGradient>
<radialGradient id="paint2_radial" cx="0" cy="0" r="1" gradientUnits="userSpaceOnUse" gradientTransform="translate(1044.9 773.491) scale(74.3452 70.4828)">
<stop stop-color="#DC0046"/>
<stop offset="0.0498" stop-color="#CB0041"/>
<stop offset="0.2433" stop-color="#8E002D"/>
<stop offset="0.4292" stop-color="#5B001D"/>
<stop offset="0.6026" stop-color="#340010"/>
<stop offset="0.7607" stop-color="#170007"/>
<stop offset="0.8983" stop-color="#060002"/>
<stop offset="1"/>
</radialGradient>
<radialGradient id="paint3_radial" cx="0" cy="0" r="1" gradientUnits="userSpaceOnUse" gradientTransform="translate(1357 992.705) scale(60.4355 57.2958)">
<stop stop-color="#DC0046"/>
<stop offset="0.0498" stop-color="#CB0041"/>
<stop offset="0.2433" stop-color="#8E002D"/>
<stop offset="0.4292" stop-color="#5B001D"/>
<stop offset="0.6026" stop-color="#340010"/>
<stop offset="0.7607" stop-color="#170007"/>
<stop offset="0.8983" stop-color="#060002"/>
<stop offset="1"/>
</radialGradient>
<radialGradient id="paint4_radial" cx="0" cy="0" r="1" gradientUnits="userSpaceOnUse" gradientTransform="translate(1528.48 783.309) scale(103.663 98.2772)">
<stop stop-color="#DC0046"/>
<stop offset="0.0498" stop-color="#CB0041"/>
<stop offset="0.2433" stop-color="#8E002D"/>
<stop offset="0.4292" stop-color="#5B001D"/>
<stop offset="0.6026" stop-color="#340010"/>
<stop offset="0.7607" stop-color="#170007"/>
<stop offset="0.8983" stop-color="#060002"/>
<stop offset="1"/>
</radialGradient>
<radialGradient id="paint5_radial" cx="0" cy="0" r="1" gradientUnits="userSpaceOnUse" gradientTransform="translate(1282.67 873.597) scale(58.6209 55.5754)">
<stop stop-color="#DC0046"/>
<stop offset="0.0498" stop-color="#CB0041"/>
<stop offset="0.2433" stop-color="#8E002D"/>
<stop offset="0.4292" stop-color="#5B001D"/>
<stop offset="0.6026" stop-color="#340010"/>
<stop offset="0.7607" stop-color="#170007"/>
<stop offset="0.8983" stop-color="#060002"/>
<stop offset="1"/>
</radialGradient>
<radialGradient id="paint6_radial" cx="0" cy="0" r="1" gradientUnits="userSpaceOnUse" gradientTransform="translate(1507.55 687.562) scale(64.6395 61.2813)">
<stop stop-color="#DC0046"/>
<stop offset="0.0498" stop-color="#CB0041"/>
<stop offset="0.2433" stop-color="#8E002D"/>
<stop offset="0.4292" stop-color="#5B001D"/>
<stop offset="0.6026" stop-color="#340010"/>
<stop offset="0.7607" stop-color="#170007"/>
<stop offset="0.8983" stop-color="#060002"/>
<stop offset="1"/>
</radialGradient>
<radialGradient id="paint7_radial" cx="0" cy="0" r="1" gradientUnits="userSpaceOnUse" gradientTransform="translate(1507.83 535.028) scale(45.8211 43.4408)">
<stop stop-color="#DC0046"/>
<stop offset="0.0498" stop-color="#CB0041"/>
<stop offset="0.2433" stop-color="#8E002D"/>
<stop offset="0.4292" stop-color="#5B001D"/>
<stop offset="0.6026" stop-color="#340010"/>
<stop offset="0.7607" stop-color="#170007"/>
<stop offset="0.8983" stop-color="#060002"/>
<stop offset="1"/>
</radialGradient>
<radialGradient id="paint8_radial" cx="0" cy="0" r="1" gradientUnits="userSpaceOnUse" gradientTransform="translate(1666.06 476.398) scale(50.698 48.0642)">
<stop stop-color="#DC0046"/>
<stop offset="0.0498" stop-color="#CB0041"/>
<stop offset="0.2433" stop-color="#8E002D"/>
<stop offset="0.4292" stop-color="#5B001D"/>
<stop offset="0.6026" stop-color="#340010"/>
<stop offset="0.7607" stop-color="#170007"/>
<stop offset="0.8983" stop-color="#060002"/>
<stop offset="1"/>
</radialGradient>
<radialGradient id="paint9_radial" cx="0" cy="0" r="1" gradientUnits="userSpaceOnUse" gradientTransform="translate(1349.81 532.825) scale(42.2316 40.0374)">
<stop stop-color="#DC0046"/>
<stop offset="0.0498" stop-color="#CB0041"/>
<stop offset="0.2433" stop-color="#8E002D"/>
<stop offset="0.4292" stop-color="#5B001D"/>
<stop offset="0.6026" stop-color="#340010"/>
<stop offset="0.7607" stop-color="#170007"/>
<stop offset="0.8983" stop-color="#060002"/>
<stop offset="1"/>
</radialGradient>
<radialGradient id="paint10_radial" cx="0" cy="0" r="1" gradientUnits="userSpaceOnUse" gradientTransform="translate(1074.66 641.088) scale(40.6859 38.5722)">
<stop stop-color="#DC0046"/>
<stop offset="0.0498" stop-color="#CB0041"/>
<stop offset="0.2433" stop-color="#8E002D"/>
<stop offset="0.4292" stop-color="#5B001D"/>
<stop offset="0.6026" stop-color="#340010"/>
<stop offset="0.7607" stop-color="#170007"/>
<stop offset="0.8983" stop-color="#060002"/>
<stop offset="1"/>
</radialGradient>
<radialGradient id="paint11_radial" cx="0" cy="0" r="1" gradientUnits="userSpaceOnUse" gradientTransform="translate(840.931 691.955) scale(41.9204 39.7425)">
<stop stop-color="#DC0046"/>
<stop offset="0.0498" stop-color="#CB0041"/>
<stop offset="0.2433" stop-color="#8E002D"/>
<stop offset="0.4292" stop-color="#5B001D"/>
<stop offset="0.6026" stop-color="#340010"/>
<stop offset="0.7607" stop-color="#170007"/>
<stop offset="0.8983" stop-color="#060002"/>
<stop offset="1"/>
</radialGradient>
<radialGradient id="paint12_radial" cx="0" cy="0" r="1" gradientUnits="userSpaceOnUse" gradientTransform="translate(1130.59 345.409) scale(108.238 102.615)">
<stop stop-color="#DC0046"/>
<stop offset="0.0498" stop-color="#CB0041"/>
<stop offset="0.2433" stop-color="#8E002D"/>
<stop offset="0.4292" stop-color="#5B001D"/>
<stop offset="0.6026" stop-color="#340010"/>
<stop offset="0.7607" stop-color="#170007"/>
<stop offset="0.8983" stop-color="#060002"/>
<stop offset="1"/>
</radialGradient>
<radialGradient id="paint13_radial" cx="0" cy="0" r="1" gradientUnits="userSpaceOnUse" gradientTransform="translate(1367.11 158.228) scale(166.902 158.231)">
<stop stop-color="#DC0046"/>
<stop offset="0.0498" stop-color="#CB0041"/>
<stop offset="0.2433" stop-color="#8E002D"/>
<stop offset="0.4292" stop-color="#5B001D"/>
<stop offset="0.6026" stop-color="#340010"/>
<stop offset="0.7607" stop-color="#170007"/>
<stop offset="0.8983" stop-color="#060002"/>
<stop offset="1"/>
</radialGradient>
<radialGradient id="paint14_radial" cx="0" cy="0" r="1" gradientUnits="userSpaceOnUse" gradientTransform="translate(1661.27 446.206) scale(48.3303 45.8194)">
<stop stop-color="#DC0046"/>
<stop offset="0.0498" stop-color="#CB0041"/>
<stop offset="0.2433" stop-color="#8E002D"/>
<stop offset="0.4292" stop-color="#5B001D"/>
<stop offset="0.6026" stop-color="#340010"/>
<stop offset="0.7607" stop-color="#170007"/>
<stop offset="0.8983" stop-color="#060002"/>
<stop offset="1"/>
</radialGradient>
<radialGradient id="paint15_radial" cx="0" cy="0" r="1" gradientUnits="userSpaceOnUse" gradientTransform="translate(1746.9 271.257) scale(49.2203 46.6632)">
<stop stop-color="#DC0046"/>
<stop offset="0.0498" stop-color="#CB0041"/>
<stop offset="0.2433" stop-color="#8E002D"/>
<stop offset="0.4292" stop-color="#5B001D"/>
<stop offset="0.6026" stop-color="#340010"/>
<stop offset="0.7607" stop-color="#170007"/>
<stop offset="0.8983" stop-color="#060002"/>
<stop offset="1"/>
</radialGradient>
<radialGradient id="paint16_radial" cx="0" cy="0" r="1" gradientUnits="userSpaceOnUse" gradientTransform="translate(1823.99 182.126) scale(55.9122 53.0072)">
<stop stop-color="#DC0046"/>
<stop offset="0.0498" stop-color="#CB0041"/>
<stop offset="0.2433" stop-color="#8E002D"/>
<stop offset="0.4292" stop-color="#5B001D"/>
<stop offset="0.6026" stop-color="#340010"/>
<stop offset="0.7607" stop-color="#170007"/>
<stop offset="0.8983" stop-color="#060002"/>
<stop offset="1"/>
</radialGradient>
<radialGradient id="paint17_radial" cx="0" cy="0" r="1" gradientUnits="userSpaceOnUse" gradientTransform="translate(432.961 549.192) scale(146.367 138.763)">
<stop stop-color="#DC0046"/>
<stop offset="0.0498" stop-color="#CB0041"/>
<stop offset="0.2433" stop-color="#8E002D"/>
<stop offset="0.4292" stop-color="#5B001D"/>
<stop offset="0.6026" stop-color="#340010"/>
<stop offset="0.7607" stop-color="#170007"/>
<stop offset="0.8983" stop-color="#060002"/>
<stop offset="1"/>
</radialGradient>
<radialGradient id="paint18_radial" cx="0" cy="0" r="1" gradientUnits="userSpaceOnUse" gradientTransform="translate(453.556 791.285) scale(41.9682 39.7879)">
<stop stop-color="#DC0046"/>
<stop offset="0.0498" stop-color="#CB0041"/>
<stop offset="0.2433" stop-color="#8E002D"/>
<stop offset="0.4292" stop-color="#5B001D"/>
<stop offset="0.6026" stop-color="#340010"/>
<stop offset="0.7607" stop-color="#170007"/>
<stop offset="0.8983" stop-color="#060002"/>
<stop offset="1"/>
</radialGradient>
<radialGradient id="paint19_radial" cx="0" cy="0" r="1" gradientUnits="userSpaceOnUse" gradientTransform="translate(41.9253 672.742) scale(41.9201 39.7423)">
<stop stop-color="#DC0046"/>
<stop offset="0.0498" stop-color="#CB0041"/>
<stop offset="0.2433" stop-color="#8E002D"/>
<stop offset="0.4292" stop-color="#5B001D"/>
<stop offset="0.6026" stop-color="#340010"/>
<stop offset="0.7607" stop-color="#170007"/>
<stop offset="0.8983" stop-color="#060002"/>
<stop offset="1"/>
</radialGradient>
<radialGradient id="paint20_radial" cx="0" cy="0" r="1" gradientUnits="userSpaceOnUse" gradientTransform="translate(75.1641 183.033) scale(39.5885 37.5318)">
<stop stop-color="#DC0046"/>
<stop offset="0.0498" stop-color="#CB0041"/>
<stop offset="0.2433" stop-color="#8E002D"/>
<stop offset="0.4292" stop-color="#5B001D"/>
<stop offset="0.6026" stop-color="#340010"/>
<stop offset="0.7607" stop-color="#170007"/>
<stop offset="0.8983" stop-color="#060002"/>
<stop offset="1"/>
</radialGradient>
<radialGradient id="paint21_radial" cx="0" cy="0" r="1" gradientUnits="userSpaceOnUse" gradientTransform="translate(275.887 704.773) scale(51.3133 48.6475)">
<stop stop-color="#DC0046"/>
<stop offset="0.0498" stop-color="#CB0041"/>
<stop offset="0.2433" stop-color="#8E002D"/>
<stop offset="0.4292" stop-color="#5B001D"/>
<stop offset="0.6026" stop-color="#340010"/>
<stop offset="0.7607" stop-color="#170007"/>
<stop offset="0.8983" stop-color="#060002"/>
<stop offset="1"/>
</radialGradient>
</defs>
</svg>
