<svg width="1920" height="825" viewBox="0 0 1920 825" fill="none" xmlns="http://www.w3.org/2000/svg">
<g opacity="0.7">
<mask id="mask0" style="mask-type:alpha" maskUnits="userSpaceOnUse" x="0" y="0" width="1920" height="825">
<rect width="1920" height="825" fill="#C4C4C4"/>
</mask>
<g mask="url(#mask0)">
<rect x="1139" y="482" width="551.194" height="553.258" transform="rotate(-45 1139 482)" fill="url(#paint0_linear)" fill-opacity="0.1"/>
<g opacity="0.5">
<path d="M2265.15 -576.9L2173.27 -741.436L1986.32 -682.447L2203.61 -435.47L2235.98 -266.209L2042.68 -242.381L1899.02 -385.548L1807.05 -252.319L1676.26 -62.7694L2030.42 -92.5873L1839.36 118.408L1981.56 171.066L2123.94 344.238L2161.97 547.044L2169.09 714.643L2003.44 512.116L1723.51 333.251L1485.18 593.27L1309.09 785.423L1234.59 926.209L1491 959.43L1597.82 973.272L1599.62 529.433L1863.66 521.864L1583.52 719.534L1502.52 776.673L1554.49 634.542L1219.77 722.182L1311.24 784.445L1493.12 897.827L1633.98 703.092L1654.7 797L1897.29 760.357L1925.73 866.471L1763.86 943.021L1699.6 830.526L2002.5 1029.84L1855.87 1120.52L1471.62 1080.59L1596.87 974.057L1634.01 1073.87L1847.91 1236.76L2043.97 1596.23L1938.02 1677.66L1775.89 1569.22L1908.49 1400.72L1515.29 1420.26L1527.45 1187.62L1656.06 1181.92L1419.87 1345.95L1234.47 926.765L1408.88 1017.03L1354.18 1245.36L1202.82 1299.54L912.931 1027.53L1241.53 1181.04L1237.61 1032.4L1116.87 935.45L1019.39 1089.22L1077.76 1152.79L945.038 1206.44L988.427 844.793L821.554 807.298L912.25 1026.12L641.324 1016.56L944.333 1205.26" stroke="#589CFF" stroke-width="0.4628" stroke-miterlimit="10"/>
<path d="M1723.51 333.251L1887.46 337.75L2123.94 344.238L2002.4 512.763L1863.66 521.864L1723.51 333.251Z" stroke="#589CFF" stroke-width="0.4628" stroke-miterlimit="10"/>
<path d="M1723.51 333.251L1600.64 530.125L1897.29 760.357L2002.4 512.763L1839.36 118.408L1723.51 333.251ZM1723.51 333.251L1656.69 794.407L1925.73 866.471L2001.97 1027.52L2170.14 713.198L1898.71 760.547L1700.61 831.76L1597.82 973.272L1763.86 943.021L1656.06 1181.92L1855.87 1120.52L1515.29 1420.26L1420.63 1344.76L1472.52 1081.17L1656.06 1181.92L1635.41 1073.7L1529.84 1187.05L1596.87 974.057L1493.12 897.827L1502.52 776.673L1234.47 926.765L1223.35 723.357L1109.66 782.133L988.426 844.793L1019.39 1089.22L1235.57 1031.74L1074.72 1152.16" stroke="#589CFF" stroke-width="0.4628" stroke-miterlimit="10"/>
<path d="M1556.47 631.975L1600.64 530.126L1925.91 864.374L1502.52 776.673L1219.77 722.182L1411.01 1017.18L1472.52 1081.17L1529.84 1187.05L1235.57 1031.74L1515.29 1420.26L1202.82 1299.54L943.08 1206.89L912.931 1027.53L988.426 844.793L1116.87 935.45L1077.51 1149.85L1199.89 1298.58L1241.38 1178.83L1354.18 1245.36L1530.16 1188.17L1908.49 1400.72L1849.09 1233.91L2002.5 1029.84L2043.97 1596.23L1773.71 1568.42L1514.33 1418.33" stroke="#589CFF" stroke-width="0.4628" stroke-miterlimit="10"/>
<path d="M1986.19 -681.505L2042.68 -242.381L2030.42 -92.5873L1981.56 171.065L2003.44 512.116L2161.97 547.044L1897.29 760.357L1863.66 521.864L1633.98 703.092L1700.58 829.229L1635.41 1073.7L1763.86 943.021L1854.38 1119.83L1848.79 1235.42L1515.29 1420.26L1656.06 1181.92L1908.49 1400.72L1938.02 1677.66" stroke="#589CFF" stroke-width="0.4628" stroke-miterlimit="10"/>
<path d="M1675.73 -63.8533L2042.68 -242.381L2203.61 -435.47L2123.94 344.238L1766.32 18.6261L1675.73 -63.8533Z" stroke="#589CFF" stroke-width="0.4628" stroke-miterlimit="10"/>
</g>
<g opacity="0.5">
<g opacity="0.6">
<path d="M1314 786.417C1316 780.627 1306.9 777.625 1304.9 783.44C1302.87 789.227 1311.97 792.23 1314 786.417Z" fill="#589CFF"/>
<path d="M1310.95 785.423C1310.75 786.023 1310.45 786.199 1310.25 786.284C1309.9 786.429 1309.43 786.41 1308.97 786.262C1308.27 786.038 1307.54 785.529 1307.93 784.406C1308.12 783.806 1308.43 783.629 1308.62 783.545C1308.98 783.399 1309.45 783.419 1309.9 783.566C1310.61 783.79 1311.34 784.3 1310.95 785.423Z" fill="#EEF5FF"/>
</g>
<path d="M1705.62 832.507C1707.62 826.717 1698.52 823.714 1696.52 829.53C1694.49 835.317 1703.59 838.32 1705.62 832.507Z" fill="#589CFF"/>
<path d="M1660.91 796.883C1662.91 791.093 1653.81 788.09 1651.8 793.906C1649.78 799.693 1658.88 802.695 1660.91 796.883Z" fill="#589CFF"/>
<path d="M1657.86 795.888C1657.47 797.012 1656.56 796.975 1655.88 796.753C1655.17 796.53 1654.44 796.02 1654.83 794.897C1655.03 794.297 1655.33 794.121 1655.53 794.036C1655.88 793.89 1656.35 793.91 1656.8 794.058C1657.51 794.256 1658.24 794.765 1657.86 795.888Z" fill="#EEF5FF"/>
<path d="M1509.34 777.854C1511.34 772.064 1502.24 769.061 1500.24 774.877C1498.24 780.667 1507.34 783.669 1509.34 777.854Z" fill="#589CFF"/>
<path d="M1506.32 776.862C1505.93 777.986 1505.02 777.949 1504.34 777.727C1503.63 777.504 1502.9 776.994 1503.29 775.871C1503.49 775.271 1503.79 775.095 1503.99 775.01C1504.34 774.864 1504.81 774.884 1505.26 775.032C1505.95 775.227 1506.7 775.739 1506.32 776.862Z" fill="#EEF5FF"/>
<path d="M1638.7 705.72C1640.71 699.93 1631.6 696.928 1629.6 702.743C1627.57 708.53 1636.68 711.507 1638.7 705.72Z" fill="#589CFF"/>
<path d="M1635.65 704.726C1635.27 705.849 1634.36 705.812 1633.68 705.591C1632.97 705.367 1632.24 704.858 1632.63 703.734C1632.82 703.134 1633.13 702.958 1633.32 702.874C1633.68 702.728 1634.15 702.747 1634.6 702.895C1635.31 703.093 1636.04 703.603 1635.65 704.726Z" fill="#EEF5FF"/>
<path d="M1560.01 636.37C1562.01 630.58 1552.91 627.578 1550.91 633.393C1548.91 639.183 1558.01 642.185 1560.01 636.37Z" fill="#589CFF"/>
<path d="M1556.99 635.379C1556.6 636.502 1555.69 636.465 1555.01 636.244C1554.3 636.02 1553.57 635.51 1553.96 634.387C1554.16 633.787 1554.46 633.611 1554.66 633.526C1555.01 633.38 1555.48 633.4 1555.93 633.548C1556.62 633.743 1557.37 634.255 1556.99 635.379Z" fill="#EEF5FF"/>
<path d="M1902.97 761.685C1904.97 755.895 1895.87 752.893 1893.87 758.708C1891.87 764.498 1900.97 767.5 1902.97 761.685Z" fill="#589CFF"/>
<path d="M1899.95 760.694C1899.56 761.817 1898.65 761.78 1897.97 761.558C1897.26 761.335 1896.54 760.825 1896.92 759.702C1897.12 759.102 1897.43 758.926 1897.62 758.841C1897.97 758.695 1898.44 758.715 1898.9 758.863C1899.58 759.058 1900.33 759.57 1899.95 760.694Z" fill="#EEF5FF"/>
<path d="M1867.86 524.311C1869.86 518.521 1860.76 515.519 1858.75 521.334C1856.75 527.15 1865.85 530.127 1867.86 524.311Z" fill="#589CFF"/>
<path d="M1864.83 523.32C1864.44 524.443 1863.53 524.406 1862.85 524.185C1862.15 523.961 1861.42 523.451 1861.8 522.328C1862 521.728 1862.31 521.552 1862.5 521.467C1862.86 521.321 1863.33 521.341 1863.78 521.489C1864.46 521.71 1865.21 522.222 1864.83 523.32Z" fill="#EEF5FF"/>
<path d="M1728.08 334.935C1730.08 329.145 1720.98 326.142 1718.98 331.958C1716.95 337.745 1726.08 340.75 1728.08 334.935Z" fill="#589CFF"/>
<path d="M1725.06 333.943C1724.86 334.543 1724.55 334.72 1724.36 334.804C1724 334.95 1723.54 334.93 1723.08 334.783C1722.38 334.559 1721.65 334.05 1722.03 332.926C1722.23 332.327 1722.54 332.15 1722.73 332.066C1723.09 331.92 1723.55 331.94 1724.01 332.087C1724.69 332.308 1725.44 332.82 1725.06 333.943Z" fill="#EEF5FF"/>
<path d="M1844.49 121.41C1846.49 115.62 1837.39 112.618 1835.39 118.433C1833.36 124.221 1842.46 127.223 1844.49 121.41Z" fill="#589CFF"/>
<path d="M1841.44 120.416C1841.06 121.539 1840.15 121.502 1839.46 121.281C1838.76 121.057 1838.03 120.548 1838.42 119.424C1838.61 118.825 1838.92 118.648 1839.11 118.564C1839.47 118.418 1839.94 118.438 1840.39 118.585C1841.07 118.806 1841.83 119.293 1841.44 120.416Z" fill="#EEF5FF"/>
<path d="M1225.96 725.288C1227.96 719.498 1218.86 716.495 1216.85 722.311C1214.83 728.098 1223.93 731.1 1225.96 725.288Z" fill="#589CFF"/>
<path d="M1222.91 724.294C1222.52 725.417 1221.61 725.38 1220.93 725.133C1220.22 724.909 1219.5 724.4 1219.88 723.277C1220.08 722.677 1220.39 722.5 1220.58 722.416C1220.93 722.27 1221.4 722.29 1221.86 722.437C1222.56 722.686 1223.29 723.17 1222.91 724.294Z" fill="#EEF5FF"/>
<path d="M827.145 809.674C829.146 803.884 820.044 800.882 818.04 806.697C816.04 812.487 825.142 815.489 827.145 809.674Z" fill="#589CFF"/>
<path d="M824.119 808.683C823.733 809.806 822.822 809.769 822.141 809.547C821.434 809.324 820.707 808.814 821.093 807.691C821.29 807.091 821.597 806.915 821.789 806.83C822.145 806.684 822.613 806.704 823.067 806.852C823.751 807.047 824.505 807.559 824.119 808.683Z" fill="#EEF5FF"/>
<path d="M1606.12 531.563C1608.12 525.773 1599.02 522.771 1597.02 528.586C1595.02 534.376 1604.12 537.378 1606.12 531.563Z" fill="#589CFF"/>
<path d="M1603.1 530.571C1602.71 531.695 1601.8 531.658 1601.12 531.436C1600.41 531.213 1599.68 530.703 1600.07 529.58C1600.46 528.457 1601.37 528.494 1602.05 528.741C1602.73 528.936 1603.48 529.448 1603.1 530.571Z" fill="#EEF5FF"/>
</g>
<rect x="381.167" y="1014.52" width="612.59" height="410.626" transform="rotate(-135 381.167 1014.52)" fill="url(#paint1_linear)"/>
</g>
</g>
<defs>
<linearGradient id="paint0_linear" x1="1148.23" y1="490.484" x2="1692.67" y2="1032.82" gradientUnits="userSpaceOnUse">
<stop stop-color="#6411A6"/>
<stop offset="1" stop-color="#3F046D" stop-opacity="0"/>
</linearGradient>
<linearGradient id="paint1_linear" x1="687.462" y1="1014.52" x2="687.462" y2="1425.15" gradientUnits="userSpaceOnUse">
<stop stop-color="#F28D55" stop-opacity="0"/>
<stop offset="1" stop-color="#F28D55" stop-opacity="0.1"/>
</linearGradient>
</defs>
</svg>
