<svg width="47" height="47" viewBox="0 0 47 47" fill="none" xmlns="http://www.w3.org/2000/svg">
<path d="M41.125 25.6299V24.1611C41.5303 24.1611 41.8594 23.8324 41.8594 23.4268V19.0205C41.8594 18.6149 41.5303 18.2861 41.125 18.2861H37.1594L37.0171 17.7345C36.6924 16.4729 36.1881 15.2643 35.5188 14.1464L35.225 13.655L38.0406 10.8345C38.3241 10.5505 38.3241 10.0904 38.0406 9.8064L34.9218 6.68301C34.6338 6.40848 34.1814 6.40848 33.8934 6.68301L31.0727 9.50376L30.5816 9.21001C29.4619 8.54046 28.2522 8.03615 26.9889 7.71113L26.4375 7.5677V3.59863C26.4375 3.19301 26.1088 2.86426 25.7031 2.86426H21.2969C20.8912 2.86426 20.5625 3.19301 20.5625 3.59863V7.56426L20.0109 7.70683C18.7492 8.03128 17.5407 8.53559 16.4222 9.20398L15.9308 9.49802L13.1109 6.68301C12.8226 6.40618 12.3673 6.40618 12.079 6.68301L8.95938 9.80181C8.82225 9.93864 8.74509 10.1245 8.74509 10.3182C8.74509 10.5121 8.82225 10.6977 8.95938 10.8345L11.7801 13.655L11.4864 14.1464C10.8174 15.2643 10.3128 16.4729 9.98836 17.7345L9.84435 18.2861H5.875C5.46937 18.2861 5.14063 18.6149 5.14063 19.0205V23.4268C5.14063 23.8324 5.46937 24.1611 5.875 24.1611V25.6299C4.6584 25.6299 3.67188 24.6434 3.67188 23.4268V19.0205C3.67188 17.8039 4.6584 16.8174 5.875 16.8174H8.7164C9.01933 15.8019 9.42897 14.8214 9.93845 13.8925L7.91892 11.873C7.50583 11.4608 7.27376 10.9014 7.27376 10.3182C7.27376 9.73497 7.50583 9.17558 7.91892 8.76364L11.04 5.64255C11.9095 4.81035 13.2804 4.81035 14.1499 5.64255L16.1689 7.66122C17.0977 7.15203 18.0785 6.74325 19.0938 6.44061V3.59863C19.0938 2.38204 20.0803 1.39551 21.2969 1.39551H25.7031C26.9197 1.39551 27.9063 2.38204 27.9063 3.59863V6.44061C28.9218 6.74325 29.902 7.15289 30.8311 7.66208L32.8507 5.64255C33.7204 4.81035 35.0911 4.81035 35.9609 5.64255L39.0814 8.76278C39.4942 9.17501 39.726 9.73382 39.726 10.3173C39.726 10.9008 39.4942 11.4602 39.0814 11.8721L37.0618 13.8916C37.571 14.8211 37.9804 15.8019 38.2836 16.8174H41.125C42.3416 16.8174 43.3281 17.8039 43.3281 19.0205V23.4268C43.3281 24.6434 42.3416 25.6299 41.125 25.6299Z" fill="#B961FF"/>
<path d="M33.7813 21.2236H32.3125C32.3125 16.3567 28.367 12.4111 23.5 12.4111C18.633 12.4111 14.6875 16.3567 14.6875 21.2236H13.2188C13.2188 15.5454 17.8218 10.9424 23.5 10.9424C29.1779 10.9424 33.7813 15.5454 33.7813 21.2236Z" fill="#B961FF"/>
<path d="M23.5 27.0986C21.0665 27.0986 19.0938 25.1256 19.0938 22.6924C19.0938 20.2589 21.0665 18.2861 23.5 18.2861C25.9338 18.2861 27.9063 20.2589 27.9063 22.6924C27.9037 25.125 25.9326 27.0961 23.5 27.0986ZM23.5 19.7549C21.8778 19.7549 20.5625 21.0702 20.5625 22.6924C20.5625 24.3146 21.8778 25.6299 23.5 25.6299C25.1222 25.6299 26.4375 24.3146 26.4375 22.6924C26.4375 21.0702 25.1222 19.7549 23.5 19.7549Z" fill="#B961FF"/>
<path d="M35.9844 30.0361C33.5509 30.0361 31.5781 28.0631 31.5781 25.6299C31.5781 23.1964 33.5509 21.2236 35.9844 21.2236C38.4179 21.2236 40.3906 23.1964 40.3906 25.6299C40.388 28.0625 38.417 30.0336 35.9844 30.0361ZM35.9844 22.6924C34.3622 22.6924 33.0469 24.0077 33.0469 25.6299C33.0469 27.2521 34.3622 28.5674 35.9844 28.5674C37.6066 28.5674 38.9219 27.2521 38.9219 25.6299C38.9219 24.0077 37.6066 22.6924 35.9844 22.6924Z" fill="#B961FF"/>
<path d="M11.0156 30.0361C8.58215 30.0361 6.60938 28.0631 6.60938 25.6299C6.60938 23.1964 8.58215 21.2236 11.0156 21.2236C13.4494 21.2236 15.4219 23.1964 15.4219 25.6299C15.4193 28.0625 13.4482 30.0336 11.0156 30.0361ZM11.0156 22.6924C9.3934 22.6924 8.07813 24.0077 8.07813 25.6299C8.07813 27.2521 9.3934 28.5674 11.0156 28.5674C12.6378 28.5674 13.9531 27.2521 13.9531 25.6299C13.9531 24.0077 12.6378 22.6924 11.0156 22.6924Z" fill="#B961FF"/>
<path d="M42.6419 31.9203C41.5476 31.1681 40.2501 30.7668 38.9219 30.7705H33.0469C32.6897 30.7737 32.3332 30.8061 31.9812 30.8672C31.5113 30.1323 30.9 29.4983 30.1828 29.0012C30.0752 28.92 29.9622 28.8463 29.8443 28.7811C28.817 28.1589 27.6383 27.8313 26.4375 27.833H20.5625C18.3166 27.825 16.224 28.971 15.0208 30.8672C14.668 30.8061 14.3108 30.7737 13.9531 30.7705H8.07813C6.75109 30.7668 5.45388 31.1676 4.36006 31.9189C2.55224 33.1489 1.4699 35.1934 1.46875 37.3799V40.3174C1.47133 42.3226 2.63801 44.1436 4.45932 44.9836C5.13173 45.3003 5.86639 45.4623 6.60938 45.458H13.9531V43.9893H7.34375V35.9112H5.875V43.9156C5.59846 43.8602 5.32996 43.7707 5.07522 43.6499C3.77429 43.0501 2.94037 41.7497 2.9375 40.3174V37.3799C2.93922 35.6782 3.78232 34.0876 5.18911 33.1306C6.03909 32.5471 7.04684 32.2364 8.07813 32.2393H13.9531C14.0825 32.2393 14.2073 32.2531 14.3335 32.2617C14.0851 32.9622 13.9563 33.6994 13.9531 34.4424V41.7862C13.9557 43.8132 15.5983 45.4555 17.625 45.458H19.8281V33.708H18.3594V43.9893H17.625C16.4084 43.9893 15.4219 43.0028 15.4219 41.7862V34.4424C15.4219 31.603 17.7237 29.3018 20.5625 29.3018H26.4375C27.3824 29.3024 28.3084 29.564 29.1142 30.0574C29.1888 30.0981 29.2605 30.144 29.3285 30.1945C30.0167 30.6658 30.5816 31.2955 30.9751 32.0305C31.3707 32.7729 31.5781 33.601 31.5781 34.4424V41.7862C31.5781 43.0028 30.5916 43.9893 29.375 43.9893H28.6406V33.708H27.1719V45.458H29.375C31.402 45.4555 33.0443 43.8132 33.0469 41.7862V34.4424C33.0434 33.6994 32.9152 32.9625 32.6671 32.2617C32.7936 32.2531 32.9184 32.2393 33.0469 32.2393H38.9219C39.9537 32.2364 40.9623 32.548 41.8129 33.132C43.2185 34.0896 44.0605 35.6791 44.0625 37.3799V40.3174C44.0599 41.7549 43.2197 43.059 41.9124 43.6557C41.6614 43.7744 41.3969 43.8616 41.125 43.9156V35.9112H39.6563V43.9893H33.0469V45.458H40.3906C41.1293 45.4626 41.8597 45.3026 42.5283 44.9893C44.3557 44.1519 45.5284 42.3275 45.5313 40.3174V37.3799C45.5301 35.1943 44.4486 33.1507 42.6419 31.9203Z" fill="#B961FF"/>
<path d="M20.5625 43.9893H26.4375V45.458H20.5625V43.9893Z" fill="#B961FF"/>
</svg>
