<svg width="114" height="337" viewBox="0 0 114 337" fill="none" xmlns="http://www.w3.org/2000/svg">
<path d="M107.713 166.989L106.949 171.231C106.949 171.231 108.096 200.572 99.6881 191.381C91.2806 182.19 97.0129 169.817 97.0129 169.817L99.3059 166.282L107.713 166.989Z" fill="#FBBEBE"/>
<path d="M58.7971 31.2441C58.7971 31.2441 57.2684 46.0912 56.5041 46.7982C55.7398 47.5052 67.9689 60.9383 67.9689 60.9383L78.6693 51.7473C78.6693 51.7473 77.9049 38.3142 80.1979 35.4862C82.4908 32.6582 58.7971 31.2441 58.7971 31.2441Z" fill="#FBBEBE"/>
<path opacity="0.1" d="M58.7971 31.2441C58.7971 31.2441 57.2684 46.0912 56.5041 46.7982C55.7398 47.5052 67.9689 60.9383 67.9689 60.9383L78.6693 51.7473C78.6693 51.7473 77.9049 38.3142 80.1979 35.4862C82.4908 32.6582 58.7971 31.2441 58.7971 31.2441Z" fill="black"/>
<path d="M30.5173 302.026V314.752L25.1669 315.46L17.5239 313.339L19.8164 299.905L30.5173 302.026Z" fill="#3F3D56"/>
<path d="M23.6389 308.389C23.6389 308.389 21.3459 302.733 17.5244 303.44C13.7028 304.147 12.9385 308.389 12.9385 308.389C12.9385 308.389 9.88122 318.994 5.29533 322.529C0.709437 326.064 -3.87645 335.255 5.29533 336.669C14.4671 338.083 22.1103 334.548 22.1103 333.841C22.1103 333.134 24.4032 328.892 28.2248 328.185C32.0464 327.478 35.1036 326.771 35.1036 323.943C35.1036 321.115 32.8107 318.287 32.8107 318.287C32.8107 318.287 32.0463 304.876 30.5177 306.633C29.4606 308.02 28.6837 309.574 28.2248 311.217L23.6389 308.389Z" fill="#2F2E41"/>
<path d="M63.3835 295.664L60.3262 306.269L67.9691 307.683L71.7906 304.148L72.5547 294.957L63.3835 295.664Z" fill="#3F3D56"/>
<path d="M62.6191 304.854C62.6191 304.854 65.6763 302.733 67.2049 302.733H69.4979C69.4979 302.733 69.4979 297.784 73.3195 297.784C77.1411 297.784 76.3767 301.319 76.3767 301.319C76.3767 301.319 84.7842 313.338 87.0771 315.459C89.3701 317.58 101.599 323.943 91.663 326.771C81.727 329.599 74.8481 329.599 70.2622 324.65C70.2622 324.65 65.6763 322.529 62.6191 322.529C59.5618 322.529 55.7402 321.115 55.7402 318.994C55.7402 316.873 58.0332 312.631 58.0332 312.631C58.0332 312.631 59.5618 299.905 60.3261 301.319C61.0904 302.733 62.6191 304.854 62.6191 304.854Z" fill="#2F2E41"/>
<path d="M29.7534 133.053V156.384C29.7534 156.384 21.346 201.632 21.346 216.479C21.346 231.326 8.35261 302.027 14.4671 303.441C20.5817 304.855 35.1037 306.976 35.868 304.855C36.6323 302.734 41.9825 235.568 42.7468 234.861C43.5111 234.154 59.5617 178.301 59.5617 178.301L62.619 179.008L64.1476 242.638C64.1476 242.638 56.5045 299.906 60.326 299.906C64.1476 299.906 80.1982 299.199 80.1982 294.956C80.1982 290.714 88.6057 212.237 88.6057 212.237C88.6057 212.237 98.5418 150.021 94.7202 143.658C90.8987 137.295 90.8986 133.76 90.8986 133.76L29.7534 133.053Z" fill="#2F2E41"/>
<path d="M71.4084 42.203C79.8507 42.203 86.6946 35.8723 86.6946 28.0629C86.6946 20.2536 79.8507 13.9229 71.4084 13.9229C62.966 13.9229 56.1221 20.2536 56.1221 28.0629C56.1221 35.8723 62.966 42.203 71.4084 42.203Z" fill="#FBBEBE"/>
<path d="M67.969 52.4547C67.969 52.4547 58.4151 45.0311 57.6508 42.2031C57.6508 42.2031 52.6827 46.7986 52.6827 47.5056C52.6827 48.2126 31.2819 50.3337 25.9317 55.9897C20.5815 61.6457 15.9956 73.6648 15.9956 73.6648L28.989 96.2889C28.989 96.2889 29.7533 109.015 29.7533 110.429C29.7533 111.843 25.9317 134.467 27.4603 135.174C28.989 135.881 44.2753 142.951 57.2686 141.537C70.262 140.123 83.2554 138.002 87.0769 138.002C90.8985 138.002 93.9557 139.416 93.9557 138.002C93.9557 136.588 91.6628 133.76 91.6628 132.346C91.6628 130.932 90.8985 127.397 90.8985 125.276C90.8985 123.155 89.3699 119.62 89.3699 116.792C89.3699 113.964 106.185 75.7858 106.185 75.7858C106.185 75.7858 105.42 63.7667 93.1914 58.1107C80.9624 52.4547 79.4338 50.3337 79.4338 50.3337C79.4338 50.3337 79.1955 46.0916 78.5503 46.0916C77.9051 46.0916 75.6122 52.4547 69.4977 53.1617L67.969 52.4547Z" fill="#D0CDE1"/>
<path d="M26.6953 146.486L32.0457 154.263L45.8033 151.435L35.8672 140.83L26.6953 146.486Z" fill="#FBBEBE"/>
<path d="M101.599 70.1299L106.185 75.7859C106.185 75.7859 115.357 116.792 113.828 131.639C112.3 146.486 110.771 157.798 110.771 157.798C110.771 157.798 113.828 168.403 111.535 168.403C109.242 168.403 95.4846 169.11 95.4846 166.989C95.4846 164.868 97.0132 151.435 97.0132 151.435L93.1916 120.327L84.7842 109.722L101.599 70.1299Z" fill="#D0CDE1"/>
<path d="M61.0256 21.198C61.9626 20.8307 63.0458 21.1287 64.0493 20.972C65.2277 20.788 66.2821 19.9804 67.4721 20.0823C68.036 20.179 68.5838 20.3435 69.1016 20.5717C69.3614 20.6846 69.6433 20.7477 69.9301 20.7573C70.217 20.7668 70.503 20.7224 70.7709 20.627C70.8986 20.5722 71.0115 20.4917 71.1014 20.3915C71.1913 20.2913 71.256 20.1739 71.2907 20.0477C71.3255 19.9215 71.3295 19.7898 71.3023 19.662C71.2752 19.5342 71.2177 19.4136 71.134 19.3089C72.1408 19.2269 73.0925 18.8479 73.8489 18.2279C73.9997 18.0831 74.1746 17.9617 74.3671 17.8683C74.5914 17.8142 74.8253 17.8033 75.0544 17.8363C75.2835 17.8693 75.5028 17.9455 75.6986 18.0602L77.4476 18.8059C77.8416 18.9346 78.1881 19.1639 78.4471 19.4673C78.6551 19.7673 78.6958 20.1708 78.9905 20.4005C79.3664 20.6936 79.9284 20.5502 80.4191 20.5789C80.8646 20.619 81.2787 20.809 81.5828 21.1128C81.887 21.4166 82.06 21.813 82.069 22.227C82.0621 22.7018 81.8754 23.2842 82.2813 23.5748C82.5168 23.7433 82.851 23.7163 83.1269 23.8199C83.8418 24.0884 83.8446 25.009 83.7389 25.7159C83.6333 26.4229 83.6856 27.3556 84.4204 27.5733C84.9378 27.7265 85.4665 27.3998 86.004 27.3269C86.815 27.217 87.5653 27.6861 88.2872 28.0451C89.0091 28.4041 89.9681 28.6463 90.5938 28.1566C91.176 27.701 91.1386 26.8673 90.9785 26.1776C90.7487 25.1887 90.3713 24.2342 89.8571 23.3415C89.6668 23.0788 89.5547 22.7744 89.532 22.4588C89.5756 22.2367 89.6696 22.0257 89.8078 21.8396C89.946 21.6536 90.1253 21.4967 90.3337 21.3793C91.2182 20.7325 92.2357 20.0813 92.522 19.0726C92.7322 18.3322 92.4958 17.5514 92.514 16.7861C92.5363 15.8549 92.9365 14.9277 92.7488 14.0126C92.4086 12.3539 90.4129 11.5556 89.1246 10.3596C87.3544 8.71621 86.7796 6.08763 84.6905 4.80403C83.0191 3.77715 80.833 3.89974 78.9298 3.31221C76.8391 2.66679 75.1561 1.184 73.0938 0.464656C71.9681 0.0806491 70.7645 -0.0681999 69.5693 0.0287732C68.3741 0.125746 67.2168 0.466146 66.1806 1.02556C65.5653 1.44761 64.8785 1.7722 64.1482 1.98611C63.5331 2.05202 62.9115 2.04535 62.2983 1.96627C61.0793 1.90811 59.8646 2.13993 58.7701 2.63963C58.3512 2.7945 58.0024 3.07751 57.7817 3.44147C57.4125 4.20004 57.9489 5.38592 57.1395 5.74862C56.7622 5.91773 56.3167 5.75573 55.8975 5.76425C55.0823 5.7808 54.4551 6.43695 54.0672 7.10039C53.7648 7.80176 53.3306 8.44812 52.7848 9.00959C51.7883 9.81686 49.9779 9.95027 49.7176 11.1516C49.7129 11.6603 49.7441 12.1686 49.8111 12.6735C49.7358 13.7382 48.5041 14.5473 48.5683 15.6126C48.6425 16.8413 50.3302 17.4416 50.7813 18.5994C51.1248 19.4809 50.6728 20.4341 50.3617 21.3259C50.0507 22.2176 49.9569 23.3607 50.7602 23.9316C51.0752 24.1554 51.4802 24.2472 51.8014 24.4633C52.6327 25.0226 52.6222 26.1512 52.5299 27.0981C52.4766 27.2947 52.4763 27.5003 52.529 27.697C52.5816 27.8937 52.6856 28.0754 52.8319 28.2263C52.9691 28.3032 53.1225 28.3521 53.2818 28.3698C53.4411 28.3875 53.6026 28.3735 53.7556 28.3289C54.2548 28.217 54.7239 28.0119 55.1343 27.7262C55.5446 27.4406 55.8876 27.0804 56.1421 26.6678C56.4098 26.2583 56.4636 25.8975 56.9499 25.6802C57.2798 25.5328 57.6806 25.6644 58.0164 25.4731C59.6144 24.5631 59.0643 21.9669 61.0256 21.198Z" fill="#2F2E41"/>
<path d="M18.2888 71.5439L15.9958 73.665C15.9958 73.665 2.23821 111.843 6.82407 120.327C11.4099 128.811 20.5817 150.021 23.639 149.314C26.6962 148.607 37.3967 142.244 37.3967 141.537C37.3967 140.83 24.4033 121.034 24.4033 121.034C24.4033 121.034 22.8747 116.792 23.639 116.085C24.4033 115.378 24.4033 116.085 23.639 114.671C22.8747 113.257 22.8747 114.671 24.4033 113.257C25.9319 111.843 25.9319 111.843 25.9319 111.136C25.9319 110.429 30.5178 92.754 30.5178 92.754L18.2888 71.5439Z" fill="#D0CDE1"/>
<path d="M30.1353 154.617L46.9507 149.668L49.2432 154.617L30.9001 158.152L30.1353 154.617Z" fill="#2F2E41"/>
<path opacity="0.1" d="M30.1353 154.617L46.9507 149.668L49.2432 154.617L30.9001 158.152L30.1353 154.617Z" fill="black"/>
<path opacity="0.1" d="M53.0645 47.8594L66.0578 57.7573L67.5868 55.6361L53.0645 47.8594Z" fill="black"/>
<path opacity="0.1" d="M79.0511 50.6875L69.8799 55.6361L70.6441 57.7573L79.0511 50.6875Z" fill="black"/>
</svg>
