<svg width="205" height="290" viewBox="0 0 205 290" fill="none" xmlns="http://www.w3.org/2000/svg">
<mask id="mask0" style="mask-type:alpha" maskUnits="userSpaceOnUse" x="0" y="0" width="205" height="205">
<rect y="102.5" width="144.957" height="144.957" transform="rotate(-45 0 102.5)" fill="#B961FF"/>
</mask>
<g mask="url(#mask0)">
<rect y="102.5" width="144.957" height="144.957" transform="rotate(-45 0 102.5)" fill="black"/>
<rect x="2.12132" y="102.5" width="141.957" height="141.957" transform="rotate(-45 2.12132 102.5)" fill="url(#paint0_linear)" fill-opacity="0.2" stroke="url(#paint1_linear)" stroke-width="3"/>
<rect x="183.124" y="-33.8007" width="395.589" height="20.1602" transform="rotate(45 183.124 -33.8007)" stroke="#B961FF" stroke-opacity="0.2"/>
<rect x="150.046" y="-6.99407" width="450.766" height="20.1602" transform="rotate(45 150.046 -6.99407)" stroke="#B961FF" stroke-opacity="0.2"/>
<rect x="55.6577" y="-41.4999" width="577.379" height="20.1602" transform="rotate(45 55.6577 -41.4999)" stroke="#B961FF" stroke-opacity="0.2"/>
<rect x="-33.5049" y="-70.7792" width="717.787" height="20.1602" transform="rotate(45 -33.5049 -70.7792)" stroke="#B961FF" stroke-opacity="0.2"/>
<rect x="-63.4468" y="-40.8378" width="757.692" height="20.1602" transform="rotate(45 -63.4468 -40.8378)" stroke="#B961FF" stroke-opacity="0.2"/>
<rect x="-101.75" y="-19.2558" width="837.009" height="20.1602" transform="rotate(45 -101.75 -19.2558)" stroke="#B961FF" stroke-opacity="0.2"/>
<rect x="-64.8057" y="77.5704" width="810.406" height="20.1602" transform="rotate(45 -64.8057 77.5704)" stroke="#B961FF" stroke-opacity="0.2"/>
<rect x="-11.8374" y="190.422" width="827.156" height="20.1602" transform="rotate(45 -11.8374 190.422)" stroke="#B961FF" stroke-opacity="0.2"/>
<rect y="0.707107" width="154.689" height="20.1602" transform="matrix(-0.707107 0.707107 0.707107 0.707107 108.411 10.9434)" stroke="#B961FF" stroke-opacity="0.2"/>
<rect y="0.707107" width="395.589" height="20.1602" transform="matrix(-0.707107 0.707107 0.707107 0.707107 273.423 -34.3007)" stroke="#B961FF" stroke-opacity="0.2"/>
<rect y="0.707107" width="577.379" height="20.1602" transform="matrix(-0.707107 0.707107 0.707107 0.707107 400.889 -41.9999)" stroke="#B961FF" stroke-opacity="0.2"/>
<rect y="0.707107" width="757.692" height="20.1602" transform="matrix(-0.707107 0.707107 0.707107 0.707107 519.993 -41.3378)" stroke="#B961FF" stroke-opacity="0.2"/>
<rect y="0.707107" width="810.406" height="20.1602" transform="matrix(-0.707107 0.707107 0.707107 0.707107 521.352 77.0704)" stroke="#B961FF" stroke-opacity="0.2"/>
</g>
<rect x="60.6964" y="246.238" width="59.1495" height="59.1495" transform="rotate(-45 60.6964 246.238)" stroke="url(#paint2_linear)" stroke-width="2"/>
<defs>
<linearGradient id="paint0_linear" x1="72.4784" y1="102.5" x2="72.4784" y2="247.457" gradientUnits="userSpaceOnUse">
<stop offset="0.0001" stop-color="#6411A6"/>
<stop offset="1" stop-color="#3F046D"/>
</linearGradient>
<linearGradient id="paint1_linear" x1="72.4784" y1="102.5" x2="72.4784" y2="247.457" gradientUnits="userSpaceOnUse">
<stop offset="0.0001" stop-color="#6411A6"/>
<stop offset="1" stop-color="#3F046D"/>
</linearGradient>
<linearGradient id="paint2_linear" x1="89.857" y1="246.238" x2="89.857" y2="307.388" gradientUnits="userSpaceOnUse">
<stop offset="0.0001" stop-color="#6411A6"/>
<stop offset="1" stop-color="#3F046D"/>
</linearGradient>
</defs>
</svg>
