<svg width="173" height="248" viewBox="0 0 173 248" fill="none" xmlns="http://www.w3.org/2000/svg">
<path d="M87.8105 87.4438C107.966 87.4438 124.306 71.1581 124.306 51.0686C124.306 30.9791 107.966 14.6934 87.8105 14.6934C67.6547 14.6934 51.3153 30.9791 51.3153 51.0686C51.3153 71.1581 67.6547 87.4438 87.8105 87.4438Z" fill="#FEB8B8"/>
<path d="M121.897 19.6871C116.441 10.856 107.9 4.34865 97.9187 1.41778L93.4383 4.67655V0.44513C91.0412 0.0794462 88.615 -0.0614257 86.1915 0.024367L82.326 3.51035V0.313984C76.6029 1.02284 71.0892 2.90593 66.1326 5.84451C61.1759 8.78308 56.884 12.7134 53.5273 17.3876C45.1329 29.4494 43.7159 46.2299 51.9723 58.3884C54.2386 51.4459 56.9896 44.9319 59.2565 37.99C61.0378 38.2321 62.8433 38.2408 64.6269 38.016L67.3842 31.6029L68.1546 37.7446C76.7016 37.0027 89.3787 35.3729 97.4811 33.88L96.6931 29.1682L101.407 33.0834C103.889 32.5139 105.363 31.9971 105.242 31.6023C111.268 41.2853 118.643 47.4698 124.668 57.1528C126.957 43.4992 129.591 32.1464 121.897 19.6871Z" fill="#2F2E41"/>
<path d="M166.301 144.609C165.046 137.083 163.752 129.414 160.243 122.635C157.937 118.194 154.276 113.963 149.341 113.085C148.369 112.998 147.414 112.778 146.502 112.43C145.056 111.736 125.625 100.68 122.536 98.7539C119.884 97.1008 115.698 94.0398 113.588 94.0398C111.464 93.9933 103.322 95.8821 71.5418 93.406C71.5418 93.406 62.8113 96.8359 56.0559 100.995C55.9535 100.928 23.0709 118.527 21.8356 118.481C19.496 118.383 17.3214 119.876 15.9802 121.756C14.6394 123.636 14.0104 125.964 13.3518 128.214C20.5339 144.156 27.1052 160.118 34.288 176.06C34.6243 176.66 34.803 177.336 34.8074 178.023C34.6631 178.737 34.3575 179.408 33.9139 179.987C30.3915 185.626 30.5035 192.72 30.8883 199.348C31.2734 205.976 31.7495 212.978 28.7776 218.919C27.9692 220.55 26.918 222.043 26.1491 223.674C24.3486 227.368 23.6979 239.184 24.7495 243.153L156.506 246.915C153.673 239.154 166.301 144.609 166.301 144.609Z" fill="#6C63FF"/>
<path d="M1.96284 176.766C1.69994 178.662 1.67347 180.582 1.88403 182.484L3.77244 209.515C3.94974 212.063 4.12422 214.604 4.36414 217.146C4.81724 222.078 5.4941 226.97 6.33417 231.856C6.35314 232.55 6.64744 233.208 7.15251 233.685C7.65758 234.163 8.33214 234.421 9.02815 234.404C17.3409 236.157 25.9295 236.087 34.4132 235.609C47.359 234.889 80.4792 233.526 82.5026 230.907C84.5261 228.287 83.347 224.049 80.7085 221.93C78.0701 219.812 34.3632 214.647 34.3632 214.647C34.7903 211.274 36.0786 208.097 37.3007 204.895C39.4958 199.214 41.5461 193.348 41.5855 187.263C41.6249 181.178 39.3248 174.78 34.3238 171.294C30.21 168.432 24.9135 167.902 19.9005 168.019C16.2531 168.124 9.95121 167.253 6.61977 168.674C3.98351 169.831 2.45534 174.193 1.96284 176.766Z" fill="#FBBEBE"/>
<path d="M12.9718 128.699C12.3317 129.367 11.8354 130.158 11.5133 131.024C6.20153 142.956 3.06408 155.735 2.24786 168.763C2.2622 169.399 2.11529 170.027 1.8208 170.591C1.53037 170.966 1.2071 171.314 0.85479 171.632C0.547624 171.995 0.315179 172.415 0.170743 172.867C0.0263074 173.32 -0.0272892 173.796 0.0129943 174.269C0.0532778 174.743 0.186661 175.203 0.405531 175.625C0.624401 176.047 0.924468 176.421 1.2886 176.727C1.34833 176.778 1.40962 176.826 1.4725 176.872C2.55671 174.838 5.15219 174.174 7.45924 173.997C18.5054 173.126 29.2954 178.248 40.3747 177.862C39.593 175.17 38.4687 172.583 37.8312 169.858C35.012 157.761 42.0435 144.59 37.7327 132.937C36.8716 130.606 35.4327 128.313 33.1658 127.291C32.2271 126.914 31.2448 126.655 30.2417 126.52C27.4422 126.016 21.8692 123.861 19.1625 124.726C18.1635 125.047 17.7695 125.983 16.9413 126.549C15.6834 127.35 14.0145 127.644 12.9718 128.699Z" fill="#6C63FF"/>
<path d="M166.38 168.674C163.049 167.253 156.747 168.124 153.099 168.019C148.087 167.902 142.79 168.432 138.676 171.294C133.675 174.78 131.375 181.178 131.415 187.263C131.454 193.348 133.504 199.214 135.699 204.895C136.921 208.097 138.21 211.274 138.637 214.647C138.637 214.647 94.9298 219.812 92.2914 221.93C89.653 224.049 88.4738 228.287 90.4973 230.907C92.5208 233.526 155.659 236.157 163.972 234.404C164.668 234.421 165.342 234.163 165.847 233.685C166.353 233.208 166.647 232.55 166.666 231.856C167.506 226.97 168.183 222.078 168.636 217.146C168.876 214.604 169.05 212.063 169.228 209.515L171.116 182.484C171.326 180.582 171.3 178.662 171.037 176.766C170.545 174.193 169.017 169.831 166.38 168.674Z" fill="#FBBEBE"/>
<path d="M156.059 126.549C155.231 125.983 154.837 125.047 153.837 124.726C151.131 123.861 145.558 126.016 142.758 126.52C141.755 126.655 140.773 126.914 139.834 127.292C137.567 128.313 136.128 130.606 135.267 132.938C130.956 144.59 137.988 157.761 135.169 169.858C134.531 172.583 133.407 175.17 132.625 177.862C143.705 178.248 154.495 173.126 165.541 173.997C167.848 174.174 170.443 174.839 171.527 176.872C171.59 176.826 171.652 176.778 171.711 176.728C172.076 176.422 172.376 176.047 172.594 175.625C172.813 175.203 172.947 174.743 172.987 174.27C173.027 173.797 172.974 173.32 172.829 172.868C172.685 172.415 172.452 171.996 172.145 171.633C171.793 171.315 171.47 170.966 171.179 170.591C170.885 170.028 170.738 169.399 170.752 168.764C169.936 155.736 166.798 142.956 161.487 131.025C161.165 130.159 160.668 129.367 160.028 128.699C158.986 127.644 157.317 127.35 156.059 126.549Z" fill="#6C63FF"/>
<path d="M77.0017 235.695C82.4418 235.695 86.8518 231.299 86.8518 225.877C86.8518 220.455 82.4418 216.06 77.0017 216.06C71.5617 216.06 67.1516 220.455 67.1516 225.877C67.1516 231.299 71.5617 235.695 77.0017 235.695Z" fill="#FBBEBE"/>
<path d="M98.8126 235.695C104.253 235.695 108.663 231.299 108.663 225.877C108.663 220.455 104.253 216.06 98.8126 216.06C93.3726 216.06 88.9625 220.455 88.9625 225.877C88.9625 231.299 93.3726 235.695 98.8126 235.695Z" fill="#FBBEBE"/>
<path d="M159.615 248H24.2895C22.7096 247.998 21.1949 247.372 20.0777 246.258C18.9605 245.145 18.332 243.635 18.3301 242.06V160.232C18.332 158.658 18.9605 157.148 20.0777 156.035C21.1949 154.921 22.7096 154.295 24.2895 154.293H159.615C161.195 154.295 162.709 154.921 163.826 156.035C164.944 157.148 165.572 158.658 165.574 160.232V242.06C165.572 243.635 164.944 245.145 163.826 246.258C162.709 247.372 161.195 247.998 159.615 248Z" fill="#3F3D56"/>
<path d="M91.6238 205.077C93.8014 205.077 95.5667 203.317 95.5667 201.147C95.5667 198.976 93.8014 197.217 91.6238 197.217C89.4463 197.217 87.681 198.976 87.681 201.147C87.681 203.317 89.4463 205.077 91.6238 205.077Z" fill="white"/>
<path d="M54.2507 64.6265C48.3867 64.6265 43.6329 59.5035 43.6329 53.1839V47.4626C43.6329 41.143 48.3866 36.02 54.2507 36.02V64.6265H54.2507Z" fill="#6C63FF"/>
<path d="M122.021 36.02C127.885 36.02 132.639 41.143 132.639 47.4626V53.1839C132.639 59.5035 127.885 64.6265 122.021 64.6265V36.02Z" fill="#6C63FF"/>
<path d="M127.585 48.3616H125.9C125.9 25.3369 108.518 6.60481 87.1531 6.60481C65.788 6.60481 48.4061 25.3369 48.4061 48.3616H46.7215C46.7215 24.3357 64.859 4.78931 87.1531 4.78931C109.447 4.78932 127.585 24.3358 127.585 48.3616Z" fill="#6C63FF"/>
</svg>
