<svg width="406" height="453" viewBox="0 0 406 453" fill="none" xmlns="http://www.w3.org/2000/svg">
<g opacity="0.5">
<path d="M-800.456 1231.71L-977.743 1168.19L-950.946 981.703L-671.557 1152.58L-499.57 1158.78L-508.438 971.363L-673.354 855.453L-557.615 748.567L-392.94 596.538L-363.07 937.921L-187.365 725.423L-111.769 853.089L82.4614 963.413L288.41 970.124L454.541 952.537L227.53 824.331L4.69979 583.938L220.746 319.324L380.41 123.814L506.505 32.4419L582.071 271.634L613.554 371.28L177.054 437.509L213.753 689.892L361.449 394.555L404.139 309.165L272.952 379.286L303.237 47.9983L379.807 125.999L521.8 282.608L353.704 444.965L449.587 451.034L454.087 687.229L563.272 698.867L611.544 533.695L490.088 488.887L736.888 748.176L801.61 595.453L698.069 235.574L614.167 370.263L718.608 391.091L914.672 570.975L1301.22 705.307L1363.65 592.633L1229.82 454.11L1086.16 604.79L1039.65 227.757L812.736 273.147L828.627 396.375L950.567 147.753L507.034 32.2526L625.024 185.109L840.592 99.8584L868.601 -52.0668L552.441 -288.399L758.451 2.00503L611.518 19.8851L495.919 -80.9287L630.948 -196.051L703.276 -149.743L733.88 -283.851L385.224 -189.986L320.423 -343.343L550.942 -288.841L496.235 -545.284L732.602 -284.352" stroke="#589CFF" stroke-width="0.4628" stroke-miterlimit="10"/>
<path d="M4.6996 583.938L177.907 438.38L454.086 687.229L227.992 823.249L-187.366 725.423L4.6996 583.938ZM4.6996 583.938L447.368 453.301L563.272 698.867L734.515 748.012L453.293 953.745L454.51 688.55L491.472 489.671L613.553 371.28L611.544 533.695L828.627 396.375L801.61 595.453L1039.65 227.757L949.522 148.648L698.789 236.349L828.627 396.375L718.672 392.453L812.577 275.503L614.167 370.263L521.8 282.608L404.139 309.165L507.034 32.2525L304.992 51.2355L343.827 -65.5059L385.224 -189.986L630.948 -196.051L610.523 18.0369L702.146 -152.544" stroke="#589CFF" stroke-width="0.4628" stroke-miterlimit="10"/>
<path d="M270.757 381.546L177.907 438.38L561.237 699.344L404.139 309.164L303.237 47.9981L625.532 187.109L698.789 236.349L812.577 275.503L610.523 18.0367L1039.65 227.757L868.601 -52.067L733.999 -285.781L552.44 -288.399L385.224 -189.986L495.918 -80.9289L700.342 -149.553L867.171 -54.7124L756.254 2.18541L840.592 99.8582L813.728 275.646L1086.16 604.79L912.063 572.511L736.888 748.176L1301.22 705.307L1228.67 452.148L1037.59 227.12" stroke="#589CFF" stroke-width="0.4628" stroke-miterlimit="10"/>
<path d="M-950.04 981.442L-508.438 971.363L-363.07 937.921L-111.769 853.089L227.53 824.331L288.41 970.124L454.086 687.229L213.753 689.892L353.704 444.965L488.975 490.008L718.672 392.453L611.544 533.695L800.684 594.133L913.507 572.005L1039.65 227.757L828.627 396.375L1086.16 604.79L1363.65 592.633" stroke="#589CFF" stroke-width="0.4628" stroke-miterlimit="10"/>
<g opacity="0.6">
<path d="M382.208 128.339C376.844 131.085 372.367 122.859 377.756 120.107C383.112 117.337 387.589 125.563 382.208 128.339Z" fill="#589CFF"/>
</g>
<path d="M275.674 384.272C270.311 387.018 265.834 378.792 271.222 376.04C276.586 373.295 281.063 381.52 275.674 384.272Z" fill="#589CFF"/>
<path d="M274.192 381.536C275.233 381.005 275.045 380.144 274.713 379.528C274.375 378.888 273.752 378.269 272.711 378.8C272.153 379.075 272.031 379.393 271.98 379.588C271.896 379.948 271.994 380.39 272.215 380.801C272.522 381.424 273.151 382.066 274.192 381.536Z" fill="#EEF5FF"/>
<path d="M307.33 53.4362C301.966 56.1817 297.489 47.956 302.878 45.2041C308.234 42.4344 312.711 50.66 307.33 53.4362Z" fill="#589CFF"/>
<path d="M305.841 50.6761C306.882 50.1456 306.693 49.2844 306.337 48.6747C305.999 48.0343 305.376 47.4159 304.335 47.9464C303.777 48.2212 303.655 48.5391 303.604 48.7344C303.52 49.0943 303.618 49.537 303.839 49.9478C304.202 50.5817 304.8 51.2065 305.841 50.6761Z" fill="#EEF5FF"/>
</g>
</svg>
