<svg width="406" height="453" viewBox="0 0 406 453" fill="none" xmlns="http://www.w3.org/2000/svg">
<g opacity="0.5">
<path d="M-648.285 -1148.1L-533.267 -1283.27L-377.766 -1197.56L-621.432 -1008.12L-684.146 -858.54L-515.952 -803.971L-358.859 -910.791L-303.146 -773.165L-223.922 -577.366L-534.857 -664.67L-405.99 -439.017L-543.716 -414.863L-705.642 -280.338L-780.116 -100.991L-819.912 51.3392L-631.307 -106.136L-345.18 -222.579L-183.792 55.991L-64.5631 261.846L-25.9766 403.438L-262.023 390.44L-360.36 385.028L-273.45 -21.8732L-508.188 -73.5301L-296.959 155.003L-235.883 221.067L-254.037 82.0596L27.9718 219.042L-66.289 260.587L-251.635 333.648L-338.827 131.394L-376.096 213.913L-585.843 139.255L-632.45 231.647L-502.889 329.191L-422.952 237.021L-733.718 368.308L-620.61 476.211L-268.843 504.718L-359.667 385.907L-412.797 471.058L-636.664 584.045L-883.778 880.145L-805.216 972.691L-638.534 900.812L-723.563 723.987L-375.657 808.486L-340.141 593.31L-454.079 566.301L-275.464 756.575L-25.9856 403.967L-200.034 457.114L-196.628 675.556L-72.0017 750.824L241.612 550.741L-83.0089 635.706L-49.8622 500.206L77.5046 431.843L134.057 589.218L69.1515 637.574L177.205 709.199L210.507 370.548L367.29 364.464L242.502 549.566L486.815 586.697L178.072 708.239" stroke="#589CFF" stroke-width="0.4628" stroke-miterlimit="10"/>
<path d="M-27.4461 404.249L77.5057 431.843L-201.321 458.23L-47.9004 499.945L-27.4461 404.249Z" stroke="#589CFF" stroke-width="0.4628" stroke-miterlimit="10"/>
<path d="M-345.181 -222.579L-274.502 -21.4114L-585.844 139.254L-630.507 -105.367L-405.99 -439.018L-345.181 -222.579ZM-345.181 -222.579L-377.356 211.201L-632.45 231.647L-732.784 366.271L-820.562 49.8372L-587.149 139.188L-424.105 237.98L-360.36 385.028L-502.889 329.191L-454.08 566.301L-620.61 476.211L-375.657 808.486L-275.907 755.356L-269.767 505.095L-454.08 566.301L-414.02 470.662L-342.166 592.386L-359.667 385.907L-251.636 333.648L-235.883 221.067L-25.986 403.967L24.5332 219.511L114.535 292.613L210.507 370.548L134.057 589.219L-47.9019 499.944L71.9972 637.51" stroke="#589CFF" stroke-width="0.4628" stroke-miterlimit="10"/>
<path d="M-255.3 79.3723L-274.502 -21.4113L-632.193 229.695L-235.883 221.067L27.9717 219.042L-201.967 456.897L-269.766 505.095L-342.166 592.386L-47.9016 499.944L-375.657 808.486L-72.0018 750.824L178.867 709.946L241.612 550.741L210.507 370.549L77.5046 431.843L69.9607 634.924L-69.1934 750.444L-82.4369 633.709L-196.628 675.555L-342.675 593.353L-723.563 723.987L-637.15 581.233L-733.718 368.308L-883.778 880.145L-636.419 900.443L-374.411 806.885" stroke="#589CFF" stroke-width="0.4628" stroke-miterlimit="10"/>
<path d="M21.8157 220.84C21.1804 215.197 29.9231 213.988 30.5558 219.655C31.2147 225.3 22.472 226.508 21.8157 220.84Z" fill="#589CFF"/>
<path d="M24.7436 220.445C24.8647 221.54 25.6869 221.66 26.3431 221.549C27.0203 221.464 27.7729 221.12 27.6518 220.026C27.595 219.443 27.3554 219.229 27.2002 219.119C26.9108 218.925 26.488 218.864 26.0522 218.923C25.3725 219.032 24.6224 219.351 24.7436 220.445Z" fill="#EEF5FF"/>
<path d="M206.412 371.588C205.777 365.945 214.52 364.736 215.152 370.403C215.811 376.048 207.071 377.233 206.412 371.588Z" fill="#589CFF"/>
<path d="M209.341 371.195C209.398 371.778 209.638 371.991 209.793 372.101C210.082 372.295 210.505 372.356 210.941 372.298C211.618 372.213 212.371 371.869 212.249 370.775C212.193 370.192 211.953 369.978 211.798 369.868C211.509 369.675 211.086 369.613 210.65 369.672C209.973 369.757 209.22 370.1 209.341 371.195Z" fill="#EEF5FF"/>
<path d="M361.815 365.696C361.179 360.053 369.922 358.844 370.555 364.511C371.19 370.154 362.447 371.363 361.815 365.696Z" fill="#589CFF"/>
<path d="M364.72 365.3C364.841 366.394 365.663 366.514 366.317 366.427C366.994 366.342 367.747 365.998 367.626 364.904C367.569 364.321 367.329 364.107 367.174 363.997C366.885 363.804 366.462 363.742 366.026 363.801C365.375 363.864 364.599 364.205 364.72 365.3Z" fill="#EEF5FF"/>
</g>
</svg>
