<svg width="188" height="219" viewBox="0 0 188 219" fill="none" xmlns="http://www.w3.org/2000/svg">
<path fill-rule="evenodd" clip-rule="evenodd" d="M6.51675 118.478C5.90553 118.478 5.30212 118.614 4.75116 118.877C4.2002 119.14 3.71578 119.523 3.33373 119.997C2.95169 120.471 2.68179 121.024 2.54401 121.616C2.40624 122.208 2.40409 122.823 2.53772 123.416C2.53773 123.416 2.53772 123.415 2.53772 123.416L7.9156 147.236C8.11877 148.134 8.62363 148.938 9.34715 149.513C10.0707 150.089 10.9698 150.403 11.8967 150.403H36.5751C36.8177 150.403 37.0144 150.599 37.0144 150.84C37.0144 151.081 36.8177 151.277 36.5751 151.277H11.8962C10.7698 151.276 9.67716 150.895 8.79791 150.195C7.91865 149.495 7.30513 148.519 7.05823 147.427L1.6803 123.607C1.51783 122.886 1.52041 122.139 1.68788 121.419C1.85536 120.7 2.18342 120.027 2.64781 119.451C3.11219 118.875 3.70101 118.41 4.37072 118.09C5.04042 117.77 5.77388 117.604 6.51682 117.604C6.75948 117.605 6.95617 117.8 6.95616 118.041C6.95614 118.282 6.75941 118.478 6.51675 118.478Z" fill="#6562CF"/>
<path fill-rule="evenodd" clip-rule="evenodd" d="M52.0356 118.478C51.4244 118.478 50.821 118.614 50.27 118.877C49.7191 119.14 49.2346 119.523 48.8526 119.997C48.4705 120.471 48.2006 121.024 48.0629 121.616C47.9251 122.208 47.9229 122.823 48.0566 123.416C48.0566 123.416 48.0566 123.415 48.0566 123.416L53.4345 147.236C53.6376 148.134 54.1425 148.938 54.866 149.513C55.5895 150.089 56.4887 150.403 57.4156 150.403H82.0939C82.3366 150.403 82.5333 150.599 82.5333 150.84C82.5333 151.081 82.3366 151.277 82.0939 151.277H57.4151C56.2887 151.276 55.196 150.895 54.3168 150.195C53.4375 149.495 52.824 148.519 52.5771 147.427L47.1992 123.607C47.0367 122.886 47.0393 122.139 47.2067 121.419C47.3742 120.7 47.7023 120.027 48.1667 119.451C48.631 118.875 49.2199 118.41 49.8896 118.09C50.5593 117.77 51.2927 117.604 52.0357 117.604C52.2783 117.605 52.475 117.8 52.475 118.041C52.475 118.282 52.2783 118.478 52.0356 118.478Z" fill="#6562CF"/>
<path d="M55.0831 126.445H13.2022C11.678 126.445 10.1986 125.932 9.00481 124.991C7.81102 124.049 6.97313 122.733 6.62749 121.258L0.592279 95.5008C0.395618 94.6613 0.392309 93.7886 0.582597 92.9476C0.772886 92.1067 1.15186 91.3193 1.69122 90.6443C2.23059 89.9693 2.91642 89.424 3.69752 89.0492C4.47861 88.6745 5.3348 88.4799 6.20217 88.48H48.0848C49.6089 88.48 51.088 88.9927 52.2815 89.9345C53.475 90.8764 54.3125 92.1919 54.6578 93.667L60.693 119.429C60.8884 120.268 60.8908 121.141 60.6999 121.981C60.5091 122.821 60.1299 123.607 59.5907 124.282C59.0515 124.956 58.3662 125.501 57.5857 125.875C56.8053 126.25 55.9498 126.445 55.0831 126.445Z" fill="white"/>
<path fill-rule="evenodd" clip-rule="evenodd" d="M6.20214 88.9167C5.40094 88.9166 4.61006 89.0964 3.88856 89.4425C3.16705 89.7887 2.53354 90.2924 2.03532 90.9159C1.5371 91.5394 1.18704 92.2667 1.01127 93.0435C0.835503 93.8203 0.838558 94.6265 1.02021 95.4019C1.02021 95.4019 1.02021 95.4019 1.02021 95.4019L7.05542 121.159C7.37857 122.538 8.16193 123.768 9.27801 124.649C10.3941 125.529 11.7772 126.008 13.2022 126.008H55.0829C55.8835 126.008 56.6737 125.828 57.3947 125.482C58.1156 125.136 58.7487 124.633 59.2467 124.01C59.7448 123.387 60.095 122.661 60.2713 121.885C60.4476 121.109 60.4455 120.303 60.2651 119.528M60.265 119.528L54.2299 93.7661C53.9071 92.3871 53.124 91.1571 52.0083 90.2766C50.8925 89.396 49.5096 88.9168 48.0848 88.9167H6.20214M55.0831 126.445V126.882H13.2023C11.5788 126.882 10.0031 126.336 8.73162 125.333C7.46014 124.33 6.56771 122.928 6.19957 121.357L0.164362 95.6C-0.0473016 94.6964 -0.0508683 93.757 0.153937 92.8519C0.358743 91.9468 0.766627 91.0994 1.34714 90.3729C1.92765 89.6463 2.6658 89.0595 3.50649 88.6562C4.34716 88.2528 5.26865 88.0434 6.20218 88.0435C6.2022 88.0435 6.20217 88.0435 6.20218 88.0435H48.0848C49.7081 88.0435 51.2835 88.5896 52.5547 89.5927C53.8259 90.5959 54.718 91.997 55.0858 93.5681C55.0858 93.5682 55.0858 93.5681 55.0858 93.5681L61.121 119.33L61.1211 119.331C61.3314 120.234 61.3339 121.173 61.1285 122.077C60.9231 122.981 60.515 123.828 59.9347 124.553C59.3544 125.279 58.6168 125.865 57.7768 126.269C56.9368 126.672 56.0162 126.881 55.0834 126.882L55.0831 126.445Z" fill="#6562CF"/>
<path d="M83.3593 144.898H16.19C14.5389 144.898 13.2005 146.228 13.2005 147.869C13.2005 149.51 14.5389 150.84 16.19 150.84H83.3593C85.0104 150.84 86.3488 149.51 86.3488 147.869C86.3488 146.228 85.0104 144.898 83.3593 144.898Z" fill="#EAEEFF"/>
<path fill-rule="evenodd" clip-rule="evenodd" d="M16.19 145.335C14.7816 145.335 13.6399 146.47 13.6399 147.869C13.6399 149.269 14.7816 150.403 16.19 150.403H83.3593C84.7677 150.403 85.9094 149.269 85.9094 147.869C85.9094 146.47 84.7677 145.335 83.3593 145.335H16.19ZM12.7611 147.869C12.7611 145.987 14.2963 144.462 16.19 144.462H83.3593C85.253 144.462 86.7882 145.987 86.7882 147.869C86.7882 149.751 85.253 151.277 83.3593 151.277H16.19C14.2963 151.277 12.7611 149.751 12.7611 147.869Z" fill="#6562CF"/>
<path fill-rule="evenodd" clip-rule="evenodd" d="M22.3904 151.277C19.5263 151.277 17.1332 153.617 16.9838 156.642L16.9829 156.661L8.64119 218.438C8.60892 218.677 8.38779 218.845 8.14729 218.813C7.90678 218.781 7.73798 218.561 7.77025 218.322L16.1071 156.581C16.2866 153.135 19.0285 150.403 22.3904 150.403H36.8018C40.1637 150.403 42.9055 153.135 43.0868 156.581L51.4237 218.322C51.456 218.561 51.2871 218.781 51.0466 218.813C50.8061 218.845 50.585 218.677 50.5527 218.438L42.211 156.661L42.2101 156.642C42.0591 153.617 39.6658 151.277 36.8018 151.277H22.3904Z" fill="#6562CF"/>
<path fill-rule="evenodd" clip-rule="evenodd" d="M60.7299 150.84C60.7299 150.599 60.9267 150.403 61.1693 150.403H75.1624C78.4443 150.403 81.1022 153.147 81.2771 156.581L89.5261 218.322C89.558 218.561 89.3889 218.781 89.1483 218.813C88.9078 218.844 88.6869 218.676 88.655 218.437L80.4011 156.66L80.4002 156.642C80.2536 153.605 77.9239 151.277 75.1624 151.277H61.1693C60.9267 151.277 60.7299 151.081 60.7299 150.84Z" fill="#6562CF"/>
<path d="M127.202 89.6425C128.11 90.238 130.217 94.6741 130.256 95.2085C130.295 95.7429 127.875 99.7144 127.875 99.7144C127.875 99.7144 126.913 99.7354 126.731 97.5505C126.507 94.964 125.365 93.9842 123.709 93.6157C123.017 93.462 121.745 93.986 121.655 94.9989C121.565 96.0119 124.198 96.6843 124.727 97.299C125.53 98.2282 125.078 99.538 125.078 99.5695C125.078 99.5695 121.015 98.3469 120.235 98.1199C119.532 97.912 116.393 95.0758 114.435 92.2639C113.707 92.7942 112.943 93.2755 112.15 93.7048C107.229 96.335 90.3576 102.453 81.6176 101.066C72.8407 99.669 79.8514 71.8999 79.8514 71.8999C92.5615 72.4833 97.8831 70.8747 98.8533 70.5342L96.8796 83.3708C102.221 83.2136 115.363 85.3775 115.37 85.3793C119.063 85.8613 125.896 88.7884 127.202 89.6425Z" fill="#F1921B"/>
<path d="M79.7898 71.8872H79.8654C92.5755 72.4706 97.8972 70.862 98.8673 70.5215L98.4016 73.6652C98.4016 73.6652 88.9727 78.0768 78.4858 77.6821L79.7898 71.8872Z" fill="#EB7200"/>
<path d="M81.064 106.988C84.0834 106.768 89.5562 71.8521 89.5562 71.8521C96.2962 71.9499 104.446 68.8255 104.446 68.8255C104.446 68.8255 98.8726 50.676 96.9517 46.9333C95.0308 43.1906 81.2415 36.7199 79.6141 36.2518L52.7351 30.1392C52.7351 30.1392 29.7911 35.803 22.5556 41.6153C15.32 47.4276 9.66617 71.9447 9.66617 71.9447C22.9545 77.2697 36.7315 76.4855 36.7315 76.4855L32.0478 104.539C30.531 111.351 25.6856 132.975 34.2288 143.475C34.2288 143.475 41.1023 109.904 81.064 106.988Z" fill="#EAEEFF"/>
<path d="M63.3995 39.1212L55.3608 43.9956L45.1674 32.2173L52.8195 27.6625C53.0424 27.5305 53.2896 27.4439 53.5465 27.4076C53.8034 27.3713 54.065 27.386 54.3162 27.451C54.5673 27.516 54.803 27.6299 55.0095 27.7862C55.2159 27.9424 55.3891 28.1378 55.519 28.3611L63.3995 39.1212Z" fill="#DBDAFF"/>
<path d="M75.6246 40.2387L81.282 43.557L81.0096 36.8121L79.6141 36.2515C79.6141 36.2515 77.129 37.9071 75.6246 40.2387Z" fill="#DBDAFF"/>
<path fill-rule="evenodd" clip-rule="evenodd" d="M38.6638 69.1619C38.2557 71.7437 37.7069 74.8021 37.1517 76.6095L36.3112 76.3546C36.8456 74.6148 37.3864 71.6156 37.7957 69.0265C37.9994 67.7371 38.1693 66.558 38.2882 65.7012C38.3476 65.2729 38.3943 64.9253 38.4262 64.6849C38.4421 64.5646 38.4543 64.4713 38.4625 64.408C38.4666 64.3764 38.4697 64.3523 38.4717 64.3361L38.4748 64.312C38.4748 64.312 38.4748 64.3119 38.9107 64.3667C39.3466 64.4214 39.3466 64.4215 39.3466 64.4216L39.3434 64.4466C39.3413 64.4631 39.3381 64.4876 39.334 64.5196C39.3257 64.5835 39.3134 64.6777 39.2974 64.7987C39.2654 65.0407 39.2184 65.3902 39.1587 65.8206C39.0393 66.6811 38.8686 67.8658 38.6638 69.1619Z" fill="#C7BFFF"/>
<path fill-rule="evenodd" clip-rule="evenodd" d="M63.5847 39.1372L63.2484 39.4181C63.5847 39.1372 63.5847 39.1371 63.5847 39.1372L63.6068 39.1633C63.6212 39.1804 63.6426 39.2057 63.6705 39.2388C63.7262 39.305 63.8078 39.4022 63.9118 39.5264C64.1196 39.7747 64.4167 40.1311 64.7738 40.5636C65.4878 41.4284 66.4426 42.5984 67.4044 43.818C68.3654 45.0365 69.3373 46.3094 70.0837 47.3786C70.4564 47.9127 70.7774 48.4022 71.0136 48.8123C71.1316 49.0173 71.2317 49.2081 71.3071 49.3785C71.3799 49.543 71.4412 49.7138 71.4625 49.8722C71.5187 50.2895 71.5836 51.6078 71.65 53.3113C71.717 55.0293 71.7865 57.1723 71.8493 59.2652C71.9122 61.3583 71.9684 63.4025 72.009 64.9232C72.0292 65.6836 72.0456 66.3132 72.0569 66.7528C72.0594 66.85 72.0616 66.938 72.0636 67.016H75.6246V67.8892H71.6351C71.3967 67.8892 71.2018 67.7003 71.1959 67.4634L71.6351 67.4526C71.1959 67.4634 71.1959 67.4634 71.1959 67.4632L71.1914 67.284C71.1884 67.1668 71.184 66.9946 71.1784 66.775C71.1671 66.3357 71.1508 65.7064 71.1305 64.9464C71.09 63.4262 71.0338 61.3831 70.971 59.2912C70.9082 57.1992 70.8388 55.0593 70.772 53.3451C70.7046 51.6165 70.6407 50.3533 70.5915 49.9881C70.5865 49.9509 70.564 49.8685 70.5027 49.7299C70.444 49.5974 70.36 49.4355 70.2509 49.246C70.0328 48.8673 69.728 48.4012 69.3616 47.8763C68.6297 46.8279 67.6701 45.5705 66.7128 44.3566C65.7563 43.1438 64.806 41.9792 64.0945 41.1175C63.7388 40.6867 63.443 40.3319 63.2362 40.0848C63.2052 40.0478 63.1762 40.0132 63.1494 39.9812L55.5824 44.3727L55.1392 43.6186L63.0268 39.0411C63.2115 38.9339 63.4471 38.9744 63.5847 39.1372Z" fill="#C7BFFF"/>
<path fill-rule="evenodd" clip-rule="evenodd" d="M75.4026 40.3025C75.5278 40.1056 75.7865 40.0411 75.9904 40.1558L81.349 43.1703L80.9161 43.9302L75.9237 41.1217C75.7926 41.3317 75.6098 41.6267 75.3922 41.9832C74.94 42.7242 74.3389 43.7294 73.7418 44.7882C73.1439 45.8485 72.5541 46.9556 72.1222 47.9021C71.906 48.3758 71.733 48.8014 71.6182 49.1562C71.4991 49.5242 71.4586 49.7694 71.4672 49.9019L70.5903 49.9583C70.5704 49.6521 70.6568 49.2745 70.7816 48.8889C70.9107 48.4899 71.0986 48.0308 71.3219 47.5414C71.7689 46.562 72.3726 45.4301 72.9752 44.3613C73.5788 43.291 74.1854 42.2767 74.6408 41.5304C74.8686 41.1572 75.0588 40.8506 75.1921 40.6372C75.2588 40.5304 75.3113 40.447 75.3472 40.3901C75.3651 40.3617 75.3789 40.3399 75.3882 40.3251L75.4026 40.3025C75.4027 40.3024 75.4026 40.3025 75.774 40.5358L75.4026 40.3025Z" fill="#C7BFFF"/>
<path fill-rule="evenodd" clip-rule="evenodd" d="M37.5832 72.8185L37.5874 72.9575C37.6004 73.394 37.6003 73.394 37.6001 73.394L37.5869 73.3943C37.5783 73.3946 37.5657 73.3949 37.5491 73.3953C37.5158 73.3961 37.4667 73.3972 37.4025 73.3984C37.274 73.4008 37.0849 73.4037 36.8412 73.4054C36.3536 73.4088 35.6471 73.4077 34.7686 73.3898C33.0118 73.3541 30.5652 73.2511 27.8045 72.9821C22.2974 72.4455 15.4842 71.2435 10.4139 68.5593L10.8271 67.7886C15.7393 70.3892 22.4096 71.579 27.8902 72.113C30.6234 72.3793 33.0468 72.4813 34.7866 72.5168C35.6563 72.5345 36.3547 72.5355 36.835 72.5321C37.0751 72.5305 37.2607 72.5277 37.3859 72.5253C37.4485 72.5242 37.496 72.5231 37.5276 72.5223C37.5434 72.5219 37.5553 72.5216 37.5631 72.5214L37.5718 72.5212L37.5743 72.5211C37.5743 72.5211 37.5743 72.5211 37.5832 72.8185Z" fill="#C7BFFF"/>
<path d="M88.4015 100.597C88.4015 101.399 80.1168 101.107 78.9498 101.107C77.7828 101.107 70.4734 101.383 68.7564 101.107C59.4224 101.871 17.7893 104.878 12.9474 98.1908C7.34277 90.4469 12.3499 72.9297 12.3499 72.9297C24.9247 77.2697 36.7315 76.4803 36.7315 76.4803L35.6998 83.1326C45.6806 84.3552 63.6913 90.6425 69.8144 92.8448C71.1272 92.4274 76.1255 90.9237 78.6563 91.4965C81.5843 92.1515 85.101 94.7712 85.4665 95.4995C85.8321 96.2277 88.4015 99.7976 88.4015 100.597Z" fill="#F1921B"/>
<path d="M78.9445 101.108C80.1115 101.108 88.3962 101.399 88.3962 100.599C88.3962 99.7995 85.8321 96.2332 85.4665 95.5049C85.101 94.7766 81.586 92.1569 78.6562 91.502C78.6562 91.502 82.2714 96.4916 78.9445 101.108Z" fill="#EB7200"/>
<path d="M12.3428 72.9351C12.3428 72.9351 25.2129 77.434 36.7315 76.4822L35.6998 83.1328C35.6998 83.1328 20.3288 80.6877 11.798 75.1548L12.3428 72.9351Z" fill="#EB7200"/>
<path d="M123.69 219.009H95.2311C95.203 218.578 95.1925 218.166 95.2013 217.769H123.727C123.758 218.183 123.746 218.598 123.69 219.009Z" fill="#3F4D79"/>
<path d="M98.1317 206.347C98.2337 209.431 95.2336 211.386 95.2336 217.76H123.691C123.691 217.76 124.104 212.413 118.418 211.18C112.733 209.947 107.552 208.3 107.035 206.347H98.1317Z" fill="#FFB000"/>
<path fill-rule="evenodd" clip-rule="evenodd" d="M110.073 207.925C110.274 208.06 110.327 208.332 110.191 208.532L107.594 212.353C107.458 212.553 107.185 212.605 106.984 212.47C106.782 212.335 106.73 212.064 106.865 211.864L109.463 208.043C109.599 207.843 109.872 207.79 110.073 207.925Z" fill="#3F4D79"/>
<path fill-rule="evenodd" clip-rule="evenodd" d="M111.949 208.704C112.148 208.841 112.198 209.113 112.06 209.311L109.617 212.822C109.479 213.02 109.206 213.07 109.006 212.933C108.806 212.795 108.756 212.524 108.895 212.325L111.337 208.815C111.475 208.616 111.749 208.567 111.949 208.704Z" fill="#3F4D79"/>
<path fill-rule="evenodd" clip-rule="evenodd" d="M114.111 209.155C114.318 209.281 114.383 209.55 114.256 209.756L112.281 212.957C112.154 213.163 111.883 213.227 111.676 213.101C111.47 212.975 111.405 212.706 111.532 212.501L113.507 209.299C113.634 209.094 113.904 209.029 114.111 209.155Z" fill="#3F4D79"/>
<path d="M67.5261 109.459C67.5261 109.459 110.961 106.759 121.516 119.1C132.072 131.44 111.583 175.452 109.512 202.189C109.512 202.189 99.1187 203.217 94.899 202.189C90.6793 201.16 87.0061 155.449 97.6389 142.903C97.6389 142.903 57.2167 152.143 41.4538 140.489C25.6909 128.835 60.969 109.679 67.5261 109.459Z" fill="#3C4564"/>
<path d="M107.031 206.347C104.145 207.316 101.019 207.316 98.1327 206.347L97.2909 202.533C97.2909 202.533 102.82 202.81 107.871 202.33L107.031 206.347Z" fill="#F1921B"/>
<path d="M188 176.186L165.425 193.404C165.105 193.016 164.816 192.637 164.559 192.267L187.044 175.117C187.403 175.436 187.723 175.794 188 176.186Z" fill="#3F4D79"/>
<path d="M159.796 181.51C161.768 183.896 160.583 187.261 164.49 192.319L187.065 175.101C187.065 175.101 184.116 170.609 178.845 173.073C173.575 175.537 168.462 177.364 166.854 176.126L159.796 181.51Z" fill="#FFB000"/>
<path fill-rule="evenodd" clip-rule="evenodd" d="M170.296 175.416C170.538 175.401 170.747 175.584 170.762 175.824L171.041 180.276C171.056 180.517 170.872 180.724 170.63 180.739C170.388 180.754 170.179 180.571 170.164 180.331L169.885 175.879C169.87 175.638 170.054 175.431 170.296 175.416Z" fill="#3F4D79"/>
<path fill-rule="evenodd" clip-rule="evenodd" d="M172.008 174.796C172.25 174.779 172.46 174.961 172.477 175.201L172.756 179.188C172.773 179.429 172.591 179.638 172.348 179.654C172.106 179.671 171.897 179.49 171.88 179.249L171.6 175.262C171.583 175.021 171.766 174.813 172.008 174.796Z" fill="#3F4D79"/>
<path fill-rule="evenodd" clip-rule="evenodd" d="M173.719 174.177C173.961 174.158 174.173 174.337 174.192 174.578L174.471 178.1C174.49 178.341 174.31 178.551 174.068 178.57C173.826 178.589 173.614 178.409 173.595 178.169L173.316 174.646C173.297 174.406 173.477 174.196 173.719 174.177Z" fill="#3F4D79"/>
<path d="M34.2288 141.729C34.8791 145.211 71.839 153.65 111.168 128.98C111.168 128.98 113.753 158.74 153.492 180.326C153.492 180.326 162.139 177.224 166.024 170.408C166.024 170.408 140.102 140.283 130.121 112.619C125.931 101.003 73.1975 107.084 65.4874 109.459C57.7774 111.834 31.3307 126.208 34.2288 141.729Z" fill="#3F4D79"/>
<path d="M166.854 176.126C166.854 176.126 165.151 181.337 159.796 181.51L156.306 179.051C159.462 177.448 162.269 175.242 164.566 172.56L166.854 176.126Z" fill="#F1921B"/>
<path d="M68.1905 20.5386C68.1905 20.5386 66.5472 24.8314 55.8881 28.9217C55.8881 28.9217 63.389 39.1246 71.0183 48.7111C71.0183 48.7111 74.0763 39.9036 79.6036 36.2552L68.1905 20.5386Z" fill="#F1921B"/>
<path d="M79.6141 36.2516C77.9849 37.3572 76.6123 38.8504 75.477 40.4432C71.962 37.8235 68.0094 33.225 66.8389 29.8892C66.2607 28.2388 67.7915 23.7765 68.679 21.1987L79.6141 36.2516Z" fill="#EB7200"/>
<path d="M67.976 21.3772C67.976 22.7743 66.7546 27.0759 68.2326 28.8014C70.9356 31.9573 78.6791 37.0099 82.4876 36.7986C85.2012 36.6536 89.0448 24.9557 89.6177 23.2075C90.1907 21.4592 92.6652 14.4489 90.9077 12.5749C89.1502 10.7009 74.4594 6.60018 71.5402 12.6395C68.3047 19.3338 67.976 21.3772 67.976 21.3772Z" fill="#F1921B"/>
<path d="M96.9517 8.50918C95.5088 17.8895 89.3611 19.1156 77.2503 12.0703C71.7019 8.84451 75.6246 14.6219 72.5051 19.6378L71.4858 20.015C71.5191 19.5103 71.5912 17.425 70.5473 17.4197C69.0095 17.4197 68.5367 19.7321 68.3891 21.1589L67.7985 21.3773C67.7985 21.3773 67.7353 10.9211 69.2274 7.59752C72.9181 -0.630155 83.586 3.81464 86.2029 5.21357C94.4596 9.62344 96.9517 8.50918 96.9517 8.50918Z" fill="#FFB000"/>
<path fill-rule="evenodd" clip-rule="evenodd" d="M88.2355 17.9075C84.9757 17.1423 81.0839 15.0182 76.7601 11.6265L77.1957 11.0781C81.4836 14.4418 85.2808 16.4961 88.3971 17.2276C91.5011 17.9563 93.8786 17.3668 95.4472 15.5129L95.9852 15.9625C94.1935 18.0802 91.5076 18.6756 88.2355 17.9075Z" fill="#FFB000"/>
<path d="M69.7951 14.4252L69.7782 14.4204C67.7168 13.8376 65.5704 15.0258 64.984 17.0743L64.506 18.7441C63.9195 20.7925 65.1152 22.9255 67.1766 23.5083L67.1935 23.5131C69.2549 24.0958 71.4013 22.9076 71.9877 20.8591L72.4657 19.1894C73.0522 17.1409 71.8565 15.0079 69.7951 14.4252Z" fill="white"/>
<path fill-rule="evenodd" clip-rule="evenodd" d="M69.658 14.8402C67.83 14.3235 65.9266 15.3771 65.4066 17.1936L64.9286 18.8634C64.4086 20.6799 65.4689 22.5714 67.2968 23.0882L67.3137 23.093C69.1417 23.6097 71.0451 22.5561 71.5652 20.7395L72.0432 19.0698C72.5632 17.2533 71.5029 15.3618 69.6749 14.845L69.658 14.8402ZM64.5614 16.9547C65.2142 14.6743 67.6037 13.3516 69.8984 14.0003L69.9154 14.0051C72.2101 14.6538 73.5412 17.0283 72.8884 19.3087L72.4104 20.9785C71.7575 23.2589 69.3681 24.5816 67.0733 23.9329L67.0564 23.9281C64.7616 23.2794 63.4306 20.9049 64.0834 18.6245L64.5614 16.9547Z" fill="#3F4D79"/>
<path d="M72.6088 18.6876L71.839 21.3772C71.5956 22.2258 71.0231 22.9437 70.2474 23.373C69.4716 23.8023 68.556 23.908 67.7019 23.6668L66.6614 23.3717C66.6158 23.3594 66.5718 23.3455 66.5261 23.3298C67.366 23.5319 68.252 23.4027 68.9979 22.9692C69.7439 22.5357 70.2917 21.8317 70.5262 21.0052L71.296 18.3156C71.534 17.4905 71.4411 16.6058 71.0367 15.8474C70.6323 15.0889 69.9479 14.5157 69.1272 14.248L69.2643 14.283L70.2995 14.5729C70.7239 14.6908 71.1207 14.8911 71.4669 15.1622C71.8131 15.4333 72.1018 15.7698 72.3165 16.1523C72.5312 16.5348 72.6675 16.9558 72.7177 17.3909C72.7679 17.826 72.7309 18.2668 72.6088 18.6876Z" fill="white"/>
<path fill-rule="evenodd" clip-rule="evenodd" d="M68.9902 14.663L69.2363 13.8252L69.3785 13.8614L70.4178 14.1525C70.4179 14.1525 70.4181 14.1526 70.4182 14.1526C70.8984 14.2861 71.3472 14.5127 71.7388 14.8193C72.1305 15.1261 72.4573 15.5069 72.7002 15.9397C72.9432 16.3726 73.0975 16.8489 73.1542 17.3413C73.211 17.8334 73.1691 18.3319 73.0312 18.8079C73.0311 18.8081 73.0311 18.8084 73.031 18.8086L72.2616 21.4967L72.2616 21.4969C71.9863 22.4569 71.3387 23.2689 70.4612 23.7545C69.5836 24.2402 68.548 24.3597 67.5818 24.0869L66.5438 23.7924C66.4865 23.777 66.4333 23.7599 66.3824 23.7424L66.6296 22.9055C67.3589 23.081 68.1283 22.9688 68.7761 22.5923C69.4239 22.2159 69.8996 21.6045 70.1033 20.8868L70.1036 20.8858L70.8736 18.1953C71.0804 17.4788 70.9997 16.7105 70.6485 16.0519C70.2973 15.3932 69.7029 14.8954 68.9902 14.663ZM69.3577 23.262C69.5916 23.2009 69.8188 23.1105 70.0336 22.9916C70.7076 22.6186 71.205 21.9949 71.4165 21.2576L72.1862 18.5682L72.6088 18.6877L72.1866 18.5668C72.2926 18.2013 72.3248 17.8186 72.2812 17.4407C72.2376 17.0628 72.1192 16.6972 71.9328 16.3651C71.8112 16.1484 71.6623 15.9488 71.49 15.7709C71.892 16.5996 71.9744 17.5481 71.7184 18.4356C71.7184 18.4358 71.7183 18.4359 71.7183 18.436L70.9491 21.1238C70.949 21.1239 70.949 21.124 70.9489 21.1242C70.6982 22.0075 70.1312 22.7671 69.3577 23.262Z" fill="#3F4D79"/>
<path fill-rule="evenodd" clip-rule="evenodd" d="M77.102 1.0052C76.6673 0.882314 76.2125 0.845726 75.7635 0.897528C75.3146 0.949329 74.8803 1.08851 74.4855 1.30711C74.0907 1.52571 73.7431 1.81946 73.4626 2.17157C73.182 2.52369 72.974 2.92727 72.8504 3.35928L69.6869 14.3973C69.6204 14.6292 69.3773 14.7636 69.144 14.6976C68.9106 14.6315 68.7753 14.39 68.8417 14.1581L72.0052 3.12051C72.0052 3.12044 72.0052 3.12037 72.0052 3.1203C72.1604 2.57805 72.4215 2.07148 72.7736 1.6295C73.1258 1.18747 73.5622 0.818711 74.0578 0.544286C74.5534 0.269861 75.0986 0.0951442 75.6622 0.0301146C76.2258 -0.0349134 76.7967 0.0110139 77.3424 0.165274M77.3424 0.165274L88.5902 3.34384C88.5902 3.34385 88.5902 3.34383 88.5902 3.34384C89.3725 3.5647 89.986 3.99615 90.337 4.61121C90.6885 5.22738 90.7443 5.97119 90.5201 6.75298C90.4536 6.98488 90.2105 7.1193 89.9771 7.05321C89.7438 6.98712 89.6085 6.74555 89.675 6.51364C89.848 5.91047 89.786 5.41603 89.5726 5.04194C89.3585 4.66678 88.9597 4.35594 88.3501 4.18384L77.102 1.0052" fill="#3F4D79"/>
<path d="M121.815 101.547H72.5015C70.2502 101.547 68.8231 99.3099 69.9093 97.4831L86.6054 69.4224C88.0571 66.9773 90.8233 65.4648 93.8392 65.4648H143.154C145.406 65.4648 146.833 67.7021 145.747 69.5289L129.05 97.5896C127.593 100.031 124.824 101.547 121.815 101.547Z" fill="#EAEEFF"/>
<path d="M121.332 102.448H74.0429C71.8372 102.448 70.44 100.256 71.5051 98.4662L87.862 70.9748C89.2856 68.5822 92.0009 67.0977 94.9499 67.0977H142.239C144.444 67.0977 145.841 69.2895 144.776 71.0796L128.419 98.5692C126.996 100.962 124.281 102.448 121.332 102.448Z" fill="#C0C1FF"/>
<path fill-rule="evenodd" clip-rule="evenodd" d="M93.8392 65.9016C90.9681 65.9016 88.3512 67.3413 86.9838 69.6443L86.9836 69.6447L70.2876 97.7053C69.402 99.1948 70.5349 101.111 72.5016 101.111H121.815C124.678 101.111 127.299 99.6678 128.672 97.3673C128.672 97.3672 128.672 97.3671 128.672 97.367L145.368 69.3069C146.254 67.8174 145.121 65.9016 143.154 65.9016H93.8392ZM86.227 69.2006C87.763 66.6135 90.6786 65.0283 93.8392 65.0283H143.154C145.69 65.0283 147.411 67.587 146.125 69.7511L129.428 97.8124C127.887 100.395 124.969 101.984 121.815 101.984H72.5016C69.9656 101.984 68.2443 99.4252 69.531 97.2611L86.227 69.2006Z" fill="#6562CF"/>
<path d="M122.479 101.584H32.4309C31.4816 101.584 30.7121 102.349 30.7121 103.292V103.669C30.7121 104.613 31.4816 105.377 32.4309 105.377H122.479C123.428 105.377 124.198 104.613 124.198 103.669V103.292C124.198 102.349 123.428 101.584 122.479 101.584Z" fill="#D1D1FF"/>
<path fill-rule="evenodd" clip-rule="evenodd" d="M32.4309 102.108C31.7728 102.108 31.2393 102.638 31.2393 103.292V103.669C31.2393 104.323 31.7728 104.853 32.4309 104.853H122.479C123.137 104.853 123.671 104.323 123.671 103.669V103.292C123.671 102.638 123.137 102.108 122.479 102.108H32.4309ZM30.1848 103.292C30.1848 102.059 31.1904 101.06 32.4309 101.06H122.479C123.72 101.06 124.725 102.059 124.725 103.292V103.669C124.725 104.902 123.72 105.901 122.479 105.901H32.4309C31.1904 105.901 30.1848 104.902 30.1848 103.669V103.292Z" fill="#6562CF"/>
</svg>
