<svg width="55" height="55" viewBox="0 0 55 55" fill="none" xmlns="http://www.w3.org/2000/svg">
<path d="M21.7003 3.22266C21.2554 3.22266 20.8946 3.58338 20.8946 4.02832C20.8946 4.47326 21.2554 4.83398 21.7003 4.83398C22.1452 4.83398 22.506 4.47326 22.506 4.02832C22.506 3.58338 22.1452 3.22266 21.7003 3.22266ZM50.9717 4.62344H43.7733V2.09473C43.7733 0.939727 42.8336 0 41.6786 0H13.3214C12.1664 0 11.2267 0.939727 11.2267 2.09473V4.62344H4.02832C1.80705 4.62344 0 6.43049 0 8.65176V38.9898C0 40.6806 1.02019 42.1261 2.50712 42.7241L0.593828 46.0381C-0.622402 48.1119 0.112363 50.8729 2.21439 52.0865C4.30225 53.2919 7.02915 52.6023 8.26278 50.4659L12.5627 43.0183H22.8684L22.2548 47.5789H21.3571C20.6115 47.5789 19.9517 48.0806 19.7525 48.7989L18.6179 52.89C18.4775 53.3957 18.5794 53.9252 18.8969 54.3429C19.2144 54.7606 19.6976 55 20.2224 55H34.7776C35.3024 55 35.7856 54.7604 36.1031 54.3428C36.4206 53.9251 36.5224 53.3955 36.3822 52.89L35.2475 48.799C35.0483 48.0805 34.3886 47.5788 33.6429 47.5788H32.7452L32.1316 43.0182H50.9717C53.1929 43.0182 55 41.2111 55 38.9898V8.65176C55 6.43049 53.1929 4.62344 50.9717 4.62344ZM43.7733 9.45742H50.166V36.5728H43.7733V9.45742ZM12.838 2.09473C12.838 1.82821 13.0549 1.61133 13.3214 1.61133H41.6786C41.9451 1.61133 42.162 1.82821 42.162 2.09473V6.44531H12.838V2.09473ZM19.3708 11.6655C25.2737 11.6655 30.076 16.4679 30.076 22.3707C30.076 28.2735 25.2737 33.0758 19.3708 33.0758C12.5212 33.0758 7.38278 26.6657 8.94158 19.9494C9.04224 19.516 8.77239 19.0831 8.33895 18.9825C7.9055 18.882 7.4727 19.1518 7.37204 19.5853C6.38516 23.8369 7.80699 28.3812 10.8817 31.2864L9.43196 33.797C8.47838 33.6287 7.48956 34.087 7.00648 34.9309L6.05859 36.5728H4.83398V9.45742H11.2267V13.1296C10.3459 13.9095 9.56764 14.8234 8.92171 15.8559C8.68581 16.2331 8.80021 16.7302 9.17748 16.9662C9.55464 17.2021 10.0519 17.0877 10.2878 16.7104C12.2505 13.5717 15.6216 11.6655 19.3708 11.6655ZM14.357 33.6196L13.1213 35.7598L10.8999 34.4773L12.1379 32.3333C12.8274 32.8351 13.5704 33.2676 14.357 33.6196ZM1.61133 38.9898V8.65176C1.61133 7.31897 2.69564 6.23477 4.02832 6.23477H11.2267V7.84609H4.45801C3.77685 7.84609 3.22266 8.40028 3.22266 9.08145V36.9488C3.22266 37.63 3.77685 38.1842 4.45801 38.1842H5.12832L3.32847 41.3017C2.33481 40.9981 1.61133 40.0634 1.61133 38.9898ZM13.2801 38.553C13.2801 38.553 6.88252 49.6338 6.86737 49.6602C6.09093 51.0051 4.36509 51.4674 3.02017 50.691C1.68921 49.9226 1.21698 48.1666 1.98935 46.8438L8.402 35.7366C8.59719 35.394 9.0518 35.2681 9.39168 35.4674C9.39318 35.4682 9.39458 35.4693 9.39608 35.4703C9.39845 35.4717 9.40103 35.4725 9.4035 35.4739L13.0042 37.5529C13.0073 37.5547 13.01 37.5568 13.0131 37.5586C13.0145 37.5593 13.0159 37.5598 13.0173 37.5606C13.3621 37.7624 13.48 38.2065 13.2801 38.553ZM33.643 49.1901C33.6671 49.1901 33.6884 49.2062 33.6947 49.2293V49.2294L34.8294 53.3207C34.8396 53.3466 34.8055 53.3917 34.7776 53.3887H20.2224C20.1943 53.3916 20.1601 53.347 20.1707 53.3206L21.3054 49.2292C21.3119 49.2061 21.3331 49.19 21.3571 49.19H33.643V49.1901ZM23.8805 47.5788L24.4941 43.0182H30.5058L31.1194 47.5788H23.8805ZM53.3887 38.9898C53.3887 40.3226 52.3044 41.4068 50.9717 41.4068H13.4929L14.6755 39.3585C14.8893 38.9882 14.9886 38.5835 14.9865 38.1842H34.456C34.901 38.1842 35.2617 37.8235 35.2617 37.3785C35.2617 36.9336 34.901 36.5728 34.456 36.5728H14.5125L15.8908 34.1858C16.9949 34.5116 18.1627 34.6873 19.3708 34.6873C26.1622 34.6873 31.6873 29.1621 31.6873 22.3708C31.6873 15.5794 26.1621 10.0543 19.3708 10.0543C17.0103 10.0543 14.7616 10.7181 12.838 11.9247V8.05664H42.162V36.5728H38.2158C37.7707 36.5728 37.4101 36.9336 37.4101 37.3785C37.4101 37.8235 37.7707 38.1842 38.2158 38.1842H50.542C51.2232 38.1842 51.7773 37.63 51.7773 36.9488V9.08145C51.7773 8.40028 51.2232 7.84609 50.542 7.84609H43.7733V6.23477H50.9717C52.3044 6.23477 53.3887 7.31897 53.3887 8.65176V38.9898ZM15.255 3.22266C14.81 3.22266 14.4493 3.58338 14.4493 4.02832C14.4493 4.47326 14.81 4.83398 15.255 4.83398C15.6999 4.83398 16.0606 4.47326 16.0606 4.02832C16.0606 3.58338 15.6999 3.22266 15.255 3.22266ZM18.4776 3.22266C18.0327 3.22266 17.672 3.58338 17.672 4.02832C17.672 4.47326 18.0327 4.83398 18.4776 4.83398C18.9226 4.83398 19.2833 4.47326 19.2833 4.02832C19.2833 3.58338 18.9226 3.22266 18.4776 3.22266ZM39.745 16.6752H33.5156C33.0706 16.6752 32.71 17.0359 32.71 17.4809C32.71 17.9258 33.0706 18.2865 33.5156 18.2865H39.745C40.1901 18.2865 40.5507 17.9258 40.5507 17.4809C40.5507 17.0359 40.1901 16.6752 39.745 16.6752ZM39.745 21.5092H34.2676C33.8225 21.5092 33.4619 21.8699 33.4619 22.3149C33.4619 22.7598 33.8225 23.1205 34.2676 23.1205H39.745C40.1901 23.1205 40.5507 22.7598 40.5507 22.3149C40.5507 21.8699 40.1901 21.5092 39.745 21.5092ZM19.3708 30.2933C23.7394 30.2933 27.2934 26.7392 27.2934 22.3708C27.2934 18.0023 23.7394 14.4482 19.3708 14.4482C15.0022 14.4482 11.4482 18.0023 11.4482 22.3708C11.4482 26.7392 15.0022 30.2933 19.3708 30.2933ZM19.3708 16.0595C22.8509 16.0595 25.6821 18.8907 25.6821 22.3707C25.6821 25.8508 22.8509 28.6819 19.3708 28.6819C15.8908 28.6819 13.0595 25.8506 13.0595 22.3707C13.0595 18.8907 15.8908 16.0595 19.3708 16.0595ZM39.745 26.3432H33.4082C32.9632 26.3432 32.6025 26.7039 32.6025 27.1488C32.6025 27.5938 32.9632 27.9545 33.4082 27.9545H39.745C40.1901 27.9545 40.5507 27.5938 40.5507 27.1488C40.5507 26.7039 40.1901 26.3432 39.745 26.3432ZM40.5507 12.6469C40.5507 12.2019 40.1901 11.8412 39.745 11.8412H30.5626C30.1175 11.8412 29.7569 12.2019 29.7569 12.6469C29.7569 13.0918 30.1175 13.4525 30.5626 13.4525H39.745C40.1901 13.4525 40.5507 13.0918 40.5507 12.6469ZM40.5507 31.9828C40.5507 31.5379 40.1901 31.1772 39.745 31.1772H30.5626C30.1175 31.1772 29.7569 31.5379 29.7569 31.9828C29.7569 32.4278 30.1175 32.7885 30.5626 32.7885H39.745C40.1901 32.7885 40.5507 32.4278 40.5507 31.9828Z" fill="#B961FF"/>
</svg>
