<svg width="151" height="219" viewBox="0 0 151 219" fill="none" xmlns="http://www.w3.org/2000/svg">
<path d="M122.775 136.972H56.4412V140.981H122.775V136.972Z" fill="white"/>
<path fill-rule="evenodd" clip-rule="evenodd" d="M56.0322 136.972C56.0322 136.747 56.2153 136.565 56.4412 136.565H122.775C123.001 136.565 123.184 136.747 123.184 136.972V140.981C123.184 141.205 123.001 141.387 122.775 141.387H56.4412C56.2153 141.387 56.0322 141.205 56.0322 140.981V136.972ZM56.8501 137.378V140.575H122.366V137.378H56.8501Z" fill="#3F4D90"/>
<path d="M131.479 128.364C131.479 91.5342 149.896 71.2676 149.896 71.2676H95.1509C95.1509 71.2676 76.7341 91.5342 76.7341 128.364H131.479Z" fill="white"/>
<path fill-rule="evenodd" clip-rule="evenodd" d="M94.9328 70.7803H151L150.26 71.594L150.258 71.5965L150.249 71.6064C150.241 71.6154 150.229 71.6293 150.212 71.6481C150.179 71.6858 150.129 71.7432 150.063 71.82C149.931 71.9737 149.736 72.2055 149.488 72.5145C148.991 73.1325 148.278 74.0592 147.422 75.2872C145.708 77.7434 143.42 81.4046 141.131 86.2129C136.553 95.8286 131.97 110.032 131.97 128.364V128.851H76.2434V128.364C76.2434 109.866 80.8687 95.5213 85.4989 85.7963C87.8138 80.9342 90.1299 77.2269 91.8699 74.7322C92.74 73.4848 93.4661 72.5404 93.9762 71.9062C94.2312 71.5891 94.4323 71.3495 94.5704 71.1884C94.6394 71.1078 94.6927 71.0468 94.7291 71.0056C94.7473 70.985 94.7613 70.9693 94.771 70.9585L94.7821 70.9461L94.7852 70.9427L94.7861 70.9417C94.7864 70.9413 94.7866 70.9411 95.1509 71.2676L94.7866 70.9411L94.9328 70.7803ZM95.3739 71.7549C95.3567 71.7748 95.338 71.7965 95.3179 71.82C95.1861 71.9737 94.9915 72.2055 94.743 72.5145C94.246 73.1325 93.5333 74.0592 92.6767 75.2872C90.9636 77.7434 88.6755 81.4046 86.3862 86.2129C81.8487 95.7432 77.3063 109.78 77.226 127.876H130.989C131.07 109.614 135.654 95.4357 140.244 85.7963C142.559 80.9342 144.875 77.2269 146.615 74.7322C147.485 73.4848 148.211 72.5404 148.721 71.9062C148.763 71.8537 148.804 71.8032 148.843 71.7549H95.3739Z" fill="#D8BAA3"/>
<path d="M56.9793 128.364H131.479C131.479 130.647 130.566 132.837 128.94 134.452C127.314 136.066 125.109 136.973 122.81 136.973H48.3099C48.3099 134.69 49.2233 132.5 50.8491 130.885C52.475 129.271 54.6801 128.364 56.9793 128.364Z" fill="white"/>
<path fill-rule="evenodd" clip-rule="evenodd" d="M56.9793 128.851C54.8102 128.851 52.7299 129.707 51.1961 131.23C49.7784 132.638 48.9349 134.51 48.8153 136.486H122.81C124.979 136.486 127.059 135.63 128.593 134.107C130.011 132.699 130.854 130.828 130.974 128.851H56.9793ZM50.5021 130.541C52.22 128.835 54.5499 127.876 56.9793 127.876H131.97V128.364C131.97 130.776 131.005 133.09 129.287 134.796C127.569 136.502 125.239 137.461 122.81 137.461H47.8192V136.973C47.8192 134.561 48.7843 132.247 50.5021 130.541Z" fill="#D8BAA3"/>
<path d="M122.09 217.351C121.873 217.351 121.662 217.276 121.495 217.139C121.327 217.002 121.213 216.811 121.172 216.599L106.596 140.982H114.952L123.019 216.324C123.033 216.454 123.019 216.585 122.979 216.709C122.939 216.832 122.873 216.947 122.785 217.043C122.697 217.14 122.59 217.218 122.47 217.271C122.351 217.324 122.221 217.351 122.09 217.351Z" fill="white"/>
<path fill-rule="evenodd" clip-rule="evenodd" d="M106.281 140.724C106.359 140.63 106.474 140.576 106.596 140.576H114.952C115.161 140.576 115.336 140.733 115.358 140.939L123.426 216.281C123.446 216.467 123.426 216.655 123.368 216.833C123.31 217.011 123.215 217.176 123.089 217.315C122.963 217.454 122.809 217.565 122.637 217.642C122.465 217.718 122.278 217.757 122.09 217.757C121.778 217.757 121.475 217.649 121.235 217.452C120.994 217.255 120.83 216.98 120.771 216.676L120.771 216.675L106.195 141.059C106.172 140.94 106.203 140.817 106.281 140.724ZM122.09 217.351L122.09 217.757C122.09 217.757 122.09 217.757 122.09 217.757C122.09 217.757 122.09 217.757 122.09 217.757L122.09 217.351ZM121.574 216.522C121.574 216.522 121.574 216.522 121.574 216.522L121.172 216.599L121.574 216.522ZM114.584 141.388H114.952V140.982L114.545 141.025L114.584 141.388ZM107.091 141.388H106.596V140.982L106.998 140.906L107.091 141.388Z" fill="#3F4D90"/>
<path d="M57.2639 217.351C57.4811 217.351 57.6915 217.276 57.859 217.139C58.0264 217.002 58.1405 216.811 58.1816 216.599L72.7577 140.982H64.404L56.3348 216.324C56.3208 216.454 56.3344 216.585 56.3747 216.709C56.4151 216.832 56.4812 216.947 56.5688 217.043C56.6565 217.14 56.7637 217.218 56.8834 217.271C57.0032 217.324 57.1328 217.351 57.2639 217.351Z" fill="white"/>
<path fill-rule="evenodd" clip-rule="evenodd" d="M63.9973 140.939C64.0194 140.733 64.1948 140.576 64.404 140.576H72.7577C72.8796 140.576 72.9952 140.63 73.0728 140.724C73.1505 140.817 73.1822 140.94 73.1593 141.059L58.5831 216.676C58.5241 216.98 58.3601 217.255 58.1193 217.452C57.8785 217.649 57.5761 217.757 57.2639 217.757C57.0755 217.757 56.8892 217.718 56.717 217.642C56.5448 217.565 56.3907 217.454 56.2647 217.315C56.1387 217.176 56.0436 217.011 55.9856 216.833C55.9277 216.655 55.9081 216.467 55.9282 216.281L63.9973 140.939ZM57.2639 217.351L57.2637 217.757C57.2638 217.757 57.2639 217.757 57.2639 217.757C57.264 217.757 57.2641 217.757 57.2641 217.757L57.2639 217.351ZM57.78 216.522C57.78 216.522 57.78 216.522 57.78 216.522L57.78 216.522L58.1816 216.599L57.78 216.522ZM72.263 141.388L72.356 140.906L72.7577 140.982V141.388H72.263ZM64.7717 141.388H64.404V140.982L64.8106 141.025L64.7717 141.388Z" fill="#3F4D90"/>
<path d="M41.0227 94.3187C63.4323 99.6793 74.66 93.6396 76.6949 89.9554C76.6949 89.9554 75.5744 83.0385 76.4021 72.3155C77.2297 61.5925 75.4893 37.5767 75.4893 37.5767C70.551 39.4626 63.3243 42.4809 61.1733 48.7675C59.0223 55.0541 58.6837 72.2781 58.5562 79.6418C58.5562 79.6418 47.0585 83.5583 41.9076 86.2322C41.3331 86.5297 40.8665 86.9981 40.5732 87.5719C40.28 88.1456 40.1746 88.7961 40.2719 89.4323L41.0227 94.3187Z" fill="#FFB000"/>
<path fill-rule="evenodd" clip-rule="evenodd" d="M63.29 79.2639C63.2902 79.264 63.2905 79.264 63.1395 79.6415C62.9886 80.0189 62.9888 80.019 62.989 80.0191L62.9893 80.0192L62.9884 80.0189C62.9862 80.018 62.9819 80.0164 62.9753 80.0141C62.9622 80.0094 62.9405 80.002 62.9102 79.9923C62.8495 79.973 62.7543 79.9451 62.6246 79.9137C62.3653 79.851 61.9677 79.7748 61.4321 79.7274C60.3616 79.6327 58.7359 79.6529 56.5572 80.1306L56.3808 79.3375C58.6398 78.8422 60.3494 78.8161 61.5047 78.9184C62.0821 78.9695 62.52 79.0525 62.818 79.1245C62.967 79.1605 63.0809 79.1937 63.1597 79.2188C63.199 79.2313 63.2296 79.2418 63.2514 79.2496C63.2623 79.2534 63.271 79.2567 63.2776 79.2591L63.2857 79.2622L63.2885 79.2633L63.2896 79.2637L63.29 79.2639Z" fill="white"/>
<path d="M42.2806 90.3941C42.4027 91.141 42.3129 91.9069 42.021 92.6059C41.7292 93.3049 41.247 93.9093 40.6285 94.3512L40.3717 94.5315C38.6165 95.7353 35.2502 96.7083 34.4519 96.6547C33.6537 96.6011 28.7465 95.6995 28.7465 95.6995C28.7465 95.6995 28.5714 95.0351 29.2895 94.1595C30.0076 93.284 35.2682 93.9792 33.3445 92.0575C32.489 91.203 28.2279 93.1313 26.3746 95.269C24.5214 97.4068 23.6413 95.7125 23.6413 95.7125C23.6413 95.7125 25.4161 91.7521 26.0491 91.0357C26.6822 90.3193 30.9155 87.2767 33.7764 86.8121C35.1406 86.5912 37.0577 86.7163 38.9617 87.0445C39.7968 87.1909 40.5653 87.5922 41.1601 88.1925C41.7549 88.7929 42.1466 89.5624 42.2806 90.3941Z" fill="#C36F0B"/>
<path d="M54.5388 210.337C56.348 209.931 58.849 209.06 60.2427 207.226L61.0343 202.984C61.0343 202.984 55.8327 203.572 51.0809 203.121L52.0018 208.672C52.0526 208.949 52.1595 209.214 52.316 209.449C52.4725 209.685 52.6753 209.886 52.9124 210.042C53.1494 210.198 53.4157 210.304 53.6953 210.354C53.9748 210.405 54.2617 210.399 54.5388 210.337Z" fill="#C36F0B"/>
<path d="M33.3691 215.53C33.3969 215.845 33.9694 217.349 33.9694 217.349L63.2279 216.365V214.74C63.2279 212.021 62.2971 209.673 61.8048 208.653C61.0458 207.079 59.9924 207.472 59.9924 207.472C59.9924 207.472 57.1315 210.25 53.9221 210.25C53.3038 210.25 52.8606 209.925 52.5432 209.451C52.354 209.157 52.2065 208.839 52.1048 208.506C51.9715 208.071 51.8774 207.625 51.8235 207.173C51.7994 206.983 51.7293 206.8 51.6192 206.642C51.509 206.484 51.3621 206.354 51.1907 206.265C51.0194 206.175 50.8288 206.127 50.6352 206.126C50.4415 206.125 50.2504 206.171 50.0782 206.259C48.8186 206.909 47.2892 208.341 43.1933 210.538C42.9889 210.648 42.7762 210.76 42.557 210.876C37.5762 213.478 33.4247 212.51 33.3691 215.53Z" fill="#FFB000"/>
<path d="M36.6618 218.787C35.8145 218.787 34.7807 218.406 34.2262 217.789C33.8813 217.388 33.6334 216.914 33.5016 216.403C33.3697 215.892 33.3574 215.357 33.4656 214.841H33.4885C33.6059 215.455 33.9321 216.011 34.4126 216.416C34.8931 216.82 35.4989 217.049 36.1286 217.063L61.494 216.326C62.2808 216.326 62.9547 215.785 63.2295 215.026V216.719C63.2295 217.864 62.3936 218.791 61.3615 218.791L36.6618 218.787Z" fill="#3F4D79"/>
<path d="M42.0925 211.113C43.5877 211.382 44.9764 212.064 46.0988 213.081C47.2212 214.098 48.0318 215.409 48.4375 216.864L49.6054 216.823C49.2352 215.324 48.4898 213.943 47.4383 212.807C46.3868 211.671 45.0633 210.817 43.5908 210.325L43.195 210.538C42.9905 210.648 42.7778 210.761 42.5587 210.876C42.4038 210.959 42.2484 211.038 42.0925 211.113Z" fill="#3F4D79"/>
<path d="M39.1989 212.227V212.378C40.6867 212.38 42.1418 212.812 43.3863 213.622C44.6308 214.431 45.6107 215.584 46.2064 216.938L47.4201 216.897C46.913 215.566 46.087 214.379 45.0136 213.436C43.9402 212.494 42.6518 211.826 41.2599 211.489C40.5863 211.771 39.8984 212.017 39.1989 212.227Z" fill="#3F4D79"/>
<path d="M90.0867 210.337C91.8958 209.93 94.2317 209.06 95.6253 207.226L96.0915 202.632C96.0915 202.632 91.2121 203.056 86.4603 202.603L87.5513 208.671C87.6019 208.949 87.7086 209.214 87.8649 209.449C88.0212 209.685 88.224 209.886 88.4609 210.042C88.6978 210.197 88.964 210.304 89.2434 210.354C89.5228 210.405 89.8097 210.399 90.0867 210.337Z" fill="#C36F0B"/>
<path d="M70.5723 215.53C70.6001 215.845 71.1726 217.349 71.1726 217.349L98.7774 216.365V214.741C98.7774 212.021 97.8466 209.674 97.3559 208.654C96.5953 207.08 95.5435 207.145 95.5435 207.145C95.5435 207.145 92.681 210.251 89.4716 210.251C88.8533 210.251 88.4101 209.926 88.0944 209.451C87.9045 209.158 87.757 208.84 87.656 208.506C87.5219 208.071 87.4277 207.625 87.3746 207.174C87.3503 206.983 87.28 206.801 87.1697 206.642C87.0593 206.484 86.9122 206.355 86.7408 206.265C86.5694 206.175 86.3787 206.128 86.1849 206.127C85.9912 206.126 85.8 206.171 85.6277 206.259C84.3681 206.909 84.4925 208.342 80.3933 210.538C80.1888 210.649 79.9762 210.761 79.757 210.876C74.7778 213.478 70.6263 212.51 70.5723 215.53Z" fill="#FFC033"/>
<path d="M73.8635 218.787C73.0161 218.787 71.9824 218.407 71.4278 217.79C71.0829 217.388 70.835 216.914 70.7032 216.403C70.5714 215.892 70.5591 215.358 70.6672 214.841H70.6901C70.8075 215.456 71.1338 216.012 71.6143 216.416C72.0948 216.821 72.7005 217.049 73.3302 217.064L97.0484 216.326C97.8352 216.326 98.5075 215.785 98.7823 215.026V216.719C98.7823 217.864 97.9464 218.792 96.9143 218.792L73.8635 218.787Z" fill="#3F4D79"/>
<path d="M79.2941 211.114C80.7894 211.382 82.178 212.064 83.3004 213.081C84.4228 214.099 85.2334 215.41 85.6391 216.864L86.807 216.823C86.4368 215.325 85.6914 213.944 84.6399 212.808C83.5884 211.672 82.265 210.818 80.7924 210.326L80.3966 210.538C80.1921 210.649 79.9795 210.761 79.7603 210.876C79.6054 210.96 79.45 211.039 79.2941 211.114Z" fill="#3F4D79"/>
<path d="M76.4005 212.228V212.379C77.8883 212.381 79.3434 212.813 80.5879 213.623C81.8324 214.432 82.8123 215.585 83.408 216.939L84.6217 216.898C84.1145 215.567 83.2886 214.38 82.2152 213.437C81.1418 212.495 79.8534 211.827 78.4615 211.49C77.7879 211.772 77.1 212.018 76.4005 212.228Z" fill="#3F4D79"/>
<path d="M97.598 136.616C97.598 136.616 109.408 153.323 99.0423 202.081C99.0423 202.081 93.6101 203.891 84.9521 202.568C84.9521 202.568 73.2304 155.159 71.6355 134.616C68.7599 134.532 65.7812 134.48 62.7109 134.48C62.7109 134.48 75.0984 159.625 63.0741 202.97C63.0741 202.97 54.2166 203.598 49.5596 202.939C49.5596 202.939 35.2649 132.069 36.1891 125.479C37.2948 117.546 62.4558 107.418 78.2832 105.99L113.707 105.772C113.707 105.772 122.787 114.869 118.997 127.776C116.154 137.459 97.598 136.616 97.598 136.616Z" fill="#D8BAA3"/>
<path d="M116.288 109.116C116.403 109.461 116.579 109.783 116.808 110.066C116.808 110.066 85.7667 120.56 72.7037 107.358C86.897 112.292 110.188 109.875 116.288 109.116Z" fill="#F0E1D4"/>
<path d="M103.186 29.0322C104.799 30.348 124.676 41.789 127.524 43.3615C130.372 44.934 114.238 79.4454 114.741 91.7587C115.113 100.898 117.639 108.916 117.639 108.916C117.639 108.916 89.1625 113.08 72.7037 107.358C72.7037 107.358 76.1224 102.322 74.2233 91.8935C72.6841 83.4318 69.5516 59.9422 70.4251 50.9054C70.7424 47.6354 71.3117 39.5262 75.4959 37.5768C81.8262 34.6252 86.1936 32.0537 86.1936 32.0537L103.186 29.0322Z" fill="#FFB000"/>
<path fill-rule="evenodd" clip-rule="evenodd" d="M72.0454 75.1437C72.7122 81.7884 73.8544 88.0771 74.6241 92.3086L73.8193 92.453C73.0497 88.2228 71.9019 81.9049 71.2315 75.2243C70.5618 68.5502 70.3645 61.48 71.5126 55.7515L72.3147 55.91C71.1907 61.5185 71.3779 68.4925 72.0454 75.1437Z" fill="white"/>
<path d="M127.524 43.4555C136.007 50.8744 136.815 81.5293 131.45 87.1158C120.942 98.0549 89.2231 97.9314 89.2231 97.9314C89.2231 97.9314 85.9041 97.4554 87.8032 89.7864C87.8032 89.7864 111.319 77.9929 113.597 78.0628C113.597 78.0628 113.218 56.1847 118.028 49.6479C122.839 43.1111 126.526 42.5832 127.524 43.4555Z" fill="#FFB000"/>
<path fill-rule="evenodd" clip-rule="evenodd" d="M115.986 95.2354C116.042 95.4527 115.909 95.6737 115.69 95.729C109.43 97.3095 102.81 98.0021 97.7614 98.3003C95.2358 98.4495 93.1003 98.5002 91.5955 98.5136C90.8431 98.5203 90.2482 98.5176 89.8409 98.5133C89.6373 98.5112 89.4805 98.5086 89.3744 98.5065C89.3214 98.5055 89.281 98.5046 89.2537 98.504L89.2227 98.5032L89.212 98.5029C89.2119 98.5029 89.2118 98.5029 89.2231 98.097C89.2343 97.691 89.2344 97.691 89.2344 97.691L89.2437 97.6913L89.273 97.692C89.2992 97.6926 89.3384 97.6935 89.3903 97.6945C89.4941 97.6965 89.6485 97.699 89.8497 97.7011C90.252 97.7054 90.8415 97.708 91.5882 97.7014C93.0817 97.6881 95.2032 97.6378 97.7128 97.4895C102.735 97.1928 109.298 96.5046 115.489 94.9418C115.708 94.8866 115.93 95.018 115.986 95.2354ZM88.8143 98.0858C88.8205 97.8616 89.0086 97.6848 89.2344 97.691L89.2231 98.097L89.2118 98.5029C88.986 98.4967 88.808 98.31 88.8143 98.0858Z" fill="white"/>
<path fill-rule="evenodd" clip-rule="evenodd" d="M114.006 77.9116C114.006 77.9117 114.006 77.9118 113.597 77.8985L114.006 77.9116C114 78.0779 113.893 78.2242 113.736 78.2806C107.108 80.651 100.675 83.5749 95.8955 85.9078C93.5065 87.0739 91.5324 88.0917 90.1559 88.8176C89.4677 89.1806 88.929 89.4706 88.5626 89.6697C88.3794 89.7692 88.2393 89.846 88.1452 89.8979C88.0981 89.9238 88.0625 89.9435 88.0388 89.9566L88.0121 89.9714L88.0039 89.976L88.0035 89.9762C88.0035 89.9762 88.0034 89.9763 87.8033 89.6221C87.6031 89.268 87.6032 89.268 87.6033 89.2679L87.6403 89.2474C87.6646 89.2339 87.7009 89.2138 87.7486 89.1875C87.844 89.135 87.9855 89.0574 88.1701 88.9571C88.5392 88.7565 89.0809 88.4649 89.7723 88.1003C91.1551 87.371 93.1369 86.3493 95.5347 85.1789C100.267 82.8692 106.624 79.9772 113.198 77.6099C113.202 77.4924 113.208 77.3389 113.215 77.1532C113.233 76.6844 113.26 76.0094 113.297 75.1842C113.371 73.5339 113.484 71.2817 113.64 68.8753C113.952 64.0838 114.442 58.6146 115.155 56.105L115.942 56.3257C115.257 58.7349 114.771 64.1073 114.457 68.9277C114.3 71.3271 114.188 73.5735 114.114 75.2202C114.077 76.0435 114.05 76.7167 114.032 77.1839C114.023 77.4175 114.017 77.5996 114.012 77.7233C114.011 77.761 114.01 77.7933 114.009 77.82C114.008 77.837 114.008 77.8517 114.008 77.864L114.006 77.9088L114.006 77.9111L114.006 77.9116Z" fill="white"/>
<path d="M88.289 89.6695C88.289 89.6695 81.1899 87.007 78.895 88.3456C76.3841 89.8076 71.7354 94.4811 71.4638 95.2673C71.1923 96.0536 71.2757 96.8739 71.3248 97.7186C71.3739 98.5633 79.8797 98.5487 80.8873 98.4902C81.8949 98.4318 87.4188 99.0247 88.3512 98.0191C91.7764 94.3333 88.289 89.6695 88.289 89.6695Z" fill="#C36F0B"/>
<path d="M101.761 17.9941C101.761 17.9941 99.8619 22.705 103.186 29.0404C103.186 29.0404 98.6269 35.4878 91.4084 35.4472C82.0847 35.3969 86.1855 32.0537 86.1855 32.0537C86.1855 32.0537 87.6102 29.7893 87.3305 25.7346L101.761 17.9941Z" fill="#B65A18"/>
<path d="M100.304 20.7933C100.114 21.6738 100.086 25.475 98.5042 26.5439C96.4563 27.9279 90.4302 30.0982 85.873 28.464C85.2891 28.2544 82.3905 19.7878 82.5803 16.8963C82.77 14.0048 82.8338 3.75775 89.2868 1.17975C95.7398 -1.39825 103.465 0.0426326 105.618 7.59144C106.498 10.6779 105.772 13.4395 104.606 15.6341C104.606 15.6341 105.351 16.9629 104.156 18.2868C102.855 19.7309 100.304 20.7933 100.304 20.7933Z" fill="#C36F0B"/>
<path d="M104.609 15.632C103.091 13.9279 101 16.9575 101 16.9575L100.971 17.12C100.399 16.813 99.9125 16.3705 99.5544 15.8318C98.6809 14.5192 98.6089 13.0588 98.725 7.807C98.725 7.807 90.2503 8.69557 84.1048 7.22869C85.0486 4.60846 86.6255 2.23839 89.2901 1.17438C95.7464 -1.40362 103.47 0.0372615 105.621 7.58607C106.501 10.6709 105.775 13.4373 104.609 15.632Z" fill="#722D54"/>
<path d="M93.3729 32.9551C94.5539 32.4109 99.4497 30.6402 102.909 27.1606C102.909 27.1606 106.362 30.4859 106.393 31.0772C106.424 31.6685 99.08 36.6133 97.0124 36.8229L93.3729 32.9551Z" fill="#F0E1D4"/>
<path d="M86.1937 30.2842C86.5208 30.8706 87.3485 32.2546 89.7121 32.8833C89.7121 32.8833 87.9815 35.6903 86.3769 36.5708C86.3769 36.5708 83.7597 35.4337 83.0481 33.9522C82.577 32.9759 86.1937 30.2842 86.1937 30.2842Z" fill="#F0E1D4"/>
<path d="M89.7121 32.8838L91.41 35.4391L93.3729 32.9553L95.1722 34.8656C95.1722 34.8656 92.663 36.0531 87.975 35.2019L89.7121 32.8838Z" fill="#D8BAA3"/>
<path d="M0 98.1167H89.1118C89.9795 98.1167 90.8116 98.459 91.4251 99.0683C92.0386 99.6776 92.3833 100.504 92.3833 101.366V102.227C92.3833 103.088 92.0386 103.915 91.4251 104.524C90.8116 105.133 89.9795 105.475 89.1118 105.475H0.163574" fill="white"/>
<path fill-rule="evenodd" clip-rule="evenodd" d="M89.1118 98.6041H0V97.6294H89.1118C90.1096 97.6294 91.0665 98.023 91.7721 98.7237C92.4776 99.4244 92.874 100.375 92.874 101.366V102.227C92.874 103.217 92.4776 104.168 91.7721 104.868C91.0665 105.569 90.1096 105.963 89.1118 105.963H0.163574V104.988H89.1118C89.8493 104.988 90.5566 104.697 91.0781 104.179C91.5996 103.661 91.8926 102.959 91.8926 102.227V101.366C91.8926 100.633 91.5996 99.9308 91.0781 99.4129C90.5566 98.895 89.8493 98.6041 89.1118 98.6041Z" fill="#D8BAA3"/>
<path d="M70.3303 219V105.592H77.4474V218.997" fill="white"/>
<path d="M70.3303 107.847V105.592H77.4474V113.43L70.3303 107.847Z" fill="#F0E1D4"/>
<path fill-rule="evenodd" clip-rule="evenodd" d="M69.8395 105.105H77.9381V218.833H76.9566V106.08H70.821V218.836H69.8395V105.105Z" fill="#D8BAA3"/>
<path d="M73.2533 98.1164H37.622C37.064 98.1164 36.5173 97.9596 36.0452 97.6641C35.5731 97.3686 35.1949 96.9465 34.9541 96.4465L23.4369 72.5476C23.3262 72.3182 23.276 72.0646 23.2908 71.8107C23.3056 71.5568 23.3851 71.3107 23.5217 71.0956C23.6583 70.8804 23.8476 70.7031 24.0719 70.5804C24.2962 70.4576 24.5482 70.3933 24.8044 70.3936H60.4357C60.9937 70.3936 61.5403 70.5504 62.0124 70.8459C62.4845 71.1414 62.8628 71.5635 63.1035 72.0635L74.6208 95.9657C74.7307 96.1949 74.7803 96.4481 74.7652 96.7016C74.75 96.9551 74.6704 97.2006 74.5339 97.4153C74.3974 97.63 74.2084 97.8069 73.9844 97.9295C73.7605 98.0521 73.509 98.1164 73.2533 98.1164Z" fill="white"/>
<path fill-rule="evenodd" clip-rule="evenodd" d="M24.804 70.8C24.617 70.7998 24.433 70.8468 24.2693 70.9364C24.1055 71.026 23.9673 71.1554 23.8676 71.3125C23.7679 71.4696 23.7099 71.6492 23.6991 71.8346C23.6882 72.02 23.7249 72.205 23.8057 72.3725L35.323 96.2715C35.5304 96.7023 35.8565 97.0662 36.2633 97.3208C36.6701 97.5755 37.1411 97.7106 37.622 97.7106H73.2533C73.4399 97.7106 73.6235 97.6637 73.787 97.5742C73.9505 97.4847 74.0885 97.3556 74.1881 97.1988C74.2878 97.0421 74.3458 96.8628 74.3569 96.6778C74.368 96.4929 74.3318 96.3083 74.2518 96.141C74.2517 96.1408 74.2516 96.1407 74.2516 96.1405L62.7347 72.2391C62.5272 71.8083 62.2012 71.4445 61.7944 71.1898C61.3876 70.9352 60.9165 70.8 60.4357 70.8L24.804 70.8ZM24.8045 69.9878C24.4793 69.9875 24.1593 70.0692 23.8745 70.225C23.5896 70.3809 23.3492 70.6061 23.1757 70.8793C23.0023 71.1526 22.9014 71.4651 22.8826 71.7875C22.8637 72.11 22.9275 72.4319 23.068 72.7232C23.068 72.7232 23.068 72.7233 23.068 72.7232L34.5852 96.622C34.5852 96.622 34.5852 96.6221 34.5852 96.622C34.8592 97.1911 35.2898 97.6716 35.8272 98.008C36.3645 98.3443 36.9868 98.5228 37.622 98.5229H73.2533C73.5781 98.5228 73.8975 98.4412 74.1819 98.2855C74.4662 98.1298 74.7063 97.9051 74.8797 97.6325C75.053 97.3598 75.1541 97.048 75.1734 96.726C75.1927 96.4041 75.1296 96.0826 74.99 95.7914L63.4725 71.8886C63.4725 71.8887 63.4725 71.8886 63.4725 71.8886C63.1984 71.3196 62.7678 70.839 62.2305 70.5027C61.6931 70.1663 61.0709 69.9878 60.4357 69.9878H24.8045Z" fill="#3F4D90"/>
<path d="M73.196 97.758H38.1389C37.6166 97.7391 37.1094 97.5786 36.6723 97.294C36.2352 97.0094 35.8849 96.6115 35.6591 96.1433L30.5883 85.6088L30.6652 85.4756H69.1051L69.1688 85.6072L74.0188 95.6787C74.7533 96.8548 74.274 97.758 73.196 97.758Z" fill="#F0E1D4"/>
<path d="M69.5189 85.4233L63.0005 96.7263C62.5098 97.5775 61.4711 98.12 60.331 98.12H24.6997C23.5841 98.12 22.8513 97.1551 23.3322 96.3201L29.62 85.4233H69.5189Z" fill="white"/>
<path fill-rule="evenodd" clip-rule="evenodd" d="M29.2651 85.2213C29.338 85.095 29.4734 85.0171 29.62 85.0171H69.5189C69.6647 85.0171 69.7996 85.0942 69.8727 85.2195C69.9458 85.3448 69.9462 85.4993 69.8738 85.625L63.3554 96.9279C63.3554 96.9279 63.3553 96.9279 63.3553 96.928C62.7793 97.9272 61.5907 98.526 60.331 98.526H24.6996C24.0237 98.526 23.4365 98.2328 23.0908 97.7777C22.7397 97.3154 22.6476 96.6906 22.9772 96.1184L22.9774 96.1181L29.2651 85.2213ZM29.8569 85.8293L23.6871 96.5216C23.6871 96.5217 23.687 96.5218 23.687 96.5219M29.8569 85.8293H68.8134H29.8569Z" fill="#3F4D90"/>
</svg>
