<svg width="59" height="59" viewBox="0 0 59 59" fill="none" xmlns="http://www.w3.org/2000/svg">
<path d="M4.60938 51.625H48.1506L50.0646 55.6019C50.3861 56.261 50.9562 56.7656 51.6495 57.0046C52.3429 57.2436 53.1028 57.1974 53.7621 56.8763C54.4208 56.5554 54.9252 55.9861 55.1645 55.2936C55.4039 54.6011 55.3586 53.8419 55.0387 53.1827L54.2891 51.625H54.3906C55.1239 51.6241 55.8268 51.3325 56.3453 50.814C56.8637 50.2956 57.1554 49.5926 57.1562 48.8594V4.60938C57.1554 3.87615 56.8637 3.1732 56.3453 2.65473C55.8268 2.13626 55.1239 1.8446 54.3906 1.84375H4.60938C3.87615 1.8446 3.1732 2.13626 2.65473 2.65473C2.13626 3.1732 1.8446 3.87615 1.84375 4.60938V48.8594C1.8446 49.5926 2.13626 50.2956 2.65473 50.814C3.1732 51.3325 3.87615 51.6241 4.60938 51.625ZM53.4227 54.6902C53.3634 54.8623 53.2545 55.0129 53.1097 55.1231C52.965 55.2334 52.7909 55.2984 52.6093 55.3099C52.4277 55.3213 52.2468 55.2788 52.0893 55.1877C51.9318 55.0965 51.8048 54.9608 51.7243 54.7976L47.781 46.6045L49.4384 45.7968L53.3794 53.9858C53.4329 54.0945 53.4642 54.2128 53.4716 54.3337C53.479 54.4546 53.4624 54.5758 53.4227 54.6902ZM46.1819 43.282L47.8393 42.4742L48.6389 44.1357L46.9811 44.9437L46.1819 43.282ZM54.3906 49.7812H53.4017L50.7765 44.3267C50.761 44.2662 50.7394 44.2073 50.7119 44.1511C50.686 44.0984 50.6551 44.0482 50.6197 44.0013L49.0986 40.8403C49.0459 40.7309 48.9722 40.633 48.8815 40.5521C48.7909 40.4713 48.6852 40.4092 48.5705 40.3693C48.4558 40.3295 48.3343 40.3127 48.2131 40.3199C48.0919 40.3271 47.9733 40.3582 47.8641 40.4114L47.0354 40.8147L46.2896 39.2844C47.882 38.4975 49.2947 37.3903 50.4393 36.0322C51.5839 34.674 52.4359 33.0942 52.9417 31.3916C53.4476 29.689 53.5965 27.9003 53.3791 26.1375C53.1617 24.3747 52.5827 22.6758 51.6784 21.1471C50.7741 19.6184 49.5639 18.2928 48.1236 17.2535C46.6833 16.2141 45.044 15.4833 43.3082 15.1067C41.5724 14.7302 39.7776 14.7161 38.0361 15.0653C36.2946 15.4145 34.6439 16.1194 33.1875 17.136V13.8281C33.1875 13.5836 33.0904 13.3491 32.9175 13.1763C32.7446 13.0034 32.5101 12.9062 32.2656 12.9062H6.45312C6.20863 12.9062 5.97415 13.0034 5.80126 13.1763C5.62838 13.3491 5.53125 13.5836 5.53125 13.8281V24.8906C5.53125 25.1351 5.62838 25.3696 5.80126 25.5425C5.97415 25.7154 6.20863 25.8125 6.45312 25.8125H27.7976C27.4723 27.9897 27.7092 30.214 28.4859 32.2739C29.2626 34.3338 30.5532 36.1607 32.2351 37.5812C33.9169 39.0016 35.9341 39.9682 38.0949 40.3892C40.2557 40.8102 42.4883 40.6715 44.5804 39.9863L45.3779 41.6227L44.5491 42.026C44.3301 42.1328 44.1623 42.322 44.0824 42.5522C44.0026 42.7825 44.0171 43.0349 44.1228 43.2545L47.2633 49.7812H4.60938C4.36496 49.781 4.13064 49.6838 3.95781 49.5109C3.78499 49.3381 3.68777 49.1038 3.6875 48.8594V11.0625H55.3125V48.8594C55.3122 49.1038 55.215 49.3381 55.0422 49.5109C54.8694 49.6838 54.635 49.781 54.3906 49.7812ZM28.2133 23.9688H7.375V22.125H23.0469C23.2914 22.125 23.5259 22.0279 23.6987 21.855C23.8716 21.6821 23.9688 21.4476 23.9688 21.2031C23.9688 20.9586 23.8716 20.7241 23.6987 20.5513C23.5259 20.3784 23.2914 20.2812 23.0469 20.2812H7.375V18.4375H13.8281C14.0726 18.4375 14.3071 18.3404 14.48 18.1675C14.6529 17.9946 14.75 17.7601 14.75 17.5156C14.75 17.2711 14.6529 17.0366 14.48 16.8638C14.3071 16.6909 14.0726 16.5938 13.8281 16.5938H7.375V14.75H31.3438V18.6987C29.8926 20.1788 28.8188 21.9864 28.2133 23.9688ZM40.5625 16.6587C42.7505 16.6587 44.8893 17.3075 46.7085 18.5231C48.5277 19.7387 49.9456 21.4664 50.7829 23.4878C51.6202 25.5092 51.8393 27.7335 51.4124 29.8794C50.9856 32.0253 49.932 33.9965 48.3849 35.5436C46.8378 37.0907 44.8666 38.1443 42.7207 38.5712C40.5748 38.998 38.3505 38.779 36.3291 37.9417C34.3077 37.1044 32.5799 35.6865 31.3644 33.8672C30.1488 32.048 29.5 29.9092 29.5 27.7212C29.5033 24.7883 30.6699 21.9764 32.7438 19.9025C34.8177 17.8286 37.6296 16.6621 40.5625 16.6587ZM4.60938 3.6875H54.3906C54.635 3.68777 54.8694 3.78499 55.0422 3.95781C55.215 4.13064 55.3122 4.36496 55.3125 4.60938V9.21875H3.6875V4.60938C3.68777 4.36496 3.78499 4.13064 3.95781 3.95781C4.13064 3.78499 4.36496 3.68777 4.60938 3.6875Z" fill="#B961FF"/>
<path d="M13.8281 7.375C14.3373 7.375 14.75 6.96226 14.75 6.45312C14.75 5.94399 14.3373 5.53125 13.8281 5.53125C13.319 5.53125 12.9062 5.94399 12.9062 6.45312C12.9062 6.96226 13.319 7.375 13.8281 7.375Z" fill="#B961FF"/>
<path d="M10.1406 7.375C10.6498 7.375 11.0625 6.96226 11.0625 6.45312C11.0625 5.94399 10.6498 5.53125 10.1406 5.53125C9.63149 5.53125 9.21875 5.94399 9.21875 6.45312C9.21875 6.96226 9.63149 7.375 10.1406 7.375Z" fill="#B961FF"/>
<path d="M6.45312 7.375C6.96226 7.375 7.375 6.96226 7.375 6.45312C7.375 5.94399 6.96226 5.53125 6.45312 5.53125C5.94399 5.53125 5.53125 5.94399 5.53125 6.45312C5.53125 6.96226 5.94399 7.375 6.45312 7.375Z" fill="#B961FF"/>
<path d="M6.45312 29.5H13.8281C14.0726 29.5 14.3071 29.4029 14.48 29.23C14.6529 29.0571 14.75 28.8226 14.75 28.5781C14.75 28.3336 14.6529 28.0991 14.48 27.9263C14.3071 27.7534 14.0726 27.6562 13.8281 27.6562H6.45312C6.20863 27.6562 5.97415 27.7534 5.80126 27.9263C5.62838 28.0991 5.53125 28.3336 5.53125 28.5781C5.53125 28.8226 5.62838 29.0571 5.80126 29.23C5.97415 29.4029 6.20863 29.5 6.45312 29.5Z" fill="#B961FF"/>
<path d="M5.53125 32.2656C5.53125 32.5101 5.62838 32.7446 5.80126 32.9175C5.97415 33.0904 6.20863 33.1875 6.45312 33.1875H23.0469C23.2914 33.1875 23.5259 33.0904 23.6987 32.9175C23.8716 32.7446 23.9688 32.5101 23.9688 32.2656C23.9688 32.0211 23.8716 31.7866 23.6987 31.6138C23.5259 31.4409 23.2914 31.3438 23.0469 31.3438H6.45312C6.20863 31.3438 5.97415 31.4409 5.80126 31.6138C5.62838 31.7866 5.53125 32.0211 5.53125 32.2656Z" fill="#B961FF"/>
<path d="M6.45312 36.875H13.8281C14.0726 36.875 14.3071 36.7779 14.48 36.605C14.6529 36.4321 14.75 36.1976 14.75 35.9531C14.75 35.7086 14.6529 35.4741 14.48 35.3013C14.3071 35.1284 14.0726 35.0312 13.8281 35.0312H6.45312C6.20863 35.0312 5.97415 35.1284 5.80126 35.3013C5.62838 35.4741 5.53125 35.7086 5.53125 35.9531C5.53125 36.1976 5.62838 36.4321 5.80126 36.605C5.97415 36.7779 6.20863 36.875 6.45312 36.875Z" fill="#B961FF"/>
<path d="M5.53125 39.6406C5.53125 39.8851 5.62838 40.1196 5.80126 40.2925C5.97415 40.4654 6.20863 40.5625 6.45312 40.5625H27.6562C27.9007 40.5625 28.1352 40.4654 28.3081 40.2925C28.481 40.1196 28.5781 39.8851 28.5781 39.6406C28.5781 39.3961 28.481 39.1616 28.3081 38.9888C28.1352 38.8159 27.9007 38.7188 27.6562 38.7188H6.45312C6.20863 38.7188 5.97415 38.8159 5.80126 38.9888C5.62838 39.1616 5.53125 39.3961 5.53125 39.6406Z" fill="#B961FF"/>
<path d="M6.45312 44.25H13.8281C14.0726 44.25 14.3071 44.1529 14.48 43.98C14.6529 43.8071 14.75 43.5726 14.75 43.3281C14.75 43.0836 14.6529 42.8491 14.48 42.6763C14.3071 42.5034 14.0726 42.4062 13.8281 42.4062H6.45312C6.20863 42.4062 5.97415 42.5034 5.80126 42.6763C5.62838 42.8491 5.53125 43.0836 5.53125 43.3281C5.53125 43.5726 5.62838 43.8071 5.80126 43.98C5.97415 44.1529 6.20863 44.25 6.45312 44.25Z" fill="#B961FF"/>
<path d="M5.53125 47.0156C5.53125 47.2601 5.62838 47.4946 5.80126 47.6675C5.97415 47.8404 6.20863 47.9375 6.45312 47.9375H35.9531C36.1976 47.9375 36.4321 47.8404 36.605 47.6675C36.7779 47.4946 36.875 47.2601 36.875 47.0156C36.875 46.7711 36.7779 46.5366 36.605 46.3638C36.4321 46.1909 36.1976 46.0938 35.9531 46.0938H6.45312C6.20863 46.0938 5.97415 46.1909 5.80126 46.3638C5.62838 46.5366 5.53125 46.7711 5.53125 47.0156Z" fill="#B961FF"/>
<path d="M40.5625 29.5C40.807 29.5 41.0415 29.4029 41.2144 29.23C41.3872 29.0571 41.4844 28.8226 41.4844 28.5781V26.7344C41.4844 26.4899 41.3872 26.2554 41.2144 26.0825C41.0415 25.9096 40.807 25.8125 40.5625 25.8125C40.318 25.8125 40.0835 25.9096 39.9106 26.0825C39.7378 26.2554 39.6406 26.4899 39.6406 26.7344V28.5781C39.6406 28.8226 39.7378 29.0571 39.9106 29.23C40.0835 29.4029 40.318 29.5 40.5625 29.5Z" fill="#B961FF"/>
<path d="M36.875 29.5C37.1195 29.5 37.354 29.4029 37.5269 29.23C37.6997 29.0571 37.7969 28.8226 37.7969 28.5781V26.7344C37.7969 26.4899 37.6997 26.2554 37.5269 26.0825C37.354 25.9096 37.1195 25.8125 36.875 25.8125C36.6305 25.8125 36.396 25.9096 36.2231 26.0825C36.0503 26.2554 35.9531 26.4899 35.9531 26.7344V28.5781C35.9531 28.8226 36.0503 29.0571 36.2231 29.23C36.396 29.4029 36.6305 29.5 36.875 29.5Z" fill="#B961FF"/>
<path d="M44.25 29.5C44.4945 29.5 44.729 29.4029 44.9019 29.23C45.0747 29.0571 45.1719 28.8226 45.1719 28.5781V24.8906C45.1719 24.6461 45.0747 24.4116 44.9019 24.2388C44.729 24.0659 44.4945 23.9688 44.25 23.9688C44.0055 23.9688 43.771 24.0659 43.5981 24.2388C43.4253 24.4116 43.3281 24.6461 43.3281 24.8906V28.5781C43.3281 28.8226 43.4253 29.0571 43.5981 29.23C43.771 29.4029 44.0055 29.5 44.25 29.5Z" fill="#B961FF"/>
<path d="M40.5596 36.9429C42.3829 36.9429 44.1652 36.4022 45.6812 35.3892C47.1972 34.3763 48.3788 32.9365 49.0766 31.252C49.7743 29.5675 49.9569 27.7139 49.6012 25.9256C49.2455 24.1374 48.3675 22.4947 47.0782 21.2055C45.7889 19.9162 44.1463 19.0382 42.3581 18.6825C40.5698 18.3268 38.7162 18.5094 37.0317 19.2071C35.3472 19.9049 33.9074 21.0864 32.8945 22.6025C31.8815 24.1185 31.3408 25.9008 31.3408 27.7241C31.3436 30.1682 32.3157 32.5114 34.044 34.2397C35.7722 35.9679 38.1155 36.9401 40.5596 36.9429ZM40.5596 20.3491C42.0182 20.3491 43.4441 20.7817 44.6569 21.592C45.8697 22.4024 46.815 23.5542 47.3732 24.9018C47.9314 26.2494 48.0774 27.7323 47.7929 29.1629C47.5083 30.5935 46.8059 31.9076 45.7745 32.939C44.7431 33.9704 43.429 34.6728 41.9984 34.9574C40.5678 35.242 39.0849 35.0959 37.7373 34.5377C36.3897 33.9795 35.2379 33.0343 34.4275 31.8215C33.6171 30.6086 33.1846 29.1828 33.1846 27.7241C33.1868 25.7688 33.9645 23.8943 35.3471 22.5117C36.7297 21.1291 38.6043 20.3514 40.5596 20.3491Z" fill="#B961FF"/>
</svg>
