<svg width="61" height="62" viewBox="0 0 61 62" fill="none" xmlns="http://www.w3.org/2000/svg">
<path d="M47.7656 3.45654H25.4219C24.6138 3.45654 23.8388 3.77755 23.2674 4.34895C22.696 4.92035 22.375 5.69534 22.375 6.50342C22.375 7.3115 22.696 8.08648 23.2674 8.65788C23.8388 9.22928 24.6138 9.55029 25.4219 9.55029H47.7656C48.5737 9.55029 49.3487 9.22928 49.9201 8.65788C50.4915 8.08648 50.8125 7.3115 50.8125 6.50342C50.8125 5.69534 50.4915 4.92035 49.9201 4.34895C49.3487 3.77755 48.5737 3.45654 47.7656 3.45654ZM47.7656 7.51904H25.4219C25.1525 7.51904 24.8942 7.41204 24.7037 7.22157C24.5133 7.03111 24.4062 6.77278 24.4062 6.50342C24.4062 6.23406 24.5133 5.97573 24.7037 5.78526C24.8942 5.5948 25.1525 5.48779 25.4219 5.48779H47.7656C48.035 5.48779 48.2933 5.5948 48.4838 5.78526C48.6742 5.97573 48.7812 6.23406 48.7812 6.50342C48.7812 6.77278 48.6742 7.03111 48.4838 7.22157C48.2933 7.41204 48.035 7.51904 47.7656 7.51904Z" fill="#B961FF"/>
<path d="M6.125 8.53467C7.24683 8.53467 8.15625 7.62525 8.15625 6.50342C8.15625 5.38159 7.24683 4.47217 6.125 4.47217C5.00317 4.47217 4.09375 5.38159 4.09375 6.50342C4.09375 7.62525 5.00317 8.53467 6.125 8.53467Z" fill="#B961FF"/>
<path d="M12.2188 8.53467C13.3406 8.53467 14.25 7.62525 14.25 6.50342C14.25 5.38159 13.3406 4.47217 12.2188 4.47217C11.0969 4.47217 10.1875 5.38159 10.1875 6.50342C10.1875 7.62525 11.0969 8.53467 12.2188 8.53467Z" fill="#B961FF"/>
<path d="M18.3125 8.53467C19.4343 8.53467 20.3438 7.62525 20.3438 6.50342C20.3438 5.38159 19.4343 4.47217 18.3125 4.47217C17.1907 4.47217 16.2812 5.38159 16.2812 6.50342C16.2812 7.62525 17.1907 8.53467 18.3125 8.53467Z" fill="#B961FF"/>
<path d="M60.2883 25.458C59.9785 24.2939 59.2625 23.279 58.2697 22.5967C57.2769 21.9144 56.0728 21.6098 54.875 21.7378V3.45654C54.875 2.64846 54.554 1.87348 53.9826 1.30208C53.4112 0.730677 52.6362 0.409668 51.8281 0.409668H3.07812C2.27004 0.409668 1.49506 0.730677 0.923659 1.30208C0.352259 1.87348 0.03125 2.64846 0.03125 3.45654V52.2066C0.03125 53.0146 0.352259 53.7896 0.923659 54.361C1.49506 54.9324 2.27004 55.2534 3.07812 55.2534H35.5964L35.57 61.0892L44.4141 55.9319L44.803 55.2534H51.8281C52.6362 55.2534 53.4112 54.9324 53.9826 54.361C54.554 53.7896 54.875 53.0146 54.875 52.2066V37.808L59.7805 29.3113C60.1156 28.7345 60.333 28.0969 60.4202 27.4355C60.5074 26.7741 60.4625 26.102 60.2883 25.458ZM2.0625 3.45654C2.0625 3.18718 2.1695 2.92885 2.35997 2.73839C2.55044 2.54792 2.80876 2.44092 3.07812 2.44092H51.8281C52.0975 2.44092 52.3558 2.54792 52.5463 2.73839C52.7367 2.92885 52.8437 3.18718 52.8437 3.45654V10.5659H2.0625V3.45654ZM3.07812 53.2222C2.80876 53.2222 2.55044 53.1152 2.35997 52.9247C2.1695 52.7342 2.0625 52.4759 2.0625 52.2066V12.5972H52.8437V22.3969C52.0732 22.8345 51.432 23.468 50.9851 24.2332L35.6157 50.8537L35.6055 53.2222H3.07812ZM44.2343 52.1751L43.7448 48.9616L52.7077 33.4378L54.4667 34.4534L44.2343 52.1751ZM39.6406 54.0347C39.02 53.6799 38.3417 53.4375 37.6368 53.3187L37.6429 51.8186L41.875 50.1692L42.5585 54.6613L41.2626 55.4169C40.8075 54.8643 40.2584 54.3963 39.6406 54.0347ZM49.1875 31.4065L50.9466 32.4222L41.9857 47.9409L38.9581 49.1241L49.1875 31.4065ZM37.6266 55.3885C38.3291 55.5711 38.9689 55.9407 39.4781 56.458L37.6175 57.5426L37.6266 55.3885ZM52.8437 52.2066C52.8437 52.4759 52.7367 52.7342 52.5463 52.9247C52.3558 53.1152 52.0975 53.2222 51.8281 53.2222H45.9761L52.8437 41.3262V52.2066ZM56.5 30.9343L55.4844 32.6933L50.2031 29.6465L51.2187 27.8874L56.5 30.9343ZM52.2344 26.1283L52.7422 25.2488C53.1462 24.5485 53.8119 24.0373 54.5928 23.8278C55.3737 23.6183 56.2059 23.7276 56.9062 24.1316C57.6066 24.5357 58.1177 25.2014 58.3272 25.9823C58.5368 26.7632 58.4275 27.5954 58.0234 28.2957L57.5156 29.1752L52.2344 26.1283Z" fill="#B961FF"/>
<path d="M7.14062 24.7847C6.87126 24.7847 6.61294 24.8917 6.42247 25.0821C6.232 25.2726 6.125 25.5309 6.125 25.8003C6.125 26.0697 6.232 26.328 6.42247 26.5184C6.61294 26.7089 6.87126 26.8159 7.14062 26.8159H10.1875C10.7262 26.8159 11.2429 26.6019 11.6238 26.221C12.0047 25.84 12.2188 25.3234 12.2188 24.7847V22.7534C12.2188 22.2147 12.0047 21.698 11.6238 21.3171C11.2429 20.9362 10.7262 20.7222 10.1875 20.7222H8.15625V18.6909H11.2031C11.4725 18.6909 11.7308 18.5839 11.9213 18.3934C12.1117 18.203 12.2188 17.9447 12.2188 17.6753C12.2188 17.4059 12.1117 17.1476 11.9213 16.9571C11.7308 16.7667 11.4725 16.6597 11.2031 16.6597H8.15625C7.61753 16.6597 7.10087 16.8737 6.71994 17.2546C6.33901 17.6355 6.125 18.1522 6.125 18.6909V20.7222C6.125 21.2609 6.33901 21.7775 6.71994 22.1585C7.10087 22.5394 7.61753 22.7534 8.15625 22.7534H10.1875V24.7847H7.14062Z" fill="#B961FF"/>
<path d="M15.2656 26.8159H18.3125C18.5819 26.8159 18.8402 26.7089 19.0307 26.5184C19.2211 26.328 19.3281 26.0697 19.3281 25.8003C19.3281 25.5309 19.2211 25.2726 19.0307 25.0821C18.8402 24.8917 18.5819 24.7847 18.3125 24.7847H15.2656V22.7534H17.2969C17.5662 22.7534 17.8246 22.6464 18.015 22.4559C18.2055 22.2655 18.3125 22.0072 18.3125 21.7378C18.3125 21.4684 18.2055 21.2101 18.015 21.0196C17.8246 20.8292 17.5662 20.7222 17.2969 20.7222H15.2656V18.6909H18.3125C18.5819 18.6909 18.8402 18.5839 19.0307 18.3934C19.2211 18.203 19.3281 17.9447 19.3281 17.6753C19.3281 17.4059 19.2211 17.1476 19.0307 16.9571C18.8402 16.7667 18.5819 16.6597 18.3125 16.6597H15.2656C14.7269 16.6597 14.2102 16.8737 13.8293 17.2546C13.4484 17.6355 13.2344 18.1522 13.2344 18.6909V24.7847C13.2344 25.3234 13.4484 25.84 13.8293 26.221C14.2102 26.6019 14.7269 26.8159 15.2656 26.8159Z" fill="#B961FF"/>
<path d="M22.375 26.8159H24.4062C24.945 26.8159 25.4616 26.6019 25.8426 26.221C26.2235 25.84 26.4375 25.3234 26.4375 24.7847V18.6909C26.4375 18.1522 26.2235 17.6355 25.8426 17.2546C25.4616 16.8737 24.945 16.6597 24.4062 16.6597H22.375C21.8363 16.6597 21.3196 16.8737 20.9387 17.2546C20.5578 17.6355 20.3438 18.1522 20.3438 18.6909V24.7847C20.3438 25.3234 20.5578 25.84 20.9387 26.221C21.3196 26.6019 21.8363 26.8159 22.375 26.8159ZM22.375 18.6909H24.4062V24.7847H22.375V18.6909Z" fill="#B961FF"/>
<path d="M31.5156 18.6909H47.7656C48.035 18.6909 48.2933 18.5839 48.4838 18.3934C48.6742 18.203 48.7812 17.9447 48.7812 17.6753C48.7812 17.4059 48.6742 17.1476 48.4838 16.9571C48.2933 16.7667 48.035 16.6597 47.7656 16.6597H31.5156C31.2463 16.6597 30.9879 16.7667 30.7975 16.9571C30.607 17.1476 30.5 17.4059 30.5 17.6753C30.5 17.9447 30.607 18.203 30.7975 18.3934C30.9879 18.5839 31.2463 18.6909 31.5156 18.6909Z" fill="#B961FF"/>
<path d="M31.5156 22.7534H47.7656C48.035 22.7534 48.2933 22.6464 48.4838 22.4559C48.6742 22.2655 48.7812 22.0072 48.7812 21.7378C48.7812 21.4684 48.6742 21.2101 48.4838 21.0196C48.2933 20.8292 48.035 20.7222 47.7656 20.7222H31.5156C31.2463 20.7222 30.9879 20.8292 30.7975 21.0196C30.607 21.2101 30.5 21.4684 30.5 21.7378C30.5 22.0072 30.607 22.2655 30.7975 22.4559C30.9879 22.6464 31.2463 22.7534 31.5156 22.7534Z" fill="#B961FF"/>
<path d="M6.125 32.9097H42.6875C42.9569 32.9097 43.2152 32.8027 43.4057 32.6122C43.5961 32.4217 43.7031 32.1634 43.7031 31.894C43.7031 31.6247 43.5961 31.3664 43.4057 31.1759C43.2152 30.9854 42.9569 30.8784 42.6875 30.8784H6.125C5.85564 30.8784 5.59731 30.9854 5.40684 31.1759C5.21638 31.3664 5.10938 31.6247 5.10938 31.894C5.10938 32.1634 5.21638 32.4217 5.40684 32.6122C5.59731 32.8027 5.85564 32.9097 6.125 32.9097Z" fill="#B961FF"/>
<path d="M6.125 36.9722H40.6562C40.9256 36.9722 41.1839 36.8652 41.3744 36.6747C41.5649 36.4842 41.6719 36.2259 41.6719 35.9565C41.6719 35.6872 41.5649 35.4289 41.3744 35.2384C41.1839 35.0479 40.9256 34.9409 40.6562 34.9409H6.125C5.85564 34.9409 5.59731 35.0479 5.40684 35.2384C5.21638 35.4289 5.10938 35.6872 5.10938 35.9565C5.10938 36.2259 5.21638 36.4842 5.40684 36.6747C5.59731 36.8652 5.85564 36.9722 6.125 36.9722Z" fill="#B961FF"/>
<path d="M6.125 41.0347H38.625C38.8944 41.0347 39.1527 40.9277 39.3432 40.7372C39.5336 40.5467 39.6406 40.2884 39.6406 40.019C39.6406 39.7497 39.5336 39.4914 39.3432 39.3009C39.1527 39.1104 38.8944 39.0034 38.625 39.0034H6.125C5.85564 39.0034 5.59731 39.1104 5.40684 39.3009C5.21638 39.4914 5.10938 39.7497 5.10938 40.019C5.10938 40.2884 5.21638 40.5467 5.40684 40.7372C5.59731 40.9277 5.85564 41.0347 6.125 41.0347Z" fill="#B961FF"/>
<path d="M6.125 45.0972H36.5938C36.8631 45.0972 37.1214 44.9902 37.3119 44.7997C37.5024 44.6092 37.6094 44.3509 37.6094 44.0815C37.6094 43.8122 37.5024 43.5539 37.3119 43.3634C37.1214 43.1729 36.8631 43.0659 36.5938 43.0659H6.125C5.85564 43.0659 5.59731 43.1729 5.40684 43.3634C5.21638 43.5539 5.10938 43.8122 5.10938 44.0815C5.10938 44.3509 5.21638 44.6092 5.40684 44.7997C5.59731 44.9902 5.85564 45.0972 6.125 45.0972Z" fill="#B961FF"/>
<path d="M33.5469 47.1284H6.125C5.85564 47.1284 5.59731 47.2354 5.40684 47.4259C5.21638 47.6164 5.10938 47.8747 5.10938 48.144C5.10938 48.4134 5.21638 48.6717 5.40684 48.8622C5.59731 49.0527 5.85564 49.1597 6.125 49.1597H33.5469C33.8162 49.1597 34.0746 49.0527 34.265 48.8622C34.4555 48.6717 34.5625 48.4134 34.5625 48.144C34.5625 47.8747 34.4555 47.6164 34.265 47.4259C34.0746 47.2354 33.8162 47.1284 33.5469 47.1284Z" fill="#B961FF"/>
<path d="M31.5156 26.8159H45.7344C46.0037 26.8159 46.2621 26.7089 46.4525 26.5184C46.643 26.328 46.75 26.0697 46.75 25.8003C46.75 25.5309 46.643 25.2726 46.4525 25.0821C46.2621 24.8917 46.0037 24.7847 45.7344 24.7847H31.5156C31.2463 24.7847 30.9879 24.8917 30.7975 25.0821C30.607 25.2726 30.5 25.5309 30.5 25.8003C30.5 26.0697 30.607 26.328 30.7975 26.5184C30.9879 26.7089 31.2463 26.8159 31.5156 26.8159Z" fill="#B961FF"/>
</svg>
