<svg width="60" height="60" viewBox="0 0 60 60" fill="none" xmlns="http://www.w3.org/2000/svg">
<path d="M45.9375 4.6875H25.3125C24.5666 4.6875 23.8512 4.98382 23.3238 5.51126C22.7963 6.03871 22.5 6.75408 22.5 7.5C22.5 8.24592 22.7963 8.96129 23.3238 9.48874C23.8512 10.0162 24.5666 10.3125 25.3125 10.3125H45.9375C46.6834 10.3125 47.3988 10.0162 47.9262 9.48874C48.4537 8.96129 48.75 8.24592 48.75 7.5C48.75 6.75408 48.4537 6.03871 47.9262 5.51126C47.3988 4.98382 46.6834 4.6875 45.9375 4.6875ZM45.9375 8.4375H25.3125C25.0639 8.4375 24.8254 8.33873 24.6496 8.16291C24.4738 7.9871 24.375 7.74864 24.375 7.5C24.375 7.25136 24.4738 7.0129 24.6496 6.83709C24.8254 6.66127 25.0639 6.5625 25.3125 6.5625H45.9375C46.1861 6.5625 46.4246 6.66127 46.6004 6.83709C46.7762 7.0129 46.875 7.25136 46.875 7.5C46.875 7.74864 46.7762 7.9871 46.6004 8.16291C46.4246 8.33873 46.1861 8.4375 45.9375 8.4375Z" fill="#B961FF"/>
<path d="M7.5 9.375C8.53553 9.375 9.375 8.53553 9.375 7.5C9.375 6.46447 8.53553 5.625 7.5 5.625C6.46447 5.625 5.625 6.46447 5.625 7.5C5.625 8.53553 6.46447 9.375 7.5 9.375Z" fill="#B961FF"/>
<path d="M13.125 9.375C14.1605 9.375 15 8.53553 15 7.5C15 6.46447 14.1605 5.625 13.125 5.625C12.0895 5.625 11.25 6.46447 11.25 7.5C11.25 8.53553 12.0895 9.375 13.125 9.375Z" fill="#B961FF"/>
<path d="M18.75 9.375C19.7855 9.375 20.625 8.53553 20.625 7.5C20.625 6.46447 19.7855 5.625 18.75 5.625C17.7145 5.625 16.875 6.46447 16.875 7.5C16.875 8.53553 17.7145 9.375 18.75 9.375Z" fill="#B961FF"/>
<path d="M57.4969 24.9966C57.2109 23.922 56.55 22.9851 55.6336 22.3553C54.7172 21.7255 53.6057 21.4443 52.5 21.5625V4.6875C52.5 3.94158 52.2037 3.22621 51.6762 2.69876C51.1488 2.17132 50.4334 1.875 49.6875 1.875H4.6875C3.94158 1.875 3.22621 2.17132 2.69876 2.69876C2.17132 3.22621 1.875 3.94158 1.875 4.6875V49.6875C1.875 50.4334 2.17132 51.1488 2.69876 51.6762C3.22621 52.2037 3.94158 52.5 4.6875 52.5H34.7044L34.68 57.8869L42.8438 53.1263L43.2028 52.5H49.6875C50.4334 52.5 51.1488 52.2037 51.6762 51.6762C52.2037 51.1488 52.5 50.4334 52.5 49.6875V36.3966L57.0281 28.5534C57.3375 28.021 57.5382 27.4325 57.6186 26.8219C57.6991 26.2114 57.6577 25.591 57.4969 24.9966ZM3.75 4.6875C3.75 4.43886 3.84877 4.2004 4.02459 4.02459C4.2004 3.84877 4.43886 3.75 4.6875 3.75H49.6875C49.9361 3.75 50.1746 3.84877 50.3504 4.02459C50.5262 4.2004 50.625 4.43886 50.625 4.6875V11.25H3.75V4.6875ZM4.6875 50.625C4.43886 50.625 4.2004 50.5262 4.02459 50.3504C3.84877 50.1746 3.75 49.9361 3.75 49.6875V13.125H50.625V22.1709C49.9137 22.5749 49.3219 23.1596 48.9094 23.8659L34.7222 48.4388L34.7128 50.625H4.6875ZM42.6778 49.6584L42.2259 46.6922L50.4994 32.3625L52.1231 33.3L42.6778 49.6584ZM38.4375 51.375C37.8646 51.0476 37.2385 50.8238 36.5878 50.7141L36.5934 49.3294L40.5 47.8069L41.1309 51.9534L39.9347 52.6509C39.5147 52.1408 39.0078 51.7088 38.4375 51.375ZM47.25 30.4875L48.8738 31.425L40.6022 45.75L37.8075 46.8422L47.25 30.4875ZM36.5784 52.6247C37.2269 52.7933 37.8175 53.1344 38.2875 53.6119L36.57 54.6131L36.5784 52.6247ZM50.625 49.6875C50.625 49.9361 50.5262 50.1746 50.3504 50.3504C50.1746 50.5262 49.9361 50.625 49.6875 50.625H44.2856L50.625 39.6441V49.6875ZM54 30.0516L53.0625 31.6753L48.1875 28.8628L49.125 27.2391L54 30.0516ZM50.0625 25.6153L50.5313 24.8034C50.9042 24.157 51.5187 23.6851 52.2396 23.4917C52.9604 23.2983 53.7285 23.3992 54.375 23.7722C55.0215 24.1451 55.4933 24.7596 55.6867 25.4805C55.8801 26.2013 55.7792 26.9695 55.4063 27.6159L54.9375 28.4278L50.0625 25.6153Z" fill="#B961FF"/>
<path d="M8.4375 24.375C8.18886 24.375 7.9504 24.4738 7.77459 24.6496C7.59877 24.8254 7.5 25.0639 7.5 25.3125C7.5 25.5611 7.59877 25.7996 7.77459 25.9754C7.9504 26.1512 8.18886 26.25 8.4375 26.25H11.25C11.7473 26.25 12.2242 26.0525 12.5758 25.7008C12.9275 25.3492 13.125 24.8723 13.125 24.375V22.5C13.125 22.0027 12.9275 21.5258 12.5758 21.1742C12.2242 20.8225 11.7473 20.625 11.25 20.625H9.375V18.75H12.1875C12.4361 18.75 12.6746 18.6512 12.8504 18.4754C13.0262 18.2996 13.125 18.0611 13.125 17.8125C13.125 17.5639 13.0262 17.3254 12.8504 17.1496C12.6746 16.9738 12.4361 16.875 12.1875 16.875H9.375C8.87772 16.875 8.40081 17.0725 8.04918 17.4242C7.69754 17.7758 7.5 18.2527 7.5 18.75V20.625C7.5 21.1223 7.69754 21.5992 8.04918 21.9508C8.40081 22.3025 8.87772 22.5 9.375 22.5H11.25V24.375H8.4375Z" fill="#B961FF"/>
<path d="M15.9375 26.25H18.75C18.9986 26.25 19.2371 26.1512 19.4129 25.9754C19.5887 25.7996 19.6875 25.5611 19.6875 25.3125C19.6875 25.0639 19.5887 24.8254 19.4129 24.6496C19.2371 24.4738 18.9986 24.375 18.75 24.375H15.9375V22.5H17.8125C18.0611 22.5 18.2996 22.4012 18.4754 22.2254C18.6512 22.0496 18.75 21.8111 18.75 21.5625C18.75 21.3139 18.6512 21.0754 18.4754 20.8996C18.2996 20.7238 18.0611 20.625 17.8125 20.625H15.9375V18.75H18.75C18.9986 18.75 19.2371 18.6512 19.4129 18.4754C19.5887 18.2996 19.6875 18.0611 19.6875 17.8125C19.6875 17.5639 19.5887 17.3254 19.4129 17.1496C19.2371 16.9738 18.9986 16.875 18.75 16.875H15.9375C15.4402 16.875 14.9633 17.0725 14.6117 17.4242C14.26 17.7758 14.0625 18.2527 14.0625 18.75V24.375C14.0625 24.8723 14.26 25.3492 14.6117 25.7008C14.9633 26.0525 15.4402 26.25 15.9375 26.25Z" fill="#B961FF"/>
<path d="M22.5 26.25H24.375C24.8723 26.25 25.3492 26.0525 25.7008 25.7008C26.0525 25.3492 26.25 24.8723 26.25 24.375V18.75C26.25 18.2527 26.0525 17.7758 25.7008 17.4242C25.3492 17.0725 24.8723 16.875 24.375 16.875H22.5C22.0027 16.875 21.5258 17.0725 21.1742 17.4242C20.8225 17.7758 20.625 18.2527 20.625 18.75V24.375C20.625 24.8723 20.8225 25.3492 21.1742 25.7008C21.5258 26.0525 22.0027 26.25 22.5 26.25ZM22.5 18.75H24.375V24.375H22.5V18.75Z" fill="#B961FF"/>
<path d="M30.9375 18.75H45.9375C46.1861 18.75 46.4246 18.6512 46.6004 18.4754C46.7762 18.2996 46.875 18.0611 46.875 17.8125C46.875 17.5639 46.7762 17.3254 46.6004 17.1496C46.4246 16.9738 46.1861 16.875 45.9375 16.875H30.9375C30.6889 16.875 30.4504 16.9738 30.2746 17.1496C30.0988 17.3254 30 17.5639 30 17.8125C30 18.0611 30.0988 18.2996 30.2746 18.4754C30.4504 18.6512 30.6889 18.75 30.9375 18.75Z" fill="#B961FF"/>
<path d="M30.9375 22.5H45.9375C46.1861 22.5 46.4246 22.4012 46.6004 22.2254C46.7762 22.0496 46.875 21.8111 46.875 21.5625C46.875 21.3139 46.7762 21.0754 46.6004 20.8996C46.4246 20.7238 46.1861 20.625 45.9375 20.625H30.9375C30.6889 20.625 30.4504 20.7238 30.2746 20.8996C30.0988 21.0754 30 21.3139 30 21.5625C30 21.8111 30.0988 22.0496 30.2746 22.2254C30.4504 22.4012 30.6889 22.5 30.9375 22.5Z" fill="#B961FF"/>
<path d="M7.5 31.875H41.25C41.4986 31.875 41.7371 31.7762 41.9129 31.6004C42.0887 31.4246 42.1875 31.1861 42.1875 30.9375C42.1875 30.6889 42.0887 30.4504 41.9129 30.2746C41.7371 30.0988 41.4986 30 41.25 30H7.5C7.25136 30 7.0129 30.0988 6.83709 30.2746C6.66127 30.4504 6.5625 30.6889 6.5625 30.9375C6.5625 31.1861 6.66127 31.4246 6.83709 31.6004C7.0129 31.7762 7.25136 31.875 7.5 31.875Z" fill="#B961FF"/>
<path d="M7.5 35.625H39.375C39.6236 35.625 39.8621 35.5262 40.0379 35.3504C40.2137 35.1746 40.3125 34.9361 40.3125 34.6875C40.3125 34.4389 40.2137 34.2004 40.0379 34.0246C39.8621 33.8488 39.6236 33.75 39.375 33.75H7.5C7.25136 33.75 7.0129 33.8488 6.83709 34.0246C6.66127 34.2004 6.5625 34.4389 6.5625 34.6875C6.5625 34.9361 6.66127 35.1746 6.83709 35.3504C7.0129 35.5262 7.25136 35.625 7.5 35.625Z" fill="#B961FF"/>
<path d="M7.5 39.375H37.5C37.7486 39.375 37.9871 39.2762 38.1629 39.1004C38.3387 38.9246 38.4375 38.6861 38.4375 38.4375C38.4375 38.1889 38.3387 37.9504 38.1629 37.7746C37.9871 37.5988 37.7486 37.5 37.5 37.5H7.5C7.25136 37.5 7.0129 37.5988 6.83709 37.7746C6.66127 37.9504 6.5625 38.1889 6.5625 38.4375C6.5625 38.6861 6.66127 38.9246 6.83709 39.1004C7.0129 39.2762 7.25136 39.375 7.5 39.375Z" fill="#B961FF"/>
<path d="M7.5 43.125H35.625C35.8736 43.125 36.1121 43.0262 36.2879 42.8504C36.4637 42.6746 36.5625 42.4361 36.5625 42.1875C36.5625 41.9389 36.4637 41.7004 36.2879 41.5246C36.1121 41.3488 35.8736 41.25 35.625 41.25H7.5C7.25136 41.25 7.0129 41.3488 6.83709 41.5246C6.66127 41.7004 6.5625 41.9389 6.5625 42.1875C6.5625 42.4361 6.66127 42.6746 6.83709 42.8504C7.0129 43.0262 7.25136 43.125 7.5 43.125Z" fill="#B961FF"/>
<path d="M32.8125 45H7.5C7.25136 45 7.0129 45.0988 6.83709 45.2746C6.66127 45.4504 6.5625 45.6889 6.5625 45.9375C6.5625 46.1861 6.66127 46.4246 6.83709 46.6004C7.0129 46.7762 7.25136 46.875 7.5 46.875H32.8125C33.0611 46.875 33.2996 46.7762 33.4754 46.6004C33.6512 46.4246 33.75 46.1861 33.75 45.9375C33.75 45.6889 33.6512 45.4504 33.4754 45.2746C33.2996 45.0988 33.0611 45 32.8125 45Z" fill="#B961FF"/>
<path d="M30.9375 26.25H44.0625C44.3111 26.25 44.5496 26.1512 44.7254 25.9754C44.9012 25.7996 45 25.5611 45 25.3125C45 25.0639 44.9012 24.8254 44.7254 24.6496C44.5496 24.4738 44.3111 24.375 44.0625 24.375H30.9375C30.6889 24.375 30.4504 24.4738 30.2746 24.6496C30.0988 24.8254 30 25.0639 30 25.3125C30 25.5611 30.0988 25.7996 30.2746 25.9754C30.4504 26.1512 30.6889 26.25 30.9375 26.25Z" fill="#B961FF"/>
</svg>
