<svg width="252" height="316" viewBox="0 0 252 316" fill="none" xmlns="http://www.w3.org/2000/svg">
<g clip-path="url(#clip0)">
<path fill-rule="evenodd" clip-rule="evenodd" d="M243.77 191.075V206.531C243.77 207.774 243.526 209.005 243.052 210.153C242.578 211.301 241.883 212.345 241.007 213.224C240.131 214.103 239.091 214.8 237.946 215.275C236.802 215.751 235.575 215.996 234.336 215.996H167.816C166.761 215.996 165.715 216.204 164.74 216.61C163.764 217.015 162.878 217.609 162.132 218.358C161.385 219.107 160.793 219.996 160.389 220.975C159.985 221.954 159.777 223.003 159.777 224.062V298.765C159.777 302.965 161.44 306.993 164.4 309.963C167.36 312.933 171.375 314.601 175.561 314.601H222.049V316H175.561C171.005 316 166.636 314.184 163.414 310.952C160.193 307.72 158.383 303.336 158.383 298.765V224.062C158.383 222.819 158.627 221.588 159.101 220.44C159.575 219.292 160.27 218.248 161.146 217.369C162.022 216.49 163.062 215.793 164.206 215.318C165.351 214.842 166.578 214.597 167.816 214.597H234.336C235.392 214.597 236.437 214.388 237.413 213.983C238.388 213.578 239.274 212.984 240.021 212.235C240.768 211.486 241.36 210.596 241.764 209.618C242.168 208.639 242.376 207.59 242.376 206.531V191.075H243.77Z" fill="#D8BAA3"/>
<path fill-rule="evenodd" clip-rule="evenodd" d="M212.469 215.996C210.264 215.996 208.15 216.874 206.592 218.438C205.033 220.002 204.157 222.123 204.157 224.335V298.766C204.157 302.965 205.82 306.993 208.78 309.963C211.74 312.933 215.755 314.601 219.941 314.601H245.517V316H219.941C215.386 316 211.016 314.184 207.795 310.952C204.573 307.72 202.763 303.336 202.763 298.766V224.335C202.763 221.752 203.786 219.275 205.606 217.449C207.426 215.623 209.895 214.597 212.469 214.597V215.996Z" fill="#D8BAA3"/>
<path d="M244.609 125.368C245.56 125.368 246.5 125.572 247.367 125.966C248.234 126.359 249.007 126.934 249.635 127.65C250.263 128.367 250.732 129.21 251.01 130.123C251.288 131.036 251.369 131.997 251.247 132.944L244.702 183.734C243.569 192.522 239.286 200.596 232.653 206.447C226.02 212.298 217.49 215.527 208.658 215.529H135.869C134.883 215.529 133.938 215.136 133.241 214.437C132.543 213.737 132.152 212.789 132.152 211.8V211.753C132.155 210.861 132.475 210 133.054 209.323C133.633 208.646 134.434 208.199 135.312 208.06C150.919 205.496 174.687 198.36 177.087 176.745L182.952 131.226C183.161 129.608 183.95 128.121 185.172 127.044C186.393 125.967 187.964 125.372 189.591 125.372L244.609 125.368Z" fill="white"/>
<path fill-rule="evenodd" clip-rule="evenodd" d="M244.609 124.668C245.659 124.669 246.698 124.894 247.654 125.329C248.611 125.763 249.465 126.397 250.158 127.189C250.852 127.98 251.369 128.911 251.676 129.919C251.983 130.927 252.073 131.988 251.938 133.034L251.938 133.034L245.393 183.824C244.238 192.781 239.873 201.009 233.113 206.973C226.353 212.936 217.66 216.226 208.658 216.229H135.869C134.699 216.229 133.576 215.762 132.748 214.932C131.92 214.101 131.455 212.974 131.455 211.8V211.753L131.455 211.75C131.459 210.692 131.838 209.67 132.525 208.868C133.212 208.066 134.16 207.535 135.201 207.37C142.972 206.093 152.717 203.685 160.8 198.943C168.869 194.21 175.226 187.19 176.395 176.668L176.395 176.662L182.261 131.136C182.492 129.35 183.363 127.708 184.712 126.519C186.061 125.329 187.795 124.673 189.591 124.673L244.609 124.668ZM244.609 126.067L189.591 126.072C188.134 126.072 186.726 126.604 185.632 127.569C184.538 128.534 183.831 129.866 183.644 131.316C183.644 131.316 183.644 131.316 183.644 131.316L177.78 176.829C176.546 187.919 169.82 195.272 161.504 200.151C153.203 205.021 143.261 207.463 135.424 208.751L135.422 208.751L135.42 208.751C134.705 208.864 134.054 209.228 133.583 209.779C133.112 210.329 132.852 211.029 132.849 211.755V211.8C132.849 212.604 133.167 213.374 133.733 213.943C134.3 214.511 135.068 214.83 135.869 214.83H208.658C208.658 214.83 208.658 214.83 208.658 214.83C217.321 214.828 225.687 211.661 232.192 205.922C238.698 200.183 242.899 192.264 244.01 183.645L250.556 132.855C250.665 132.007 250.592 131.145 250.343 130.327C250.094 129.51 249.674 128.754 249.111 128.112C248.549 127.47 247.856 126.955 247.079 126.603C246.303 126.25 245.461 126.068 244.609 126.067Z" fill="#D8BAA3"/>
<path d="M251.247 132.944L244.702 183.734C243.569 192.522 239.286 200.596 232.653 206.447C226.02 212.298 217.49 215.527 208.658 215.529H135.872C134.886 215.529 133.94 215.136 133.243 214.437C132.546 213.737 132.154 212.789 132.154 211.8V211.753C132.153 211.165 132.293 210.586 132.561 210.063C132.862 210.644 133.317 211.132 133.876 211.472C134.435 211.812 135.076 211.991 135.73 211.991H206.102C214.588 211.99 222.783 208.89 229.156 203.27C235.53 197.65 239.647 189.895 240.738 181.452L247.023 132.646C247.14 131.736 247.063 130.812 246.796 129.935C246.529 129.058 246.079 128.248 245.475 127.559C244.871 126.87 244.128 126.318 243.295 125.941C242.462 125.563 241.559 125.367 240.645 125.368H244.609C245.56 125.368 246.501 125.571 247.367 125.965C248.234 126.358 249.008 126.933 249.636 127.65C250.264 128.367 250.733 129.21 251.01 130.123C251.288 131.035 251.369 131.997 251.247 132.944Z" fill="#F0E1D4"/>
<path fill-rule="evenodd" clip-rule="evenodd" d="M240.649 126.067C240.647 126.067 240.646 126.067 240.645 126.067L240.645 124.668C240.645 124.668 240.644 124.668 240.645 124.668C240.646 124.668 240.648 124.668 240.649 124.668H244.609C245.659 124.669 246.698 124.893 247.655 125.328C248.612 125.762 249.466 126.396 250.159 127.188C250.853 127.98 251.37 128.91 251.677 129.918C251.984 130.926 252.073 131.989 251.939 133.034L245.393 183.824C244.238 192.781 239.873 201.009 233.113 206.973C226.353 212.936 217.66 216.226 208.659 216.229H135.872C134.701 216.229 133.578 215.762 132.75 214.932C131.922 214.101 131.457 212.974 131.457 211.8V211.753M240.046 181.362L246.332 132.556C246.436 131.745 246.367 130.921 246.129 130.139C245.891 129.357 245.49 128.635 244.952 128.021C244.414 127.407 243.751 126.915 243.008 126.578C242.267 126.242 241.463 126.067 240.649 126.067M250.556 132.855C250.665 132.007 250.593 131.145 250.344 130.327C250.095 129.509 249.675 128.754 249.112 128.111C248.55 127.469 247.857 126.955 247.08 126.602C246.389 126.288 245.646 126.109 244.89 126.074C245.293 126.374 245.665 126.717 245.999 127.097C246.668 127.861 247.167 128.758 247.463 129.731C247.759 130.703 247.844 131.727 247.714 132.736L241.429 181.542L241.429 181.542C240.317 190.153 236.118 198.064 229.617 203.796C223.116 209.528 214.757 212.69 206.102 212.69H135.731" fill="#D8BAA3"/>
<path fill-rule="evenodd" clip-rule="evenodd" d="M203.46 287.69H159.08V286.291H203.46V287.69Z" fill="#D8BAA3"/>
<path d="M89.8507 294.532C89.8507 296.148 93.2664 302.763 93.1526 305.612C93.0387 308.461 80.8771 308.195 74.8566 308.232C67.7 308.279 52.4782 308.279 52.4782 308.279C52.4782 308.279 51.0027 301.696 58.8402 300.784C66.6776 299.873 76.1532 291.562 76.1532 291.562L89.8507 294.532Z" fill="#722D54"/>
<path d="M175.359 296.714C175.728 298.061 179.818 303.985 179.818 309.682C179.818 309.682 172.433 314.811 169.826 315.147C167.219 315.482 145.742 315.147 145.742 315.147C145.742 315.147 145.227 308.088 154.605 306.866C161.192 306.006 161.415 298.008 161.415 298.008L175.359 296.714Z" fill="#722D54"/>
<path fill-rule="evenodd" clip-rule="evenodd" d="M154.019 305.924C154.021 305.602 154.282 305.342 154.603 305.344C157.604 305.361 159.999 305.968 161.649 306.574C162.474 306.877 163.113 307.18 163.55 307.41C163.768 307.525 163.936 307.622 164.051 307.691C164.109 307.725 164.153 307.753 164.184 307.773C164.199 307.783 164.212 307.79 164.22 307.796L164.231 307.803L164.234 307.805L164.236 307.807C164.236 307.807 164.236 307.807 163.913 308.291L164.236 307.807C164.503 307.986 164.574 308.348 164.395 308.615C164.217 308.883 163.856 308.954 163.59 308.775C163.59 308.775 163.59 308.775 163.59 308.775L163.589 308.775L163.585 308.772C163.58 308.769 163.572 308.764 163.561 308.757C163.538 308.742 163.503 308.72 163.454 308.691C163.357 308.632 163.208 308.546 163.01 308.442C162.614 308.234 162.022 307.952 161.25 307.668C159.705 307.101 157.444 306.526 154.597 306.51C154.276 306.508 154.017 306.246 154.019 305.924Z" fill="white"/>
<path d="M204.243 158.755C204.243 158.755 214.699 177.659 210.603 191.108C206.506 204.557 182.313 202.326 182.313 202.326C182.313 202.326 190.039 232.303 178.737 295.439C178.737 295.439 169.822 300.227 154.6 297.036C154.6 297.036 152.327 267.632 141.771 202.671L122.585 202.631C122.585 202.631 125.52 249.99 93.5917 294.087C93.5917 294.087 83.505 296.716 72.3727 289.424C72.3727 289.424 86.442 225.171 88.8353 185.744C89.5324 174.132 108.481 163.903 151.447 158.776C151.447 158.774 190.267 161.122 204.243 158.755Z" fill="#3F4D90"/>
<path fill-rule="evenodd" clip-rule="evenodd" d="M162.888 172.43C162.964 172.743 162.773 173.058 162.461 173.134C149.564 176.284 144.283 182.777 142.264 188.955C140.326 194.886 141.357 200.626 141.809 203.146C141.832 203.276 141.854 203.397 141.874 203.509C141.93 203.826 141.719 204.128 141.403 204.184C141.087 204.24 140.786 204.028 140.73 203.712C140.71 203.597 140.687 203.472 140.663 203.338C140.208 200.809 139.128 194.811 141.16 188.592C143.319 181.984 148.95 175.234 162.186 172.002C162.498 171.925 162.812 172.117 162.888 172.43Z" fill="white"/>
<path fill-rule="evenodd" clip-rule="evenodd" d="M179.94 194.688C180.199 194.497 180.562 194.552 180.753 194.812L180.285 195.157C180.753 194.812 180.753 194.812 180.753 194.812L180.753 194.812L180.754 194.813L180.756 194.816L180.762 194.824C180.766 194.831 180.773 194.84 180.781 194.851C180.797 194.874 180.819 194.907 180.847 194.949C180.904 195.034 180.983 195.157 181.08 195.32C181.274 195.645 181.538 196.126 181.831 196.762C182.417 198.035 183.115 199.932 183.586 202.451C183.645 202.768 183.437 203.072 183.122 203.131C182.807 203.191 182.503 202.982 182.444 202.666C181.992 200.248 181.325 198.444 180.776 197.25C180.502 196.654 180.257 196.21 180.083 195.919C179.996 195.773 179.927 195.665 179.881 195.596C179.858 195.561 179.841 195.536 179.83 195.521C179.824 195.513 179.82 195.507 179.818 195.504L179.816 195.502L179.817 195.502C179.627 195.243 179.682 194.878 179.94 194.688Z" fill="white"/>
<path d="M137.129 142.903C127.063 157.878 82.1457 151.491 70.4557 149.544C69.4659 150.579 68.1322 151.668 66.7821 151.946C64.0171 152.507 55.6522 151.778 54.5415 152.645C54.5415 152.645 54.0582 150.36 56.7396 149.148C58.5985 148.314 61.7795 148.985 60.6107 147.787C59.816 146.971 57.8596 147.148 53.7004 148.446C52.1366 148.936 46.4206 151.696 44.9381 147.945L50.5565 142.583C54.2929 140.513 56.247 138.166 64.4121 140.049C65.4921 140.317 66.6192 140.329 67.7046 140.084C70.3396 138.905 92.9527 129.407 113.298 126.097L117.752 96.999C125.158 103.787 138.17 109.643 139.064 110.04C139.064 110.077 141.402 136.557 137.129 142.903Z" fill="#C36F0B"/>
<path d="M139.482 116.53C134.996 114.53 123.831 109.021 117.216 100.549L117.752 97.0386C125.158 103.825 138.17 109.681 139.064 110.077C139.064 110.077 139.299 112.716 139.482 116.53Z" fill="#B65A18"/>
<path d="M191.619 44.6777C193.195 46.2583 203.425 54.0329 224.9 66.7706C228.766 69.0645 239.824 79.7531 239.15 102.419C239.15 102.419 230.969 110.308 210.282 114.707C210.282 114.707 205.658 148.237 205.321 157.035C204.984 165.833 152.602 161.931 150.352 158.56C148.103 155.189 139.227 124.757 139.115 110.101C139.115 110.101 117.079 100.394 113.256 91.2576C113.256 91.2576 122.474 69.8315 128.659 65.9966C136.025 61.4298 155.91 55.2731 167.967 45.3468L191.619 44.6777Z" fill="#F0E1D4"/>
<path fill-rule="evenodd" clip-rule="evenodd" d="M208.021 95.9041C208.405 95.8704 208.743 96.155 208.776 96.5398L210.317 114.206C210.35 114.59 210.067 114.93 209.683 114.963C209.3 114.997 208.961 114.712 208.928 114.328L207.387 96.6617C207.354 96.2769 207.637 95.9377 208.021 95.9041Z" fill="white"/>
<path fill-rule="evenodd" clip-rule="evenodd" d="M140.956 86.997C141.326 87.1025 141.541 87.4892 141.436 87.8608C139.879 93.36 139.361 98.6867 139.234 102.644C139.17 104.621 139.204 106.252 139.254 107.386C139.278 107.954 139.307 108.396 139.33 108.696C139.341 108.846 139.35 108.96 139.357 109.035C139.36 109.073 139.363 109.102 139.365 109.12L139.367 109.141L139.367 109.145L139.367 109.146C139.406 109.53 139.128 109.874 138.745 109.913C138.362 109.952 138.02 109.673 137.98 109.288L138.674 109.217C137.98 109.288 137.98 109.288 137.98 109.288L137.98 109.285L137.979 109.279L137.977 109.254C137.975 109.232 137.972 109.201 137.968 109.16C137.961 109.077 137.951 108.957 137.939 108.8C137.916 108.487 137.886 108.03 137.861 107.448C137.81 106.283 137.775 104.616 137.84 102.599C137.97 98.5673 138.498 93.1203 140.095 87.4787C140.2 87.1072 140.585 86.8915 140.956 86.997Z" fill="white"/>
<path d="M171.344 91.5585C174.736 111.355 183.298 139.581 168.985 148.207C168.985 148.207 172.285 140.53 164.426 122.505C153.419 97.2606 165.258 67.272 168.016 60.9078L163.978 55.5926L169.866 49.6084L171.562 49.8765L176.948 56.3316L171.069 62.1899C170.505 63.908 168.244 73.4683 171.344 91.5585Z" fill="#FFB000"/>
<path d="M172.856 52.0935L166.301 58.6628L165.762 57.9635L172.234 51.4757C172.317 51.3981 172.428 51.3561 172.542 51.3585C172.656 51.3609 172.765 51.4076 172.846 51.4887C172.926 51.5698 172.972 51.6791 172.974 51.7936C172.976 51.9081 172.934 52.0189 172.856 52.1028V52.0935Z" fill="white"/>
<path d="M175.057 54.7442L167.389 62.4372C167.621 61.8358 167.854 61.3276 168.028 60.9149L167.87 60.7075L174.446 54.1148C174.53 54.0415 174.639 54.0031 174.75 54.0071C174.862 54.0112 174.968 54.0574 175.047 54.1366C175.125 54.2157 175.171 54.3219 175.176 54.4338C175.18 54.5456 175.141 54.6549 175.068 54.7395L175.057 54.7442Z" fill="white"/>
<path d="M171 62.4253C170.893 62.7796 170.753 63.3275 170.605 64.0688L164.621 70.0646C164.826 69.4197 165.03 68.798 165.235 68.1997L171 62.4253Z" fill="white"/>
<path d="M169.989 68.5049C169.949 68.9292 169.915 69.3791 169.884 69.8477L162.651 76.9928C162.79 76.4287 162.934 75.8738 163.079 75.3307L169.989 68.5049Z" fill="white"/>
<path d="M169.752 75.284L161.222 83.7184C161.31 83.2078 161.406 82.7019 161.503 82.2007L169.745 74.0415C169.745 74.4518 169.745 74.8621 169.752 75.284Z" fill="white"/>
<path d="M170.012 80.9911L160.253 90.6144C160.298 90.1481 160.348 89.6858 160.404 89.2273L169.931 79.8325C169.954 80.2125 169.982 80.5972 170.012 80.9911Z" fill="white"/>
<path d="M170.57 86.4043L159.846 96.9787C159.846 96.5497 159.872 96.1254 159.886 95.7012L170.433 85.2993C170.475 85.6653 170.521 86.022 170.57 86.4043Z" fill="white"/>
<path d="M171.406 91.9244L159.953 103.072C159.928 102.681 159.909 102.291 159.893 101.907L171.23 90.873C171.265 91.1062 171.304 91.3393 171.344 91.5724C171.362 91.6796 171.385 91.8009 171.406 91.9244Z" fill="white"/>
<path d="M172.45 97.5194L160.599 109.061C160.541 108.702 160.49 108.343 160.441 107.984L172.257 96.4844C172.315 96.8271 172.38 97.1721 172.45 97.5194Z" fill="white"/>
<path d="M173.572 103.221L161.747 114.731C161.659 114.402 161.578 114.071 161.499 113.742L173.365 102.193C173.442 102.534 173.509 102.879 173.572 103.221Z" fill="white"/>
<path d="M174.685 108.965L163.395 119.955C163.281 119.652 163.162 119.349 163.065 119.046L174.501 107.935C174.555 108.273 174.622 108.62 174.685 108.965Z" fill="white"/>
<path d="M175.751 115.178L165.528 125.135C165.411 124.843 165.295 124.552 165.17 124.254L175.591 114.113C175.642 114.462 175.696 114.824 175.751 115.178Z" fill="white"/>
<path d="M176.544 121.195L167.331 130.163C167.233 129.856 167.131 129.543 167.026 129.231L176.423 120.088C176.467 120.456 176.506 120.827 176.544 121.195Z" fill="white"/>
<path d="M176.978 127.615L168.788 135.586C168.716 135.257 168.641 134.921 168.555 134.579L176.936 126.419C176.955 126.818 176.969 127.221 176.978 127.615Z" fill="white"/>
<path d="M176.825 132.935C176.785 133.401 176.737 133.854 176.683 134.306L169.599 141.199C169.573 140.836 169.543 140.46 169.501 140.066L176.825 132.935Z" fill="white"/>
<path fill-rule="evenodd" clip-rule="evenodd" d="M170.711 48.2051L179.261 57.941C185.732 57.3158 190.482 55.1943 193.62 53.2235C195.218 52.2198 196.399 51.2546 197.177 50.545C197.565 50.1902 197.853 49.8995 198.041 49.7002C198.136 49.6005 198.205 49.5237 198.249 49.4732C198.272 49.4479 198.288 49.4292 198.298 49.4175C198.3 49.4147 198.302 49.4122 198.304 49.4102L198.308 49.4053L198.309 49.4039C198.31 49.4037 198.31 49.4036 198.31 49.4035C198.556 49.1069 198.995 49.0663 199.291 49.3131C199.587 49.56 199.628 50.0009 199.382 50.2979L198.846 49.8509C199.382 50.2979 199.381 50.2982 199.381 50.2985L199.379 50.3014L199.374 50.3076C199.369 50.3127 199.363 50.3195 199.356 50.3282C199.341 50.3454 199.32 50.3698 199.293 50.4007C199.238 50.4626 199.159 50.551 199.053 50.6624C198.843 50.8852 198.531 51.2002 198.115 51.5797C197.283 52.3386 196.036 53.3561 194.359 54.4091C191.004 56.5164 185.931 58.7636 179.032 59.3666L178.682 59.3973L170.647 50.2472L162.74 58.1729L162.261 57.8376L162.66 57.2642C162.261 57.8376 162.261 57.8376 162.261 57.8376L162.222 57.8097C162.196 57.7916 162.158 57.7648 162.108 57.7299C162.009 57.6601 161.865 57.5581 161.683 57.4284C161.319 57.1691 160.803 56.7995 160.195 56.3574C158.98 55.4739 157.394 54.2983 155.919 53.1353C155.616 52.8966 155.563 52.457 155.801 52.1533C156.039 51.8496 156.477 51.7969 156.78 52.0355C158.235 53.1827 159.805 54.3465 161.013 55.2249C161.616 55.6637 162.128 56.0305 162.49 56.2876C162.522 56.3104 162.553 56.3325 162.582 56.3536L170.711 48.2051Z" fill="white"/>
<path fill-rule="evenodd" clip-rule="evenodd" d="M144.957 131.408V130.243H146.619C147.909 130.243 149.146 130.758 150.058 131.673C150.97 132.588 151.483 133.83 151.484 135.124V141.712C151.484 143.007 150.971 144.249 150.059 145.164C149.146 146.079 147.909 146.594 146.618 146.594H144.969V145.428H146.618C147.601 145.428 148.543 145.037 149.237 144.34C149.932 143.643 150.322 142.698 150.322 141.712V135.125C150.322 134.139 149.931 133.194 149.237 132.497C148.542 131.801 147.6 131.409 146.618 131.408" fill="#722D54"/>
<path d="M140.881 127.553H132.493C130.127 127.553 128.209 129.477 128.209 131.851V145.263C128.209 147.637 130.127 149.562 132.493 149.562H140.881C143.248 149.562 145.166 147.637 145.166 145.263V131.851C145.166 129.477 143.248 127.553 140.881 127.553Z" fill="white"/>
<path fill-rule="evenodd" clip-rule="evenodd" d="M132.493 128.135C130.448 128.135 128.789 129.799 128.789 131.851V145.263C128.789 147.315 130.448 148.979 132.493 148.979H140.881C142.927 148.979 144.585 147.315 144.585 145.263V131.851C144.585 129.799 142.927 128.135 140.881 128.135H132.493ZM127.628 131.851C127.628 129.155 129.806 126.97 132.493 126.97H140.881C143.569 126.97 145.747 129.155 145.747 131.851V145.263C145.747 147.959 143.569 150.144 140.881 150.144H132.493C129.806 150.144 127.628 147.959 127.628 145.263V131.851Z" fill="#722D54"/>
<path d="M235.01 105.306C235.01 105.306 236.469 137.262 232.208 142.474C219.052 158.56 162.746 148.624 162.746 148.624L162.526 140.267C162.526 140.267 186.733 131.562 208.375 128.047L209.843 114.929C209.843 114.929 225.502 111.81 235.01 105.306Z" fill="#C36F0B"/>
<path d="M235.224 113.33C227.135 117.484 214.423 117.782 209.681 117.654L209.843 114.929C209.843 114.929 225.502 111.81 235.01 105.306C235.01 105.306 235.161 108.635 235.224 113.33Z" fill="#B65A18"/>
<path d="M163.36 139.504C163.36 139.504 155.861 133.509 152.362 134.555C148.863 135.602 148.412 140.069 147.991 141.209C147.571 142.349 147.201 146.43 147.211 147.68C147.22 148.93 150.731 149.545 152.13 149.545C153.529 149.545 162.695 149.655 164.461 149.167C166.227 148.68 163.36 139.504 163.36 139.504Z" fill="#C36F0B"/>
<path d="M152.13 149.547C150.736 149.547 148.219 149.636 147.445 148.701C145.912 146.836 146.384 143.54 146.714 142.281C146.995 141.199 148.865 135.604 152.362 134.555C152.362 134.555 148.094 142.374 152.13 149.547Z" fill="#B65A18"/>
<path d="M165.156 138.784H164.199C163.385 138.784 162.725 139.446 162.725 140.262V148.053C162.725 148.869 163.385 149.531 164.199 149.531H165.156C165.97 149.531 166.629 148.869 166.629 148.053V140.262C166.629 139.446 165.97 138.784 165.156 138.784Z" fill="#FFB000"/>
<path d="M166.999 140.437H162.314C161.554 140.437 160.939 141.055 160.939 141.817V146.517C160.939 147.279 161.554 147.897 162.314 147.897H166.999C167.758 147.897 168.374 147.279 168.374 146.517V141.817C168.374 141.055 167.758 140.437 166.999 140.437Z" fill="#3F4D79"/>
<path fill-rule="evenodd" clip-rule="evenodd" d="M162.314 140.67C161.683 140.67 161.171 141.183 161.171 141.817V146.517C161.171 147.15 161.683 147.663 162.314 147.663H166.999C167.63 147.663 168.142 147.15 168.142 146.517V141.817C168.142 141.183 167.63 140.67 166.999 140.67H162.314ZM160.706 141.817C160.706 140.926 161.426 140.204 162.314 140.204H166.999C167.887 140.204 168.606 140.926 168.606 141.817V146.517C168.606 147.407 167.887 148.13 166.999 148.13H162.314C161.426 148.13 160.706 147.407 160.706 146.517V141.817Z" fill="white"/>
<path opacity="0.2" d="M160.939 146.519V141.812C160.939 141.447 161.084 141.098 161.342 140.84C161.599 140.582 161.948 140.437 162.312 140.437H167.001L160.939 146.519Z" fill="white"/>
<path d="M191.619 32.271C191.619 32.271 188.366 38.6935 191.619 44.6777C192.697 46.6592 167.087 45.5192 167.087 45.5192L170.37 32.271H191.619Z" fill="#C36F0B"/>
<path d="M168.109 12.3973C167.719 15.7939 167.449 23.7783 163.636 32.4038C159.823 41.0292 174.994 40.8217 178.919 39.7284C182.913 38.6164 185.392 35.46 185.392 35.46C185.392 35.46 193.346 33.3619 193.341 30.0982C193.341 27.5735 189.307 28.7904 189.307 28.7904C189.307 28.7904 191.545 11.8565 187.511 10.9799C183.477 10.1034 168.558 8.47623 168.109 12.3973Z" fill="#C36F0B"/>
<path d="M189.096 29.2146C187.702 29.858 184.274 26.1117 186.05 21.9878C188.173 17.0666 188.824 12.8658 185.053 12.0382C181.282 11.2107 177.617 15.6469 169.882 13.4603C162.147 11.2736 163.323 1.54546 169.97 0.780822C176.618 0.0161856 177.489 5.03994 178.568 5.14951C179.646 5.25907 186.97 1.9744 191.062 6.23818C194.459 9.77929 193.255 11.938 194.182 12.1571C195.109 12.3763 198.295 13.6771 198.076 17.0666C197.858 20.4562 192.47 28.7763 192.47 28.7763C192.47 28.7763 191.217 28.2308 189.096 29.2146Z" fill="#722D54"/>
<path fill-rule="evenodd" clip-rule="evenodd" d="M162.458 6.72432C162.307 9.66366 163.866 12.7527 167.555 13.7953C171.346 14.8665 174.15 14.4386 176.49 13.6497C177.483 13.3149 178.39 12.9159 179.267 12.5307C179.431 12.4584 179.594 12.3867 179.757 12.3159C180.777 11.8716 181.771 11.4653 182.782 11.262L182.919 11.9477C181.988 12.1348 181.055 12.513 180.034 12.9574C179.876 13.0264 179.715 13.097 179.553 13.1686C178.677 13.5538 177.737 13.967 176.712 14.3127C174.262 15.1387 171.313 15.5839 167.366 14.4684C163.318 13.3243 161.597 9.90346 161.761 6.6884C161.925 3.49065 163.969 0.40699 167.507 0L167.587 0.694811C164.477 1.05246 162.609 3.76768 162.458 6.72432Z" fill="#722D54"/>
<path fill-rule="evenodd" clip-rule="evenodd" d="M195.504 12.0063C194.398 11.9561 193.414 12.2837 193.023 12.4689L192.725 11.8364C193.196 11.6137 194.293 11.2512 195.536 11.3076C196.793 11.3647 198.214 11.8538 199.257 13.3511L198.685 13.7517C197.793 12.4701 196.596 12.0558 195.504 12.0063Z" fill="#722D54"/>
<path d="M190.59 27.0726C189.337 28.3851 186.407 33.0242 185.859 37.978C185.311 42.9318 182.048 46.8879 173.776 46.5592C165.504 46.2305 160.901 43.9342 160.467 41.1974C160.032 38.4605 164.071 31.3317 164.071 31.3317C164.071 31.3317 167.129 26.1285 171.597 27.1355C176.065 28.1426 176.941 35.5116 179.769 35.4789C185.069 35.416 187.583 25.499 187.583 25.499L190.59 27.0726Z" fill="#722D54"/>
<path d="M132.045 123.202H16.7577C15.3356 123.202 14.1738 121.922 14.1738 120.342L0.697021 47.0743C0.697021 45.4937 1.85882 44.2139 3.2855 44.2139H118.575C120.004 44.2139 121.163 45.4937 121.163 47.0743L134.64 120.342C134.636 121.922 133.476 123.202 132.045 123.202Z" fill="white"/>
<path fill-rule="evenodd" clip-rule="evenodd" d="M1.39485 47.0142L14.871 120.278V120.342C14.871 121.602 15.7827 122.503 16.7577 122.503H132.045C133.014 122.503 133.91 121.63 133.942 120.401L120.466 47.1384V47.0744C120.466 45.8152 119.557 44.9134 118.575 44.9134H3.28555C2.3208 44.9134 1.42335 45.787 1.39485 47.0142ZM0 47.0744C0 45.172 1.41264 43.5146 3.28555 43.5146H118.575C120.428 43.5146 121.827 45.1336 121.86 47.0072L135.338 120.279L135.337 120.344C135.332 122.244 133.923 123.902 132.045 123.902H16.7577C14.9107 123.902 13.5102 122.282 13.4774 120.409L0 47.1384V47.0744Z" fill="#D8BAA3"/>
<path d="M129.229 123.202H16.5881C15.2125 123.202 14.0995 121.971 14.0995 120.451L1.14551 50.0091C1.14551 48.4892 2.26083 47.2583 3.63639 47.2583H116.275C117.65 47.2583 118.765 48.4892 118.765 50.0091L131.717 120.451C131.717 121.971 130.602 123.202 129.229 123.202Z" fill="white"/>
<path fill-rule="evenodd" clip-rule="evenodd" d="M1.84337 49.9492L14.7966 120.387V120.451C14.7966 121.651 15.6597 122.503 16.5881 122.503H129.229C130.14 122.503 130.991 121.678 131.019 120.511L118.068 50.0732V50.0093C118.068 48.811 117.204 47.9578 116.275 47.9578H3.63645C2.72279 47.9578 1.87167 48.7826 1.84337 49.9492ZM0.448486 50.0093C0.448486 48.1676 1.81457 46.5591 3.63645 46.5591H116.275C118.074 46.5591 119.429 48.1286 119.462 49.942L132.414 120.387V120.451C132.414 122.293 131.049 123.902 129.229 123.902H16.5881C14.7877 123.902 13.4358 122.331 13.4031 120.519L0.448486 50.0732V50.0093Z" fill="#D8BAA3"/>
<path d="M74.4478 98.897L80.6726 122.526H74.4478V98.897Z" fill="#F0E1D4"/>
<path d="M109.48 146.134V148.943L69.0106 139.075L28.536 148.943V146.134L64.7724 134.352V99.5708H73.7739V134.525L109.48 146.134Z" fill="white"/>
<path fill-rule="evenodd" clip-rule="evenodd" d="M64.0752 98.8716H74.4709V134.017L110.177 145.626V149.833L69.0105 139.795L27.8389 149.833V145.626L64.0752 133.844V98.8716ZM65.4694 100.27V134.861L29.233 146.643V148.054L69.0105 138.356L108.783 148.054V146.643L73.0768 135.034V100.27H65.4694Z" fill="#D8BAA3"/>
<path d="M28.0875 149.167H166.613C167.196 149.168 167.773 149.283 168.312 149.508C168.851 149.732 169.34 150.061 169.752 150.475C170.164 150.889 170.49 151.381 170.713 151.922C170.935 152.462 171.049 153.042 171.049 153.627V154.793C171.049 155.973 170.581 157.105 169.749 157.94C168.917 158.774 167.789 159.243 166.613 159.243H28.1572L28.0875 149.167Z" fill="white"/>
<path fill-rule="evenodd" clip-rule="evenodd" d="M166.613 149.867H28.0875V148.468H166.613C167.288 148.468 167.956 148.602 168.579 148.861C169.203 149.121 169.769 149.501 170.245 149.981C170.722 150.46 171.1 151.029 171.357 151.654C171.615 152.28 171.747 152.951 171.746 153.628V154.792C171.746 156.158 171.205 157.468 170.242 158.434C169.28 159.399 167.974 159.942 166.613 159.942H28.1572V158.543H166.613C167.604 158.543 168.555 158.148 169.256 157.445C169.958 156.741 170.351 155.787 170.351 154.792V153.626C170.352 153.132 170.256 152.644 170.069 152.188C169.881 151.732 169.606 151.318 169.259 150.969C168.911 150.619 168.499 150.342 168.045 150.153C167.591 149.964 167.104 149.867 166.613 149.867Z" fill="#D8BAA3"/>
<path d="M132.045 315.39V159.416H141.709V315.378L132.045 315.39Z" fill="white"/>
<path d="M132.045 162.509V159.416H141.709V170.167L132.045 162.509Z" fill="#F0E1D4"/>
<path fill-rule="evenodd" clip-rule="evenodd" d="M131.348 158.716H142.406V315.441H141.012V160.115H132.742V315.389H131.348V158.716Z" fill="#D8BAA3"/>
</g>
<defs>
<clipPath id="clip0">
<rect width="252" height="316" fill="white"/>
</clipPath>
</defs>
</svg>
