<svg width="181" height="483" viewBox="0 0 181 483" fill="none" xmlns="http://www.w3.org/2000/svg">
<path d="M0.373306 132.303C0.373306 132.303 6.31921 120.58 5.51674 117.096C4.71426 113.611 9.69972 106.168 9.69972 106.168L9.37746 93.82C9.37746 93.82 10.0662 95.0826 13.6552 96.1874C13.9585 95.7896 14.2871 95.3983 14.6283 95.0258C15.928 93.6736 17.3732 92.4689 18.9377 91.4338L25.2564 77.8106L31.3666 68.4613C31.3666 68.4613 41.0026 48.8914 50.9546 44.5734L52.5217 41.5117C52.4701 41.4812 52.4317 41.4326 52.4142 41.3754C52.3967 41.3182 52.4012 41.2565 52.4268 41.2024L54.0192 38.0901C54.0476 38.0363 54.095 37.9949 54.1522 37.9739C54.2093 37.9529 54.2722 37.9539 54.3288 37.9765L55.8516 34.9968C56.4332 31.1354 57.9517 27.4748 60.2747 24.3344C60.4326 24.1135 60.6033 23.9115 60.7676 23.7031L58.2906 23.6147C56.117 23.5327 53.6906 23.3433 52.231 21.7209C51.7079 21.1162 51.322 20.4055 51.0999 19.6377C50.9121 19.0359 50.7892 18.4158 50.7334 17.788C50.7334 17.6933 50.7334 17.5986 50.7334 17.5102C50.7334 17.2956 50.7334 17.0851 50.7334 16.8789C50.7334 16.7085 50.7334 16.5443 50.7334 16.3739C50.7334 16.2035 50.7334 16.1024 50.7334 15.9699C50.7334 15.8373 50.8029 15.5343 50.8409 15.3386C50.8409 15.2565 50.8409 15.1745 50.8914 15.0924C50.9441 14.8451 51.0094 14.6007 51.0873 14.3601C51.1058 14.3129 51.1206 14.2644 51.1315 14.2149C51.22 13.9624 51.3148 13.7099 51.4222 13.4637C51.4396 13.4312 51.4543 13.3974 51.4664 13.3627C51.5801 13.1165 51.7065 12.8766 51.8392 12.643L51.8771 12.5672C51.9236 12.4693 51.9764 12.3744 52.0351 12.2832C53.7475 9.59389 56.7552 8.02199 59.6175 6.6016C62.2886 5.19857 65.0303 3.93431 67.8319 2.81388C78.2486 -1.08899 89.755 -0.926696 100.057 3.26841C101.075 3.65335 102.039 4.16675 102.926 4.79612C104.163 5.84183 105.219 7.08298 106.054 8.47021L110.951 15.6984C111.635 16.5777 112.171 17.5629 112.537 18.615C113.453 22.0492 110.578 25.4897 110.9 29.0312C111.064 30.7925 112.012 32.4086 112.196 34.1698C112.429 36.4425 111.374 38.633 110.344 40.6847L103.337 54.573C103.71 56.3974 104.12 58.266 104.569 60.0715C107.798 63.4047 108.885 65.2228 109.182 66.2076L109.276 66.2581C109.916 66.6707 110.466 67.2074 110.894 67.8363L117.554 74.3007C117.554 74.3007 129.13 77.3056 131.537 81.1123C131.537 81.1123 149.703 80.3168 149.545 105.663C149.545 105.663 150.348 115.17 150.809 116.439C151.27 117.708 150.809 130.536 150.809 130.536L151.024 156.519C151.024 156.519 151.719 170.3 151.024 175.212C150.329 180.123 149.526 198.815 149.526 198.815C149.526 198.815 145.186 217.034 146.79 223.53C148.332 229.748 146.79 243.346 144.263 243.403C143.783 244.394 143.233 244.88 142.633 244.603C142.371 244.49 142.103 244.393 141.83 244.312V259.836C141.83 259.836 144.958 281.583 141.451 285.718C143.776 289.026 146.506 294.67 147.201 296.153L171.781 294.834L174.909 295.712L177.777 296.513L179.515 336.455L178.82 336.505L178.871 337.724L177.228 337.844L179.515 378.069L145.489 380.866C146.986 384.218 148.724 387.81 149.4 388.157C150.664 388.788 153.419 386.894 154.063 387.677C154.708 388.46 156.635 389.42 158.885 388.94C161.134 388.46 162.581 390.998 162.581 390.998C162.581 390.998 162.252 391.288 161.76 391.825C165.412 391.383 170.031 393.34 172.539 394.602C173.664 395.171 174.365 395.594 174.365 395.594H181L177.354 418.831L174.782 420.586L174.151 438.893C174.151 438.893 163.864 470.578 159.15 470.369C158.844 470.359 158.544 470.282 158.27 470.145C157.996 470.007 157.755 469.813 157.564 469.574C155.036 466.657 156.787 456.639 156.787 456.639V439.96C156.787 439.96 152.932 438.268 153.362 437C153.792 435.731 147.144 421.849 146.55 420.586C146.533 420.576 146.52 420.561 146.511 420.543C146.502 420.525 146.498 420.505 146.5 420.485C146.5 419.058 143.606 417.474 143.77 416.843C143.934 416.211 136.693 412.247 136.188 408.762C135.682 405.277 130.886 407.178 130.886 407.178L124.782 400.17C124.599 408.712 124.252 414.69 123.651 416.205C120.757 423.496 119.633 434.904 119.633 434.904C119.633 434.904 121.402 443.615 119.633 446.469C118.546 448.211 116.018 450.08 114.262 451.626C116.088 457.157 115.829 468.911 115.829 468.911V475.666L102.326 479.454C102.326 479.454 101.902 476.076 101.258 476.076C100.613 476.076 92.0389 482.623 92.0389 482.623C92.0389 482.623 59.0299 483.046 50.6766 482.623C47.5172 482.465 46.6579 481.108 47.1444 479.466C47.9469 476.733 52.4521 473.191 56.4582 472.92C62.8906 472.497 71.0355 465.742 71.0355 465.742C71.0355 465.742 70.4036 464.259 73.822 462.15C76.1852 460.698 82.7251 454.821 86.7691 451.38C86.5795 451.121 86.3836 450.863 86.2004 450.585C86.2004 450.585 91.666 443.009 90.535 439.651C89.4039 436.293 91.0216 431.444 91.0216 431.444C91.0216 431.444 94.0735 422.095 94.0735 417.341C94.0735 414.33 94.5284 397.203 94.857 385.057L92.0389 385.291L91.982 384.079L90.7182 384.193L78.7696 385.291L79.1361 372.533C73.3797 370.008 68.5901 367.665 66.606 366.169C59.8577 361.119 54.0697 360.784 54.0697 360.784C54.0697 360.784 40.4086 353.499 38.3172 350.488C36.2257 347.477 36.4215 325.616 36.4215 325.616L37.5463 278.762V278.724C37.5463 278.724 38.5067 256.073 40.4403 251.162C41.148 249.344 42.8982 243.283 44.8128 236.364C43.7124 236.251 42.6014 236.298 41.5144 236.503C41.4449 238.195 41.4007 239.357 41.4007 239.754C41.4007 242.444 37.5463 244.729 37.5463 244.729L40.276 184.125V142.896C31.8595 145.573 11.5069 146.406 11.5069 146.406C-3.15886 145.636 0.373306 132.303 0.373306 132.303ZM79.7616 80.2348H79.8058C79.507 78.6459 79.1167 77.0756 78.6369 75.5317L79.7616 80.2348ZM135 288.098C130.014 288.919 124.258 288.679 123.822 287.713C123.778 287.618 123.721 287.448 123.645 287.227C123.487 287.505 123.335 287.789 123.177 288.079L123.664 297.22V297.429L140.093 296.545C138.943 291.652 136.769 289.266 135 288.098ZM80.2355 334.22L80.6588 319.416C79.9259 316.689 79.2687 314.215 78.7064 312.093C78.4536 313.855 78.2388 315.477 78.0745 316.973C76.5201 331.019 78.8138 333.759 80.2355 334.22ZM33.477 112.273C34.4185 112.632 38.0012 110.379 41.4007 108.043C41.4007 107.614 41.3691 107.191 41.3502 106.78C40.8699 97.1153 56.6225 91.0992 61.4437 89.9881C62.6136 89.6865 63.7487 89.2633 64.8305 88.7256C67.3991 87.4545 69.8966 86.0446 72.3119 84.5023L72.2486 84.3192C72.2486 84.3192 78.4663 80.3863 78.599 75.4812C77.182 71.0197 75.3939 66.6845 73.2533 62.5209C73.1333 62.2747 73.0006 62.0159 72.8742 61.7697C69.9358 60.8566 67.1931 59.4052 64.7862 57.4895C63.8195 70.1153 45.5332 80.9797 45.5332 80.9797L43.5807 84.1361L43.1194 84.881C44.1051 85.4618 44.579 85.929 44.2441 86.2004C42.854 87.3115 39.4925 93.5991 38.1023 96.2568C37.7232 96.9765 37.4705 97.4247 37.4705 97.4247C37.4705 97.4247 34.4817 105.549 32.7693 112.348C32.9969 112.253 33.2473 112.227 33.4897 112.273H33.477Z" fill="url(#paint0_linear)"/>
<path d="M26.4129 79.528L26.6277 79.8121L27.3607 80.7906L41.4198 90.7144L44.4022 85.8156L46.2979 82.6592C46.2979 82.6592 74.3214 65.867 62.2716 49.6809C50.2218 33.4947 32.4157 70.1976 32.4157 70.1976L26.4129 79.528Z" fill="#FFC5D3"/>
<path d="M54.6887 39.9848C54.7483 39.8665 54.8927 39.8188 55.0111 39.8784C55.1296 39.938 55.1772 40.0823 55.1176 40.2006L53.5544 43.3016C53.4948 43.4199 53.3504 43.4676 53.232 43.408C53.1135 43.3484 53.0659 43.2041 53.1255 43.0858L54.6887 39.9848Z" fill="#3A3768"/>
<path d="M70.7323 44.3213L70.738 44.3242C70.8034 44.3571 70.8297 44.4368 70.7968 44.5022L70.3307 45.4269C70.2977 45.4923 70.2179 45.5186 70.1525 45.4856L70.1468 45.4828C70.0814 45.4499 70.055 45.3702 70.088 45.3048L70.5541 44.3801C70.5871 44.3147 70.6669 44.2884 70.7323 44.3213Z" fill="#3A3768"/>
<path d="M69.4568 46.5107C69.4945 46.436 69.5856 46.4059 69.6604 46.4436C69.7352 46.4812 69.7654 46.5723 69.7277 46.647L68.8438 48.4005C68.8061 48.4753 68.7149 48.5053 68.6401 48.4677C68.5653 48.43 68.5352 48.339 68.5729 48.2642L69.4568 46.5107Z" fill="#3A3768"/>
<path d="M68.093 49.2403C68.1291 49.1686 68.2165 49.1398 68.2881 49.1759C68.3598 49.212 68.3887 49.2993 68.3526 49.3709L67.4545 51.1526C67.4184 51.2242 67.331 51.253 67.2593 51.2169C67.1876 51.1809 67.1588 51.0936 67.1949 51.022L68.093 49.2403Z" fill="#3A3768"/>
<path d="M59.5918 33.8965L71.3979 39.8366C72.0961 40.1879 72.3771 41.0381 72.0255 41.7356L58.628 68.3143C58.2764 69.0118 57.4253 69.2925 56.7272 68.9412L44.9211 63.0011C44.2229 62.6498 43.9419 61.7996 44.2935 61.1021L57.6911 34.5234C58.0427 33.8259 58.8937 33.5452 59.5918 33.8965Z" fill="#3A3768"/>
<path d="M61.1027 35.584C61.1704 35.6175 61.2308 35.6641 61.2802 35.7211C61.3297 35.7781 61.3672 35.8444 61.3907 35.9161C61.4143 35.9878 61.4233 36.0635 61.4172 36.1387C61.4112 36.2139 61.3902 36.2871 61.3555 36.3542L61.3049 36.4615C61.2701 36.529 61.249 36.6027 61.2429 36.6784C61.2367 36.754 61.2457 36.8302 61.2692 36.9024C61.2927 36.9746 61.3303 37.0414 61.3798 37.099C61.4293 37.1566 61.4898 37.2039 61.5577 37.238L67.6363 40.2934C67.7034 40.328 67.7767 40.349 67.852 40.3551C67.9272 40.3611 68.0029 40.3521 68.0747 40.3286C68.1465 40.3051 68.2129 40.2676 68.2699 40.2182C68.327 40.1688 68.3736 40.1085 68.4072 40.0409L68.464 39.9335C68.4976 39.866 68.5443 39.8057 68.6012 39.7561C68.6581 39.7065 68.7242 39.6686 68.7958 39.6446C68.8674 39.6206 68.943 39.6109 69.0184 39.616C69.0937 39.6212 69.1673 39.6411 69.2349 39.6747L70.4165 40.2744C70.546 40.3381 70.6615 40.4269 70.7563 40.5357C70.8511 40.6445 70.9232 40.771 70.9685 40.908C71.0138 41.0449 71.0314 41.1895 71.0201 41.3332C71.0089 41.477 70.9691 41.6171 70.9031 41.7453L57.9876 67.3566C57.855 67.616 57.6253 67.8126 57.3484 67.9036C57.0715 67.9946 56.7699 67.9727 56.509 67.8427L45.9062 62.5083C45.6466 62.3759 45.4499 62.1464 45.3587 61.8697C45.2676 61.5931 45.2896 61.2917 45.4197 61.0311L58.3415 35.4072C58.4065 35.2782 58.4963 35.1633 58.6059 35.069C58.7154 34.9747 58.8425 34.9029 58.9798 34.8578C59.1172 34.8126 59.2621 34.795 59.4063 34.8059C59.5504 34.8167 59.691 34.8559 59.82 34.9211L61.1027 35.584Z" fill="#6C63FF"/>
<path d="M64.6353 37.5239L66.2324 38.3275C66.3446 38.3839 66.3897 38.5206 66.3332 38.6327C66.2767 38.7448 66.1399 38.7899 66.0277 38.7334L64.4307 37.9299C64.3185 37.8734 64.2733 37.7368 64.3298 37.6247C64.3863 37.5126 64.5231 37.4675 64.6353 37.5239Z" fill="#E6E8EC"/>
<path d="M63.8073 37.5977C63.6643 37.5977 63.5483 37.4819 63.5483 37.3389C63.5483 37.196 63.6643 37.0801 63.8073 37.0801C63.9504 37.0801 64.0664 37.196 64.0664 37.3389C64.0664 37.4819 63.9504 37.5977 63.8073 37.5977Z" fill="#E6E8EC"/>
<path d="M52.0039 133.818L55.9531 239.698C55.9531 239.698 42.6838 235.279 40.6302 238.593C38.5767 241.907 42.8418 185.565 42.8418 185.565L52.0039 133.818Z" fill="#5F5570"/>
<path opacity="0.15" d="M52.0039 133.818L55.9531 239.698C55.9531 239.698 42.6838 235.279 40.6302 238.593C38.5767 241.907 42.8418 185.565 42.8418 185.565L52.0039 133.818Z" fill="black"/>
<path d="M51.3717 482.812C59.586 483.235 92.0199 482.812 92.0199 482.812C92.0199 482.812 100.449 476.291 101.081 476.291C101.713 476.291 102.13 479.656 102.13 479.656L115.399 475.868V469.139C115.399 469.139 115.823 449.979 111.823 449.146C107.823 448.312 90.1243 449.146 90.1243 449.146C89.4925 448.937 77.4869 460.301 74.119 462.403C70.7512 464.505 71.383 465.982 71.383 465.982C71.383 465.982 63.3772 472.712 57.0585 473.135C53.122 473.4 48.6926 476.922 47.9027 479.656C47.4225 481.303 48.2755 482.654 51.3717 482.812Z" fill="#BC8487"/>
<path opacity="0.1" d="M51.3719 482.812C59.5862 483.235 92.0202 482.812 92.0202 482.812C92.0202 482.812 100.449 476.29 101.081 476.29C101.713 476.29 102.13 479.655 102.13 479.655L115.399 475.867V469.271L102.977 473.765L93.0754 479.655H47.9029C47.4227 481.303 48.2757 482.654 51.3719 482.812Z" fill="black"/>
<g opacity="0.1">
<path d="M88.2539 472.926C88.2539 472.926 78.144 463.248 71.3829 465.982L88.2539 472.926Z" fill="black"/>
<path d="M88.2539 472.926C88.2539 472.926 78.144 463.248 71.3829 465.982" stroke="black" stroke-miterlimit="10"/>
</g>
<path d="M152.263 437.359C151.84 438.622 155.631 440.307 155.631 440.307V456.929C155.631 456.929 153.912 466.91 156.396 469.82C156.582 470.056 156.818 470.249 157.086 470.385C157.354 470.521 157.649 470.598 157.95 470.609C162.582 470.817 172.692 439.253 172.692 439.253L173.323 421.015L175.851 419.266L179.434 396.117H172.9C172.9 396.117 172.211 395.694 171.106 395.126C167.946 393.516 161.33 390.707 157.735 393.384L145.521 420.876C145.521 420.876 152.68 436.097 152.263 437.359Z" fill="#BC8487"/>
<path opacity="0.1" d="M156.396 469.82C156.582 470.056 156.818 470.249 157.086 470.385C157.354 470.521 157.649 470.598 157.95 470.609C162.582 470.817 172.692 439.253 172.692 439.253L173.323 421.015L175.851 419.266L179.434 396.117H172.9C172.9 396.117 172.211 395.694 171.106 395.126L169.532 418.843L168.692 439.253C168.692 439.253 160.755 461.474 156.396 469.82Z" fill="black"/>
<path d="M39.2083 351.138C41.2619 354.137 54.6891 361.397 54.6891 361.397C54.6891 361.397 60.376 361.712 67.0106 366.763C70.4417 369.376 82.3651 374.559 93.0753 378.959C103.078 383.069 112.031 386.49 112.031 386.49L122.344 398.485L130.198 407.62C130.198 407.62 134.937 405.726 135.411 409.198C135.885 412.67 142.993 416.615 142.835 417.247C142.677 417.878 145.521 419.456 145.521 420.877C145.521 422.297 156.104 410.618 155.946 403.516C155.789 396.414 161.317 391.522 161.317 391.522C161.317 391.522 159.896 388.997 157.684 389.47C155.473 389.944 153.577 388.997 152.945 388.207C152.313 387.418 149.628 389.312 148.364 388.681C147.1 388.05 142.045 375.582 142.045 375.582L122.35 362.382L83.1739 336.145L81.3667 334.933C81.3667 334.933 76.1538 337.32 78.2705 317.769C78.6813 313.981 79.37 309.379 80.4189 303.773C86.8956 269.21 63.6743 265.265 63.6743 265.265L43.2965 272.051L38.3995 279.626V279.664L37.2937 326.342C37.2937 326.342 37.1547 348.14 39.2083 351.138Z" fill="#433A59"/>
<path opacity="0.1" d="M93.2326 373.233C93.2326 373.233 93.1694 375.474 93.0746 378.959C103.077 383.069 112.031 386.49 112.031 386.49L122.343 398.485C122.513 388.542 122.476 375.626 122.343 362.388L83.1668 336.151C88.0133 354.099 93.2326 373.233 93.2326 373.233Z" fill="black"/>
<path opacity="0.1" d="M38.4182 279.645V279.683L69.0639 280.276C69.0639 280.276 74.4349 301.267 75.2247 305.686C75.4206 306.771 76.6085 311.411 78.2893 317.787C78.7 314 79.3887 309.397 80.4376 303.792C86.9143 269.229 63.693 265.283 63.693 265.283L43.3152 272.07L38.4182 279.645Z" fill="black"/>
<path d="M119.141 222.356L123.09 298.11C123.09 298.11 125.933 409.374 123.09 416.634C120.246 423.894 119.141 435.257 119.141 435.257C119.141 435.257 120.878 443.937 119.141 446.778C117.403 449.619 111.874 452.775 112.032 454.353C112.19 455.932 95.1295 464.454 86.2833 450.881C86.2833 450.881 91.6542 443.306 90.5484 439.992C89.4426 436.677 91.0223 431.785 91.0223 431.785C91.0223 431.785 94.0237 422.473 94.0237 417.72C94.0237 412.966 95.1295 373.214 95.1295 373.214C95.1295 373.214 77.911 310.086 77.1211 305.667C76.3313 301.248 70.9604 280.257 70.9604 280.257L38.419 279.626C38.419 279.626 39.3668 257.058 41.2625 252.165C43.1581 247.273 52.4782 211.447 52.4782 211.447L119.141 222.356Z" fill="#433A59"/>
<path d="M173.449 296.62L176.274 297.428L176.388 300.218L91.7043 301.311V300.212L173.449 296.62Z" fill="#7B728F"/>
<path d="M73.5631 64.2948C85.8846 89.2622 78.2326 94.4829 77.0131 95.1268C79.6228 93.9148 113.542 77.9937 109.081 73.9535C106.18 71.321 103.697 59.8695 102.237 51.6628C101.372 46.764 100.866 43.0205 100.866 43.0205L65.273 49.5417C68.723 55.097 71.4653 59.9895 73.5631 64.2948Z" fill="#FFC5D3"/>
<path opacity="0.1" d="M26.6026 79.8117L27.3355 80.7902L41.4199 90.714L44.4023 85.8152C40.0614 83.2901 27.0449 78.8711 27.0449 78.8711L26.6026 79.8117Z" fill="black"/>
<path d="M13.6179 102.569C14.8817 106.988 36.2073 102.569 36.2073 102.569L38.4189 99.0973C38.4189 99.0973 38.64 98.6555 39.0128 97.9358C40.3777 95.2907 43.6824 89.0283 45.0472 87.9173C46.7849 86.4969 26.407 79.5527 26.407 79.5527L20.1641 93.1254C18.6252 94.159 17.2054 95.3594 15.9306 96.7048C14.3509 98.4156 13.0429 100.556 13.6179 102.569Z" fill="#E5E8EF"/>
<path d="M49.0029 104.603C49.0029 104.603 36.3655 114.564 34.4699 113.845C32.5743 113.125 1.92854 133.799 1.92854 133.799C1.92854 133.799 -1.54675 147.056 12.8283 147.846C12.8283 147.846 43.3161 146.583 44.5798 142.164C45.8436 137.745 49.0029 104.603 49.0029 104.603Z" fill="#5F5570"/>
<path opacity="0.1" d="M83.4394 84.5775L97.1826 98.7815L77.9105 221.251L70.3281 216.832C70.3281 216.832 50.7401 225.512 49.1604 217.463C47.5807 209.414 48.0167 177.692 48.0167 177.692L50.5821 120.384C50.5821 120.384 59.5863 100.341 59.5863 99.7095C59.5863 99.0782 72.5712 89.2932 72.5712 89.2932L78.7004 84.5586L83.4394 84.5775Z" fill="black"/>
<path d="M83.4394 82.684L97.1826 96.8879L77.9105 219.357L70.3281 214.938C70.3281 214.938 50.7401 223.619 49.1604 215.57C47.5807 207.521 48.0167 175.799 48.0167 175.799L50.5821 118.491C50.5821 118.491 59.5863 98.4472 59.5863 97.8159C59.5863 97.1846 72.5712 87.3997 72.5712 87.3997L78.7004 82.665L83.4394 82.684Z" fill="#E5E8EF"/>
<path opacity="0.1" d="M82.6492 84.7361L86.4404 92.4693L82.6492 96.4654C82.6492 96.4654 69.064 123.876 71.7494 140.131L68.906 193.633L59.7439 202.629L52.4774 194.245L55.9527 145.636C55.9527 145.636 65.2728 105.55 75.0668 93.0817L77.9102 82.0342L82.6492 84.7361Z" fill="black"/>
<path d="M82.6492 83.4734L86.4404 91.2066L82.6492 95.2027C82.6492 95.2027 69.064 122.613 71.7494 138.869L68.906 192.37L59.7439 201.366L52.4774 192.983L55.9527 144.374C55.9527 144.374 65.2728 104.287 75.0668 91.819L77.9102 80.7715L82.6492 83.4734Z" fill="#BC8487"/>
<path opacity="0.1" d="M65.2728 49.542C68.7229 55.0973 71.4399 59.9898 73.563 64.2951C75.7993 64.954 78.1189 65.2878 80.4504 65.2863C88.2603 65.2863 92.7592 59.8888 97.1823 54.1567C98.1933 52.8563 101.517 53.1593 102.237 51.6316C101.372 46.7328 100.866 42.9893 100.866 42.9893L65.2728 49.542Z" fill="black"/>
<path d="M56.2307 40.4514C56.231 46.2142 58.2899 51.7877 62.037 56.1689C65.784 60.5502 70.9731 63.4515 76.6705 64.3508C82.368 65.2502 88.1997 64.0885 93.1162 61.0748C98.0327 58.0611 101.711 53.3933 103.49 47.9113C105.268 42.4294 105.03 36.4932 102.818 31.171C100.606 25.8488 96.5657 21.49 91.4236 18.879C86.2815 16.2681 80.3755 15.5763 74.7684 16.9283C69.1612 18.2802 64.2211 21.5871 60.837 26.2538C57.8425 30.3832 56.2304 35.3522 56.2307 40.4514Z" fill="#FFC5D3"/>
<path opacity="0.1" d="M88.1787 94.363L108.083 70.3742C108.083 70.3742 109.921 69.6356 103.71 63.1396C103.71 63.1396 80.8995 80.904 79.4841 83.9216C78.0687 86.9391 88.1787 94.363 88.1787 94.363Z" fill="black"/>
<path d="M88.8105 93.1003L108.714 69.1115C108.714 69.1115 110.553 68.3729 104.342 61.877C104.342 61.877 81.5314 79.6413 80.116 82.6589C78.7006 85.6764 88.8105 93.1003 88.8105 93.1003Z" fill="#E5E8EF"/>
<path d="M38.4187 245.777C38.4187 245.777 42.21 243.505 42.21 240.822C42.21 238.139 44.1056 200.262 44.1056 200.262C44.1056 200.262 46.8858 177.655 49.7924 159.689C51.4985 149.102 53.2488 140.119 54.4872 138.339L54.5378 138.263C57.8551 134.002 57.2232 113.169 77.917 82.71C77.639 82.8993 70.5052 87.8991 65.2796 90.4116C64.216 90.9457 63.1001 91.3688 61.9496 91.6742C57.2106 92.779 41.7297 98.7762 42.2036 108.403C42.6776 118.03 41.0979 140.125 41.0979 140.125V185.408L38.4187 245.777Z" fill="#5F5570"/>
<path d="M38.4189 99.0977C38.4189 99.0977 31.7843 117.405 32.7321 121.982C33.6799 126.559 17.4092 144.55 17.4092 144.55L1.92839 133.818C1.92839 133.818 7.7732 122.14 6.98336 118.668C6.19352 115.196 11.0905 107.778 11.0905 107.778L10.7746 95.4805C10.7746 95.4805 13.618 100.815 38.4189 99.0977Z" fill="#5F5570"/>
<path opacity="0.1" d="M60.8373 26.2533L72.8428 26.7078C74.0153 26.7001 75.1838 26.8466 76.3181 27.1434C80.6085 28.4628 82.5863 33.0207 82.7442 37.1177C82.9022 41.2147 85.2717 45.8042 89.8654 46.164C90.3226 46.2416 90.7921 46.1374 91.1734 45.8736C91.4648 45.564 91.6582 45.1753 91.7294 44.7563C92.3884 42.3689 93.4068 40.0956 94.7498 38.0141C96.6454 38.355 98.0482 40.1542 98.541 42.0354C99.0339 43.9167 98.9012 45.8989 98.8949 47.8496C98.8891 50.327 99.1283 52.7989 99.6089 55.2293C101.568 52.6888 103.002 49.7846 103.827 46.6856C104.652 43.5866 104.853 40.3545 104.417 37.1774C103.981 34.0002 102.918 30.9412 101.288 28.1784C99.6587 25.4155 97.4957 23.0038 94.9249 21.0835C92.3542 19.1632 89.427 17.7726 86.3136 16.9925C83.2002 16.2124 79.9625 16.0584 76.789 16.5394C73.6155 17.0204 70.5693 18.1269 67.8276 19.7945C65.0858 21.4621 62.7033 23.6576 60.8183 26.2533H60.8373Z" fill="black"/>
<path d="M76.9437 26.5131C75.8094 26.2163 74.641 26.0698 73.4684 26.0775L58.8912 25.5346C56.7554 25.4525 54.3733 25.2631 52.9389 23.6786C52.4241 23.0736 52.0449 22.3654 51.8268 21.6017C51.4515 20.3815 51.3413 19.0953 51.5037 17.8291C51.6661 16.563 52.0972 15.3461 52.7683 14.2598C54.4554 11.5769 57.4126 10.0176 60.2307 8.57826C62.8536 7.17829 65.5468 5.91405 68.2997 4.79054C78.5252 0.910886 89.8468 1.07344 99.9565 5.24507C100.955 5.62812 101.902 6.13501 102.775 6.75384C103.993 7.79698 105.031 9.03414 105.846 10.4153L110.641 17.6372C111.303 18.519 111.813 19.5047 112.152 20.5538C113.055 23.9816 110.256 27.4095 110.547 30.9384C110.711 32.6934 111.64 34.3032 111.81 36.0581C112.038 38.3244 111.002 40.4771 109.984 42.5414L101.555 59.5293C100.194 55.568 99.5042 51.4075 99.5142 47.2193C99.5142 45.2686 99.6785 43.2863 99.1603 41.4051C98.6422 39.5239 97.2647 37.7247 95.3691 37.3838C94.0228 39.4643 93.0021 41.7378 92.3424 44.126C92.2727 44.5455 92.0791 44.9346 91.7864 45.2433C91.4054 45.5077 90.9357 45.612 90.4784 45.5337C85.8594 45.1739 83.5278 40.6286 83.3572 36.4874C83.1866 32.3462 81.2342 27.8325 76.9437 26.5131Z" fill="#8F7080"/>
<path d="M176.273 297.429L170.372 295.743L81.3854 300.585L91.1794 301.848L176.273 297.429Z" fill="#7B728F"/>
<path opacity="0.1" d="M176.273 297.429L170.372 295.743L81.3854 300.585L91.1794 301.848L176.273 297.429Z" fill="black"/>
<path d="M78.9652 385.808L90.7054 384.716L94.8252 384.338V319.101L93.7384 303.956L93.4983 300.585H81.3853L78.9652 385.808Z" fill="#7B728F"/>
<path opacity="0.1" d="M82.1751 383.492L91.5395 382.457L94.8252 382.097V320.244L93.9595 305.888L93.77 302.688H84.1087L82.1751 383.492Z" fill="black"/>
<path d="M146.393 297.428C146.393 297.428 140.548 284.619 138.096 284.222C135.644 283.824 131.146 284.222 131.146 284.222L131.544 287.934C131.544 287.934 137.546 288.407 139.442 298.426L146.393 297.428Z" fill="#7B728F"/>
<path opacity="0.1" d="M146.393 297.428C146.393 297.428 140.548 284.619 138.096 284.222C135.644 283.824 131.146 284.222 131.146 284.222L131.544 287.934C131.544 287.934 137.546 288.407 139.442 298.426L146.393 297.428Z" fill="black"/>
<path d="M123.721 282.884C123.721 282.884 108.006 290.693 110.06 299.846L118.59 299.373C118.59 299.373 122.697 285.725 125.933 285.011C129.168 284.298 123.721 282.884 123.721 282.884Z" fill="#7B728F"/>
<path d="M65.2724 159.227V159.688L65.5883 212.255C65.5883 212.255 73.6447 256.445 75.8562 258.181C78.0678 259.917 126.564 255.183 126.564 255.183L148.521 107.304C148.679 82.0527 130.829 82.8418 130.829 82.8418C128.46 79.0541 117.086 76.0555 117.086 76.0555L110.767 69.9005L110.565 69.6164C110.145 68.991 109.604 68.4564 108.973 68.0445C107.671 67.2933 106.843 68.2844 106.369 69.2629C106.156 69.7223 105.991 70.2025 105.876 70.6959C80.2793 89.4514 65.2724 159.227 65.2724 159.227Z" fill="#5F5570"/>
<path opacity="0.1" d="M65.9053 159.859V160.32C73.8479 145.8 104.449 90.7897 112.822 88.0499L109.599 85.8404C109.599 85.8404 107.451 84.5779 111.4 83.3153C111.4 83.3153 117.561 84.1044 117.719 76.6868L111.198 70.2477L109.606 68.6758L107.002 69.8942C106.789 70.3536 106.624 70.8338 106.509 71.3272C80.9122 90.0827 65.9053 159.859 65.9053 159.859Z" fill="black"/>
<path d="M65.2735 159.228V159.689C73.2161 145.169 103.818 90.1589 112.19 87.4191L108.967 85.2096C108.967 85.2096 106.819 83.947 110.768 82.6844C110.768 82.6844 116.929 83.4735 117.087 76.0559L110.566 69.6168L108.974 68.0449L106.37 69.2633C106.157 69.7227 105.992 70.2029 105.878 70.6963C80.2804 89.4518 65.2735 159.228 65.2735 159.228Z" fill="#433A59"/>
<path opacity="0.1" d="M53.8485 138.944L53.8991 138.869C57.2164 134.607 56.5845 113.775 77.2783 83.3154C77.0003 83.5048 69.8665 88.5046 64.6409 91.0171L66.1005 95.8275L62.9412 97.513L53.8485 138.944Z" fill="black"/>
<path d="M54.4804 138.313L54.5309 138.238C57.8482 133.977 57.2164 113.144 77.9102 82.6846C77.6321 82.874 70.4983 87.8737 65.2727 90.3863L66.7324 95.1967L63.573 96.8822L54.4804 138.313Z" fill="#433A59"/>
<path opacity="0.1" d="M78.8199 77.8232L80.1152 83.2902C80.1152 83.2902 79.1674 88.7634 73.4869 89.2369L72.5707 86.6297C72.5707 86.6297 78.6999 82.7031 78.8199 77.8232Z" fill="black"/>
<path d="M78.8199 77.1924L80.1152 82.6593C80.1152 82.6593 79.1674 88.1326 73.4869 88.606L72.5707 85.9988C72.5707 85.9988 78.6999 82.0722 78.8199 77.1924Z" fill="#E5E8EF"/>
<path opacity="0.1" d="M86.99 301.469L90.7054 384.716L94.8252 384.338V319.101L93.7384 303.956L86.99 301.469Z" fill="black"/>
<path d="M175.427 333.62L177.954 378.65L92.0196 385.808L88.2537 301.469L175.427 333.62Z" fill="#7B728F"/>
<path opacity="0.1" d="M177.322 338.462L175.641 298.691L87.6218 302.732L91.8111 344.775L177.322 338.462Z" fill="black"/>
<path d="M177.954 337.2L176.273 297.429L88.2537 301.469L92.443 343.513L177.954 337.2Z" fill="#7B728F"/>
<path d="M130.356 337.25H140.939V349.56H130.356V337.25Z" fill="#C3BBC8"/>
<path d="M139.36 256.604L140.94 260.865C140.94 260.865 144.257 284.222 140.15 287.063C136.043 289.904 123.879 290.062 123.247 288.641C122.615 287.221 118.192 271.123 118.192 271.123C118.192 271.123 114.243 282.96 112.189 282.013C110.136 281.066 116.928 258.567 116.928 258.567L139.36 256.604Z" fill="#FFC5D3"/>
<path opacity="0.1" d="M140.939 238.928V261.496C140.939 261.496 124.195 264.653 116.928 259.198C116.928 259.198 123.721 237.35 121.193 231.826C118.666 226.302 140.939 238.928 140.939 238.928Z" fill="black"/>
<path d="M140.939 238.296V260.865C140.939 260.865 124.195 264.021 116.928 258.567C116.928 258.567 123.721 236.718 121.193 231.194C118.666 225.67 140.939 238.296 140.939 238.296Z" fill="#E5E8EF"/>
<path opacity="0.1" d="M142.835 106.2L147.258 108.567C147.258 108.567 148.048 118.037 148.522 119.299C148.996 120.562 148.522 133.345 148.522 133.345L148.737 159.228C148.737 159.228 149.419 172.959 148.737 177.851C148.054 182.743 147.29 201.366 147.29 201.366C147.29 201.366 143.018 219.516 144.598 225.987C146.178 232.457 144.44 246.977 141.755 245.714C139.069 244.452 114.268 239.559 113.004 238.612C111.741 237.665 112.373 228.827 113.004 227.723C113.636 226.618 117.428 211.625 117.112 208.153C116.796 204.681 118.217 174.221 118.217 174.221C118.217 174.221 115.848 141.71 114.9 134.134C113.952 126.559 116.796 104.306 119.323 103.991C121.851 103.675 129.25 86.4724 142.835 106.2Z" fill="black"/>
<path d="M144.099 104.937L148.522 107.305C148.522 107.305 149.312 116.774 149.786 118.037C150.259 119.299 149.786 132.083 149.786 132.083L150 157.965C150 157.965 150.683 171.696 150 176.588C149.318 181.481 148.553 200.104 148.553 200.104C148.553 200.104 144.282 218.253 145.862 224.724C147.441 231.195 145.704 245.714 143.018 244.452C140.333 243.189 115.532 238.296 114.268 237.35C113.004 236.403 113.636 227.565 114.268 226.46C114.9 225.355 118.691 210.362 118.375 206.89C118.059 203.418 119.481 172.958 119.481 172.958C119.481 172.958 117.112 140.447 116.164 132.872C115.216 125.296 118.059 103.044 120.587 102.728C123.114 102.412 130.514 85.2097 144.099 104.937Z" fill="#5F5570"/>
<g opacity="0.1">
<path opacity="0.1" d="M96.3231 35.0156C98.2187 35.3565 99.6215 37.1557 100.114 39.0369C100.607 40.9181 100.475 42.9004 100.468 44.8511C100.456 49.0389 101.144 53.1995 102.503 57.1611L110.938 40.1732C111.103 39.8387 111.273 39.4914 111.438 39.1442C111.047 40.3133 110.563 41.4491 109.991 42.5406L101.555 59.5285C100.196 55.5668 99.5083 51.4063 99.5204 47.2184C99.5204 45.2677 99.6784 43.2855 99.1666 41.4042C98.6547 39.523 97.2709 37.7238 95.3753 37.3829C94.7634 38.3405 94.2167 39.3381 93.7388 40.3689C94.3807 38.4868 95.2485 36.6892 96.3231 35.0156Z" fill="black"/>
<path opacity="0.1" d="M52.6169 14.5303C52.2462 16.0834 52.2985 17.7073 52.7686 19.2333C52.9888 19.9974 53.3702 20.7056 53.887 21.3103C55.3213 22.8948 57.6782 23.0842 59.8392 23.1663L74.4102 23.7092C75.5848 23.7014 76.7554 23.8479 77.8918 24.1448C82.1759 25.4641 84.1599 30.022 84.3179 34.1191C84.4759 38.2161 86.8454 42.8056 91.4391 43.1654C91.8963 43.243 92.3658 43.1387 92.7471 42.875C92.6017 43.2853 92.4627 43.702 92.3427 44.1376C92.2777 44.5573 92.0859 44.9472 91.793 45.2549C91.4117 45.5187 90.9422 45.6229 90.485 45.5453C85.8597 45.1855 83.5344 40.6403 83.3638 36.499C83.1932 32.3578 81.2217 27.8441 76.9377 26.5247C75.8012 26.2278 74.6307 26.0814 73.4561 26.0891L58.8851 25.5462C56.7494 25.4641 54.3672 25.2748 52.9329 23.6902C52.4161 23.0855 52.0347 22.3774 51.8145 21.6133C51.4563 20.4406 51.3427 19.207 51.4807 17.9887C51.6188 16.7704 52.0054 15.5933 52.6169 14.5303Z" fill="black"/>
</g>
<path opacity="0.1" d="M76.3428 273.452C76.3428 273.452 70.8708 270.611 68.7603 270.769C66.6499 270.927 47.7001 295.004 47.7001 295.004L76.3428 273.452Z" fill="black"/>
<path opacity="0.1" d="M132.473 110.505C132.473 110.505 142.475 114.772 142.21 117.72C141.944 120.669 132.473 110.505 132.473 110.505Z" fill="black"/>
<path opacity="0.1" d="M137.344 124.456C137.344 124.456 147.84 137.865 145.521 138.313C143.202 138.761 137.344 124.456 137.344 124.456Z" fill="black"/>
<path opacity="0.1" d="M102.237 144.55C102.237 144.55 101.276 174.536 108.973 178.324L102.237 144.55Z" fill="black"/>
<path opacity="0.1" d="M142.235 224.616C142.235 224.616 134.83 220.412 133.13 221.252C131.43 222.091 142.235 224.616 142.235 224.616Z" fill="black"/>
<path opacity="0.1" d="M140.939 230.431C140.939 230.431 136.264 230.765 134.046 229.8C131.828 228.834 140.939 230.431 140.939 230.431Z" fill="black"/>
<path opacity="0.1" d="M29.3193 120.012C29.3193 120.012 23.5188 136.659 20.1762 136.659L29.3193 120.012Z" fill="black"/>
<path opacity="0.1" d="M111.804 438.837C111.804 438.837 100.923 435.889 99.3179 438.837C97.713 441.785 111.804 438.837 111.804 438.837Z" fill="black"/>
<path opacity="0.1" d="M146.392 395.126C146.392 395.126 149.103 399.274 145.52 400.536C141.938 401.799 146.392 395.126 146.392 395.126Z" fill="black"/>
<path opacity="0.1" d="M74.1191 337.25C74.1191 337.25 65.9048 344.56 62.0251 344.775C58.1454 344.99 74.1191 337.25 74.1191 337.25Z" fill="black"/>
<defs>
<linearGradient id="paint0_linear" x1="90.4971" y1="482.812" x2="90.4971" y2="-0.0142742" gradientUnits="userSpaceOnUse">
<stop stop-color="#808080" stop-opacity="0.25"/>
<stop offset="0.54" stop-color="#808080" stop-opacity="0.12"/>
<stop offset="1" stop-color="#808080" stop-opacity="0.1"/>
</linearGradient>
</defs>
</svg>
