<svg width="604" height="595" viewBox="0 0 604 595" fill="none" xmlns="http://www.w3.org/2000/svg">
<rect x="433.96" y="594.96" width="612.59" height="228.81" transform="rotate(-135 433.96 594.96)" fill="url(#paint0_linear)"/>
<mask id="mask0" style="mask-type:alpha" maskUnits="userSpaceOnUse" x="142" y="14" width="462" height="462">
<rect x="142" y="245" width="326.683" height="326.683" transform="rotate(-45 142 245)" fill="#B961FF"/>
</mask>
<g mask="url(#mask0)">
<rect x="142" y="245" width="326.683" height="326.683" transform="rotate(-45 142 245)" fill="black"/>
<rect x="142" y="245" width="326.683" height="326.683" transform="rotate(-45 142 245)" fill="url(#paint1_linear)" fill-opacity="0.2"/>
<rect x="144.121" y="245" width="323.683" height="323.683" transform="rotate(-45 144.121 245)" stroke="url(#paint2_linear)" stroke-opacity="0.5" stroke-width="3"/>
<rect x="574.217" y="-63.1561" width="901.361" height="47.1459" transform="rotate(45 574.217 -63.1561)" stroke="#B961FF" stroke-opacity="0.13"/>
<rect x="498.957" y="-2.16301" width="1026.91" height="47.1459" transform="rotate(45 498.957 -2.16301)" stroke="#B961FF" stroke-opacity="0.13"/>
<rect x="284.193" y="-80.6729" width="1314.99" height="47.1459" transform="rotate(45 284.193 -80.6729)" stroke="#B961FF" stroke-opacity="0.13"/>
<rect x="81.321" y="-147.293" width="1634.46" height="47.1459" transform="rotate(45 81.321 -147.293)" stroke="#B961FF" stroke-opacity="0.13"/>
<rect x="13.1939" y="-79.1658" width="1725.26" height="47.1459" transform="rotate(45 13.1939 -79.1658)" stroke="#B961FF" stroke-opacity="0.13"/>
<rect x="-73.9557" y="-30.0626" width="1905.73" height="47.1459" transform="rotate(45 -73.9557 -30.0626)" stroke="#B961FF" stroke-opacity="0.13"/>
<rect x="10.1022" y="190.248" width="1845.2" height="47.1459" transform="rotate(45 10.1022 190.248)" stroke="#B961FF" stroke-opacity="0.13"/>
<rect x="130.622" y="447.02" width="1883.31" height="47.1459" transform="rotate(45 130.622 447.02)" stroke="#B961FF" stroke-opacity="0.13"/>
<rect y="0.707107" width="353.241" height="47.1459" transform="matrix(-0.707107 0.707107 0.707107 0.707107 404.86 39.2903)" stroke="#B961FF" stroke-opacity="0.13"/>
<rect y="0.707107" width="901.361" height="47.1459" transform="matrix(-0.707107 0.707107 0.707107 0.707107 780.312 -63.6565)" stroke="#B961FF" stroke-opacity="0.13"/>
<rect y="0.707107" width="1314.99" height="47.1459" transform="matrix(-0.707107 0.707107 0.707107 0.707107 1070.34 -81.1733)" stroke="#B961FF" stroke-opacity="0.13"/>
<rect y="0.707107" width="1725.26" height="47.1459" transform="matrix(-0.707107 0.707107 0.707107 0.707107 1341.33 -79.6669)" stroke="#B961FF" stroke-opacity="0.13"/>
<rect y="0.707107" width="1845.2" height="47.1459" transform="matrix(-0.707107 0.707107 0.707107 0.707107 1344.43 189.748)" stroke="#B961FF" stroke-opacity="0.13"/>
</g>
<defs>
<linearGradient id="paint0_linear" x1="740.255" y1="594.96" x2="740.255" y2="823.77" gradientUnits="userSpaceOnUse">
<stop stop-color="#F28D55" stop-opacity="0"/>
<stop offset="1" stop-color="#F28D55" stop-opacity="0.1"/>
</linearGradient>
<linearGradient id="paint1_linear" x1="305.342" y1="245" x2="305.342" y2="571.683" gradientUnits="userSpaceOnUse">
<stop offset="0.0001" stop-color="#6411A6"/>
<stop offset="1" stop-color="#3F046D"/>
</linearGradient>
<linearGradient id="paint2_linear" x1="305.342" y1="245" x2="305.342" y2="571.683" gradientUnits="userSpaceOnUse">
<stop offset="0.0001" stop-color="#6411A6"/>
<stop offset="1" stop-color="#3F046D"/>
</linearGradient>
</defs>
</svg>
