<svg width="420" height="261" viewBox="0 0 420 261" fill="none" xmlns="http://www.w3.org/2000/svg">
<path d="M69.0753 101.054H58.5337V133.096H69.0753V101.054Z" fill="#3F3D56"/>
<path d="M352.772 99.3866H342.231V133.285H352.772V99.3866Z" fill="#3F3D56"/>
<path d="M420 249.886V257.11L335.712 257.888L334.813 257.905L302.777 258.199L302.012 258.21L292.275 258.294H291.986L232.631 258.844L135.199 259.75H135.116L110.343 259.983L110.077 259.989L0 261V252.664L25.8824 237.104L77.8137 236.671L78.9234 236.665L79.2896 236.66L80.3992 236.643L105.333 236.437L106.448 236.432L106.803 236.426L107.913 236.421L115.908 236.354L116.119 236.348L135.843 236.182H136.003L289.911 234.881L293.678 234.854H294.055L296.93 234.826L317.819 234.653L318.928 234.637L319.955 234.626H320.487L326.984 234.576L328.271 234.559L329.997 234.548L335.406 234.498L343.989 234.426L345.099 234.415L347.03 234.403H347.391L388.841 234.048L420 249.886Z" fill="#65617D"/>
<path opacity="0.2" d="M420 249.886V257.11L335.712 257.888L334.813 257.905L302.777 258.199L302.012 258.21L292.275 258.294H291.986L232.631 258.844L135.199 259.75H135.116L110.343 259.983L110.077 259.989L0 261V252.664L25.8824 237.104L77.8137 236.671L78.9234 236.665L79.2896 236.66L80.3992 236.643L105.333 236.437L106.448 236.432L106.803 236.426L107.913 236.421L115.908 236.354L116.119 236.348L135.843 236.182H136.003L289.911 234.881L293.678 234.854H294.055L296.93 234.826L317.819 234.653L318.928 234.637L319.955 234.626H320.487L326.984 234.576L328.271 234.559L329.997 234.548L335.406 234.498L343.989 234.426L345.099 234.415L347.03 234.403H347.391L388.841 234.048L420 249.886Z" fill="black"/>
<path d="M105.416 222.105V235.715C105.416 236.36 105.234 236.991 104.89 237.536C104.547 238.081 104.056 238.517 103.474 238.794C103.041 239.004 102.568 239.118 102.087 239.127L82.7239 239.538C82.2068 239.551 81.6939 239.442 81.2259 239.222C80.6343 238.95 80.1331 238.514 79.7819 237.965C79.4308 237.416 79.2445 236.778 79.2452 236.126V222.105H105.416Z" fill="#3F3D56"/>
<path opacity="0.1" d="M105.416 222.105V235.715C105.416 236.36 105.234 236.991 104.89 237.536C104.547 238.081 104.056 238.517 103.474 238.794C103.041 239.004 102.568 239.118 102.087 239.127L82.7239 239.538C82.2068 239.551 81.6939 239.442 81.2259 239.222C80.6343 238.95 80.1331 238.514 79.7819 237.965C79.4308 237.416 79.2445 236.778 79.2452 236.126V222.105H105.416Z" fill="black"/>
<path d="M106.526 222.105V235.715C106.526 236.36 106.344 236.991 106 237.536C105.656 238.081 105.165 238.517 104.584 238.794C104.151 239.004 103.678 239.118 103.197 239.127L83.8335 239.538C83.3164 239.551 82.8035 239.442 82.3355 239.222C81.7439 238.95 81.2427 238.514 80.8916 237.965C80.5404 237.416 80.3541 236.778 80.3548 236.126V222.105H106.526Z" fill="#3F3D56"/>
<path d="M345.099 222.105H318.928V239.611H345.099V222.105Z" fill="#3F3D56"/>
<path opacity="0.1" d="M345.099 222.105H318.928V239.611H345.099V222.105Z" fill="black"/>
<path d="M343.989 222.105H317.818V239.611H343.989V222.105Z" fill="#3F3D56"/>
<path opacity="0.1" d="M69.0753 101.048V104.233L58.5337 103.96V101.048H69.0753Z" fill="black"/>
<path d="M138.461 11.3446L125.795 102.482C125.714 103.064 125.423 103.596 124.976 103.977C124.528 104.357 123.957 104.559 123.37 104.544L21.9488 101.91L20.0236 101.86C19.6883 101.852 19.3586 101.773 19.0558 101.629C18.7529 101.485 18.4839 101.278 18.2661 101.023C18.0483 100.767 17.8867 100.469 17.7918 100.147C17.697 99.8247 17.671 99.4861 17.7155 99.1533L31.9356 3.74795C32.0272 3.15699 32.3368 2.62192 32.8032 2.24845C33.2695 1.87497 33.8587 1.69023 34.4545 1.7307L136.242 8.63268C136.57 8.65175 136.891 8.73879 137.184 8.88831C137.478 9.03783 137.737 9.24659 137.945 9.50141C138.154 9.75624 138.307 10.0516 138.396 10.3688C138.485 10.6861 138.507 11.0183 138.461 11.3446Z" fill="#65617D"/>
<path d="M38.7432 8.43262L28.0185 92.5291L121.229 95.4911L132.691 14.3565L38.7432 8.43262Z" fill="#6C63FF"/>
<path d="M265.116 7.1322H157.475C155.842 7.1322 154.518 8.45832 154.518 10.0942V100.492C154.518 102.128 155.842 103.454 157.475 103.454H265.116C266.749 103.454 268.073 102.128 268.073 100.492V10.0942C268.073 8.45832 266.749 7.1322 265.116 7.1322Z" fill="#65617D"/>
<path d="M263.074 13.6175H159.877V93.824H263.074V13.6175Z" fill="#6C63FF"/>
<path opacity="0.1" d="M352.772 99.3812V101.487L342.231 101.704V99.3812H352.772Z" fill="black"/>
<path d="M400.337 97.6028C400.352 97.833 400.321 98.0639 400.244 98.2816C400.168 98.4993 400.048 98.6993 399.893 98.8696C399.737 99.0398 399.549 99.1768 399.34 99.2724C399.13 99.3679 398.903 99.42 398.673 99.4255L294.81 101.576C294.379 101.585 293.96 101.43 293.638 101.143C293.316 100.855 293.114 100.456 293.073 100.026L284.146 7.06551C284.124 6.83488 284.149 6.60218 284.22 6.38148C284.29 6.16079 284.405 5.9567 284.556 5.7816C284.707 5.6065 284.893 5.46402 285.101 5.3628C285.309 5.26158 285.535 5.20373 285.766 5.19275L388.841 0.05794L389.951 0.00236497C390.392 -0.0209123 390.825 0.128353 391.158 0.41866C391.492 0.708967 391.699 1.11762 391.737 1.55838L400.337 97.6028Z" fill="#65617D"/>
<path d="M290.077 10.6554L384.214 6.02075L392.165 90.4896L298.771 92.7125L290.077 10.6554Z" fill="#6C63FF"/>
<path opacity="0.1" d="M400.337 97.6028C400.352 97.833 400.321 98.0639 400.244 98.2816C400.168 98.4993 400.048 98.6993 399.893 98.8696C399.737 99.0398 399.549 99.1769 399.339 99.2724C399.13 99.3679 398.903 99.42 398.673 99.4255L388.841 0.05794L389.951 0.00236497C390.392 -0.0209123 390.825 0.128353 391.158 0.41866C391.491 0.708967 391.699 1.11762 391.737 1.55838L400.337 97.6028Z" fill="black"/>
<path opacity="0.1" d="M34.4711 1.72516L21.9488 101.91L20.0236 101.86C19.6883 101.852 19.3586 101.773 19.0558 101.629C18.7529 101.485 18.4839 101.278 18.2661 101.023C18.0483 100.767 17.8867 100.469 17.7918 100.147C17.697 99.8247 17.671 99.4862 17.7155 99.1533L31.9356 3.74798C32.0262 3.15293 32.3376 2.61404 32.8077 2.23902C33.2778 1.86401 33.8718 1.68049 34.4711 1.72516Z" fill="black"/>
<path opacity="0.1" d="M69.0753 123.605H58.5337V133.096H69.0753V123.605Z" fill="black"/>
<path opacity="0.1" d="M106.526 222.1V224.862L80.3548 225.562V222.1H106.526Z" fill="black"/>
<path d="M152.715 126.911V220.383C152.708 220.953 152.482 221.499 152.085 221.908C151.687 222.317 151.148 222.556 150.579 222.578L44.247 225.412H44.2193C43.6403 225.405 43.087 225.171 42.6776 224.761C42.2681 224.351 42.0349 223.797 42.0277 223.217V126.911C42.0349 126.331 42.2681 125.777 42.6776 125.367C43.087 124.957 43.6403 124.723 44.2193 124.716H150.523C151.102 124.723 151.655 124.957 152.065 125.367C152.474 125.777 152.707 126.331 152.715 126.911Z" fill="#65617D"/>
<path opacity="0.1" d="M44.247 124.716V225.412H44.2193C43.6403 225.405 43.087 225.171 42.6776 224.761C42.2681 224.351 42.0349 223.797 42.0277 223.217V126.911C42.0349 126.331 42.2681 125.777 42.6776 125.367C43.087 124.957 43.6403 124.723 44.2193 124.716H44.247Z" fill="black"/>
<path d="M49.1017 130.685H147.583V213.069L49.1017 215.292V130.685Z" fill="#D4DFEC"/>
<path opacity="0.1" d="M352.772 123.605H342.231V133.285H352.772V123.605Z" fill="black"/>
<path opacity="0.1" d="M343.989 222.1V225.662L317.818 224.962V222.1H343.989Z" fill="black"/>
<path d="M378.527 126.911V223.217C378.52 223.802 378.283 224.36 377.867 224.771C377.452 225.182 376.892 225.412 376.308 225.412L269.954 222.578C269.385 222.556 268.846 222.317 268.448 221.908C268.05 221.499 267.825 220.953 267.818 220.383V126.911C267.825 126.331 268.058 125.777 268.468 125.367C268.877 124.957 269.431 124.723 270.01 124.716H376.313C376.896 124.718 377.455 124.949 377.869 125.359C378.284 125.77 378.52 126.328 378.527 126.911Z" fill="#65617D"/>
<path opacity="0.1" d="M378.527 126.911V223.217C378.52 223.802 378.283 224.36 377.867 224.771C377.452 225.182 376.892 225.412 376.308 225.412V124.716C376.892 124.716 377.452 124.947 377.867 125.357C378.283 125.768 378.52 126.327 378.527 126.911Z" fill="black"/>
<path d="M371.453 130.685H272.972V213.069L371.453 215.292V130.685Z" fill="#D4DFEC"/>
<path d="M265.066 126.911V220.383C265.059 220.953 264.834 221.499 264.436 221.908C264.039 222.317 263.499 222.556 262.93 222.578L156.598 225.412C156.015 225.412 155.454 225.182 155.039 224.771C154.624 224.36 154.386 223.802 154.379 223.217V126.911C154.386 126.331 154.62 125.777 155.029 125.367C155.438 124.957 155.992 124.723 156.571 124.716H262.875C263.454 124.723 264.007 124.957 264.416 125.367C264.826 125.777 265.059 126.331 265.066 126.911Z" fill="#65617D"/>
<path d="M161.453 130.685H259.934V213.069L161.453 215.292V130.685Z" fill="#D4DFEC"/>
<path opacity="0.1" d="M420 249.886V257.11L335.712 257.888L334.813 257.905L302.777 258.199L302.012 258.21L292.275 258.294H291.986L232.631 258.844L135.199 259.75H135.116L110.343 259.983L110.077 259.989L0 261V252.664L112.357 251.925H112.623L135.365 251.769H135.471L292.53 250.73H292.691L292.785 250.725H293.046L295.703 250.708H296.513L337.842 250.43L340.283 250.419L340.827 250.414L420 249.886Z" fill="black"/>
<path d="M211.476 133.096C227.204 133.096 239.955 120.325 239.955 104.571C239.955 88.8175 227.204 76.0465 211.476 76.0465C195.747 76.0465 182.997 88.8175 182.997 104.571C182.997 120.325 195.747 133.096 211.476 133.096Z" fill="#FBBEBE"/>
<path d="M239.96 162.922C239.96 162.922 184.756 169.59 190.027 162.922C191.935 160.51 192.462 153.363 192.357 145.222C192.323 142.749 192.235 140.187 192.107 137.637C191.497 125.411 190.027 113.463 190.027 113.463C190.027 113.463 238.296 90.6786 232.748 108.739C230.528 116.036 231.255 126.283 232.942 135.903C233.436 138.709 234.007 141.46 234.606 144.072C236.069 150.443 237.856 156.734 239.96 162.922Z" fill="#FBBEBE"/>
<path opacity="0.1" d="M239.96 162.922C239.96 162.922 184.756 169.59 190.027 162.922C191.935 160.51 192.462 153.363 192.357 145.222C200.773 141.621 211.481 144.305 211.481 144.305C222.755 142.054 229.985 142.494 234.606 144.072C236.069 150.442 237.856 156.734 239.96 162.922Z" fill="black"/>
<path d="M135.177 260.378V259.911L232.615 258.849L291.98 258.294H292.147L292.086 259.116L292.169 258.294H292.275V258.199L293.035 250.725L293.323 247.896L293.412 247.013L293.49 246.273L296.918 234.82L300.347 223.384L303.232 213.753L307.638 199.038C307.638 199.038 305.141 193.203 303.754 191.535C302.367 189.868 300.98 178.476 300.98 178.476C300.98 178.476 289.14 167.178 283.963 165.878C281.794 165.322 277.511 164.583 272.961 163.655C271.258 163.311 269.51 162.944 267.829 162.544C266.88 162.327 265.948 162.099 265.055 161.871C263.316 161.436 261.603 160.906 259.923 160.282C259.042 159.961 258.203 159.534 257.426 159.009C253.348 156.014 243.128 155.675 242.735 155.675C242.733 155.662 242.733 155.649 242.735 155.636V155.586C242.749 155.353 242.749 155.119 242.735 154.886C242.735 154.664 242.734 154.402 242.685 154.108C242.685 154.019 242.685 153.925 242.646 153.83C242.618 153.63 242.585 153.419 242.535 153.197C242.518 153.097 242.496 152.999 242.468 152.902C242.307 152.232 242.075 151.582 241.775 150.963C241.736 150.874 241.686 150.779 241.641 150.69C241.369 150.177 241.054 149.688 240.698 149.229C240.626 149.134 240.549 149.034 240.465 148.94C240.011 148.403 239.505 147.912 238.956 147.473C238.806 147.356 238.651 147.234 238.49 147.123C238.4 147.05 238.306 146.983 238.207 146.923L237.713 146.6L237.253 146.333C236.848 146.111 236.421 145.894 235.955 145.689C235.81 145.622 235.655 145.561 235.5 145.5C235.344 145.439 235.1 145.344 234.895 145.267H234.862L234.445 145.1C234.129 144.994 233.807 144.9 233.469 144.805L232.953 144.672L232.398 144.544L231.843 144.427C231.289 144.316 230.695 144.216 230.073 144.138L229.441 144.061L228.792 143.994L228.12 143.938L227.166 143.883L226.057 143.844C221.163 143.843 216.282 144.363 211.498 145.394C208.174 144.654 204.77 144.34 201.367 144.461H200.884L200.329 144.494H199.974L199.259 144.561C199.02 144.561 198.776 144.611 198.537 144.644C198.299 144.677 198.049 144.705 197.811 144.744L197.444 144.805C197.084 144.866 196.718 144.933 196.335 145.011C196.213 145.033 196.091 145.061 195.969 145.094C195.486 145.2 195.003 145.328 194.526 145.472C194.287 145.539 194.049 145.617 193.81 145.7C193.688 145.733 193.572 145.778 193.455 145.822L193.1 145.95L192.751 146.089L192.334 146.256C192.124 146.345 191.918 146.439 191.713 146.539C191.597 146.589 191.48 146.645 191.369 146.706C191.258 146.767 191.142 146.817 191.036 146.878C189.782 147.527 188.622 148.346 187.591 149.312L187.308 149.584L187.03 149.868C186.936 149.962 186.847 150.062 186.759 150.162C186.397 150.558 186.06 150.976 185.749 151.413C185.66 151.529 185.577 151.646 185.494 151.768C185.141 152.288 184.823 152.83 184.539 153.391C184.467 153.524 184.401 153.663 184.334 153.797C183.881 154.736 183.51 155.712 183.224 156.714C183.121 157.085 183.026 157.455 182.941 157.826C182.941 157.826 171.196 163.016 161.453 166.773C158.862 167.773 156.421 168.679 154.379 169.362C153.786 169.562 153.231 169.746 152.715 169.918C151.595 170.323 150.431 170.592 149.247 170.718C148.689 170.727 148.133 170.779 147.583 170.874C143.105 171.602 135.432 174.764 134.594 177.937C134.526 178.19 134.507 178.455 134.539 178.715C134.539 178.715 134.539 178.754 134.539 178.776C135.094 182.666 131.21 182.11 131.21 182.11C131.21 182.11 129.823 192.391 127.881 195.17C126.477 197.17 125.517 201.633 125.395 205C125.326 206.05 125.408 207.103 125.639 208.129C125.639 208.157 125.639 208.185 125.639 208.207C125.861 208.952 125.329 210.985 124.424 213.592C123.442 216.454 122.011 220.01 120.635 223.367C118.56 228.435 116.607 233.036 116.485 234.048C116.435 234.498 116.291 235.304 116.091 236.343C115.281 240.577 113.483 248.641 112.596 251.903C111.935 254.337 110.975 257.671 110.315 259.961C110.315 260.027 110.276 260.094 110.26 260.155L135.132 259.911V260.378H135.21H135.177Z" fill="#6C63FF"/>
<path opacity="0.1" d="M144.254 194.875C144.254 194.875 175.879 211.269 187.252 209.324L144.254 194.875Z" fill="black"/>
<path opacity="0.1" d="M208.613 188.207C208.613 188.207 239.406 198.21 249.67 199.599C259.934 200.988 208.613 188.207 208.613 188.207Z" fill="black"/>
<path opacity="0.1" d="M242.768 156.02C226.678 158.987 196.385 158.348 183.291 157.898C188.09 140.671 211.492 146.528 211.492 146.528C240.46 140.738 242.679 152.752 242.768 156.02Z" fill="black"/>
<path d="M242.768 154.908C226.678 157.876 196.385 157.237 183.291 156.787C188.09 139.559 211.492 145.417 211.492 145.417C240.46 139.626 242.679 151.641 242.768 154.908Z" fill="#6C63FF"/>
<path d="M328.177 230.858C328.177 230.858 347.13 227.94 347.502 236.276C347.873 244.612 337.836 250.436 337.836 250.436L328.177 230.858Z" fill="#FBBEBE"/>
<path opacity="0.1" d="M232.942 135.903C232.127 136.268 231.293 136.59 230.445 136.87C224.464 138.937 218.433 141.021 212.136 141.777C205.839 142.532 199.231 141.866 193.738 138.72C193.161 138.394 192.606 138.032 192.074 137.637C191.463 125.411 189.993 113.463 189.993 113.463C189.993 113.463 238.263 90.6786 232.714 108.739C230.506 116.036 231.255 126.283 232.942 135.903Z" fill="black"/>
<path d="M203.664 59.9864C202.872 60.1959 202.042 60.2171 201.241 60.0482C200.439 59.8794 199.688 59.5252 199.048 59.0139L200.202 60.6199C199.522 60.6986 198.833 60.6274 198.183 60.4114C197.533 60.1954 196.938 59.8399 196.44 59.3696C196.336 60.8073 196.395 62.2522 196.618 63.6764C194.708 63.7686 192.828 63.1777 191.314 62.0092C191.284 62.5106 191.409 63.0089 191.671 63.4372C191.932 63.8655 192.319 64.203 192.778 64.4044C190.86 64.1749 188.924 64.6522 187.332 65.7474C185.739 66.8425 184.599 68.4807 184.123 70.3561L187.019 70.6228C184.743 71.1097 182.7 72.3582 181.227 74.1627C180.339 75.2742 179.662 76.6968 180.051 78.0528C180.439 79.4087 182.314 80.2756 183.335 79.3087C181.883 81.0447 180.828 83.0779 180.243 85.2657C179.658 87.4535 179.559 89.7429 179.951 91.9734C180.214 92.9239 180.301 93.9147 180.206 94.8965C180.023 95.8134 179.446 96.6081 179.158 97.5028C178.603 99.1255 179.13 100.887 179.624 102.504L182.226 111.073C183.169 114.169 184.107 117.27 185.338 120.265C186.21 122.159 186.952 124.11 187.558 126.106C188.257 128.795 188.284 131.74 189.777 134.091C190.8 135.57 192.167 136.778 193.76 137.609C199.248 140.754 205.878 141.421 212.158 140.665C218.439 139.91 224.464 137.826 230.44 135.758C231.767 135.358 233.041 134.798 234.235 134.091C238.368 131.379 239.289 125.833 240.06 120.948C240.92 115.502 242.069 110.068 244.105 104.944C245.314 101.893 246.879 98.7976 246.613 95.53C246.274 91.1899 242.846 87.6722 241.997 83.4043C241.712 81.9777 241.726 80.5076 242.035 79.0864C242.299 78.2396 242.446 77.361 242.474 76.4745C242.379 74.6851 240.915 73.3069 239.539 72.1566C236.554 69.6596 233.473 67.2997 230.295 65.0768C230.135 63.9654 231.644 63.4874 232.326 62.6094C233.291 61.3702 232.293 59.4029 230.828 58.825C229.363 58.247 227.721 58.6249 226.195 59.0084C226.295 58.2261 226.139 57.4327 225.752 56.7459C225.365 56.0592 224.768 55.516 224.048 55.1969C223.328 54.8779 222.524 54.8001 221.757 54.9752C220.989 55.1503 220.298 55.5688 219.787 56.1687C219.382 55.238 218.735 54.4335 217.913 53.8392C217.091 53.2448 216.125 52.8824 215.116 52.7899C211.437 52.5009 211.365 55.3184 209.012 56.8689C206.66 58.4193 204.718 56.3743 202.909 54.885C202.577 55.7268 202.472 56.6415 202.604 57.537C202.737 58.4325 203.102 59.2772 203.664 59.9864Z" fill="#3F3D56"/>
<path d="M342.231 247.529C342.231 247.529 341.737 248.707 340.827 250.414C339.451 253.038 337.775 255.494 335.834 257.732L335.684 257.893H334.785L302.75 258.188H301.984L301.89 258.077L295.676 250.691L293.334 247.907L293.24 247.791L293.04 247.557L292.929 247.424L292.785 247.252L288.23 241.839L289.894 234.892L292.73 223.189L292.802 222.906L293.356 220.683L293.75 219.016L295.071 213.581L299.598 194.881L307.643 199.049L316.126 214.053L320.681 222.111H323.178C323.65 222.111 324.732 223.022 325.819 224.073C326.207 224.445 326.596 224.839 326.929 225.184C327.916 226.207 328.699 227.085 328.699 227.085C328.699 227.085 332.743 227.173 333.831 230.363C333.887 230.518 333.933 230.675 333.969 230.836C334.33 232.089 334.8 233.309 335.373 234.481C336.089 236.043 336.988 237.815 337.898 239.588C339.59 242.839 341.31 245.934 341.942 247.057L342.02 247.196L342.231 247.529Z" fill="#6C63FF"/>
<path opacity="0.1" d="M294.571 222.439L294.516 223.234V223.289L294.422 224.567L293.684 234.854L292.79 247.246L292.535 250.736L291.98 258.205V258.299L232.615 258.855L135.193 259.911V260.378H135.116V259.911V259.755L135.365 251.775L135.842 236.182L136.253 222.961L136.292 221.644C136.316 220.849 136.502 220.068 136.838 219.347C137.174 218.626 137.653 217.982 138.246 217.453C138.839 216.924 139.533 216.522 140.287 216.271C141.04 216.02 141.837 215.925 142.628 215.993C145.247 216.215 148.648 216.487 152.715 216.776L154.379 216.898C177.865 218.532 221.268 220.644 265.066 218.01C265.987 217.96 266.914 217.904 267.84 217.838C274.631 217.41 281.417 216.86 288.136 216.17C288.985 216.081 289.843 216.18 290.651 216.459C291.458 216.738 292.194 217.191 292.808 217.786C293.422 218.381 293.897 219.103 294.202 219.903C294.507 220.702 294.633 221.558 294.571 222.411V222.439Z" fill="black"/>
<path d="M135.177 260.378V259.911L232.615 258.849L291.981 258.294H292.147V258.199L292.702 250.73L292.94 247.396L293.85 234.831L294.566 224.884V224.639C294.599 224.181 294.579 223.72 294.505 223.267C294.508 223.248 294.508 223.23 294.505 223.211C294.353 222.273 293.971 221.388 293.395 220.633C292.784 219.848 291.984 219.232 291.07 218.843C290.155 218.454 289.157 218.305 288.169 218.41C281.45 219.099 274.665 219.649 267.873 220.077C266.947 220.144 266.02 220.199 265.099 220.249C221.302 222.856 177.898 220.744 154.412 219.138L152.748 219.016C148.681 218.727 145.28 218.46 142.661 218.232C141.221 218.11 139.786 218.527 138.634 219.403C137.483 220.278 136.696 221.55 136.425 222.972C136.369 223.273 136.336 223.578 136.325 223.884L135.948 236.198L135.432 251.797L135.188 259.777V259.933V260.4L135.177 260.378Z" fill="#3F3D56"/>
<path opacity="0.1" d="M294.738 226.334L294.056 234.854L293.04 247.552L292.785 250.73L292.23 257.849L292.197 258.205V258.299L292.114 259.122L292.175 258.299H292.014L232.648 258.855L135.193 259.911V259.755L135.465 251.775L136.02 236.182L136.375 225.818C136.393 225.228 136.557 224.652 136.854 224.143C137.15 223.633 137.569 223.206 138.073 222.9C138.701 222.514 139.436 222.339 140.17 222.4C141.335 222.494 142.767 222.606 144.437 222.728C147.15 222.928 150.495 223.161 154.39 223.406C161.603 223.861 170.652 224.351 181.022 224.751C209.872 225.862 248.821 226.234 285.816 222.989C287.481 222.845 289.201 222.683 290.882 222.522C291.547 222.456 292.218 222.583 292.813 222.889C292.981 222.973 293.141 223.074 293.29 223.189C293.773 223.54 294.156 224.011 294.4 224.556C294.456 224.665 294.503 224.778 294.538 224.895C294.705 225.356 294.773 225.846 294.738 226.334Z" fill="black"/>
<path opacity="0.1" d="M106.526 233.942V235.715C106.526 236.36 106.344 236.991 106 237.536C105.656 238.081 105.165 238.517 104.584 238.794L82.3355 239.222C81.7439 238.95 81.2427 238.514 80.8916 237.965C80.5404 237.416 80.3541 236.778 80.3548 236.126V234.459L106.526 233.942Z" fill="black"/>
<path d="M106.803 239.838L77.8137 240.394V235.576L106.803 235.02V239.838Z" fill="#3F3D56"/>
<path opacity="0.1" d="M106.803 239.838L77.8137 240.394V235.576L106.803 235.02V239.838Z" fill="black"/>
<path d="M107.913 239.838L78.9234 240.394V235.576L107.913 235.02V239.838Z" fill="#3F3D56"/>
<g opacity="0.1">
<path opacity="0.1" d="M203.891 58.1637C203.349 57.4582 202.989 56.6299 202.843 55.7519C202.709 56.6102 202.789 57.4883 203.076 58.3082C203.351 58.2827 203.624 58.2344 203.891 58.1637Z" fill="black"/>
<path opacity="0.1" d="M196.845 61.8536C196.741 61.1724 196.672 60.486 196.64 59.7975C196.64 60.481 196.64 61.1701 196.64 61.8592L196.845 61.8536Z" fill="black"/>
<path opacity="0.1" d="M242.063 80.3979C242.094 79.9028 242.161 79.4106 242.263 78.9253C242.525 78.08 242.675 77.2036 242.707 76.319C242.694 76.1204 242.665 75.9233 242.618 75.7299C242.524 76.2412 242.374 76.7524 242.263 77.2581C242.041 78.289 241.974 79.3472 242.063 80.3979Z" fill="black"/>
<path opacity="0.1" d="M230.523 63.2262L231.128 63.6652C231.637 63.2959 232.115 62.8831 232.553 62.4316C232.762 62.1423 232.892 61.8033 232.929 61.4483C232.966 61.0934 232.909 60.7349 232.764 60.4088C232.709 60.5356 232.638 60.6551 232.553 60.7644C231.871 61.6424 230.362 62.1259 230.523 63.2262Z" fill="black"/>
<path opacity="0.1" d="M184.933 68.5723C184.731 68.9776 184.569 69.402 184.45 69.8393C185.318 69.3541 186.253 69.0001 187.225 68.789L184.933 68.5723Z" fill="black"/>
<path opacity="0.1" d="M192.584 62.5261C192.22 62.325 191.871 62.0965 191.541 61.8425C191.527 62.0624 191.544 62.2831 191.591 62.4983C191.922 62.4825 192.254 62.4918 192.584 62.5261Z" fill="black"/>
<path opacity="0.1" d="M246.829 95.2688C246.602 97.964 245.348 100.559 244.332 103.116C242.296 108.239 241.148 113.674 240.288 119.126C239.517 124.01 238.623 129.556 234.462 132.263C233.273 132.974 232 133.534 230.673 133.93C224.692 136.003 218.661 138.081 212.364 138.837C206.066 139.593 199.458 138.931 193.966 135.786C192.373 134.954 191.006 133.747 189.982 132.268C188.501 129.918 188.473 126.972 187.763 124.283C187.157 122.286 186.416 120.332 185.543 118.437C184.317 115.447 183.374 112.324 182.436 109.251C181.567 106.394 180.7 103.536 179.834 100.676C179.549 99.8156 179.338 98.9325 179.202 98.0363C178.985 99.4589 179.407 100.948 179.834 102.343C180.7 105.207 181.567 108.065 182.436 110.918C183.374 114.013 184.317 117.114 185.543 120.104C186.416 121.999 187.157 123.953 187.763 125.95C188.462 128.64 188.49 131.585 189.982 133.936C191.006 135.414 192.373 136.621 193.966 137.453C199.458 140.599 206.083 141.26 212.364 140.504C218.644 139.748 224.67 137.67 230.673 135.597C232 135.201 233.273 134.641 234.462 133.93C238.596 131.224 239.517 125.678 240.288 120.793C241.148 115.341 242.296 109.906 244.332 104.783C245.542 101.737 247.107 98.642 246.84 95.3688C246.84 95.3355 246.829 95.3021 246.829 95.2688Z" fill="black"/>
<path opacity="0.1" d="M180.422 93.1182C180.422 93.1182 180.422 93.0793 180.422 93.0571C180.523 92.0772 180.436 91.0872 180.167 90.1396C180.057 89.5298 179.984 88.9135 179.951 88.2946C179.887 89.4698 179.96 90.6484 180.167 91.8067C180.256 92.2402 180.356 92.6792 180.422 93.1182Z" fill="black"/>
<path opacity="0.1" d="M182.115 79.5255C182.541 78.8075 183.026 78.1254 183.563 77.486C182.547 78.4585 180.672 77.5916 180.278 76.2412C180.133 76.7874 180.133 77.3622 180.278 77.9084C180.415 78.3161 180.657 78.6805 180.979 78.9645C181.302 79.2485 181.693 79.442 182.115 79.5255Z" fill="black"/>
</g>
<path opacity="0.1" d="M320.687 222.105C320.687 222.105 322.446 228.496 320.687 234.053C318.928 239.611 320.687 222.105 320.687 222.105Z" fill="black"/>
<path opacity="0.1" d="M328.177 228.624C328.177 228.624 328.915 236.737 327.25 238.177C325.586 239.616 328.177 228.624 328.177 228.624Z" fill="black"/>
<path d="M51.5374 143.861L107.913 143.305" stroke="#6C63FF" stroke-width="2" stroke-miterlimit="10"/>
<path d="M51.5374 150.79L107.913 150.24" stroke="#6C63FF" stroke-width="2" stroke-miterlimit="10"/>
<path d="M51.5374 157.726L107.913 157.17" stroke="#6C63FF" stroke-width="2" stroke-miterlimit="10"/>
</svg>
