<svg width="28" height="24" viewBox="0 0 28 24" fill="none" xmlns="http://www.w3.org/2000/svg">
<g clip-path="url(#clip0_99:54)" filter="url(#filter0_d_99:54)">
<path d="M24.7861 17.3674C24.7216 17.2593 24.3225 16.3923 22.4024 14.6102C20.3922 12.744 20.6623 13.047 23.0834 9.8203C24.558 7.85515 25.1476 6.65506 24.9631 6.14202C24.7876 5.65298 23.703 5.78199 23.703 5.78199L20.0967 5.803C20.0967 5.803 19.8297 5.76699 19.6302 5.8855C19.4367 6.00251 19.3122 6.27253 19.3122 6.27253C19.3122 6.27253 18.7406 7.79364 17.9786 9.08674C16.372 11.8154 15.7284 11.9595 15.4659 11.7899C14.8553 11.3954 15.0084 10.2028 15.0084 9.35676C15.0084 6.71206 15.4089 5.60948 14.2268 5.32446C13.8338 5.22995 13.5457 5.16695 12.5422 5.15645C11.2551 5.14295 10.1645 5.16095 9.54795 5.46247C9.13692 5.66349 8.8204 6.11202 9.01392 6.13752C9.25243 6.16902 9.79247 6.28303 10.079 6.67306C10.4495 7.1756 10.436 8.30668 10.436 8.30668C10.436 8.30668 10.649 11.4194 9.93948 11.8064C9.45195 12.072 8.7844 11.5304 7.3518 9.05374C6.61824 7.78614 6.0632 6.38354 6.0632 6.38354C6.0632 6.38354 5.95669 6.12252 5.76618 5.98301C5.53516 5.8135 5.21114 5.75949 5.21114 5.75949L1.78189 5.78049C1.78189 5.78049 1.26735 5.7955 1.07834 6.01901C0.910328 6.21853 1.06484 6.62956 1.06484 6.62956C1.06484 6.62956 3.75003 12.9105 6.78926 16.0773C9.57796 18.98 12.7432 18.7895 12.7432 18.7895H14.1773C14.1773 18.7895 14.6108 18.7415 14.8313 18.5029C15.0354 18.2839 15.0279 17.8729 15.0279 17.8729C15.0279 17.8729 14.9994 15.9483 15.8934 15.6647C16.774 15.3857 17.9051 17.5249 19.1036 18.3484C20.0097 18.971 20.6983 18.8345 20.6983 18.8345L23.904 18.7895C23.904 18.7895 25.5811 18.686 24.7861 17.3674Z" fill="white"/>
</g>
<defs>
<filter id="filter0_d_99:54" x="0" y="0" width="28" height="28" filterUnits="userSpaceOnUse" color-interpolation-filters="sRGB">
<feFlood flood-opacity="0" result="BackgroundImageFix"/>
<feColorMatrix in="SourceAlpha" type="matrix" values="0 0 0 0 0 0 0 0 0 0 0 0 0 0 0 0 0 0 127 0" result="hardAlpha"/>
<feOffset dx="1" dy="2"/>
<feGaussianBlur stdDeviation="1"/>
<feColorMatrix type="matrix" values="0 0 0 0 1 0 0 0 0 0.890101 0 0 0 0 0.829167 0 0 0 0.54 0"/>
<feBlend mode="normal" in2="BackgroundImageFix" result="effect1_dropShadow_99:54"/>
<feBlend mode="normal" in="SourceGraphic" in2="effect1_dropShadow_99:54" result="shape"/>
</filter>
<clipPath id="clip0_99:54">
<rect width="24" height="24" fill="white" transform="translate(1)"/>
</clipPath>
</defs>
</svg>
