<svg width="24" height="14" viewBox="0 0 24 14" fill="none" xmlns="http://www.w3.org/2000/svg">
<path d="M23.786 12.3674C23.7215 12.2593 23.3225 11.3923 21.4024 9.61015C19.3922 7.74401 19.6622 8.04704 22.0834 4.8203C23.558 2.85515 24.1476 1.65506 23.963 1.14202C23.7875 0.652985 22.703 0.781994 22.703 0.781994L19.0967 0.802996C19.0967 0.802996 18.8297 0.766993 18.6302 0.885502C18.4366 1.00251 18.3121 1.27253 18.3121 1.27253C18.3121 1.27253 17.7406 2.79364 16.9785 4.08674C15.3719 6.81544 14.7284 6.95945 14.4659 6.78994C13.8553 6.39541 14.0083 5.20282 14.0083 4.35676C14.0083 1.71206 14.4089 0.609481 13.2268 0.32446C12.8337 0.229953 12.5457 0.166948 11.5421 0.156448C10.255 0.142947 9.16447 0.160948 8.54792 0.46247C8.13689 0.663485 7.82037 1.11202 8.01389 1.13752C8.2524 1.16902 8.79244 1.28303 9.07896 1.67306C9.44949 2.1756 9.43599 3.30668 9.43599 3.30668C9.43599 3.30668 9.649 6.41941 8.93945 6.80644C8.45192 7.07196 7.78437 6.53042 6.35176 4.05374C5.61821 2.78614 5.06317 1.38354 5.06317 1.38354C5.06317 1.38354 4.95666 1.12252 4.76615 0.983009C4.53513 0.813497 4.21111 0.759493 4.21111 0.759493L0.781861 0.780494C0.781861 0.780494 0.267324 0.795496 0.07831 1.01901C-0.0897022 1.21853 0.0648091 1.62956 0.0648091 1.62956C0.0648091 1.62956 2.75 7.91052 5.78922 11.0773C8.57793 13.98 11.7432 13.7895 11.7432 13.7895H13.1773C13.1773 13.7895 13.6108 13.7415 13.8313 13.5029C14.0353 13.2839 14.0278 12.8729 14.0278 12.8729C14.0278 12.8729 13.9993 10.9483 14.8934 10.6647C15.7739 10.3857 16.905 12.5249 18.1036 13.3484C19.0097 13.971 19.6982 13.8345 19.6982 13.8345L22.904 13.7895C22.904 13.7895 24.5811 13.686 23.786 12.3674Z" fill="white"/>
</svg>
