<svg width="28" height="24" viewBox="0 0 28 24" fill="none" xmlns="http://www.w3.org/2000/svg">
<g clip-path="url(#clip0_255:4309)" filter="url(#filter0_d_255:4309)">
<path d="M24.7861 17.3671C24.7216 17.2591 24.3225 16.392 22.4024 14.6099C20.3922 12.7438 20.6623 13.0468 23.0834 9.82005C24.558 7.8549 25.1476 6.65482 24.9631 6.14178C24.7876 5.65274 23.703 5.78175 23.703 5.78175L20.0967 5.80275C20.0967 5.80275 19.8297 5.76675 19.6302 5.88526C19.4367 6.00227 19.3122 6.27229 19.3122 6.27229C19.3122 6.27229 18.7406 7.7934 17.9786 9.0865C16.372 11.8152 15.7284 11.9592 15.4659 11.7897C14.8553 11.3952 15.0084 10.2026 15.0084 9.35652C15.0084 6.71182 15.4089 5.60924 14.2268 5.32422C13.8338 5.22971 13.5457 5.1667 12.5422 5.1562C11.2551 5.1427 10.1645 5.1607 9.54795 5.46223C9.13692 5.66324 8.8204 6.11178 9.01392 6.13728C9.25243 6.16878 9.79247 6.28279 10.079 6.67282C10.4495 7.17535 10.436 8.30644 10.436 8.30644C10.436 8.30644 10.649 11.4192 9.93948 11.8062C9.45195 12.0717 8.7844 11.5302 7.3518 9.05349C6.61824 7.7859 6.0632 6.3833 6.0632 6.3833C6.0632 6.3833 5.95669 6.12228 5.76618 5.98277C5.53516 5.81325 5.21114 5.75925 5.21114 5.75925L1.78189 5.78025C1.78189 5.78025 1.26735 5.79525 1.07834 6.01877C0.910328 6.21828 1.06484 6.62931 1.06484 6.62931C1.06484 6.62931 3.75003 12.9103 6.78926 16.077C9.57796 18.9797 12.7432 18.7892 12.7432 18.7892H14.1773C14.1773 18.7892 14.6108 18.7412 14.8313 18.5027C15.0354 18.2837 15.0279 17.8727 15.0279 17.8727C15.0279 17.8727 14.9994 15.948 15.8934 15.6645C16.774 15.3855 17.9051 17.5246 19.1036 18.3482C20.0097 18.9707 20.6983 18.8342 20.6983 18.8342L23.904 18.7892C23.904 18.7892 25.5811 18.6857 24.7861 17.3671Z" fill="white"/>
</g>
<defs>
<filter id="filter0_d_255:4309" x="0" y="-1" width="28" height="28" filterUnits="userSpaceOnUse" color-interpolation-filters="sRGB">
<feFlood flood-opacity="0" result="BackgroundImageFix"/>
<feColorMatrix in="SourceAlpha" type="matrix" values="0 0 0 0 0 0 0 0 0 0 0 0 0 0 0 0 0 0 127 0" result="hardAlpha"/>
<feOffset dx="1" dy="1"/>
<feGaussianBlur stdDeviation="1"/>
<feColorMatrix type="matrix" values="0 0 0 0 1 0 0 0 0 0.890101 0 0 0 0 0.829167 0 0 0 0.38 0"/>
<feBlend mode="normal" in2="BackgroundImageFix" result="effect1_dropShadow_255:4309"/>
<feBlend mode="normal" in="SourceGraphic" in2="effect1_dropShadow_255:4309" result="shape"/>
</filter>
<clipPath id="clip0_255:4309">
<rect width="24" height="24" fill="white" transform="translate(1)"/>
</clipPath>
</defs>
</svg>
