<svg width="61" height="61" viewBox="0 0 61 61" fill="none" xmlns="http://www.w3.org/2000/svg">
<path d="M24.0675 42.7478C23.8371 42.7478 23.605 42.6686 23.4156 42.5073L16.8988 36.9583C16.6741 36.7666 16.5448 36.4868 16.5448 36.1912C16.5448 35.8961 16.6746 35.6163 16.8988 35.4246L23.4156 29.8756C23.8388 29.5148 24.4744 29.5659 24.8352 29.9891C25.1954 30.4129 25.1448 31.0485 24.7211 31.4087L19.1052 36.1912L24.7211 40.9737C25.1448 41.3345 25.1954 41.9701 24.8352 42.3932C24.6357 42.6276 24.3524 42.7478 24.0675 42.7478Z" fill="#B961FF"/>
<path d="M36.9324 42.7478C36.6475 42.7478 36.3643 42.6276 36.1653 42.3932C35.8045 41.9701 35.8557 41.3345 36.2789 40.9737L41.8948 36.1912L36.2789 31.4087C35.8557 31.0485 35.8045 30.4129 36.1653 29.9891C36.5256 29.5659 37.1617 29.5148 37.5843 29.8756L44.1011 35.4246C44.3259 35.6163 44.4552 35.8961 44.4552 36.1912C44.4552 36.4868 44.3259 36.7666 44.1011 36.9583L37.5843 42.5073C37.395 42.6686 37.1629 42.7478 36.9324 42.7478Z" fill="#B961FF"/>
<path d="M28.1931 46.9098C28.1239 46.9098 28.0542 46.9025 27.984 46.8879C27.44 46.7732 27.0916 46.2388 27.2062 45.6948L31.2677 26.4114C31.3823 25.8674 31.9162 25.519 32.4608 25.6336C33.0048 25.7483 33.3532 26.2822 33.2385 26.8267L29.1771 46.1101C29.0771 46.5844 28.6589 46.9098 28.1931 46.9098Z" fill="#B961FF"/>
<path d="M54.2382 57.4155H6.76179C3.03359 57.4155 0 54.3825 0 50.6537V10.3583C0 6.63015 3.03359 3.59656 6.76179 3.59656H54.2382C57.9664 3.59656 61 6.63015 61 10.3583V50.6537C61 54.3825 57.9664 57.4155 54.2382 57.4155ZM6.76179 5.61071C4.14407 5.61071 2.01415 7.74063 2.01415 10.3583V50.6537C2.01415 53.2715 4.14407 55.4014 6.76179 55.4014H54.2382C56.8559 55.4014 58.9858 53.2715 58.9858 50.6537V10.3583C58.9858 7.74063 56.8559 5.61071 54.2382 5.61071H6.76179Z" fill="#B961FF"/>
<path d="M59.9929 19.7227H1.00708C0.450711 19.7227 0 19.2719 0 18.7156C0 18.1598 0.450711 17.7085 1.00708 17.7085H59.9929C60.5493 17.7085 61 18.1598 61 18.7156C61 19.2719 60.5493 19.7227 59.9929 19.7227Z" fill="#B961FF"/>
<path d="M17.2068 14.9037C15.4501 14.9037 14.0198 13.4734 14.0198 11.7167C14.0198 9.95935 15.4501 8.52966 17.2068 8.52966C18.9642 8.52966 20.3939 9.95935 20.3939 11.7167C20.3939 13.4734 18.9642 14.9037 17.2068 14.9037ZM17.2068 10.5438C16.5606 10.5438 16.034 11.0698 16.034 11.7167C16.034 12.3635 16.5606 12.8895 17.2068 12.8895C17.8537 12.8895 18.3797 12.3635 18.3797 11.7167C18.3797 11.0698 17.8537 10.5438 17.2068 10.5438Z" fill="#B961FF"/>
<path d="M7.4148 14.8728C5.65747 14.8728 4.22778 13.4431 4.22778 11.6858C4.22778 9.92847 5.65747 8.49878 7.4148 8.49878C9.17212 8.49878 10.6018 9.92847 10.6018 11.6858C10.6018 13.4431 9.17212 14.8728 7.4148 14.8728ZM7.4148 10.5129C6.76851 10.5129 6.24193 11.0395 6.24193 11.6858C6.24193 12.3326 6.76851 12.8587 7.4148 12.8587C8.06164 12.8587 8.58766 12.3326 8.58766 11.6858C8.58766 11.0395 8.06164 10.5129 7.4148 10.5129Z" fill="#B961FF"/>
<path d="M26.9988 14.934C25.2421 14.934 23.8124 13.5043 23.8124 11.747C23.8124 9.99024 25.2421 8.56055 26.9988 8.56055C28.7562 8.56055 30.1858 9.99024 30.1858 11.747C30.1858 13.5043 28.7562 14.934 26.9988 14.934ZM26.9988 10.5741C26.3525 10.5741 25.8265 11.1002 25.8265 11.747C25.8265 12.3938 26.3525 12.9199 26.9988 12.9199C27.6457 12.9199 28.1717 12.3938 28.1717 11.747C28.1717 11.1002 27.6457 10.5741 26.9988 10.5741Z" fill="#B961FF"/>
</svg>
