<svg width="67" height="67" viewBox="0 0 67 67" fill="none" xmlns="http://www.w3.org/2000/svg">
<path d="M6.28125 5.23438H8.375V7.32812H6.28125V5.23438Z" fill="#B961FF"/>
<path d="M10.4688 5.23438H12.5625V7.32812H10.4688V5.23438Z" fill="#B961FF"/>
<path d="M14.6562 5.23438H16.75V7.32812H14.6562V5.23438Z" fill="#B961FF"/>
<path d="M7.32812 31.4062H30.3594C30.637 31.4062 30.9033 31.296 31.0996 31.0996C31.296 30.9033 31.4062 30.637 31.4062 30.3594V13.6094C31.4062 13.3317 31.296 13.0654 31.0996 12.8691C30.9033 12.6728 30.637 12.5625 30.3594 12.5625H7.32812C7.05048 12.5625 6.7842 12.6728 6.58787 12.8691C6.39155 13.0654 6.28125 13.3317 6.28125 13.6094V30.3594C6.28125 30.637 6.39155 30.9033 6.58787 31.0996C6.7842 31.296 7.05048 31.4062 7.32812 31.4062ZM8.375 14.6562H29.3125V29.3125H8.375V14.6562Z" fill="#B961FF"/>
<path d="M7.32812 51.2969H30.3594C30.637 51.2969 30.9033 51.1866 31.0996 50.9903C31.296 50.7939 31.4062 50.5276 31.4062 50.25V34.5469C31.4062 34.2692 31.296 34.0029 31.0996 33.8066C30.9033 33.6103 30.637 33.5 30.3594 33.5H7.32812C7.05048 33.5 6.7842 33.6103 6.58787 33.8066C6.39155 34.0029 6.28125 34.2692 6.28125 34.5469V50.25C6.28125 50.5276 6.39155 50.7939 6.58787 50.9903C6.7842 51.1866 7.05048 51.2969 7.32812 51.2969ZM8.375 35.5938H29.3125V49.2031H8.375V35.5938Z" fill="#B961FF"/>
<path d="M49.2031 51.2969H51.2969V53.3906H49.2031V51.2969Z" fill="#B961FF"/>
<path d="M57.5781 51.2969H59.6719V53.3906H57.5781V51.2969Z" fill="#B961FF"/>
<path d="M54.4375 58.625C53.8822 58.625 53.3496 58.4044 52.957 58.0118C52.5643 57.6191 52.3438 57.0865 52.3438 56.5312H50.25C50.25 57.6418 50.6912 58.707 51.4765 59.4923C52.2618 60.2776 53.3269 60.7188 54.4375 60.7188C55.5481 60.7188 56.6132 60.2776 57.3985 59.4923C58.1838 58.707 58.625 57.6418 58.625 56.5312H56.5312C56.5312 57.0865 56.3107 57.6191 55.918 58.0118C55.5254 58.4044 54.9928 58.625 54.4375 58.625Z" fill="#B961FF"/>
<path d="M23.5547 21.0757L16.2266 16.8882C16.0673 16.7962 15.8866 16.7478 15.7026 16.7479C15.5187 16.748 15.338 16.7966 15.1788 16.8887C15.0196 16.9808 14.8875 17.1133 14.7957 17.2727C14.704 17.4321 14.6559 17.6129 14.6563 17.7969V26.1719C14.6559 26.3558 14.704 26.5366 14.7957 26.696C14.8875 26.8555 15.0196 26.9879 15.1788 27.08C15.338 27.1722 15.5187 27.2207 15.7026 27.2208C15.8866 27.2209 16.0673 27.1725 16.2266 27.0806L23.5547 22.8931C23.7148 22.8015 23.8479 22.6692 23.9404 22.5096C24.033 22.35 24.0817 22.1688 24.0817 21.9844C24.0817 21.7999 24.033 21.6187 23.9404 21.4591C23.8479 21.2996 23.7148 21.1673 23.5547 21.0757ZM16.75 24.3671V19.6017L20.9208 21.9844L16.75 24.3671Z" fill="#B961FF"/>
<path d="M55.4844 32.453C55.6835 32.4531 55.8785 32.3964 56.0465 32.2896C56.2146 32.1828 56.3486 32.0302 56.433 31.8499C56.5174 31.6696 56.5487 31.4689 56.523 31.2714C56.4974 31.074 56.416 30.8879 56.2884 30.7351L51.054 24.4539C50.9609 24.3421 50.8455 24.2509 50.7152 24.1862C50.5848 24.1215 50.4425 24.0846 50.2971 24.078C50.1516 24.0692 50.0059 24.0919 49.87 24.1447C49.7341 24.1974 49.6113 24.279 49.5099 24.3837L47.9741 25.9205L45.8102 23.3976C45.7091 23.2876 45.5863 23.1998 45.4495 23.1398C45.3128 23.0797 45.165 23.0487 45.0156 23.0487C44.8663 23.0487 44.7185 23.0797 44.5817 23.1398C44.445 23.1998 44.3221 23.2876 44.2211 23.3976L37.9398 30.7257C37.8098 30.8777 37.726 31.0638 37.6985 31.2619C37.6709 31.46 37.7007 31.6619 37.7843 31.8436C37.8679 32.0254 38.0018 32.1794 38.1702 32.2873C38.3386 32.3953 38.5343 32.4528 38.7344 32.453H55.4844ZM41.0103 30.3593L45.0156 25.686L49.021 30.3593H41.0103ZM50.1799 26.6753L53.2493 30.3593H51.7784L49.3403 27.5149L50.1799 26.6753Z" fill="#B961FF"/>
<path d="M63.8594 2.09375H3.14062C2.86298 2.09375 2.5967 2.20405 2.40037 2.40037C2.20405 2.5967 2.09375 2.86298 2.09375 3.14063V54.4375C2.09375 54.7152 2.20405 54.9814 2.40037 55.1778C2.5967 55.3741 2.86298 55.4844 3.14062 55.4844H44.0221C44.2929 58.1549 45.579 60.6194 47.6149 62.3687C49.6508 64.118 52.2808 65.0185 54.9616 64.8841C57.6424 64.7497 60.1692 63.5907 62.02 61.6466C63.8707 59.7024 64.9039 57.1217 64.9062 54.4375V3.14063C64.9062 2.86298 64.796 2.5967 64.5996 2.40037C64.4033 2.20405 64.137 2.09375 63.8594 2.09375ZM54.4375 62.8125C52.7811 62.8125 51.1619 62.3213 49.7846 61.4011C48.4073 60.4808 47.3339 59.1728 46.7 57.6425C46.0661 56.1121 45.9003 54.4282 46.2234 52.8036C46.5466 51.179 47.3442 49.6868 48.5155 48.5155C49.6867 47.3442 51.179 46.5466 52.8036 46.2234C54.4282 45.9003 56.1121 46.0661 57.6425 46.7C59.1728 47.3339 60.4808 48.4073 61.4011 49.7846C62.3213 51.1619 62.8125 52.7811 62.8125 54.4375C62.81 56.6579 61.9268 58.7867 60.3568 60.3568C58.7867 61.9268 56.6579 62.81 54.4375 62.8125ZM45.3852 49.2031H35.5938V14.6563H58.625V44.8492C56.2696 43.8148 53.6151 43.6871 51.1713 44.4908C48.7275 45.2944 46.6669 46.9726 45.3852 49.2031ZM62.8125 48.1835C62.2169 47.3881 61.512 46.6808 60.7188 46.0824V13.6094C60.7188 13.3317 60.6085 13.0655 60.4121 12.8691C60.2158 12.6728 59.9495 12.5625 59.6719 12.5625H34.5469C34.2692 12.5625 34.0029 12.6728 33.8066 12.8691C33.6103 13.0655 33.5 13.3317 33.5 13.6094V50.25C33.5 50.5277 33.6103 50.7939 33.8066 50.9903C34.0029 51.1866 34.2692 51.2969 34.5469 51.2969H44.4514C44.2364 51.9781 44.0926 52.6798 44.0221 53.3906H4.1875V10.4688H62.8125V48.1835ZM62.8125 8.375H4.1875V4.1875H62.8125V8.375Z" fill="#B961FF"/>
<path d="M10.4688 37.6875H27.2188V39.7812H10.4688V37.6875Z" fill="#B961FF"/>
<path d="M10.4688 41.875H27.2188V43.9688H10.4688V41.875Z" fill="#B961FF"/>
</svg>
