<svg width="276" height="558" viewBox="0 0 276 558" fill="none" xmlns="http://www.w3.org/2000/svg">
<path d="M135.481 95.8588C135.481 95.8588 133.203 151.252 128.457 161.419C123.71 171.587 95.616 218.398 84.5461 217.313C63.5963 215.226 33.6015 116.509 29.9346 104.18C28.1404 101.235 26.2447 99.333 23.1497 97.8904C8.18229 90.8446 5.56242 85.0697 2.43056 79.9256L0.179688 64.7439C7.01534 60.713 12.5549 71.9845 14.3953 74.6563C19.2845 81.7532 25.5021 80.0462 27.7206 79.7586C30.9863 79.3226 26.0832 75.3845 24.206 71.8175C21.4984 66.6735 25.0131 63.7095 25.0131 63.7095C25.6866 66.4183 37.0055 78.7799 40.6171 83.0287C43.938 86.9297 43.6244 95.0563 43.5506 96.369C48.0708 103.29 82.964 163.395 82.964 163.395C82.964 163.395 102.641 115.934 110.639 107.112C116.45 100.729 129.942 97.6678 135.481 95.8588Z" fill="#FFD1CB"/>
<path fill-rule="evenodd" clip-rule="evenodd" d="M0.0202133 64.6585C0.112084 64.2855 0.487233 64.0581 0.858132 64.1505C3.17038 64.7264 4.54535 66.7106 5.32429 68.3836C5.7213 69.2363 5.98443 70.0518 6.14842 70.6524C6.23066 70.9536 6.28857 71.2031 6.32625 71.379C6.3303 71.3979 6.33411 71.416 6.3377 71.4331C7.90489 72.977 8.91572 75.0753 9.53583 76.7604C9.85968 77.6404 10.0836 78.4264 10.2269 78.9935C10.2986 79.2773 10.3503 79.5072 10.3844 79.6675C10.4014 79.7477 10.4141 79.8106 10.4226 79.8543C10.4269 79.8761 10.4301 79.8932 10.4323 79.9052L10.435 79.9193L10.4357 79.9235L10.4361 79.9254C10.4361 79.9256 10.4361 79.9257 9.75526 80.0493L10.4361 79.9254C10.5039 80.3035 10.2542 80.6658 9.87814 80.734C9.50219 80.8023 9.14242 80.5512 9.07444 80.1732L9.07414 80.1715L9.07247 80.1625C9.0718 80.1589 9.07096 80.1545 9.06995 80.1492C9.06855 80.1419 9.06683 80.1329 9.06476 80.1223C9.05765 80.0858 9.04655 80.0305 9.03119 79.9582C9.00047 79.8135 8.95273 79.6011 8.88579 79.3362C8.75174 78.8056 8.54154 78.0679 8.2381 77.2433C7.62515 75.5776 6.65793 73.6307 5.22938 72.2927L5.05797 72.1322L5.01889 71.9005L5.01879 71.8999L5.01863 71.899L5.01699 71.8897C5.01539 71.8808 5.01277 71.8664 5.00907 71.847C5.00168 71.808 4.98998 71.7488 4.97352 71.6719C4.94057 71.5181 4.88865 71.294 4.81407 71.0209C4.66441 70.4727 4.42594 69.7358 4.07112 68.9737C3.34639 67.4171 2.21681 65.9225 0.525441 65.5012C0.154541 65.4088 -0.071657 65.0315 0.0202133 64.6585Z" fill="#EEB9AF"/>
<path fill-rule="evenodd" clip-rule="evenodd" d="M8.96478 70.3209C8.93983 70.2633 8.90801 70.1911 8.86957 70.1061C8.76606 69.8772 8.61409 69.555 8.4181 69.1763C8.02781 68.4221 7.45523 67.4289 6.73428 66.5009C6.01987 65.5814 5.12125 64.6753 4.06485 64.1575C2.97518 63.6234 1.72365 63.5097 0.421384 64.1861C0.0818866 64.3625 -0.0511787 64.7822 0.124174 65.1236C0.299526 65.465 0.716894 65.5988 1.05639 65.4225C1.91967 64.9741 2.70742 65.0402 3.45856 65.4083C4.24295 65.7928 4.98666 66.5117 5.64388 67.3577C6.29456 68.1952 6.82292 69.1081 7.19065 69.8187C7.37367 70.1724 7.51499 70.4722 7.61001 70.6822C7.65749 70.7872 7.69331 70.8696 7.71691 70.9248C7.7287 70.9524 7.73743 70.9732 7.74303 70.9867L7.74906 71.0013L7.7503 71.0043L7.75033 71.0044L7.75044 71.0046L7.75046 71.0047L7.81414 71.1617L7.94286 71.2717C9.43714 72.549 10.4982 74.4476 11.191 76.0784C11.534 76.8859 11.7797 77.6106 11.9392 78.1323C12.0189 78.3928 12.0768 78.6019 12.1145 78.7444C12.1333 78.8156 12.1471 78.8701 12.156 78.906C12.1576 78.9127 12.1591 78.9187 12.1604 78.9241C12.1626 78.9332 12.1643 78.9404 12.1656 78.9456L12.1677 78.9545L12.168 78.9559L12.1681 78.9561C12.2545 79.3303 12.6262 79.5632 12.9984 79.4764C13.3706 79.3895 13.6023 79.0156 13.5159 78.6413L12.842 78.7986C13.5159 78.6413 13.5159 78.6411 13.5158 78.641L13.5157 78.6405L13.5154 78.6391L13.5144 78.635L13.5111 78.621C13.5097 78.615 13.508 78.6077 13.5059 78.5992C13.5039 78.5909 13.5016 78.5814 13.499 78.5708C13.4883 78.5278 13.4727 78.4658 13.4518 78.3868C13.41 78.2288 13.3472 78.0025 13.2618 77.7233C13.0913 77.1656 12.8296 76.3935 12.4635 75.5317C11.7556 73.8655 10.63 71.7975 8.96478 70.3209Z" fill="#EEB9AF"/>
<path d="M94.2417 558.009H88.7436L89.0204 542.702L82.2493 558.009H40.5204C40.5204 558.009 39.7871 549.345 46.6688 548.143C52.4944 547.123 58.0339 540.954 58.0339 540.954L86.5481 513.216C89.108 516.337 96.3911 523.884 96.6955 535.698C96.813 543.209 95.9885 550.706 94.2417 558.009Z" fill="#FFB000"/>
<path d="M31.8813 299.432C22.9055 300.662 8.96202 316.841 19.9489 348.749C30.9357 380.657 71.636 503.595 71.2301 512.835C70.6905 525.178 58.0339 540.944 58.0339 540.944C58.0339 540.944 71.5069 548.041 79.5741 536.607C87.6413 525.173 86.5481 513.206 86.5481 513.206C86.5481 513.206 89.7999 413.089 77.7844 350.182C72.2633 321.363 48.0157 297.22 31.8813 299.432Z" fill="#FFD1CB"/>
<path d="M81.576 376.403C78.0151 376.515 74.3713 376.515 70.6767 376.38C51.1338 375.68 36.1064 371.078 26.0374 366.718C25.1149 364 24.2708 361.449 23.4683 359.088C33.4681 362.873 49.3949 367.27 70.6767 368.031C73.5887 368.139 76.4592 368.19 79.2882 368.184C80.0262 370.786 80.7918 373.532 81.576 376.403Z" fill="#F3C2B9"/>
<path d="M135.966 558.01H130.468L130.74 542.73L121.663 558.01H81.3222C81.3222 558.01 80.5888 549.345 87.4706 548.143C93.2961 547.123 99.7582 540.954 99.7582 540.954L128.272 513.216C130.832 516.337 138.115 523.884 138.42 535.698C138.535 543.209 137.71 550.705 135.966 558.01Z" fill="#FFC440"/>
<path d="M77.291 300.082C70.031 305.523 62.6557 317.768 73.6379 349.677C84.6202 381.585 113.688 503.614 112.954 512.835C112.221 522.056 99.7583 540.944 99.7583 540.944C99.7583 540.944 113.231 548.041 121.298 536.607C129.366 525.173 128.272 513.206 128.272 513.206C128.272 513.206 148.415 421.448 136.99 360.41C130.74 326.897 97.4613 284.96 77.291 300.082Z" fill="#FFD1CB"/>
<path d="M137.949 365.999C129.555 368.922 107.793 375.573 81.7421 376.399H81.576C80.7919 373.528 80.0262 370.782 79.2698 368.179C98.7629 368.126 118.196 366.008 137.248 361.862C137.516 363.23 137.737 364.608 137.949 365.999Z" fill="#F3C2B9"/>
<path d="M11.1344 353.341C11.1344 353.341 3.8237 311.437 32.4255 292.906C61.0273 274.375 144.55 259.12 140.915 240.273L214.078 238.613C214.078 238.613 230.623 262.867 233.302 288.597C236.411 318.381 229.714 340.891 169.189 340.766C136.708 340.696 141.192 360.92 141.192 360.92C141.192 360.92 109.241 369.418 70.672 368.031C32.1026 366.644 11.1344 353.341 11.1344 353.341Z" fill="#424D76"/>
<path d="M149.623 90.3855C145.269 91.3781 135.482 95.8543 135.482 95.8543C135.482 95.8543 122.105 146.878 118.877 153.738C115.648 160.598 113.54 171.638 127.179 181.485L141.016 241.159H214.101C214.101 241.159 219.737 178.8 223.598 157.017C227.458 135.235 222.634 93.5675 222.634 93.5675L195.568 90.3855H149.623Z" fill="#FFB000"/>
<path d="M275.617 226.043C272.388 245.482 161.408 241.572 154.236 241.298C152.52 243.084 146.473 248.868 141.321 247.737C135.242 246.392 130.094 242.746 126.353 244.518C122.613 246.289 118.323 249.982 115.805 249.805C112.808 249.626 109.859 248.969 107.069 247.857C108.843 245.296 110.756 242.834 112.797 240.482C110.593 241.475 107.608 243.585 105.989 244.365C105.302 244.731 104.511 244.854 103.745 244.716C102.979 244.577 102.282 244.184 101.764 243.599C101.764 243.599 107.299 238.594 109.31 237.388C111.215 236.229 117.152 233.39 120.039 233.181C123.526 232.671 144.227 228.543 153.756 229.521V229.609C157.935 228.482 234.428 207.911 239.815 206.746C239.815 206.746 220.826 144.09 218.257 133.751C215.687 123.411 214.82 92.8253 222.634 93.5675C227.707 94.0545 239.239 95.1538 245.959 110.688C250.747 121.728 279.63 202.048 275.617 226.043Z" fill="#FFD1CB"/>
<path fill-rule="evenodd" clip-rule="evenodd" d="M129.372 235.883C129.742 235.789 130.118 236.015 130.212 236.388C130.305 236.761 130.08 237.139 129.709 237.232L129.541 236.558L129.372 235.883ZM120.872 239.454C122.789 238.977 124.998 238.421 126.727 237.985C127.593 237.767 128.338 237.579 128.867 237.445L129.709 237.232C129.709 237.232 129.709 237.232 129.541 236.558C129.372 235.883 129.372 235.883 129.372 235.883L128.53 236.096C128.001 236.229 127.256 236.417 126.391 236.635C124.661 237.071 122.452 237.627 120.537 238.104L120.533 238.105C120.14 238.205 119.69 238.461 119.248 238.758C118.787 239.067 118.266 239.469 117.716 239.925C116.614 240.836 115.359 241.992 114.182 243.122C113.002 244.253 111.891 245.366 111.076 246.196C110.669 246.611 110.334 246.955 110.102 247.196C109.986 247.317 109.895 247.411 109.833 247.476L109.762 247.55L109.738 247.575C109.738 247.575 109.738 247.576 110.237 248.057L109.738 247.575C109.474 247.853 109.483 248.294 109.759 248.559C110.035 248.825 110.473 248.815 110.737 248.538L110.237 248.057C110.737 248.538 110.737 248.538 110.737 248.538L110.76 248.513L110.83 248.441C110.89 248.378 110.98 248.284 111.095 248.165C111.325 247.927 111.656 247.585 112.061 247.174C112.87 246.35 113.97 245.247 115.137 244.129C116.305 243.008 117.531 241.879 118.595 240.999C119.127 240.559 119.609 240.189 120.016 239.915C120.441 239.63 120.723 239.493 120.872 239.454Z" fill="#EEB9AF"/>
<path fill-rule="evenodd" clip-rule="evenodd" d="M132.223 238.351C132.594 238.257 132.969 238.484 133.062 238.856C133.155 239.229 132.93 239.607 132.559 239.7L132.391 239.026L132.223 238.351ZM114.209 248.59C113.734 248.084 113.734 248.084 113.734 248.084L113.755 248.064L113.817 248.006C113.871 247.955 113.949 247.881 114.05 247.787C114.252 247.598 114.542 247.329 114.897 247.004C115.607 246.354 116.577 245.481 117.616 244.59C118.654 243.701 119.77 242.786 120.769 242.057C121.268 241.692 121.747 241.368 122.178 241.114C122.597 240.867 123.016 240.66 123.387 240.567C125.303 240.09 127.512 239.536 129.242 239.101C130.107 238.883 130.852 238.696 131.381 238.563L132.223 238.351C132.223 238.351 132.223 238.351 132.391 239.026C132.559 239.7 132.559 239.7 132.559 239.7L131.717 239.913C131.188 240.046 130.443 240.233 129.578 240.451C127.847 240.886 125.637 241.44 123.72 241.918C123.547 241.961 123.266 242.086 122.877 242.315C122.499 242.537 122.061 242.833 121.582 243.183C120.624 243.882 119.54 244.77 118.514 245.649C117.489 246.527 116.531 247.39 115.829 248.033C115.478 248.354 115.191 248.621 114.992 248.806C114.893 248.899 114.815 248.972 114.763 249.021L114.704 249.077L114.684 249.096L114.209 248.59ZM114.209 248.59L113.734 248.084C113.456 248.348 113.443 248.788 113.706 249.068C113.968 249.347 114.406 249.36 114.684 249.096L114.209 248.59Z" fill="#EEB9AF"/>
<path d="M158.917 60.1517C158.917 62.3365 163.465 76.6601 149.623 90.3854C149.623 90.3854 168.806 97.5472 195.549 90.3854C195.549 90.3854 187.833 60.4161 188.017 51.4824L158.917 60.1517Z" fill="#FFD1CB"/>
<path d="M185.245 58.148C183.862 72.5272 168.816 83.924 154.517 84.4667C162.257 72.7963 158.917 62.0257 158.917 60.1518L184.775 52.3591C185.038 54.6134 185.37 56.8677 185.245 58.148Z" fill="#F3C2B9"/>
<path d="M142.386 32.5435C140.735 30.5953 139.72 18.0065 146.561 12.0553C159.559 0.737404 183.576 -4.06342 197.971 4.04928C211.855 11.8558 217.385 22.1857 215.152 42.1776C213.021 61.3021 208.423 65.1705 220.226 79.3133C230.835 92.0274 234.123 109.969 227.684 125.021C211.979 161.734 242.444 160.955 242.444 179.495H195.24C195.24 179.495 162.275 150.788 178.382 115.095C192.796 83.1632 195.305 72.2164 184.992 54.7943C179.572 45.6193 142.386 32.5435 142.386 32.5435Z" fill="#424D76"/>
<path fill-rule="evenodd" clip-rule="evenodd" d="M218.865 40.9217C221.049 21.3673 205.914 7.4422 193.97 3.53269L194.398 2.20947C206.744 6.25031 222.521 20.657 220.24 41.0771C219.774 45.2629 219.189 48.7241 218.686 51.7059C218.612 52.1465 218.539 52.5766 218.469 52.9971C217.921 56.2755 217.526 58.9367 217.553 61.4294C217.607 66.3321 219.298 70.6837 225.133 77.6878C235.894 90.5842 239.249 108.807 232.698 124.117C228.806 133.228 227.81 139.936 228.439 145.154C229.066 150.358 231.319 154.159 234.089 157.449C235.479 159.1 236.993 160.616 238.504 162.123L238.586 162.205C240.061 163.677 241.535 165.148 242.839 166.7C245.508 169.879 247.514 173.46 247.514 178.317H246.13C246.13 173.906 244.33 170.634 241.781 167.598C240.518 166.093 239.081 164.66 237.59 163.172L237.529 163.111C236.024 161.609 234.468 160.052 233.033 158.348C230.152 154.926 227.735 150.879 227.065 145.322C226.397 139.78 227.476 132.817 231.426 123.568L231.426 123.568C237.753 108.784 234.53 91.114 224.073 78.5823L224.073 78.5819C218.129 71.4482 216.229 66.7943 216.17 61.4448C216.141 58.8114 216.558 56.0349 217.104 52.7666C217.175 52.3435 217.248 51.9117 217.322 51.4702C217.826 48.4883 218.403 45.0661 218.865 40.9219L218.865 40.9217Z" fill="#424D76"/>
<path d="M184.881 45.4246C184.881 45.4246 192.261 44.469 192.745 47.164C193.714 52.642 185.573 54.7804 185.573 54.7804C185.573 54.7804 184.097 58.7741 182.275 62.7864C181.2 65.1567 164.9 72.94 157.525 72.1608C150.149 71.3815 143.074 52.0901 142.986 34.8906C142.912 22.3991 146.962 15.8728 155.5 15.8728C167.4 15.8728 172.962 24.7416 181.113 22.209C181.099 22.2043 175.762 34.6911 184.881 45.4246Z" fill="#FFD1CB"/>
<path fill-rule="evenodd" clip-rule="evenodd" d="M144.753 34.436C140.47 34.436 136.999 37.9269 136.999 42.2333C136.999 46.5396 140.47 50.0305 144.753 50.0305C149.035 50.0305 152.506 46.5396 152.506 42.2333C152.506 37.9269 149.035 34.436 144.753 34.436ZM135.154 42.2333C135.154 36.9022 139.451 32.5806 144.753 32.5806C150.054 32.5806 154.351 36.9022 154.351 42.2333C154.351 47.5643 150.054 51.8859 144.753 51.8859C139.451 51.8859 135.154 47.5643 135.154 42.2333Z" fill="#FFB000"/>
<path fill-rule="evenodd" clip-rule="evenodd" d="M166.39 34.436C162.107 34.436 158.636 37.9269 158.636 42.2333C158.636 46.5396 162.107 50.0305 166.39 50.0305C170.672 50.0305 174.143 46.5396 174.143 42.2333C174.143 37.9269 170.672 34.436 166.39 34.436ZM156.791 42.2333C156.791 36.9022 161.088 32.5806 166.39 32.5806C171.691 32.5806 175.988 36.9022 175.988 42.2333C175.988 47.5643 171.691 51.8859 166.39 51.8859C161.088 51.8859 156.791 47.5643 156.791 42.2333Z" fill="#FFB000"/>
<path fill-rule="evenodd" clip-rule="evenodd" d="M157.714 43.1611H153.424V41.3057H157.714V43.1611Z" fill="#FFB000"/>
<path fill-rule="evenodd" clip-rule="evenodd" d="M193.206 43.1611H175.066V41.3057H193.206V43.1611Z" fill="#FFB000"/>
</svg>
