<svg width="45" height="45" viewBox="0 0 45 45" fill="none" xmlns="http://www.w3.org/2000/svg">
<path d="M17.25 27C13.1078 27 9.75 30.3578 9.75 34.5C9.75 38.6422 13.1078 42 17.25 42C21.3922 42 24.75 38.6422 24.75 34.5C24.7456 30.3596 21.3904 27.0044 17.25 27ZM17.25 40.5C13.9362 40.5 11.25 37.8138 11.25 34.5C11.25 31.1862 13.9362 28.5 17.25 28.5C20.5638 28.5 23.25 31.1862 23.25 34.5C23.2463 37.812 20.562 40.4963 17.25 40.5Z" fill="#B961FF"/>
<path d="M17.25 32.25C18.1659 32.25 18.75 32.6938 18.75 33H20.25C20.25 31.9343 19.3059 31.0712 18 30.8251V30H16.5V30.8251C15.1941 31.0693 14.25 31.9329 14.25 33C14.25 34.2623 15.5676 35.25 17.25 35.25C18.1659 35.25 18.75 35.6938 18.75 36C18.75 36.3062 18.1659 36.75 17.25 36.75C16.3341 36.75 15.75 36.3062 15.75 36H14.25C14.25 37.0657 15.1941 37.9288 16.5 38.1749V39H18V38.1749C19.3059 37.9307 20.25 37.0671 20.25 36C20.25 34.7377 18.9324 33.75 17.25 33.75C16.3341 33.75 15.75 33.3062 15.75 33C15.75 32.6938 16.3341 32.25 17.25 32.25Z" fill="#B961FF"/>
<path d="M38.25 43.5H6.75V25.5H18.75C19.9926 25.5 21 24.4926 21 23.25V4.5H29.25V13.5H38.25V24H39.75V12.4395L30.3105 3H21V2.25C21 1.00745 19.9926 0 18.75 0H2.25C1.00745 0 0 1.00745 0 2.25V23.25C0 24.4926 1.00745 25.5 2.25 25.5H5.25V45H39.75V34.5H38.25V43.5ZM30.75 5.56055L37.1895 12H30.75V5.56055ZM1.5 23.25V2.25C1.5 1.83582 1.83582 1.5 2.25 1.5H18.75C19.1642 1.5 19.5 1.83582 19.5 2.25V23.25C19.5 23.6642 19.1642 24 18.75 24H2.25C1.83582 24 1.5 23.6642 1.5 23.25Z" fill="#B961FF"/>
<path d="M24 18.75H25.5V20.25H24V18.75Z" fill="#B961FF"/>
<path d="M27 18.75H36V20.25H27V18.75Z" fill="#B961FF"/>
<path d="M24 15.75H25.5V17.25H24V15.75Z" fill="#B961FF"/>
<path d="M27 15.75H36V17.25H27V15.75Z" fill="#B961FF"/>
<path d="M24 21.75H25.5V23.25H24V21.75Z" fill="#B961FF"/>
<path d="M27 21.75H36V23.25H27V21.75Z" fill="#B961FF"/>
<path d="M24 24.75H25.5V26.25H24V24.75Z" fill="#B961FF"/>
<path d="M27 24.75H36V26.25H27V24.75Z" fill="#B961FF"/>
<path d="M18.75 2.25H2.25V7.5H18.75V2.25ZM17.25 6H3.75V3.75H17.25V6Z" fill="#B961FF"/>
<path d="M6 8.25H4.5C3.67163 8.25 3 8.92163 3 9.75V11.25C3 12.0784 3.67163 12.75 4.5 12.75H6C6.82837 12.75 7.5 12.0784 7.5 11.25V9.75C7.5 8.92163 6.82837 8.25 6 8.25ZM4.5 11.25V9.75H6V11.25H4.5Z" fill="#B961FF"/>
<path d="M11.25 8.25H9.75C8.92163 8.25 8.25 8.92163 8.25 9.75V11.25C8.25 12.0784 8.92163 12.75 9.75 12.75H11.25C12.0784 12.75 12.75 12.0784 12.75 11.25V9.75C12.75 8.92163 12.0784 8.25 11.25 8.25ZM9.75 11.25V9.75H11.25V11.25H9.75Z" fill="#B961FF"/>
<path d="M16.5 8.25H15C14.1716 8.25 13.5 8.92163 13.5 9.75V11.25C13.5 12.0784 14.1716 12.75 15 12.75H16.5C17.3284 12.75 18 12.0784 18 11.25V9.75C18 8.92163 17.3284 8.25 16.5 8.25ZM15 11.25V9.75H16.5V11.25H15Z" fill="#B961FF"/>
<path d="M6 13.5H4.5C3.67163 13.5 3 14.1716 3 15V16.5C3 17.3284 3.67163 18 4.5 18H6C6.82837 18 7.5 17.3284 7.5 16.5V15C7.5 14.1716 6.82837 13.5 6 13.5ZM4.5 16.5V15H6V16.5H4.5Z" fill="#B961FF"/>
<path d="M11.25 13.5H9.75C8.92163 13.5 8.25 14.1716 8.25 15V16.5C8.25 17.3284 8.92163 18 9.75 18H11.25C12.0784 18 12.75 17.3284 12.75 16.5V15C12.75 14.1716 12.0784 13.5 11.25 13.5ZM9.75 16.5V15H11.25V16.5H9.75Z" fill="#B961FF"/>
<path d="M16.5 13.5H15C14.1716 13.5 13.5 14.1716 13.5 15V16.5C13.5 17.3284 14.1716 18 15 18H16.5C17.3284 18 18 17.3284 18 16.5V15C18 14.1716 17.3284 13.5 16.5 13.5ZM15 16.5V15H16.5V16.5H15Z" fill="#B961FF"/>
<path d="M6 18.75H4.5C3.67163 18.75 3 19.4216 3 20.25V21.75C3 22.5784 3.67163 23.25 4.5 23.25H6C6.82837 23.25 7.5 22.5784 7.5 21.75V20.25C7.5 19.4216 6.82837 18.75 6 18.75ZM4.5 21.75V20.25H6V21.75H4.5Z" fill="#B961FF"/>
<path d="M11.25 18.75H9.75C8.92163 18.75 8.25 19.4216 8.25 20.25V21.75C8.25 22.5784 8.92163 23.25 9.75 23.25H11.25C12.0784 23.25 12.75 22.5784 12.75 21.75V20.25C12.75 19.4216 12.0784 18.75 11.25 18.75ZM9.75 21.75V20.25H11.25V21.75H9.75Z" fill="#B961FF"/>
<path d="M16.5 18.75H15C14.1716 18.75 13.5 19.4216 13.5 20.25V21.75C13.5 22.5784 14.1716 23.25 15 23.25H16.5C17.3284 23.25 18 22.5784 18 21.75V20.25C18 19.4216 17.3284 18.75 16.5 18.75ZM15 21.75V20.25H16.5V21.75H15Z" fill="#B961FF"/>
<path d="M44.3185 23.9309C43.4283 23.081 42.0275 23.081 41.1373 23.9309L28.28 36.7879C28.2177 36.8509 28.1668 36.9241 28.1298 37.0047L26.3193 40.9363C26.1885 41.2212 26.249 41.5578 26.4709 41.7793C26.6924 42.0012 27.029 42.0617 27.3139 41.9309L31.2455 40.1204C31.3261 40.0834 31.3994 40.0329 31.4623 39.9702L44.3185 27.1129C45.1974 26.2344 45.1974 24.8095 44.3185 23.9309ZM30.4955 38.8137L28.5305 39.719L29.4357 37.7539L39.022 28.1669L40.0826 29.2274L30.4955 38.8137ZM41.1453 28.1636L40.0848 27.1034L40.6099 26.5783L41.6705 27.6388L41.1453 28.1636ZM43.2606 26.0487L42.7303 26.579L41.6697 25.5185L42.2007 24.9882C42.497 24.7047 42.9639 24.7047 43.2606 24.9882C43.5532 25.2812 43.5532 25.7558 43.2606 26.0487Z" fill="#B961FF"/>
</svg>
