<svg width="580" height="404" viewBox="0 0 580 404" fill="none" xmlns="http://www.w3.org/2000/svg">
<g opacity="0.5">
<path d="M829.946 -595.771L1015.03 -560.297L1017.82 -364.286L715.042 -492.88L544.191 -470.378L582.356 -279.396L763.438 -188.041L665.889 -58.847L527.086 124.92L444.017 -220.654L303.808 27.0634L209.106 -91.3574L-0.054338 -172.056L-204.532 -144.382L-365.868 -98.437L-121.522 -4.87622L136.296 204.599L-35.5832 512.608L-162.613 740.188L-272.827 855.187L-384.997 622.229L-431.729 525.18L-10.9705 383.904L-86.8197 130.876L-186.365 458.965L-215.134 553.822L-96.557 459.793L-74.4906 805.095L-162.361 737.843L-327.186 600.844L-186.626 405.896L-282.286 415.756L-323.79 173.947L-433.464 180.321L-455.228 358.049L-328.23 383.68L-612.689 158.823L-652.655 326.527L-493.916 678.73L-432.175 526.328L-538.604 522.467L-760.491 370.641L-1163.38 297.566L-1207.36 423.755L-1053.44 543.552L-935.184 364.697L-830.083 744.089L-613.072 659.389L-648.104 535.507L-729.539 811.299L-273.319 855.471L-413.847 718.296L-613.397 842.026L-617.225 1002.75L-267.857 1192.39L-516.909 928.731L-374.582 885.708L-244.581 969.838L-359.892 1110.73L-438.6 1075.31L-447.786 1218.17L-118.131 1063.26L-30.0618 1209.87L-266.307 1192.59L-172.033 1446.77L-446.446 1218.47" stroke="#589CFF" stroke-width="0.4628" stroke-miterlimit="10"/>
<path d="M136.296 204.599L80.4703 50.3884L-0.0543822 -172.056L-121.809 -3.68671L-86.8197 130.876L136.296 204.599Z" stroke="#589CFF" stroke-width="0.4628" stroke-miterlimit="10"/>
<path d="M136.296 204.599L-11.9493 383.152L-323.79 173.948L-121.809 -3.68678L303.808 27.0634L136.296 204.599ZM136.296 204.599L-280.449 413.056L-433.464 180.321L-610.32 158.593L-364.825 -99.8872L-324.416 172.663L-329.719 383.107L-431.729 525.18L-455.228 358.049L-648.104 535.507L-652.655 326.527L-830.084 744.089L-728.648 810.204L-494.749 678.055L-648.104 535.507L-538.882 521.08L-613.286 656.944L-432.175 526.328L-327.186 600.844L-215.134 553.823L-273.319 855.471L-76.7316 802.065L-96.7738 928.472L-118.131 1063.26L-359.892 1110.73L-373.31 887.439L-437.045 1078" stroke="#589CFF" stroke-width="0.4628" stroke-miterlimit="10"/>
<path d="M-94.7441 457.103L-11.9494 383.152L-431.529 179.491L-215.134 553.823L-74.4907 805.095L-414.664 716.327L-494.749 678.055L-613.286 656.944L-373.31 887.439L-830.084 744.089L-617.225 1002.75L-447.602 1220.17L-267.857 1192.39L-118.131 1063.26L-244.581 969.838L-435.732 1074.62L-615.398 1005.23L-514.768 928.177L-613.397 842.026L-614.445 656.99L-935.184 364.697L-758.154 368.626L-612.689 158.823L-1163.38 297.566L-1051.99 545.372L-827.953 744.397" stroke="#589CFF" stroke-width="0.4628" stroke-miterlimit="10"/>
<path d="M1016.97 -363.866L582.356 -279.396L444.017 -220.654L209.106 -91.3575L-121.522 -4.87627L-204.532 -144.382L-323.791 173.947L-86.8199 130.876L-186.626 405.896L-327.306 382.342L-538.882 521.08L-455.228 358.049L-651.534 327.727L-759.502 369.387L-830.084 744.089L-648.105 535.507L-935.184 364.697L-1207.36 423.755" stroke="#589CFF" stroke-width="0.4628" stroke-miterlimit="10"/>
<path d="M528.282 125.085L582.356 -279.396L715.042 -492.88L-0.0541992 -172.056L421.499 65.0258L528.282 125.085Z" stroke="#589CFF" stroke-width="0.4628" stroke-miterlimit="10"/>
<path d="M133.261 200.79C138.128 197.07 143.84 204.766 138.95 208.497C134.093 212.24 128.37 204.52 133.261 200.79Z" fill="#589CFF"/>
<path d="M135.153 203.351C134.646 203.727 134.575 204.073 134.555 204.283C134.529 204.666 134.695 205.105 134.978 205.489C135.412 206.09 136.125 206.62 137.07 205.901C137.577 205.525 137.648 205.178 137.668 204.969C137.694 204.585 137.528 204.147 137.246 203.763C136.821 203.185 136.098 202.631 135.153 203.351Z" fill="#EEF5FF"/>
<path d="M299.345 23.1381C304.212 19.4184 309.924 27.1145 305.034 30.8449C300.178 34.5884 294.465 26.8923 299.345 23.1381Z" fill="#589CFF"/>
<path d="M301.248 25.7226C300.304 26.442 300.625 27.2947 301.049 27.8718C301.484 28.4725 302.196 29.003 303.141 28.2836C303.649 27.9078 303.72 27.5609 303.739 27.3518C303.766 26.968 303.6 26.5298 303.317 26.1451C302.893 25.5681 302.193 25.0031 301.248 25.7226Z" fill="#EEF5FF"/>
<path d="M524.04 120.772C528.907 117.052 534.62 124.749 529.73 128.479C524.873 132.222 519.161 124.526 524.04 120.772Z" fill="#589CFF"/>
<path d="M525.944 123.357C524.999 124.076 525.32 124.929 525.745 125.506C526.179 126.107 526.892 126.637 527.837 125.918C528.782 125.198 528.46 124.346 528.036 123.769C527.578 123.178 526.889 122.637 525.944 123.357Z" fill="#EEF5FF"/>
</g>
</svg>
