<svg width="580" height="404" viewBox="0 0 580 404" fill="none" xmlns="http://www.w3.org/2000/svg">
<g opacity="0.5">
<path d="M1235.45 -165.376L1384.77 -48.5614L1300.18 127.552L1087.25 -126.484L924.869 -185.039L874.059 2.86613L994.984 167.683L850.577 238.022L645.129 338.052L724.572 -8.40441L489.457 148.018L457.603 -1.18698L306.9 -169.42L112.226 -238.838L-52.0874 -272.106L124.284 -76.2078L261.172 229.277L-28.9775 424.901L-243.391 569.426L-392.786 621.277L-389.333 361.874L-387.897 253.807L50.1572 321.432L94.9225 60.8436L-139.631 307.664L-207.435 379.031L-59.8964 349.733L-193.629 667.873L-242.123 567.451L-328.269 369.404L-116.285 260.211L-205.988 224.983L-135.575 -9.79421L-236.227 -54.5811L-334.602 93.9237L-232.716 175.23L-386.532 -156.236L-496.688 -25.0487L-511.584 362.144L-388.805 254.625L-482.017 202.203L-612.469 -35.328L-939.354 -285.918L-1034.65 -193.606L-950.586 -15.9216L-765.642 -121.024L-840.46 265.734L-609.27 290.057L-585.476 163.441L-780.642 371.951L-393.351 621.303L-457.747 434.282L-690.704 452.807L-765.525 594.398L-538.168 924.323L-643.165 574.546L-497.104 601.671L-418.531 736.536L-583.976 809.133L-638.442 741.322L-710.107 864.516L-347.251 878.052L-333.84 1049.35L-536.876 925.218L-565.717 1195.31L-709.045 865.4" stroke="#589CFF" stroke-width="0.4628" stroke-miterlimit="10"/>
<path d="M261.172 229.277L279.893 66.0415L306.9 -169.421L123.499 -75.2793L94.9223 60.8435L261.172 229.277Z" stroke="#589CFF" stroke-width="0.4628" stroke-miterlimit="10"/>
<path d="M261.172 229.277L49.6181 320.312L-135.575 -9.79415L123.499 -75.2792L489.458 148.018L261.172 229.277ZM261.172 229.277L-203.151 223.419L-236.227 -54.581L-384.317 -155.351L-50.5132 -272.92L-135.562 -11.228L-233.79 174.032L-387.897 253.807L-334.602 93.9238L-585.476 163.441L-496.688 -25.0486L-840.46 265.734L-779.361 371.385L-512.027 361.159L-585.476 163.441L-481.648 200.838L-608.374 287.778L-388.805 254.625L-328.269 369.404L-207.435 379.031L-393.351 621.303L-194.282 664.139L-268.319 767.662L-347.251 878.052L-583.976 809.133L-496.739 603.801L-638.249 744.435" stroke="#589CFF" stroke-width="0.4628" stroke-miterlimit="10"/>
<path d="M-57.0844 348.168L49.6179 320.311L-234.133 -54.4321L-207.435 379.031L-193.629 667.873L-457.6 432.149L-512.027 361.158L-608.374 287.777L-496.739 603.801L-840.46 265.734L-765.525 594.398L-710.832 866.386L-538.168 924.323L-347.252 878.051L-418.531 736.535L-635.578 742.028L-764.995 597.448L-641.009 575.037L-690.704 452.806L-609.428 287.285L-765.642 -121.024L-609.49 -36.0507L-386.532 -156.236L-939.354 -285.918L-950.099 -13.6303L-838.696 266.989" stroke="#589CFF" stroke-width="0.4628" stroke-miterlimit="10"/>
<path d="M1299.23 127.533L874.059 2.8657L724.572 -8.40482L457.603 -1.18739L124.284 -76.2082L112.226 -238.839L-135.575 -9.79462L94.9225 60.8432L-116.285 260.21L-231.298 174.461L-481.648 200.837L-334.602 93.9233L-496.221 -23.4625L-611.03 -35.9918L-840.46 265.734L-585.476 163.44L-765.642 -121.024L-1034.65 -193.606" stroke="#589CFF" stroke-width="0.4628" stroke-miterlimit="10"/>
<path d="M646.123 338.749L874.06 2.86571L1087.25 -126.485L306.9 -169.421L577.563 236.039L646.123 338.749Z" stroke="#589CFF" stroke-width="0.4628" stroke-miterlimit="10"/>
<path d="M93.1016 56.2995C99.0953 55.2215 100.771 64.7148 94.7519 65.7915C88.7326 66.8683 87.0823 57.3762 93.1016 56.2995Z" fill="#589CFF"/>
<path d="M93.6521 59.4551C92.4896 59.6619 92.3976 60.5705 92.5196 61.2804C92.6404 62.0163 93.0402 62.8173 94.2027 62.6104C94.8223 62.5088 95.0397 62.232 95.1501 62.0546C95.3443 61.7245 95.3909 61.2572 95.3096 60.784C95.1877 60.0741 94.7891 59.2471 93.6521 59.4551Z" fill="#EEF5FF"/>
<path d="M260.157 224.484C266.151 223.406 267.826 232.899 261.807 233.976C255.812 235.08 254.137 225.561 260.157 224.484Z" fill="#589CFF"/>
<path d="M260.707 227.64C260.088 227.741 259.87 228.018 259.76 228.196C259.566 228.526 259.519 228.993 259.6 229.466C259.721 230.202 260.121 231.003 261.283 230.796C261.903 230.695 262.12 230.418 262.231 230.24C262.425 229.91 262.471 229.443 262.39 228.97C262.268 228.26 261.87 227.433 260.707 227.64Z" fill="#EEF5FF"/>
<path d="M487.221 142.463C493.214 141.385 494.89 150.879 488.871 151.955C482.876 153.059 481.2 143.566 487.221 142.463Z" fill="#589CFF"/>
<path d="M487.77 145.644C486.608 145.851 486.516 146.76 486.638 147.47C486.759 148.205 487.158 149.006 488.321 148.8C488.94 148.698 489.158 148.421 489.268 148.244C489.462 147.914 489.509 147.446 489.428 146.973C489.306 146.263 488.933 145.437 487.77 145.644Z" fill="#EEF5FF"/>
<path d="M48.975 314.648C54.9687 313.57 56.6446 323.064 50.6253 324.14C44.6316 325.218 42.9557 315.725 48.975 314.648Z" fill="#589CFF"/>
<path d="M49.5254 317.804C48.3629 318.011 48.2709 318.919 48.3929 319.629C48.5136 320.365 48.9134 321.166 50.0758 320.959C51.2383 320.752 51.3303 319.844 51.1828 319.133C51.0864 318.424 50.6878 317.597 49.5254 317.804Z" fill="#EEF5FF"/>
</g>
</svg>
