<svg width="181" height="250" viewBox="0 0 181 250" fill="none" xmlns="http://www.w3.org/2000/svg">
<g clip-path="url(#clip0)">
<path d="M34.3836 159.534C34.3836 160.594 34.8031 161.61 35.5498 162.36C36.2965 163.109 37.3092 163.53 38.3652 163.53H100.248C101.304 163.53 102.317 163.109 103.064 162.36C103.81 161.61 104.23 160.594 104.23 159.534C104.23 158.473 103.81 157.457 103.064 156.707C102.317 155.958 101.304 155.537 100.248 155.537H38.3652C37.3092 155.537 36.2965 155.958 35.5498 156.707C34.8031 157.457 34.3836 158.473 34.3836 159.534Z" fill="white"/>
<path fill-rule="evenodd" clip-rule="evenodd" d="M100.248 156.036C101.172 156.036 102.058 156.405 102.712 157.061C103.365 157.716 103.732 158.606 103.732 159.534C103.732 160.461 103.365 161.351 102.712 162.006C102.058 162.662 101.172 163.031 100.248 163.031H38.3652C37.4412 163.031 36.5551 162.662 35.9017 162.006C35.2483 161.351 34.8813 160.461 34.8813 159.534C34.8813 158.606 35.2483 157.716 35.9017 157.061C36.5551 156.405 37.4412 156.036 38.3652 156.036H100.248ZM103.415 156.354C102.575 155.511 101.436 155.037 100.248 155.037H38.3652C37.1772 155.037 36.0379 155.511 35.1978 156.354C34.3578 157.197 33.8859 158.341 33.8859 159.534C33.8859 160.726 34.3578 161.87 35.1978 162.713C36.0379 163.556 37.1772 164.03 38.3652 164.03H100.248C101.436 164.03 102.575 163.556 103.415 162.713C104.256 161.87 104.727 160.726 104.727 159.534C104.727 158.341 104.256 157.197 103.415 156.354Z" fill="#FFB000"/>
<path d="M56.5176 169.969H79.8103C80.5579 169.969 81.2749 169.671 81.8036 169.141C82.3323 168.61 82.6293 167.89 82.6293 167.14V163.53H53.7006V167.142C53.7011 167.892 53.9981 168.61 54.5262 169.141C55.0544 169.671 55.7706 169.969 56.5176 169.969Z" fill="white"/>
<path fill-rule="evenodd" clip-rule="evenodd" d="M79.8103 169.47H56.5177C55.9027 169.469 55.313 169.224 54.8782 168.787C54.4433 168.351 54.1987 167.759 54.1983 167.142V164.03H82.1316V167.14C82.1316 167.758 81.887 168.35 81.4517 168.787C81.0163 169.224 80.4259 169.47 79.8103 169.47ZM56.5176 169.97L56.5172 170.469C55.6384 170.468 54.7957 170.118 54.1743 169.494C53.5529 168.87 53.2035 168.024 53.2029 167.142L53.2029 163.031H83.127V167.14C83.127 168.023 82.7775 168.87 82.1555 169.494C81.5335 170.118 80.6899 170.469 79.8103 170.469H56.5176V169.97Z" fill="#FFB000"/>
<path d="M71.2159 218.948H65.1219V169.969H71.2159V218.948Z" fill="white"/>
<path fill-rule="evenodd" clip-rule="evenodd" d="M64.6242 219.448H71.7136V169.47H64.6242V219.448ZM65.6196 218.448V170.469H70.7181V218.448H65.6196Z" fill="#FFB000"/>
<path d="M71.62 231.582H64.7138C63.368 231.582 62.277 230.487 62.277 229.136V221.394C62.277 220.043 63.368 218.948 64.7138 218.948H71.62C72.9658 218.948 74.0568 220.043 74.0568 221.394V229.136C74.0568 230.487 72.9658 231.582 71.62 231.582Z" fill="white"/>
<path fill-rule="evenodd" clip-rule="evenodd" d="M64.7138 231.083C63.6429 231.083 62.7747 230.211 62.7747 229.136V221.394C62.7747 220.319 63.6429 219.448 64.7138 219.448H71.62C72.6909 219.448 73.5591 220.319 73.5591 221.394V229.136C73.5591 230.211 72.6909 231.083 71.62 231.083H64.7138ZM61.7793 229.136C61.7793 230.763 63.0931 232.082 64.7138 232.082H71.62C73.2406 232.082 74.5545 230.763 74.5545 229.136V221.394C74.5545 219.767 73.2406 218.448 71.62 218.448H64.7138C63.0931 218.448 61.7793 219.767 61.7793 221.394V229.136Z" fill="#FFB000"/>
<path fill-rule="evenodd" clip-rule="evenodd" d="M92.1694 234.562C89.9502 232.334 86.9403 231.083 83.8019 231.083H52.5339C49.3955 231.083 46.3856 232.334 44.1664 234.562C41.9472 236.79 40.7005 239.811 40.7005 242.962H41.6959C41.6959 240.076 42.8377 237.309 44.8703 235.268C46.9028 233.228 49.6595 232.082 52.5339 232.082H83.8019C86.6763 232.082 89.433 233.228 91.4655 235.268C93.4981 237.309 94.6399 240.076 94.6399 242.962H95.6353C95.6353 239.811 94.3886 236.79 92.1694 234.562Z" fill="#6562CF"/>
<path d="M40.9931 248.873C38.4852 248.873 36.452 246.832 36.452 244.314C36.452 241.797 38.4852 239.756 40.9931 239.756C43.5011 239.756 45.5342 241.797 45.5342 244.314C45.5342 246.832 43.5011 248.873 40.9931 248.873Z" fill="white"/>
<path fill-rule="evenodd" clip-rule="evenodd" d="M40.9931 240.256C43.2262 240.256 45.0365 242.073 45.0365 244.314C45.0365 246.556 43.2262 248.373 40.9931 248.373C38.76 248.373 36.9497 246.556 36.9497 244.314C36.9497 242.073 38.76 240.256 40.9931 240.256ZM46.0319 244.314C46.0319 241.521 43.776 239.256 40.9931 239.256C38.2103 239.256 35.9543 241.521 35.9543 244.314C35.9543 247.108 38.2103 249.373 40.9931 249.373C43.776 249.373 46.0319 247.108 46.0319 244.314Z" fill="#FFB000"/>
<path d="M95.4243 248.873C92.9163 248.873 90.8832 246.832 90.8832 244.314C90.8832 241.797 92.9163 239.756 95.4243 239.756C97.9323 239.756 99.9654 241.797 99.9654 244.314C99.9654 246.832 97.9323 248.873 95.4243 248.873Z" fill="white"/>
<path fill-rule="evenodd" clip-rule="evenodd" d="M95.4243 240.256C97.6574 240.256 99.4677 242.073 99.4677 244.314C99.4677 246.556 97.6574 248.373 95.4243 248.373C93.1912 248.373 91.3809 246.556 91.3809 244.314C91.3809 242.073 93.1912 240.256 95.4243 240.256ZM100.463 244.314C100.463 241.521 98.2072 239.256 95.4243 239.256C92.6415 239.256 90.3855 241.521 90.3855 244.314C90.3855 247.108 92.6415 249.373 95.4243 249.373C98.2071 249.373 100.463 247.108 100.463 244.314Z" fill="#FFB000"/>
<path d="M68.0046 248.873C65.4967 248.873 63.4636 246.832 63.4636 244.314C63.4636 241.797 65.4967 239.756 68.0046 239.756C70.5126 239.756 72.5457 241.797 72.5457 244.314C72.5457 246.832 70.5126 248.873 68.0046 248.873Z" fill="white"/>
<path fill-rule="evenodd" clip-rule="evenodd" d="M68.0046 240.256C70.2377 240.256 72.048 242.073 72.048 244.314C72.048 246.556 70.2377 248.373 68.0046 248.373C65.7715 248.373 63.9613 246.556 63.9613 244.314C63.9613 242.073 65.7716 240.256 68.0046 240.256ZM73.0434 244.314C73.0434 241.521 70.7875 239.256 68.0046 239.256C65.2218 239.256 62.9659 241.521 62.9659 244.314C62.9659 247.108 65.2218 249.373 68.0046 249.373C70.7875 249.373 73.0434 247.108 73.0434 244.314Z" fill="#FFB000"/>
<path d="M127.202 225.105C129.229 229.931 131.074 233.888 132.482 236.484C133.529 238.415 135.352 249.674 144.94 245.138C145.279 244.978 141.158 243.911 139.858 234.596C139.402 231.33 138.985 228.181 138.605 225.147C134.855 225.403 130.097 225.247 127.202 225.105Z" fill="#FFCFC9"/>
<path d="M129.274 249.674C129.274 249.674 125.414 236.265 130.576 234.218C132.225 233.565 134.224 235.217 134.757 240.861C135.225 245.795 142.406 246.561 143.083 243.371C143.083 243.371 151.886 245.17 151.886 249.674H129.274Z" fill="#3F4D79"/>
<path d="M124.596 224.953C124.596 224.953 135.259 225.719 140.867 224.917C140.867 224.917 148.313 146.947 147.2 138.925C145.86 129.275 113.855 120.721 97.3096 118.009L94.2616 104.152C94.2616 104.152 71.8768 103.752 59.237 103.752C59.237 103.752 45.6994 127.934 47.093 143.921C48.4866 159.909 77.6761 156.28 116.658 156.28C116.658 156.28 104.773 180.363 124.596 224.953Z" fill="#6562CF"/>
<path d="M92.1136 225.485C95.0792 225.749 98.0635 225.725 101.025 225.413C100.029 229.3 99.1093 233.007 98.3787 236.318C97.9069 238.445 100.939 241.315 101.803 243.403L101.735 243.371C97.7536 242.734 92.4122 246.519 92.9617 240.611C93.5111 234.704 92.667 233.231 92.1136 225.485Z" fill="#FFCFC9"/>
<path d="M93.0811 236.265C91.7114 236.265 89.4857 238.751 89.7067 242.732C89.8338 245.107 90.3239 247.448 91.16 249.674H106.555C106.284 245.388 101.735 243.371 101.735 243.371C97.7536 242.734 92.6113 246.519 93.1607 240.611L93.0811 236.265Z" fill="#3F4D79"/>
<path d="M81.0286 125.504C81.0286 125.504 114.958 131.659 118.813 141.861C122.667 152.063 104.688 224.947 104.688 224.947C94.2637 226.546 88.9163 224.947 88.9163 224.947C78.0743 175.034 90.7777 158.478 90.7777 158.478C65.5121 157.401 49.5676 159.807 47.091 143.933C46.3007 138.893 51.9467 119.614 81.0286 125.504Z" fill="#6562CF"/>
<path fill-rule="evenodd" clip-rule="evenodd" d="M81.7149 125.012C81.7146 125.012 81.7144 125.012 81.6259 125.504C81.5374 125.995 81.5374 125.995 81.5376 125.995L81.5609 126C81.5769 126.002 81.6009 126.007 81.6327 126.013C81.6963 126.025 81.791 126.042 81.915 126.066C82.1629 126.113 82.5276 126.184 82.9935 126.278C83.9253 126.465 85.2617 126.745 86.8777 127.112C90.1107 127.847 94.4586 128.932 98.9239 130.333C103.393 131.736 107.961 133.451 111.644 135.441C115.356 137.447 118.05 139.671 118.944 142.038C119.386 143.207 119.535 145.366 119.412 148.34C119.29 151.286 118.907 154.952 118.336 159.079C117.194 167.33 115.311 177.385 113.305 187.129C111.3 196.871 109.174 206.296 107.549 213.286C106.737 216.781 106.05 219.667 105.566 221.678C105.324 222.684 105.133 223.472 105.002 224.007C104.937 224.275 104.887 224.48 104.853 224.618C104.836 224.687 104.823 224.74 104.815 224.775L104.802 224.826C104.802 224.827 104.802 224.827 105.285 224.947C105.768 225.067 105.768 225.067 105.768 225.066L105.781 225.014C105.79 224.979 105.803 224.927 105.82 224.857C105.854 224.719 105.904 224.513 105.969 224.245C106.1 223.708 106.292 222.92 106.534 221.913C107.018 219.899 107.706 217.011 108.519 213.513C110.144 206.518 112.272 197.085 114.28 187.331C116.287 177.579 118.176 167.5 119.322 159.216C119.895 155.075 120.283 151.373 120.407 148.381C120.529 145.416 120.397 143.066 119.875 141.684C118.842 138.95 115.85 136.579 112.116 134.561C108.353 132.528 103.716 130.791 99.221 129.38C94.7222 127.967 90.3468 126.876 87.0975 126.137C85.4724 125.768 84.1279 125.487 83.1892 125.298C82.7198 125.204 82.3518 125.132 82.1008 125.084C81.9753 125.06 81.879 125.042 81.814 125.03C81.7815 125.024 81.7567 125.02 81.7401 125.017L81.7149 125.012Z" fill="white"/>
<path d="M89.0855 92.8447C87.0688 88.2683 96.0216 82.2529 105.183 84.651C105.183 84.651 102.094 47.7434 94.8529 43.0929C87.8253 38.5804 86.1331 59.8341 85.8942 65.0241C85.9022 65.0241 84.6022 85.1027 89.0855 92.8447Z" fill="#EAEEFF"/>
<path d="M89.8739 93.9579C85.4363 89.961 94.6121 81.8272 105.183 84.651C111.797 85.6822 137.506 91.184 139.923 92.445C142.284 93.5022 149.103 96.9456 149.971 97.9908C151.066 99.3098 151.233 102.799 151.165 103.259C151.098 103.718 150.2 106.111 150.2 106.111C150.2 106.111 148.478 105.933 148.697 104.052C148.96 101.816 146.977 101.122 145.651 100.523C145.097 100.275 143.66 100.377 143.407 101.218C143.154 102.06 145.251 103.079 145.597 103.688C146.113 104.612 145.516 105.645 145.504 105.667C145.492 105.689 142.306 103.944 141.691 103.616C141.126 103.315 138.468 100.201 137.341 97.4572C137.333 97.4552 97.664 100.984 89.8739 93.9579Z" fill="#FFC0B7"/>
<path d="M94.7972 23.2342C95.5437 21.4136 98.6375 11.9929 93.6246 7.92397C88.6117 3.8551 82.0001 -0.319697 74.001 0.329804C66.0019 0.979305 63.7721 11.6711 59.239 13.3898C54.7059 15.1085 49.1754 13.07 43.9495 17.7864C38.7236 22.5028 44.1486 29.9271 38.8231 33.89C33.4977 37.853 28.3653 32.8388 23.0299 39.8415C16.9141 47.8713 25.8469 57.1502 17.1649 57.9496C7.56513 58.8329 1.77382 75.1484 5.89484 85.978H55.9004C87.8293 81.0258 94.7972 23.2342 94.7972 23.2342Z" fill="#FFB000"/>
<path fill-rule="evenodd" clip-rule="evenodd" d="M72.8209 1.03464C80.6777 0.648714 86.2212 3.46524 91.021 7.73433L91.6812 6.98643C86.7339 2.58618 80.9456 -0.364872 72.7722 0.0365993C68.5631 0.243353 65.6729 2.70745 63.3075 5.21929C62.7901 5.76865 62.2934 6.32537 61.8138 6.86281C61.7446 6.94043 61.6757 7.01766 61.6071 7.0944C61.0615 7.70518 60.5378 8.28559 60.018 8.81188C58.9712 9.87171 57.9844 10.6647 56.9489 11.0275C55.8647 11.4072 54.6953 11.563 53.4398 11.648C52.8817 11.6858 52.3137 11.7093 51.7303 11.7334C51.6576 11.7364 51.5847 11.7394 51.5115 11.7425C50.8538 11.7699 50.1787 11.8004 49.4953 11.8553C46.7504 12.0756 43.8393 12.6914 41.0364 15.1178C38.189 17.5827 38.1239 21.0016 38.0654 24.0688L38.0632 24.1858C38.002 27.3716 37.9069 30.1312 35.41 31.9054C33.2139 33.4658 31.1422 33.4509 28.9088 33.4348C28.5238 33.432 28.134 33.4292 27.7379 33.4344C26.4067 33.4519 25.0216 33.5683 23.6035 34.1514C22.1803 34.7367 20.7616 35.776 19.3261 37.5813C16.1786 41.5389 16.5337 45.7757 16.8068 49.0354C16.823 49.2282 16.8388 49.4175 16.8537 49.6032C16.9208 50.4429 16.9671 51.1962 16.9365 51.8653C16.9058 52.5342 16.7991 53.0842 16.5829 53.528C16.1796 54.356 15.3044 54.985 13.2147 55.1126L13.2146 55.1126C8.17989 55.4211 4.05908 58.7712 1.82884 63.7611C-0.401283 68.7509 -0.759163 75.4006 1.69428 82.4301L2.63371 82.0997C0.253426 75.2798 0.624184 68.8975 2.73704 64.1702C4.84978 59.4431 8.68627 56.3912 13.2752 56.11" fill="#FFB000"/>
<path d="M94.413 104.012C94.413 104.012 97.2479 80.818 98.747 79.6029C102.113 76.873 104.791 72.958 103.388 67.5522C102.591 64.5005 96.1908 44.272 94.8271 42.987C93.4633 41.702 84.5146 38.4905 84.5146 38.4905H59.2311C56.3523 39.4537 47.314 42.7172 45.1539 46.0387C34.6026 62.2582 31.2281 88.2742 31.2281 88.2742H44.3477C44.3477 88.2742 50.6626 74.0472 52.9082 73.8853C55.1539 73.7234 59.3605 103.812 59.3605 103.812C59.3605 103.812 73.7442 107.819 94.413 104.012Z" fill="#EAEEFF"/>
<path fill-rule="evenodd" clip-rule="evenodd" d="M98.6334 79.2141C101.931 76.5401 104.636 72.6084 103.304 67.4783L98.6334 79.2141ZM103.304 67.4783L104.267 67.2263L103.304 67.4783ZM104.267 67.2263C105.742 72.9078 102.694 77.2057 99.2588 79.9915L104.267 67.2263ZM94.1181 103.951C94.1181 103.951 94.1181 103.951 94.6121 104.012C95.1061 104.073 95.1061 104.073 95.1061 104.073L95.1142 104.007C95.1196 103.963 95.1276 103.898 95.1381 103.813C95.1592 103.643 95.1904 103.394 95.2305 103.076C95.3109 102.44 95.4274 101.53 95.5718 100.435C95.8608 98.2429 96.2616 95.309 96.709 92.3378C97.1567 89.3651 97.6501 86.3619 98.1241 84.0293C98.3614 82.8616 98.5918 81.8722 98.8067 81.1422C98.9145 80.7762 99.015 80.487 99.1064 80.2775C99.1895 80.0866 99.2443 80.0122 99.2569 79.995C99.2597 79.9911 99.2605 79.9902 99.2588 79.9915M94.1181 103.951L94.1182 103.95L94.1181 103.951ZM94.1182 103.95L94.1186 103.947L94.1182 103.95ZM94.1186 103.947L94.1201 103.934L94.1186 103.947ZM94.1201 103.934L94.1263 103.884L94.1201 103.934ZM94.1263 103.884C94.1317 103.84 94.1398 103.775 94.1504 103.69L94.1263 103.884ZM94.1504 103.69C94.1715 103.519 94.2028 103.269 94.243 102.95L94.1504 103.69ZM94.243 102.95C94.3236 102.313 94.4403 101.401 94.585 100.303L94.243 102.95ZM94.585 100.303C94.8745 98.1083 95.2761 95.1678 95.7248 92.1885L94.585 100.303ZM95.7248 92.1885C96.1732 89.2108 96.6696 86.1876 97.1488 83.8296L95.7248 92.1885ZM97.1488 83.8296C97.3881 82.6519 97.6252 81.6299 97.8522 80.8589L97.1488 83.8296ZM97.8522 80.8589C97.9654 80.4744 98.0795 80.1407 98.1944 79.877L97.8522 80.8589ZM98.1944 79.877C98.2985 79.6381 98.437 79.3734 98.6334 79.2141L98.1944 79.877Z" fill="white"/>
<path fill-rule="evenodd" clip-rule="evenodd" d="M77.1219 41.077C77.1217 41.0766 77.1215 41.0764 76.6807 41.3083C76.2399 41.5402 76.2398 41.5401 76.2398 41.5401L76.2412 41.5428L76.2467 41.5535C76.2518 41.5633 76.2596 41.5786 76.27 41.5993C76.2909 41.6407 76.3224 41.7038 76.3636 41.7886C76.4462 41.958 76.5678 42.214 76.7222 42.5559C77.0309 43.2396 77.4707 44.2672 77.9903 45.6343C79.0296 48.3684 80.3885 52.4603 81.6586 57.8756C84.1985 68.7057 86.3836 84.8312 84.9438 105.977L85.9369 106.045C87.3838 84.7946 85.189 68.5689 82.6275 57.6467C81.3468 52.1858 79.9745 48.0514 78.9203 45.278C78.3932 43.8914 77.9457 42.845 77.6288 42.1433C77.4704 41.7925 77.3446 41.5278 77.2579 41.3497C77.2146 41.2607 77.181 41.1934 77.158 41.1478C77.1465 41.125 77.1377 41.1077 77.1315 41.0958L77.1244 41.082L77.1225 41.0781L77.1219 41.077Z" fill="white"/>
<path fill-rule="evenodd" clip-rule="evenodd" d="M78.0722 57.6118C78.6451 57.6118 79.1095 58.0779 79.1095 58.653C79.1095 59.228 78.6451 59.6942 78.0722 59.6942C77.4994 59.6942 77.035 59.228 77.035 58.653C77.035 58.0779 77.4994 57.6118 78.0722 57.6118ZM80.1049 58.653C80.1049 57.5261 79.1948 56.6125 78.0722 56.6125C76.9497 56.6125 76.0396 57.5261 76.0396 58.653C76.0396 59.7799 76.9496 60.6934 78.0722 60.6934C79.1948 60.6934 80.1049 59.7799 80.1049 58.653Z" fill="white"/>
<path fill-rule="evenodd" clip-rule="evenodd" d="M80.1766 68.9111C80.7494 68.9111 81.2138 69.3773 81.2138 69.9523C81.2138 70.5273 80.7494 70.9935 80.1766 70.9935C79.6037 70.9935 79.1393 70.5273 79.1393 69.9523C79.1393 69.3773 79.6037 68.9111 80.1766 68.9111ZM82.2092 69.9523C82.2092 68.8254 81.2992 67.9119 80.1766 67.9119C79.054 67.9119 78.1439 68.8254 78.1439 69.9523C78.1439 71.0792 79.054 71.9927 80.1766 71.9927C81.2992 71.9927 82.2092 71.0792 82.2092 69.9523Z" fill="white"/>
<path fill-rule="evenodd" clip-rule="evenodd" d="M81.3014 80.2504C81.8742 80.2504 82.3386 80.7166 82.3386 81.2916C82.3386 81.8666 81.8742 82.3328 81.3014 82.3328C80.7285 82.3328 80.2642 81.8666 80.2642 81.2916C80.2642 80.7166 80.7285 80.2504 81.3014 80.2504ZM83.334 81.2916C83.334 80.1647 82.424 79.2512 81.3014 79.2512C80.1788 79.2512 79.2688 80.1647 79.2688 81.2916C79.2688 82.4185 80.1788 83.332 81.3014 83.332C82.424 83.332 83.334 82.4185 83.334 81.2916Z" fill="white"/>
<path d="M32.6834 94.5994C39.1795 101.456 81.1779 92.2871 81.1779 92.2871C81.1779 92.2871 83.3678 95.7605 85.932 95.8844C88.4962 96.0083 90.923 95.099 92.225 96.2021C93.527 97.3053 94.841 99.2258 95.8603 99.4236C97.0705 99.6721 98.3125 99.7247 99.5393 99.5795C99.1038 98.3738 98.6027 97.1929 98.0383 96.0422C98.8127 96.6718 99.7742 97.8269 100.338 98.3085C100.572 98.5275 100.873 98.661 101.192 98.6874C101.512 98.7139 101.83 98.6318 102.098 98.4544C102.098 98.4544 100.415 95.8764 99.7524 95.1869C99.0894 94.4974 97.0568 92.7668 95.93 92.3731C94.5981 91.8015 86.8 87.9665 82.908 87.3309C78.781 86.6595 45.359 84.4012 45.359 84.4012C33.2707 84.3932 27.2285 88.8438 32.6834 94.5994Z" fill="#FFCFC9"/>
<path fill-rule="evenodd" clip-rule="evenodd" d="M91.926 92.4367C91.7818 92.3564 91.6001 92.4086 91.52 92.5533C91.4399 92.698 91.4919 92.8805 91.6361 92.9609L91.7811 92.6988L91.926 92.4367ZM98.2831 99.1778C98.542 99.0284 98.542 99.0283 98.5419 99.0283L98.5348 99.0159L98.5142 98.9801C98.4962 98.9489 98.4697 98.9031 98.4357 98.8447C98.3677 98.7281 98.2699 98.5611 98.1499 98.3593C97.9101 97.956 97.5816 97.413 97.2274 96.8555C96.8738 96.2989 96.4919 95.7238 96.1456 95.2578C95.9727 95.025 95.8056 94.8154 95.6531 94.6475C95.5067 94.4863 95.3529 94.3399 95.206 94.2588C94.4946 93.8653 93.6746 93.4098 93.0325 93.0526C92.7114 92.874 92.4348 92.7201 92.2384 92.6107L91.926 92.4367C91.926 92.4367 91.926 92.4367 91.7811 92.6988C91.6361 92.9609 91.6361 92.9609 91.6361 92.9609L91.9487 93.135C92.1451 93.2444 92.4218 93.3984 92.743 93.5771C93.3854 93.9343 94.2058 94.3901 94.9178 94.784L94.9182 94.7842C94.9733 94.8145 95.0716 94.8971 95.2118 95.0514C95.3459 95.1991 95.5 95.3916 95.6669 95.6162C96.0004 96.0651 96.3733 96.6262 96.7239 97.1779C97.0739 97.7288 97.3992 98.2664 97.6371 98.6666C97.756 98.8665 97.8529 99.032 97.9201 99.1473C97.9536 99.205 97.9798 99.2501 97.9975 99.2808L98.0176 99.3156L98.0242 99.3272C98.0242 99.3272 98.0243 99.3273 98.2831 99.1778ZM98.2831 99.1778L98.5419 99.0283C98.6242 99.1718 98.575 99.3551 98.432 99.4377C98.2891 99.5202 98.1064 99.4707 98.0242 99.3272L98.2831 99.1778Z" fill="#FFB0AF"/>
<path fill-rule="evenodd" clip-rule="evenodd" d="M90.5384 93.1082C90.3942 93.0279 90.2125 93.0801 90.1324 93.2248C90.0523 93.3696 90.1043 93.552 90.2485 93.6324L90.3935 93.3703L90.5384 93.1082ZM93.8184 94.9303C93.107 94.5368 92.287 94.0813 91.6449 93.7241C91.3238 93.5455 91.0472 93.3916 90.8508 93.2822L90.5384 93.1082C90.5384 93.1082 90.5384 93.1082 90.3935 93.3703C90.2485 93.6324 90.2485 93.6324 90.2485 93.6324L90.5611 93.8065C90.7575 93.9159 91.0342 94.0699 91.3554 94.2486C91.9978 94.6058 92.8182 95.0616 93.5302 95.4555L93.5306 95.4557C93.5931 95.4901 93.6904 95.568 93.8207 95.6999C93.9469 95.8277 94.0897 95.9913 94.243 96.1808C94.5495 96.5594 94.8868 97.0269 95.202 97.4849C95.5166 97.9421 95.8065 98.3861 96.0179 98.716C96.1235 98.8808 96.2094 99.017 96.2688 99.1118C96.2985 99.1592 96.3216 99.1963 96.3372 99.2214L96.3549 99.25L96.3607 99.2594C96.3607 99.2594 96.3608 99.2595 96.5097 99.1671L96.3607 99.2594C96.4474 99.4002 96.6315 99.444 96.7718 99.3569C96.9121 99.2699 96.9555 99.0852 96.8688 98.9443L96.6148 99.1019C96.8688 98.9443 96.8689 98.9444 96.8688 98.9443L96.8624 98.9339L96.8441 98.9044C96.8281 98.8786 96.8046 98.8408 96.7744 98.7926C96.7141 98.6963 96.6271 98.5584 96.5202 98.3916C96.3065 98.0582 96.0129 97.6085 95.6934 97.1442C95.3745 96.6807 95.0272 96.1988 94.7066 95.8027C94.5463 95.6047 94.3899 95.4247 94.2448 95.2778C94.1039 95.1351 93.9579 95.0073 93.8184 94.9303Z" fill="#FFB0AF"/>
<path d="M74.2757 22.9204C74.2757 22.9204 70.758 33.9939 59.239 38.4905C59.239 38.4905 75.3966 45.557 84.5225 38.4905V23.2402L74.2757 22.9204Z" fill="#FFCFC9"/>
<path d="M82.1899 39.9314C83.0124 39.5329 83.7917 39.05 84.5152 38.4905V23.2402L74.2764 22.9204C74.2764 22.9204 74.1768 23.2322 73.9578 23.7738C72.9127 28.4482 75.7396 38.1467 82.1899 39.9314Z" fill="#FFC0B7"/>
<path d="M74.5445 24.6251C74.65 28.2663 81.4766 36.8318 85.2094 36.8318C88.3031 36.8318 94.0785 27.465 94.8071 23.2422C95.5537 18.8975 94.7972 11.1915 88.6256 11.0835C84.8112 11.0176 82.8522 14.6148 81.7075 18.7856C80.3139 23.8198 76.0376 22.6906 76.0376 22.6906C76.0376 22.6906 74.8133 19.8928 73.1071 21.2917C71.401 22.6906 74.5445 24.6251 74.5445 24.6251Z" fill="#FFCFC9"/>
<path fill-rule="evenodd" clip-rule="evenodd" d="M163.756 118.922L173.213 249.71L174.206 249.638L164.252 111.978L163.259 111.978L153.305 249.928L154.298 250L163.756 118.922Z" fill="#FFB000"/>
<path d="M174.584 112.014H43.5215C42.7027 112.014 41.9174 111.688 41.3381 111.107C40.7587 110.526 40.4328 109.738 40.4317 108.916C40.4317 108.094 40.7572 107.305 41.3367 106.723C41.9161 106.142 42.702 105.815 43.5215 105.815H174.584V112.014Z" fill="white"/>
<path fill-rule="evenodd" clip-rule="evenodd" d="M174.584 105.315H43.5214C42.57 105.315 41.6575 105.695 40.9847 106.37C40.3119 107.045 39.934 107.961 39.934 108.916H40.4317L39.934 108.917C39.9352 109.871 40.3137 110.786 40.9864 111.46C41.659 112.135 42.5708 112.514 43.5214 112.514H174.584V111.514H43.5214C42.8346 111.514 42.1758 111.241 41.6898 110.753C41.2038 110.266 40.9303 109.605 40.9294 108.916M40.9294 108.916C40.9296 108.226 41.2026 107.564 41.6886 107.076C42.1747 106.588 42.834 106.314 43.5214 106.314H174.584V105.315" fill="#FFB000"/>
<path fill-rule="evenodd" clip-rule="evenodd" d="M175.559 58.9188L122.669 58.9188C121.517 58.9189 120.392 59.2738 119.448 59.9355C118.503 60.5973 117.783 61.5341 117.385 62.6195L103.54 100.379H165.686L179.049 63.9415C179.255 63.3773 179.323 62.7712 179.246 62.1751C179.169 61.579 178.95 61.0102 178.608 60.5172C178.265 60.0242 177.809 59.6214 177.279 59.3432C176.748 59.0649 176.158 58.9193 175.559 58.9188ZM175.559 59.1187C176.126 59.1192 176.684 59.2569 177.186 59.5203C177.689 59.7837 178.12 60.1649 178.445 60.6315C178.769 61.0982 178.976 61.6365 179.049 62.2007C179.121 62.765 179.057 63.3385 178.862 63.8725L165.547 100.179H103.825L117.572 62.6885C117.956 61.6415 118.65 60.7378 119.562 60.0994C120.473 59.4611 121.557 59.1188 122.669 59.1187H175.559Z" fill="black"/>
<path d="M122.193 59.0187H175.278C177.733 59.0187 179.437 61.6307 178.589 64.0948L167.042 97.751C166.812 98.4745 166.362 99.1074 165.755 99.5608C165.148 100.014 164.414 100.265 163.658 100.279H104.276L117.13 62.7958C117.911 60.5256 119.931 59.0187 122.193 59.0187Z" fill="white"/>
<path d="M124.383 61.5388H177.468C178.037 61.5386 178.597 61.6764 179.101 61.9403C179.605 62.2042 180.038 62.5865 180.363 63.0546C180.688 63.5226 180.896 64.0626 180.968 64.6286C181.041 65.1946 180.976 65.7697 180.779 66.3051L169.232 97.9048C168.978 98.6009 168.517 99.2018 167.912 99.6264C167.307 100.051 166.586 100.279 165.848 100.279H106.465L119.32 65.084C119.701 64.0442 120.391 63.1467 121.297 62.5128C122.202 61.8788 123.279 61.5389 124.383 61.5388Z" fill="#E2E2FF"/>
<path d="M165.74 100.279H64.4351C63.0227 100.279 61.6682 100.842 60.6694 101.845C59.6707 102.847 59.1096 104.207 59.1096 105.625H160.415C161.827 105.625 163.182 105.062 164.181 104.059C165.179 103.057 165.74 101.697 165.74 100.279Z" fill="white"/>
<path fill-rule="evenodd" clip-rule="evenodd" d="M165.74 100.279H166.338C166.338 101.856 165.714 103.368 164.603 104.483C163.492 105.598 161.986 106.225 160.415 106.225H58.5124V105.625C58.5124 104.048 59.1364 102.536 60.2471 101.421C61.3578 100.306 62.8643 99.6795 64.4351 99.6795H165.74V100.279ZM64.4351 100.879H165.105C164.974 101.916 164.503 102.888 163.758 103.635C162.871 104.525 161.669 105.025 160.415 105.025H59.7447C59.8764 103.988 60.347 103.016 61.0918 102.269C61.9785 101.379 63.1811 100.879 64.4351 100.879Z" fill="#6562CF"/>
<path fill-rule="evenodd" clip-rule="evenodd" d="M175.559 58.5191L122.669 58.5191C121.435 58.5192 120.231 58.8992 119.22 59.6077C118.208 60.3163 117.437 61.3193 117.012 62.4815L102.969 100.779H165.964L179.423 64.0792C179.651 63.4545 179.726 62.7838 179.641 62.1238C179.556 61.4639 179.314 60.8343 178.934 60.2885C178.555 59.7427 178.05 59.2969 177.463 58.9889C176.875 58.6808 176.222 58.5197 175.559 58.5191ZM175.559 59.5183C176.061 59.5188 176.557 59.641 177.002 59.8746C177.448 60.1082 177.83 60.4463 178.118 60.8602C178.406 61.274 178.589 61.7515 178.654 62.2519C178.718 62.7523 178.661 63.2609 178.488 63.7345C178.488 63.7346 178.488 63.7347 178.488 63.7347L165.27 99.7794H104.396L117.946 62.8265C118.301 61.8563 118.945 61.0187 119.789 60.4272C120.634 59.8356 121.639 59.5184 122.669 59.5183H175.559Z" fill="#6562CF"/>
<path d="M142.137 85.4268C140.885 84.0299 141.261 81.6397 142.977 80.088C144.694 78.5364 147.101 78.4109 148.354 79.8077C149.607 81.2045 149.231 83.5948 147.514 85.1464C145.798 86.6981 143.39 86.8236 142.137 85.4268Z" fill="#FFB000"/>
<path fill-rule="evenodd" clip-rule="evenodd" d="M146.768 78.8697C147.775 79.9924 147.553 82.0668 145.965 83.5028C144.376 84.9389 142.298 84.9429 141.291 83.8201C140.283 82.6974 140.505 80.623 142.093 79.187C143.682 77.7509 145.76 77.7469 146.768 78.8697ZM146.631 84.2454C148.475 82.5781 149.006 79.872 147.507 78.2011C146.008 76.5301 143.272 76.7771 141.427 78.4444C139.583 80.1117 139.052 82.8178 140.551 84.4887C142.05 86.1597 144.786 85.9127 146.631 84.2454Z" fill="#6562CF"/>
</g>
<defs>
<clipPath id="clip0">
<rect width="181" height="250" fill="white" transform="matrix(-1 0 0 1 181 0)"/>
</clipPath>
</defs>
</svg>
