<svg width="192" height="250" viewBox="0 0 192 250" fill="none" xmlns="http://www.w3.org/2000/svg">
<g clip-path="url(#clip0)">
<path d="M102.695 248.67C103.017 248.671 103.326 248.546 103.557 248.324C103.788 248.102 103.923 247.799 103.933 247.48L98.4215 170.818H90.7576L101.457 247.48C101.468 247.799 101.603 248.102 101.834 248.324C102.065 248.546 102.374 248.671 102.695 248.67Z" fill="white"/>
<path fill-rule="evenodd" clip-rule="evenodd" d="M98.8932 170.315H90.1758L100.952 247.525C100.974 247.964 101.163 248.38 101.482 248.686C101.807 248.999 102.243 249.174 102.696 249.174L102.695 248.67L102.695 249.174C102.695 249.174 102.695 249.174 102.696 249.174C103.148 249.174 103.583 248.999 103.909 248.686C104.235 248.373 104.425 247.946 104.44 247.496L104.441 247.47L98.8932 170.315ZM103.426 247.486C103.414 247.666 103.336 247.836 103.205 247.962C103.068 248.093 102.885 248.167 102.696 248.167L102.695 248.67L102.695 248.167C102.505 248.167 102.323 248.093 102.186 247.962C102.049 247.831 101.97 247.652 101.963 247.463L101.963 247.437L91.3393 171.322H90.7576V170.818L91.2594 170.749L91.3393 171.322H97.9498L97.9162 170.854L98.4215 170.818V171.322H97.9498L103.426 247.486ZM103.426 247.486C103.426 247.478 103.427 247.471 103.427 247.463L103.933 247.48L103.428 247.516L103.426 247.486Z" fill="#3F4D79"/>
<path d="M55.0742 248.67C55.3957 248.671 55.7047 248.546 55.9357 248.324C56.1668 248.102 56.3019 247.799 56.3124 247.48L67.012 170.818H59.348L53.8361 247.48C53.8466 247.799 53.9817 248.102 54.2128 248.324C54.4438 248.546 54.7528 248.671 55.0742 248.67Z" fill="white"/>
<path fill-rule="evenodd" clip-rule="evenodd" d="M67.5936 170.315H58.8762L53.3288 247.47L53.3297 247.496C53.3445 247.946 53.5349 248.373 53.8605 248.686C54.1861 248.999 54.6214 249.174 55.0745 249.174L55.0742 248.67L55.0739 249.174C55.0741 249.174 55.0743 249.174 55.0745 249.174C55.5273 249.174 55.9624 248.999 56.2879 248.686C56.6066 248.38 56.7957 247.964 56.8175 247.525L56.8141 247.549L56.3123 247.48L56.8187 247.496C56.8183 247.506 56.818 247.515 56.8175 247.525L67.5936 170.315ZM54.3435 247.486L54.3414 247.516L53.836 247.48L54.3424 247.463C54.3426 247.471 54.343 247.478 54.3435 247.486ZM59.8196 171.322L59.8532 170.854L59.3479 170.818V171.322H59.8196ZM66.4301 171.322H67.0119V170.818L66.5101 170.749L66.4301 171.322Z" fill="#3F4D79"/>
<path d="M32.9862 248.67C33.3077 248.671 33.6166 248.546 33.8477 248.324C34.0787 248.102 34.2138 247.799 34.2243 247.48L44.9239 170.818H37.2599L31.748 247.48C31.7586 247.799 31.8936 248.102 32.1247 248.324C32.3558 248.546 32.6647 248.671 32.9862 248.67Z" fill="white"/>
<path fill-rule="evenodd" clip-rule="evenodd" d="M45.5056 170.315H36.7882L31.2408 247.47L31.2417 247.496C31.2565 247.946 31.4469 248.373 31.7725 248.686C32.0981 248.999 32.5334 249.174 32.9864 249.174L32.9862 248.67L32.9859 249.174C32.9861 249.174 32.9862 249.174 32.9864 249.174C33.4393 249.174 33.8744 248.999 34.1999 248.686C34.5185 248.38 34.7076 247.964 34.7295 247.525L34.7261 247.549L34.2243 247.48L34.7306 247.496C34.7303 247.506 34.7299 247.515 34.7295 247.525L45.5056 170.315ZM32.2555 247.486L32.2533 247.516L31.748 247.48L32.2543 247.463C32.2546 247.471 32.255 247.478 32.2555 247.486ZM37.7316 171.322L37.7652 170.854L37.2599 170.818V171.322H37.7316ZM44.3421 171.322H44.9239V170.818L44.4221 170.749L44.3421 171.322Z" fill="#3F4D79"/>
<path d="M30.1533 154.381L32.3661 163.205H39.641L37.4281 154.381H30.1533Z" fill="white"/>
<path fill-rule="evenodd" clip-rule="evenodd" d="M37.8239 153.877H29.5048L31.9702 163.708H40.2894L37.8239 153.877ZM37.0323 154.884L38.9925 162.701H32.7619L30.8016 154.884H37.0323Z" fill="#3F4D79"/>
<path d="M58.5496 154.381L60.7624 163.205H68.0373L65.8244 154.381H58.5496Z" fill="white"/>
<path fill-rule="evenodd" clip-rule="evenodd" d="M66.2203 153.877H57.9012L60.3666 163.708H68.6857L66.2203 153.877ZM65.4286 154.884L67.3889 162.701H61.1583L59.198 154.884H65.4286Z" fill="#3F4D79"/>
<path d="M31.3812 162.599H107.423C109.93 162.599 111.962 164.619 111.962 167.11C111.962 169.602 109.93 171.622 107.423 171.622H31.3812C28.8743 171.622 26.842 169.602 26.842 167.11C26.842 164.619 28.8743 162.599 31.3812 162.599Z" fill="#FFB000"/>
<path d="M0.0972824 92.3778L13.8871 147.378C14.4319 149.549 15.6915 151.477 17.4654 152.855C19.2393 154.233 21.4257 154.981 23.6768 154.981H73.9322C76.7145 154.981 78.6497 150.801 77.6912 146.858L63.9541 90.3793C63.3016 87.6957 61.6095 85.9148 59.7148 85.9148H5.11472C2.89781 85.9148 -0.658577 89.249 0.0972824 92.3778Z" fill="#FFB000"/>
<path d="M158.698 235.4C158.698 236.794 154.359 241.063 155.82 248.199C155.82 248.199 166.524 248.215 171.774 248.247C178.016 248.286 191.291 248.286 191.291 248.286C191.291 248.286 192.58 242.598 185.742 241.81C178.905 241.023 170.238 233.839 170.238 233.839L158.698 235.4Z" fill="#E2631E"/>
<path fill-rule="evenodd" clip-rule="evenodd" d="M154.651 248.847C154.649 249.237 154.964 249.554 155.356 249.557C158.479 249.576 167.464 249.586 175.666 249.59C179.767 249.593 183.673 249.594 186.554 249.595C187.995 249.595 189.179 249.595 190.003 249.595L191.29 249.595C191.291 249.595 191.291 249.595 191.291 248.89C191.291 248.185 191.291 248.185 191.29 248.185L190.003 248.185C189.179 248.185 187.995 248.185 186.554 248.184C183.674 248.184 179.768 248.183 175.666 248.18C167.463 248.175 158.483 248.166 155.365 248.147C154.973 248.144 154.653 248.458 154.651 248.847ZM192 248.89C192 248.501 191.682 248.185 191.291 248.185V248.89V249.595C191.682 249.595 192 249.279 192 248.89Z" fill="#3F4D79"/>
<path d="M170.036 233.839C169.359 231.963 168.384 225.836 168.384 225.836L157.387 226.795C157.387 226.795 159.21 230.891 158.9 235.198C158.795 236.651 170.779 235.895 170.036 233.839Z" fill="#FFC0B7"/>
<path d="M59.0501 157.393C71.2776 162.361 128.599 159.224 128.599 159.224C128.599 159.224 129.772 203.871 151.328 226.983C151.328 226.983 166.195 226.487 170.271 225.441C170.271 225.441 159.004 158.624 150.949 145.498C146.693 138.55 98.7803 127.947 88.4495 127.054C85.3726 129.092 82.1067 130.832 78.6963 132.252C69.3059 136.19 59.6742 137.601 52.4318 138.018C51.3193 144.473 51.143 154.181 59.0501 157.393Z" fill="#3C4564"/>
<path d="M150.389 235.4C150.389 236.794 146.051 241.063 147.512 248.199C147.512 248.199 158.215 248.215 163.466 248.247C169.707 248.286 182.982 248.286 182.982 248.286C182.982 248.286 184.271 242.598 177.434 241.81C170.597 241.023 161.93 233.839 161.93 233.839L150.389 235.4Z" fill="#FE7523"/>
<path fill-rule="evenodd" clip-rule="evenodd" d="M146.343 248.847C146.34 249.237 146.656 249.554 147.047 249.557C150.171 249.576 159.156 249.585 167.357 249.59C171.459 249.593 175.365 249.594 178.246 249.594C179.686 249.595 180.87 249.595 181.694 249.595L182.982 249.595C182.982 249.595 182.982 249.595 182.982 248.89C182.982 248.185 182.982 248.185 182.982 248.185L181.695 248.185C180.871 248.185 179.686 248.184 178.246 248.184C175.365 248.184 171.459 248.182 167.358 248.18C159.154 248.175 150.174 248.166 147.056 248.146C146.664 248.144 146.345 248.458 146.343 248.847ZM183.692 248.89C183.692 248.5 183.374 248.185 182.982 248.185V248.89V249.595C183.374 249.595 183.692 249.279 183.692 248.89Z" fill="#3F4D79"/>
<path d="M161.727 233.838C161.05 231.963 160.076 225.836 160.076 225.836L147.457 227.198C147.457 227.198 149.747 229.285 150.592 235.198C150.799 236.639 162.471 235.895 161.727 233.838Z" fill="#FFCFC9"/>
<path d="M50.2007 162.645C62.4281 167.619 119.75 164.476 119.75 164.476C119.75 164.476 118.566 203.359 145.643 227.269C145.643 227.269 159.192 226.3 163.273 225.254C163.273 225.254 145.919 162.123 142.105 150.75C140.018 144.525 86.7838 132.522 78.7024 132.252C65.3705 137.844 51.5685 138.326 44.7719 138.145C43.558 142.234 39.5599 158.323 50.2007 162.645Z" fill="#3F4D79"/>
<path d="M85.1566 110.201C99.0255 112.951 132.344 111.773 146.312 108.983C147.07 109.565 147.866 110.096 148.695 110.572C150.519 111.614 154.031 112.456 154.864 112.409C155.697 112.363 160.807 111.583 160.807 111.583C160.807 111.583 160.99 111.009 160.242 110.252C159.494 109.494 154.013 110.097 156.017 108.439C156.908 107.697 161.348 109.365 163.279 111.215C165.211 113.064 166.116 111.6 166.116 111.6C166.116 111.6 164.268 108.175 163.606 107.554C162.943 106.934 158.54 104.302 155.557 103.902C153.397 103.611 148.201 104.01 145.451 104.669C135.26 102.264 115.707 99.1974 101.785 99.3082C99.9353 91.6525 97.688 82.2803 97.0902 79.5082L87.1932 85.9551L85.1566 110.201Z" fill="#FFC0B7"/>
<path d="M97.0902 79.5082L97.7144 82.2582C97.7144 82.2582 95.1509 88.7151 86.877 90.8466L87.1932 85.951L97.0902 79.5082Z" fill="#FAB6AD"/>
<path d="M36.8121 96.7153C36.8121 96.7153 37.5517 96.669 38.798 96.5421C40.2165 106.956 41.4648 115.703 41.4648 117.623C41.4648 122.783 40.4515 137.893 40.4515 137.893C40.4515 137.893 67.7799 140.941 88.6238 126.935C88.6238 126.935 83.7928 120.47 86.2995 100.098C87.9652 86.5454 87.1931 85.951 87.1931 85.951C87.1931 85.951 92.2997 83.3038 99.5422 77.6003C99.5422 77.6003 95.7832 59.126 89.787 55.5016C83.7908 51.8772 74.4854 50.187 68.3068 47.8741C62.1282 45.5613 52.7357 43.1599 52.7357 43.1599C50.2291 45.2047 38.3279 50.9888 35.3753 54.458C31.1685 58.2919 25.4013 73.4965 36.8121 96.7153Z" fill="#CEEFF7"/>
<path fill-rule="evenodd" clip-rule="evenodd" d="M60.4064 90.9006C60.4066 90.9008 60.4067 90.9011 60.8394 90.6391C61.2722 90.3772 61.2723 90.3774 61.2724 90.3776L61.2691 90.372C61.2655 90.366 61.2595 90.3557 61.2511 90.3409C61.2343 90.3113 61.2078 90.2636 61.1722 90.1961C61.101 90.0612 60.9933 89.8473 60.8532 89.541C60.5728 88.9282 60.1628 87.9462 59.6553 86.487C58.6401 83.5683 57.2362 78.7451 55.6985 71.1567L54.7053 71.3557C56.2498 78.978 57.6647 83.8461 58.6977 86.8162C59.2143 88.3015 59.6358 89.3132 59.9309 89.9581C60.0784 90.2806 60.1944 90.5115 60.275 90.6642C60.3153 90.7405 60.3468 90.7973 60.3689 90.8362C60.3799 90.8557 60.3886 90.8707 60.395 90.8814C60.3981 90.8868 60.4007 90.8911 60.4027 90.8944L60.4052 90.8985L60.4061 90.9L60.4064 90.9006Z" fill="#84D7EC"/>
<path fill-rule="evenodd" clip-rule="evenodd" d="M86.3378 71.2397C86.8139 75.0489 87.2031 81.8955 86.915 85.5266L87.9251 85.6058C88.2207 81.8795 87.8236 74.9579 87.3433 71.1155L86.3378 71.2397Z" fill="#84D7EC"/>
<path d="M38.802 96.5428C38.802 96.5428 49.6333 123.757 54.5373 124.208C70.5096 125.677 97.2017 110.555 102.969 110.377L105.498 110.297C106.916 111.125 108.72 111.83 110.246 111.385C113.322 110.49 115.786 108.28 117.825 109.229C119.863 110.178 122.216 111.999 123.509 111.848C126.214 111.524 127.774 110.095 127.774 110.095C127.774 110.095 126.09 108.27 124.39 106.535C125.596 107.005 127.43 108.294 128.368 108.738C129.787 109.404 130.516 108.212 130.516 108.212C130.516 108.212 127.353 105.433 126.261 104.775C125.205 104.14 122.242 103.473 120.747 103.441C118.937 103.199 109.012 101.851 103.897 102.387C98.0325 102.172 86.2671 102.589 65.5408 106.463L59.6013 91.3168C59.6013 91.3168 50.5817 95.3038 38.802 96.5428Z" fill="#FFCFC9"/>
<path d="M38.8021 96.5441C38.8021 96.5441 39.7808 99.004 41.2844 102.457C46.2107 101.011 54.1968 97.9382 59.9276 92.1461L59.6013 91.312C59.6013 91.312 50.5796 95.303 38.8021 96.5441Z" fill="#FAB6AD"/>
<path d="M63.5691 25.0099C63.5691 25.0099 62.7585 36.4935 52.7419 43.1599C52.7419 43.1599 58.0207 54.6434 70.1915 55.4372C82.3622 56.231 73.1845 49.4356 73.1845 49.4356C73.1845 49.4356 76.3599 38.9896 76.8989 36.4995L63.5691 25.0099Z" fill="#FFCFC9"/>
<path d="M63.6056 30.9733C64.2135 36.2255 68.8743 43.7542 74.6557 44.5258C75.5635 41.4535 76.6092 37.8332 76.8969 36.4995L64.2419 25.5861L63.8487 26.3638C63.8487 26.3638 63.4759 29.8652 63.6056 30.9733Z" fill="#FAB6AD"/>
<path d="M64.5215 25.8319C64.5215 25.8319 64.3331 29.4321 64.8194 30.4374C67.0586 35.0711 74.0802 40.3897 79.5394 40.3897C83.7645 40.3897 88.715 27.5907 89.1609 22.8744C89.6067 18.1581 88.9825 10.6857 77.5292 9.79728C66.0758 8.90882 65.2693 20.7388 65.2693 20.7388L64.5215 25.8319Z" fill="#FFCFC9"/>
<path d="M97.9312 18.0715C97.9312 18.0715 100.061 13.8649 96.5006 10.7764C92.2998 7.12788 88.4495 8.81817 86.2975 6.50535C84.1454 4.19253 79.6488 -0.747389 72.9636 0.0967499C66.9694 0.854258 65.2206 4.99235 65.2206 4.99235C65.2206 4.99235 61.5122 3.43905 58.2922 7.6114C55.0723 11.7837 62.8497 29.1682 62.8497 29.1682C62.8497 29.1682 64.943 22.2418 65.2692 20.7509C66.0008 17.4127 72.6069 18.2004 72.0699 11.6749C72.0699 11.6749 73.8593 16.1233 80.66 16.0387C82.6864 16.0145 85.3045 15.4625 87.9044 15.0797C89.3432 17.6121 89.3817 20.5797 89.1608 22.8845C89.1608 22.8744 95.2421 22.7817 97.9312 18.0715Z" fill="#FE7523"/>
<path fill-rule="evenodd" clip-rule="evenodd" d="M65.1957 5.21155C65.1957 5.21146 65.1956 5.21137 65.405 4.99236C65.6144 4.77335 65.6143 4.77324 65.6142 4.77311L65.6139 4.77281L65.613 4.77201L65.6105 4.76964L65.6021 4.76194C65.5951 4.75551 65.5852 4.74654 65.5725 4.73529C65.547 4.71279 65.5103 4.68113 65.4629 4.6424C65.3684 4.56498 65.2311 4.45898 65.0567 4.34123C64.7088 4.10635 64.2079 3.82115 63.5987 3.62479C62.3669 3.22771 60.7041 3.20118 59.0165 4.63791L59.412 5.09699C60.9119 3.81999 62.3446 3.85591 63.4112 4.19972C63.9513 4.3738 64.4004 4.62866 64.7152 4.84122C64.8721 4.94719 64.9944 5.04175 65.0765 5.10898C65.1175 5.14256 65.1484 5.16924 65.1685 5.187C65.1786 5.19587 65.1859 5.20251 65.1904 5.20666L65.1951 5.21098L65.1957 5.21155Z" fill="#FE7523"/>
<path fill-rule="evenodd" clip-rule="evenodd" d="M72.3675 11.2368C72.3675 11.2369 72.3676 11.237 72.0699 11.2982C71.7722 11.3594 71.7723 11.3596 71.7723 11.3598L71.7724 11.3603L71.7727 11.3618L71.7737 11.3663C71.7745 11.37 71.7756 11.3752 71.7771 11.3817C71.7801 11.3948 71.7844 11.4134 71.7902 11.4372C71.8019 11.4848 71.8196 11.5532 71.8445 11.6394C71.8941 11.812 71.9723 12.0565 72.0876 12.3501C72.318 12.9367 72.6981 13.7229 73.2982 14.5226C74.5038 16.129 76.591 17.779 80.0892 17.9803L80.1243 17.3769C76.8319 17.1874 74.9007 15.6471 73.7855 14.1611C73.2252 13.4146 72.8694 12.679 72.6539 12.1303C72.5463 11.8562 72.474 11.6298 72.429 11.4732C72.4064 11.395 72.3908 11.3343 72.3809 11.294C72.3759 11.2738 72.3724 11.2587 72.3702 11.2491L72.368 11.2388L72.3675 11.2368Z" fill="#FE7523"/>
<path fill-rule="evenodd" clip-rule="evenodd" d="M67.9506 0.277381C67.2755 0.228416 66.6071 0.437878 66.0823 0.862872C65.5576 1.2878 65.2161 1.89604 65.1277 2.56309C65.1277 2.56321 65.1277 2.56332 65.1277 2.56343L62.9676 18.779C62.9308 19.0547 63.1259 19.3079 63.4033 19.3444C63.6806 19.3809 63.9353 19.187 63.972 18.9112L66.1322 2.69488C66.1868 2.28254 66.3979 1.90655 66.7222 1.64389C67.0466 1.38123 67.4596 1.25177 67.8769 1.28204C68.1559 1.30228 68.3986 1.09378 68.419 0.816356C68.4393 0.538928 68.2296 0.297621 67.9506 0.277381Z" fill="#3F4D79"/>
<path fill-rule="evenodd" clip-rule="evenodd" d="M61.7732 30.113C61.499 30.0577 61.2316 30.2337 61.1759 30.5063C61.111 30.8237 60.9801 31.2244 60.802 31.7422C60.7738 31.8243 60.7445 31.9088 60.7144 31.9959C60.5583 32.4473 60.3791 32.9653 60.2015 33.5429C59.7761 34.9262 59.3547 36.6657 59.2331 38.7899C58.9893 43.0468 59.9526 48.7857 64.3829 56.263C66.5448 59.9117 67.4482 62.8932 67.6944 65.4622C67.9409 68.0331 67.533 70.2251 67.0208 72.3158C66.9172 72.7386 66.8089 73.158 66.701 73.5759C65.7433 77.2846 64.8168 80.8725 67.5133 85.6127C68.9968 88.2207 70.9098 90.1325 72.9089 91.7928C73.8259 92.5544 74.7658 93.2668 75.6885 93.9662C75.7695 94.0276 75.8503 94.0888 75.9309 94.15C76.9346 94.9113 77.9148 95.6617 78.8431 96.4626C80.6956 98.0609 82.3233 99.8453 83.4546 102.252C84.5856 104.658 85.2372 107.723 85.0779 111.903C84.9688 114.766 85.5305 117.053 86.4635 118.667C87.3926 120.274 88.7209 121.254 90.1347 121.366C91.5722 121.48 92.9284 120.683 93.8559 119.094C94.7774 117.514 95.3024 115.125 95.1545 111.899C95.1417 111.621 94.9048 111.406 94.6253 111.419C94.3458 111.431 94.1296 111.667 94.1423 111.945C94.2851 115.058 93.7694 117.234 92.9794 118.588C92.1954 119.932 91.1694 120.437 90.2149 120.362C89.2368 120.285 88.1634 119.586 87.3419 118.165C86.5244 116.751 85.9868 114.661 86.0904 111.941C86.2544 107.635 85.585 104.405 84.3725 101.826C83.1601 99.2463 81.4217 97.3537 79.5071 95.7018C78.5519 94.8777 77.5482 94.1097 76.5455 93.3492C76.4655 93.2885 76.3855 93.2278 76.3055 93.1672C75.3797 92.4654 74.4573 91.7662 73.5585 91.0198C71.6102 89.4016 69.7963 87.5798 68.3952 85.1169C65.9067 80.7423 66.7319 77.5303 67.6834 73.827C67.7906 73.4097 67.8994 72.9863 68.0052 72.5542C68.5271 70.424 68.9654 68.1036 68.7031 65.3666C68.4406 62.6276 67.4802 59.5057 65.2559 55.7517C60.9138 48.4233 60.0137 42.8802 60.2447 38.8472C60.3604 36.8265 60.7608 35.1693 61.1704 33.8374C61.3425 33.2779 61.5152 32.7783 61.6713 32.327C61.7018 32.2389 61.7316 32.1527 61.7607 32.0682C61.9352 31.5609 62.0887 31.0987 62.1688 30.7069C62.2245 30.4343 62.0474 30.1684 61.7732 30.113Z" fill="#3F4D79"/>
<path fill-rule="evenodd" clip-rule="evenodd" d="M81.0228 40.2609C80.7755 40.3911 80.6812 40.6959 80.8121 40.9417C84.32 47.5276 84.9023 53.411 84.0263 58.6117C83.148 63.8259 80.7992 68.3823 78.3956 72.2994C75.896 76.3732 75.4572 81.9325 75.9968 86.7315C76.2676 89.1401 76.7875 91.3836 77.4357 93.1886C78.0744 94.9671 78.8671 96.4042 79.7338 97.1075C79.9505 97.2834 80.2696 97.2513 80.4466 97.0359C80.6235 96.8204 80.5912 96.5031 80.3745 96.3272C79.7355 95.8086 79.0182 94.5994 78.3899 92.8499C77.7711 91.1268 77.2669 88.9604 77.0037 86.6196C76.4754 81.9201 76.9293 76.6235 79.2606 72.824C81.6881 68.8679 84.1155 64.181 85.0256 58.778C85.9379 53.3615 85.3206 47.2537 81.7076 40.4703C81.5766 40.2245 81.27 40.1308 81.0228 40.2609Z" fill="#3F4D79"/>
<path d="M61.5365 18.562L65.7964 19.2018C67.0922 19.3964 67.984 20.5985 67.7883 21.8868L66.7098 28.9845C66.5141 30.2728 65.3049 31.1594 64.0091 30.9648L59.7492 30.3251C58.4534 30.1305 57.5616 28.9283 57.7574 27.64L58.8358 20.5423C59.0315 19.254 60.2407 18.3674 61.5365 18.562Z" fill="white"/>
<path fill-rule="evenodd" clip-rule="evenodd" d="M65.7056 19.7993C66.6694 19.9441 67.3327 20.8383 67.1871 21.7965L66.1087 28.8942C65.9631 29.8524 65.0637 30.5119 64.0999 30.3672L59.84 29.7274C58.8762 29.5827 58.2128 28.6885 58.3584 27.7303L59.4369 20.6326C59.5825 19.6743 60.4818 19.0148 61.4457 19.1596L65.7056 19.7993ZM68.3894 21.9771C68.6353 20.3587 67.515 18.8486 65.8872 18.6041L61.6273 17.9644C59.9995 17.7199 58.4805 18.8337 58.2346 20.452L57.1562 27.5497C56.9103 29.1681 58.0306 30.6782 59.6584 30.9227L63.9183 31.5624C65.5461 31.8069 67.065 30.6931 67.3109 29.0747L68.3894 21.9771Z" fill="#ECBE02"/>
<path d="M187.765 115.973H78.7227C77.5636 115.973 76.6233 117.311 76.6233 118.963V119.237C76.6233 120.887 77.5636 122.225 78.7227 122.225H160.813" fill="white"/>
<path fill-rule="evenodd" clip-rule="evenodd" d="M187.056 115.57C187.056 115.292 186.829 115.067 186.549 115.067H78.7227C77.9319 115.067 77.2681 115.524 76.823 116.157C76.3767 116.793 76.1167 117.644 76.1167 118.56V118.834C76.1167 119.75 76.3767 120.6 76.823 121.235C77.2682 121.869 77.9319 122.326 78.7227 122.326H160.408C160.688 122.326 160.915 122.1 160.915 121.822C160.915 121.544 160.688 121.318 160.408 121.318H78.7227C78.3543 121.318 77.9684 121.106 77.6536 120.658C77.34 120.212 77.1299 119.569 77.1299 118.834V118.56C77.1299 117.825 77.3401 117.181 77.6537 116.734C77.9685 116.286 78.3543 116.074 78.7227 116.074H186.549C186.829 116.074 187.056 115.849 187.056 115.57Z" fill="#3CBFD4"/>
<path d="M83.8475 250L104.507 122.023H97.3942L76.9374 249.799L83.8475 250Z" fill="white"/>
<path d="M96.1925 128.523L103.865 125.676L104.509 122.023H97.3922L96.1925 128.523Z" fill="#CEEFF7"/>
<path fill-rule="evenodd" clip-rule="evenodd" d="M105.337 121.318H96.7876L76.642 248.883C76.5813 249.268 76.8457 249.629 77.2327 249.689C77.6196 249.75 77.9826 249.487 78.0433 249.102L98.0008 122.729H103.677L83.5523 249.084C83.491 249.469 83.755 249.83 84.1419 249.891C84.5288 249.952 84.8921 249.689 84.9533 249.304L105.337 121.318Z" fill="#3CBFD4"/>
<path d="M109.909 110.302H171.276C172.089 110.302 172.883 110.055 173.549 109.592C174.216 109.129 174.724 108.474 175.004 107.715L189.147 69.3986C189.324 68.9234 189.382 68.4128 189.318 67.9102C189.253 67.4077 189.067 66.9281 188.775 66.5125C188.484 66.0969 188.096 65.7575 187.644 65.5233C187.192 65.2892 186.69 65.1672 186.18 65.1678H124.003C123.086 65.1686 122.19 65.4499 121.439 65.9735C120.688 66.4972 120.116 67.2378 119.802 68.0951L106.181 104.995C105.961 105.592 105.889 106.233 105.972 106.863C106.054 107.493 106.288 108.094 106.654 108.615C107.02 109.136 107.507 109.561 108.074 109.855C108.641 110.148 109.27 110.302 109.909 110.302Z" fill="white"/>
<path fill-rule="evenodd" clip-rule="evenodd" d="M186.181 65.6716C186.609 65.6711 187.03 65.7735 187.41 65.9701C187.789 66.1667 188.115 66.4516 188.36 66.8006C188.605 67.1496 188.761 67.5522 188.815 67.9742C188.869 68.3962 188.82 68.8249 188.672 69.2239L188.671 69.2252L174.529 107.542C174.529 107.542 174.529 107.542 174.529 107.542C174.284 108.204 173.841 108.775 173.26 109.179C172.678 109.583 171.985 109.799 171.276 109.798H109.91C109.91 109.798 109.91 109.798 109.91 109.798C109.352 109.798 108.803 109.664 108.308 109.408C107.814 109.152 107.389 108.781 107.07 108.326C106.75 107.872 106.546 107.348 106.474 106.798C106.402 106.248 106.465 105.689 106.657 105.169L120.279 68.2674C120.557 67.5072 121.063 66.8504 121.73 66.386C122.396 65.9217 123.19 65.6723 124.004 65.6716L186.181 65.6716ZM186.18 64.6642C186.771 64.6636 187.354 64.8051 187.878 65.0768C188.402 65.3484 188.853 65.7422 189.191 66.2245C189.529 66.7068 189.745 67.2632 189.82 67.8464C189.895 68.4293 189.827 69.0216 189.622 69.5728C189.622 69.573 189.622 69.5732 189.622 69.5735L175.48 107.889C175.164 108.745 174.591 109.483 173.839 110.005C173.087 110.527 172.193 110.806 171.276 110.806C171.276 110.806 171.276 110.806 171.275 110.806H109.909C109.189 110.806 108.479 110.633 107.84 110.301C107.201 109.97 106.652 109.49 106.239 108.903C105.826 108.316 105.562 107.638 105.469 106.928C105.376 106.217 105.457 105.495 105.705 104.822L105.705 104.822L119.326 67.923C119.676 66.9686 120.312 66.1441 121.148 65.5612C121.985 64.9782 122.981 64.6651 124.003 64.6642H186.18Z" fill="#FFB000"/>
<path d="M112.58 110.302H171.884C172.68 110.294 173.453 110.041 174.099 109.578C174.744 109.114 175.229 108.464 175.487 107.715L189.153 69.3986C189.884 67.3497 188.409 65.1678 186.286 65.1678H126.2C125.304 65.1777 124.433 65.4635 123.707 65.986C122.981 66.5085 122.436 67.2418 122.147 68.0851L108.975 104.987C108.059 107.582 109.913 110.302 112.58 110.302Z" fill="white"/>
<path fill-rule="evenodd" clip-rule="evenodd" d="M186.285 65.6716C188.033 65.6716 189.298 67.4845 188.675 69.2302L175.008 107.549L175.007 107.552C174.783 108.202 174.362 108.767 173.801 109.169C173.242 109.571 172.571 109.791 171.881 109.798H112.58C110.289 109.798 108.644 107.447 109.452 105.155C109.452 105.155 109.453 105.155 109.453 105.154L122.625 68.2506L122.626 68.2476C122.881 67.503 123.363 66.8554 124.004 66.394C124.644 65.9332 125.412 65.6808 126.202 65.6716H186.285ZM189.63 69.567C190.469 67.215 188.784 64.6642 186.285 64.6642H126.197L126.194 64.6643C125.193 64.6753 124.22 64.9945 123.409 65.5781C122.6 66.161 121.991 66.979 121.668 67.9195C121.668 67.9205 121.667 67.9216 121.667 67.9226L108.497 104.821C107.474 107.718 109.538 110.806 112.58 110.806H171.886L171.888 110.806C172.789 110.797 173.664 110.51 174.395 109.986C175.124 109.462 175.672 108.727 175.964 107.881C175.965 107.88 175.965 107.879 175.965 107.879L189.63 69.567C189.63 69.5671 189.63 69.5669 189.63 69.567Z" fill="#FFB000"/>
<path d="M83.7199 110.302H172.009C173.136 110.302 174.05 111.21 174.05 112.331V112.436C174.05 113.556 173.136 114.464 172.009 114.464H83.7199C82.5929 114.464 81.6793 113.556 81.6793 112.436V112.331C81.6793 111.21 82.5929 110.302 83.7199 110.302Z" fill="white"/>
<path fill-rule="evenodd" clip-rule="evenodd" d="M172.009 110.806C172.857 110.806 173.543 111.489 173.543 112.331V112.436C173.543 113.278 172.857 113.961 172.009 113.961H83.7199C82.8727 113.961 82.1859 113.278 82.1859 112.436V112.331C82.1859 111.489 82.8727 110.806 83.7199 110.806H172.009ZM174.557 112.331C174.557 110.932 173.416 109.798 172.009 109.798H83.7199C82.3131 109.798 81.1727 110.932 81.1727 112.331V112.436C81.1727 113.834 82.3131 114.968 83.7199 114.968H172.009C173.416 114.968 174.557 113.834 174.557 112.436V112.331Z" fill="#FFB000"/>
</g>
<defs>
<clipPath id="clip0">
<rect width="192" height="250" fill="white" transform="matrix(-1 0 0 1 192 0)"/>
</clipPath>
</defs>
</svg>
