<svg width="210" height="249" viewBox="0 0 210 249" fill="none" xmlns="http://www.w3.org/2000/svg">
<g clip-path="url(#clip0)">
<path fill-rule="evenodd" clip-rule="evenodd" d="M110.208 248.302V155.445H111.411V248.302H110.208Z" fill="#FFB000"/>
<path fill-rule="evenodd" clip-rule="evenodd" d="M151.438 248.302V155.445H152.64V248.302H151.438Z" fill="#FFB000"/>
<path fill-rule="evenodd" clip-rule="evenodd" d="M151.534 233.972H110.411V232.776H151.534V233.972Z" fill="#FFB000"/>
<path d="M158.59 142.999H103.86C102.021 142.999 100.531 144.482 100.531 146.311V152.132C100.531 153.962 102.021 155.445 103.86 155.445H158.59C160.428 155.445 161.919 153.962 161.919 152.132V146.311C161.919 144.482 160.428 142.999 158.59 142.999Z" fill="white"/>
<path fill-rule="evenodd" clip-rule="evenodd" d="M103.86 143.598C102.353 143.598 101.132 144.813 101.132 146.311V152.132C101.132 153.631 102.353 154.846 103.86 154.846H158.59C160.096 154.846 161.318 153.631 161.318 152.132V146.311C161.318 144.813 160.096 143.598 158.59 143.598H103.86ZM99.9299 146.311C99.9299 144.152 101.689 142.401 103.86 142.401H158.59C160.76 142.401 162.52 144.152 162.52 146.311V152.132C162.52 154.292 160.76 156.043 158.59 156.043H103.86C101.689 156.043 99.9299 154.292 99.9299 152.132V146.311Z" fill="#6562CF"/>
<path d="M151.033 53.3463C154.426 52.3991 159.117 41.9161 153.977 36.2388C148.837 30.5616 137.945 30.3901 128.699 31.7681C120.152 33.0423 108.926 37.9757 113.204 48.6163C119.288 63.7455 151.033 53.3463 151.033 53.3463Z" fill="#FFB819"/>
<path d="M145.919 46.2073C149.125 45.5333 154.634 40.225 149.793 36.185C144.951 32.1449 137.494 31.7521 129.553 33.1021C121.611 34.4521 113.381 37.2458 117.158 44.9052C120.936 52.5646 145.919 46.2073 145.919 46.2073Z" fill="#F49C00"/>
<path d="M164.843 247.379C162.768 248.649 150.083 248.575 147.689 247.379C145.294 246.182 145.855 242.138 145.456 239.438C145.057 236.738 139.392 231.661 139.073 229.912C138.755 228.164 144.897 224.355 145.963 222.803C145.085 225.38 153.873 225.944 154.58 224.275C154.236 230.389 158.75 240.108 162.454 240.986C164.784 241.54 166.917 246.109 164.843 247.379Z" fill="#DBDAFF"/>
<path d="M156.472 217.589L154.576 224.275C153.873 225.944 145.085 225.38 145.959 222.803C146.833 220.227 146.502 215.75 146.502 215.75L156.472 217.589Z" fill="#C36F0B"/>
<path fill-rule="evenodd" clip-rule="evenodd" d="M138.949 229.234C139.331 229.165 139.696 229.416 139.765 229.795C139.783 229.888 139.853 230.071 140.028 230.364C140.195 230.643 140.427 230.972 140.711 231.345C141.142 231.91 141.666 232.541 142.225 233.214C142.407 233.433 142.592 233.657 142.78 233.884C143.534 234.798 144.309 235.764 144.922 236.679C145.521 237.572 146.029 238.507 146.154 239.346C146.259 240.053 146.3 240.839 146.341 241.601L146.342 241.624C146.383 242.407 146.424 243.173 146.524 243.888C146.729 245.359 147.149 246.336 148.006 246.763C148.218 246.868 148.602 246.985 149.167 247.096C149.718 247.204 150.395 247.297 151.16 247.373C152.691 247.525 154.543 247.607 156.391 247.612C158.24 247.617 160.069 247.545 161.557 247.396C162.302 247.321 162.949 247.228 163.465 247.118C164.001 247.004 164.327 246.885 164.479 246.792C164.809 246.59 165.241 246.693 165.444 247.021C165.647 247.349 165.544 247.779 165.214 247.981C164.847 248.206 164.323 248.363 163.759 248.483C163.175 248.607 162.472 248.707 161.698 248.784C160.149 248.94 158.269 249.013 156.387 249.007C154.505 249.002 152.607 248.92 151.021 248.762C150.228 248.683 149.505 248.585 148.896 248.465C148.301 248.349 147.765 248.203 147.379 248.011C145.844 247.247 145.347 245.605 145.135 244.08C145.026 243.3 144.982 242.478 144.942 241.709L144.941 241.697C144.9 240.911 144.861 240.186 144.766 239.55C144.691 239.04 144.341 238.327 143.755 237.453C143.184 236.601 142.448 235.682 141.696 234.77C141.517 234.553 141.337 234.337 141.159 234.122C140.595 233.443 140.044 232.779 139.593 232.188C139.295 231.797 139.028 231.421 138.823 231.078C138.625 230.747 138.449 230.39 138.386 230.046C138.316 229.667 138.568 229.303 138.949 229.234Z" fill="#6562CF"/>
<path fill-rule="evenodd" clip-rule="evenodd" d="M155.314 241.524L155.315 241.524L155.321 241.521C155.327 241.518 155.337 241.514 155.351 241.508C155.378 241.497 155.421 241.479 155.478 241.457C155.593 241.412 155.763 241.349 155.982 241.276C156.42 241.131 157.049 240.951 157.804 240.815C159.319 240.542 161.304 240.454 163.266 241.143C163.579 241.253 163.922 241.09 164.033 240.778C164.143 240.466 163.979 240.125 163.666 240.015C161.439 239.232 159.226 239.343 157.59 239.638C156.769 239.785 156.084 239.981 155.602 240.141C155.361 240.221 155.17 240.292 155.038 240.343C154.972 240.369 154.92 240.391 154.884 240.406C154.866 240.413 154.852 240.419 154.842 240.424L154.83 240.429L154.826 240.43L154.825 240.431L154.824 240.431C154.824 240.431 154.824 240.431 155.069 240.978L154.824 240.431C154.521 240.566 154.385 240.92 154.52 241.222C154.656 241.523 155.011 241.659 155.314 241.524L155.314 241.524Z" fill="white"/>
<path d="M107.038 247.379C109.112 248.649 120.394 248.575 122.789 247.379C125.184 246.182 126.627 242.138 127.026 239.438C127.424 236.738 131.286 230.664 131.605 228.915C131.923 227.167 125.781 223.358 124.715 221.806C125.593 224.383 117.006 225.944 116.298 224.275C116.643 230.389 113.128 240.108 109.427 240.986C107.094 241.54 104.964 246.109 107.038 247.379Z" fill="#DBDAFF"/>
<path d="M112.002 217.19L116.302 224.275C117.006 225.944 125.593 224.383 124.719 221.806C123.845 219.23 123.575 215.152 123.575 215.152L112.002 217.19Z" fill="#C36F0B"/>
<path fill-rule="evenodd" clip-rule="evenodd" d="M131.73 228.237C132.111 228.306 132.364 228.669 132.295 229.048C132.195 229.593 131.848 230.387 131.443 231.227C131.136 231.864 130.767 232.586 130.385 233.332C130.248 233.6 130.109 233.872 129.971 234.143C129.444 235.18 128.923 236.231 128.509 237.187C128.089 238.156 127.805 238.971 127.72 239.55C127.511 240.96 127.032 242.714 126.289 244.281C125.557 245.826 124.511 247.31 123.101 248.011C122.376 248.372 121.103 248.607 119.684 248.761C118.227 248.92 116.503 249.002 114.794 249.008C113.086 249.013 111.379 248.94 109.959 248.784C109.25 248.706 108.601 248.606 108.054 248.481C107.522 248.359 107.028 248.201 106.669 247.981C106.339 247.779 106.236 247.35 106.439 247.021C106.641 246.693 107.073 246.59 107.403 246.792C107.563 246.89 107.876 247.008 108.368 247.12C108.844 247.229 109.436 247.322 110.113 247.396C111.467 247.545 113.119 247.617 114.79 247.612C116.461 247.607 118.135 247.526 119.532 247.374C120.966 247.218 122.001 246.997 122.474 246.762C123.458 246.273 124.332 245.138 125.021 243.686C125.698 242.257 126.141 240.637 126.332 239.347C126.446 238.576 126.794 237.619 127.22 236.634C127.653 235.636 128.191 234.552 128.719 233.513C128.862 233.233 129.004 232.956 129.143 232.684C129.522 231.944 129.879 231.245 130.178 230.624C130.6 229.749 130.855 229.127 130.915 228.799C130.984 228.419 131.349 228.168 131.73 228.237Z" fill="#6562CF"/>
<path fill-rule="evenodd" clip-rule="evenodd" d="M117.057 240.432C117.057 240.432 117.057 240.432 116.811 240.978L117.057 240.432C117.36 240.567 117.496 240.921 117.36 241.222C117.225 241.524 116.869 241.659 116.566 241.524C116.566 241.524 116.566 241.524 116.566 241.524L116.566 241.524C116.566 241.524 116.566 241.524 116.566 241.524L116.566 241.524L116.559 241.521C116.553 241.518 116.543 241.514 116.53 241.508C116.502 241.497 116.459 241.479 116.402 241.457C116.288 241.412 116.118 241.348 115.9 241.276C115.462 241.131 114.834 240.951 114.08 240.815C112.566 240.542 110.581 240.454 108.615 241.143C108.301 241.253 107.958 241.089 107.848 240.778C107.737 240.466 107.902 240.124 108.215 240.015C110.446 239.232 112.66 239.343 114.295 239.638C115.115 239.786 115.799 239.981 116.28 240.141C116.521 240.221 116.711 240.292 116.843 240.344C116.909 240.37 116.961 240.391 116.997 240.406C117.015 240.413 117.029 240.419 117.039 240.424L117.051 240.429L117.055 240.431L117.056 240.431L117.057 240.432Z" fill="white"/>
<path d="M110.85 116.121C110.85 116.121 69.1149 136.461 69.1149 148.972C69.1149 171.29 106.443 218.367 112.854 217.748C119.264 217.13 125.579 215.78 125.332 213.08C125.086 210.38 111.661 168.045 101.229 155.512C101.229 155.512 105.036 149.548 128.829 149.809C140.296 149.935 150.294 150.71 150.54 151.079C150.787 151.448 138.073 176.137 144.56 214.313C145.127 217.639 159.107 219.035 160.462 217.194C161.816 215.353 183.515 150.529 181.421 145.37C179.327 140.212 157.574 121.736 146.965 116.115C139.324 112.069 110.85 116.121 110.85 116.121Z" fill="#3F4D79"/>
<path d="M98.932 51.6214C93.6395 54.5128 85.7298 80.4422 85.7298 80.4422C85.7298 80.4422 66.6721 57.165 65.7903 56.9457C64.9086 56.7263 59.7884 63.5262 59.7884 63.5262C59.7884 63.5262 69.7381 107.732 85.2589 108.715C91.7738 109.127 97.2827 105.367 101.806 99.8708C103.81 106.521 105.681 112.005 105.681 112.005C106.483 114.797 91.5253 122.484 94.938 124.596C94.938 124.596 106.583 120.827 127.132 126.099C151.7 132.409 163.578 127.623 161.255 125.788C158.933 123.954 155.286 117.989 154.025 113.999L156.292 92.5265C156.292 92.5265 164.223 112.559 176.213 112.559C190.515 112.559 203.587 69.0499 203.587 69.0499C198.503 68.9063 194.291 65.293 194.291 65.293C188.916 69.0499 177.73 82.211 177.73 82.211C177.73 82.211 170.758 61.239 167.418 56.4691C164.077 51.6992 153.189 47.9403 145.919 46.2074L117.158 44.9052C115.228 44.5383 103.435 48.5604 98.932 51.6214Z" fill="#FFB000"/>
<path fill-rule="evenodd" clip-rule="evenodd" d="M172.374 88.3947C173.656 86.0137 175.412 83.074 177.276 80.941L178.184 81.7261C176.411 83.7548 174.705 86.598 173.434 88.9595C172.801 90.1355 172.281 91.1827 171.919 91.9356C171.738 92.3119 171.597 92.6144 171.501 92.8223C171.453 92.9262 171.417 93.0065 171.392 93.0605C171.38 93.0875 171.371 93.1079 171.365 93.1215L171.358 93.1366L171.356 93.141C171.356 93.141 171.356 93.1411 170.806 92.8994C170.256 92.6577 170.256 92.6576 170.256 92.6575L170.259 92.6514L170.267 92.6345C170.273 92.6198 170.283 92.5982 170.296 92.5699C170.321 92.5134 170.359 92.4306 170.408 92.3239C170.506 92.1106 170.65 91.8021 170.834 91.4193C171.202 90.6539 171.731 89.59 172.374 88.3947Z" fill="#F49C00"/>
<path fill-rule="evenodd" clip-rule="evenodd" d="M126.799 56.294C126.723 56.2749 126.63 56.2509 126.521 56.2218C126.188 56.133 125.707 55.9967 125.121 55.8077C123.947 55.4292 122.36 54.8417 120.701 54.0055C117.353 52.319 113.845 49.6898 112.686 45.8498L111.534 46.1941C112.84 50.5179 116.727 53.3446 120.158 55.073C121.887 55.9443 123.535 56.554 124.75 56.9458C125.358 57.142 125.859 57.2841 126.209 57.3775C126.385 57.4243 126.523 57.4588 126.618 57.4819C126.665 57.4935 126.702 57.5021 126.727 57.508C126.74 57.511 126.749 57.5132 126.756 57.5148L126.764 57.5166L126.767 57.5172L126.767 57.5173C126.768 57.5174 126.768 57.5174 126.899 56.9337L126.768 57.5174L127.009 57.5712L127.218 57.4407L127.219 57.4406L127.219 57.4406L127.22 57.4397L127.227 57.4356C127.233 57.4318 127.242 57.426 127.255 57.4182C127.281 57.4025 127.319 57.3789 127.371 57.348C127.474 57.286 127.628 57.1945 127.83 57.0781C128.235 56.8451 128.829 56.5123 129.588 56.116C131.105 55.3231 133.273 54.2772 135.873 53.2677C141.084 51.2447 147.981 49.3879 154.832 49.9641L154.933 48.7719C147.821 48.1737 140.726 50.0996 135.436 52.1531C132.786 53.1819 130.577 54.2476 129.029 55.0568C128.254 55.4615 127.645 55.8023 127.228 56.0428C127.049 56.1459 126.905 56.2306 126.799 56.294Z" fill="#F49C00"/>
<path fill-rule="evenodd" clip-rule="evenodd" d="M97.2299 80.0892C97.5598 80.0514 97.858 80.2868 97.896 80.615C98.4267 85.1965 100.605 92.9745 102.669 99.6523C103.698 102.981 104.693 106.021 105.431 108.229C105.801 109.332 106.105 110.228 106.318 110.847C106.424 111.157 106.507 111.397 106.564 111.56C106.592 111.642 106.614 111.704 106.628 111.746L106.65 111.808C106.65 111.808 106.65 111.808 106.082 112.005C105.514 112.202 105.514 112.201 105.514 112.201L105.492 112.137C105.477 112.095 105.455 112.032 105.427 111.95C105.37 111.786 105.287 111.544 105.18 111.233C104.967 110.612 104.661 109.713 104.291 108.606C103.55 106.393 102.552 103.344 101.519 100.004C99.4608 93.3438 97.247 85.461 96.7015 80.752C96.6635 80.4238 96.9001 80.127 97.2299 80.0892ZM106.28 112.57C105.966 112.679 105.624 112.514 105.514 112.202L106.082 112.005L106.65 111.808C106.759 112.12 106.593 112.461 106.28 112.57Z" fill="#F49C00"/>
<path d="M203.184 53.1768C202.998 54.3633 201.702 56.2039 202.984 56.1899C203.645 56.1899 208.427 55.4142 209.012 57.165C209.259 57.9971 209.215 58.8881 208.886 59.6916C209.934 61.249 209.132 62.5212 209.132 62.5212C209.765 63.4903 209.934 64.7446 209.493 65.297C209.493 65.297 210.601 67.8395 209.543 68.4298C206.265 70.2643 201.036 70.6452 198.503 69.9931C196.726 69.5365 194.593 68.4437 194.048 64.6788C193.824 63.1374 195.367 59.0953 196.545 57.4283C197.026 56.7423 198.788 54.0064 199.383 53.2566C200.231 52.1587 200.809 50.8781 201.07 49.5176C201.07 49.5176 203.705 49.8626 203.184 53.1768Z" fill="#C36F0B"/>
<path fill-rule="evenodd" clip-rule="evenodd" d="M207.413 56.537C207.633 56.5054 207.836 56.6565 207.868 56.8745C207.917 57.2124 207.68 57.4299 207.518 57.5357C207.343 57.6503 207.112 57.7362 206.873 57.805C206.387 57.945 205.734 58.0494 205.075 58.132C204.451 58.2104 203.8 58.2714 203.247 58.3232C203.213 58.3264 203.18 58.3296 203.147 58.3327C202.556 58.3881 202.126 58.4307 201.945 58.4699L201.945 58.4701C201.793 58.5027 201.666 58.6078 201.575 58.7968C201.483 58.9904 201.445 59.2473 201.478 59.5018C201.512 59.7573 201.611 59.9695 201.746 60.0999C201.867 60.2177 202.041 60.2939 202.309 60.251L202.332 60.2474L202.355 60.2463C204.45 60.1511 206.531 59.8523 208.568 59.3541C208.783 59.3015 209 59.4323 209.053 59.6462C209.105 59.8601 208.974 60.0761 208.759 60.1287C206.678 60.6376 204.553 60.9435 202.413 61.0422C201.912 61.1155 201.49 60.9659 201.186 60.6714C200.891 60.3848 200.734 59.989 200.683 59.6047C200.633 59.2192 200.684 58.8045 200.852 58.4541C201.021 58.099 201.325 57.7877 201.775 57.6906C202.016 57.6382 202.512 57.591 203.071 57.5386C203.104 57.5355 203.136 57.5324 203.17 57.5293C203.724 57.4773 204.363 57.4174 204.975 57.3406C205.628 57.2588 206.228 57.1603 206.651 57.0387C206.863 56.9776 207.001 56.9188 207.075 56.8712C207.101 56.7023 207.235 56.5628 207.413 56.537ZM207.111 56.844C207.111 56.844 207.11 56.8453 207.107 56.8476C207.11 56.8452 207.111 56.844 207.111 56.844Z" fill="#B65A18"/>
<path fill-rule="evenodd" clip-rule="evenodd" d="M202.767 60.5712C202.808 60.7877 202.664 60.9961 202.447 61.0367C202.101 61.1012 201.928 61.2605 201.835 61.4382C201.732 61.6335 201.703 61.8988 201.749 62.188C201.794 62.4759 201.907 62.744 202.036 62.9215C202.1 63.0103 202.156 63.0607 202.194 63.0841C202.201 63.0885 202.206 63.0914 202.21 63.0933L202.243 63.0868L202.295 63.0904C202.296 63.0904 202.298 63.0905 202.301 63.0907C202.309 63.091 202.323 63.0914 202.343 63.0916C202.384 63.0921 202.452 63.0919 202.551 63.0885C202.75 63.0817 203.074 63.062 203.561 63.01C204.536 62.906 206.16 62.6729 208.734 62.1562C208.951 62.1126 209.163 62.2524 209.207 62.4683C209.25 62.6842 209.11 62.8945 208.893 62.9381C206.301 63.4582 204.652 63.6958 203.647 63.8031C203.143 63.8568 202.8 63.8781 202.579 63.8857C202.468 63.8895 202.388 63.8899 202.333 63.8892C202.316 63.889 202.302 63.8887 202.29 63.8884C202.091 63.9115 201.911 63.8485 201.77 63.7609C201.617 63.6663 201.489 63.5312 201.385 63.387C201.176 63.0984 201.02 62.7103 200.957 62.3115C200.894 61.914 200.918 61.4621 201.124 61.0691C201.34 60.6586 201.73 60.3588 202.299 60.2528C202.517 60.2122 202.726 60.3548 202.767 60.5712ZM202.219 63.0965C202.219 63.0966 202.218 63.0965 202.217 63.0962C202.218 63.0964 202.219 63.0965 202.219 63.0965Z" fill="#B65A18"/>
<path fill-rule="evenodd" clip-rule="evenodd" d="M202.645 63.4932C202.671 63.7119 202.514 63.9103 202.294 63.9363C202.069 63.9628 201.973 64.0617 201.918 64.1892C201.851 64.3465 201.837 64.5848 201.894 64.862C201.95 65.1341 202.063 65.3935 202.19 65.57C202.253 65.6584 202.309 65.7115 202.348 65.738C202.357 65.744 202.364 65.7478 202.369 65.7502L202.388 65.748L202.425 65.7507C202.425 65.7507 202.425 65.7507 202.426 65.7507C202.427 65.7508 202.431 65.751 202.436 65.7512C202.446 65.7517 202.463 65.7524 202.488 65.7529C202.537 65.754 202.616 65.7547 202.727 65.7522C202.949 65.7472 203.301 65.7299 203.806 65.6796C204.817 65.579 206.437 65.3465 208.856 64.8178C209.072 64.7705 209.286 64.9066 209.333 65.1217C209.381 65.3368 209.244 65.5496 209.028 65.5968C206.585 66.1309 204.933 66.369 203.886 66.4733C203.363 66.5255 202.99 66.5442 202.745 66.5496C202.622 66.5524 202.532 66.5518 202.47 66.5504C202.442 66.5497 202.42 66.5489 202.403 66.5482C202.205 66.5602 202.032 66.4879 201.899 66.3984C201.757 66.3027 201.636 66.1716 201.537 66.033C201.338 65.7557 201.184 65.3901 201.108 65.0212C201.034 64.6572 201.026 64.2382 201.18 63.8768C201.348 63.4856 201.69 63.2044 202.199 63.1442C202.419 63.1182 202.619 63.2745 202.645 63.4932ZM202.425 65.7506L202.425 65.7506L202.425 65.7506ZM202.377 65.7536C202.377 65.7536 202.376 65.7535 202.376 65.7532C202.376 65.7534 202.377 65.7535 202.377 65.7536Z" fill="#B65A18"/>
<path fill-rule="evenodd" clip-rule="evenodd" d="M203.758 66.1066C203.795 65.7095 203.795 65.7095 203.795 65.7095L203.758 66.1066ZM202.447 67.0121C202.458 67.4704 202.524 67.7591 202.634 67.9462C202.731 68.1105 202.887 68.2364 203.198 68.3116C203.528 68.391 204.006 68.4061 204.699 68.3434C205.387 68.2813 206.256 68.1461 207.352 67.9458C207.57 67.906 207.779 68.0494 207.819 68.266C207.859 68.4827 207.715 68.6905 207.497 68.7303C206.395 68.9317 205.497 69.0723 204.772 69.1378C204.052 69.2028 203.469 69.1976 203.01 69.0868C202.533 68.9718 202.172 68.7377 201.943 68.3502C201.728 67.9855 201.658 67.5307 201.646 67.0319L201.646 67.0315C201.636 66.6381 201.795 66.3334 202.041 66.1223C202.272 65.925 202.56 65.8249 202.806 65.7709C203.058 65.7159 203.304 65.7013 203.482 65.6994C203.573 65.6985 203.649 65.7008 203.703 65.7035C203.73 65.7048 203.752 65.7062 203.767 65.7073C203.775 65.7079 203.781 65.7084 203.786 65.7088L203.792 65.7093L203.794 65.7094L203.795 65.7095" fill="#B65A18"/>
<path d="M58.8345 47.2922C58.8746 48.4887 59.9267 50.4549 58.6662 50.2834C58.0129 50.1956 53.3938 48.8616 52.6042 50.5147C52.2579 51.305 52.1929 52.1892 52.4198 53.0213C51.1974 54.4291 51.8307 55.7811 51.8307 55.7811C51.0892 56.6605 50.7706 57.8769 51.1373 58.4751C51.1373 58.4751 49.7345 60.8461 50.7044 61.556C53.7104 63.7615 58.8205 64.7685 61.3976 64.4315C63.2012 64.1962 65.4396 63.3767 66.4376 59.7314C66.8384 58.2398 65.8184 54.0781 64.8625 52.2834C64.4717 51.5476 63.0689 48.6382 62.5719 47.8266C61.8727 46.6411 61.461 45.3097 61.3696 43.9381C61.3696 43.9381 58.7263 43.962 58.8345 47.2922Z" fill="#C36F0B"/>
<path d="M52.8026 61.7275C57.041 63.0516 57.9849 62.9599 58.2674 61.0794C58.3556 60.4812 57.8446 60.208 57.3817 60.0824C57.5956 60.1241 57.8117 60.154 58.0289 60.1721C58.6742 60.3296 59.7664 58.1421 58.7985 57.5379C59.1993 57.3385 59.6241 55.9087 59.6221 54.6385C60.3696 54.124 60.4237 52.5985 59.554 52.2934C58.7343 52.0082 53.9429 51.2485 54.1433 50.4788L52.8026 61.7275Z" fill="#C36F0B"/>
<path fill-rule="evenodd" clip-rule="evenodd" d="M53.8621 50.369C53.9208 50.2144 54.0943 50.1366 54.2496 50.195C54.7066 50.3671 56.2772 50.8853 57.6342 51.333C58.5233 51.6263 59.3207 51.8894 59.6532 52.0051C60.0495 52.143 60.2923 52.4592 60.4089 52.8085C60.5243 53.1541 60.5245 53.5498 60.4317 53.908C60.3391 54.2655 60.1457 54.6154 59.8413 54.8457C59.5294 55.0818 59.1244 55.1732 58.6656 55.0457C56.6534 54.6724 54.68 54.1156 52.7705 53.3821C52.6156 53.3226 52.5385 53.1494 52.5983 52.9953C52.6581 52.8412 52.8321 52.7645 52.987 52.824C54.8664 53.5459 56.8087 54.0936 58.7893 54.4601L58.8037 54.4627L58.8178 54.4668C59.1054 54.5495 59.3179 54.4903 59.4774 54.3696C59.6478 54.2406 59.7813 54.0219 59.8496 53.7587C59.9176 53.4963 59.9125 53.2192 59.8384 52.9971C59.7655 52.7787 59.6346 52.6323 59.4548 52.5698L59.4548 52.5698C59.1438 52.4616 58.3694 52.206 57.4947 51.9173C56.1213 51.464 54.5003 50.929 54.0369 50.7546C53.8816 50.6961 53.8034 50.5235 53.8621 50.369Z" fill="#B65A18"/>
<path fill-rule="evenodd" clip-rule="evenodd" d="M58.448 54.6633C58.4984 54.5059 58.6675 54.419 58.8257 54.4692C59.3466 54.6345 59.6709 54.9571 59.8217 55.3579C59.9672 55.7447 59.9389 56.1705 59.8322 56.5418C59.7253 56.9141 59.5308 57.2636 59.3015 57.5106C59.1869 57.634 59.0539 57.7424 58.9072 57.8104C58.7691 57.8745 58.6035 57.9088 58.4335 57.8649C58.4225 57.8637 58.4091 57.8622 58.3929 57.8601C58.3469 57.8542 58.2784 57.8441 58.1823 57.8271C57.9903 57.793 57.6866 57.7308 57.2294 57.6175C56.3152 57.391 54.7824 56.9588 52.2948 56.1347C52.1373 56.0825 52.0521 55.9132 52.1046 55.7564C52.157 55.5997 52.3272 55.5149 52.4847 55.5671C54.963 56.3881 56.4802 56.8154 57.3746 57.037C57.8217 57.1478 58.1119 57.2069 58.2878 57.2381C58.3756 57.2537 58.4346 57.2623 58.4699 57.2668C58.4876 57.2691 58.4993 57.2703 58.5057 57.271L58.5111 57.2715L58.5473 57.2738L58.5832 57.2855L58.5833 57.2855C58.584 57.2858 58.5877 57.287 58.5974 57.2859C58.6083 57.2847 58.6268 57.2804 58.6533 57.2682C58.7082 57.2427 58.7801 57.1906 58.8599 57.1047C59.0192 56.9331 59.1705 56.6687 59.2542 56.3774C59.3381 56.0852 59.3452 55.7978 59.2586 55.5676C59.1773 55.3513 59.0018 55.153 58.643 55.0391C58.4848 54.9889 58.3975 54.8207 58.448 54.6633Z" fill="#B65A18"/>
<path fill-rule="evenodd" clip-rule="evenodd" d="M57.7009 57.4609C57.7226 57.2971 57.8736 57.1819 58.0382 57.2035C58.5577 57.2717 58.9086 57.5321 59.0956 57.9014C59.2737 58.253 59.2856 58.6672 59.2205 59.0346C59.155 59.4043 59.005 59.7651 58.8125 60.0298C58.7165 60.1618 58.6005 60.2829 58.466 60.3653C58.3374 60.4442 58.1739 60.4972 57.997 60.4631C57.9968 60.4631 57.9967 60.4631 57.9966 60.4631C57.9807 60.4619 57.958 60.46 57.9281 60.4571C57.8685 60.4512 57.7803 60.441 57.6611 60.4238C57.4228 60.3893 57.06 60.3265 56.5524 60.2124C55.5375 59.9843 53.9419 59.551 51.6024 58.7293C51.4458 58.6743 51.3637 58.5034 51.419 58.3477C51.4742 58.1919 51.6459 58.1102 51.8025 58.1652C54.1242 58.9806 55.6969 59.4068 56.6849 59.6288C57.1788 59.7398 57.5262 59.7997 57.7476 59.8318C57.8583 59.8478 57.9374 59.8568 57.9876 59.8618C58.0127 59.8643 58.0305 59.8657 58.0414 59.8665C58.0469 59.8669 58.0506 59.8672 58.0526 59.8673L58.0539 59.8674L58.0541 59.8674L58.0543 59.8674L58.0544 59.8674L58.0544 59.8674L58.0831 59.8688L58.1082 59.875C58.1135 59.8742 58.127 59.8705 58.1508 59.8559C58.1968 59.8277 58.2584 59.7713 58.3255 59.6791C58.4591 59.4953 58.577 59.221 58.6284 58.9307C58.6803 58.638 58.6583 58.3672 58.5588 58.1707C58.4682 57.9919 58.2978 57.841 57.9596 57.7966C57.795 57.7749 57.6792 57.6246 57.7009 57.4609ZM58.1056 59.8752C58.1056 59.8751 58.1062 59.8751 58.1074 59.8752C58.1061 59.8753 58.1056 59.8753 58.1056 59.8752Z" fill="#B65A18"/>
<path fill-rule="evenodd" clip-rule="evenodd" d="M56.3898 59.9597C56.3948 59.7946 56.5334 59.6648 56.6993 59.6698L56.6903 59.9687C56.6993 59.6698 56.6994 59.6698 56.6995 59.6698L56.6998 59.6698L56.7004 59.6698L56.7021 59.6698L56.7073 59.67C56.7116 59.6702 56.7175 59.6705 56.7249 59.6708C56.7398 59.6716 56.7607 59.6728 56.7868 59.6747C56.8388 59.6786 56.9119 59.6853 56.9987 59.6969C57.1706 59.7199 57.4044 59.7631 57.6375 59.8449C57.8669 59.9255 58.1215 60.0524 58.3093 60.2579C58.5079 60.4752 58.6175 60.766 58.5648 61.1229L58.5647 61.1237C58.4918 61.6088 58.3707 62.0285 58.1292 62.3419C57.8757 62.6711 57.5176 62.8482 57.054 62.9016C56.604 62.9534 56.0413 62.891 55.343 62.7408C54.6405 62.5897 53.7764 62.3441 52.7147 62.0129C52.5563 61.9635 52.4681 61.7957 52.5178 61.6381C52.5674 61.4804 52.7361 61.3927 52.8945 61.4421C53.952 61.772 54.795 62.0109 55.47 62.1561C56.1492 62.3022 56.6343 62.3477 56.9849 62.3073C57.3218 62.2685 57.5172 62.1532 57.6521 61.978C57.7992 61.7871 57.9017 61.4905 57.9701 61.0355C57.9954 60.8633 57.9469 60.7506 57.8645 60.6604C57.7713 60.5585 57.6218 60.4738 57.4374 60.4091C57.2568 60.3456 57.0669 60.3097 56.9187 60.2898C56.8454 60.28 56.7843 60.2744 56.7422 60.2713C56.7212 60.2698 56.705 60.2688 56.6945 60.2683C56.6893 60.268 56.6855 60.2679 56.6832 60.2678L56.6813 60.2677L56.6811 60.2677C56.5152 60.2627 56.3848 60.1248 56.3898 59.9597Z" fill="#B65A18"/>
<path d="M139.819 27.5606C139.819 27.5606 136.767 41.1484 145.919 46.2074C145.919 46.2074 137.502 47.6532 126.745 56.4691C126.745 56.4691 118.465 49.5316 117.158 44.9033C117.158 44.9033 125.575 42.0138 124.711 27.5546L139.819 27.5606Z" fill="#C36F0B"/>
<path d="M139.819 27.5609H124.711C125.583 42.0161 117.158 44.9096 117.158 44.9096C117.158 44.9096 133.957 44.9096 138.709 30.0056L139.819 27.5609Z" fill="#B65A18"/>
<path d="M140.396 27.4269C140.396 27.4269 135.909 36.1312 125.188 36.1351C115.625 36.1351 114.166 8.20371 128.408 7.81885C141.979 7.45193 140.232 23.4307 140.232 23.4307C140.232 23.4307 142.675 22.0169 143.562 23.4885C144.45 24.9602 140.396 27.4269 140.396 27.4269Z" fill="#C36F0B"/>
<path fill-rule="evenodd" clip-rule="evenodd" d="M134.123 8.56281C134.289 8.56805 134.419 8.70615 134.414 8.87126L134.114 8.86177C134.414 8.87126 134.414 8.87148 134.414 8.87172L134.414 8.87377L134.414 8.87805C134.414 8.88148 134.413 8.88608 134.413 8.8918C134.413 8.90323 134.412 8.91917 134.41 8.9393C134.407 8.97956 134.401 9.03666 134.392 9.1082C134.373 9.25117 134.339 9.45239 134.275 9.69232C134.148 10.1716 133.905 10.81 133.438 11.4467C132.494 12.7353 130.675 13.9606 127.229 13.9228C121.485 13.86 118.46 17.0874 118.174 19.2581C118.152 19.4219 118.001 19.5372 117.836 19.5157C117.672 19.4942 117.556 19.344 117.577 19.1802C117.916 16.6129 121.296 13.2597 127.235 13.3246C130.516 13.3606 132.138 12.2049 132.953 11.0941C133.366 10.5311 133.581 9.9652 133.694 9.54008C133.75 9.32781 133.78 9.15182 133.796 9.03062C133.804 8.97008 133.808 8.92336 133.811 8.89282C133.812 8.87755 133.812 8.86634 133.813 8.85948L133.813 8.8525L133.813 8.85228" fill="#3F4D79"/>
<path d="M152.56 18.4116C152.56 23.68 146.17 28.2345 139.094 31.3254C138.675 31.5088 137.997 31.5507 137.14 31.4829C138.432 30.3094 139.531 28.9406 140.396 27.4269C140.396 27.4269 144.426 24.9263 143.554 23.4885C142.683 22.0508 140.224 23.4287 140.224 23.4287C140.224 23.4287 141.448 12.2916 133.955 8.83187C133.897 8.93955 131.951 12.3535 126.2 12.5349C120.729 12.7044 119.236 14.7803 118.611 16.9499C118.591 17.0256 118.571 17.0994 118.553 17.1752C117.848 20.0611 117.679 23.0509 118.056 25.9971L118.024 25.9852C117.493 25.3431 110.236 16.1921 112.13 11.2846C114.188 5.95039 127.342 -1.57337 137.873 0.28912C143.755 1.33204 152.558 15.6417 152.56 18.4116Z" fill="#3F4D79"/>
<path d="M104.864 93.9223H24.1538C23.0463 93.9208 21.9672 93.5737 21.0685 92.9298C20.1697 92.2858 19.4966 91.3776 19.1439 90.3329L2.03803 39.6487C1.85012 39.0917 1.7981 38.4983 1.88624 37.9173C1.97439 37.3364 2.20019 36.7847 2.54497 36.3078C2.88976 35.8308 3.34364 35.4424 3.86912 35.1745C4.3946 34.9066 4.97659 34.767 5.56702 34.7672H86.2769C87.3843 34.7689 88.4633 35.1162 89.362 35.7601C90.2607 36.4039 90.9339 37.312 91.2868 38.3565L108.383 89.0288C108.573 89.5856 108.627 90.1795 108.54 90.7613C108.454 91.343 108.229 91.8959 107.885 92.3742C107.541 92.8524 107.088 93.2423 106.562 93.5115C106.037 93.7807 105.455 93.9215 104.864 93.9223Z" fill="#C7BFFF"/>
<path d="M103.022 95.8985H22.3102C21.2027 95.897 20.1236 95.5499 19.2248 94.9059C18.326 94.262 17.6529 93.3537 17.3003 92.3091L0.20039 41.6349C0.0125381 41.0781 -0.0395144 40.4848 0.0485304 39.904C0.136575 39.3232 0.362192 38.7716 0.706751 38.2947C1.05131 37.8178 1.50493 37.4293 2.03015 37.1613C2.55537 36.8933 3.13712 36.7534 3.72738 36.7533H84.4352C85.5427 36.7548 86.6218 37.1019 87.5206 37.7458C88.4194 38.3898 89.0925 39.298 89.4452 40.3427L106.543 91.0169C106.731 91.5732 106.783 92.166 106.695 92.7463C106.607 93.3266 106.382 93.8779 106.038 94.3546C105.695 94.8314 105.242 95.22 104.717 95.4884C104.193 95.7568 103.612 95.8974 103.022 95.8985Z" fill="white"/>
<path fill-rule="evenodd" clip-rule="evenodd" d="M5.56683 35.2118C5.07179 35.2117 4.58382 35.3288 4.14323 35.5534C3.70265 35.778 3.32209 36.1037 3.033 36.5036C2.74392 36.9034 2.5546 37.366 2.48069 37.8531C2.40679 38.3402 2.4504 38.8377 2.60792 39.3047C2.60793 39.3047 2.60791 39.3047 2.60792 39.3047L19.7138 89.9789C20.0262 90.905 20.6228 91.7104 21.4195 92.2811C22.2162 92.8519 23.1728 93.1595 24.1545 93.1606H104.864C105.358 93.1604 105.846 93.0432 106.287 92.8185C106.727 92.5937 107.107 92.268 107.396 91.8682C107.685 91.4683 107.874 91.0058 107.948 90.5189C108.022 90.0319 107.978 89.5345 107.821 89.0677L90.717 38.3937C90.4041 37.4678 89.8074 36.6628 89.0107 36.092C88.2142 35.5213 87.2579 35.2135 86.2764 35.2118H5.56683ZM5.56701 34.0154C4.88127 34.0152 4.20532 34.1774 3.595 34.4885C2.98463 34.7997 2.45742 35.2509 2.05693 35.8049C1.65645 36.3589 1.39417 36.9997 1.29179 37.6745C1.1894 38.3493 1.24983 39.0386 1.46809 39.6856L18.574 90.3597C18.5739 90.3597 18.574 90.3598 18.574 90.3597C18.9664 91.5233 19.716 92.535 20.7169 93.2521C21.7179 93.9693 22.9198 94.3557 24.1532 94.357H104.864C105.549 94.3569 106.225 94.1944 106.835 93.8831C107.445 93.5718 107.972 93.1205 108.372 92.5666C108.773 92.0127 109.035 91.3719 109.137 90.6973C109.239 90.0227 109.179 89.3336 108.961 88.6868L91.8567 38.0125C91.4637 36.8494 90.714 35.838 89.7133 35.121C88.7125 34.404 87.511 34.0173 86.2779 34.0154H5.56701C5.56695 34.0154 5.56707 34.0154 5.56701 34.0154Z" fill="#6562CF"/>
<path d="M69.9546 77.8757L76.0947 93.0808H62.8244C62.8244 93.0808 65.4036 81.186 69.9546 77.8757Z" fill="#E2E2FF"/>
<path d="M78.78 112.15C52.6503 112.15 63.638 84.3267 68.8343 78.5478H48.7245C43.5302 84.3307 29.4724 113.678 55.6001 113.678H78.78V112.15Z" fill="white"/>
<path fill-rule="evenodd" clip-rule="evenodd" d="M48.4555 77.9495H70.179L69.2824 78.9467C68.0492 80.3181 66.42 83.0687 65.0811 86.4552C63.7458 89.8328 62.7246 93.7799 62.661 97.5263C62.5975 101.273 63.4909 104.756 65.9087 107.302C68.3217 109.842 72.3506 111.552 78.78 111.552H79.3812V114.276H55.6001C48.9607 114.276 44.7317 112.409 42.3025 109.375C39.8865 106.357 39.3617 102.321 39.819 98.2155C40.2773 94.1017 41.7302 89.8274 43.3866 86.2275C45.0399 82.6344 46.9221 79.6567 48.2763 78.1491L48.4555 77.9495ZM48.9982 79.146C47.763 80.5939 46.0323 83.3517 44.4799 86.7256C42.8561 90.2546 41.4536 94.4015 41.0141 98.3473C40.5736 102.302 41.1087 105.964 43.2429 108.629C45.364 111.279 49.1756 113.08 55.6001 113.08H78.1789V112.744C71.8778 112.64 67.6655 110.893 65.0349 108.124C62.3263 105.272 61.3921 101.437 61.4588 97.5061C61.5255 93.5742 62.5924 89.4818 63.9622 86.0171C65.0715 83.2113 66.3961 80.7755 67.5857 79.146H48.9982Z" fill="#6562CF"/>
<path d="M56.5989 65.2862C57.7249 63.5111 56.816 60.928 54.5688 59.5166C52.3217 58.1052 49.5873 58.4 48.4613 60.175C47.3353 61.9501 48.2442 64.5333 50.4913 65.9447C52.7385 67.3561 55.4729 67.0613 56.5989 65.2862Z" fill="#E2E2FF"/>
<path fill-rule="evenodd" clip-rule="evenodd" d="M50.2532 59.417C49.3696 60.81 50.0137 63.0537 52.0958 64.3615C54.1779 65.6692 56.4904 65.2826 57.374 63.8895C58.2577 62.4965 57.6136 60.2529 55.5315 58.9451C53.4494 57.6374 51.1368 58.024 50.2532 59.417ZM51.454 65.3732C49.0418 63.8582 47.8681 60.9355 49.2364 58.7784C50.6048 56.6213 53.7611 56.4183 56.1733 57.9333C58.5855 59.4484 59.7591 62.371 58.3908 64.5282C57.0225 66.6853 53.8662 66.8883 51.454 65.3732Z" fill="#6562CF"/>
<path d="M18.7872 113.678H138.458C140.218 113.678 141.645 115.002 141.645 116.637C141.645 118.27 140.218 119.594 138.458 119.594H18.7872V113.678Z" fill="white"/>
<path fill-rule="evenodd" clip-rule="evenodd" d="M138.458 114.276H18.7872V113.08H138.458C140.51 113.08 142.246 114.633 142.246 116.637C142.246 118.639 140.51 120.193 138.458 120.193H18.7872V118.996H138.458C139.926 118.996 141.043 117.901 141.043 116.637C141.043 115.371 139.926 114.276 138.458 114.276Z" fill="#6562CF"/>
</g>
<defs>
<clipPath id="clip0">
<rect width="210" height="249" fill="white"/>
</clipPath>
</defs>
</svg>
