<svg width="45" height="45" viewBox="0 0 45 45" fill="none" xmlns="http://www.w3.org/2000/svg">
<path d="M39 0H6C5.58581 0 5.25 0.335812 5.25 0.75V44.25C5.25 44.6642 5.58581 45 6 45H39C39.4142 45 39.75 44.6642 39.75 44.25V0.75C39.75 0.335812 39.4142 0 39 0ZM38.25 43.5H6.75V1.5H38.25V43.5Z" fill="#B961FF"/>
<path d="M35.7791 36.2596C35.5128 35.9714 35.0696 35.9372 34.7622 36.1809L30.3589 39.9542L29.9607 38.7632C29.8298 38.3697 29.4046 38.1568 29.0111 38.2877C28.6177 38.4186 28.4048 38.8437 28.5356 39.2372L29.2856 41.4872C29.3644 41.7241 29.5558 41.9063 29.7964 41.9732C29.8626 41.9913 29.931 42.0004 29.9996 42.0002C30.1786 42.0005 30.3517 41.9363 30.4872 41.8194L35.7372 37.3194C36.0414 37.0384 36.0602 36.5638 35.7791 36.2596Z" fill="#B961FF"/>
<path d="M22.5 3C20.8432 3 19.5 4.34316 19.5 6C19.5 7.65684 20.8432 9 22.5 9C24.1568 9 25.5 7.65684 25.5 6C25.5 4.34316 24.1568 3 22.5 3ZM22.5 7.5C21.6715 7.5 21 6.82847 21 6C21 5.17153 21.6715 4.5 22.5 4.5C23.3285 4.5 24 5.17153 24 6C24 6.82847 23.3285 7.5 22.5 7.5Z" fill="#B961FF"/>
<path d="M34.5 12H10.5C10.0858 12 9.75 12.3358 9.75 12.75C9.75 13.1642 10.0858 13.5 10.5 13.5H34.5C34.9142 13.5 35.25 13.1642 35.25 12.75C35.25 12.3358 34.9142 12 34.5 12Z" fill="#B961FF"/>
<path d="M34.5 16.5H10.5C10.0858 16.5 9.75 16.8358 9.75 17.25C9.75 17.6642 10.0858 18 10.5 18H34.5C34.9142 18 35.25 17.6642 35.25 17.25C35.25 16.8358 34.9142 16.5 34.5 16.5Z" fill="#B961FF"/>
<path d="M34.5 20.25H10.5C10.0858 20.25 9.75 20.5858 9.75 21C9.75 21.4142 10.0858 21.75 10.5 21.75H34.5C34.9142 21.75 35.25 21.4142 35.25 21C35.25 20.5858 34.9142 20.25 34.5 20.25Z" fill="#B961FF"/>
<path d="M34.5 24.75H10.5C10.0858 24.75 9.75 25.0858 9.75 25.5C9.75 25.9142 10.0858 26.25 10.5 26.25H34.5C34.9142 26.25 35.25 25.9142 35.25 25.5C35.25 25.0858 34.9142 24.75 34.5 24.75Z" fill="#B961FF"/>
<path d="M34.5 28.5H10.5C10.0858 28.5 9.75 28.8358 9.75 29.25C9.75 29.6642 10.0858 30 10.5 30H34.5C34.9142 30 35.25 29.6642 35.25 29.25C35.25 28.8358 34.9142 28.5 34.5 28.5Z" fill="#B961FF"/>
<path d="M16.5 37.5H10.5C10.0858 37.5 9.75 37.8358 9.75 38.25C9.75 38.6642 10.0858 39 10.5 39H16.5C16.9142 39 17.25 38.6642 17.25 38.25C17.25 37.8358 16.9142 37.5 16.5 37.5Z" fill="#B961FF"/>
<path d="M15.75 40.5H11.25C10.8358 40.5 10.5 40.8358 10.5 41.25C10.5 41.6642 10.8358 42 11.25 42H15.75C16.1642 42 16.5 41.6642 16.5 41.25C16.5 40.8358 16.1642 40.5 15.75 40.5Z" fill="#B961FF"/>
</svg>
