<svg width="132" height="316" viewBox="0 0 132 316" fill="none" xmlns="http://www.w3.org/2000/svg">
<path fill-rule="evenodd" clip-rule="evenodd" d="M54.7063 281.163C54.7063 280.815 54.9897 280.533 55.3392 280.533H94.919C95.2685 280.533 95.5519 280.815 95.5519 281.163C95.5519 281.512 95.2685 281.794 94.919 281.794H55.3392C54.9897 281.794 54.7063 281.512 54.7063 281.163Z" fill="#424D76"/>
<path fill-rule="evenodd" clip-rule="evenodd" d="M41.2838 194.13C41.5816 193.947 41.9714 194.04 42.1544 194.337L111.714 307.121C111.897 307.418 111.804 307.806 111.506 307.988C111.208 308.171 110.818 308.078 110.635 307.781L41.076 194.997C40.8929 194.7 40.986 194.312 41.2838 194.13Z" fill="#424D76"/>
<path fill-rule="evenodd" clip-rule="evenodd" d="M108.974 194.13C109.272 194.312 109.365 194.7 109.182 194.997L39.6228 307.781C39.4398 308.078 39.05 308.171 38.7522 307.988C38.4544 307.806 38.3613 307.418 38.5443 307.121L108.104 194.337C108.287 194.04 108.677 193.947 108.974 194.13Z" fill="#424D76"/>
<path d="M123.053 185.285C123.053 186.246 120.894 187.15 117.099 187.934C108.934 189.624 93.1974 190.769 75.1291 190.769C57.0607 190.769 41.324 189.624 33.1645 187.932C29.367 187.147 27.2101 186.244 27.2101 185.283C27.2101 182.256 48.6658 179.799 75.1341 179.799C101.602 179.799 123.053 182.256 123.053 185.285Z" fill="white"/>
<path fill-rule="evenodd" clip-rule="evenodd" d="M27.8433 185.277C27.8425 185.281 27.8425 185.282 27.8425 185.283C27.8425 185.283 27.8425 185.286 27.8443 185.292C27.8462 185.299 27.8508 185.312 27.862 185.332C27.8853 185.374 27.9335 185.438 28.0268 185.521C28.2179 185.69 28.5384 185.886 29.0174 186.096C29.9706 186.513 31.4082 186.925 33.2925 187.314L33.293 187.314C41.3868 188.993 57.0705 190.139 75.1285 190.139C93.1865 190.139 108.87 188.993 116.969 187.316L116.97 187.316C118.853 186.927 120.29 186.516 121.244 186.098C121.723 185.889 122.044 185.693 122.235 185.523C122.329 185.44 122.377 185.376 122.4 185.335C122.411 185.315 122.416 185.302 122.418 185.295C122.42 185.288 122.42 185.286 122.42 185.285C122.42 185.285 122.42 185.284 122.419 185.282C122.419 185.282 122.419 185.281 122.419 185.279C122.418 185.276 122.416 185.269 122.411 185.257C122.401 185.235 122.379 185.196 122.331 185.142C122.232 185.03 122.055 184.889 121.769 184.729C121.198 184.41 120.316 184.082 119.121 183.758C116.743 183.114 113.271 182.528 108.946 182.032C100.306 181.043 88.3515 180.429 75.1336 180.429C61.9157 180.429 49.96 181.043 41.3182 182.032C36.9931 182.527 33.5208 183.114 31.1414 183.757C29.9468 184.081 29.0639 184.409 28.4929 184.728C28.2071 184.888 28.0301 185.029 27.931 185.14C27.8834 185.194 27.861 185.233 27.8509 185.255C27.846 185.266 27.8441 185.274 27.8433 185.277ZM41.1737 180.779C49.8769 179.783 61.8831 179.168 75.1336 179.168C88.3841 179.168 100.389 179.783 109.091 180.779C113.438 181.277 116.983 181.872 119.453 182.541C120.683 182.874 121.683 183.235 122.389 183.63C122.742 183.827 123.051 184.05 123.279 184.307C123.511 184.568 123.685 184.897 123.685 185.285C123.685 185.779 123.406 186.173 123.077 186.465C122.744 186.76 122.288 187.019 121.753 187.253C120.678 187.724 119.139 188.156 117.227 188.551C108.997 190.255 93.2072 191.4 75.1285 191.4C57.0498 191.4 41.2602 190.255 33.035 188.549C31.1221 188.154 29.5827 187.721 28.5081 187.251C27.9732 187.016 27.5171 186.757 27.185 186.463C26.8558 186.171 26.5767 185.776 26.5767 185.283C26.5767 184.895 26.7513 184.565 26.983 184.304C27.2111 184.047 27.5209 183.825 27.8735 183.628C28.5793 183.233 29.5794 182.873 30.8098 182.54C33.2805 181.872 36.8264 181.277 41.1737 180.779Z" fill="#FFB000"/>
<path d="M123.053 185.285V190.583C123.053 193.61 101.595 196.067 75.1291 196.067C48.6633 196.067 27.2051 193.612 27.2051 190.583V185.285C27.2051 186.246 29.3646 187.149 33.1595 187.934C41.3241 189.624 57.0582 190.769 75.1291 190.769C93.2 190.769 108.934 189.624 117.099 187.931C120.894 187.149 123.053 186.246 123.053 185.285Z" fill="#FFD880"/>
<path fill-rule="evenodd" clip-rule="evenodd" d="M27.838 186.923V190.583C27.838 190.583 27.838 190.585 27.8388 190.588C27.8396 190.592 27.8416 190.599 27.8465 190.61C27.8565 190.633 27.879 190.672 27.9267 190.726C28.0257 190.837 28.2028 190.978 28.4886 191.138C29.0596 191.457 29.9425 191.786 31.1373 192.109C33.5168 192.753 36.9893 193.339 41.3146 193.834C49.9567 194.823 61.9125 195.436 75.1291 195.436C88.3457 195.436 100.301 194.822 108.944 193.833C113.269 193.338 116.741 192.752 119.121 192.108C120.316 191.785 121.199 191.457 121.77 191.137C122.056 190.978 122.233 190.837 122.332 190.725C122.379 190.671 122.402 190.633 122.412 190.61C122.417 190.599 122.419 190.592 122.419 190.588C122.42 190.585 122.42 190.583 122.42 190.583V186.923C122.216 187.038 121.993 187.148 121.753 187.253C120.679 187.723 119.139 188.155 117.228 188.549C108.997 190.255 93.2104 191.4 75.1291 191.4C57.0478 191.4 41.2608 190.255 33.0307 188.551L33.1595 187.934L33.0307 188.551C31.1189 188.156 29.5795 187.724 28.5046 187.253C28.2653 187.148 28.0417 187.039 27.838 186.923ZM26.5721 185.285V190.583C26.5721 190.971 26.7467 191.3 26.9783 191.561C27.2065 191.818 27.5163 192.041 27.869 192.238C28.5749 192.633 29.5751 192.993 30.8056 193.326C33.2765 193.995 36.8227 194.59 41.1702 195.087C49.8737 196.083 61.8799 196.697 75.1291 196.697C88.3783 196.697 100.385 196.082 109.088 195.086C113.436 194.589 116.982 193.993 119.453 193.325C120.683 192.992 121.683 192.632 122.389 192.237C122.742 192.04 123.052 191.818 123.28 191.561C123.511 191.3 123.686 190.971 123.686 190.583V185.285H122.42V185.285C122.42 185.285 122.42 185.285 122.42 185.285C122.42 185.286 122.42 185.288 122.418 185.295C122.417 185.301 122.412 185.315 122.401 185.334C122.377 185.376 122.329 185.44 122.236 185.523C122.045 185.692 121.724 185.888 121.245 186.098C120.291 186.515 118.854 186.926 116.971 187.314L116.97 187.314C108.871 188.993 93.1896 190.139 75.1291 190.139C57.0687 190.139 41.3873 188.993 33.2882 187.316L33.2881 187.316C31.405 186.927 29.9673 186.516 29.0137 186.098C28.5345 185.889 28.2137 185.693 28.0225 185.523C27.929 185.44 27.8808 185.376 27.8574 185.335C27.8463 185.315 27.8416 185.301 27.8397 185.295C27.838 185.289 27.838 185.286 27.838 185.285C27.838 185.285 27.838 185.285 27.838 185.285V185.285H26.5721Z" fill="#FFB000"/>
<path d="M67.3999 268.533C69.5189 269.739 74.0531 269.872 74.8607 272.967C75.6683 276.063 71.2303 288.317 71.9366 292.643C72.643 296.97 72.5797 306.207 65.3848 307.206C57.4227 308.311 51.3746 305.599 51.3746 302.585C51.3746 299.57 56.0126 296.15 56.7088 291.029C57.405 285.908 59.2405 274.859 59.2405 274.859L67.3999 268.533Z" fill="#FFB000"/>
<path fill-rule="evenodd" clip-rule="evenodd" d="M57.2456 282.024L56.914 281.643C56.7027 281.825 56.6798 282.144 56.863 282.354C57.0457 282.564 57.3645 282.587 57.5759 282.406M57.5768 282.405L57.5764 282.406L57.5759 282.406L57.5792 282.403C57.5831 282.4 57.5901 282.394 57.6002 282.386C57.6203 282.37 57.6528 282.345 57.6973 282.313C57.7862 282.249 57.9227 282.157 58.1035 282.053C58.4654 281.846 59.0022 281.594 59.6899 281.426C61.0531 281.093 63.0482 281.078 65.5079 282.463C65.7513 282.6 66.0602 282.515 66.1978 282.272C66.3354 282.029 66.2495 281.722 66.0061 281.585C63.3139 280.069 61.0533 280.054 59.4487 280.446C58.6526 280.64 58.0275 280.933 57.5986 281.179C57.3839 281.302 57.2176 281.413 57.1027 281.496C57.0453 281.538 57.0006 281.572 56.969 281.597C56.9532 281.61 56.9407 281.62 56.9315 281.628C56.9269 281.632 56.9232 281.635 56.9203 281.637L56.9165 281.64L56.9151 281.642L56.9145 281.642C56.9142 281.642 56.914 281.643 57.2456 282.024" fill="white"/>
<path fill-rule="evenodd" clip-rule="evenodd" d="M56.4861 285.555L56.1545 285.174C55.9431 285.356 55.9203 285.675 56.1034 285.885C56.2862 286.096 56.605 286.119 56.8164 285.937M56.8172 285.937L56.8169 285.937L56.8164 285.937L56.8197 285.935C56.8236 285.931 56.8306 285.926 56.8406 285.918C56.8608 285.902 56.8933 285.877 56.9378 285.844C57.0267 285.78 57.1631 285.688 57.3439 285.584C57.7059 285.377 58.2426 285.125 58.9304 284.957C60.2936 284.624 62.2887 284.609 64.7484 285.994C64.9918 286.131 65.3007 286.046 65.4383 285.803C65.5759 285.561 65.49 285.253 65.2466 285.116C62.5544 283.6 60.2938 283.585 58.6892 283.977C57.8931 284.172 57.268 284.464 56.839 284.71C56.6244 284.833 56.4581 284.945 56.3432 285.028C56.2857 285.069 56.241 285.104 56.2095 285.129C56.1937 285.141 56.1812 285.151 56.172 285.159C56.1674 285.163 56.1637 285.166 56.1607 285.168L56.157 285.172L56.1556 285.173L56.155 285.173C56.1547 285.174 56.1545 285.174 56.4861 285.555" fill="white"/>
<path fill-rule="evenodd" clip-rule="evenodd" d="M56.0577 289.468L56.0574 289.469L56.0569 289.469L56.0602 289.466C56.064 289.463 56.071 289.457 56.0811 289.449C56.1013 289.433 56.1338 289.408 56.1782 289.376C56.2672 289.312 56.4036 289.22 56.5844 289.116C56.9464 288.909 57.4831 288.657 58.1709 288.489C59.5341 288.156 61.5292 288.141 63.9888 289.526C64.2323 289.663 64.5412 289.578 64.6788 289.335C64.8163 289.092 64.7305 288.785 64.4871 288.648C61.7948 287.132 59.5342 287.117 57.9297 287.509C57.1336 287.703 56.5085 287.996 56.0795 288.242C55.8649 288.365 55.6986 288.476 55.5837 288.559C55.5262 288.601 55.4815 288.635 55.45 288.66C55.4342 288.673 55.4217 288.683 55.4125 288.691C55.4079 288.695 55.4041 288.698 55.4012 288.7L55.3975 288.703L55.396 288.705L55.3955 288.705C55.3952 288.705 55.395 288.706 55.7266 289.087L55.395 288.706C55.1836 288.888 55.1608 289.207 55.3439 289.417C55.5267 289.627 55.8455 289.65 56.0568 289.469" fill="white"/>
<path d="M94.5519 283.744C93.2051 285.707 85.438 290.527 85.8456 292.737C86.2531 294.947 93.4051 301.374 93.9088 304.787C94.4126 308.2 93.7088 313.324 96.7316 314.832C99.7544 316.341 115.782 316.439 118.403 314.832C121.023 313.225 118.2 308.102 115.377 306.997C112.554 305.892 104.997 293.34 105.433 285.606L94.5519 283.744Z" fill="#FFB000"/>
<path fill-rule="evenodd" clip-rule="evenodd" d="M109.083 292.426C109.083 292.426 109.084 292.426 108.752 292.807L109.084 292.426C109.295 292.609 109.318 292.927 109.135 293.138C108.952 293.348 108.633 293.371 108.422 293.19M108.421 293.189L108.421 293.189L108.418 293.187C108.414 293.184 108.407 293.178 108.397 293.17C108.377 293.154 108.345 293.129 108.3 293.097C108.211 293.033 108.075 292.94 107.894 292.837C107.532 292.629 106.995 292.378 106.308 292.21C104.944 291.876 102.949 291.862 100.49 293.247C100.246 293.384 99.9373 293.298 99.7997 293.056C99.6622 292.813 99.748 292.505 99.9914 292.368C102.684 290.852 104.944 290.838 106.549 291.23C107.345 291.424 107.97 291.716 108.399 291.962C108.614 292.085 108.78 292.197 108.895 292.28C108.952 292.322 108.997 292.356 109.029 292.381C109.044 292.394 109.057 292.404 109.066 292.411C109.071 292.415 109.074 292.418 109.077 292.421L109.081 292.424L109.082 292.425L109.083 292.426" fill="white"/>
<path fill-rule="evenodd" clip-rule="evenodd" d="M110.349 295.958C110.349 295.958 110.349 295.958 110.018 296.339L110.349 295.958C110.561 296.14 110.583 296.459 110.4 296.67C110.218 296.88 109.899 296.903 109.687 296.722M109.687 296.721L109.687 296.721L109.684 296.719C109.68 296.716 109.673 296.71 109.663 296.702C109.643 296.686 109.61 296.661 109.566 296.629C109.477 296.564 109.341 296.472 109.16 296.369C108.798 296.161 108.261 295.909 107.573 295.741C106.21 295.408 104.215 295.393 101.755 296.778C101.512 296.916 101.203 296.83 101.065 296.587C100.928 296.345 101.014 296.037 101.257 295.9C103.949 294.384 106.21 294.369 107.815 294.761C108.611 294.956 109.236 295.248 109.665 295.494C109.879 295.617 110.046 295.729 110.161 295.812C110.218 295.853 110.263 295.888 110.294 295.913C110.31 295.925 110.323 295.936 110.332 295.943C110.336 295.947 110.34 295.95 110.343 295.953L110.347 295.956L110.348 295.957L110.349 295.958" fill="white"/>
<path fill-rule="evenodd" clip-rule="evenodd" d="M111.868 299.489C111.868 299.49 111.868 299.49 111.537 299.871L111.868 299.49C112.08 299.672 112.102 299.991 111.919 300.201C111.737 300.412 111.418 300.435 111.206 300.253M111.206 300.253L111.206 300.253L111.203 300.251C111.199 300.247 111.192 300.242 111.182 300.234C111.162 300.218 111.129 300.193 111.085 300.16C110.996 300.096 110.86 300.004 110.679 299.9C110.317 299.693 109.78 299.441 109.092 299.273C107.729 298.94 105.734 298.925 103.274 300.31C103.031 300.447 102.722 300.362 102.585 300.119C102.447 299.877 102.533 299.569 102.776 299.432C105.468 297.916 107.729 297.901 109.334 298.293C110.13 298.488 110.755 298.78 111.184 299.026C111.398 299.149 111.565 299.261 111.68 299.344C111.737 299.385 111.782 299.42 111.813 299.445C111.829 299.457 111.842 299.467 111.851 299.475C111.855 299.479 111.859 299.482 111.862 299.484L111.866 299.488L111.867 299.489L111.868 299.489" fill="white"/>
<path d="M46.3924 148.032C46.3924 148.032 0 166.437 0 182.271C0 210.506 39.562 262.489 47.6582 261.709C55.7544 260.93 61.2051 254.424 60.8937 251.011C60.5823 247.598 45.957 203.678 35.5063 188.782C35.5063 188.782 67.4354 180.71 71.6405 180.558C75.8456 180.407 97.4911 192.041 97.8025 192.505C98.1139 192.969 86.6126 224.431 93.2861 265.433C94.2202 271.174 111.661 272.415 113.375 270.089C115.089 267.764 134.387 186.764 131.749 180.248C129.111 173.732 106.939 155.898 93.5392 148.789C83.8835 143.668 46.3924 148.032 46.3924 148.032Z" fill="#424D76"/>
<path d="M108.023 278.325C107.734 279.213 106.364 283.393 105.433 285.606C104.542 287.717 93.4405 287.001 94.5468 283.741C95.4911 280.967 95.5063 277.183 95.4886 276.118C97.3063 276.837 102.461 278.641 108.023 278.325Z" fill="#C36F0B"/>
<path d="M108.235 278.313L111.337 270.952C111.337 270.952 101.268 272.198 94.5519 267.574L94.805 275.828C94.805 275.828 101.787 278.996 108.235 278.313Z" fill="#6562CF"/>
<path d="M62.8228 259.848C62.8228 259.848 66.4937 267.428 67.4 268.533C68.3064 269.638 63.2684 275.261 59.238 274.86L52.7975 266.21C52.7975 266.21 59.7064 264.923 62.8228 259.848Z" fill="#C36F0B"/>
<path d="M60.4835 253.198L63.0759 259.848C63.0759 259.848 59.0531 265.41 52.2911 266.462L47.6582 261.709C47.6582 261.709 56.3342 260.668 60.4835 253.198Z" fill="#6562CF"/>
<path d="M90.2102 53.2263C94.3064 56.2256 105.435 61.4701 112.362 66.3008C117.949 70.1982 122.934 87.2381 122.934 87.2381C122.934 87.2381 115.154 95.1439 102.086 98.2441C102.086 98.2441 94.6178 121.2 91.8178 148.009C91.8178 148.009 67.8557 156.838 46.2304 148.009C46.2304 148.009 37.5165 98.8647 36.4279 98.567C35.3393 98.2693 19.1924 93.3327 13.8962 85.4244C13.8962 85.4244 20.1418 67.4965 28.6557 63.9825C37.9064 60.1634 50.233 54.929 54.5216 52.631C56.7089 51.4403 90.2102 53.2263 90.2102 53.2263Z" fill="#EAEAFF"/>
<path d="M32.957 62.1787L14.7949 86.5922C14.5975 86.3576 14.4076 86.1204 14.2329 85.8783L31.3747 62.8421L32.957 62.1787Z" fill="white"/>
<path d="M41.838 58.415L18.3823 89.9472C18.1469 89.7681 17.9165 89.589 17.6912 89.4074L40.2228 59.1163L41.838 58.415Z" fill="white"/>
<path d="M50.914 54.3843L22.4659 92.6189C22.2128 92.4726 21.9596 92.3263 21.7064 92.1724L49.2482 55.1511C49.833 54.8837 50.3798 54.629 50.914 54.3843Z" fill="white"/>
<path d="M58.5899 52.2349L26.8583 94.8815C26.5899 94.7579 26.3215 94.6292 26.0507 94.5006L57.4684 52.2651C57.8228 52.2525 58.195 52.2399 58.5899 52.2349Z" fill="white"/>
<path d="M64.6557 52.2476L31.4912 96.8391L30.6329 96.5086L63.5772 52.2324L64.6557 52.2476Z" fill="white"/>
<path d="M70.633 52.3965L36.3089 98.5167C36.1342 98.4637 35.8304 98.3703 35.4229 98.2392L69.5545 52.3662C69.9114 52.3738 70.2659 52.3839 70.633 52.3965Z" fill="white"/>
<path d="M76.5444 52.6055L37.995 104.412C37.9114 104.018 37.8304 103.64 37.7418 103.276L75.476 52.5728L76.5444 52.6055Z" fill="white"/>
<path d="M82.4355 52.8531L39.314 110.809C39.2355 110.418 39.1596 110.032 39.0836 109.654L81.3798 52.8052L82.4355 52.8531Z" fill="white"/>
<path d="M88.3064 53.1305L40.5798 117.277C40.5039 116.889 40.4279 116.498 40.3545 116.112L87.2532 53.0801L88.3064 53.1305Z" fill="white"/>
<path d="M92.9823 55.0171L41.8101 123.79C41.7392 123.399 41.6658 123.008 41.5924 122.617L92.2253 54.5605C92.4683 54.7094 92.7215 54.8607 92.9823 55.0171Z" fill="white"/>
<path d="M97.2532 57.4416L43.038 130.321C42.9646 129.933 42.8937 129.542 42.8203 129.146L96.4785 57.0103C96.7342 57.1566 96.9925 57.3004 97.2532 57.4416Z" fill="white"/>
<path d="M101.562 59.8179L44.2254 136.877C44.157 136.491 44.0861 136.098 44.0127 135.699L100.79 59.3916L101.562 59.8179Z" fill="white"/>
<path d="M105.843 62.2321L45.4152 143.459C45.3468 143.083 45.2785 142.702 45.2025 142.276L105.078 61.8032L105.843 62.2321Z" fill="white"/>
<path d="M110.035 64.7622L47.6785 148.58L46.8354 148.244L109.299 64.293L110.035 64.7622Z" fill="white"/>
<path d="M113.924 67.721L52.6102 150.111C52.3064 150.035 52.0051 149.952 51.7013 149.858L113.296 67.0728C113.504 67.2796 113.709 67.4915 113.924 67.721Z" fill="white"/>
<path d="M116.81 71.9915L57.8811 151.2C57.557 151.152 57.2304 151.099 56.9064 151.039L116.337 71.1616C116.496 71.4315 116.653 71.7115 116.81 71.9915Z" fill="white"/>
<path d="M101.949 98.6631C101.803 99.1323 101.542 99.9748 101.19 101.148L63.5063 151.806C63.1595 151.783 62.8152 151.761 62.4658 151.73L101.949 98.6631Z" fill="white"/>
<path d="M119.205 76.9384L103.661 97.8303C103.215 97.9539 102.762 98.0826 102.306 98.1835L118.798 76.0151C118.934 76.3279 119.071 76.6357 119.205 76.9384Z" fill="white"/>
<path d="M98.3443 111.682C98.1646 112.388 97.9874 113.12 97.8076 113.869L69.5064 151.909C69.1393 151.909 68.7722 151.924 68.4 151.927L98.3443 111.682Z" fill="white"/>
<path d="M121.299 82.2939L112.152 94.5965C111.61 94.8639 111.051 95.1288 110.468 95.3886L120.944 81.3076C121.066 81.6456 121.185 81.9837 121.299 82.2939Z" fill="white"/>
<path d="M95.6709 123.442C95.5342 124.103 95.3983 124.775 95.2633 125.46L75.9139 151.468C75.5215 151.511 75.1291 151.553 74.7291 151.591L95.6709 123.442Z" fill="white"/>
<path d="M93.6709 134.307C93.5722 134.925 93.4709 135.545 93.3747 136.171L82.7849 150.398C82.3722 150.479 81.9469 150.562 81.519 150.65L93.6709 134.307Z" fill="white"/>
<path d="M130.38 127.971C129.808 138.566 109.641 148.404 99.0051 152.869C98.6532 155.063 97.2076 156.024 94.4279 156.738C88.6329 158.226 89.1772 162.036 88.8785 162.762C88.4102 163.92 82.6937 165.239 81.319 164.276C80.5013 163.698 82.8102 156.443 84.1241 153.893C84.9418 152.306 90.4203 149.302 94.0127 148.008C94.0127 148.008 112.241 125.993 114.737 124.752C114.737 124.752 107.995 106.337 105.175 99.7103C104.772 98.7593 104.448 98.053 104.238 97.6771C104.238 97.6771 114.365 94.6501 121.215 88.7725C121.215 88.7725 121.835 90.3138 122.749 92.8489C125.501 100.482 130.96 117.146 130.38 127.971Z" fill="#C36F0B"/>
<path d="M122.747 92.846C121.329 94.3469 117.02 97.5985 105.172 99.7074C104.767 98.7589 104.443 98.0501 104.233 97.6742C104.233 97.6742 114.359 94.6471 121.213 88.7695C121.213 88.7695 121.83 90.3083 122.747 92.846Z" fill="#B65A18"/>
<path d="M57.4304 164.02C55.8936 164.696 51.3038 163.429 50.8835 162.758C50.4633 162.087 49.8709 157.915 45.3367 156.482C42.0911 155.455 40.6177 154.434 40.6734 151.243C31.238 148.032 6.14682 138.506 5.01011 127.692C4.25062 120.477 11.8228 99.8403 14.9848 91.6193C15.8126 89.4725 16.3367 88.1709 16.3367 88.1709C23.6304 94.2251 33.0962 97.3833 33.0962 97.3833L32.3139 99.5199L23.1823 124.438C27.3392 126.009 42.4785 144.535 44.838 147.444C49.7569 148.392 55.0253 151.8 55.6405 153.637C56.2861 155.561 59.0126 163.321 57.4304 164.02Z" fill="#C36F0B"/>
<path d="M16.3392 88.1665C23.6303 94.2207 33.0987 97.3789 33.0987 97.3789L32.3164 99.513C27.3164 98.726 19.1038 96.8013 14.9873 91.6123C15.8126 89.4682 16.3392 88.1665 16.3392 88.1665Z" fill="#B65A18"/>
<path d="M106.177 170.937H32.8734L20.5342 122.609C20.3437 121.95 20.3098 121.256 20.4351 120.581C20.5605 119.906 20.8417 119.27 21.2565 118.722C21.6714 118.174 22.2084 117.73 22.8252 117.425C23.442 117.12 24.1215 116.962 24.8101 116.964H114.251C114.938 116.964 115.617 117.123 116.232 117.429C116.848 117.734 117.383 118.179 117.797 118.726C118.211 119.274 118.491 119.909 118.616 120.583C118.741 121.257 118.707 121.951 118.516 122.609L106.177 170.937Z" fill="white"/>
<path fill-rule="evenodd" clip-rule="evenodd" d="M24.8079 117.847C24.2567 117.845 23.7129 117.972 23.2192 118.216C22.7256 118.46 22.2958 118.816 21.9638 119.254C21.6318 119.692 21.4067 120.202 21.3064 120.742C21.206 121.282 21.2332 121.837 21.3857 122.365L21.3895 122.378L33.5623 170.054H105.488L117.661 122.378L117.665 122.365C117.817 121.838 117.845 121.283 117.745 120.744C117.645 120.204 117.42 119.695 117.089 119.257C116.758 118.819 116.329 118.464 115.837 118.219C115.344 117.974 114.801 117.847 114.251 117.847H24.8101L24.8079 117.847ZM24.8112 116.081C23.9855 116.079 23.1706 116.269 22.4311 116.635C21.6912 117.001 21.0469 117.533 20.5493 118.19C20.0516 118.847 19.7142 119.611 19.5638 120.42C19.4143 121.225 19.4537 122.053 19.6787 122.84L32.1845 171.82H106.866L119.372 122.84C119.597 122.054 119.636 121.227 119.487 120.423C119.338 119.615 119.001 118.852 118.505 118.195C118.009 117.538 117.366 117.006 116.628 116.639C115.889 116.272 115.076 116.081 114.251 116.081C114.251 116.081 114.251 116.081 114.251 116.081H24.8112Z" fill="#6562CF"/>
<path d="M103.954 170.483H35.0937L23.5013 125.076C22.7418 122.42 22.2051 119.274 24.9773 119.274H114.071C116.843 119.274 116.314 122.425 115.547 125.076L103.954 170.483Z" fill="#6562CF"/>
<path fill-rule="evenodd" clip-rule="evenodd" d="M63.6676 140.938L75.3829 140.938C75.5903 140.939 75.7949 140.987 75.9807 141.079C76.1664 141.171 76.328 141.305 76.4529 141.47C76.5779 141.635 76.6627 141.827 76.7007 142.03C76.7362 142.22 76.7301 142.414 76.6833 142.6L75.6834 147.961C75.6801 147.978 75.6762 147.996 75.6716 148.013C75.559 148.444 75.3064 148.826 74.9533 149.099C74.6001 149.372 74.1662 149.521 73.7192 149.523L73.7164 149.523H65.3331C64.8832 149.522 64.4462 149.372 64.0912 149.097C63.7361 148.821 63.4833 148.436 63.3726 148.001C63.3686 147.985 63.365 147.969 63.362 147.953L62.3672 142.6C62.3204 142.414 62.3144 142.219 62.3498 142.03C62.3878 141.827 62.4726 141.635 62.5976 141.47C62.7225 141.305 62.8841 141.171 63.0698 141.079C63.2556 140.987 63.4602 140.939 63.6676 140.938ZM63.8845 142.452L64.85 147.647C64.8799 147.748 64.9409 147.838 65.0246 147.903C65.1132 147.972 65.2224 148.009 65.3348 148.009C65.3349 148.009 65.335 148.009 65.3351 148.009L73.7147 148.009C73.826 148.009 73.9341 147.971 74.0221 147.903C74.1049 147.839 74.1655 147.751 74.196 147.652L75.1659 142.452H63.8845Z" fill="white"/>
<path d="M80.6658 38.3428C80.6658 38.3428 80.2506 47.424 90.2101 53.2259C90.2101 53.2259 80.3367 60.3901 72.162 69.5924C72.162 69.5924 63.4025 58.9194 54.5291 52.6079C54.5291 52.6079 63.2404 45.7844 63.2404 38.3453L80.6658 38.3428Z" fill="#B65A18"/>
<path d="M89.1418 33.3431C88.1418 34.6498 86.3367 37.0993 85.4658 38.8575C83.9165 47.2299 78.6304 52.7695 71.9291 52.7695C66.1215 52.7695 62.1975 46.2814 60.3899 40.25C60.3473 40.1405 60.3118 40.0284 60.2836 39.9144C59.8355 38.2521 57.4076 34.945 56.1874 33.3558C56.0907 33.2293 56.0222 33.0837 55.9867 32.9287C55.9511 32.7738 55.9492 32.613 55.9811 32.4573C56.013 32.3015 56.0779 32.1543 56.1716 32.0256C56.2652 31.8969 56.3854 31.7897 56.5241 31.711C58.0127 30.8609 58.7848 31.479 59.1899 32.2862C58.9747 26.2547 59.2253 19.9256 62.7494 19.8903C66.8 19.8524 80.2709 19.5876 82.6051 20.3645C84.6127 21.0305 85.9367 23.8331 85.9418 32.7907C86.2583 31.7817 87.0177 30.6894 88.8051 31.711C88.9418 31.7898 89.0603 31.8966 89.1527 32.0242C89.2451 32.1519 89.3093 32.2976 89.3411 32.4518C89.3729 32.606 89.3716 32.7651 89.3372 32.9187C89.3029 33.0724 89.2363 33.217 89.1418 33.3431Z" fill="#C36F0B"/>
<path d="M91.562 22.3675C88.8835 25.7225 85.7114 33.4895 85.7114 33.4895C85.7114 33.4895 86.8633 21.467 82.1949 21.5981C79.9747 21.6587 75.5088 24.7589 70.8329 24.2544C66.9493 23.8357 62.0987 18.5837 60.1012 22.0169C58.9949 24.6479 59.0734 28.7774 59.2405 33.0254C58.0481 27.5893 55.5823 23.9719 54.2278 21.8126C51.3823 20.3419 49.1493 17.1937 49.7924 13.9926C50.886 8.57663 55.0759 8.87934 55.0759 8.87934C62.1417 9.60836 58.0177 5.50414 66.5823 1.62695C75.1468 -2.25024 84.8886 1.4201 85.7266 6.0919C86.3038 9.29556 88.281 7.69121 91.3772 9.11899C95.7266 11.1421 94.7088 18.4147 91.562 22.3675Z" fill="#FFB000"/>
<path fill-rule="evenodd" clip-rule="evenodd" d="M77.9595 24.514C75.4545 25.8829 72.0795 27.1457 65.9978 26.378L66.0933 25.6272C72.0015 26.373 75.2164 25.1499 77.5943 23.8505C78.0739 23.5884 78.5188 23.3235 78.9514 23.066C79.0626 22.9998 79.173 22.9341 79.2829 22.869C79.8164 22.5533 80.3386 22.2538 80.8698 22.0081C81.9432 21.5116 83.0618 21.2309 84.4446 21.4411L84.33 22.1892C83.1318 22.0071 82.1659 22.2429 81.1897 22.6945C80.6961 22.9228 80.2022 23.2052 79.6707 23.5197C79.5642 23.5827 79.4562 23.647 79.3465 23.7123C78.9127 23.9706 78.4526 24.2445 77.9595 24.514Z" fill="#FFB000"/>
</svg>
