<svg width="351" height="414" viewBox="0 0 351 414" fill="none" xmlns="http://www.w3.org/2000/svg">
<g clip-path="url(#clip0)">
<path fill-rule="evenodd" clip-rule="evenodd" d="M94.9431 274.972C95.3139 274.627 95.8933 274.648 96.2372 275.021L144.346 327.093C147.138 329.297 149.398 332.107 150.955 335.312C152.524 338.54 153.339 342.084 153.339 345.675V400.503C153.339 404.083 151.923 407.516 149.401 410.047C146.879 412.578 143.459 414 139.893 414H77.2512C76.7454 414 76.3354 413.589 76.3354 413.081C76.3354 412.573 76.7454 412.162 77.2512 412.162H139.893C142.974 412.162 145.928 410.933 148.106 408.747C150.284 406.561 151.508 403.595 151.508 400.503V345.675C151.508 345.675 151.508 345.675 151.508 345.675C151.508 342.363 150.756 339.095 149.309 336.118C147.863 333.142 145.76 330.535 143.16 328.496L143.103 328.451L94.8944 276.271C94.5505 275.899 94.5723 275.317 94.9431 274.972Z" fill="#D8BAA3"/>
<path d="M152.296 267.373C152.296 269.567 151.427 271.671 149.882 273.223C148.336 274.774 146.24 275.646 144.054 275.646H25.0547C18.653 275.645 12.5137 273.092 7.98697 268.548C3.46026 264.004 0.916825 257.841 0.916016 251.415V156.61C0.915613 154.438 1.3418 152.287 2.1702 150.28C2.9986 148.273 4.21297 146.45 5.74386 144.915C7.27474 143.38 9.09211 142.162 11.092 141.333C13.092 140.503 15.2352 140.077 17.3992 140.08H78.4999C79.9763 140.079 81.4384 140.371 82.8025 140.938C84.1667 141.505 85.4062 142.336 86.4502 143.384C87.4942 144.432 88.3222 145.676 88.8871 147.045C89.4519 148.415 89.7424 149.882 89.742 151.365V234.872C89.742 241.298 92.2849 247.46 96.8112 252.004C101.337 256.547 107.476 259.1 113.878 259.1H144.054C146.24 259.1 148.336 259.971 149.882 261.523C151.427 263.074 152.296 265.179 152.296 267.373Z" fill="white"/>
<path fill-rule="evenodd" clip-rule="evenodd" d="M17.3979 140.999C15.3542 140.996 13.3302 141.398 11.4415 142.182C9.55282 142.966 7.83653 144.115 6.39079 145.565C4.94505 147.015 3.79822 148.737 3.0159 150.632C2.23357 152.527 1.83108 154.558 1.83146 156.61V251.415C1.83224 257.597 4.2792 263.526 8.6342 267.898C12.9892 272.269 18.8956 274.726 25.0545 274.726H144.054C145.997 274.726 147.86 273.952 149.234 272.572C150.608 271.193 151.38 269.323 151.38 267.373C151.38 265.422 150.608 263.552 149.234 262.173C147.86 260.794 145.997 260.019 144.054 260.019H113.877C107.233 260.019 100.861 257.369 96.1634 252.654C91.4653 247.938 88.826 241.541 88.826 234.872V151.364C88.8264 150.003 88.5595 148.655 88.0407 147.397C87.5219 146.139 86.7613 144.996 85.8024 144.034C84.8434 143.071 83.7049 142.308 82.4519 141.787C81.1989 141.266 79.856 140.998 78.4998 140.999L17.3979 140.999ZM17.3994 139.16C15.1152 139.158 12.853 139.607 10.742 140.483C8.63083 141.359 6.71238 142.644 5.09635 144.264C3.48032 145.885 2.19842 147.81 1.32394 149.928C0.449487 152.046 -0.000402326 154.317 2.69966e-07 156.61C2.69966e-07 156.61 2.69966e-07 156.61 2.69966e-07 156.61V251.415C0.000840321 258.085 2.64075 264.481 7.33916 269.198C12.0376 273.914 18.4097 276.564 25.0543 276.565H144.054C146.482 276.565 148.812 275.596 150.529 273.872C152.246 272.149 153.211 269.81 153.211 267.373C153.211 264.935 152.246 262.597 150.529 260.873C148.812 259.149 146.482 258.18 144.054 258.18H113.877C107.719 258.18 101.813 255.725 97.4584 251.354C93.1038 246.982 90.6574 241.054 90.6574 234.872V151.365C90.6574 151.365 90.6574 151.364 90.6574 151.365C90.6579 149.762 90.3437 148.174 89.7328 146.694C89.122 145.213 88.2265 143.867 87.0974 142.734C85.9683 141.6 84.6278 140.701 83.1526 140.088C81.6773 139.475 80.0963 139.16 78.4996 139.16C78.4997 139.16 78.4995 139.16 78.4996 139.16H17.3994Z" fill="#D8BAA3"/>
<path d="M151.969 269.683C151.471 271.403 150.43 272.914 149.002 273.989C147.575 275.065 145.839 275.646 144.054 275.645H25.0547C18.653 275.645 12.5137 273.092 7.98697 268.548C3.46026 264.004 0.916825 257.841 0.916016 251.415V156.61C0.916715 153.557 1.75882 150.564 3.34914 147.962C4.93946 145.36 7.21599 143.25 9.92682 141.866C8.22399 144.527 7.3211 147.625 7.32614 150.788V249.304C7.32614 254.748 9.48083 259.97 13.3162 263.82C17.1516 267.67 22.3534 269.833 27.7775 269.833H150.486C150.984 269.83 151.48 269.78 151.969 269.683Z" fill="#F0E1D4"/>
<path fill-rule="evenodd" clip-rule="evenodd" d="M12.5225 139.509L10.6971 142.363C9.08931 144.876 8.23682 147.8 8.24158 150.787L8.24159 150.788L8.24159 249.304C8.24159 254.505 10.2998 259.493 13.9634 263.17C17.6271 266.848 22.596 268.914 27.7772 268.914H150.483C150.922 268.911 151.36 268.867 151.791 268.781L153.268 268.489L152.848 269.94C152.294 271.851 151.138 273.53 149.552 274.725C147.966 275.919 146.036 276.565 144.054 276.565H25.0543C18.4097 276.564 12.0376 273.914 7.33916 269.198C2.64075 264.481 0.000840051 258.085 0 251.415V156.61C0.000738238 153.388 0.889625 150.228 2.5683 147.481C4.24697 144.734 6.64998 142.507 9.5114 141.047L12.5225 139.509ZM7.57649 144.49C6.21962 145.598 5.0522 146.933 4.12941 148.443C2.62748 150.9 1.83216 153.727 1.83146 156.61C1.83146 156.61 1.83146 156.61 1.83146 156.61V251.415C1.83224 257.597 4.2792 263.526 8.6342 267.898C12.9892 272.269 18.8956 274.726 25.0545 274.726H144.054C145.64 274.727 147.184 274.21 148.452 273.254C149.339 272.586 150.058 271.729 150.562 270.752C150.538 270.752 150.514 270.752 150.491 270.752L150.488 270.752H27.7772C22.1103 270.752 16.6755 268.493 12.6684 264.47C8.66129 260.448 6.41012 254.992 6.41012 249.304V150.789C6.40676 148.625 6.80589 146.49 7.57649 144.49Z" fill="#D8BAA3"/>
<path fill-rule="evenodd" clip-rule="evenodd" d="M89.1313 202.5C89.1313 201.993 89.5413 201.581 90.0471 201.581H112.635C123.381 201.585 133.686 205.873 141.282 213.502C148.879 221.131 153.147 231.476 153.147 242.262V269.839C153.147 270.347 152.737 270.758 152.231 270.758C151.726 270.758 151.316 270.347 151.316 269.839V242.262C151.316 231.963 147.241 222.086 139.987 214.802C132.734 207.518 122.895 203.424 112.635 203.419C112.635 203.419 112.635 203.419 112.635 203.419H90.0471C89.5413 203.419 89.1313 203.008 89.1313 202.5Z" fill="#D8BAA3"/>
<path fill-rule="evenodd" clip-rule="evenodd" d="M42.7463 274.972C43.1172 274.627 43.6966 274.648 44.0405 275.021L92.1495 327.093C94.9416 329.297 97.2011 332.107 98.7586 335.312C100.327 338.54 101.142 342.084 101.143 345.675V400.503C101.143 404.083 99.7259 407.516 97.2043 410.047C94.6827 412.578 91.2627 414 87.6966 414H25.0544C24.5487 414 24.1387 413.589 24.1387 413.081C24.1387 412.573 24.5487 412.162 25.0544 412.162H87.6966C90.7769 412.162 93.7311 410.933 95.9093 408.747C98.0874 406.561 99.3111 403.595 99.3111 400.503V345.675C99.3111 345.675 99.3111 345.675 99.3111 345.675C99.3108 342.363 98.5589 339.095 97.1125 336.118C95.6662 333.142 93.5633 330.535 90.9636 328.496L90.9058 328.451L42.6976 276.271C42.3537 275.899 42.3755 275.317 42.7463 274.972Z" fill="#D8BAA3"/>
<path d="M96.6373 77.0794C96.6373 77.0794 119.189 73.709 132.738 103.449C144.606 129.493 153.455 153.782 153.455 153.782C153.455 153.782 171.746 164.05 202.508 175.04V189.779C202.508 189.779 155.589 192.515 139.933 189.779C128.422 187.768 96.6586 145 94.4517 115.99C92.2448 86.9794 96.6373 77.0794 96.6373 77.0794Z" fill="#374486"/>
<path d="M196.336 189.634C194.599 189.282 195.866 183.862 196.885 180.519C197.45 178.68 198.799 177.737 200.597 176.943C204.174 175.356 210.365 174.43 213.854 175.196C218.976 176.321 222.266 178.61 225.453 182.351C226.369 183.42 230.871 188.565 230.871 189.938L196.336 189.634Z" fill="#FAB6AD"/>
<path d="M75.0415 65.1143C55.5975 67.1244 18.0617 90.8218 24.2734 177.838C28.2415 233.481 64.6358 261.364 69.0343 259.47C73.4329 257.577 148.068 220.652 130.971 200.788C114.613 181.791 119.937 167.255 122.51 141.529C125.083 115.803 128.951 87.8067 108.164 78.1182C74.4799 62.4272 80.2398 64.5751 75.0415 65.1143Z" fill="#3F4D90"/>
<path d="M230.857 412.676H177.689C177.634 411.824 177.619 411.015 177.631 410.225H230.918C230.978 411.042 230.957 411.863 230.857 412.676Z" fill="#383C4D"/>
<path d="M183.107 387.771C183.297 393.844 177.692 397.69 177.692 410.237H230.857C230.857 410.237 231.629 399.712 220.997 397.285C210.366 394.859 200.699 391.617 199.731 387.787L183.107 387.771Z" fill="#FFB000"/>
<path d="M125.932 197.105C125.932 197.105 207.078 191.792 226.797 216.074C246.516 240.357 208.238 335.909 204.371 388.528C204.371 388.528 184.954 390.551 177.07 388.528C169.185 386.506 162.323 284.544 182.186 259.856C182.186 259.856 109.715 278.042 80.274 255.104C50.8332 232.167 113.68 197.534 125.932 197.105Z" fill="#383C4D"/>
<path d="M351.001 328.418L308.828 362.303C308.218 361.541 307.693 360.793 307.208 360.067L349.215 326.322C349.888 326.951 350.487 327.654 351.001 328.418Z" fill="#41465A"/>
<path d="M298.312 338.885C301.994 343.579 299.784 350.203 307.079 360.155L349.255 326.273C349.255 326.273 343.76 317.43 333.901 322.29C324.042 327.149 314.503 330.734 311.499 328.298L298.312 338.885Z" fill="#FFB000"/>
<path d="M66.7759 257.543C67.9968 264.398 134 284.072 207.463 235.504C207.463 235.504 218.861 299.567 293.099 342.065C293.099 342.065 309.445 334.773 313.889 324.956C313.889 324.956 261.518 257.764 242.871 203.313C235.038 180.473 136.524 192.423 122.123 197.105C107.721 201.787 61.3547 227.001 66.7759 257.543Z" fill="#41465A"/>
<path d="M69.3855 87.3781C86.3846 93.0466 110.31 143.539 110.31 143.539C110.31 143.539 137.086 146.116 177.61 163.149C177.61 163.149 178.544 172.001 173.205 179.254C173.205 179.254 128.639 185.051 105.459 182.67C97.6206 181.858 67.9173 159.555 51.5868 128.691C36.9839 101.084 48.6198 80.4563 69.3855 87.3781Z" fill="#49549A"/>
<path d="M177.295 163.431C177.295 163.431 188.589 157.444 193.879 158.642C199.169 159.84 205.543 164.629 206.205 165.959C206.867 167.289 211.507 173.809 211.507 175.271C211.507 176.732 196.513 176.19 194.413 176.19C192.313 176.19 178.44 176.413 175.763 175.856C173.086 175.298 177.295 163.431 177.295 163.431Z" fill="#FFCFC9"/>
<path d="M194.401 176.202C196.513 176.202 211.495 176.735 211.495 175.283C211.495 173.831 206.855 167.316 206.192 165.971C205.53 164.626 199.172 159.843 193.867 158.654C193.867 158.654 200.411 167.776 194.389 176.214" fill="#FAB6AD"/>
<path d="M91.6867 37.5347C92.0255 40.182 86.1435 53.4984 75.6492 63.8519C66.44 72.9306 106.051 79.9565 107.089 79.7267C108.127 79.4969 112.752 65.5156 113.701 62.2402C114.65 58.9647 91.6867 37.5347 91.6867 37.5347Z" fill="#FFCFC9"/>
<path d="M113.698 62.2401C113.289 63.6526 111.653 68.2671 109.842 73.0777C105.471 70.9543 100.352 66.7933 96.3476 58.8727C92.0101 50.2933 92.5504 41.5271 92.0315 39.2627C91.9965 38.8443 92.0636 38.4237 92.2268 38.0371C95.6822 41.3003 114.559 59.2618 113.698 62.2401Z" fill="#FAB6AD"/>
<path d="M125.868 23.8447C127.519 30.4477 128.972 41.5182 126.725 46.8925C124.479 52.2669 120.514 62.1423 118.96 62.6602C117.406 63.178 100.316 60.929 96.3475 53.468C92.3794 46.007 92.2023 39.7778 91.6864 37.5349C91.1706 35.292 100.49 17.0854 112.4 17.4316C124.311 17.7779 125.388 21.9297 125.868 23.8447Z" fill="#FFCFC9"/>
<path d="M133.087 20.569C129.921 21.8713 132.321 25.5573 126.371 26.1089C120.422 26.6604 119.046 19.3404 119.046 19.3404C119.046 19.3404 118.368 22.2665 115.383 23.2654C115.383 23.2654 116.973 20.1646 114.693 18.798C112.413 17.4315 111.012 19.2607 111.012 19.2607C111.012 19.2607 109.024 18.2618 107.959 20.6456C106.894 23.0295 108.814 24.4573 111.317 24.73C111.317 24.73 111.546 28.2721 105.948 28.8114C100.349 29.3506 99.1956 25.8852 99.1956 25.8852C99.1956 25.8852 98.2799 25.0364 97.8891 27.503C97.4984 29.9696 99.4154 33.9712 95.5113 37.1303C93.9515 38.3896 93.0693 38.889 92.6023 39.0331C94.5711 40.7428 93.6188 45.9333 89.1561 48.0506C83.097 50.9277 78.6527 48.8013 78.1002 44.5974C77.6026 40.801 80.0141 42.2901 79.3975 39.364C79.3975 39.364 75.4507 42.2626 72.8958 38.0403C70.8079 34.5902 74.4586 32.43 74.4586 32.43C74.4586 32.43 71.8579 28.8512 74.0191 26.3509C76.461 23.4983 80.2796 25.3459 79.721 23.5749C79.1624 21.8039 77.7034 17.6429 80.0782 15.3203C82.453 12.9978 86.2197 13.9323 86.7538 12.7006C87.288 11.4688 86.528 9.63649 84.0738 10.7058C84.1704 9.91101 84.4391 9.14699 84.8609 8.46737C85.2827 7.78775 85.8476 7.20897 86.5158 6.7716C88.6921 5.29779 91.9186 5.64096 94.1469 6.29667C94.5254 4.28971 95.4686 1.83847 97.88 0.698641C101.876 -1.17963 104.727 1.10922 106.286 3.06409C106.516 2.38028 106.938 1.77779 107.502 1.32928C108.065 0.880757 108.745 0.605347 109.461 0.536246C114.217 -0.156231 118.13 1.08471 119.046 4.93317C120.013 8.98691 127.077 -0.358459 130.401 7.62954C131.081 9.26268 129.305 10.5526 131.316 11.8671C132.455 12.6117 133.917 10.1819 132.779 9.33009C134.198 9.91979 135.38 10.9679 136.139 12.3084C136.75 13.3869 138.187 18.4763 133.087 20.569Z" fill="#FFB000"/>
<path fill-rule="evenodd" clip-rule="evenodd" d="M6.41016 202.501C6.41016 201.993 6.82014 201.582 7.32589 201.582H34.7982C45.544 201.586 55.8482 205.874 63.4452 213.502C71.0421 221.131 75.3098 231.476 75.3098 242.263V269.839C75.3098 270.347 74.8998 270.759 74.3941 270.759C73.8883 270.759 73.4783 270.347 73.4783 269.839V242.263C73.4783 231.964 69.4035 222.086 62.1499 214.802C54.8963 207.518 45.0579 203.424 34.7978 203.42C34.7977 203.42 34.7976 203.42 34.7975 203.42H7.32589C6.82014 203.42 6.41016 203.008 6.41016 202.501Z" fill="#D8BAA3"/>
<path d="M313.074 185.394H155.65C154.476 185.394 153.351 185.862 152.52 186.695C151.69 187.529 151.224 188.659 151.224 189.837C151.224 191.015 151.69 192.145 152.52 192.979C153.351 193.812 154.476 194.28 155.65 194.28H313.074V185.394Z" fill="white"/>
<path fill-rule="evenodd" clip-rule="evenodd" d="M151.873 186.045C152.874 185.04 154.233 184.475 155.65 184.475H313.073V186.313H155.65C154.719 186.313 153.826 186.684 153.168 187.345C152.509 188.006 152.14 188.902 152.14 189.837C152.14 190.771 152.509 191.667 153.168 192.328C153.826 192.989 154.719 193.36 155.65 193.36H313.073V195.199H155.65C154.233 195.199 152.874 194.634 151.873 193.628C150.871 192.623 150.308 191.259 150.308 189.837C150.308 188.415 150.871 187.051 151.873 186.045Z" fill="#D8BAA3"/>
<path fill-rule="evenodd" clip-rule="evenodd" d="M271.236 199.177L245.825 412.883C245.765 413.387 245.309 413.747 244.807 413.687C244.305 413.627 243.946 413.17 244.006 412.665L269.424 198.906L269.428 198.88C270.409 193.336 278.27 193.159 279.493 198.657L279.5 198.689L311.165 411.44C311.239 411.943 310.894 412.41 310.394 412.485C309.894 412.56 309.428 412.214 309.353 411.712L277.698 199.027C276.892 195.531 271.884 195.643 271.236 199.177Z" fill="#D8BAA3"/>
<path d="M296.2 177.17H175.103C173.455 177.17 172.118 178.512 172.118 180.167V182.005C172.118 183.66 173.455 185.002 175.103 185.002H296.2C297.849 185.002 299.185 183.66 299.185 182.005V180.167C299.185 178.512 297.849 177.17 296.2 177.17Z" fill="white"/>
<path fill-rule="evenodd" clip-rule="evenodd" d="M175.103 178.089C173.96 178.089 173.034 179.02 173.034 180.167V182.005C173.034 183.153 173.96 184.083 175.103 184.083H296.2C297.343 184.083 298.269 183.153 298.269 182.005V180.167C298.269 179.02 297.343 178.089 296.2 178.089H175.103ZM171.202 180.167C171.202 178.004 172.949 176.251 175.103 176.251H296.2C298.354 176.251 300.101 178.004 300.101 180.167V182.005C300.101 184.168 298.354 185.921 296.2 185.921H175.103C172.949 185.921 171.202 184.168 171.202 182.005V180.167Z" fill="#D8BAA3"/>
<path d="M291.279 177.035H202.52C200.225 177.035 198.683 174.82 199.608 172.847L224.681 119.312C226.103 116.278 229.299 114.32 232.828 114.32H321.59C323.885 114.32 325.424 116.536 324.499 118.509L299.426 172.041C298.007 175.074 294.811 177.035 291.279 177.035Z" fill="white"/>
<path fill-rule="evenodd" clip-rule="evenodd" d="M225.51 119.703C225.51 119.703 225.51 119.703 225.51 119.703L200.437 173.238C199.84 174.512 200.795 176.116 202.52 176.116H291.279C294.481 176.116 297.339 174.338 298.597 171.65L298.597 171.65L323.67 118.118C324.268 116.842 323.314 115.239 321.59 115.239H232.828C229.629 115.239 226.771 117.014 225.51 119.703ZM223.852 118.92C225.437 115.542 228.97 113.401 232.828 113.401H321.59C324.457 113.401 326.579 116.229 325.328 118.9C325.328 118.9 325.328 118.9 325.328 118.9L300.255 172.432C298.674 175.81 295.14 177.954 291.279 177.954H202.52C199.655 177.954 197.527 175.128 198.78 172.455L223.852 118.92Z" fill="#D8BAA3"/>
</g>
<defs>
<clipPath id="clip0">
<rect width="351" height="414" fill="white"/>
</clipPath>
</defs>
</svg>
