<svg width="162" height="482" viewBox="0 0 162 482" fill="none" xmlns="http://www.w3.org/2000/svg">
<path d="M89.9995 72.9206C108.276 72.9206 123.092 58.1858 123.092 40.0095C123.092 21.8333 108.276 7.09851 89.9995 7.09851C71.7234 7.09851 56.9076 21.8333 56.9076 40.0095C56.9076 58.1858 71.7234 72.9206 89.9995 72.9206Z" fill="#2F2E41"/>
<path d="M79.2934 62.2728C79.2934 62.2728 83.8354 92.6026 75.4002 99.701C66.965 106.8 89.0263 136.484 89.0263 136.484L118.874 88.7307C118.874 88.7307 96.1638 82.9229 107.843 65.4994L79.2934 62.2728Z" fill="#FFC5D3"/>
<path d="M68.2627 151.326L63.7272 169.034L59.1786 186.819L43.606 185.528L50.7434 155.843C50.7434 155.843 49.4457 128.095 48.7969 121.642C48.6416 120.457 48.7321 119.254 49.0628 118.105C49.2852 117.303 49.7546 116.591 50.4052 116.067C51.0558 115.544 51.8548 115.237 52.69 115.189L68.2627 151.326Z" fill="#575A89"/>
<path d="M85.782 398.482L66.3161 402.354L64.4215 385.892L57.6019 326.516L55.9343 312.01L78.6445 305.556L78.4953 310.719L77.9956 328.142C78.9746 331.544 79.7012 335.012 80.1693 338.519C81.1278 345.125 81.4861 351.803 81.2399 358.472C80.5911 376.541 85.782 398.482 85.782 398.482Z" fill="#FFC5D3"/>
<path d="M65.0184 401.063L85.1331 395.255L96.1637 422.358L111.736 458.496C111.736 458.496 131.851 484.954 110.439 481.727C89.0263 478.501 85.782 473.338 85.782 470.757V466.24L83.1865 466.885L81.2399 464.949L78.6445 445.59C78.6445 445.59 72.8047 440.427 75.4002 433.329L65.0184 401.063Z" fill="#2F2E41"/>
<path opacity="0.2" d="M80.1693 338.519L79.9422 339.113C79.9422 339.113 76.5616 370.475 65.5959 383.833L64.4215 385.892L57.6019 326.516L61.8843 310.719H78.4952L77.9956 328.142C78.9746 331.544 79.7011 335.012 80.1693 338.519Z" fill="black"/>
<path d="M89.0263 310.719L77.9956 339.113C77.9956 339.113 74.6149 370.478 63.6525 383.834L49.4457 408.807C49.4457 408.807 32.5753 402.999 33.873 402.999C35.1707 402.999 44.9037 370.088 44.9037 370.088L53.9877 332.66L59.9373 310.719H89.0263Z" fill="#FFC5D3"/>
<path d="M55.2855 401.063L35.1708 395.255L24.1401 422.358L8.56742 458.496C8.56742 458.496 -11.5473 484.954 9.86515 481.727C31.2776 478.501 34.5219 473.338 34.5219 470.757V466.24L37.1174 466.885L39.0639 464.949L41.6594 445.59C41.6594 445.59 47.4991 440.427 44.9037 433.329L55.2855 401.063Z" fill="#2F2E41"/>
<path d="M95.1905 70.9846C107.733 70.9846 117.901 60.8725 117.901 48.3986C117.901 35.9247 107.733 25.8126 95.1905 25.8126C82.648 25.8126 72.4803 35.9247 72.4803 48.3986C72.4803 60.8725 82.648 70.9846 95.1905 70.9846Z" fill="#FFC5D3"/>
<path opacity="0.2" d="M68.2627 151.326L63.7272 169.034L59.8275 168.75C59.7225 167.169 59.2801 165.629 58.5298 164.232C57.232 161.651 58.5298 163.587 61.1252 161.006C63.7207 158.425 61.7741 159.715 59.8275 156.489C57.8809 153.262 61.1252 146.164 61.1252 146.164C57.4916 143.582 52.69 115.189 52.69 115.189L68.2627 151.326Z" fill="black"/>
<path d="M89.6751 126.804L76.049 97.1198L50.0945 115.189C50.0945 115.189 58.5297 142.937 63.0718 146.164C63.0718 146.164 59.8275 153.262 61.7741 156.489C63.7206 159.715 65.6672 158.425 63.0718 161.006C60.4763 163.587 59.1786 161.651 60.4763 164.233C61.2267 165.629 61.6691 167.169 61.7741 168.75L123.416 173.267L127.309 162.297C127.309 162.297 135.095 147.454 132.5 126.804L142.233 91.312L114.981 86.7948L89.6751 126.804Z" fill="#575A89"/>
<path d="M125.488 169.53C125.488 169.53 136.393 193.272 125.363 231.99C114.332 270.709 104.599 311.364 104.599 311.364L54.6366 317.172L53.3389 294.586L35.8196 292.005C35.8196 292.005 38.415 219.084 46.2014 201.015C53.9877 182.947 61.4088 166.618 61.4088 166.618L125.488 169.53Z" fill="#2F2E41"/>
<path opacity="0.2" d="M65.3379 214.789L53.0345 294.167L54.3171 294.363L66.6204 214.986L65.3379 214.789Z" fill="black"/>
<path d="M112.283 30.4116C110.888 26.6209 108.063 23.52 104.407 21.7668C99.8804 19.6231 94.6041 19.795 89.6423 20.5094C83.9186 21.3334 77.903 23.0557 74.2074 27.4799C71.8368 30.318 70.6975 33.9485 69.6125 37.4768C68.3581 41.5557 67.0932 45.6963 66.9822 49.9603C66.9986 52.9133 67.2931 55.8584 67.8618 58.7568C68.0241 60.35 68.4791 61.9 69.2044 63.3297C70.0158 64.7084 71.498 65.8161 73.1012 65.7163C71.5201 62.8921 70.782 59.6778 70.9737 56.451C71.1654 53.2242 72.2789 50.1188 74.1834 47.4994C75.1156 46.3158 76.1277 45.1965 77.2125 44.1494L85.4608 35.8195C87.9911 33.2642 90.6349 30.6341 94.013 29.379C95.9553 28.6791 98.0405 28.4629 100.086 28.7493C102.132 29.0358 104.076 29.8161 105.749 31.0222C107.144 32.0606 108.303 33.3802 109.15 34.8948C109.755 35.9656 111.157 39.4147 111.157 39.4147C111.157 39.4147 112.782 31.7878 112.283 30.4116Z" fill="#2F2E41"/>
<path d="M72.8048 52.9157C74.059 52.9157 75.0758 50.8933 75.0758 48.3985C75.0758 45.9038 74.059 43.8813 72.8048 43.8813C71.5505 43.8813 70.5338 45.9038 70.5338 48.3985C70.5338 50.8933 71.5505 52.9157 72.8048 52.9157Z" fill="#FFC5D3"/>
<path d="M75.0758 20.6501C80.8095 20.6501 85.4576 16.0274 85.4576 10.325C85.4576 4.62267 80.8095 0 75.0758 0C69.3421 0 64.694 4.62267 64.694 10.325C64.694 16.0274 69.3421 20.6501 75.0758 20.6501Z" fill="#2F2E41"/>
<path d="M99.8153 210.444H61.164C60.1912 210.444 59.2582 210.06 58.5703 209.375C57.8824 208.691 57.496 207.763 57.496 206.796L55.7927 156.498C55.7927 156.019 55.8876 155.545 56.0719 155.102C56.2563 154.66 56.5265 154.258 56.8671 153.919C57.2077 153.58 57.612 153.311 58.057 153.128C58.5021 152.945 58.9791 152.85 59.4608 152.85H101.519C102.491 152.85 103.424 153.235 104.112 153.919C104.8 154.603 105.187 155.531 105.187 156.498L103.483 206.796C103.483 207.763 103.097 208.691 102.409 209.375C101.721 210.06 100.788 210.444 99.8153 210.444Z" fill="#3F3D56"/>
<path d="M80.4897 171.484C82.3711 171.484 83.8962 169.967 83.8962 168.096C83.8962 166.225 82.3711 164.708 80.4897 164.708C78.6084 164.708 77.0833 166.225 77.0833 168.096C77.0833 169.967 78.6084 171.484 80.4897 171.484Z" fill="#D0CDE1"/>
<path d="M126.66 169.395L104.812 171.904C104.812 171.904 67.6138 170.04 76.6979 181.011C85.782 191.981 106.546 182.947 106.546 182.947L133.798 181.656L126.66 169.395Z" fill="#FFC5D3"/>
<path d="M47.428 175.507C47.428 175.507 40.2123 178.689 43.7455 184.529C47.2788 190.369 63.9924 196.276 66.1642 187.59C68.336 178.904 55.8239 176.164 52.7172 175.751C50.966 175.502 49.1949 175.42 47.428 175.507Z" fill="#FFC5D3"/>
<path d="M134.447 93.8933L142.233 91.312C144.843 93.7311 146.654 96.8816 147.424 100.346C148.722 106.154 169.485 171.976 159.103 177.139C148.722 182.301 130.553 190.69 130.553 190.69L122.118 168.75L135.744 161.651L130.553 133.257C130.553 133.257 125.363 93.8933 134.447 93.8933Z" fill="#575A89"/>
</svg>
