<svg width="553" height="1037" viewBox="0 0 553 1037" fill="none" xmlns="http://www.w3.org/2000/svg">
<g opacity="0.66">
<path d="M276.926 -730.428L453.344 -796.682L557.949 -630.893L232.543 -582.713L98.5008 -474.412L230.665 -331.362L432.814 -347.851L416.957 -186.743L394.361 42.4419L143.262 -209.095L152.818 75.3891L10.2564 23.7354L-210.294 63.9601L-370.331 194.21L-484.028 317.551L-226.749 269.952L102.477 314.229L116.453 666.674L126.751 927.103L92.6857 1082.7L-124.513 942.431L-215 883.996L70.3321 544.022L-126.343 367.684L-40.1769 699.538L-15.2543 795.478L36.8831 653.408L235.791 936.527L125.743 924.97L-86.3399 894.035L-68.0753 654.393L-144.554 712.694L-306.074 528.018L-396.328 590.652L-322.211 753.648L-200.483 709.286L-560.463 665.777L-507.104 829.712L-187.982 1047.44L-214.782 885.208L-307.605 937.418L-576.108 923.59L-957.982 1071.35L-929.699 1201.96L-735.893 1223.9L-728.263 1009.62L-440.729 1278.53L-299.738 1093.08L-394.235 1005.65L-319.89 1283.44L92.4133 1083.2L-99.0298 1039.45L-204.768 1249.09L-124.215 1388.22L272.781 1367.83L-77.2217 1272.75L21.7806 1161.81L176.578 1165.8L151.665 1346.15L66.0375 1356.97L132.703 1483.66L333.19 1179.56L484.796 1258.73L274.209 1367.19L487.204 1534.9L134.003 1483.22" stroke="#589CFF" stroke-width="0.4628" stroke-miterlimit="10"/>
<path d="M90.8881 1082.68L176.578 1165.8L-100.807 1039.81L23.7694 1162.62L90.8881 1082.68Z" stroke="#589CFF" stroke-width="0.4628" stroke-miterlimit="10"/>
<path d="M102.477 314.23L-25.5792 211.765L-210.294 63.9603L-226.374 271.117L-126.343 367.684L102.477 314.23Z" stroke="#589CFF" stroke-width="0.4628" stroke-miterlimit="10"/>
<path d="M102.477 314.229L69.1053 543.891L-306.074 528.018L-226.374 271.117L152.818 75.3889L102.477 314.229ZM102.477 314.229L-144.396 709.432L-396.328 590.652L-558.561 664.345L-483.895 315.77L-307.278 527.248L-202.054 709.573L-215 883.996L-322.211 753.648L-394.235 1005.65L-507.104 829.712L-440.729 1278.53L-319.701 1282.04L-189.044 1047.3L-394.235 1005.65L-308.565 936.379L-301.195 1091.11L-214.782 885.208L-86.3399 894.035L-15.2542 795.478L92.4134 1083.2L232.299 935.111L281.121 1053.42L333.19 1179.56L151.665 1346.15L23.7691 1162.62L68.7663 1358.46" stroke="#589CFF" stroke-width="0.4628" stroke-miterlimit="10"/>
<path d="M37.0273 650.168L69.1052 543.891L-395.111 588.935L-15.2544 795.478L235.791 936.527L-100.753 1038.19L-189.044 1047.3L-301.195 1091.11L23.7691 1162.62L-440.729 1278.53L-124.215 1388.22L133.905 1485.27L272.781 1367.83L333.19 1179.56L176.578 1165.8L68.1265 1354.89L-121.364 1389.38L-75.6835 1271.16L-204.768 1249.09L-302.16 1091.75L-728.263 1009.62L-575.165 920.652L-560.463 665.777L-957.982 1071.35L-733.705 1224.7L-438.751 1277.68" stroke="#589CFF" stroke-width="0.4628" stroke-miterlimit="10"/>
<path d="M557.44 -630.09L230.664 -331.362L143.262 -209.095L10.2562 23.7355L-226.749 269.952L-370.331 194.21L-306.075 528.018L-126.343 367.684L-68.0755 654.393L-200.394 707.663L-308.566 936.379L-322.211 753.648L-505.521 830.151L-575.918 922.004L-440.729 1278.53L-394.235 1005.65L-728.263 1009.62L-929.699 1201.96" stroke="#589CFF" stroke-width="0.4628" stroke-miterlimit="10"/>
<path d="M395.469 41.9591L230.665 -331.362L232.543 -582.713L-210.294 63.9601L273.035 46.4031L395.469 41.9591Z" stroke="#589CFF" stroke-width="0.4628" stroke-miterlimit="10"/>
<g opacity="0.6">
<path d="M122.362 924.692C124.575 918.98 133.463 922.567 131.235 928.3C129.044 934.027 120.156 930.44 122.362 924.692Z" fill="#589CFF"/>
<path d="M125.334 925.904C125.097 926.49 125.217 926.823 125.31 927.011C125.487 927.353 125.857 927.64 126.299 927.821C126.983 928.106 127.868 928.188 128.299 927.081C128.536 926.496 128.416 926.163 128.323 925.974C128.146 925.633 127.776 925.345 127.334 925.165C126.65 924.879 125.765 924.798 125.334 925.904Z" fill="#EEF5FF"/>
</g>
<path d="M31.4876 651.237C33.7005 645.525 42.5882 649.113 40.361 654.846C38.1482 660.558 29.2604 656.97 31.4876 651.237Z" fill="#589CFF"/>
<path d="M34.4385 652.435C34.0075 653.542 34.7266 654.102 35.3894 654.373C36.0736 654.659 36.9581 654.74 37.3892 653.633C37.6262 653.048 37.5058 652.715 37.4135 652.526C37.2361 652.185 36.8659 651.898 36.424 651.717C35.7755 651.425 34.8696 651.329 34.4385 652.435Z" fill="#EEF5FF"/>
<path d="M97.9002 312.563C100.113 306.85 109.001 310.438 106.774 316.171C104.582 321.898 95.673 318.296 97.9002 312.563Z" fill="#589CFF"/>
<path d="M100.851 313.761C100.614 314.346 100.734 314.679 100.826 314.868C101.004 315.209 101.374 315.496 101.816 315.677C102.5 315.963 103.385 316.044 103.816 314.937C104.053 314.352 103.932 314.019 103.84 313.83C103.663 313.489 103.292 313.202 102.851 313.021C102.188 312.75 101.282 312.654 100.851 313.761Z" fill="#EEF5FF"/>
<path d="M146.963 74.3675C149.176 68.6554 158.064 72.2429 155.836 77.9763C153.645 83.7031 144.757 80.1156 146.963 74.3675Z" fill="#589CFF"/>
<path d="M149.935 75.5799C149.504 76.6866 150.223 77.2464 150.886 77.5176C151.57 77.8035 152.454 77.8846 152.886 76.7779C153.123 76.1926 153.002 75.8597 152.91 75.671C152.732 75.3297 152.362 75.0424 151.92 74.8616C151.257 74.5905 150.366 74.4732 149.935 75.5799Z" fill="#EEF5FF"/>
<path d="M389.6 40.4915C391.813 34.7795 400.7 38.367 398.473 44.1003C396.282 49.8272 387.394 46.2397 389.6 40.4915Z" fill="#589CFF"/>
<path d="M392.572 41.7042C392.141 42.8108 392.86 43.3707 393.523 43.6418C394.207 43.9278 395.091 44.0089 395.522 42.9022C395.954 41.7956 395.234 41.2357 394.572 40.9646C393.873 40.6999 393.003 40.5975 392.572 41.7042Z" fill="#EEF5FF"/>
<path d="M229.06 934.9C231.273 929.188 240.161 932.775 237.933 938.508C235.742 944.235 226.854 940.648 229.06 934.9Z" fill="#589CFF"/>
<path d="M232.032 936.112C231.601 937.219 232.32 937.779 232.997 938.029C233.681 938.315 234.566 938.396 234.997 937.289C235.234 936.704 235.113 936.371 235.021 936.182C234.844 935.841 234.473 935.553 234.032 935.373C233.333 935.108 232.463 935.006 232.032 936.112Z" fill="#EEF5FF"/>
<path d="M63.9886 541.445C66.2015 535.733 75.0892 539.32 72.862 545.054C70.6491 550.766 61.7614 547.178 63.9886 541.445Z" fill="#589CFF"/>
<path d="M66.9392 542.643C66.5082 543.75 67.2273 544.309 67.8902 544.581C68.5743 544.867 69.4589 544.948 69.8899 543.841C70.321 542.734 69.6018 542.174 68.9247 541.925C68.2762 541.632 67.3703 541.536 66.9392 542.643Z" fill="#EEF5FF"/>
</g>
</svg>
