<svg width="580" height="404" viewBox="0 0 580 404" fill="none" xmlns="http://www.w3.org/2000/svg">
<g opacity="0.5">
<path d="M768.466 -631.813L955.243 -606.761L969.009 -411.214L659.505 -522.648L490.182 -490.612L538.984 -302.068L724.899 -220.998L634.738 -86.5431L506.445 104.709L404.152 -235.67L278.037 19.5118L176.852 -93.4191L-36.5002 -162.276L-239.107 -123.193L-397.616 -68.2844L-148.414 11.4442L120.732 206.15L-33.6265 523.303L-147.711 757.64L-251.311 878.632L-376.352 652.322L-428.446 558.042L-16.261 393.422L-106.163 145.04L-187.177 478.189L-210.587 574.509L-97.4628 473.985L-56.0913 817.51L-147.59 755.285L-319.83 627.732L-190.409 425.218L-285.366 440.42L-340.349 201.316L-449.493 213.822L-461.269 392.49L-333.035 410.968L-629.641 202.396L-660.152 372.075L-481.936 714.835L-428.828 559.214L-535.306 561.32L-765.348 422.16L-1171.7 371.764L-1208.54 500.219L-1048.16 611.207L-940.099 426.009L-813.915 798.919L-601.988 702.198L-643.904 580.472L-709.764 860.392L-251.786 878.942L-399.777 749.854L-592.084 884.566L-586.904 1045.25L-227.463 1215.03L-490.891 965.731L-351.197 914.804L-216.688 991.521L-323.927 1138.65L-404.495 1107.69L-405.666 1250.85L-85.2042 1077.71L10.9385 1219.16L-225.904 1215.14L-117.542 1463.64L-404.311 1251.07" stroke="#589CFF" stroke-width="0.4628" stroke-miterlimit="10"/>
<path d="M120.732 206.15L56.3567 55.3091L-36.5003 -162.276L-148.634 12.6481L-106.163 145.04L120.732 206.15Z" stroke="#589CFF" stroke-width="0.4628" stroke-miterlimit="10"/>
<path d="M120.732 206.15L-17.2803 392.727L-340.349 201.316L-148.634 12.648L278.038 19.5119L120.732 206.15ZM120.732 206.15L-283.684 437.621L-449.493 213.823L-627.289 202.034L-396.656 -69.7905L-341.046 200.068L-334.554 410.479L-428.446 558.043L-461.269 392.49L-643.904 580.472L-660.152 372.075L-813.915 798.919L-708.936 859.249L-482.805 714.208L-643.904 580.472L-535.661 559.95L-602.338 699.768L-428.828 559.214L-319.83 627.732L-210.587 574.509L-251.786 878.943L-58.4985 814.611L-71.4294 941.942L-85.2041 1077.71L-323.927 1138.65L-349.829 916.461L-402.792 1110.29" stroke="#589CFF" stroke-width="0.4628" stroke-miterlimit="10"/>
<path d="M-95.8034 471.199L-17.2805 392.727L-447.608 212.885L-210.588 574.51L-56.0914 817.511L-400.702 747.934L-482.805 714.208L-602.338 699.768L-349.829 916.462L-813.915 798.919L-586.904 1045.25L-405.369 1252.83L-227.463 1215.03L-85.2043 1077.71L-216.688 991.521L-401.67 1106.85L-584.941 1047.62L-488.784 965.059L-592.084 884.567L-603.493 699.879L-940.099 426.01L-763.128 420.017L-629.642 202.396L-1171.7 371.765L-1046.61 612.943L-811.771 799.108" stroke="#589CFF" stroke-width="0.4628" stroke-miterlimit="10"/>
<path d="M968.18 -410.746L538.984 -302.068L404.152 -235.67L176.852 -93.4189L-148.414 11.4445L-239.107 -123.193L-340.349 201.316L-106.163 145.04L-190.409 425.218L-332.188 409.581L-535.661 559.95L-461.269 392.49L-658.965 373.21L-764.431 420.852L-813.915 798.919L-643.904 580.472L-940.1 426.009L-1208.54 500.219" stroke="#589CFF" stroke-width="0.4628" stroke-miterlimit="10"/>
<path d="M507.649 104.807L538.985 -302.068L659.505 -522.648L-36.5 -162.276L397.67 50.8233L507.649 104.807Z" stroke="#589CFF" stroke-width="0.4628" stroke-miterlimit="10"/>
<path d="M117.488 202.518C122.139 198.531 128.273 205.895 123.6 209.894C118.96 213.904 112.814 206.516 117.488 202.518Z" fill="#589CFF"/>
<path d="M119.521 204.969C119.035 205.373 118.984 205.723 118.976 205.933C118.971 206.317 119.161 206.746 119.465 207.114C119.933 207.689 120.674 208.179 121.577 207.408C122.063 207.004 122.114 206.654 122.122 206.444C122.127 206.059 121.937 205.631 121.633 205.263C121.177 204.711 120.424 204.198 119.521 204.969Z" fill="#EEF5FF"/>
<path d="M273.362 15.8431C278.013 11.8566 284.147 19.2207 279.473 23.2192C274.834 27.2288 268.7 19.8647 273.362 15.8431Z" fill="#589CFF"/>
<path d="M503.173 100.739C507.824 96.7526 513.958 104.117 509.284 108.115C504.645 112.125 498.511 104.761 503.173 100.739Z" fill="#589CFF"/>
<path d="M505.218 103.213C504.315 103.984 504.683 104.818 505.139 105.37C505.607 105.945 506.348 106.435 507.251 105.664C508.154 104.893 507.785 104.059 507.33 103.507C506.839 102.944 506.121 102.442 505.218 103.213Z" fill="#EEF5FF"/>
</g>
</svg>
