<svg width="1920" height="1680" viewBox="0 0 1920 1680" fill="none" xmlns="http://www.w3.org/2000/svg">
<mask id="mask0" style="mask-type:alpha" maskUnits="userSpaceOnUse" x="0" y="0" width="1920" height="1680">
<rect width="1920" height="1680" fill="#C4C4C4"/>
</mask>
<g mask="url(#mask0)">
<rect x="1808.04" y="-76.2929" width="340.117" height="99" transform="rotate(45 1808.04 -76.2929)" stroke="#B961FF" stroke-opacity="0.2"/>
<rect x="1525.8" y="-75.5387" width="734.764" height="99" transform="rotate(45 1525.8 -75.5387)" stroke="#B961FF" stroke-opacity="0.2"/>
<rect x="1108.08" y="-210.256" width="1412.23" height="99" transform="rotate(45 1108.08 -210.256)" stroke="#B961FF" stroke-opacity="0.2"/>
<rect x="1188.92" y="-272.839" width="1413.23" height="300.643" transform="rotate(45 1188.92 -272.839)" fill="url(#paint0_linear)"/>
<rect x="-608" y="1707.86" width="1240.07" height="701.067" transform="rotate(-45 -608 1707.86)" fill="url(#paint1_linear)"/>
<rect x="502.799" y="883.166" width="500.937" height="500.465" transform="rotate(45 502.799 883.166)" fill="url(#paint2_linear)"/>
<rect x="1030.33" y="278.133" width="500.82" height="500.817" transform="rotate(-45 1030.33 278.133)" fill="url(#paint3_linear)"/>
<rect x="745.976" y="-289.36" width="1873.22" height="99" transform="rotate(45 745.976 -289.36)" stroke="#B961FF" stroke-opacity="0.2"/>
<rect x="589.659" y="-162.677" width="2133.98" height="99" transform="rotate(45 589.659 -162.677)" stroke="#B961FF" stroke-opacity="0.2"/>
<rect x="143.593" y="-325.743" width="2732.33" height="99" transform="rotate(45 143.593 -325.743)" stroke="#B961FF" stroke-opacity="0.2"/>
<rect x="-277.778" y="-464.114" width="3395.88" height="99" transform="rotate(45 -277.778 -464.114)" stroke="#B961FF" stroke-opacity="0.2"/>
<rect x="-419.278" y="-322.614" width="3584.46" height="99" transform="rotate(45 -419.278 -322.614)" stroke="#B961FF" stroke-opacity="0.2"/>
<rect x="-600.289" y="-220.625" width="3959.31" height="99" transform="rotate(45 -600.289 -220.625)" stroke="#B961FF" stroke-opacity="0.2"/>
<rect x="-425.699" y="236.965" width="3833.58" height="99" transform="rotate(45 -425.699 236.965)" stroke="#B961FF" stroke-opacity="0.2"/>
<rect x="-175.38" y="770.284" width="3912.74" height="99" transform="rotate(45 -175.38 770.284)" stroke="#B961FF" stroke-opacity="0.2"/>
<rect x="-46.8859" y="1181.78" width="3172.37" height="99" transform="rotate(45 -46.8859 1181.78)" stroke="#B961FF" stroke-opacity="0.2"/>
<rect x="-77.4979" y="1434.17" width="3320.55" height="99" transform="rotate(45 -77.4979 1434.17)" stroke="#B961FF" stroke-opacity="0.2"/>
<rect y="0.707107" width="734.764" height="99" transform="matrix(-0.707107 0.707107 0.707107 0.707107 328.292 -76.0387)" stroke="#B961FF" stroke-opacity="0.2"/>
<rect y="0.707107" width="1873.22" height="99" transform="matrix(-0.707107 0.707107 0.707107 0.707107 1108.11 -289.86)" stroke="#B961FF" stroke-opacity="0.2"/>
<rect y="0.707107" width="2732.33" height="99" transform="matrix(-0.707107 0.707107 0.707107 0.707107 1710.5 -326.243)" stroke="#B961FF" stroke-opacity="0.2"/>
<rect y="0.707107" width="3584.46" height="99" transform="matrix(-0.707107 0.707107 0.707107 0.707107 2273.37 -323.114)" stroke="#B961FF" stroke-opacity="0.2"/>
<rect y="0.707107" width="3833.58" height="99" transform="matrix(-0.707107 0.707107 0.707107 0.707107 2279.79 236.464)" stroke="#B961FF" stroke-opacity="0.2"/>
<rect y="0.707107" width="3172.37" height="99" transform="matrix(-0.707107 0.707107 0.707107 0.707107 1900.98 1181.28)" stroke="#B961FF" stroke-opacity="0.2"/>
</g>
<defs>
<linearGradient id="paint0_linear" x1="1895.53" y1="-272.839" x2="1895.53" y2="27.8039" gradientUnits="userSpaceOnUse">
<stop stop-color="#F28D55" stop-opacity="0"/>
<stop offset="1" stop-color="#F28D55" stop-opacity="0.1"/>
</linearGradient>
<linearGradient id="paint1_linear" x1="12.0341" y1="1707.86" x2="12.0341" y2="2408.93" gradientUnits="userSpaceOnUse">
<stop stop-color="#F28D55" stop-opacity="0"/>
<stop offset="1" stop-color="#F28D55" stop-opacity="0.1"/>
</linearGradient>
<linearGradient id="paint2_linear" x1="503.076" y1="882.937" x2="793.846" y2="1173.98" gradientUnits="userSpaceOnUse">
<stop stop-color="#B961FF" stop-opacity="0.1"/>
<stop offset="1" stop-color="#B961FF" stop-opacity="0"/>
</linearGradient>
<linearGradient id="paint3_linear" x1="1030.61" y1="277.904" x2="1321.59" y2="568.878" gradientUnits="userSpaceOnUse">
<stop stop-color="#B961FF" stop-opacity="0.1"/>
<stop offset="1" stop-color="#B961FF" stop-opacity="0"/>
</linearGradient>
</defs>
</svg>
