<svg width="580" height="404" viewBox="0 0 580 404" fill="none" xmlns="http://www.w3.org/2000/svg">
<g opacity="0.5">
<path d="M-1182.37 103.854L-1243.47 -74.4181L-1074.7 -174.154L-1036.01 152.515L-931.657 289.652L-784.822 161.707L-795.422 -40.837L-634.844 -20.2989L-406.413 8.95637L-665.15 252.63L-380.508 251.356L-436.288 392.354L-402.498 613.982L-276.96 777.741L-156.979 894.979L-197.072 636.424L-143.234 308.626L209.468 304.911L470.086 302.195L624.629 340.773L478.097 553.799L417.053 642.547L85.5259 347.443L-96.46 538.904L237.761 462.431L334.385 440.31L193.892 384.061L482.68 193.475L467.925 303.14L430.832 514.234L191.823 489.004L247.874 567.147L58.5761 723.225L118.558 815.263L283.641 745.92L242.84 622.953L188.875 981.514L354.293 932.947L581.218 620.296L418.272 642.364L467.758 736.667L446.124 1004.65L582.712 1390.67L714.086 1366.2L741.661 1173.11L527.693 1159.25L804.848 879.661L623.586 733.333L533.44 825.246L813.273 759.015L625.12 341.06L575.812 531.149L782.286 642.942L923.703 566.472L914.872 169.051L809.648 516.139L701.641 413.95L710.13 259.335L889.678 289.485L898.009 375.391L1026.58 312.44L728.445 103.19L811.992 -46.0488L914.279 167.605L1088.11 -40.4195L1026.18 311.128" stroke="#589CFF" stroke-width="0.4628" stroke-miterlimit="10"/>
<path d="M624.551 342.57L710.13 259.335L576.123 532.936L702.512 411.986L624.551 342.57Z" stroke="#589CFF" stroke-width="0.4628" stroke-miterlimit="10"/>
<path d="M-143.234 308.626L85.3595 348.666L58.5759 723.225L-195.897 636.083L-380.509 251.356L-143.234 308.626ZM-143.234 308.626L244.618 566.893L118.558 815.263L187.499 979.571L-158.756 894.794L57.771 724.405L243.082 624.531L417.053 642.547L283.641 745.92L533.44 825.246L354.293 932.947L804.848 879.66L811.88 758.785L581.045 621.354L533.44 825.246L466.692 737.597L621.568 734.732L418.271 642.364L430.832 514.233L334.385 440.31L625.12 341.06L481.162 196.925L600.841 151.566L728.444 103.19L889.678 289.485L702.512 411.986L899.57 372.706" stroke="#589CFF" stroke-width="0.4628" stroke-miterlimit="10"/>
<path d="M190.658 383.823L85.3598 348.666L116.876 813.996L334.385 440.31L482.68 193.476L574.508 532.835L581.045 621.354L621.569 734.732L702.512 411.986L804.848 879.661L923.703 566.472L1028.23 311.286L914.872 169.051L728.445 103.19L710.13 259.335L895.988 373.242L924.946 563.656L808.104 514.555L782.286 642.942L622.184 735.716L527.693 1159.25L443.214 1003.63L188.875 981.514L582.712 1390.67L742.521 1170.95L804.058 877.658" stroke="#589CFF" stroke-width="0.4628" stroke-miterlimit="10"/>
<path d="M-1073.91 -173.623L-784.822 161.707L-665.15 252.63L-436.288 392.354L-197.072 636.424L-276.96 777.74L58.576 723.224L-96.4601 538.904L191.823 489.003L241.22 622.816L466.692 737.597L283.641 745.919L354.778 931.378L444.544 1004.42L804.848 879.66L533.44 825.246L527.693 1159.25L714.086 1366.2" stroke="#589CFF" stroke-width="0.4628" stroke-miterlimit="10"/>
<g opacity="0.6">
<path d="M467.548 306.512C461.903 304.134 465.748 295.354 471.414 297.747C477.074 300.104 473.23 308.884 467.548 306.512Z" fill="#589CFF"/>
<path d="M468.847 303.576C469.425 303.83 469.761 303.72 469.953 303.633C470.299 303.465 470.597 303.104 470.79 302.667C471.096 301.992 471.203 301.11 470.109 300.647C469.531 300.393 469.195 300.503 469.003 300.59C468.657 300.758 468.359 301.119 468.166 301.556C467.86 302.231 467.753 303.113 468.847 303.576Z" fill="#EEF5FF"/>
</g>
<path d="M480.857 200.156C475.211 197.778 479.056 188.999 484.722 191.392C490.383 193.749 486.538 202.528 480.857 200.156Z" fill="#589CFF"/>
<path d="M482.155 197.221C483.249 197.684 483.829 196.982 484.099 196.312C484.405 195.636 484.511 194.755 483.418 194.291C482.84 194.037 482.503 194.148 482.312 194.235C481.966 194.402 481.668 194.764 481.474 195.201C481.189 195.891 481.061 196.758 482.155 197.221Z" fill="#EEF5FF"/>
<path d="M82.7656 353.709C77.1203 351.331 80.9649 342.551 86.631 344.944C92.2763 347.322 88.4317 356.102 82.7656 353.709Z" fill="#589CFF"/>
<path d="M84.0489 350.794C85.1425 351.258 85.7231 350.555 86.0134 349.9C86.3191 349.225 86.4259 348.343 85.3323 347.88C84.2386 347.417 83.6581 348.119 83.3886 348.789C83.0774 349.429 82.9552 350.331 84.0489 350.794Z" fill="#EEF5FF"/>
</g>
</svg>
