<svg width="480" height="525" viewBox="0 0 480 525" fill="none" xmlns="http://www.w3.org/2000/svg">
<g opacity="0.66">
<path d="M-506.008 -526.658L-442.387 -641.566L-311.943 -600.924L-462.762 -428.24L-484.895 -310.188L-350.113 -294.067L-250.343 -394.213L-185.911 -301.588L-94.2733 -169.806L-341.192 -189.696L-207.497 -43.1186L-306.47 -6.05945L-405.268 114.996L-431.265 256.443L-435.806 373.273L-320.86 231.699L-126.211 106.33L40.5562 286.956L163.768 420.438L216.052 518.374L37.4221 542.174L-36.995 552.091L-39.3631 242.751L-223.414 238.141L-27.665 375.206L28.9327 414.827L-7.64763 315.896L225.867 376.135L162.27 419.762L35.7886 499.244L-62.8749 363.874L-77.081 429.377L-246.255 404.45L-265.808 478.48L-152.798 531.426L-108.288 452.857L-318.902 592.54L-216.478 655.369L51.2368 626.572L-36.3313 552.636L-61.961 622.298L-210.634 736.364L-346.38 987.401L-272.326 1043.89L-159.604 967.903L-252.442 850.793L21.6545 863.421L12.5938 701.309L-77.0616 697.659L87.9712 811.39L216.133 518.762L94.8031 582.111L133.503 741.118L239.137 778.495L440.494 588.183L211.855 695.999L214.21 592.394L298.121 524.519L366.449 631.444L325.926 675.903L418.567 712.958L387.415 461.009L503.626 434.455L440.965 587.2L629.77 579.853L419.056 712.135" stroke="#589CFF" stroke-width="0.4628" stroke-miterlimit="10"/>
<path d="M-126.21 106.33L-40.0724 243.236L-246.254 404.45L-320.134 232.147L-207.497 -43.1187L-126.21 106.33ZM-126.21 106.33L-78.4712 427.575L-265.808 478.48L-318.54 590.92L-436.54 372.268L-247.241 404.586L-108.991 453.72L-36.9945 552.091L-152.797 531.426L-77.0611 697.659L-216.478 655.369L21.655 863.421L87.4396 810.562L50.6095 626.977L-77.0611 697.659L-62.9396 622.181L10.9279 700.92L-36.3308 552.636L35.7891 499.244L28.9332 414.827L216.134 518.762L223.375 376.963L302.763 417.642L387.415 461.009L366.45 631.445L215.633 591.926L328.044 675.455" stroke="#589CFF" stroke-width="0.4628" stroke-miterlimit="10"/>
<path d="M-9.0358 314.112L-40.0724 243.237L-265.938 477.018L28.9332 414.827L225.868 376.136L93.3224 582.225L50.6095 626.977L10.9279 700.92L215.633 591.927L21.655 863.421L239.138 778.496L419.933 713.27L440.495 588.183L387.415 461.009L298.121 524.519L326.093 673.854L241.175 777.822L211.952 694.461L133.504 741.118L10.7071 701.698L-252.441 850.793L-211.462 734.379L-318.902 592.54L-346.38 987.401L-158.083 967.336L22.3211 862.076" stroke="#589CFF" stroke-width="0.4628" stroke-miterlimit="10"/>
<path d="M-311.849 -600.268L-350.113 -294.067L-341.192 -189.696L-306.47 -6.05939L-320.86 231.699L-431.265 256.443L-246.254 404.45L-223.413 238.141L-62.8746 363.874L-108.974 451.956L-62.9398 622.181L-152.798 531.426L-215.44 654.886L-211.25 735.437L21.6548 863.421L-77.0613 697.659L-252.442 850.793L-272.326 1043.89" stroke="#589CFF" stroke-width="0.4628" stroke-miterlimit="10"/>
<g opacity="0.6">
<path d="M160.351 421.143C158.942 417.113 165.278 414.997 166.689 419.045C168.116 423.074 161.78 425.189 160.351 421.143Z" fill="#589CFF"/>
<path d="M162.476 420.442C162.614 420.86 162.829 420.982 162.963 421.041C163.212 421.141 163.538 421.126 163.854 421.022C164.346 420.865 164.852 420.508 164.58 419.726C164.441 419.308 164.227 419.186 164.093 419.128C163.844 419.027 163.518 419.042 163.202 419.146C162.71 419.303 162.204 419.66 162.476 420.442Z" fill="#EEF5FF"/>
</g>
<path d="M24.1817 415.667C22.7728 411.637 29.1091 409.521 30.52 413.569C31.9289 417.599 25.5926 419.715 24.1817 415.667Z" fill="#589CFF"/>
<path d="M26.2887 414.968C26.5604 415.75 27.195 415.722 27.6692 415.566C28.1614 415.408 28.6672 415.051 28.3955 414.27C28.2566 413.852 28.0421 413.73 27.9079 413.671C27.6594 413.571 27.3331 413.586 27.017 413.689C26.5408 413.828 26.017 414.186 26.2887 414.968Z" fill="#EEF5FF"/>
<path d="M221.561 378.316C220.152 374.285 226.489 372.17 227.9 376.218C229.327 380.246 222.99 382.362 221.561 378.316Z" fill="#589CFF"/>
<path d="M223.686 377.615C223.958 378.397 224.592 378.369 225.064 378.195C225.557 378.038 226.062 377.681 225.791 376.899C225.652 376.481 225.437 376.359 225.303 376.301C225.055 376.2 224.728 376.215 224.412 376.319C223.922 376.494 223.414 376.833 223.686 377.615Z" fill="#EEF5FF"/>
<path d="M384.525 462.345C383.116 458.315 389.452 456.199 390.863 460.247C392.29 464.276 385.952 466.373 384.525 462.345Z" fill="#589CFF"/>
<path d="M386.649 461.644C386.788 462.062 387.003 462.184 387.137 462.243C387.385 462.343 387.712 462.328 388.028 462.225C388.52 462.067 389.026 461.71 388.754 460.928C388.615 460.51 388.401 460.388 388.266 460.33C388.018 460.229 387.692 460.244 387.376 460.348C386.883 460.506 386.377 460.863 386.649 461.644Z" fill="#EEF5FF"/>
</g>
</svg>
