<svg width="480" height="631" viewBox="0 0 480 631" fill="none" xmlns="http://www.w3.org/2000/svg">
<g opacity="0.66">
<path d="M757.946 -595.771L943.027 -560.297L945.819 -364.286L643.042 -492.88L472.191 -470.378L510.356 -279.396L691.438 -188.041L593.889 -58.847L455.086 124.92L372.017 -220.654L231.808 27.0634L137.107 -91.3574L-72.0542 -172.056L-276.532 -144.382L-437.868 -98.437L-193.522 -4.87622L64.2963 204.599L-107.583 512.608L-234.613 740.188L-344.827 855.187L-456.996 622.229L-503.729 525.18L-82.9704 383.904L-158.82 130.876L-258.365 458.965L-287.134 553.822L-168.557 459.793L-146.49 805.095L-234.361 737.843L-399.186 600.844L-258.625 405.896L-354.286 415.756L-395.79 173.947L-505.464 180.321L-527.228 358.049L-400.229 383.68L-684.689 158.823L-724.655 326.527L-565.916 678.73L-504.175 526.328L-610.604 522.467L-832.491 370.641L-1235.38 297.566L-1279.36 423.755L-1125.44 543.552L-1007.18 364.697L-902.083 744.089L-685.072 659.389L-720.104 535.507L-801.539 811.299L-345.319 855.471L-485.847 718.296L-685.397 842.026L-689.225 1002.75L-339.857 1192.39L-588.909 928.731L-446.582 885.708L-316.581 969.838L-431.892 1110.73L-510.6 1075.31L-519.786 1218.17L-190.131 1063.26L-102.062 1209.87L-338.307 1192.59L-244.033 1446.77L-518.446 1218.47" stroke="#589CFF" stroke-width="0.4628" stroke-miterlimit="10"/>
<path d="M64.2963 204.599L8.47041 50.3884L-72.0543 -172.056L-193.809 -3.68671L-158.82 130.876L64.2963 204.599Z" stroke="#589CFF" stroke-width="0.4628" stroke-miterlimit="10"/>
<path d="M64.2964 204.599L-83.9491 383.152L-395.79 173.948L-193.809 -3.68678L231.808 27.0634L64.2964 204.599ZM64.2964 204.599L-352.449 413.056L-505.464 180.321L-682.32 158.593L-436.825 -99.8872L-396.416 172.663L-401.719 383.107L-503.729 525.18L-527.228 358.049L-720.104 535.507L-724.655 326.527L-902.083 744.089L-800.648 810.204L-566.748 678.055L-720.104 535.507L-610.882 521.08L-685.285 656.944L-504.175 526.328L-399.186 600.844L-287.134 553.823L-345.319 855.471L-148.732 802.065L-168.774 928.472L-190.131 1063.26L-431.892 1110.73L-445.309 887.439L-509.045 1078" stroke="#589CFF" stroke-width="0.4628" stroke-miterlimit="10"/>
<path d="M-166.744 457.103L-83.9493 383.152L-503.529 179.491L-287.134 553.823L-146.491 805.095L-486.664 716.327L-566.749 678.055L-685.286 656.944L-445.31 887.439L-902.083 744.089L-689.225 1002.75L-519.602 1220.17L-339.857 1192.39L-190.131 1063.26L-316.581 969.838L-507.732 1074.62L-687.398 1005.23L-586.767 928.177L-685.397 842.026L-686.445 656.99L-1007.18 364.697L-830.154 368.626L-684.689 158.823L-1235.38 297.566L-1123.99 545.372L-899.953 744.397" stroke="#589CFF" stroke-width="0.4628" stroke-miterlimit="10"/>
<path d="M944.966 -363.866L510.356 -279.396L372.017 -220.654L137.106 -91.3575L-193.522 -4.87627L-276.532 -144.382L-395.79 173.947L-158.82 130.876L-258.626 405.896L-399.306 382.342L-610.882 521.08L-527.228 358.049L-723.533 327.727L-831.502 369.387L-902.083 744.089L-720.104 535.507L-1007.18 364.697L-1279.36 423.755" stroke="#589CFF" stroke-width="0.4628" stroke-miterlimit="10"/>
<path d="M456.282 125.085L510.357 -279.396L643.042 -492.88L-72.0541 -172.056L349.499 65.0258L456.282 125.085Z" stroke="#589CFF" stroke-width="0.4628" stroke-miterlimit="10"/>
<path d="M61.2607 200.79C66.1278 197.07 71.8402 204.766 66.9498 208.497C62.0933 212.24 56.3703 204.52 61.2607 200.79Z" fill="#589CFF"/>
<path d="M63.1535 203.351C62.646 203.727 62.5751 204.073 62.5554 204.283C62.5288 204.666 62.6949 205.105 62.9776 205.489C63.4123 206.09 64.1247 206.62 65.0697 205.901C65.5771 205.525 65.6481 205.178 65.6678 204.969C65.6944 204.585 65.5282 204.147 65.2455 203.763C64.8213 203.185 64.0984 202.631 63.1535 203.351Z" fill="#EEF5FF"/>
<path d="M227.345 23.1381C232.212 19.4184 237.924 27.1145 233.034 30.8449C228.178 34.5884 222.465 26.8923 227.345 23.1381Z" fill="#589CFF"/>
<path d="M229.248 25.7226C228.304 26.442 228.625 27.2947 229.049 27.8718C229.484 28.4725 230.196 29.003 231.141 28.2836C231.649 27.9078 231.72 27.5609 231.739 27.3518C231.766 26.968 231.6 26.5298 231.317 26.1451C230.893 25.5681 230.193 25.0031 229.248 25.7226Z" fill="#EEF5FF"/>
</g>
</svg>
