<svg width="1920" height="800" viewBox="0 0 1920 800" fill="none" xmlns="http://www.w3.org/2000/svg">
<mask id="mask0" style="mask-type:alpha" maskUnits="userSpaceOnUse" x="0" y="0" width="1920" height="800">
<rect width="1920" height="800" fill="#C4C4C4"/>
</mask>
<g mask="url(#mask0)">
<rect x="1763.71" y="-76.2929" width="340.117" height="99" transform="rotate(45 1763.71 -76.2929)" stroke="#B961FF" stroke-opacity="0.2"/>
<rect x="1481.46" y="-75.5387" width="734.764" height="99" transform="rotate(45 1481.46 -75.5387)" stroke="#B961FF" stroke-opacity="0.2"/>
<rect x="1063.75" y="-210.256" width="1412.23" height="99" transform="rotate(45 1063.75 -210.256)" stroke="#B961FF" stroke-opacity="0.2"/>
<rect x="701.643" y="-289.36" width="1873.22" height="99" transform="rotate(45 701.643 -289.36)" stroke="#B961FF" stroke-opacity="0.2"/>
<rect x="545.326" y="-162.677" width="2133.98" height="99" transform="rotate(45 545.326 -162.677)" stroke="#B961FF" stroke-opacity="0.2"/>
<rect x="99.2604" y="-325.743" width="2732.33" height="99" transform="rotate(45 99.2604 -325.743)" stroke="#B961FF" stroke-opacity="0.2"/>
<rect x="-322.111" y="-464.114" width="3395.88" height="99" transform="rotate(45 -322.111 -464.114)" stroke="#B961FF" stroke-opacity="0.2"/>
<rect x="-463.611" y="-322.614" width="3584.46" height="99" transform="rotate(45 -463.611 -322.614)" stroke="#B961FF" stroke-opacity="0.2"/>
<rect x="-644.622" y="-220.625" width="3959.31" height="99" transform="rotate(45 -644.622 -220.625)" stroke="#B961FF" stroke-opacity="0.2"/>
<rect x="-470.032" y="236.965" width="3833.58" height="99" transform="rotate(45 -470.032 236.965)" stroke="#B961FF" stroke-opacity="0.2"/>
<rect x="-219.713" y="770.284" width="3912.74" height="99" transform="rotate(45 -219.713 770.284)" stroke="#B961FF" stroke-opacity="0.2"/>
<rect y="0.707107" width="734.764" height="99" transform="matrix(-0.707107 0.707107 0.707107 0.707107 350.423 -76.0388)" stroke="#B961FF" stroke-opacity="0.2"/>
<rect y="0.707107" width="1873.22" height="99" transform="matrix(-0.707107 0.707107 0.707107 0.707107 1130.25 -289.86)" stroke="#B961FF" stroke-opacity="0.2"/>
<rect y="0.707107" width="2732.33" height="99" transform="matrix(-0.707107 0.707107 0.707107 0.707107 1732.63 -326.243)" stroke="#B961FF" stroke-opacity="0.2"/>
<rect y="0.707107" width="3584.46" height="99" transform="matrix(-0.707107 0.707107 0.707107 0.707107 2295.5 -323.114)" stroke="#B961FF" stroke-opacity="0.2"/>
<rect y="0.707107" width="3833.58" height="99" transform="matrix(-0.707107 0.707107 0.707107 0.707107 2301.92 236.464)" stroke="#B961FF" stroke-opacity="0.2"/>
<rect x="1004.59" y="-272" width="1413.23" height="300.643" transform="rotate(45 1004.59 -272)" fill="url(#paint0_linear)"/>
<rect x="350.131" y="491.805" width="500.82" height="500.817" transform="rotate(45 350.131 491.805)" fill="url(#paint1_linear)"/>
<rect x="846" y="277.133" width="500.82" height="500.817" transform="rotate(-45 846 277.133)" fill="url(#paint2_linear)"/>
<path opacity="0.65" d="M-245 1180C619.878 1180 1321 731.389 1321 178C1321 -375.389 619.878 -824 -245 -824C-1109.88 -824 -1811 -375.389 -1811 178C-1811 731.389 -1109.88 1180 -245 1180Z" fill="url(#paint3_radial)" fill-opacity="0.4"/>
</g>
<defs>
<linearGradient id="paint0_linear" x1="1711.2" y1="-272" x2="1711.2" y2="28.6429" gradientUnits="userSpaceOnUse">
<stop stop-color="#F28D55" stop-opacity="0"/>
<stop offset="1" stop-color="#F28D55" stop-opacity="0.1"/>
</linearGradient>
<linearGradient id="paint1_linear" x1="350.409" y1="491.575" x2="641.383" y2="782.55" gradientUnits="userSpaceOnUse">
<stop stop-color="#B961FF" stop-opacity="0.1"/>
<stop offset="1" stop-color="#B961FF" stop-opacity="0"/>
</linearGradient>
<linearGradient id="paint2_linear" x1="846.277" y1="276.904" x2="1137.25" y2="567.878" gradientUnits="userSpaceOnUse">
<stop stop-color="#B961FF" stop-opacity="0.1"/>
<stop offset="1" stop-color="#B961FF" stop-opacity="0"/>
</linearGradient>
<radialGradient id="paint3_radial" cx="0" cy="0" r="1" gradientUnits="userSpaceOnUse" gradientTransform="translate(-245 178.007) scale(1566.02 1002.01)">
<stop stop-color="#6C00C1"/>
<stop offset="0.0858" stop-color="#5B00A3"/>
<stop offset="0.2661" stop-color="#46007C"/>
<stop offset="0.4409" stop-color="#2F0054"/>
<stop offset="0.6059" stop-color="#22003D"/>
<stop offset="0.7586" stop-color="#0F001C"/>
<stop offset="0.8945" stop-color="#07000D"/>
<stop offset="1"/>
</radialGradient>
</defs>
</svg>
