<svg width="1920" height="566" viewBox="0 0 1920 566" fill="none" xmlns="http://www.w3.org/2000/svg">
<mask id="mask0" style="mask-type:alpha" maskUnits="userSpaceOnUse" x="0" y="0" width="1920" height="566">
<rect width="1920" height="566" fill="#C4C4C4"/>
</mask>
<g mask="url(#mask0)">
<path opacity="0.41" d="M-246.982 666.035C250.636 666.035 654.035 262.636 654.035 -234.982C654.035 -732.601 250.636 -1136 -246.982 -1136C-744.601 -1136 -1148 -732.601 -1148 -234.982C-1148 262.636 -744.601 666.035 -246.982 666.035Z" fill="url(#paint0_radial)"/>
<path opacity="0.65" d="M2006 1991C2559.39 1991 3008 1542.39 3008 989C3008 435.611 2559.39 -13 2006 -13C1452.61 -13 1004 435.611 1004 989C1004 1542.39 1452.61 1991 2006 1991Z" fill="url(#paint1_radial)" fill-opacity="0.6"/>
<path d="M-67.1946 905.232L-173.238 749.564L-38.831 611.617L85.5185 915.222L221.8 1020.57L327.721 861.009L263.402 669.409L422.183 648.869L648.032 619.608L466.279 918.201L737.626 845.596L722.108 994.839L813.678 1198.9L977.35 1324.49L1123.24 1406.84L1015.76 1168.91L979.427 841.018L1315.1 749.036L1563.14 681.048L1720.97 679.291L1638.12 920.351L1603.6 1020.78L1208.16 820.878L1085.7 1050.15L1384.24 892.984L1470.57 847.545L1321.42 828.83L1546.06 573.641L1561.3 682.487L1582.39 894.248L1347.5 930.014L1421.92 990.88L1283 1188.05L1364.89 1261.28L1503.9 1153.37L1432.07 1045.67L1476.48 1403.12L1621.39 1315.03L1754.34 958.267L1604.69 1020.29L1677.16 1098.32L1728.22 1360.8L1961.9 1696.74L2080.74 1640.32L2055.39 1448.22L1847.45 1488.59L2037.17 1150.95L1825.03 1056.05L1763.58 1166.81L2012.96 1033.12L1721.52 679.443L1725.3 874.113L1952.32 929.561L2066.83 820.754L1952.05 441.805L1944.48 801.074L1814.04 730.152L1780.79 579.741L1960.21 563.621L1991.17 643.933L2097.04 551.337L1756.46 425.381L1796.27 261.295L1951.09 440.59L2061.33 197.447L2096.31 550.156" stroke="#740291" stroke-width="0.4628" stroke-miterlimit="10"/>
<path d="M979.428 841.018L1208.32 822.116L1283 1188.05L1016.79 1168.29L737.626 845.595L979.428 841.018ZM979.428 841.018L1418.77 991.462L1364.89 1261.28L1474.66 1401.57L1121.5 1407.11L1282.57 1189.39L1432.69 1047.14L1603.6 1020.78L1503.9 1153.37L1763.58 1166.81L1621.39 1315.03L2037.17 1150.95L2011.56 1033.24L1754.43 959.315L1763.58 1166.81L1676.41 1099.51L1823.48 1057.9L1604.69 1020.29L1582.39 894.248L1470.57 847.545L1721.52 679.443L1545.54 577.306L1647.61 503.78L1756.46 425.381L1960.21 563.621L1814.33 728.074L1991.92 640.958" stroke="#740291" stroke-width="0.4628" stroke-miterlimit="10"/>
<path d="M1318.25 829.404L1208.32 822.116L1362.96 1260.49L1470.57 847.545L1546.06 573.641L1724.5 876.057L1754.43 959.316L1823.48 1057.9L1814.33 728.074L2037.17 1150.95L2066.83 820.754L2098.29 549.784L1952.05 441.805L1756.46 425.381L1780.79 579.742L1988.64 642.394L2067.24 817.733L1942.58 799.942L1952.32 929.562L1824.29 1058.71L1847.45 1488.59L1725.17 1360.52L1476.48 1403.12L1961.9 1696.74L2055.63 1445.95L2035.88 1149.23" stroke="#740291" stroke-width="0.4628" stroke-miterlimit="10"/>
<path d="M263.402 669.409L-173.238 749.564L85.5184 915.222L-68.5277 903.767L-37.9274 611.906L263.402 669.409ZM263.402 669.409L85.5184 915.222" stroke="#740291" stroke-width="0.4628" stroke-miterlimit="10"/>
<path d="M647.302 618.646L327.721 861.01L85.5184 915.222L813.678 1198.9L680.926 735.926L647.302 618.646Z" stroke="#740291" stroke-width="0.4628" stroke-miterlimit="10"/>
<path d="M1756.33 429.906C1750.3 429.041 1751.62 419.656 1757.67 420.53C1763.71 421.371 1762.39 430.756 1756.33 429.906Z" fill="#710F9F"/>
<path d="M1756.77 426.789C1757.39 426.887 1757.69 426.697 1757.85 426.566C1758.13 426.318 1758.32 425.896 1758.39 425.429C1758.5 424.705 1758.36 423.832 1757.2 423.662C1756.58 423.564 1756.28 423.754 1756.12 423.885C1755.84 424.133 1755.65 424.554 1755.58 425.022C1755.48 425.722 1755.61 426.619 1756.77 426.789Z" fill="#F4DDFF"/>
<path d="M1795.93 267.302C1789.9 266.437 1791.23 257.052 1797.27 257.926C1803.3 258.791 1801.98 268.176 1795.93 267.302Z" fill="#710F9F"/>
<path d="M1796.37 264.184C1797.54 264.354 1797.91 263.535 1798.01 262.834C1798.12 262.109 1797.99 261.237 1796.82 261.067C1796.2 260.968 1795.91 261.159 1795.75 261.29C1795.46 261.537 1795.28 261.959 1795.21 262.426C1795.11 263.127 1795.21 264.014 1796.37 264.184Z" fill="#F4DDFF"/>
<path d="M1686.75 -602.397L1841.14 -494.544L1764.52 -317.827L1540.45 -557.469L1375.61 -607.542L1333.27 -420.79L1461.44 -264.528L1320.34 -188.906L1119.58 -81.36L1183.43 -425.04L955.563 -260.79L917.061 -405.789L758.981 -564.048L561.4 -623.312L395.768 -648.477L580.728 -464.234L731.154 -170.627L450.066 34.6081L242.347 186.237L95.4288 243.939L87.2624 -10.832L83.8576 -116.97L524.485 -70.5568L557.534 -328.374L334.277 -75.4207L269.739 -2.28156L415.813 -37.7632L296.466 280.598L243.525 184.24L148.6 -6.22395L355.474 -123.062L264.286 -153.552L324.114 -387.203L221.56 -426.576L129.938 -276.33L235.358 -201.168L66.8592 -519.504L-37.3072 -385.718L-34.8496 -4.99516L82.9872 -116.125L-12.4752 -163.331L-153.429 -390.531L-491.195 -621.597L-582.254 -526.646L-490.325 -356.074L-310.28 -467.664L-367.701 -84.6368L-135.662 -71.2992L-117.563 -196.662L-303.189 16.8928L94.8656 243.99L22.1616 63.3568L-209.723 92.1568L-278.126 234.544L-36.232 548.016L-156.782 209.482L-9.65921 229.45L74.872 358.243L-87.1504 437.04L-144.597 372.963L-210.67 497.149L152.414 493.898L173.483 661.424L-34.9008 548.835L-51.6176 815.254L-209.57 497.968" stroke="#589CFF" stroke-width="0.4628" stroke-miterlimit="10"/>
<path d="M94.4304 242.455L74.872 358.243L20.856 62.1025L-9.19843 231.523L94.4304 242.455Z" stroke="#589CFF" stroke-width="0.4628" stroke-miterlimit="10"/>
<path d="M731.154 -170.627L523.896 -71.632L324.114 -387.203L579.986 -463.286L955.563 -260.79L731.154 -170.627ZM731.154 -170.627L267.051 -155.216L221.56 -426.576L69.112 -518.736L397.304 -649.347L324.062 -388.611L234.232 -202.294L83.8576 -116.97L129.938 -276.33L-117.563 -196.662L-37.3072 -385.718L-367.701 -84.6368L-301.934 16.2784L-35.336 -5.94238L-117.563 -196.662L-12.168 -164.688L-134.869 -73.5776L82.9872 -116.125L148.6 -6.22398L269.739 -2.28156L94.8656 243.99L295.646 276.963L226.322 381.949L152.414 493.898L-87.1504 437.04L-9.1984 231.523L-144.264 376.01" stroke="#589CFF" stroke-width="0.4628" stroke-miterlimit="10"/>
<path d="M418.552 -39.4271L523.896 -71.632L223.659 -426.525L269.739 -2.28156L296.466 280.598L22.2128 61.2576L-35.336 -5.94238L-134.869 -73.5775L-9.1984 231.523L-367.701 -84.6368L-278.126 234.544L-211.31 499.018L-36.232 548.016L152.414 493.898L74.872 358.243L-141.704 373.526L-277.461 237.514L-154.606 209.866L-209.723 92.1568L-135.944 -74.0128L-310.28 -467.664L-150.485 -391.376L66.8592 -519.504L-491.195 -621.597L-489.736 -353.846L-365.883 -83.4848" stroke="#589CFF" stroke-width="0.4628" stroke-miterlimit="10"/>
<path d="M93.7904 238.077C99.7296 236.746 101.829 245.987 95.864 247.319C89.9248 248.675 87.8256 239.434 93.7904 238.077Z" fill="#589CFF"/>
<path d="M94.4816 241.174C93.3296 241.43 93.2784 242.326 93.432 243.018C93.5856 243.734 94.0208 244.502 95.1728 244.246C95.7872 244.118 95.992 243.837 96.0944 243.658C96.2736 243.325 96.2992 242.864 96.1968 242.403C96.0432 241.686 95.608 240.918 94.4816 241.174Z" fill="#EEF5FF"/>
<path d="M72.9521 353.635C78.8913 352.304 80.9905 361.545 75.0257 362.877C69.0865 364.233 66.9873 354.992 72.9521 353.635Z" fill="#589CFF"/>
<path d="M73.6433 356.732C73.0289 356.86 72.8241 357.142 72.7217 357.321C72.5425 357.654 72.5169 358.115 72.6193 358.576C72.7729 359.292 73.2081 360.06 74.3601 359.804C74.9745 359.676 75.1793 359.395 75.2817 359.216C75.4609 358.883 75.4865 358.422 75.3841 357.961C75.2305 357.244 74.7953 356.476 73.6433 356.732Z" fill="#EEF5FF"/>
<g opacity="0.6">
<path d="M241.835 181.322C247.774 179.991 249.874 189.232 243.909 190.563C237.97 191.92 235.871 182.679 241.835 181.322Z" fill="#589CFF"/>
<path d="M242.527 184.419C241.912 184.547 241.707 184.829 241.605 185.008C241.426 185.341 241.4 185.802 241.503 186.262C241.656 186.979 242.091 187.747 243.243 187.491C243.858 187.363 244.063 187.082 244.165 186.902C244.344 186.57 244.37 186.109 244.267 185.648C244.114 184.931 243.679 184.163 242.527 184.419Z" fill="#EEF5FF"/>
</g>
<path d="M20.4209 57.8532C26.3601 56.522 28.4593 65.7635 22.4945 67.0947C16.5553 68.4515 14.4561 59.21 20.4209 57.8532Z" fill="#589CFF"/>
<path d="M21.1121 60.9251C19.9601 61.1811 19.9089 62.0772 20.0625 62.7684C20.2161 63.4852 20.6513 64.2532 21.8033 63.9972C22.4177 63.8692 22.6225 63.5876 22.7249 63.4084C22.9041 63.0756 22.9297 62.6148 22.8273 62.1539C22.6737 61.4627 22.2385 60.6691 21.1121 60.9251Z" fill="#EEF5FF"/>
<path d="M269.227 -9.09142C275.166 -10.4226 277.266 -1.18103 271.301 0.150168C265.362 1.48137 263.263 -7.76022 269.227 -9.09142Z" fill="#589CFF"/>
<path d="M293.983 274.198C299.922 272.867 302.021 282.109 296.056 283.44C290.117 284.797 288.018 275.555 293.983 274.198Z" fill="#589CFF"/>
<path d="M294.674 277.296C293.522 277.552 293.47 278.448 293.65 279.139C293.803 279.856 294.238 280.624 295.39 280.368C296.005 280.24 296.21 279.958 296.312 279.779C296.491 279.446 296.517 278.985 296.414 278.525C296.235 277.808 295.826 277.04 294.674 277.296Z" fill="#EEF5FF"/>
<path d="M150.93 489.622C156.869 488.291 158.968 497.533 153.003 498.864C147.064 500.221 144.99 490.979 150.93 489.622Z" fill="#589CFF"/>
<path d="M151.621 492.72C151.006 492.848 150.802 493.129 150.699 493.309C150.52 493.641 150.494 494.102 150.597 494.563C150.75 495.28 151.186 496.048 152.338 495.792C152.952 495.664 153.157 495.382 153.259 495.203C153.438 494.87 153.464 494.409 153.362 493.949C153.208 493.232 152.773 492.464 151.621 492.72Z" fill="#EEF5FF"/>
<path d="M225.901 -8.72219C223.51 -2.42838 216.443 0.746949 210.149 -1.64443C203.855 -4.03581 200.68 -11.1028 203.071 -17.3966C205.463 -23.6904 212.53 -26.8658 218.824 -24.4744C225.118 -22.083 228.302 -15.0399 225.901 -8.72219Z" fill="url(#paint2_radial)"/>
<g opacity="0.8989">
<g opacity="0.8989">
<path opacity="0.8989" d="M327.152 93.3932C325.161 98.634 319.283 101.275 314.042 99.2839C308.801 97.2926 306.16 91.4144 308.151 86.1736C310.142 80.9328 316.02 78.2916 321.261 80.2829C326.502 82.2742 329.143 88.1524 327.152 93.3932Z" fill="url(#paint3_radial)"/>
</g>
</g>
<g opacity="0.6013">
<g opacity="0.6013">
<path opacity="0.6013" d="M1078.25 45.8506C1076.17 51.3068 1070.07 54.0279 1064.64 51.9638C1059.19 49.8907 1056.46 43.7905 1058.53 38.3582C1060.6 32.9019 1066.7 30.1808 1072.13 32.2449C1077.57 34.3089 1080.31 40.4183 1078.25 45.8506Z" fill="url(#paint4_radial)"/>
</g>
</g>
<g opacity="0.4495">
<g opacity="0.4495">
<path opacity="0.4495" d="M1435.7 15.2461C1433.75 20.3912 1427.97 22.9878 1422.82 21.0329C1417.68 19.078 1415.08 13.2988 1417.04 8.1537C1418.99 3.00858 1424.77 0.411903 1429.92 2.36684C1435.06 4.32178 1437.66 10.1009 1435.7 15.2461Z" fill="url(#paint5_radial)"/>
</g>
</g>
<g opacity="0.9263">
<g opacity="0.9263">
<path opacity="0.9263" d="M1769.16 84.2714C1766.56 91.1156 1758.9 94.558 1752.05 91.9575C1745.21 89.357 1741.77 81.6956 1744.37 74.8514C1746.97 68.0071 1754.63 64.5647 1761.47 67.1652C1768.32 69.7657 1771.76 77.4272 1769.16 84.2714Z" fill="url(#paint6_radial)"/>
</g>
</g>
<g opacity="0.4014">
<g opacity="0.4014">
<path opacity="0.4014" d="M1398.36 -2.58523C1396.42 2.51203 1390.71 5.07905 1385.61 3.14232C1380.51 1.20558 1377.95 -4.50749 1379.88 -9.60475C1381.82 -14.702 1387.53 -17.269 1392.63 -15.3323C1397.73 -13.3955 1400.3 -7.6825 1398.36 -2.58523Z" fill="url(#paint7_radial)"/>
</g>
</g>
<g opacity="0.5134">
<g opacity="0.5134">
<path opacity="0.5134" d="M930.486 36.2358C936.09 38.3651 942.358 35.5483 944.488 29.9445C946.617 24.3406 943.8 18.0717 938.196 15.9425C932.593 13.8133 926.324 16.63 924.194 22.2339C922.065 27.8377 924.882 34.1066 930.486 36.2358Z" fill="url(#paint8_radial)"/>
</g>
</g>
<g opacity="0.5911">
<g opacity="0.5911">
<path opacity="0.5911" d="M681.282 -9.97861C679.09 -4.21129 672.618 -1.30303 666.85 -3.49437C661.083 -5.68571 658.175 -12.1583 660.366 -17.9256C662.558 -23.693 669.03 -26.6012 674.798 -24.4099C680.565 -22.2186 683.473 -15.7459 681.282 -9.97861Z" fill="url(#paint9_radial)"/>
</g>
</g>
<g opacity="0.7696">
<g opacity="0.7696">
<path opacity="0.7696" d="M452.485 97.1701C457.111 98.9277 462.286 96.6025 464.043 91.9767C465.801 87.3509 463.476 82.1761 458.85 80.4185C454.224 78.6609 449.049 80.986 447.292 85.6119C445.534 90.2377 447.859 95.4124 452.485 97.1701Z" fill="url(#paint10_radial)"/>
</g>
</g>
<g opacity="0.5957">
<g opacity="0.5957">
<path opacity="0.5957" d="M267.321 264.194C265.021 270.249 258.251 273.291 252.196 270.99C246.142 268.69 243.1 261.92 245.401 255.865C247.701 249.811 254.471 246.769 260.525 249.07C266.571 251.394 269.622 258.14 267.321 264.194Z" fill="url(#paint11_radial)"/>
</g>
</g>
<g opacity="0.3701">
<g opacity="0.3701">
<path opacity="0.3701" d="M136.896 371.339C134.013 378.925 125.526 382.738 117.94 379.856C110.354 376.973 106.541 368.486 109.423 360.9C112.305 353.314 120.792 349.501 128.378 352.383C135.964 355.266 139.778 363.753 136.896 371.339Z" fill="url(#paint12_radial)"/>
</g>
</g>
<g opacity="0.527">
<g opacity="0.527">
<path opacity="0.527" d="M648.034 152.629C646.524 156.601 642.066 158.604 638.094 157.095C634.121 155.586 632.118 151.127 633.627 147.155C635.137 143.182 639.595 141.179 643.567 142.689C647.54 144.198 649.543 148.656 648.034 152.629Z" fill="url(#paint13_radial)"/>
</g>
</g>
<g opacity="0.4206">
<g opacity="0.4206">
<path opacity="0.4206" d="M748.045 36.8046C746.063 42.0215 740.251 44.6331 735.034 42.6508C729.817 40.6686 727.206 34.8565 729.188 29.6396C731.17 24.4226 736.982 21.8111 742.199 23.7933C747.392 25.7665 750.028 31.5877 748.045 36.8046Z" fill="url(#paint14_radial)"/>
</g>
</g>
<g opacity="0.4888">
<g opacity="0.4888">
<path opacity="0.4888" d="M962.496 77.3995C960.405 82.9036 954.262 85.6634 948.758 83.5721C943.254 81.4808 940.494 75.3384 942.586 69.8344C944.677 64.3303 950.819 61.5704 956.323 63.6617C961.828 65.753 964.587 71.8954 962.496 77.3995Z" fill="url(#paint15_radial)"/>
</g>
</g>
<g opacity="0.8601">
<g opacity="0.8601">
<path opacity="0.8601" d="M1669.88 61.2274C1667.5 67.4972 1660.49 70.6429 1654.22 68.2606C1647.95 65.8783 1644.81 58.8773 1647.19 52.6075C1649.57 46.3376 1656.57 43.1919 1662.84 45.5742C1669.11 47.9565 1672.26 54.9575 1669.88 61.2274Z" fill="url(#paint16_radial)"/>
</g>
</g>
<g opacity="0.4929">
<g opacity="0.4929">
<path opacity="0.4929" d="M660.467 130.214C658.912 134.306 654.321 136.368 650.229 134.813C646.137 133.259 644.075 128.668 645.63 124.576C647.184 120.484 651.775 118.421 655.867 119.976C659.974 121.564 662.012 126.145 660.467 130.214Z" fill="url(#paint17_radial)"/>
</g>
</g>
<g opacity="0.6153">
<g opacity="0.6153">
<path opacity="0.6153" d="M546.955 201.994C545.528 205.752 541.334 207.636 537.577 206.208C533.82 204.781 531.935 200.587 533.363 196.83C534.79 193.073 538.984 191.188 542.741 192.616C546.499 194.043 548.383 198.237 546.955 201.994Z" fill="url(#paint18_radial)"/>
</g>
</g>
<g opacity="0.3712">
<g opacity="0.3712">
<path opacity="0.3712" d="M208.279 381.098C205.433 388.589 197.078 392.343 189.587 389.497C182.097 386.651 178.343 378.296 181.189 370.805C184.035 363.315 192.39 359.561 199.88 362.407C207.37 365.253 211.125 373.608 208.279 381.098Z" fill="url(#paint19_radial)"/>
</g>
</g>
<g opacity="0.3979">
<g opacity="0.3979">
<path opacity="0.3979" d="M261.587 361.452C258.977 368.321 251.283 371.778 244.415 369.168C237.546 366.559 234.089 358.864 236.699 351.996C239.308 345.128 247.003 341.671 253.871 344.28C260.739 346.89 264.196 354.584 261.587 361.452Z" fill="url(#paint20_radial)"/>
</g>
</g>
<g opacity="0.6374">
<g opacity="0.6374">
<path opacity="0.6374" d="M591.409 219.131C589.927 223.032 585.558 225.014 581.634 223.523C577.709 222.032 575.751 217.673 577.242 213.748C578.733 209.823 583.092 207.865 587.017 209.356C590.941 210.847 592.9 215.206 591.409 219.131Z" fill="url(#paint21_radial)"/>
</g>
</g>
<g opacity="0.4969">
<g opacity="0.4969">
<path opacity="0.4969" d="M751.299 166.123C749.517 170.813 744.266 173.172 739.575 171.39C734.885 169.608 732.526 164.357 734.308 159.667C736.09 154.977 741.341 152.617 746.031 154.399C750.722 156.182 753.081 161.432 751.299 166.123Z" fill="url(#paint22_radial)"/>
</g>
</g>
<g opacity="0.5451">
<g opacity="0.5451">
<path opacity="0.5451" d="M1018.95 80.6112C1016.86 86.1152 1010.72 88.8751 1005.21 86.7838C999.708 84.6925 996.948 78.5501 999.04 73.046C1001.13 67.542 1007.27 64.7821 1012.78 66.8734C1018.28 68.9647 1021.04 75.1071 1018.95 80.6112Z" fill="url(#paint23_radial)"/>
</g>
</g>
<g opacity="0.566">
<g opacity="0.566">
<path opacity="0.566" d="M1521.42 551.272C1519.45 556.441 1513.68 559.038 1508.51 557.074C1503.34 555.11 1500.74 549.331 1502.7 544.162C1504.67 538.993 1510.45 536.396 1515.62 538.36C1520.79 540.324 1523.38 546.103 1521.42 551.272Z" fill="url(#paint24_radial)"/>
</g>
</g>
<g opacity="0.6566">
<g opacity="0.6566">
<path opacity="0.6566" d="M1800.56 419.437C1806.3 421.616 1812.72 418.733 1814.9 412.997C1817.08 407.261 1814.19 400.844 1808.46 398.665C1802.72 396.485 1796.3 399.368 1794.12 405.104C1791.94 410.84 1794.83 417.257 1800.56 419.437Z" fill="url(#paint25_radial)"/>
</g>
</g>
<g opacity="0.7467">
<g opacity="0.7467">
<path opacity="0.7467" d="M1892.23 354.255C1897.45 356.239 1903.29 353.615 1905.28 348.394C1907.26 343.174 1904.64 337.333 1899.42 335.35C1894.2 333.366 1888.36 335.99 1886.37 341.211C1884.39 346.432 1887.01 352.272 1892.23 354.255Z" fill="url(#paint26_radial)"/>
</g>
</g>
<g opacity="0.5001">
<g opacity="0.5001">
<path opacity="0.5001" d="M1564 575.559C1562.02 580.776 1556.21 583.387 1550.99 581.405C1545.78 579.423 1543.16 573.611 1545.15 568.394C1547.13 563.177 1552.94 560.565 1558.16 562.547C1563.37 564.53 1565.99 570.342 1564 575.559Z" fill="url(#paint27_radial)"/>
</g>
</g>
<g opacity="0.6719">
<g opacity="0.6719">
<path opacity="0.6719" d="M1684.17 469.335C1681.94 475.198 1675.4 478.136 1669.54 475.909C1663.67 473.681 1660.74 467.142 1662.96 461.279C1665.19 455.416 1671.73 452.478 1677.59 454.706C1683.46 456.934 1686.39 463.472 1684.17 469.335Z" fill="url(#paint28_radial)"/>
</g>
</g>
<g opacity="0.5252">
<g opacity="0.5252">
<path opacity="0.5252" d="M1596.73 558.116C1594.72 563.405 1588.8 566.085 1583.49 564.066C1578.2 562.057 1575.52 556.137 1577.54 550.824C1579.56 545.511 1585.47 542.855 1590.78 544.874C1596.09 546.892 1598.75 552.804 1596.73 558.116Z" fill="url(#paint29_radial)"/>
</g>
</g>
<g opacity="0.832">
<g opacity="0.832">
<path opacity="0.832" d="M1190.17 570.719C1187.62 577.42 1180.12 580.812 1173.39 578.257C1166.69 575.711 1163.3 568.205 1165.85 561.481C1168.4 554.78 1175.9 551.388 1182.63 553.943C1189.34 556.522 1192.71 564.018 1190.17 570.719Z" fill="url(#paint30_radial)"/>
</g>
</g>
<g opacity="0.8194">
<g opacity="0.8194">
<path opacity="0.8194" d="M1673.32 411.181C1671.08 417.068 1664.48 420.035 1658.59 417.799C1652.7 415.562 1649.73 408.957 1651.97 403.07C1654.21 397.183 1660.81 394.215 1666.7 396.452C1672.59 398.689 1675.56 405.27 1673.32 411.181Z" fill="url(#paint31_radial)"/>
</g>
</g>
<g opacity="0.9769">
<g opacity="0.9769">
<path opacity="0.9769" d="M1736.93 306.479C1734.78 312.127 1728.48 314.961 1722.83 312.815C1717.18 310.669 1714.35 304.361 1716.49 298.714C1718.64 293.066 1724.95 290.232 1730.59 292.378C1736.22 294.515 1739.07 300.831 1736.93 306.479Z" fill="url(#paint32_radial)"/>
</g>
</g>
<g opacity="0.8299">
<g opacity="0.8299">
<path opacity="0.8299" d="M1938.37 306.715C1936.49 311.645 1930.98 314.123 1926.05 312.25C1921.12 310.377 1918.64 304.862 1920.51 299.932C1922.39 295.002 1927.9 292.524 1932.83 294.398C1937.76 296.271 1940.24 301.786 1938.37 306.715Z" fill="url(#paint33_radial)"/>
</g>
</g>
<g opacity="0.5">
<g opacity="0.4936">
<g opacity="0.4936">
<path opacity="0.4936" d="M1569.63 636.001C1592.9 644.844 1618.94 633.145 1627.78 609.871C1636.63 586.596 1624.93 560.56 1601.65 551.716C1578.38 542.873 1552.34 554.572 1543.5 577.846C1534.66 601.121 1546.36 627.157 1569.63 636.001Z" fill="url(#paint34_radial)"/>
</g>
</g>
<g opacity="0.5833">
<g opacity="0.5833">
<path opacity="0.5833" d="M1735.08 638.918C1760.84 648.705 1789.66 635.758 1799.44 609.998C1809.23 584.239 1796.28 555.423 1770.52 545.636C1744.76 535.848 1715.95 548.796 1706.16 574.555C1696.37 600.314 1709.32 629.13 1735.08 638.918Z" fill="url(#paint35_radial)"/>
</g>
</g>
<g opacity="0.3249">
<g opacity="0.3249">
<path opacity="0.3249" d="M1426.34 575.34C1447.79 583.49 1471.78 572.708 1479.93 551.257C1488.09 529.807 1477.3 505.811 1455.85 497.66C1434.4 489.51 1410.41 500.292 1402.26 521.742C1394.1 543.193 1404.89 567.189 1426.34 575.34Z" fill="url(#paint36_radial)"/>
</g>
</g>
<g opacity="0.6515">
<g opacity="0.6515">
<path opacity="0.6515" d="M1133.87 582.795C1154.55 590.649 1177.67 580.259 1185.52 559.589C1193.38 538.918 1182.99 515.794 1162.32 507.94C1141.65 500.086 1118.52 510.476 1110.67 531.147C1102.81 551.817 1113.2 574.941 1133.87 582.795Z" fill="url(#paint37_radial)"/>
</g>
</g>
<g opacity="0.7722">
<g opacity="0.7722">
<path opacity="0.7722" d="M899.695 551.6C920.987 559.69 944.805 548.988 952.895 527.696C960.986 506.404 950.283 482.585 928.991 474.495C907.699 466.405 883.88 477.107 875.79 498.399C867.7 519.691 878.403 543.51 899.695 551.6Z" fill="url(#paint38_radial)"/>
</g>
</g>
<g opacity="0.5299">
<g opacity="0.5299">
<path opacity="0.5299" d="M744.244 786.52C799.225 807.411 860.731 779.775 881.621 724.794C902.512 669.813 874.876 608.307 819.895 587.416C764.914 566.526 703.408 594.162 682.517 649.143C661.627 704.124 689.263 765.63 744.244 786.52Z" fill="url(#paint39_radial)"/>
</g>
</g>
<g opacity="0.6239">
<g opacity="0.6239">
<path opacity="0.6239" d="M612.72 855.976C697.505 888.19 792.351 845.574 824.566 760.79C856.78 676.005 814.164 581.158 729.379 548.944C644.595 516.729 549.748 559.346 517.534 644.13C485.319 728.915 527.935 823.761 612.72 855.976Z" fill="url(#paint40_radial)"/>
</g>
</g>
<g opacity="0.6576">
<g opacity="0.6576">
<path opacity="0.6576" d="M1742.63 605.776C1767.19 615.106 1794.66 602.763 1803.99 578.207C1813.32 553.65 1800.98 526.18 1776.42 516.849C1751.87 507.519 1724.4 519.862 1715.06 544.418C1705.73 568.975 1718.08 596.445 1742.63 605.776Z" fill="url(#paint41_radial)"/>
</g>
</g>
<g opacity="0.9476">
<g opacity="0.9476">
<path opacity="0.9476" d="M1885.58 466.772C1910.58 476.274 1938.56 463.705 1948.06 438.699C1957.56 413.693 1944.99 385.719 1919.98 376.218C1894.98 366.717 1867 379.286 1857.5 404.292C1848 429.298 1860.57 457.271 1885.58 466.772Z" fill="url(#paint42_radial)"/>
</g>
</g>
<g opacity="0.5306">
<g opacity="0.5306">
<path opacity="0.5306" d="M295.018 530.774C321.082 540.677 350.238 527.576 360.141 501.513C370.044 475.45 356.943 446.294 330.88 436.391C304.817 426.488 275.661 439.588 265.758 465.652C255.855 491.715 268.955 520.871 295.018 530.774Z" fill="url(#paint43_radial)"/>
</g>
</g>
</g>
<g opacity="0.2164">
<g opacity="0.2164">
<path opacity="0.2164" d="M194.216 196.067C227.696 196.067 254.837 168.926 254.837 135.446C254.837 101.966 227.696 74.8253 194.216 74.8253C160.736 74.8253 133.595 101.966 133.595 135.446C133.595 168.926 160.736 196.067 194.216 196.067Z" fill="url(#paint44_radial)"/>
</g>
</g>
<g opacity="0.1183">
<g opacity="0.1183">
<path opacity="0.1183" d="M-61.2717 287.203C-20.5387 287.203 12.4819 254.183 12.4819 213.45C12.4819 172.717 -20.5387 139.696 -61.2717 139.696C-102.005 139.696 -135.025 172.717 -135.025 213.45C-135.025 254.183 -102.005 287.203 -61.2717 287.203Z" fill="url(#paint45_radial)"/>
</g>
</g>
<g opacity="0.1894">
<g opacity="0.1894">
<path opacity="0.1894" d="M-95.3709 597.091C-38.1242 597.091 8.28345 550.684 8.28345 493.437C8.28345 436.19 -38.1242 389.782 -95.3709 389.782C-152.618 389.782 -199.025 436.19 -199.025 493.437C-199.025 550.684 -152.618 597.091 -95.3709 597.091Z" fill="url(#paint46_radial)"/>
</g>
</g>
<g opacity="0.2152">
<g opacity="0.2152">
<path opacity="0.2152" d="M12.0979 546.275C61.7947 546.275 102.082 505.988 102.082 456.291C102.082 406.595 61.7947 366.307 12.0979 366.307C-37.5989 366.307 -77.8861 406.595 -77.8861 456.291C-77.8861 505.988 -37.5989 546.275 12.0979 546.275Z" fill="url(#paint47_radial)"/>
</g>
</g>
<g opacity="0.2729">
<g opacity="0.2729">
<path opacity="0.2729" d="M89.0258 466.659C144.689 466.659 189.813 421.535 189.813 365.872C189.813 310.209 144.689 265.085 89.0258 265.085C33.3626 265.085 -11.7614 310.209 -11.7614 365.872C-11.7614 421.535 33.3626 466.659 89.0258 466.659Z" fill="url(#paint48_radial)"/>
</g>
</g>
<g opacity="0.166">
<g opacity="0.166">
<path opacity="0.166" d="M794.741 40.3421C853.543 40.3421 901.211 -7.32628 901.211 -66.1282C901.211 -124.93 853.543 -172.599 794.741 -172.599C735.939 -172.599 688.271 -124.93 688.271 -66.1282C688.271 -7.32628 735.939 40.3421 794.741 40.3421Z" fill="url(#paint49_radial)"/>
</g>
</g>
</g>
<defs>
<radialGradient id="paint0_radial" cx="0" cy="0" r="1" gradientUnits="userSpaceOnUse" gradientTransform="translate(-246.99 -234.993) scale(901.029)">
<stop stop-color="#003C9B"/>
<stop offset="0.1244" stop-color="#00296B"/>
<stop offset="0.297" stop-color="#042965"/>
<stop offset="0.4645" stop-color="#011E4D"/>
<stop offset="0.6225" stop-color="#001330"/>
<stop offset="0.7688" stop-color="#000816"/>
<stop offset="0.899" stop-color="#000206"/>
<stop offset="1"/>
</radialGradient>
<radialGradient id="paint1_radial" cx="0" cy="0" r="1" gradientUnits="userSpaceOnUse" gradientTransform="translate(2006 989.007) scale(1002.01)">
<stop stop-color="#7B00DC"/>
<stop offset="0.0858" stop-color="#5B00A3"/>
<stop offset="0.2661" stop-color="#46007C"/>
<stop offset="0.4409" stop-color="#2F0054"/>
<stop offset="0.6059" stop-color="#22003D"/>
<stop offset="0.7586" stop-color="#0F001C"/>
<stop offset="0.8945" stop-color="#07000D"/>
<stop offset="1"/>
</radialGradient>
<radialGradient id="paint2_radial" cx="0" cy="0" r="1" gradientUnits="userSpaceOnUse" gradientTransform="translate(214.48 -13.0724) rotate(20.8047) scale(12.2112)">
<stop stop-color="white"/>
<stop offset="0.1349" stop-color="#CBCBCB"/>
<stop offset="0.3109" stop-color="#8E8E8E"/>
<stop offset="0.4803" stop-color="#5B5B5B"/>
<stop offset="0.6383" stop-color="#343434"/>
<stop offset="0.7822" stop-color="#171717"/>
<stop offset="0.9074" stop-color="#060606"/>
<stop offset="1"/>
</radialGradient>
<radialGradient id="paint3_radial" cx="0" cy="0" r="1" gradientUnits="userSpaceOnUse" gradientTransform="translate(317.634 89.7832) rotate(20.8047) scale(10.1714)">
<stop stop-color="white"/>
<stop offset="0.1349" stop-color="#CBCBCB"/>
<stop offset="0.3109" stop-color="#8E8E8E"/>
<stop offset="0.4803" stop-color="#5B5B5B"/>
<stop offset="0.6383" stop-color="#343434"/>
<stop offset="0.7822" stop-color="#171717"/>
<stop offset="0.9074" stop-color="#060606"/>
<stop offset="1"/>
</radialGradient>
<radialGradient id="paint4_radial" cx="0" cy="0" r="1" gradientUnits="userSpaceOnUse" gradientTransform="translate(1068.37 42.1105) rotate(20.8047) scale(10.5598)">
<stop stop-color="white"/>
<stop offset="0.1349" stop-color="#CBCBCB"/>
<stop offset="0.3109" stop-color="#8E8E8E"/>
<stop offset="0.4803" stop-color="#5B5B5B"/>
<stop offset="0.6383" stop-color="#343434"/>
<stop offset="0.7822" stop-color="#171717"/>
<stop offset="0.9074" stop-color="#060606"/>
<stop offset="1"/>
</radialGradient>
<radialGradient id="paint5_radial" cx="0" cy="0" r="1" gradientUnits="userSpaceOnUse" gradientTransform="translate(1426.38 11.7043) rotate(20.8047) scale(9.9874)">
<stop stop-color="white"/>
<stop offset="0.1349" stop-color="#CBCBCB"/>
<stop offset="0.3109" stop-color="#8E8E8E"/>
<stop offset="0.4803" stop-color="#5B5B5B"/>
<stop offset="0.6383" stop-color="#343434"/>
<stop offset="0.7822" stop-color="#171717"/>
<stop offset="0.9074" stop-color="#060606"/>
<stop offset="1"/>
</radialGradient>
<radialGradient id="paint6_radial" cx="0" cy="0" r="1" gradientUnits="userSpaceOnUse" gradientTransform="translate(1756.75 79.5555) rotate(20.8047) scale(13.2598)">
<stop stop-color="white"/>
<stop offset="0.1349" stop-color="#CBCBCB"/>
<stop offset="0.3109" stop-color="#8E8E8E"/>
<stop offset="0.4803" stop-color="#5B5B5B"/>
<stop offset="0.6383" stop-color="#343434"/>
<stop offset="0.7822" stop-color="#171717"/>
<stop offset="0.9074" stop-color="#060606"/>
<stop offset="1"/>
</radialGradient>
<radialGradient id="paint7_radial" cx="0" cy="0" r="1" gradientUnits="userSpaceOnUse" gradientTransform="translate(1389.14 -6.10283) rotate(20.8047) scale(9.87052)">
<stop stop-color="white"/>
<stop offset="0.1349" stop-color="#CBCBCB"/>
<stop offset="0.3109" stop-color="#8E8E8E"/>
<stop offset="0.4803" stop-color="#5B5B5B"/>
<stop offset="0.6383" stop-color="#343434"/>
<stop offset="0.7822" stop-color="#171717"/>
<stop offset="0.9074" stop-color="#060606"/>
<stop offset="1"/>
</radialGradient>
<radialGradient id="paint8_radial" cx="0" cy="0" r="1" gradientUnits="userSpaceOnUse" gradientTransform="translate(934.355 26.0831) rotate(20.8047) scale(10.857)">
<stop stop-color="white"/>
<stop offset="0.1349" stop-color="#CBCBCB"/>
<stop offset="0.3109" stop-color="#8E8E8E"/>
<stop offset="0.4803" stop-color="#5B5B5B"/>
<stop offset="0.6383" stop-color="#343434"/>
<stop offset="0.7822" stop-color="#171717"/>
<stop offset="0.9074" stop-color="#060606"/>
<stop offset="1"/>
</radialGradient>
<radialGradient id="paint9_radial" cx="0" cy="0" r="1" gradientUnits="userSpaceOnUse" gradientTransform="translate(670.822 -13.9519) rotate(20.8047) scale(11.1877)">
<stop stop-color="white"/>
<stop offset="0.1349" stop-color="#CBCBCB"/>
<stop offset="0.3109" stop-color="#8E8E8E"/>
<stop offset="0.4803" stop-color="#5B5B5B"/>
<stop offset="0.6383" stop-color="#343434"/>
<stop offset="0.7822" stop-color="#171717"/>
<stop offset="0.9074" stop-color="#060606"/>
<stop offset="1"/>
</radialGradient>
<radialGradient id="paint10_radial" cx="0" cy="0" r="1" gradientUnits="userSpaceOnUse" gradientTransform="translate(455.679 88.7853) rotate(20.8047) scale(8.96742)">
<stop stop-color="white"/>
<stop offset="0.1349" stop-color="#CBCBCB"/>
<stop offset="0.3109" stop-color="#8E8E8E"/>
<stop offset="0.4803" stop-color="#5B5B5B"/>
<stop offset="0.6383" stop-color="#343434"/>
<stop offset="0.7822" stop-color="#171717"/>
<stop offset="0.9074" stop-color="#060606"/>
<stop offset="1"/>
</radialGradient>
<radialGradient id="paint11_radial" cx="0" cy="0" r="1" gradientUnits="userSpaceOnUse" gradientTransform="translate(256.373 260.04) rotate(20.8047) scale(11.7156)">
<stop stop-color="white"/>
<stop offset="0.1349" stop-color="#CBCBCB"/>
<stop offset="0.3109" stop-color="#8E8E8E"/>
<stop offset="0.4803" stop-color="#5B5B5B"/>
<stop offset="0.6383" stop-color="#343434"/>
<stop offset="0.7822" stop-color="#171717"/>
<stop offset="0.9074" stop-color="#060606"/>
<stop offset="1"/>
</radialGradient>
<radialGradient id="paint12_radial" cx="0" cy="0" r="1" gradientUnits="userSpaceOnUse" gradientTransform="translate(123.15 366.111) rotate(20.8047) scale(14.6941)">
<stop stop-color="white"/>
<stop offset="0.1349" stop-color="#CBCBCB"/>
<stop offset="0.3109" stop-color="#8E8E8E"/>
<stop offset="0.4803" stop-color="#5B5B5B"/>
<stop offset="0.6383" stop-color="#343434"/>
<stop offset="0.7822" stop-color="#171717"/>
<stop offset="0.9074" stop-color="#060606"/>
<stop offset="1"/>
</radialGradient>
<radialGradient id="paint13_radial" cx="0" cy="0" r="1" gradientUnits="userSpaceOnUse" gradientTransform="translate(640.809 149.886) rotate(20.8047) scale(7.71561)">
<stop stop-color="white"/>
<stop offset="0.1349" stop-color="#CBCBCB"/>
<stop offset="0.3109" stop-color="#8E8E8E"/>
<stop offset="0.4803" stop-color="#5B5B5B"/>
<stop offset="0.6383" stop-color="#343434"/>
<stop offset="0.7822" stop-color="#171717"/>
<stop offset="0.9074" stop-color="#060606"/>
<stop offset="1"/>
</radialGradient>
<radialGradient id="paint14_radial" cx="0" cy="0" r="1" gradientUnits="userSpaceOnUse" gradientTransform="translate(738.603 33.2202) rotate(20.8047) scale(10.0874)">
<stop stop-color="white"/>
<stop offset="0.1349" stop-color="#CBCBCB"/>
<stop offset="0.3109" stop-color="#8E8E8E"/>
<stop offset="0.4803" stop-color="#5B5B5B"/>
<stop offset="0.6383" stop-color="#343434"/>
<stop offset="0.7822" stop-color="#171717"/>
<stop offset="0.9074" stop-color="#060606"/>
<stop offset="1"/>
</radialGradient>
<radialGradient id="paint15_radial" cx="0" cy="0" r="1" gradientUnits="userSpaceOnUse" gradientTransform="translate(952.544 73.6103) rotate(20.8047) scale(10.6394)">
<stop stop-color="white"/>
<stop offset="0.1349" stop-color="#CBCBCB"/>
<stop offset="0.3109" stop-color="#8E8E8E"/>
<stop offset="0.4803" stop-color="#5B5B5B"/>
<stop offset="0.6383" stop-color="#343434"/>
<stop offset="0.7822" stop-color="#171717"/>
<stop offset="0.9074" stop-color="#060606"/>
<stop offset="1"/>
</radialGradient>
<radialGradient id="paint16_radial" cx="0" cy="0" r="1" gradientUnits="userSpaceOnUse" gradientTransform="translate(1658.55 56.9208) rotate(20.8047) scale(12.1226)">
<stop stop-color="white"/>
<stop offset="0.1349" stop-color="#CBCBCB"/>
<stop offset="0.3109" stop-color="#8E8E8E"/>
<stop offset="0.4803" stop-color="#5B5B5B"/>
<stop offset="0.6383" stop-color="#343434"/>
<stop offset="0.7822" stop-color="#171717"/>
<stop offset="0.9074" stop-color="#060606"/>
<stop offset="1"/>
</radialGradient>
<radialGradient id="paint17_radial" cx="0" cy="0" r="1" gradientUnits="userSpaceOnUse" gradientTransform="translate(653.062 127.413) rotate(20.8047) scale(7.9242)">
<stop stop-color="white"/>
<stop offset="0.1349" stop-color="#CBCBCB"/>
<stop offset="0.3109" stop-color="#8E8E8E"/>
<stop offset="0.4803" stop-color="#5B5B5B"/>
<stop offset="0.6383" stop-color="#343434"/>
<stop offset="0.7822" stop-color="#171717"/>
<stop offset="0.9074" stop-color="#060606"/>
<stop offset="1"/>
</radialGradient>
<radialGradient id="paint18_radial" cx="0" cy="0" r="1" gradientUnits="userSpaceOnUse" gradientTransform="translate(540.167 199.409) rotate(20.8047) scale(7.26147)">
<stop stop-color="white"/>
<stop offset="0.1349" stop-color="#CBCBCB"/>
<stop offset="0.3109" stop-color="#8E8E8E"/>
<stop offset="0.4803" stop-color="#5B5B5B"/>
<stop offset="0.6383" stop-color="#343434"/>
<stop offset="0.7822" stop-color="#171717"/>
<stop offset="0.9074" stop-color="#060606"/>
<stop offset="1"/>
</radialGradient>
<radialGradient id="paint19_radial" cx="0" cy="0" r="1" gradientUnits="userSpaceOnUse" gradientTransform="translate(194.748 375.944) rotate(20.8047) scale(14.487)">
<stop stop-color="white"/>
<stop offset="0.1349" stop-color="#CBCBCB"/>
<stop offset="0.3109" stop-color="#8E8E8E"/>
<stop offset="0.4803" stop-color="#5B5B5B"/>
<stop offset="0.6383" stop-color="#343434"/>
<stop offset="0.7822" stop-color="#171717"/>
<stop offset="0.9074" stop-color="#060606"/>
<stop offset="1"/>
</radialGradient>
<radialGradient id="paint20_radial" cx="0" cy="0" r="1" gradientUnits="userSpaceOnUse" gradientTransform="translate(249.155 356.722) rotate(20.8047) scale(13.3064)">
<stop stop-color="white"/>
<stop offset="0.1349" stop-color="#CBCBCB"/>
<stop offset="0.3109" stop-color="#8E8E8E"/>
<stop offset="0.4803" stop-color="#5B5B5B"/>
<stop offset="0.6383" stop-color="#343434"/>
<stop offset="0.7822" stop-color="#171717"/>
<stop offset="0.9074" stop-color="#060606"/>
<stop offset="1"/>
</radialGradient>
<radialGradient id="paint21_radial" cx="0" cy="0" r="1" gradientUnits="userSpaceOnUse" gradientTransform="translate(584.343 216.434) rotate(20.8047) scale(7.56889)">
<stop stop-color="white"/>
<stop offset="0.1349" stop-color="#CBCBCB"/>
<stop offset="0.3109" stop-color="#8E8E8E"/>
<stop offset="0.4803" stop-color="#5B5B5B"/>
<stop offset="0.6383" stop-color="#343434"/>
<stop offset="0.7822" stop-color="#171717"/>
<stop offset="0.9074" stop-color="#060606"/>
<stop offset="1"/>
</radialGradient>
<radialGradient id="paint22_radial" cx="0" cy="0" r="1" gradientUnits="userSpaceOnUse" gradientTransform="translate(742.799 162.896) rotate(20.8047) scale(9.09771)">
<stop stop-color="white"/>
<stop offset="0.1349" stop-color="#CBCBCB"/>
<stop offset="0.3109" stop-color="#8E8E8E"/>
<stop offset="0.4803" stop-color="#5B5B5B"/>
<stop offset="0.6383" stop-color="#343434"/>
<stop offset="0.7822" stop-color="#171717"/>
<stop offset="0.9074" stop-color="#060606"/>
<stop offset="1"/>
</radialGradient>
<radialGradient id="paint23_radial" cx="0" cy="0" r="1" gradientUnits="userSpaceOnUse" gradientTransform="translate(1008.99 76.8275) rotate(20.8047) scale(10.6547)">
<stop stop-color="white"/>
<stop offset="0.1349" stop-color="#CBCBCB"/>
<stop offset="0.3109" stop-color="#8E8E8E"/>
<stop offset="0.4803" stop-color="#5B5B5B"/>
<stop offset="0.6383" stop-color="#343434"/>
<stop offset="0.7822" stop-color="#171717"/>
<stop offset="0.9074" stop-color="#060606"/>
<stop offset="1"/>
</radialGradient>
<radialGradient id="paint24_radial" cx="0" cy="0" r="1" gradientUnits="userSpaceOnUse" gradientTransform="translate(1512.05 547.708) rotate(20.8047) scale(10.0155)">
<stop stop-color="white"/>
<stop offset="0.1349" stop-color="#CBCBCB"/>
<stop offset="0.3109" stop-color="#8E8E8E"/>
<stop offset="0.4803" stop-color="#5B5B5B"/>
<stop offset="0.6383" stop-color="#343434"/>
<stop offset="0.7822" stop-color="#171717"/>
<stop offset="0.9074" stop-color="#060606"/>
<stop offset="1"/>
</radialGradient>
<radialGradient id="paint25_radial" cx="0" cy="0" r="1" gradientUnits="userSpaceOnUse" gradientTransform="translate(1804.52 409.044) rotate(20.8047) scale(11.1004)">
<stop stop-color="white"/>
<stop offset="0.1349" stop-color="#CBCBCB"/>
<stop offset="0.3109" stop-color="#8E8E8E"/>
<stop offset="0.4803" stop-color="#5B5B5B"/>
<stop offset="0.6383" stop-color="#343434"/>
<stop offset="0.7822" stop-color="#171717"/>
<stop offset="0.9074" stop-color="#060606"/>
<stop offset="1"/>
</radialGradient>
<radialGradient id="paint26_radial" cx="0" cy="0" r="1" gradientUnits="userSpaceOnUse" gradientTransform="translate(1895.84 344.801) rotate(20.8047) scale(10.1168)">
<stop stop-color="white"/>
<stop offset="0.1349" stop-color="#CBCBCB"/>
<stop offset="0.3109" stop-color="#8E8E8E"/>
<stop offset="0.4803" stop-color="#5B5B5B"/>
<stop offset="0.6383" stop-color="#343434"/>
<stop offset="0.7822" stop-color="#171717"/>
<stop offset="0.9074" stop-color="#060606"/>
<stop offset="1"/>
</radialGradient>
<radialGradient id="paint27_radial" cx="0" cy="0" r="1" gradientUnits="userSpaceOnUse" gradientTransform="translate(1554.58 571.971) rotate(20.8047) scale(10.0861)">
<stop stop-color="white"/>
<stop offset="0.1349" stop-color="#CBCBCB"/>
<stop offset="0.3109" stop-color="#8E8E8E"/>
<stop offset="0.4803" stop-color="#5B5B5B"/>
<stop offset="0.6383" stop-color="#343434"/>
<stop offset="0.7822" stop-color="#171717"/>
<stop offset="0.9074" stop-color="#060606"/>
<stop offset="1"/>
</radialGradient>
<radialGradient id="paint28_radial" cx="0" cy="0" r="1" gradientUnits="userSpaceOnUse" gradientTransform="translate(1673.58 465.312) rotate(20.8047) scale(11.3338 11.3337)">
<stop stop-color="white"/>
<stop offset="0.1349" stop-color="#CBCBCB"/>
<stop offset="0.3109" stop-color="#8E8E8E"/>
<stop offset="0.4803" stop-color="#5B5B5B"/>
<stop offset="0.6383" stop-color="#343434"/>
<stop offset="0.7822" stop-color="#171717"/>
<stop offset="0.9074" stop-color="#060606"/>
<stop offset="1"/>
</radialGradient>
<radialGradient id="paint29_radial" cx="0" cy="0" r="1" gradientUnits="userSpaceOnUse" gradientTransform="translate(1587.15 554.465) rotate(20.8047) scale(10.2546)">
<stop stop-color="white"/>
<stop offset="0.1349" stop-color="#CBCBCB"/>
<stop offset="0.3109" stop-color="#8E8E8E"/>
<stop offset="0.4803" stop-color="#5B5B5B"/>
<stop offset="0.6383" stop-color="#343434"/>
<stop offset="0.7822" stop-color="#171717"/>
<stop offset="0.9074" stop-color="#060606"/>
<stop offset="1"/>
</radialGradient>
<radialGradient id="paint30_radial" cx="0" cy="0" r="1" gradientUnits="userSpaceOnUse" gradientTransform="translate(1178.01 566.112) rotate(20.8047) scale(12.9945 12.9946)">
<stop stop-color="white"/>
<stop offset="0.1349" stop-color="#CBCBCB"/>
<stop offset="0.3109" stop-color="#8E8E8E"/>
<stop offset="0.4803" stop-color="#5B5B5B"/>
<stop offset="0.6383" stop-color="#343434"/>
<stop offset="0.7822" stop-color="#171717"/>
<stop offset="0.9074" stop-color="#060606"/>
<stop offset="1"/>
</radialGradient>
<radialGradient id="paint31_radial" cx="0" cy="0" r="1" gradientUnits="userSpaceOnUse" gradientTransform="translate(1662.64 407.112) rotate(20.8047) scale(11.4206)">
<stop stop-color="white"/>
<stop offset="0.1349" stop-color="#CBCBCB"/>
<stop offset="0.3109" stop-color="#8E8E8E"/>
<stop offset="0.4803" stop-color="#5B5B5B"/>
<stop offset="0.6383" stop-color="#343434"/>
<stop offset="0.7822" stop-color="#171717"/>
<stop offset="0.9074" stop-color="#060606"/>
<stop offset="1"/>
</radialGradient>
<radialGradient id="paint32_radial" cx="0" cy="0" r="1" gradientUnits="userSpaceOnUse" gradientTransform="translate(1726.7 302.591) rotate(20.8047) scale(10.9322)">
<stop stop-color="white"/>
<stop offset="0.1349" stop-color="#CBCBCB"/>
<stop offset="0.3109" stop-color="#8E8E8E"/>
<stop offset="0.4803" stop-color="#5B5B5B"/>
<stop offset="0.6383" stop-color="#343434"/>
<stop offset="0.7822" stop-color="#171717"/>
<stop offset="0.9074" stop-color="#060606"/>
<stop offset="1"/>
</radialGradient>
<radialGradient id="paint33_radial" cx="0" cy="0" r="1" gradientUnits="userSpaceOnUse" gradientTransform="translate(1929.46 303.319) rotate(20.8047) scale(9.53776)">
<stop stop-color="white"/>
<stop offset="0.1349" stop-color="#CBCBCB"/>
<stop offset="0.3109" stop-color="#8E8E8E"/>
<stop offset="0.4803" stop-color="#5B5B5B"/>
<stop offset="0.6383" stop-color="#343434"/>
<stop offset="0.7822" stop-color="#171717"/>
<stop offset="0.9074" stop-color="#060606"/>
<stop offset="1"/>
</radialGradient>
<radialGradient id="paint34_radial" cx="0" cy="0" r="1" gradientUnits="userSpaceOnUse" gradientTransform="translate(1585.64 593.866) rotate(20.8047) scale(45.0876 45.0878)">
<stop stop-color="#DC0046"/>
<stop offset="0.0498" stop-color="#CB0041"/>
<stop offset="0.2433" stop-color="#8E002D"/>
<stop offset="0.4292" stop-color="#5B001D"/>
<stop offset="0.6026" stop-color="#340010"/>
<stop offset="0.7607" stop-color="#170007"/>
<stop offset="0.8983" stop-color="#060002"/>
<stop offset="1"/>
</radialGradient>
<radialGradient id="paint35_radial" cx="0" cy="0" r="1" gradientUnits="userSpaceOnUse" gradientTransform="translate(1752.8 592.279) rotate(20.8047) scale(49.8864)">
<stop stop-color="#DC0046"/>
<stop offset="0.0498" stop-color="#CB0041"/>
<stop offset="0.2433" stop-color="#8E002D"/>
<stop offset="0.4292" stop-color="#5B001D"/>
<stop offset="0.6026" stop-color="#340010"/>
<stop offset="0.7607" stop-color="#170007"/>
<stop offset="0.8983" stop-color="#060002"/>
<stop offset="1"/>
</radialGradient>
<radialGradient id="paint36_radial" cx="0" cy="0" r="1" gradientUnits="userSpaceOnUse" gradientTransform="translate(1441.1 536.5) rotate(20.8047) scale(41.5555 41.5554)">
<stop stop-color="#DC0046"/>
<stop offset="0.0498" stop-color="#CB0041"/>
<stop offset="0.2433" stop-color="#8E002D"/>
<stop offset="0.4292" stop-color="#5B001D"/>
<stop offset="0.6026" stop-color="#340010"/>
<stop offset="0.7607" stop-color="#170007"/>
<stop offset="0.8983" stop-color="#060002"/>
<stop offset="1"/>
</radialGradient>
<radialGradient id="paint37_radial" cx="0" cy="0" r="1" gradientUnits="userSpaceOnUse" gradientTransform="translate(1148.1 545.377) rotate(20.8047) scale(40.0346)">
<stop stop-color="#DC0046"/>
<stop offset="0.0498" stop-color="#CB0041"/>
<stop offset="0.2433" stop-color="#8E002D"/>
<stop offset="0.4292" stop-color="#5B001D"/>
<stop offset="0.6026" stop-color="#340010"/>
<stop offset="0.7607" stop-color="#170007"/>
<stop offset="0.8983" stop-color="#060002"/>
<stop offset="1"/>
</radialGradient>
<radialGradient id="paint38_radial" cx="0" cy="0" r="1" gradientUnits="userSpaceOnUse" gradientTransform="translate(914.356 513.042) rotate(20.8047) scale(41.2493)">
<stop stop-color="#DC0046"/>
<stop offset="0.0498" stop-color="#CB0041"/>
<stop offset="0.2433" stop-color="#8E002D"/>
<stop offset="0.4292" stop-color="#5B001D"/>
<stop offset="0.6026" stop-color="#340010"/>
<stop offset="0.7607" stop-color="#170007"/>
<stop offset="0.8983" stop-color="#060002"/>
<stop offset="1"/>
</radialGradient>
<radialGradient id="paint39_radial" cx="0" cy="0" r="1" gradientUnits="userSpaceOnUse" gradientTransform="translate(782.057 686.974) rotate(20.8047) scale(106.506)">
<stop stop-color="#DC0046"/>
<stop offset="0.0498" stop-color="#CB0041"/>
<stop offset="0.2433" stop-color="#8E002D"/>
<stop offset="0.4292" stop-color="#5B001D"/>
<stop offset="0.6026" stop-color="#340010"/>
<stop offset="0.7607" stop-color="#170007"/>
<stop offset="0.8983" stop-color="#060002"/>
<stop offset="1"/>
</radialGradient>
<radialGradient id="paint40_radial" cx="0" cy="0" r="1" gradientUnits="userSpaceOnUse" gradientTransform="translate(671.053 702.464) rotate(20.8047) scale(164.23)">
<stop stop-color="#DC0046"/>
<stop offset="0.0498" stop-color="#CB0041"/>
<stop offset="0.2433" stop-color="#8E002D"/>
<stop offset="0.4292" stop-color="#5B001D"/>
<stop offset="0.6026" stop-color="#340010"/>
<stop offset="0.7607" stop-color="#170007"/>
<stop offset="0.8983" stop-color="#060002"/>
<stop offset="1"/>
</radialGradient>
<radialGradient id="paint41_radial" cx="0" cy="0" r="1" gradientUnits="userSpaceOnUse" gradientTransform="translate(1759.52 561.313) rotate(20.8047) scale(47.5566)">
<stop stop-color="#DC0046"/>
<stop offset="0.0498" stop-color="#CB0041"/>
<stop offset="0.2433" stop-color="#8E002D"/>
<stop offset="0.4292" stop-color="#5B001D"/>
<stop offset="0.6026" stop-color="#340010"/>
<stop offset="0.7607" stop-color="#170007"/>
<stop offset="0.8983" stop-color="#060002"/>
<stop offset="1"/>
</radialGradient>
<radialGradient id="paint42_radial" cx="0" cy="0" r="1" gradientUnits="userSpaceOnUse" gradientTransform="translate(1902.79 421.499) rotate(20.8047) scale(48.4324)">
<stop stop-color="#DC0046"/>
<stop offset="0.0498" stop-color="#CB0041"/>
<stop offset="0.2433" stop-color="#8E002D"/>
<stop offset="0.4292" stop-color="#5B001D"/>
<stop offset="0.6026" stop-color="#340010"/>
<stop offset="0.7607" stop-color="#170007"/>
<stop offset="0.8983" stop-color="#060002"/>
<stop offset="1"/>
</radialGradient>
<radialGradient id="paint43_radial" cx="0" cy="0" r="1" gradientUnits="userSpaceOnUse" gradientTransform="translate(312.934 483.588) rotate(20.8047) scale(50.4919)">
<stop stop-color="#DC0046"/>
<stop offset="0.0498" stop-color="#CB0041"/>
<stop offset="0.2433" stop-color="#8E002D"/>
<stop offset="0.4292" stop-color="#5B001D"/>
<stop offset="0.6026" stop-color="#340010"/>
<stop offset="0.7607" stop-color="#170007"/>
<stop offset="0.8983" stop-color="#060002"/>
<stop offset="1"/>
</radialGradient>
<radialGradient id="paint44_radial" cx="0" cy="0" r="1" gradientUnits="userSpaceOnUse" gradientTransform="translate(194.228 135.448) scale(60.61)">
<stop stop-color="#79FDFF"/>
<stop offset="0.1349" stop-color="#60CACB"/>
<stop offset="0.3109" stop-color="#438D8E"/>
<stop offset="0.4803" stop-color="#2B5B5B"/>
<stop offset="0.6383" stop-color="#193334"/>
<stop offset="0.7822" stop-color="#0B1717"/>
<stop offset="0.9074" stop-color="#030606"/>
<stop offset="1"/>
</radialGradient>
<radialGradient id="paint45_radial" cx="0" cy="0" r="1" gradientUnits="userSpaceOnUse" gradientTransform="translate(-61.261 213.442) scale(73.7482)">
<stop stop-color="#79FDFF"/>
<stop offset="0.1349" stop-color="#60CACB"/>
<stop offset="0.3109" stop-color="#438D8E"/>
<stop offset="0.4803" stop-color="#2B5B5B"/>
<stop offset="0.6383" stop-color="#193334"/>
<stop offset="0.7822" stop-color="#0B1717"/>
<stop offset="0.9074" stop-color="#030606"/>
<stop offset="1"/>
</radialGradient>
<radialGradient id="paint46_radial" cx="0" cy="0" r="1" gradientUnits="userSpaceOnUse" gradientTransform="translate(-95.3781 493.437) scale(103.663)">
<stop stop-color="#79FDFF"/>
<stop offset="0.1349" stop-color="#60CACB"/>
<stop offset="0.3109" stop-color="#438D8E"/>
<stop offset="0.4803" stop-color="#2B5B5B"/>
<stop offset="0.6383" stop-color="#193334"/>
<stop offset="0.7822" stop-color="#0B1717"/>
<stop offset="0.9074" stop-color="#030606"/>
<stop offset="1"/>
</radialGradient>
<radialGradient id="paint47_radial" cx="0" cy="0" r="1" gradientUnits="userSpaceOnUse" gradientTransform="translate(12.1046 456.298) scale(89.9774)">
<stop stop-color="#79FDFF"/>
<stop offset="0.1349" stop-color="#60CACB"/>
<stop offset="0.3109" stop-color="#438D8E"/>
<stop offset="0.4803" stop-color="#2B5B5B"/>
<stop offset="0.6383" stop-color="#193334"/>
<stop offset="0.7822" stop-color="#0B1717"/>
<stop offset="0.9074" stop-color="#030606"/>
<stop offset="1"/>
</radialGradient>
<radialGradient id="paint48_radial" cx="0" cy="0" r="1" gradientUnits="userSpaceOnUse" gradientTransform="translate(89.0328 365.869) scale(100.781)">
<stop stop-color="#79FDFF"/>
<stop offset="0.1349" stop-color="#60CACB"/>
<stop offset="0.3109" stop-color="#438D8E"/>
<stop offset="0.4803" stop-color="#2B5B5B"/>
<stop offset="0.6383" stop-color="#193334"/>
<stop offset="0.7822" stop-color="#0B1717"/>
<stop offset="0.9074" stop-color="#030606"/>
<stop offset="1"/>
</radialGradient>
<radialGradient id="paint49_radial" cx="0" cy="0" r="1" gradientUnits="userSpaceOnUse" gradientTransform="translate(794.743 -66.1313) scale(106.467)">
<stop stop-color="#79FDFF"/>
<stop offset="0.1349" stop-color="#60CACB"/>
<stop offset="0.3109" stop-color="#438D8E"/>
<stop offset="0.4803" stop-color="#2B5B5B"/>
<stop offset="0.6383" stop-color="#193334"/>
<stop offset="0.7822" stop-color="#0B1717"/>
<stop offset="0.9074" stop-color="#030606"/>
<stop offset="1"/>
</radialGradient>
</defs>
</svg>
