<svg width="1920" height="470" viewBox="0 0 1920 470" fill="none" xmlns="http://www.w3.org/2000/svg">
<g opacity="0.5">
<path d="M-295.899 10.2309L-394.618 170.754L-251.851 305.089L-142.428 -5.13164L-10.5256 -116.03L104.658 41.0152L49.876 236.298L211.048 251.493L440.331 273.071L241.364 -21.4349L518.79 42.2622L495.306 -107.539L576.901 -316.352L735.311 -448.575L878.091 -536.632L782.245 -293.174L762.848 38.449L1106.14 119.461L1359.81 179.293L1519.05 175.564L1422.83 -64.4216L1382.75 -164.4L994.55 50.7705L859.008 -175.955L1168.31 -28.0126L1257.72 14.7695L1108.31 38.8221L1348.24 288.127L1357.91 177.897L1368.04 -36.1908L1129.32 -64.0174L1201.15 -127.958L1050.71 -321.767L1129.42 -398.402L1275.27 -294.527L1208.48 -183.509L1234.5 -545.173L1385.24 -461.495L1538.03 -106.672L1383.9 -163.955L1452.87 -245.102L1490.56 -511.305L1708.52 -857.942L1831.32 -805.243L1815.86 -610.812L1604.06 -644.235L1813.12 -310.649L1604.17 -207.659L1536.39 -317.111L1794.87 -191.095L1519.59 175.392L1513.2 -20.8838L1739.17 -84.6496L1860.36 20.9858L1764.55 406.785L1738.04 45.0675L1610.24 121.068L1584.6 273.778L1766.39 283.758L1793.37 201.773L1904.99 291.401L1568.21 430.137L1616.98 594.07L1763.65 408.066L1887.6 649.163L1904.31 292.592" stroke="#589CFF" stroke-width="0.4628" stroke-miterlimit="10"/>
<path d="M1519.37 173.795L1584.6 273.778L1513.89 -22.5592L1610.66 123.175L1519.37 173.795Z" stroke="#589CFF" stroke-width="0.4628" stroke-miterlimit="10"/>
<path d="M762.848 38.449L686.718 -106.815L576.901 -316.352L783.317 -292.583L859.008 -175.955L762.848 38.449Z" stroke="#589CFF" stroke-width="0.4628" stroke-miterlimit="10"/>
<path d="M762.848 38.4491L994.657 49.5414L1050.71 -321.767L783.316 -292.583L518.79 42.2624L762.848 38.4491ZM762.848 38.4491L1197.92 -128.425L1129.42 -398.402L1232.74 -543.579L876.317 -536.841L1050.18 -323.095L1209.06 -184.995L1382.75 -164.4L1275.27 -294.527L1536.39 -317.111L1385.24 -461.495L1813.12 -310.649L1793.46 -191.176L1538.09 -107.742L1536.39 -317.111L1452.03 -246.243L1602.51 -209.466L1383.9 -163.955L1368.04 -36.1907L1257.72 14.7696L1519.6 175.392L1347.52 284.429L1454.33 354.941L1568.21 430.137L1766.39 283.758L1610.66 123.175L1794.3 204.735" stroke="#589CFF" stroke-width="0.4628" stroke-miterlimit="10"/>
<path d="M1105.1 38.345L994.657 49.5413L1127.5 -397.534L1257.72 14.7695L1348.24 288.127L1512.29 -22.8148L1538.09 -107.742L1602.51 -209.466L1610.66 123.175L1813.12 -310.649L1860.36 20.986L1906.35 292.888L1764.55 406.785L1568.21 430.137L1584.6 273.778L1790.92 203.426L1860.96 24.0059L1736.19 46.2741L1739.17 -84.6495L1603.32 -210.291L1604.06 -644.235L1487.5 -510.941L1234.5 -545.173L1708.52 -857.942L1816.22 -608.512L1811.91 -308.869" stroke="#589CFF" stroke-width="0.4628" stroke-miterlimit="10"/>
<path d="M49.876 236.298L-394.618 170.754L-142.428 -5.13179L-297.155 11.777L-250.966 304.743L49.876 236.298ZM49.876 236.298L-142.428 -5.13179" stroke="#589CFF" stroke-width="0.4628" stroke-miterlimit="10"/>
<path d="M-250.965 304.743L104.658 41.0152L241.364 -21.4349L495.306 -107.539L782.245 -293.174L735.311 -448.576L1050.71 -321.767L859.008 -175.955L1129.32 -64.0174L1206.87 -183.731L1452.03 -246.243L1275.27 -294.527L1385.36 -459.858L1488.97 -511.422L1813.12 -310.649L1536.39 -317.111L1604.06 -644.235L1831.32 -805.243" stroke="#589CFF" stroke-width="0.4628" stroke-miterlimit="10"/>
<path d="M439.645 274.066L104.658 41.0154L-142.428 -5.13151L576.901 -316.352L467.384 154.733L439.645 274.066Z" stroke="#589CFF" stroke-width="0.4628" stroke-miterlimit="10"/>
</g>
<g opacity="0.5">
<path d="M1903 286.521C1896.97 287.602 1898.79 297.012 1904.84 295.92C1910.88 294.862 1909.06 285.453 1903 286.521Z" fill="#589CFF"/>
<path d="M1903.62 289.669C1904.79 289.457 1905.2 290.27 1905.32 290.983C1905.47 291.709 1905.38 292.593 1904.21 292.804C1903.59 292.925 1903.28 292.744 1903.12 292.617C1902.81 292.378 1902.6 291.959 1902.51 291.491C1902.38 290.755 1902.45 289.881 1903.62 289.669Z" fill="#EEF5FF"/>
<path d="M1791.9 197.852C1785.87 198.934 1787.7 208.343 1793.75 207.252C1799.79 206.194 1797.97 196.785 1791.9 197.852Z" fill="#589CFF"/>
<path d="M1792.52 201.001C1793.69 200.789 1794.11 201.602 1794.25 202.305C1794.4 203.031 1794.31 203.914 1793.14 204.126C1792.52 204.247 1792.21 204.065 1792.05 203.939C1791.74 203.699 1791.53 203.281 1791.44 202.813C1791.29 202.087 1791.35 201.189 1792.52 201.001Z" fill="#EEF5FF"/>
<path d="M1858.93 18.9964C1852.9 20.078 1854.72 29.4872 1860.78 28.3957C1866.81 27.3142 1864.98 17.9049 1858.93 18.9964Z" fill="#589CFF"/>
<path d="M1859.54 22.1216C1860.71 21.9098 1861.12 22.7226 1861.26 23.4249C1861.41 24.1511 1861.32 25.0349 1860.15 25.2467C1859.53 25.3676 1859.23 25.1858 1859.06 25.0593C1858.76 24.8199 1858.55 24.4017 1858.46 23.9334C1858.32 23.231 1858.4 22.3235 1859.54 22.1216Z" fill="#EEF5FF"/>
<path d="M1736.18 40.8901C1730.15 41.9717 1731.98 51.3808 1738.03 50.2893C1744.06 49.2078 1742.21 39.8086 1736.18 40.8901Z" fill="#589CFF"/>
<path d="M1736.79 44.0152C1737.96 43.8033 1738.38 44.6162 1738.52 45.3186C1738.67 46.0448 1738.58 46.9285 1737.41 47.1403C1736.24 47.3521 1735.83 46.5393 1735.69 45.8369C1735.55 45.1345 1735.63 44.227 1736.79 44.0152Z" fill="#EEF5FF"/>
<path d="M1765.88 277.601C1759.85 278.683 1761.67 288.092 1767.73 287.001C1773.77 285.943 1771.94 276.534 1765.88 277.601Z" fill="#589CFF"/>
<path d="M1766.5 280.75C1767.67 280.538 1768.08 281.351 1768.22 282.054C1768.37 282.78 1768.28 283.664 1767.11 283.875C1766.49 283.996 1766.19 283.814 1766.02 283.688C1765.72 283.449 1765.51 283.03 1765.42 282.562C1765.24 281.846 1765.32 280.938 1766.5 280.75Z" fill="#EEF5FF"/>
<path d="M1609.48 117.216C1603.45 118.298 1605.28 127.707 1611.33 126.615C1617.36 125.534 1615.54 116.125 1609.48 117.216Z" fill="#589CFF"/>
<path d="M1610.09 120.341C1610.71 120.221 1611.02 120.402 1611.19 120.529C1611.49 120.768 1611.7 121.187 1611.79 121.655C1611.94 122.381 1611.85 123.265 1610.68 123.477C1610.06 123.597 1609.76 123.416 1609.59 123.289C1609.29 123.05 1609.08 122.631 1608.99 122.163C1608.87 121.451 1608.95 120.543 1610.09 120.341Z" fill="#EEF5FF"/>
<path d="M1518.18 169.476C1512.15 170.557 1513.98 179.967 1520.03 178.875C1526.07 177.817 1524.24 168.408 1518.18 169.476Z" fill="#589CFF"/>
<path d="M1518.8 172.625C1519.97 172.413 1520.38 173.226 1520.52 173.928C1520.67 174.654 1520.58 175.538 1519.42 175.75C1518.8 175.871 1518.49 175.689 1518.32 175.562C1518.02 175.323 1517.81 174.905 1517.72 174.436C1517.57 173.71 1517.66 172.827 1518.8 172.625Z" fill="#EEF5FF"/>
<path d="M1584.5 268.745C1578.47 269.827 1580.29 279.236 1586.35 278.145C1592.39 277.087 1590.56 267.678 1584.5 268.745Z" fill="#589CFF"/>
<path d="M1585.12 271.894C1585.74 271.773 1586.05 271.955 1586.21 272.082C1586.51 272.321 1586.73 272.739 1586.82 273.208C1586.97 273.934 1586.88 274.818 1585.71 275.029C1585.09 275.15 1584.79 274.969 1584.62 274.842C1584.32 274.603 1584.11 274.184 1584.01 273.716C1583.86 272.99 1583.95 272.106 1585.12 271.894Z" fill="#EEF5FF"/>
<g opacity="0.6">
<path d="M1358.28 174.525C1352.25 175.607 1354.08 185.016 1360.13 183.924C1366.17 182.867 1364.35 173.458 1358.28 174.525Z" fill="#589CFF"/>
<path d="M1358.91 177.674C1359.53 177.553 1359.83 177.735 1360 177.862C1360.3 178.101 1360.51 178.519 1360.6 178.987C1360.75 179.714 1360.66 180.597 1359.49 180.809C1358.88 180.93 1358.57 180.748 1358.4 180.622C1358.1 180.382 1357.89 179.964 1357.8 179.496C1357.65 178.77 1357.74 177.886 1358.91 177.674Z" fill="#EEF5FF"/>
</g>
<path d="M1255.42 8.24009C1249.39 9.32162 1251.22 18.7308 1257.27 17.6393C1263.3 16.5577 1261.47 7.14857 1255.42 8.24009Z" fill="#589CFF"/>
<path d="M1256.03 11.3653C1257.2 11.1534 1257.62 11.9662 1257.75 12.6687C1257.9 13.3949 1257.82 14.2786 1256.65 14.4904C1256.03 14.6113 1255.72 14.4296 1255.56 14.303C1255.25 14.0636 1255.04 13.6453 1254.95 13.1771C1254.79 12.4846 1254.87 11.5771 1256.03 11.3653Z" fill="#EEF5FF"/>
<path d="M1107.21 33.1117C1101.18 34.1932 1103.01 43.6024 1109.06 42.5109C1115.09 41.4294 1113.26 32.0202 1107.21 33.1117Z" fill="#589CFF"/>
<path d="M1107.82 36.2369C1108.99 36.025 1109.4 36.8378 1109.54 37.5402C1109.69 38.2664 1109.6 39.1501 1108.44 39.362C1107.82 39.4829 1107.51 39.3011 1107.34 39.1745C1107.04 38.9352 1106.83 38.5169 1106.74 38.0486C1106.58 37.3562 1106.65 36.4487 1107.82 36.2369Z" fill="#EEF5FF"/>
<path d="M762.086 33.639C756.056 34.7206 757.881 44.1298 763.934 43.0382C769.974 41.9805 768.139 32.5475 762.086 33.639Z" fill="#589CFF"/>
<path d="M762.698 36.7643C763.318 36.6434 763.622 36.8252 763.79 36.9517C764.091 37.1911 764.302 37.6094 764.395 38.0776C764.545 38.8038 764.456 39.6876 763.287 39.8994C762.668 40.0203 762.364 39.8386 762.196 39.712C761.895 39.4726 761.684 39.0543 761.591 38.586C761.451 37.8836 761.53 36.9761 762.698 36.7643Z" fill="#EEF5FF"/>
<path d="M518.905 36.3202C512.876 37.4017 514.7 46.8109 520.753 45.7194C526.793 44.6616 524.969 35.2524 518.905 36.3202Z" fill="#589CFF"/>
<path d="M519.528 39.4688C520.696 39.257 521.109 40.0698 521.248 40.7722C521.398 41.4984 521.309 42.3821 520.14 42.5939C519.521 42.7148 519.217 42.533 519.049 42.4064C518.748 42.1671 518.537 41.7488 518.444 41.2805C518.304 40.5781 518.359 39.6806 519.528 39.4688Z" fill="#EEF5FF"/>
<path d="M439.325 268.026C433.296 269.107 435.12 278.516 441.173 277.425C447.213 276.367 445.389 266.958 439.325 268.026Z" fill="#589CFF"/>
<path d="M439.948 271.174C441.117 270.963 441.529 271.775 441.669 272.478C441.819 273.204 441.729 274.088 440.561 274.3C439.392 274.511 438.98 273.699 438.84 272.996C438.714 272.26 438.779 271.386 439.948 271.174Z" fill="#EEF5FF"/>
<path d="M49.3955 231.171C43.366 232.253 45.1905 241.662 51.2437 240.57C57.2836 239.513 55.459 230.104 49.3955 231.171Z" fill="#589CFF"/>
<path d="M50.0184 234.32C51.187 234.108 51.5992 234.921 51.7388 235.623C51.8888 236.35 51.7996 237.233 50.631 237.445C49.4624 237.657 49.0502 236.844 48.9342 236.132C48.7606 235.415 48.8498 234.532 50.0184 234.32Z" fill="#EEF5FF"/>
<path d="M103.492 36.8833C97.4624 37.9649 99.2869 47.3741 105.34 46.2825C111.404 45.2147 109.556 35.8155 103.492 36.8833Z" fill="#589CFF"/>
<path d="M104.105 40.0084C105.273 39.7965 105.686 40.6093 105.825 41.3117C105.975 42.0379 105.886 42.9216 104.717 43.1335C104.098 43.2544 103.794 43.0726 103.626 42.9461C103.325 42.7067 103.114 42.2884 103.02 41.8201C102.881 41.1177 102.96 40.2102 104.105 40.0084Z" fill="#EEF5FF"/>
<path d="M1347.93 281.209C1341.9 282.291 1343.73 291.7 1349.78 290.609C1355.82 289.551 1354 280.142 1347.93 281.209Z" fill="#589CFF"/>
<path d="M1348.55 284.358C1349.72 284.146 1350.14 284.959 1350.25 285.671C1350.4 286.397 1350.31 287.281 1349.14 287.493C1348.52 287.614 1348.22 287.432 1348.05 287.306C1347.75 287.066 1347.54 286.648 1347.45 286.18C1347.32 285.443 1347.39 284.57 1348.55 284.358Z" fill="#EEF5FF"/>
<path d="M1567.84 425.583C1561.81 426.665 1563.64 436.074 1569.69 434.983C1575.73 433.925 1573.88 424.526 1567.84 425.583Z" fill="#589CFF"/>
<path d="M1568.46 428.732C1569.08 428.611 1569.39 428.793 1569.56 428.92C1569.86 429.159 1570.07 429.577 1570.16 430.046C1570.31 430.772 1570.22 431.655 1569.05 431.867C1568.43 431.988 1568.13 431.806 1567.96 431.68C1567.66 431.44 1567.45 431.022 1567.36 430.554C1567.21 429.828 1567.3 428.944 1568.46 428.732Z" fill="#EEF5FF"/>
<path d="M1763.41 403.232C1757.38 404.313 1759.2 413.722 1765.26 412.631C1771.29 411.549 1769.46 402.14 1763.41 403.232Z" fill="#589CFF"/>
<path d="M1764.02 406.357C1765.19 406.146 1765.6 406.958 1765.74 407.661C1765.89 408.387 1765.8 409.271 1764.63 409.482C1763.47 409.694 1763.05 408.882 1762.91 408.179C1762.77 407.477 1762.85 406.569 1764.02 406.357Z" fill="#EEF5FF"/>
<path d="M993.232 44.0521C987.203 45.1336 989.027 54.5428 995.08 53.4513C1001.11 52.3698 999.285 42.9606 993.232 44.0521Z" fill="#589CFF"/>
<path d="M993.845 47.1773C995.013 46.9655 995.426 47.7783 995.565 48.4807C995.715 49.2069 995.626 50.0906 994.457 50.3024C993.289 50.5143 992.877 49.7014 992.761 48.989C992.597 48.2966 992.676 47.3891 993.845 47.1773Z" fill="#EEF5FF"/>
</g>
</svg>
