<svg width="1920" height="683" viewBox="0 0 1920 683" fill="none" xmlns="http://www.w3.org/2000/svg">
<mask id="mask0" style="mask-type:alpha" maskUnits="userSpaceOnUse" x="0" y="0" width="1920" height="683">
<rect width="1920" height="683" fill="#C4C4C4"/>
</mask>
<g mask="url(#mask0)">
<rect x="1763.71" y="-76.2929" width="340.117" height="99" transform="rotate(45 1763.71 -76.2929)" stroke="#B961FF" stroke-opacity="0.2"/>
<rect x="1481.46" y="-75.539" width="734.764" height="99" transform="rotate(45 1481.46 -75.539)" stroke="#B961FF" stroke-opacity="0.2"/>
<rect x="1063.75" y="-210.256" width="1412.23" height="99" transform="rotate(45 1063.75 -210.256)" stroke="#B961FF" stroke-opacity="0.2"/>
<rect x="701.643" y="-289.361" width="1873.22" height="99" transform="rotate(45 701.643 -289.361)" stroke="#B961FF" stroke-opacity="0.2"/>
<rect x="545.326" y="-162.677" width="2133.98" height="99" transform="rotate(45 545.326 -162.677)" stroke="#B961FF" stroke-opacity="0.2"/>
<rect x="99.2603" y="-325.743" width="2732.33" height="99" transform="rotate(45 99.2603 -325.743)" stroke="#B961FF" stroke-opacity="0.2"/>
<rect x="-322.111" y="-464.114" width="3395.88" height="99" transform="rotate(45 -322.111 -464.114)" stroke="#B961FF" stroke-opacity="0.2"/>
<rect x="-463.611" y="-322.614" width="3584.46" height="99" transform="rotate(45 -463.611 -322.614)" stroke="#B961FF" stroke-opacity="0.2"/>
<rect x="-644.622" y="-220.625" width="3959.31" height="99" transform="rotate(45 -644.622 -220.625)" stroke="#B961FF" stroke-opacity="0.2"/>
<rect x="-470.032" y="236.964" width="3833.58" height="99" transform="rotate(45 -470.032 236.964)" stroke="#B961FF" stroke-opacity="0.2"/>
<rect y="0.707107" width="734.764" height="99" transform="matrix(-0.707107 0.707107 0.707107 0.707107 350.423 -76.039)" stroke="#B961FF" stroke-opacity="0.2"/>
<rect y="0.707107" width="1873.22" height="99" transform="matrix(-0.707107 0.707107 0.707107 0.707107 1130.24 -289.86)" stroke="#B961FF" stroke-opacity="0.2"/>
<rect y="0.707107" width="2732.33" height="99" transform="matrix(-0.707107 0.707107 0.707107 0.707107 1732.63 -326.243)" stroke="#B961FF" stroke-opacity="0.2"/>
<rect y="0.707107" width="3584.46" height="99" transform="matrix(-0.707107 0.707107 0.707107 0.707107 2295.5 -323.114)" stroke="#B961FF" stroke-opacity="0.2"/>
<rect y="0.707107" width="3833.58" height="99" transform="matrix(-0.707107 0.707107 0.707107 0.707107 2301.92 236.464)" stroke="#B961FF" stroke-opacity="0.2"/>
<g opacity="0.4">
<path d="M1915.74 1106.74L1821.33 1221.05L1671.36 1162.59L1879.43 997.304L1924.6 874.767L1765.56 841.79L1630.14 936.193L1567.52 830.406L1478.47 679.902L1771.34 730.094L1634.2 558.948L1758.7 531.329L1896.26 414.644L1949.75 267.761L1973.64 144.445L1813.49 280.977L1560.34 390.936L1388.93 179.797L1262.29 23.7686L1215.07 -86.2167L1432.97 -90.3905L1523.75 -92.1312L1477.76 236.079L1697.68 262.661L1484.65 94.2845L1423.05 45.6113L1451.29 154.8L1180.85 63.4132L1263.98 24.6618L1428.15 -44.688L1525.07 110.448L1552.44 42.6828L1751.32 89.0505L1786.44 12.8762L1659.32 -56.5728L1593.56 21.4703L1868.1 -101.78L1755.23 -180.458L1429.73 -181.489L1523.04 -92.7866L1564.77 -163.614L1761.01 -267.01L1963.37 -517.132L1883.51 -585.745L1736.38 -518.48L1829.19 -383.388L1502.59 -429.084L1487.86 -256.162L1594.77 -241.724L1414.87 -381.744L1215.03 -86.6371L1370.49 -139.492L1349.19 -312.616L1228.45 -364.692L957.015 -186.678L1248.14 -274.022L1228.96 -164.468L1117.65 -102.405L1052.61 -223.811L1108.21 -266.165L1003 -316.367L1000.57 -45.6042L857.063 -31.1537L956.296 -185.691L728.788 -200.159L1002.28 -315.553" stroke="#589CFF" stroke-width="0.4628" stroke-miterlimit="10"/>
<path d="M1560.34 390.936L1697.87 400.642L1896.26 414.644L1812.69 280.416L1697.68 262.661L1560.34 390.936Z" stroke="#589CFF" stroke-width="0.4628" stroke-miterlimit="10"/>
<path d="M1560.34 390.936L1478.69 235.648L1751.32 89.0505L1812.69 280.417L1634.2 558.948L1560.34 390.936ZM1560.34 390.936L1553.82 44.7569L1786.45 12.8762L1867.41 -100.106L1974.36 145.597L1752.52 89.0229L1594.54 20.6388L1523.75 -92.1313L1659.32 -56.5729L1594.77 -241.724L1755.23 -180.459L1502.59 -429.085L1415.38 -380.804L1430.55 -181.844L1594.77 -241.724L1565.92 -163.375L1489.8 -255.554L1523.04 -92.7867L1428.16 -44.688L1423.05 45.6113L1215.03 -86.6371L1183.97 62.8296L1095.21 10.3473L1000.57 -45.6043L1052.61 -223.811L1227.18 -164.14L1105.6 -265.94" stroke="#589CFF" stroke-width="0.4628" stroke-miterlimit="10"/>
<path d="M1452.67 156.854L1478.69 235.648L1786.37 14.4408L1423.05 45.611L1180.85 63.4128L1372.28 -139.438L1430.55 -181.845L1489.8 -255.554L1227.18 -164.14L1502.59 -429.085L1228.45 -364.692L1001.41 -316.859L957.016 -186.678L1000.57 -45.6045L1117.65 -102.405L1107.69 -264.012L1225.91 -364.218L1247.78 -272.403L1349.19 -312.616L1490.18 -256.352L1829.19 -383.388L1761.69 -264.809L1868.1 -101.78L1963.37 -517.132L1734.47 -518.057L1501.58 -427.738" stroke="#589CFF" stroke-width="0.4628" stroke-miterlimit="10"/>
<path d="M1671.36 1161.88L1765.56 841.789L1771.34 730.094L1758.71 531.328L1813.49 280.977L1949.75 267.761L1751.32 89.0502L1697.68 262.661L1525.07 110.448L1594.24 22.507L1565.92 -163.375L1659.32 -56.5731L1753.91 -180.069L1761.6 -265.955L1502.59 -429.085L1594.77 -241.724L1829.19 -383.388L1883.51 -585.746" stroke="#589CFF" stroke-width="0.4628" stroke-miterlimit="10"/>
<path d="M1477.9 680.66L1765.56 841.789L1879.43 997.304L1896.26 414.644L1562.46 626.896L1477.9 680.66Z" stroke="#589CFF" stroke-width="0.4628" stroke-miterlimit="10"/>
<g opacity="0.6">
<path d="M1266.5 23.4238C1267.55 27.8624 1259.62 29.3582 1258.57 24.9005C1257.49 20.4617 1265.42 18.9659 1266.5 23.4238Z" fill="#589CFF"/>
<path d="M1263.84 23.916C1263.74 23.4568 1263.5 23.3019 1263.35 23.2241C1263.07 23.088 1262.67 23.0654 1262.28 23.1383C1261.66 23.2475 1261 23.5663 1261.2 24.4275C1261.3 24.8868 1261.54 25.0417 1261.69 25.1194C1261.97 25.2556 1262.37 25.2781 1262.76 25.2052C1263.38 25.0961 1264.04 24.7772 1263.84 23.916Z" fill="#EEF5FF"/>
</g>
<path d="M1598.81 20.4853C1599.86 24.924 1591.93 26.4198 1590.88 21.9621C1589.8 17.5232 1597.73 16.0274 1598.81 20.4853Z" fill="#589CFF"/>
<path d="M1596.15 20.9783C1595.95 20.1171 1595.18 20.0722 1594.59 20.1816C1593.97 20.2907 1593.31 20.6096 1593.51 21.4708C1593.61 21.93 1593.85 22.0849 1594 22.1626C1594.29 22.2988 1594.68 22.3213 1595.07 22.2484C1595.69 22.1583 1596.35 21.8395 1596.15 20.9783Z" fill="#EEF5FF"/>
<path d="M1557.62 43.2632C1558.67 47.7018 1550.74 49.1976 1549.69 44.7399C1548.61 40.3011 1556.54 38.8053 1557.62 43.2632Z" fill="#589CFF"/>
<path d="M1554.96 43.7556C1554.76 42.8945 1553.99 42.8495 1553.4 42.9589C1552.78 43.0681 1552.12 43.3869 1552.32 44.2481C1552.42 44.7073 1552.66 44.8622 1552.81 44.9399C1553.09 45.0761 1553.49 45.0987 1553.88 45.0257C1554.5 44.9357 1555.16 44.6168 1554.96 43.7556Z" fill="#EEF5FF"/>
<path d="M1428.88 45.2807C1429.93 49.7194 1422 51.2152 1420.95 46.7574C1419.89 42.3188 1427.82 40.823 1428.88 45.2807Z" fill="#589CFF"/>
<path d="M1426.24 45.7742C1426.04 44.913 1425.27 44.8681 1424.68 44.9775C1424.06 45.0866 1423.4 45.4055 1423.6 46.2667C1423.7 46.7259 1423.94 46.8808 1424.09 46.9585C1424.38 47.0947 1424.77 47.1173 1425.17 47.0444C1425.76 46.9541 1426.44 46.6354 1426.24 45.7742Z" fill="#EEF5FF"/>
<path d="M1529.3 108.881C1530.35 113.32 1522.42 114.816 1521.37 110.358C1520.3 105.919 1528.23 104.443 1529.3 108.881Z" fill="#589CFF"/>
<path d="M1526.64 109.375C1526.44 108.514 1525.67 108.469 1525.08 108.578C1524.47 108.687 1523.8 109.006 1524.01 109.867C1524.11 110.327 1524.34 110.481 1524.5 110.559C1524.78 110.695 1525.17 110.718 1525.57 110.645C1526.18 110.555 1526.84 110.236 1526.64 109.375Z" fill="#EEF5FF"/>
<path d="M1456.1 153.887C1457.15 158.326 1449.22 159.822 1448.17 155.364C1447.11 150.925 1455.04 149.429 1456.1 153.887Z" fill="#589CFF"/>
<path d="M1453.46 154.381C1453.26 153.519 1452.49 153.475 1451.9 153.584C1451.28 153.693 1450.62 154.012 1450.82 154.873C1450.92 155.332 1451.16 155.487 1451.31 155.565C1451.6 155.701 1451.99 155.724 1452.38 155.651C1452.98 155.561 1453.66 155.242 1453.46 154.381Z" fill="#EEF5FF"/>
<path d="M1790.06 12.5835C1791.11 17.0222 1783.18 18.5179 1782.13 14.0602C1781.08 9.62155 1789.01 8.12576 1790.06 12.5835Z" fill="#589CFF"/>
<path d="M1787.42 13.0765C1787.22 12.2153 1786.46 12.1703 1785.86 12.2797C1785.25 12.3889 1784.59 12.7077 1784.79 13.5689C1784.99 14.4301 1785.76 14.475 1786.35 14.3657C1786.94 14.2563 1787.63 13.9377 1787.42 13.0765Z" fill="#EEF5FF"/>
<path d="M1756.21 88.521C1757.26 92.9596 1749.33 94.4554 1748.28 89.9977C1747.23 85.5591 1755.16 84.0633 1756.21 88.521Z" fill="#589CFF"/>
<path d="M1753.57 89.0134C1753.37 88.1523 1752.6 88.1074 1752.01 88.2167C1751.4 88.3259 1750.73 88.6447 1750.93 89.5059C1751.04 89.9651 1751.27 90.12 1751.43 90.1977C1751.71 90.3339 1752.1 90.3565 1752.5 90.2836C1753.09 90.1933 1753.77 89.8746 1753.57 89.0134Z" fill="#EEF5FF"/>
<path d="M1816.57 280.279C1817.62 284.717 1809.69 286.213 1808.64 281.755C1807.58 277.298 1815.51 275.821 1816.57 280.279Z" fill="#589CFF"/>
<path d="M1813.93 280.772C1813.73 279.911 1812.96 279.866 1812.37 279.976C1811.75 280.085 1811.09 280.404 1811.29 281.265C1811.39 281.724 1811.63 281.879 1811.78 281.957C1812.06 282.093 1812.46 282.115 1812.85 282.042C1813.45 281.933 1814.13 281.614 1813.93 280.772Z" fill="#EEF5FF"/>
<path d="M1701.45 261.185C1702.51 265.624 1694.58 267.12 1693.52 262.662C1692.47 258.204 1700.4 256.728 1701.45 261.185Z" fill="#589CFF"/>
<path d="M1698.82 261.679C1698.61 260.817 1697.85 260.772 1697.25 260.882C1696.64 260.991 1695.98 261.31 1696.18 262.171C1696.28 262.63 1696.52 262.785 1696.67 262.863C1696.95 262.999 1697.34 263.022 1697.74 262.949C1698.33 262.839 1699.02 262.521 1698.82 261.679Z" fill="#EEF5FF"/>
<path d="M1564.34 390.055C1565.4 394.494 1557.47 395.99 1556.41 391.532C1555.34 387.093 1563.29 385.597 1564.34 390.055Z" fill="#589CFF"/>
<path d="M1561.71 390.548C1561.61 390.089 1561.37 389.934 1561.22 389.857C1560.93 389.72 1560.54 389.698 1560.15 389.771C1559.53 389.88 1558.87 390.199 1559.07 391.06C1559.17 391.519 1559.41 391.674 1559.56 391.752C1559.84 391.888 1560.24 391.91 1560.63 391.838C1561.22 391.728 1561.91 391.41 1561.71 390.548Z" fill="#EEF5FF"/>
<path d="M1762.99 530.45C1764.04 534.888 1756.11 536.384 1755.06 531.926C1753.99 527.468 1761.92 525.992 1762.99 530.45Z" fill="#589CFF"/>
<path d="M1760.33 530.943C1760.13 530.081 1759.36 530.036 1758.77 530.165C1758.15 530.274 1757.49 530.593 1757.69 531.454C1757.79 531.913 1758.03 532.068 1758.18 532.146C1758.47 532.282 1758.86 532.305 1759.26 532.232C1759.85 532.103 1760.53 531.785 1760.33 530.943Z" fill="#EEF5FF"/>
<path d="M1900.47 414.261C1901.52 418.7 1893.59 420.196 1892.54 415.738C1891.46 411.299 1899.39 409.803 1900.47 414.261Z" fill="#589CFF"/>
<path d="M1897.81 414.754C1897.61 413.893 1896.84 413.848 1896.25 413.957C1895.63 414.067 1894.97 414.385 1895.17 415.247C1895.37 416.108 1896.14 416.153 1896.73 416.024C1897.35 415.915 1898.01 415.596 1897.81 414.754Z" fill="#EEF5FF"/>
<path d="M1638.81 557.137C1639.86 561.575 1631.93 563.071 1630.88 558.613C1629.81 554.175 1637.74 552.679 1638.81 557.137Z" fill="#589CFF"/>
<path d="M1636.15 557.63C1635.95 556.768 1635.18 556.724 1634.59 556.833C1633.98 556.942 1633.31 557.261 1633.52 558.122C1633.62 558.581 1633.85 558.736 1634.01 558.814C1634.29 558.95 1634.68 558.973 1635.08 558.9C1635.67 558.79 1636.35 558.491 1636.15 557.63Z" fill="#EEF5FF"/>
<path d="M1482.73 679.118C1483.78 683.557 1475.85 685.053 1474.8 680.595C1473.72 676.156 1481.65 674.66 1482.73 679.118Z" fill="#589CFF"/>
<path d="M1480.07 679.611C1479.87 678.75 1479.1 678.705 1478.51 678.814C1477.89 678.924 1477.23 679.242 1477.43 680.104C1477.63 680.965 1478.4 681.01 1478.99 680.9C1479.61 680.772 1480.27 680.472 1480.07 679.611Z" fill="#EEF5FF"/>
<path d="M1186.35 61.6099C1187.41 66.0485 1179.48 67.5443 1178.42 63.0866C1177.35 58.6477 1185.28 57.1519 1186.35 61.6099Z" fill="#589CFF"/>
<path d="M1183.7 62.1022C1183.49 61.241 1182.73 61.196 1182.13 61.3245C1181.52 61.4337 1180.86 61.7525 1181.06 62.6138C1181.16 63.073 1181.4 63.2279 1181.55 63.3056C1181.83 63.4418 1182.22 63.4643 1182.62 63.3914C1183.24 63.2631 1183.9 62.9634 1183.7 62.1022Z" fill="#EEF5FF"/>
<path d="M1483.43 235.021C1484.48 239.46 1476.55 240.955 1475.5 236.498C1474.45 232.059 1482.38 230.563 1483.43 235.021Z" fill="#589CFF"/>
<path d="M1480.79 235.514C1480.59 234.653 1479.82 234.608 1479.23 234.717C1478.62 234.826 1477.95 235.145 1478.16 236.006C1478.36 236.868 1479.12 236.912 1479.72 236.784C1480.31 236.694 1480.99 236.375 1480.79 235.514Z" fill="#EEF5FF"/>
</g>
<path opacity="0.65" d="M-245 1180C619.878 1180 1321 731.389 1321 178C1321 -375.389 619.878 -824 -245 -824C-1109.88 -824 -1811 -375.389 -1811 178C-1811 731.389 -1109.88 1180 -245 1180Z" fill="url(#paint0_radial)" fill-opacity="0.4"/>
</g>
<defs>
<radialGradient id="paint0_radial" cx="0" cy="0" r="1" gradientUnits="userSpaceOnUse" gradientTransform="translate(-245 178.007) scale(1566.02 1002.01)">
<stop stop-color="#6C00C1"/>
<stop offset="0.0858" stop-color="#5B00A3"/>
<stop offset="0.2661" stop-color="#46007C"/>
<stop offset="0.4409" stop-color="#2F0054"/>
<stop offset="0.6059" stop-color="#22003D"/>
<stop offset="0.7586" stop-color="#0F001C"/>
<stop offset="0.8945" stop-color="#07000D"/>
<stop offset="1"/>
</radialGradient>
</defs>
</svg>
