<svg width="124" height="331" viewBox="0 0 124 331" fill="none" xmlns="http://www.w3.org/2000/svg">
<path d="M0.255745 90.3991C0.255745 90.3991 4.32919 82.3896 3.77943 80.0088C3.22967 77.6279 6.64512 72.5427 6.64512 72.5427L6.42435 64.1063C6.42435 64.1063 6.89619 64.9689 9.35498 65.7237C9.56276 65.452 9.78785 65.1845 10.0216 64.9301C10.912 64.0062 11.9021 63.1831 12.9739 62.4759L17.3027 53.1682L21.4887 46.7804C21.4887 46.7804 28.0902 33.4097 34.9081 30.4595L35.9817 28.3676C35.9464 28.3468 35.9201 28.3136 35.9081 28.2745C35.8961 28.2354 35.8991 28.1933 35.9167 28.1563L37.0076 26.0299C37.0271 25.9932 37.0595 25.9649 37.0987 25.9505C37.1379 25.9362 37.181 25.9368 37.2197 25.9523L38.263 23.9165C38.6614 21.2782 39.7017 18.7772 41.2932 16.6316C41.4014 16.4807 41.5183 16.3426 41.6308 16.2003L39.9339 16.1399C38.4448 16.0838 36.7825 15.9545 35.7825 14.846C35.4242 14.4328 35.1598 13.9473 35.0077 13.4226C34.879 13.0115 34.7948 12.5879 34.7566 12.1589C34.7566 12.0942 34.7566 12.0295 34.7566 11.9691C34.7566 11.8225 34.7566 11.6787 34.7566 11.5378C34.7566 11.4213 34.7566 11.3092 34.7566 11.1928C34.7566 11.0763 34.7566 11.0073 34.7566 10.9167C34.7566 10.8261 34.8042 10.6191 34.8302 10.4854C34.8302 10.4293 34.8302 10.3733 34.8648 10.3172C34.9009 10.1482 34.9457 9.98123 34.999 9.81686C35.0117 9.78463 35.0218 9.75146 35.0293 9.71766C35.0899 9.54514 35.1549 9.37261 35.2285 9.2044C35.2404 9.18222 35.2505 9.15915 35.2587 9.13539C35.3367 8.96718 35.4233 8.80328 35.5142 8.64369L35.5401 8.59193C35.572 8.52499 35.6081 8.46016 35.6484 8.39784C36.8215 6.56045 38.882 5.48648 40.843 4.51602C42.6728 3.55743 44.5512 2.69366 46.4705 1.92814C53.6068 -0.738415 61.4896 -0.627531 68.5475 2.23869C69.2446 2.50169 69.9051 2.85247 70.5128 3.28247C71.36 3.99693 72.0838 4.84492 72.6556 5.79271L76.0105 10.7312C76.4793 11.332 76.8463 12.0051 77.097 12.7239C77.7247 15.0703 75.7551 17.4209 75.9758 19.8406C76.0884 21.0439 76.7377 22.1481 76.8632 23.3515C77.0234 24.9042 76.3005 26.4009 75.5949 27.8026L70.7942 37.2915C71.0496 38.538 71.331 39.8147 71.6383 41.0483C73.8504 43.3256 74.5949 44.5678 74.7984 45.2406L74.8633 45.2751C75.3014 45.557 75.6783 45.9237 75.9715 46.3534L80.5341 50.7701C80.5341 50.7701 88.4645 52.8231 90.1138 55.4239C90.1138 55.4239 102.559 54.8805 102.451 72.1977C102.451 72.1977 103.001 78.6933 103.317 79.5602C103.633 80.4272 103.317 89.1914 103.317 89.1914L103.464 106.944C103.464 106.944 103.94 116.36 103.464 119.715C102.988 123.071 102.438 135.842 102.438 135.842C102.438 135.842 99.4641 148.29 100.564 152.728C101.62 156.977 100.564 166.267 98.8321 166.306C98.5031 166.983 98.1265 167.315 97.7153 167.125C97.5363 167.048 97.3527 166.982 97.1655 166.927V177.533C97.1655 177.533 99.3083 192.392 96.9058 195.217C98.4988 197.477 100.369 201.333 100.845 202.346L117.684 201.445L119.827 202.045L121.792 202.592L122.983 229.882L122.507 229.916L122.541 230.748L121.416 230.83L122.983 258.314L99.6719 260.224C100.698 262.515 101.888 264.969 102.351 265.206C103.217 265.637 105.105 264.343 105.546 264.878C105.988 265.413 107.308 266.069 108.849 265.741C110.39 265.413 111.381 267.147 111.381 267.147C111.381 267.147 111.156 267.345 110.819 267.712C113.321 267.41 116.485 268.747 118.204 269.61C118.974 269.998 119.455 270.287 119.455 270.287H124L121.502 286.164L119.74 287.363L119.308 299.871C119.308 299.871 112.26 321.518 109.031 321.376C108.821 321.369 108.616 321.316 108.428 321.222C108.241 321.129 108.076 320.996 107.944 320.833C106.213 318.84 107.412 311.995 107.412 311.995V300.6C107.412 300.6 104.771 299.444 105.066 298.577C105.36 297.71 100.806 288.225 100.399 287.363C100.388 287.355 100.378 287.345 100.372 287.333C100.366 287.321 100.363 287.307 100.365 287.294C100.365 286.319 98.3819 285.236 98.4945 284.805C98.607 284.374 93.6462 281.665 93.2999 279.284C92.9535 276.903 89.668 278.202 89.668 278.202L85.4863 273.414C85.3608 279.25 85.1227 283.334 84.7114 284.369C82.7288 289.351 81.9583 297.145 81.9583 297.145C81.9583 297.145 83.1704 303.097 81.9583 305.046C81.2137 306.237 79.4822 307.514 78.2788 308.57C79.5298 312.349 79.3523 320.38 79.3523 320.38V324.995L70.1016 327.583C70.1016 327.583 69.8116 325.275 69.37 325.275C68.9285 325.275 63.0542 329.748 63.0542 329.748C63.0542 329.748 40.4404 330.037 34.7176 329.748C32.5532 329.64 31.9645 328.713 32.2978 327.591C32.8476 325.724 35.9341 323.304 38.6785 323.118C43.0853 322.83 48.6652 318.214 48.6652 318.214C48.6652 318.214 48.2323 317.201 50.5742 315.76C52.1932 314.768 56.6735 310.753 59.444 308.402C59.3141 308.225 59.1799 308.048 59.0544 307.859C59.0544 307.859 62.7988 302.683 62.024 300.388C61.2491 298.094 62.3573 294.781 62.3573 294.781C62.3573 294.781 64.4481 288.393 64.4481 285.146C64.4481 283.088 64.7598 271.387 64.9849 263.088L63.0542 263.248L63.0153 262.42L62.1495 262.497L53.9637 263.248L54.2148 254.531C50.2712 252.806 46.9899 251.206 45.6307 250.183C41.0075 246.733 37.0422 246.504 37.0422 246.504C37.0422 246.504 27.6833 241.527 26.2504 239.47C24.8176 237.412 24.9518 222.476 24.9518 222.476L25.7223 190.464V190.438C25.7223 190.438 26.3803 174.962 27.7049 171.607C28.1898 170.365 29.3889 166.224 30.7005 161.497C29.9466 161.419 29.1855 161.451 28.4408 161.592C28.3932 162.748 28.3629 163.541 28.3629 163.813C28.3629 165.65 25.7223 167.212 25.7223 167.212L27.5924 125.806V97.6366C21.8264 99.4653 7.88316 100.035 7.88316 100.035C-2.16408 99.5085 0.255745 90.3991 0.255745 90.3991ZM54.6433 54.8244H54.6736C54.4689 53.7389 54.2015 52.666 53.8728 51.6111L54.6433 54.8244ZM92.486 196.843C89.0706 197.404 85.127 197.24 84.8283 196.58C84.798 196.515 84.759 196.399 84.7071 196.248C84.5989 196.437 84.495 196.632 84.3868 196.83L84.7201 203.075V203.218L95.9751 202.614C95.1872 199.271 93.6981 197.641 92.486 196.843ZM54.968 228.355L55.258 218.24C54.7559 216.377 54.3057 214.686 53.9204 213.237C53.7472 214.44 53.6001 215.549 53.4875 216.571C52.4226 226.168 53.994 228.04 54.968 228.355ZM22.9345 76.7135C23.5795 76.9594 26.034 75.4196 28.3629 73.8237C28.3629 73.5305 28.3413 73.2415 28.3283 72.9611C27.9993 66.3577 38.7911 62.2473 42.094 61.4882C42.8955 61.2821 43.6732 60.993 44.4143 60.6256C46.174 59.7571 47.885 58.7939 49.5396 57.7401L49.4963 57.615C49.4963 57.615 53.7559 54.9279 53.8468 51.5766C52.8761 48.5284 51.6511 45.5664 50.1846 42.7218C50.1024 42.5535 50.0114 42.3767 49.9249 42.2085C47.9118 41.5847 46.0328 40.593 44.3839 39.2842C43.7216 47.9104 31.194 55.3334 31.194 55.3334L29.8564 57.4899L29.5404 57.9989C30.2157 58.3957 30.5403 58.7149 30.3109 58.9003C29.3585 59.6594 27.0556 63.9553 26.1033 65.7711C25.8435 66.2628 25.6704 66.5691 25.6704 66.5691C25.6704 66.5691 23.6228 72.1201 22.4497 76.7653C22.6056 76.7004 22.7772 76.6825 22.9432 76.7135H22.9345Z" fill="url(#paint0_linear_284:80)"/>
<path d="M18.0949 54.3415L18.242 54.5356L18.7442 55.2041L28.3759 61.9844L30.4191 58.6374L31.7177 56.4808C31.7177 56.4808 50.9161 45.0079 42.661 33.949C34.4059 22.8901 22.2073 47.9667 22.2073 47.9667L18.0949 54.3415Z" fill="#FFC5D3"/>
<path d="M37.4662 27.3246C37.507 27.2438 37.6059 27.2112 37.6871 27.252C37.7682 27.2927 37.8009 27.3912 37.76 27.4721L36.6891 29.5908C36.6482 29.6716 36.5493 29.7042 36.4682 29.6635C36.3871 29.6227 36.3544 29.5242 36.3953 29.4433L37.4662 27.3246Z" fill="#3A3768"/>
<path d="M48.4574 30.2872L48.4613 30.2891C48.5061 30.3116 48.5242 30.3661 48.5016 30.4107L48.1823 31.0425C48.1597 31.0872 48.1051 31.1052 48.0602 31.0827L48.0563 31.0807C48.0115 31.0582 47.9935 31.0038 48.016 30.9591L48.3354 30.3273C48.3579 30.2826 48.4126 30.2647 48.4574 30.2872Z" fill="#3A3768"/>
<path d="M47.5834 31.783C47.6092 31.732 47.6716 31.7114 47.7229 31.7371C47.7741 31.7628 47.7948 31.8251 47.7689 31.8761L47.1634 33.0742C47.1376 33.1252 47.0751 33.1458 47.0239 33.1201C46.9726 33.0944 46.952 33.0321 46.9778 32.9811L47.5834 31.783Z" fill="#3A3768"/>
<path d="M46.6497 33.6478C46.6744 33.5989 46.7343 33.5792 46.7834 33.6038C46.8325 33.6285 46.8523 33.6881 46.8275 33.737L46.2123 34.9543C46.1875 35.0033 46.1276 35.023 46.0785 34.9983C46.0294 34.9737 46.0097 34.914 46.0344 34.8651L46.6497 33.6478Z" fill="#3A3768"/>
<path d="M40.8256 23.1647L48.9137 27.2231C49.392 27.4631 49.5845 28.044 49.3436 28.5206L40.1652 46.6799C39.9244 47.1565 39.3413 47.3483 38.863 47.1083L30.7749 43.0498C30.2966 42.8098 30.1041 42.2289 30.345 41.7524L39.5234 23.593C39.7643 23.1165 40.3473 22.9247 40.8256 23.1647Z" fill="#3A3768"/>
<path d="M41.8605 24.3177C41.9068 24.3406 41.9482 24.3724 41.9821 24.4114C42.0159 24.4504 42.0417 24.4957 42.0578 24.5446C42.0739 24.5936 42.0801 24.6453 42.0759 24.6967C42.0718 24.7481 42.0574 24.7981 42.0336 24.8439L41.999 24.9172C41.9751 24.9633 41.9607 25.0137 41.9565 25.0654C41.9523 25.1171 41.9584 25.1691 41.9745 25.2185C41.9906 25.2678 42.0164 25.3135 42.0503 25.3528C42.0842 25.3922 42.1256 25.4244 42.1722 25.4478L46.3365 27.5353C46.3825 27.559 46.4327 27.5733 46.4843 27.5775C46.5358 27.5816 46.5877 27.5754 46.6369 27.5594C46.686 27.5433 46.7315 27.5177 46.7706 27.4839C46.8097 27.4502 46.8417 27.409 46.8646 27.3628L46.9036 27.2895C46.9266 27.2433 46.9585 27.2021 46.9975 27.1682C47.0365 27.1344 47.0818 27.1085 47.1309 27.092C47.1799 27.0756 47.2317 27.069 47.2833 27.0725C47.3349 27.0761 47.3854 27.0897 47.4317 27.1126L48.2412 27.5224C48.3299 27.5659 48.409 27.6266 48.474 27.7009C48.5389 27.7752 48.5883 27.8617 48.6194 27.9552C48.6504 28.0488 48.6624 28.1475 48.6547 28.2458C48.647 28.344 48.6197 28.4397 48.5745 28.5273L39.7264 46.0257C39.6355 46.2029 39.4782 46.3372 39.2885 46.3994C39.0988 46.4616 38.8921 46.4467 38.7134 46.3578L31.4496 42.7132C31.2718 42.6227 31.137 42.4659 31.0745 42.2769C31.0121 42.0879 31.0271 41.882 31.1163 41.704L39.9688 24.1969C40.0133 24.1088 40.0749 24.0303 40.1499 23.9658C40.225 23.9014 40.312 23.8524 40.4061 23.8215C40.5002 23.7907 40.5995 23.7786 40.6983 23.7861C40.797 23.7935 40.8934 23.8203 40.9817 23.8648L41.8605 24.3177Z" fill="#6C63FF"/>
<path d="M44.2803 25.6429L45.3745 26.1919C45.4513 26.2304 45.4823 26.3238 45.4436 26.4004C45.4049 26.477 45.3112 26.5078 45.2343 26.4692L44.1402 25.9202C44.0633 25.8817 44.0324 25.7883 44.0711 25.7117C44.1098 25.6351 44.2035 25.6043 44.2803 25.6429Z" fill="#E6E8EC"/>
<path d="M43.7131 25.6935C43.6151 25.6935 43.5357 25.6143 43.5357 25.5167C43.5357 25.419 43.6151 25.3398 43.7131 25.3398C43.8112 25.3398 43.8906 25.419 43.8906 25.5167C43.8906 25.6143 43.8112 25.6935 43.7131 25.6935Z" fill="#E6E8EC"/>
<path d="M35.627 91.4343L38.3325 163.774C38.3325 163.774 29.242 160.755 27.8351 163.019C26.4282 165.284 29.3502 126.789 29.3502 126.789L35.627 91.4343Z" fill="#5F5570"/>
<path opacity="0.15" d="M35.627 91.4343L38.3325 163.774C38.3325 163.774 29.242 160.755 27.8351 163.019C26.4282 165.284 29.3502 126.789 29.3502 126.789L35.627 91.4343Z" fill="black"/>
<path d="M35.1936 329.877C40.8211 330.166 63.0411 329.877 63.0411 329.877C63.0411 329.877 68.8158 325.422 69.2486 325.422C69.6815 325.422 69.9672 327.72 69.9672 327.72L79.0578 325.133V320.535C79.0578 320.535 79.3478 307.444 76.6077 306.875C73.8675 306.306 61.7424 306.875 61.7424 306.875C61.3095 306.733 53.0848 314.496 50.7775 315.933C48.4702 317.369 48.9031 318.378 48.9031 318.378C48.9031 318.378 43.4184 322.976 39.0896 323.265C36.3927 323.446 33.3582 325.853 32.8171 327.72C32.4881 328.846 33.0725 329.769 35.1936 329.877Z" fill="#BC8487"/>
<path opacity="0.1" d="M35.1937 329.877C40.8212 330.166 63.0411 329.877 63.0411 329.877C63.0411 329.877 68.8158 325.422 69.2487 325.422C69.6816 325.422 69.9673 327.721 69.9673 327.721L79.0579 325.133V320.625L70.5474 323.696L63.7641 327.721H32.8172C32.4882 328.846 33.0726 329.769 35.1937 329.877Z" fill="black"/>
<g opacity="0.1">
<path d="M60.4612 323.123C60.4612 323.123 53.535 316.511 48.9032 318.378L60.4612 323.123Z" fill="black"/>
<path d="M60.4612 323.123C60.4612 323.123 53.535 316.511 48.9032 318.378" stroke="black" stroke-miterlimit="10"/>
</g>
<path d="M104.313 298.823C104.023 299.685 106.62 300.837 106.62 300.837V312.193C106.62 312.193 105.443 319.012 107.144 321.001C107.272 321.162 107.433 321.294 107.617 321.387C107.801 321.48 108.003 321.532 108.209 321.54C111.382 321.682 118.308 300.116 118.308 300.116L118.741 287.656L120.472 286.461L122.927 270.645H118.451C118.451 270.645 117.979 270.356 117.221 269.968C115.057 268.868 110.525 266.949 108.062 268.777L99.6939 287.561C99.6939 287.561 104.598 297.96 104.313 298.823Z" fill="#BC8487"/>
<path opacity="0.1" d="M107.144 321.001C107.272 321.162 107.433 321.294 107.617 321.387C107.801 321.48 108.003 321.532 108.209 321.54C111.382 321.682 118.308 300.117 118.308 300.117L118.741 287.656L120.472 286.461L122.927 270.645H118.451C118.451 270.645 117.979 270.356 117.221 269.968L116.143 286.172L115.568 300.117C115.568 300.117 110.131 315.299 107.144 321.001Z" fill="black"/>
<path d="M26.861 239.914C28.2679 241.962 37.4667 246.923 37.4667 246.923C37.4667 246.923 41.3626 247.138 45.9079 250.589C48.2585 252.374 56.427 255.915 63.7644 258.922C70.6169 261.73 76.7509 264.067 76.7509 264.067L83.8156 272.262L89.1963 278.503C89.1963 278.503 92.443 277.209 92.7676 279.582C93.0923 281.954 97.9622 284.65 97.854 285.081C97.7458 285.512 99.6938 286.59 99.6938 287.561C99.6938 288.531 106.945 280.552 106.836 275.7C106.728 270.847 110.516 267.505 110.516 267.505C110.516 267.505 109.542 265.78 108.027 266.103C106.512 266.427 105.213 265.78 104.78 265.24C104.347 264.701 102.508 265.995 101.642 265.564C100.776 265.133 97.3129 256.614 97.3129 256.614L83.8199 247.595L56.9811 229.67L55.743 228.842C55.743 228.842 52.1717 230.472 53.6219 217.114C53.9033 214.527 54.3751 211.382 55.0937 207.552C59.5308 183.938 43.6223 181.242 43.6223 181.242L29.6618 185.879L26.3069 191.055V191.08L25.5494 222.972C25.5494 222.972 25.4541 237.865 26.861 239.914Z" fill="#433A59"/>
<path opacity="0.1" d="M63.8724 255.01C63.8724 255.01 63.8291 256.541 63.7642 258.922C70.6167 261.73 76.7507 264.067 76.7507 264.067L83.8153 272.262C83.9322 265.469 83.9062 256.645 83.8153 247.6L56.9765 229.675C60.2967 241.937 63.8724 255.01 63.8724 255.01Z" fill="black"/>
<path opacity="0.1" d="M26.3198 191.068V191.094L47.3147 191.499C47.3147 191.499 50.9942 205.84 51.5353 208.859C51.6695 209.601 52.4833 212.771 53.6348 217.128C53.9162 214.54 54.388 211.396 55.1066 207.565C59.5437 183.951 43.6352 181.255 43.6352 181.255L29.6747 185.892L26.3198 191.068Z" fill="black"/>
<path d="M81.6208 151.926L84.3264 203.683C84.3264 203.683 86.2743 279.702 84.3264 284.662C82.3784 289.623 81.6208 297.386 81.6208 297.386C81.6208 297.386 82.8113 303.317 81.6208 305.258C80.4304 307.199 76.6427 309.355 76.7509 310.433C76.8591 311.512 65.1712 317.334 59.1109 308.061C59.1109 308.061 62.7904 302.885 62.0328 300.621C61.2753 298.357 62.3575 295.014 62.3575 295.014C62.3575 295.014 64.4137 288.652 64.4137 285.404C64.4137 282.156 65.1712 254.997 65.1712 254.997C65.1712 254.997 53.3752 211.865 52.834 208.846C52.2929 205.827 48.6134 191.486 48.6134 191.486L26.3199 191.054C26.3199 191.054 26.9692 175.635 28.2679 172.292C29.5665 168.95 35.9516 144.473 35.9516 144.473L81.6208 151.926Z" fill="#433A59"/>
<path d="M118.827 202.666L120.762 203.218L120.84 205.124L62.825 205.87V205.12L118.827 202.666Z" fill="#7B728F"/>
<path d="M50.3968 43.9337C58.8381 60.9921 53.5958 64.5591 52.7604 64.999C54.5482 64.1709 77.7854 53.2932 74.7292 50.5328C72.7423 48.7342 71.0411 40.9102 70.0411 35.3031C69.4481 31.9561 69.1017 29.3984 69.1017 29.3984L44.7174 33.8539C47.0809 37.6495 48.9596 40.9921 50.3968 43.9337Z" fill="#FFC5D3"/>
<path opacity="0.1" d="M18.2249 54.5355L18.727 55.204L28.376 61.9843L30.4192 58.6373C27.4453 56.912 18.5279 53.8928 18.5279 53.8928L18.2249 54.5355Z" fill="black"/>
<path d="M9.32918 70.0843C10.195 73.1035 24.8048 70.0843 24.8048 70.0843L26.3199 67.7121C26.3199 67.7121 26.4714 67.4102 26.7268 66.9185C27.6618 65.1113 29.9258 60.8327 30.8608 60.0735C32.0513 59.1031 18.0908 54.3586 18.0908 54.3586L13.8139 63.6319C12.7596 64.3381 11.7869 65.1583 10.9135 66.0774C9.83132 67.2463 8.93526 68.7084 9.32918 70.0843Z" fill="#E5E8EF"/>
<path d="M33.5708 71.4731C33.5708 71.4731 24.9131 78.2793 23.6145 77.7876C22.3158 77.2959 1.32094 91.4214 1.32094 91.4214C1.32094 91.4214 -1.05993 100.479 8.78819 101.018C8.78819 101.018 29.6748 100.155 30.5406 97.1363C31.4064 94.1171 33.5708 71.4731 33.5708 71.4731Z" fill="#5F5570"/>
<path opacity="0.1" d="M57.1629 57.7917L66.5781 67.4963L53.3752 151.171L48.1806 148.152C48.1806 148.152 34.7611 154.082 33.6789 148.583C32.5967 143.084 32.8954 121.41 32.8954 121.41L34.6529 82.2558C34.6529 82.2558 40.8215 68.5616 40.8215 68.1303C40.8215 67.699 49.7173 61.0137 49.7173 61.0137L53.9163 57.7788L57.1629 57.7917Z" fill="black"/>
<path d="M57.1629 56.4978L66.5781 66.2023L53.3752 149.877L48.1806 146.858C48.1806 146.858 34.7611 152.788 33.6789 147.289C32.5967 141.79 32.8954 120.116 32.8954 120.116L34.6529 80.9619C34.6529 80.9619 40.8215 67.2677 40.8215 66.8364C40.8215 66.4051 49.7173 59.7197 49.7173 59.7197L53.9163 56.4849L57.1629 56.4978Z" fill="#E5E8EF"/>
<path opacity="0.1" d="M56.6219 57.8995L59.2192 63.1831L56.6219 65.9133C56.6219 65.9133 47.3149 84.6409 49.1547 95.7472L47.2067 132.301L40.9299 138.447L35.9517 132.719L38.3326 99.5083C38.3326 99.5083 44.7176 72.1199 51.4273 63.6014L53.3753 56.0535L56.6219 57.8995Z" fill="black"/>
<path d="M56.6219 57.0369L59.2192 62.3205L56.6219 65.0507C56.6219 65.0507 47.3149 83.7784 49.1547 94.8847L47.2067 131.438L40.9299 137.585L35.9517 131.857L38.3326 98.6457C38.3326 98.6457 44.7176 71.2573 51.4273 62.7389L53.3753 55.1909L56.6219 57.0369Z" fill="#BC8487"/>
<path opacity="0.1" d="M44.7175 33.854C47.0811 37.6495 48.9425 40.9922 50.397 43.9338C51.929 44.3839 53.5181 44.612 55.1154 44.6109C60.4659 44.6109 63.548 40.9232 66.5782 37.0069C67.2708 36.1184 69.5478 36.3254 70.0413 35.2816C69.4482 31.9346 69.1019 29.377 69.1019 29.377L44.7175 33.854Z" fill="black"/>
<path d="M38.5229 27.643C38.5231 31.5803 39.9336 35.3883 42.5006 38.3817C45.0677 41.3751 48.6226 43.3573 52.5259 43.9718C56.4291 44.5863 60.4243 43.7925 63.7925 41.7335C67.1607 39.6745 69.6808 36.4853 70.8993 32.7398C72.1177 28.9944 71.9546 24.9386 70.4392 21.3023C68.9239 17.666 66.1557 14.688 62.633 12.9041C59.1102 11.1202 55.0641 10.6476 51.2227 11.5713C47.3814 12.495 43.997 14.7543 41.6786 17.9428C39.6271 20.7641 38.5227 24.1591 38.5229 27.643Z" fill="#FFC5D3"/>
<path opacity="0.1" d="M60.4094 64.4773L74.0453 48.0874C74.0453 48.0874 75.305 47.5827 71.0497 43.1445C71.0497 43.1445 55.4226 55.2817 54.4529 57.3434C53.4833 59.405 60.4094 64.4773 60.4094 64.4773Z" fill="black"/>
<path d="M60.8425 63.6147L74.4784 47.2248C74.4784 47.2248 75.7381 46.7202 71.4828 42.282C71.4828 42.282 55.8557 54.4191 54.886 56.4808C53.9164 58.5425 60.8425 63.6147 60.8425 63.6147Z" fill="#E5E8EF"/>
<path d="M26.3198 167.928C26.3198 167.928 28.9171 166.375 28.9171 164.542C28.9171 162.709 30.2158 136.83 30.2158 136.83C30.2158 136.83 32.1205 121.385 34.1117 109.109C35.2805 101.876 36.4796 95.7388 37.3281 94.5225L37.3627 94.4707C39.6353 91.5593 39.2024 77.326 53.3794 56.5151C53.1889 56.6445 48.3017 60.0605 44.7217 61.7772C43.9931 62.142 43.2286 62.4311 42.4404 62.6398C39.1938 63.3946 28.5881 67.4921 28.9128 74.0696C29.2375 80.6471 28.1552 95.7431 28.1552 95.7431V126.681L26.3198 167.928Z" fill="#5F5570"/>
<path d="M26.3198 67.7119C26.3198 67.7119 21.7745 80.22 22.4239 83.347C23.0732 86.474 11.9264 98.7665 11.9264 98.7665L1.32076 91.4341C1.32076 91.4341 5.32494 83.4548 4.78384 81.0826C4.24273 78.7104 7.59758 73.6425 7.59758 73.6425L7.38114 65.2405C7.38114 65.2405 9.32912 68.8851 26.3198 67.7119Z" fill="#5F5570"/>
<path opacity="0.1" d="M41.6786 17.943L49.9034 18.2535C50.7067 18.2483 51.5072 18.3484 52.2843 18.5512C55.2236 19.4526 56.5785 22.5667 56.6867 25.3659C56.7949 28.1651 58.4183 31.3008 61.5653 31.5466C61.8786 31.5996 62.2002 31.5284 62.4614 31.3482C62.661 31.1367 62.7935 30.8711 62.8423 30.5848C63.2938 28.9537 63.9915 27.4005 64.9115 25.9784C66.2102 26.2113 67.1712 27.4405 67.5088 28.7258C67.8465 30.0111 67.7556 31.3655 67.7512 32.6982C67.7473 34.3909 67.9112 36.0797 68.2404 37.7403C69.5824 36.0045 70.5646 34.0203 71.1302 31.903C71.6957 29.7856 71.8332 27.5774 71.5346 25.4067C71.236 23.2359 70.5073 21.146 69.3909 19.2583C68.2745 17.3706 66.7927 15.7229 65.0315 14.4109C63.2703 13.0988 61.265 12.1487 59.132 11.6157C56.9991 11.0828 54.781 10.9775 52.6069 11.3062C50.4328 11.6348 48.3459 12.3908 46.4676 13.5302C44.5893 14.6695 42.957 16.1695 41.6657 17.943H41.6786Z" fill="black"/>
<path d="M52.7129 18.12C51.9358 17.9172 51.1353 17.8171 50.332 17.8224L40.3454 17.4515C38.8822 17.3954 37.2502 17.266 36.2676 16.1834C35.9149 15.77 35.6551 15.2862 35.5057 14.7644C35.2486 13.9307 35.1731 13.0519 35.2843 12.1869C35.3956 11.3218 35.691 10.4904 36.1507 9.74821C37.3065 7.91512 39.3324 6.84978 41.2631 5.86639C43.06 4.90989 44.9051 4.04612 46.791 3.27851C53.7963 0.627808 61.5525 0.73887 68.4785 3.58905C69.1629 3.85076 69.8115 4.19709 70.4092 4.61989C71.244 5.33259 71.9548 6.17786 72.513 7.12151L75.7986 12.0557C76.2519 12.6582 76.6015 13.3316 76.8332 14.0484C77.4522 16.3904 75.5345 18.7325 75.7337 21.1435C75.8462 22.3426 76.4825 23.4424 76.5994 24.6414C76.7553 26.1899 76.0453 27.6606 75.3484 29.071L69.5737 40.6777C68.6412 37.9712 68.1687 35.1286 68.1755 32.2671C68.1755 30.9343 68.288 29.58 67.9331 28.2947C67.5781 27.0094 66.6344 25.7801 65.3358 25.5472C64.4134 26.9686 63.7142 28.522 63.2623 30.1536C63.2145 30.4402 63.0818 30.7061 62.8813 30.9171C62.6203 31.0977 62.2985 31.1689 61.9853 31.1155C58.8209 30.8696 57.2235 27.7642 57.1067 24.9347C56.9898 22.1053 55.6522 19.0214 52.7129 18.12Z" fill="#8F7080"/>
<path d="M120.762 203.218L116.719 202.066L55.756 205.374L62.4657 206.237L120.762 203.218Z" fill="#7B728F"/>
<path opacity="0.1" d="M120.762 203.218L116.719 202.066L55.756 205.374L62.4657 206.237L120.762 203.218Z" fill="black"/>
<path d="M54.098 263.602L62.141 262.855L64.9634 262.597V218.025L64.2188 207.677L64.0543 205.374H55.7559L54.098 263.602Z" fill="#7B728F"/>
<path opacity="0.1" d="M56.297 262.019L62.7124 261.311L64.9634 261.065V218.805L64.3703 208.997L64.2405 206.811H57.6217L56.297 262.019Z" fill="black"/>
<path d="M100.291 203.218C100.291 203.218 96.2868 194.466 94.6073 194.194C92.9277 193.923 89.8455 194.194 89.8455 194.194L90.1182 196.731C90.1182 196.731 94.2306 197.054 95.5293 203.899L100.291 203.218Z" fill="#7B728F"/>
<path opacity="0.1" d="M100.291 203.218C100.291 203.218 96.2868 194.466 94.6073 194.194C92.9277 193.923 89.8455 194.194 89.8455 194.194L90.1182 196.731C90.1182 196.731 94.2306 197.054 95.5293 203.899L100.291 203.218Z" fill="black"/>
<path d="M84.759 193.28C84.759 193.28 73.9932 198.616 75.4001 204.87L81.244 204.546C81.244 204.546 84.0578 195.221 86.2741 194.734C88.4905 194.246 84.759 193.28 84.759 193.28Z" fill="#7B728F"/>
<path d="M44.7173 108.795V109.11L44.9337 145.025C44.9337 145.025 50.453 175.217 51.9681 176.403C53.4832 177.589 86.7071 174.354 86.7071 174.354L101.75 73.3193C101.858 56.0668 89.629 56.6059 89.629 56.6059C88.0057 54.0181 80.2138 51.9693 80.2138 51.9693L75.8849 47.764L75.7464 47.5699C75.4588 47.1426 75.0878 46.7774 74.6555 46.4959C73.7638 45.9827 73.1967 46.6599 72.8721 47.3284C72.7259 47.6423 72.6128 47.9704 72.5344 48.3075C54.9983 61.1218 44.7173 108.795 44.7173 108.795Z" fill="#5F5570"/>
<path opacity="0.1" d="M45.1505 109.226V109.541C50.5918 99.6205 71.5564 62.0359 77.2921 60.164L75.0844 58.6544C75.0844 58.6544 73.6126 57.7918 76.3181 56.9292C76.3181 56.9292 80.5388 57.4683 80.647 52.4004L76.1796 48.001L75.0887 46.927L73.3052 47.7594C73.1591 48.0733 73.046 48.4014 72.9676 48.7385C55.4315 61.5528 45.1505 109.226 45.1505 109.226Z" fill="black"/>
<path d="M44.7176 108.794V109.109C50.159 99.1892 71.1235 61.6045 76.8593 59.7326L74.6515 58.223C74.6515 58.223 73.1797 57.3604 75.8853 56.4978C75.8853 56.4978 80.1059 57.0369 80.2141 51.969L75.7467 47.5696L74.6559 46.4956L72.8724 47.328C72.7262 47.6419 72.6131 47.97 72.5347 48.3071C54.9986 61.1214 44.7176 108.794 44.7176 108.794Z" fill="#433A59"/>
<path opacity="0.1" d="M36.891 94.9365L36.9257 94.8848C39.1983 91.9734 38.7654 77.7401 52.9424 56.9292C52.7519 57.0586 47.8647 60.4746 44.2847 62.1912L45.2847 65.4778L43.1202 66.6294L36.891 94.9365Z" fill="black"/>
<path d="M37.3239 94.5054L37.3585 94.4536C39.6312 91.5422 39.1983 77.3089 53.3752 56.498C53.1848 56.6274 48.2975 60.0434 44.7176 61.7601L45.7175 65.0467L43.5531 66.1983L37.3239 94.5054Z" fill="#433A59"/>
<path opacity="0.1" d="M53.9983 53.1768L54.8857 56.9119C54.8857 56.9119 54.2364 60.6514 50.3448 60.9749L49.7171 59.1936C49.7171 59.1936 53.9161 56.5108 53.9983 53.1768Z" fill="black"/>
<path d="M53.9983 52.7454L54.8857 56.4805C54.8857 56.4805 54.2364 60.22 50.3448 60.5435L49.7171 58.7622C49.7171 58.7622 53.9161 56.0794 53.9983 52.7454Z" fill="#E5E8EF"/>
<path opacity="0.1" d="M59.5956 205.978L62.141 262.856L64.9634 262.597V218.025L64.2188 207.678L59.5956 205.978Z" fill="black"/>
<path d="M120.182 227.945L121.913 258.711L63.0411 263.602L60.4611 205.978L120.182 227.945Z" fill="#7B728F"/>
<path opacity="0.1" d="M121.48 231.253L120.329 204.08L60.0282 206.841L62.8983 235.566L121.48 231.253Z" fill="black"/>
<path d="M121.913 230.39L120.762 203.218L60.4611 205.978L63.3311 234.704L121.913 230.39Z" fill="#7B728F"/>
<path d="M89.3046 230.425H96.5554V238.836H89.3046V230.425Z" fill="#C3BBC8"/>
<path d="M95.4727 175.325L96.5549 178.236C96.5549 178.236 98.8275 194.195 96.0138 196.136C93.2 198.076 84.867 198.184 84.4341 197.214C84.0013 196.243 80.9711 185.245 80.9711 185.245C80.9711 185.245 78.2655 193.332 76.8587 192.685C75.4518 192.038 80.1053 176.666 80.1053 176.666L95.4727 175.325Z" fill="#FFC5D3"/>
<path opacity="0.1" d="M96.5554 163.248V178.667C96.5554 178.667 85.084 180.824 80.1058 177.097C80.1058 177.097 84.7593 162.17 83.0278 158.396C81.2963 154.622 96.5554 163.248 96.5554 163.248Z" fill="black"/>
<path d="M96.5554 162.817V178.236C96.5554 178.236 85.084 180.393 80.1058 176.666C80.1058 176.666 84.7593 161.739 83.0278 157.965C81.2963 154.191 96.5554 162.817 96.5554 162.817Z" fill="#E5E8EF"/>
<path opacity="0.1" d="M97.8538 72.5644L100.884 74.1818C100.884 74.1818 101.425 80.6515 101.75 81.5141C102.074 82.3768 101.75 91.1109 101.75 91.1109L101.897 108.795C101.897 108.795 102.364 118.176 101.897 121.518C101.429 124.861 100.906 137.585 100.906 137.585C100.906 137.585 97.9793 149.985 99.0616 154.406C100.144 158.827 98.9533 168.747 97.1136 167.885C95.2738 167.022 78.2831 163.679 77.4173 163.032C76.5516 162.385 76.9845 156.347 77.4173 155.592C77.8502 154.837 80.4475 144.594 80.2311 142.221C80.0147 139.849 80.9886 119.038 80.9886 119.038C80.9886 119.038 79.3653 96.8258 78.716 91.65C78.0667 86.4742 80.0147 71.2704 81.7462 71.0548C83.4777 70.8391 88.5468 59.0858 97.8538 72.5644Z" fill="black"/>
<path d="M98.7195 71.7018L101.75 73.3193C101.75 73.3193 102.291 79.789 102.615 80.6516C102.94 81.5142 102.615 90.2483 102.615 90.2483L102.763 107.932C102.763 107.932 103.23 117.313 102.763 120.656C102.295 123.999 101.771 136.722 101.771 136.722C101.771 136.722 98.8451 149.123 99.9273 153.544C101.009 157.964 99.8191 167.885 97.9793 167.022C96.1395 166.159 79.1488 162.817 78.2831 162.17C77.4173 161.523 77.8502 155.484 78.2831 154.73C78.716 153.975 81.3133 143.731 81.0968 141.359C80.8804 138.987 81.8544 118.176 81.8544 118.176C81.8544 118.176 80.2311 95.9632 79.5817 90.7874C78.9324 85.6117 80.8804 70.4079 82.6119 70.1922C84.3435 69.9766 89.4125 58.2233 98.7195 71.7018Z" fill="#5F5570"/>
<g opacity="0.1">
<path opacity="0.1" d="M65.9892 23.9294C67.2878 24.1624 68.2488 25.3916 68.5865 26.6769C68.9241 27.9622 68.8332 29.3165 68.8289 30.6493C68.8206 33.5106 69.2917 36.3532 70.2228 39.0599L76.0018 27.4533C76.1143 27.2247 76.2312 26.9875 76.3438 26.7502C76.0764 27.549 75.7448 28.325 75.3524 29.0707L69.5734 40.6773C68.6423 37.9706 68.1712 35.128 68.1796 32.2667C68.1796 30.934 68.2878 29.5796 67.9371 28.2943C67.5865 27.009 66.6385 25.7798 65.3398 25.5469C64.9206 26.2011 64.5461 26.8827 64.2187 27.587C64.6584 26.301 65.2529 25.0729 65.9892 23.9294Z" fill="black"/>
<path opacity="0.1" d="M36.0466 9.93335C35.7926 10.9945 35.8285 12.104 36.1505 13.1466C36.3014 13.6687 36.5626 14.1525 36.9167 14.5657C37.8993 15.6482 39.514 15.7776 40.9945 15.8337L50.9768 16.2046C51.7815 16.1994 52.5834 16.2994 53.362 16.5023C56.2969 17.4037 57.6562 20.5178 57.7644 23.317C57.8726 26.1162 59.4959 29.2519 62.643 29.4977C62.9562 29.5507 63.2778 29.4795 63.5391 29.2993C63.4395 29.5797 63.3443 29.8643 63.262 30.1619C63.2175 30.4487 63.0861 30.7151 62.8854 30.9254C62.6242 31.1056 62.3026 31.1768 61.9893 31.1238C58.8206 30.8779 57.2276 27.7725 57.1107 24.943C56.9939 22.1136 55.6433 19.0297 52.7083 18.1283C51.9298 17.9255 51.1278 17.8254 50.3231 17.8307L40.3408 17.4598C38.8777 17.4037 37.2457 17.2743 36.263 16.1917C35.909 15.7786 35.6478 15.2947 35.4969 14.7727C35.2515 13.9715 35.1736 13.1286 35.2682 12.2962C35.3628 11.4639 35.6277 10.6596 36.0466 9.93335Z" fill="black"/>
</g>
<path opacity="0.1" d="M52.3015 186.836C52.3015 186.836 48.5527 184.896 47.1069 185.003C45.6611 185.111 32.6789 201.561 32.6789 201.561L52.3015 186.836Z" fill="black"/>
<path opacity="0.1" d="M90.7544 75.5061C90.7544 75.5061 97.607 78.4218 97.4252 80.436C97.2433 82.4502 90.7544 75.5061 90.7544 75.5061Z" fill="black"/>
<path opacity="0.1" d="M94.0921 85.0378C94.0921 85.0378 101.282 94.1989 99.6936 94.5052C98.105 94.8114 94.0921 85.0378 94.0921 85.0378Z" fill="black"/>
<path opacity="0.1" d="M70.041 98.7666C70.041 98.7666 69.383 119.254 74.6555 121.842L70.041 98.7666Z" fill="black"/>
<path opacity="0.1" d="M97.4429 153.47C97.4429 153.47 92.3695 150.598 91.205 151.171C90.0406 151.745 97.4429 153.47 97.4429 153.47Z" fill="black"/>
<path opacity="0.1" d="M96.5554 157.443C96.5554 157.443 93.3521 157.671 91.8326 157.011C90.3132 156.351 96.5554 157.443 96.5554 157.443Z" fill="black"/>
<path opacity="0.1" d="M20.0862 82.0015C20.0862 82.0015 16.1123 93.3752 13.8224 93.3752L20.0862 82.0015Z" fill="black"/>
<path opacity="0.1" d="M76.595 299.832C76.595 299.832 69.1407 297.818 68.0412 299.832C66.9417 301.846 76.595 299.832 76.595 299.832Z" fill="black"/>
<path opacity="0.1" d="M100.291 269.968C100.291 269.968 102.148 272.802 99.6935 273.664C97.239 274.527 100.291 269.968 100.291 269.968Z" fill="black"/>
<path opacity="0.1" d="M50.7778 230.425C50.7778 230.425 45.1503 235.42 42.4924 235.566C39.8345 235.713 50.7778 230.425 50.7778 230.425Z" fill="black"/>
<defs>
<linearGradient id="paint0_linear_284:80" x1="61.998" y1="329.877" x2="61.998" y2="-0.00413735" gradientUnits="userSpaceOnUse">
<stop stop-color="#808080" stop-opacity="0.25"/>
<stop offset="0.54" stop-color="#808080" stop-opacity="0.12"/>
<stop offset="1" stop-color="#808080" stop-opacity="0.1"/>
</linearGradient>
</defs>
</svg>
