<svg width="49" height="49" viewBox="0 0 49 49" fill="none" xmlns="http://www.w3.org/2000/svg">
<g clip-path="url(#clip0)">
<path d="M48.1833 31.0333H0.816667C0.365867 31.0333 0 30.6683 0 30.2166V4.90078C0 3.09922 1.46592 1.6333 3.26748 1.6333H45.7325C47.5341 1.6333 49 3.09922 49 4.90078V30.2166C49 30.6683 48.6341 31.0333 48.1833 31.0333ZM1.63333 29.4H47.3667V4.90078C47.3667 3.99918 46.6341 3.26663 45.7325 3.26663H3.26748C2.36588 3.26663 1.63333 3.99918 1.63333 4.90078V29.4Z" fill="#B961FF"/>
<path d="M45.7325 37.5671H3.26748C1.46592 37.5671 0 36.1011 0 34.2996V30.2171C0 29.7654 0.365867 29.4004 0.816667 29.4004H48.1833C48.6341 29.4004 49 29.7654 49 30.2171V34.2996C49 36.1011 47.5341 37.5671 45.7325 37.5671ZM1.63333 31.0337V34.2996C1.63333 35.2012 2.36588 35.9337 3.26748 35.9337H45.7325C46.6341 35.9337 47.3667 35.2012 47.3667 34.2996V31.0337H1.63333Z" fill="#B961FF"/>
<path d="M26.9501 34.2998H22.0501C21.5993 34.2998 21.2334 33.9348 21.2334 33.4832C21.2334 33.0316 21.5993 32.6665 22.0501 32.6665H26.9501C27.4009 32.6665 27.7667 33.0316 27.7667 33.4832C27.7667 33.9348 27.4009 34.2998 26.9501 34.2998Z" fill="#B961FF"/>
<path d="M44.9166 31.0337H4.08327C3.63247 31.0337 3.2666 30.6687 3.2666 30.2171V5.71706C3.2666 5.26544 3.63247 4.90039 4.08327 4.90039H44.9166C45.3674 4.90039 45.7333 5.26544 45.7333 5.71706V30.2171C45.7333 30.6687 45.3674 31.0337 44.9166 31.0337ZM4.89993 29.4004H44.0999V6.53372H4.89993V29.4004Z" fill="#B961FF"/>
<path d="M35.1169 47.3668H13.8836C12.5328 47.3668 11.4336 46.2676 11.4336 44.9168C11.4336 43.566 12.5328 42.4668 13.8836 42.4668H35.1169C36.4677 42.4668 37.5669 43.566 37.5669 44.9168C37.5669 46.2676 36.4677 47.3668 35.1169 47.3668ZM13.8836 44.1001C13.4336 44.1001 13.0669 44.466 13.0669 44.9168C13.0669 45.3676 13.4336 45.7335 13.8836 45.7335H35.1169C35.5669 45.7335 35.9336 45.3676 35.9336 44.9168C35.9336 44.466 35.5669 44.1001 35.1169 44.1001H13.8836Z" fill="#B961FF"/>
<path d="M33.4826 44.1003H15.5159C15.0651 44.1003 14.6992 43.7352 14.6992 43.2836C14.6992 42.832 15.0651 42.4669 15.5159 42.4669C18.2256 42.4669 19.5992 40.5437 19.5992 36.7503C19.5992 36.2986 19.9651 35.9336 20.4159 35.9336H28.5826C29.0334 35.9336 29.3992 36.2986 29.3992 36.7503C29.3992 40.5437 30.7729 42.4669 33.4826 42.4669C33.9334 42.4669 34.2992 42.832 34.2992 43.2836C34.2992 43.7352 33.9334 44.1003 33.4826 44.1003ZM19.4939 42.4669H29.5054C28.4993 41.3538 27.9072 39.6943 27.7888 37.5669H21.2105C21.0913 39.6943 20.5 41.3538 19.4939 42.4669Z" fill="#B961FF"/>
<path d="M40.0165 27.7667H23.6832C23.3263 27.7667 23.011 27.5355 22.9041 27.1958C22.7971 26.8561 22.922 26.4853 23.2144 26.2811L31.3811 20.5645C31.662 20.3685 32.0368 20.3685 32.317 20.5645L40.4836 26.2811C40.776 26.4853 40.9018 26.8561 40.794 27.1958C40.6886 27.5355 40.3734 27.7667 40.0165 27.7667ZM26.2736 26.1333H37.4252L31.8498 22.2305L26.2736 26.1333Z" fill="#B961FF"/>
<path d="M40.0165 27.7667C39.8515 27.7667 39.6882 27.7169 39.5486 27.6189L32.5489 22.7189C32.33 22.5654 32.2002 22.3163 32.2002 22.05C32.2002 21.7838 32.33 21.5339 32.5489 21.3812L39.5486 16.4812C39.7976 16.3056 40.1235 16.2844 40.3938 16.4265C40.6633 16.5661 40.8332 16.8454 40.8332 17.15V26.95C40.8332 27.2547 40.6633 27.534 40.3938 27.6744C40.2746 27.7365 40.1455 27.7667 40.0165 27.7667ZM34.4403 22.05L39.1998 25.3812V18.7189L34.4403 22.05Z" fill="#B961FF"/>
<path d="M23.6839 27.7668C23.5548 27.7668 23.4258 27.7366 23.3066 27.6745C23.0371 27.534 22.8672 27.2547 22.8672 26.9501V17.1501C22.8672 16.8455 23.0371 16.5662 23.3066 16.4257C23.5769 16.2836 23.9027 16.3057 24.1518 16.4804L31.1515 21.3804C31.3703 21.534 31.5002 21.7831 31.5002 22.0493C31.5002 22.3155 31.3703 22.5654 31.1515 22.7181L24.1518 27.6181C24.0122 27.717 23.8488 27.7668 23.6839 27.7668ZM24.5005 18.7189V25.3813L29.2601 22.0501L24.5005 18.7189Z" fill="#B961FF"/>
<path d="M33.017 22.8665C32.8529 22.8665 32.6895 22.8167 32.5491 22.7187L31.85 22.2303L31.1518 22.7195C30.8708 22.9155 30.496 22.9155 30.2159 22.7195L24.8495 18.9628C24.6298 18.8093 24.5 18.5602 24.5 18.2932V8.98317C24.5 8.53155 24.8659 8.1665 25.3167 8.1665H38.3833C38.8341 8.1665 39.2 8.53155 39.2 8.98317V18.2932C39.2 18.5594 39.0702 18.8093 38.8513 18.962L33.485 22.7187C33.3445 22.8167 33.1804 22.8665 33.017 22.8665ZM31.85 20.4165C32.0142 20.4165 32.1775 20.4663 32.318 20.5643L33.0162 21.0535L37.5667 17.8685V9.79984H26.1333V17.8685L30.683 21.0527L31.3812 20.5635C31.5225 20.4663 31.6859 20.4165 31.85 20.4165Z" fill="#B961FF"/>
<path d="M33.4828 13.8833H30.2161C29.7653 13.8833 29.3994 13.5183 29.3994 13.0667C29.3994 12.615 29.7653 12.25 30.2161 12.25H33.4828C33.9336 12.25 34.2994 12.615 34.2994 13.0667C34.2994 13.5183 33.9336 13.8833 33.4828 13.8833Z" fill="#B961FF"/>
<path d="M35.1166 17.1499H28.5833C28.1325 17.1499 27.7666 16.7849 27.7666 16.3333C27.7666 15.8817 28.1325 15.5166 28.5833 15.5166H35.1166C35.5674 15.5166 35.9333 15.8817 35.9333 16.3333C35.9333 16.7849 35.5674 17.1499 35.1166 17.1499Z" fill="#B961FF"/>
<path d="M19.6003 18.7837H12.2503C11.7995 18.7837 11.4336 18.4187 11.4336 17.9671C11.4336 17.5154 11.7995 17.1504 12.2503 17.1504H19.6003C20.0511 17.1504 20.4169 17.5154 20.4169 17.9671C20.4169 18.4187 20.0511 18.7837 19.6003 18.7837Z" fill="#B961FF"/>
<path d="M8.98392 18.7837H8.16725C7.71645 18.7837 7.35059 18.4187 7.35059 17.9671C7.35059 17.5154 7.71645 17.1504 8.16725 17.1504H8.98392C9.43472 17.1504 9.80059 17.5154 9.80059 17.9671C9.80059 18.4187 9.43472 18.7837 8.98392 18.7837Z" fill="#B961FF"/>
<path d="M13.8834 15.5166H9.80007C9.34927 15.5166 8.9834 15.1516 8.9834 14.7C8.9834 14.2484 9.34927 13.8833 9.80007 13.8833H13.8834C14.3342 13.8833 14.7001 14.2484 14.7001 14.7C14.7001 15.1516 14.3342 15.5166 13.8834 15.5166Z" fill="#B961FF"/>
<path d="M17.9663 15.5166H17.1497C16.6989 15.5166 16.333 15.1516 16.333 14.7C16.333 14.2484 16.6989 13.8833 17.1497 13.8833H17.9663C18.4171 13.8833 18.783 14.2484 18.783 14.7C18.783 15.1516 18.4171 15.5166 17.9663 15.5166Z" fill="#B961FF"/>
<path d="M13.8834 22.0498H9.80007C9.34927 22.0498 8.9834 21.6848 8.9834 21.2332C8.9834 20.7816 9.34927 20.4165 9.80007 20.4165H13.8834C14.3342 20.4165 14.7001 20.7816 14.7001 21.2332C14.7001 21.6848 14.3342 22.0498 13.8834 22.0498Z" fill="#B961FF"/>
<path d="M17.9663 22.0498H17.1497C16.6989 22.0498 16.333 21.6848 16.333 21.2332C16.333 20.7816 16.6989 20.4165 17.1497 20.4165H17.9663C18.4171 20.4165 18.783 20.7816 18.783 21.2332C18.783 21.6848 18.4171 22.0498 17.9663 22.0498Z" fill="#B961FF"/>
</g>
<defs>
<clipPath id="clip0">
<rect width="49" height="49" fill="white"/>
</clipPath>
</defs>
</svg>
