<svg width="157" height="337" viewBox="0 0 157 337" fill="none" xmlns="http://www.w3.org/2000/svg">
<path d="M49.5261 327.147L58.8419 327.147L63.2734 291.01L49.5248 291.01L49.5261 327.147Z" fill="#FFB8B8"/>
<path d="M47.1503 336.228L77.1875 336.227V335.845C77.1873 332.727 75.9554 329.736 73.7629 327.531C71.5704 325.326 68.5968 324.087 65.4961 324.087H65.4954L47.1497 324.088L47.1503 336.228Z" fill="#2F2E41"/>
<path d="M8.41145 304.115L14.458 311.242L44.668 291.175L35.7433 280.657L8.41145 304.115Z" fill="#FFB8B8"/>
<path d="M-0.000242233 308.191L19.4974 331.171L19.7864 330.923C22.145 328.899 23.6075 326.015 23.8522 322.906C24.0969 319.798 23.1038 316.719 21.0913 314.346L21.0908 314.346L9.18227 300.311L-0.000242233 308.191Z" fill="#2F2E41"/>
<path d="M115.669 149.43L118.569 176.326L1.34823 174.644L52.4689 90.8711L94.2083 89.3633L115.669 149.43Z" fill="#2F2E41"/>
<path opacity="0.28" d="M115.669 149.43L118.569 176.326L1.34823 174.644L52.4689 90.8711L94.2083 89.3633L115.669 149.43Z" fill="black"/>
<path d="M92.6195 154.047L96.7578 178.657V200.654L63.3919 211.608C63.3919 211.608 67.298 297.05 62.0906 302.492L62.2185 315.629L47.6627 316.295L47.544 307.049L41.3729 237.942L37.7383 187.204L43.6312 148.735L92.6195 154.047Z" fill="#2F2E41"/>
<path d="M66.7694 175.232L96.7579 200.655C96.7579 200.655 98.5131 246.524 94.056 251.903C90.2278 256.523 40.4392 296.374 40.4392 296.374C40.4392 296.374 31.5903 304.537 26.6314 304.668C21.6725 304.798 15.9047 294.337 15.9047 294.337L27.3895 285.561C27.3895 285.561 57.1423 257.63 65.9764 246.524C69.5421 242.041 69.5421 241.593 69.5421 241.593L68.3243 222.952L56.0676 188.356L66.7694 175.232Z" fill="#2F2E41"/>
<path d="M98.6079 53.4556L111.537 52.2539L123.265 54.2196L148.099 54.2275L150.215 72.3295L127.552 77.43L122.03 74.7077L99.0082 83.5292L98.6079 53.4556Z" fill="#2F2E41"/>
<path d="M83.1651 53.3983C83.1651 53.3983 55.7251 50.8125 49.4852 55.7434C43.2453 60.6742 29.8741 158.395 29.8741 158.395L83.1651 161.42L92.7188 154.809L90.0069 106.023L83.1651 53.3983Z" fill="#CCCCCC"/>
<path d="M74.7892 52.79L105.058 53.4581L133.278 181.705L110.993 186.636L74.7892 52.79Z" fill="#2F2E41"/>
<path d="M53.2724 51.7061L29.4294 59.2113L30.7837 111.904L1.34929 174.901L35.9517 178.567L63.3027 110.542L53.2724 51.7061Z" fill="#2F2E41"/>
<path d="M13.9543 181.301C13.1184 180.561 12.4541 179.645 12.008 178.619C11.5619 177.593 11.345 176.481 11.3725 175.361C11.4 174.242 11.6713 173.142 12.1673 172.139C12.6632 171.136 13.3717 170.255 14.2429 169.557L9.44626 152.728L18.9042 147.302L25.3461 171.164C26.4144 172.713 26.8804 174.603 26.6557 176.475C26.4311 178.347 25.5314 180.072 24.1272 181.321C22.723 182.571 20.9119 183.259 19.037 183.255C17.162 183.251 15.3536 182.556 13.9543 181.301Z" fill="#FFB8B8"/>
<path d="M43.2451 60.6751L29.137 59.4443C29.137 59.4443 16.4714 72.7671 13.59 83.0826C10.7085 93.398 7.58855 125.673 7.58855 125.673L8.89003 172.887L25.3812 161.624L26.4873 121.014L43.2451 60.6751Z" fill="#2F2E41"/>
<path d="M46.6493 36.9434C41.3515 27.1964 44.9132 14.9756 54.6047 9.64739C64.2962 4.3192 76.4475 7.90136 81.7453 17.6484C87.0431 27.3954 83.4814 39.6162 73.7899 44.9444C64.0984 50.2726 51.9472 46.6904 46.6493 36.9434Z" fill="#FFB8B8"/>
<path d="M66.4268 18.8984C69.0507 18.2887 71.7745 18.9644 74.4321 19.4024C77.0897 19.8404 80.0185 19.9848 82.2665 18.4935C83.9267 17.3922 84.9474 15.5702 85.9059 13.8176C86.3059 13.1917 86.5724 12.4891 86.6888 11.7544C86.8016 10.4582 85.9818 9.27561 85.1112 8.31316C81.0673 3.84258 75.1578 1.39573 69.1984 0.618478C64.2837 -0.118183 59.2623 0.498507 54.6683 2.40297C50.1444 4.39851 46.2556 8.05288 44.477 12.6878C43.6578 15.06 43.1462 17.5286 42.9549 20.0324C42.6862 21.8746 42.6517 23.7437 42.8523 25.5947C43.0919 26.9669 43.4505 28.3153 43.9241 29.6245L46.8703 38.5717C47.0822 39.4172 47.4778 40.2049 48.0288 40.878C48.312 41.2077 48.6937 41.4363 49.1168 41.5295C49.5399 41.6227 49.9816 41.5756 50.3759 41.3952C50.1401 40.4233 50.1042 39.4133 50.2703 38.4271C50.3625 37.9355 50.5989 37.483 50.9491 37.1278C51.2993 36.7726 51.7472 36.531 52.2351 36.4342C53.3211 36.3183 54.2487 37.1649 55.2789 37.5295C55.7503 37.6701 56.2447 37.7159 56.7338 37.6643C57.2228 37.6127 57.697 37.4647 58.1292 37.2288C58.5613 36.9929 58.9431 36.6737 59.2526 36.2895C59.5622 35.9052 59.7935 35.4634 59.9332 34.9892C59.9614 34.8936 59.9858 34.797 60.0063 34.6994C60.169 33.6765 59.8959 32.5815 60.2814 31.6209C60.7331 30.4954 61.9308 29.9057 62.8307 29.097C63.6517 28.3349 64.2394 27.353 64.5246 26.2665C64.8098 25.1801 64.7807 24.0343 64.4407 22.964C64.1998 22.2194 63.5194 21.8809 63.6555 21.0254C63.8341 19.9032 65.4792 19.1186 66.4268 18.8984Z" fill="#2F2E41"/>
<path d="M148.23 70.7571C143.846 70.7571 140.291 67.1821 140.291 62.7721C140.291 58.3621 143.846 54.7871 148.23 54.7871C152.615 54.7871 156.17 58.3621 156.17 62.7721C156.17 67.1821 152.615 70.7571 148.23 70.7571Z" fill="#FFB8B8"/>
</svg>
