<svg width="24" height="24" viewBox="0 0 24 24" fill="none" xmlns="http://www.w3.org/2000/svg">
<g clip-path="url(#clip0)">
<path d="M21.9658 2.51488C19.3354 -0.058838 15.1303 -0.0582781 12.5005 2.51615L1.47117 13.5456C-0.523164 15.5869 -0.48505 18.8584 1.5563 20.8528C3.56406 22.8143 6.7706 22.8143 8.77837 20.8528L18.7656 10.8655C20.064 9.56715 20.064 7.46203 18.7656 6.16367C17.4673 4.86531 15.3622 4.86531 14.0638 6.16367L4.51075 15.7167C4.17755 16.0617 4.18711 16.6115 4.53212 16.9447C4.86868 17.2697 5.40222 17.2697 5.73879 16.9447L15.2918 7.39166C15.9253 6.78479 16.9308 6.80642 17.5376 7.4399C18.1261 8.05425 18.1261 9.02317 17.5376 9.63752L7.55038 19.6247C6.20119 20.9548 4.02921 20.9392 2.6992 19.59C1.38262 18.2544 1.38262 16.1091 2.6992 14.7736L13.7286 3.74414C15.6932 1.77881 18.879 1.77825 20.8443 3.74282C22.8096 5.70738 22.8102 8.89321 20.8456 10.8585L9.81619 21.888C9.4519 22.1999 9.40946 22.7482 9.72144 23.1125C10.0334 23.4768 10.5817 23.5192 10.946 23.2072C10.98 23.1781 11.0116 23.1465 11.0407 23.1125L22.0701 12.0831C24.6835 9.41209 24.6368 5.12824 21.9658 2.51488Z" fill="white"/>
</g>
<defs>
<clipPath id="clip0">
<rect width="24" height="24" fill="white"/>
</clipPath>
</defs>
</svg>
