<svg width="406" height="453" viewBox="0 0 406 453" fill="none" xmlns="http://www.w3.org/2000/svg">
<g opacity="0.5">
<path d="M768.466 -606.158L955.243 -582.086L969.009 -394.188L659.505 -501.264L490.182 -470.481L538.985 -289.313L724.899 -211.415L634.738 -82.2191L506.446 101.551L404.152 -225.512L278.038 19.687L176.852 -88.8261L-36.5002 -154.989L-239.107 -117.436L-397.616 -64.6746L-148.414 11.9351L120.732 199.024L-33.6265 503.77L-147.711 728.94L-251.311 845.199L-376.352 627.742L-428.446 537.15L-16.261 378.97L-106.163 140.304L-187.177 460.421L-210.587 552.973L-97.4628 456.382L-56.0913 786.468L-147.59 726.676L-319.83 604.114L-190.409 409.522L-285.366 424.13L-340.349 194.379L-449.493 206.396L-461.269 378.075L-333.035 395.83L-629.642 195.417L-660.152 358.458L-481.936 687.809L-428.828 538.276L-535.306 540.3L-765.348 406.583L-1171.7 358.159L-1208.54 481.589L-1048.16 588.235L-940.099 410.282L-813.915 768.604L-601.989 675.667L-643.904 558.702L-709.764 827.672L-251.786 845.497L-399.777 721.458L-592.084 850.901L-586.904 1005.3L-227.463 1168.43L-490.891 928.891L-351.197 879.956L-216.688 953.671L-323.927 1095.04L-404.495 1065.3L-405.666 1202.85L-85.2042 1036.49L10.9385 1172.41L-225.904 1168.54L-117.542 1407.32L-404.311 1203.07" stroke="#589CFF" stroke-width="0.4628" stroke-miterlimit="10"/>
<path d="M120.732 199.025L56.3572 54.084L-36.4998 -154.989L-148.634 13.0919L-106.162 140.305L120.732 199.025Z" stroke="#589CFF" stroke-width="0.4628" stroke-miterlimit="10"/>
<path d="M120.732 199.024L-17.2802 378.302L-340.349 194.379L-148.634 13.0915L278.038 19.6868L120.732 199.024ZM120.732 199.024L-283.684 421.44L-449.493 206.396L-627.289 195.068L-396.656 -66.1221L-341.045 193.18L-334.554 395.359L-428.446 537.15L-461.269 378.075L-643.904 558.702L-660.152 358.458L-813.915 768.604L-708.936 826.574L-482.805 687.206L-643.904 558.702L-535.661 538.984L-602.338 673.332L-428.828 538.276L-319.83 604.114L-210.587 552.973L-251.786 845.497L-58.4984 783.682L-71.4293 906.032L-85.204 1036.49L-323.927 1095.04L-349.829 881.548L-402.792 1067.79" stroke="#589CFF" stroke-width="0.4628" stroke-miterlimit="10"/>
<path d="M-95.8033 453.704L-17.2804 378.302L-447.608 205.495L-210.587 552.973L-56.0913 786.468L-400.702 719.614L-482.805 687.207L-602.338 673.332L-349.829 881.548L-813.915 768.604L-586.904 1005.3L-405.369 1204.76L-227.463 1168.43L-85.2041 1036.49L-216.688 953.672L-401.67 1064.49L-584.941 1007.58L-488.783 928.244L-592.084 850.901L-603.493 673.439L-940.099 410.283L-763.128 404.524L-629.642 195.417L-1171.7 358.16L-1046.61 589.903L-811.771 768.786" stroke="#589CFF" stroke-width="0.4628" stroke-miterlimit="10"/>
<path d="M968.181 -393.739L538.985 -289.312L404.152 -225.512L176.852 -88.8256L-148.414 11.9354L-239.107 -117.435L-340.349 194.379L-106.163 140.305L-190.409 409.522L-332.187 394.497L-535.661 538.984L-461.269 378.075L-658.965 359.549L-764.43 405.327L-813.915 768.604L-643.904 558.703L-940.099 410.283L-1208.54 481.589" stroke="#589CFF" stroke-width="0.4628" stroke-miterlimit="10"/>
<path d="M507.65 101.646L538.985 -289.312L659.505 -501.264L-36.5 -154.989L397.67 49.7736L507.65 101.646Z" stroke="#589CFF" stroke-width="0.4628" stroke-miterlimit="10"/>
<path d="M117.488 195.536C122.139 191.705 128.274 198.781 123.6 202.623C118.961 206.476 112.814 199.378 117.488 195.536Z" fill="#589CFF"/>
<path d="M119.522 197.889C119.036 198.277 118.985 198.614 118.977 198.816C118.972 199.185 119.162 199.597 119.466 199.951C119.934 200.503 120.675 200.974 121.578 200.233C122.064 199.845 122.115 199.508 122.123 199.307C122.128 198.937 121.938 198.526 121.634 198.172C121.178 197.641 120.425 197.148 119.522 197.889Z" fill="#EEF5FF"/>
<path d="M273.361 16.1631C278.012 12.3325 284.147 19.4085 279.473 23.2506C274.834 27.1034 268.699 20.0274 273.361 16.1631Z" fill="#589CFF"/>
</g>
</svg>
