<svg width="406" height="453" viewBox="0 0 406 453" fill="none" xmlns="http://www.w3.org/2000/svg">
<g opacity="0.5">
<path d="M1183.07 984.943L1141.31 1149.59L971.558 1141.59L1100.93 876.022L1091.68 721.066L924.166 745.168L834.297 903.223L728.359 808.509L577.676 673.744L881.621 617.526L675.694 478.066L783.812 399.196L866.142 215.301L854.432 29.8082L824.334 -117.842L728.772 97.0259L532.119 317.8L275.925 146.606L86.6317 20.0855L-6.26776 -85.2633L201.988 -173.71L288.747 -210.559L385.802 175.658L609.249 120.973L331.355 13.7948L251.009 -17.1819L325.266 94.5688L25.2047 95.9056L88.6456 20.4387L217.032 -120.539L377.284 16.4071L374.476 -70.206L586.161 -94.5863L587.208 -193.623L434.747 -222.741L404.975 -109.83L616.529 -353.754L473.83 -398.714L159.622 -274.756L287.781 -211.022L297.488 -306.59L442.115 -498.122L529.439 -856.764L422.897 -903.11L310.046 -771.024L457.709 -655.009L123.187 -580.778L183.483 -380.948L292.757 -405.828L59.0253 -493.904L-6.48329 -85.7216L120.601 -204.825L25.493 -391.036L-113.328 -403.101L-298.297 -98.8775L-55.293 -308.857L-26.5855 -178.47L-107.148 -65.9946L-222.142 -177.32L-186.792 -246.249L-309.839 -262.178L-195.535 42.7867L-327.649 114.176L-298.566 -97.4933L-524.107 -26.2893L-310.179 -260.988" stroke="#589CFF" stroke-width="0.4628" stroke-miterlimit="10"/>
<path d="M532.119 317.8L386.51 174.817L586.161 -94.5867L727.76 96.7031L675.694 478.066L532.119 317.8ZM532.119 317.8L376.702 -68.4089L587.208 -193.623L616.586 -351.61L825.526 -116.826L587.31 -95.0805L405.56 -111.141L288.747 -210.559L434.747 -222.741L292.757 -405.829L473.83 -398.715L123.187 -580.779L59.9189 -493.044L160.256 -275.47L292.757 -405.829L298.704 -306.766L185.612 -381.009L287.78 -211.022L217.032 -120.54L251.009 -17.1823L-6.4836 -85.7219L27.9599 94.051L-80.2033 69.2351L-195.536 42.7865L-222.142 -177.32L-28.1596 -177.418L-189.21 -244.994" stroke="#589CFF" stroke-width="0.4628" stroke-miterlimit="10"/>
<path d="M327.485 96.3444L386.51 174.818L587.811 -191.837L251.009 -17.1821L25.2046 95.9054L122.354 -205.454L160.256 -275.47L185.612 -381.008L-28.1594 -177.417L123.187 -580.778L-113.328 -403.101L-311.582 -262.119L-298.297 -98.8776L-195.535 42.7867L-107.148 -65.9947L-186.368 -243.631L-115.581 -401.59L-54.9418 -306.9L25.4929 -391.036L185.641 -382.054L457.709 -655.009L443.719 -495.911L616.529 -353.754L529.439 -856.764L308.384 -769.815L122.793 -578.878" stroke="#589CFF" stroke-width="0.4628" stroke-miterlimit="10"/>
<path d="M971.246 1140.8L924.166 745.168L881.621 617.526L783.812 399.196L728.772 97.0257L854.432 29.8079L586.161 -94.5865L609.248 120.973L377.284 16.4069L406.077 -108.928L298.705 -306.765L434.747 -222.741L472.725 -397.77L443.141 -497.165L123.187 -580.778L292.757 -405.828L457.709 -655.009L422.897 -903.11" stroke="#589CFF" stroke-width="0.4628" stroke-miterlimit="10"/>
<g opacity="0.6">
<path d="M90.5394 18.0811C93.4664 22.6604 86.4664 27.3883 83.5315 22.7874C80.5833 18.2163 87.5834 13.4885 90.5394 18.0811Z" fill="#589CFF"/>
</g>
<path d="M329.509 91.6939C332.436 96.2733 325.436 101.001 322.501 96.4002C319.574 91.8209 326.574 87.093 329.509 91.6939Z" fill="#589CFF"/>
<path d="M327.18 93.2604C326.614 92.3715 325.857 92.6152 325.333 92.9659C324.787 93.3248 324.285 93.9375 324.851 94.8265C325.146 95.3033 325.442 95.3857 325.622 95.4147C325.952 95.4592 326.341 95.3332 326.691 95.0994C327.223 94.7703 327.746 94.1494 327.18 93.2604Z" fill="#EEF5FF"/>
<path d="M29.7357 91.7628C32.6627 96.3422 25.6627 101.07 22.7278 96.4691C19.7796 91.8979 26.7797 87.1701 29.7357 91.7628Z" fill="#589CFF"/>
<path d="M27.3859 93.3373C26.82 92.4483 26.063 92.692 25.5462 93.0643C25.0004 93.4233 24.4988 94.036 25.0647 94.9249C25.3595 95.4018 25.6555 95.4842 25.8352 95.5132C26.1656 95.5576 26.5547 95.4317 26.9044 95.1978C27.4424 94.8173 27.9518 94.2262 27.3859 93.3373Z" fill="#EEF5FF"/>
</g>
</svg>
