<svg width="272" height="357" viewBox="0 0 272 357" fill="none" xmlns="http://www.w3.org/2000/svg">
<path d="M67.2738 131.506V115.208C67.2738 109.416 64.9651 103.861 60.8558 99.7654C56.7465 95.6698 51.1731 93.3689 45.3616 93.3689C39.5501 93.3689 33.9767 95.6698 29.8674 99.7654C25.758 103.861 23.4495 109.416 23.4495 115.208V131.506C23.4503 132.284 23.7607 133.029 24.3125 133.579C24.8644 134.129 25.6125 134.439 26.3929 134.44H64.3303C65.1107 134.439 65.8589 134.129 66.4107 133.579C66.9625 133.029 67.2729 132.284 67.2738 131.506Z" fill="#2F2E41"/>
<path d="M12.9608 343.604L20.6896 345.736L32.6177 317.04L21.2109 313.894L12.9608 343.604Z" fill="#FFB8B8"/>
<path d="M26.8209 345.058L11.9159 340.947L9.31863 350.3L33.6083 357C33.9494 355.772 34.0444 354.488 33.8879 353.223C33.7314 351.959 33.3264 350.737 32.6962 349.628C32.0659 348.519 31.2226 347.545 30.2146 346.761C29.2065 345.976 28.0533 345.398 26.8209 345.058Z" fill="#2F2E41"/>
<path d="M93.536 349.529H101.555L105.371 318.702H93.5347L93.536 349.529Z" fill="#FFB8B8"/>
<path d="M107.283 347.246H91.818V356.951H117.021C117.021 355.676 116.769 354.414 116.28 353.237C115.79 352.059 115.073 350.989 114.169 350.088C113.265 349.187 112.191 348.472 111.01 347.984C109.828 347.497 108.562 347.246 107.283 347.246Z" fill="#2F2E41"/>
<path d="M103.206 177.243C102.633 178.013 101.899 178.649 101.053 179.105C100.208 179.562 99.2719 179.828 98.312 179.885C97.3521 179.942 96.3914 179.788 95.4974 179.435C94.6035 179.082 93.7981 178.538 93.138 177.841L71.8209 187.397L73.7599 175.446L93.7057 168.204C94.9538 167.176 96.5368 166.641 98.1547 166.699C99.7726 166.756 101.313 167.404 102.484 168.518C103.655 169.632 104.375 171.136 104.508 172.744C104.641 174.352 104.178 175.953 103.206 177.243H103.206Z" fill="#FFB8B8"/>
<path d="M58.9144 249.109C65.6118 249.109 72.5451 248.115 78.3729 245.158C81.4665 243.619 84.2082 241.46 86.4264 238.816C88.6446 236.173 90.2916 233.102 91.2642 229.795C94.3007 220.212 90.4722 210.798 86.7697 201.694C84.4754 196.052 82.3084 190.724 81.7461 185.472L81.5497 183.607C80.674 175.232 79.9177 167.998 75.7302 165.285C73.5597 163.879 70.6415 163.799 66.808 165.039L30.8034 176.696L32.1273 244.815L32.3461 244.888C32.5345 244.951 45.2269 249.109 58.9144 249.109Z" fill="#2F2E41"/>
<path d="M67.4373 143.832C67.4373 143.832 49.7768 138.617 36.0408 140.573C36.0408 140.573 43.89 183.599 41.2736 197.941C38.6572 212.284 86.7331 203.483 76.9217 189.793L73.6512 173.495C73.6512 173.495 80.1922 166.975 74.3053 159.152L67.4373 143.832Z" fill="#6C63FF"/>
<path d="M76.1238 247.818L97.8897 243.75L90.2906 185.464C89.7796 183.837 78.008 146.908 72.6617 144.91C68.7799 143.548 64.81 142.448 60.7793 141.62L60.005 141.466L64.3693 147.99L81.7449 189.488L76.1238 247.818Z" fill="#2F2E41"/>
<path d="M87.465 342.387L115.588 337.715L99.8056 273.486L76.3214 185.649L76.0897 187.208C76.0714 187.325 73.8775 198.799 41.3242 193.708L41.0379 193.663L40.9588 193.941L1.61365 332.498L33.6581 337.821L62.8848 236.73L87.465 342.387Z" fill="#2F2E41"/>
<path d="M48.4859 258.725L48.4684 258.232C48.4488 257.684 46.514 203.228 47.1602 181.327C47.8087 159.352 40.6703 140.321 40.5981 140.131L40.54 139.979L40.3822 139.933C31.1467 137.304 23.1345 145.152 23.0546 145.232L22.9421 145.344L25.5723 166.972L14.3114 245.62L48.4859 258.725Z" fill="#2F2E41"/>
<path d="M49.8642 134.06C40.9917 134.06 33.799 126.892 33.799 118.049C33.799 109.206 40.9917 102.037 49.8642 102.037C58.7368 102.037 65.9294 109.206 65.9294 118.049C65.9294 126.892 58.7368 134.06 49.8642 134.06Z" fill="#FFB8B8"/>
<path d="M72.4577 116.512C72.4525 111.932 70.6246 107.541 67.3751 104.302C64.1255 101.063 59.7197 99.2415 55.1242 99.2363H51.8536C47.258 99.2415 42.8522 101.063 39.6027 104.302C36.3532 107.541 34.5254 111.932 34.5202 116.512V116.838H41.4318L43.7892 110.259L44.2606 116.838H47.8325L49.0219 113.519L49.2599 116.838H72.4577V116.512Z" fill="#2F2E41"/>
<path d="M51.4453 136.272C51.7698 135.834 51.9635 135.314 52.0043 134.771C52.0451 134.228 51.9312 133.685 51.6757 133.204C48.2099 126.634 43.3574 114.494 49.7984 107.007L50.2613 106.469H31.5625V134.449L48.549 137.436C48.7209 137.466 48.8952 137.482 49.0699 137.482C49.5336 137.482 49.9907 137.372 50.4036 137.162C50.8165 136.952 51.1735 136.647 51.4453 136.272Z" fill="#2F2E41"/>
<path d="M126.73 20.7496C139.814 9.7455 155.826 2.76903 172.816 0.669139C189.806 -1.43075 207.043 1.43649 222.428 8.92195C237.813 16.4074 250.683 28.1883 259.473 42.8312C268.262 57.474 272.592 74.3475 271.935 91.3982C271.278 108.449 265.663 124.942 255.773 138.87C245.883 152.798 232.144 163.561 216.229 169.849C200.313 176.137 182.907 177.678 166.129 174.286C149.35 170.894 133.922 162.715 121.723 150.743L13.3929 241.847C11.7446 243.236 9.61023 243.915 7.45935 243.736C5.30847 243.556 3.31723 242.533 1.92371 240.89C0.530182 239.247 -0.151489 237.12 0.028656 234.976C0.208801 232.832 1.23596 230.848 2.88425 229.459L2.89621 229.449L111.226 138.345C98.6416 120.344 93.2555 98.3073 96.1234 76.5542C98.9913 54.8012 109.907 34.8996 126.73 20.7496ZM133.713 129.572C142.153 139.541 153.369 146.791 165.942 150.406C178.516 154.022 191.883 153.84 204.353 149.884C216.823 145.927 227.836 138.374 235.999 128.18C244.162 117.986 249.109 105.608 250.213 92.6112C251.318 79.6149 248.531 66.5839 242.205 55.166C235.879 43.7482 226.298 34.4565 214.674 28.4657C203.049 22.475 189.904 20.0544 176.899 21.5099C163.894 22.9655 151.614 28.2319 141.613 36.6432C134.972 42.2281 129.5 49.0619 125.509 56.7546C121.518 64.4472 119.086 72.848 118.352 81.4773C117.619 90.1065 118.598 98.7953 121.234 107.047C123.869 115.3 128.11 122.954 133.713 129.572Z" fill="#3F3D56"/>
<path opacity="0.3" d="M226.953 137.445C239.647 126.769 247.848 111.726 249.928 95.3027C252.008 78.8793 247.815 62.2768 238.181 48.792C239.446 50.0618 240.669 51.3917 241.85 52.7816C247.454 59.4004 251.695 67.0544 254.33 75.3065C256.966 83.5587 257.945 92.2475 257.211 100.877C256.478 109.506 254.046 117.907 250.055 125.599C246.064 133.292 240.592 140.126 233.951 145.711C227.31 151.296 219.631 155.522 211.351 158.149C203.071 160.776 194.353 161.752 185.695 161.021C177.037 160.29 168.608 157.866 160.89 153.888C153.172 149.911 146.315 144.457 140.711 137.838C139.533 136.446 138.424 135.021 137.383 133.562C149.099 145.295 164.814 152.208 181.408 152.927C198.001 153.646 214.259 148.12 226.953 137.445Z" fill="black"/>
<path d="M44.7063 205.235C43.7723 205.463 42.7995 205.483 41.8565 205.296C40.9136 205.108 40.0233 204.717 39.2486 204.149C38.4738 203.581 37.8333 202.851 37.3722 202.01C36.9112 201.169 36.6407 200.238 36.5799 199.281L14.0575 193.051L23.2128 185.095L43.1969 192.231C44.8158 192.236 46.3768 192.833 47.584 193.908C48.7911 194.983 49.5607 196.462 49.7467 198.065C49.9328 199.668 49.5225 201.283 48.5935 202.604C47.6645 203.926 46.2814 204.862 44.7063 205.235Z" fill="#FFB8B8"/>
<path d="M35.3452 201.937L36.7159 188.96L17.9025 178.614L30.1684 163.816L28.167 147.192L23.1829 145.063L23.0278 145.262C20.6777 148.274 0.0657043 174.781 0.0657043 178.058C0.0657043 181.423 4.00895 191.307 9.40379 193.995C14.6076 196.589 34.1487 201.629 34.978 201.843L35.3452 201.937Z" fill="#2F2E41"/>
</svg>
