<svg width="235" height="315" viewBox="0 0 235 315" fill="none" xmlns="http://www.w3.org/2000/svg">
<path d="M221.064 119.997H119.901C119.35 119.997 118.805 120.105 118.296 120.315C117.787 120.526 117.324 120.835 116.935 121.224C116.545 121.613 116.236 122.075 116.025 122.584C115.815 123.093 115.706 123.638 115.706 124.189V125.299C115.707 126.411 116.149 127.477 116.936 128.263C117.722 129.049 118.789 129.49 119.901 129.49H220.859" fill="white"/>
<path fill-rule="evenodd" clip-rule="evenodd" d="M118.567 120.97C118.99 120.795 119.443 120.705 119.901 120.705L221.064 120.705C221.455 120.705 221.773 120.388 221.773 119.997C221.773 119.606 221.455 119.289 221.064 119.289H119.901C119.257 119.288 118.62 119.415 118.025 119.661C117.43 119.907 116.889 120.268 116.434 120.723C115.978 121.178 115.617 121.718 115.371 122.313C115.124 122.908 114.997 123.545 114.997 124.189V125.299C114.998 126.599 115.515 127.845 116.435 128.764C117.354 129.683 118.601 130.199 119.901 130.199H220.859C221.25 130.199 221.567 129.882 221.567 129.49C221.567 129.099 221.25 128.782 220.859 128.782H119.901C118.977 128.782 118.09 128.415 117.436 127.762C116.783 127.108 116.415 126.222 116.415 125.298V124.189C116.415 123.731 116.505 123.278 116.68 122.855C116.855 122.433 117.112 122.048 117.436 121.725C117.759 121.402 118.144 121.145 118.567 120.97Z" fill="#3F4D79"/>
<path d="M144.005 176.054V129.646H134.871V175.842" fill="white"/>
<path d="M144.005 132.56V129.646H134.871V139.774L144.005 132.56Z" fill="#F0E1D4"/>
<path fill-rule="evenodd" clip-rule="evenodd" d="M144.714 128.938H134.163V175.393C134.163 175.784 134.48 176.101 134.871 176.101C135.263 176.101 135.58 175.784 135.58 175.393V130.354H143.297V172.512C143.297 172.903 143.614 173.22 144.005 173.22C144.397 173.22 144.714 172.903 144.714 172.512V128.938Z" fill="#3F4D79"/>
<path d="M134.501 115.826V118.396L171.639 109.372L208.777 118.396V115.826L175.527 105.053V73.251H167.267V105.211L134.501 115.826Z" fill="white"/>
<path fill-rule="evenodd" clip-rule="evenodd" d="M176.235 72.5425H166.558V104.696L133.792 115.311V119.297L171.639 110.101L209.485 119.297V115.311L176.235 104.538V72.5425ZM174.818 73.9594V105.568L208.068 116.341V117.494L171.639 108.643L135.209 117.494V116.342L167.975 105.727V73.9594H174.818Z" fill="#D8BAA3"/>
<path d="M113.795 94.8565H219.585C220.833 94.8565 221.855 93.7985 221.947 92.4525C221.956 92.3125 221.972 92.173 221.995 92.0345L234.239 25.693C234.354 25.1366 234.29 24.5581 234.058 24.0399C233.877 23.627 233.583 23.2742 233.209 23.0231C232.835 22.7721 232.396 22.6332 231.946 22.623H126.156C124.908 22.623 123.886 23.6834 123.794 25.0294C123.785 25.1687 123.769 25.3074 123.746 25.445L111.506 91.7889C111.392 92.3453 111.455 92.9237 111.688 93.442C111.868 93.8538 112.162 94.2056 112.535 94.4562C112.909 94.7067 113.346 94.8456 113.795 94.8565Z" fill="white"/>
<path fill-rule="evenodd" clip-rule="evenodd" d="M231.954 21.9146H126.156C124.478 21.9146 123.2 23.3244 123.087 24.981L123.086 24.9833L123.086 24.9857C123.079 25.0987 123.067 25.2114 123.048 25.3232C123.048 25.3251 123.048 25.327 123.047 25.3289L110.812 91.646C110.812 91.6488 110.811 91.6515 110.811 91.6542C110.669 92.353 110.749 93.0788 111.041 93.7296C111.275 94.2633 111.656 94.7193 112.14 95.0443C112.626 95.37 113.194 95.5505 113.778 95.5647L113.795 94.8564V95.5649H219.585C221.263 95.5649 222.541 94.1584 222.654 92.5008L222.655 92.4987L222.655 92.4966C222.662 92.3824 222.675 92.2687 222.693 92.1558L234.935 25.8283C235.077 25.1296 234.997 24.4038 234.705 23.753C234.471 23.2178 234.089 22.7605 233.604 22.4348C233.117 22.1084 232.548 21.928 231.962 21.9147L231.954 21.9146ZM113.804 94.148C113.493 94.139 113.19 94.0419 112.931 93.868C112.669 93.6926 112.464 93.4463 112.337 93.158L112.336 93.1548L112.335 93.1516C112.163 92.7692 112.116 92.3424 112.2 91.9317L112.202 91.9246L124.444 25.5673L124.445 25.5611C124.472 25.4004 124.491 25.2384 124.501 25.0758C124.572 24.0414 125.34 23.3314 126.156 23.3314H231.937C232.25 23.3399 232.554 23.4369 232.814 23.6113C233.076 23.7871 233.282 24.034 233.408 24.3231L233.41 24.3267L233.411 24.3303C233.583 24.7126 233.63 25.1394 233.545 25.5499L233.544 25.5571L221.297 91.9128L221.295 91.9197C221.269 92.0807 221.251 92.243 221.24 92.4058C221.169 93.4394 220.402 94.148 219.585 94.148H113.804Z" fill="#D8BAA3"/>
<path d="M116.736 91.6682H217.656C218.86 91.6682 219.836 90.5961 219.836 89.2689L231.174 27.8133C231.174 26.4885 230.198 25.4141 228.993 25.4141H128.076C126.874 25.4141 125.896 26.4885 125.896 27.8133L114.558 89.2689C114.558 90.5961 115.534 91.6682 116.736 91.6682Z" fill="white"/>
<path fill-rule="evenodd" clip-rule="evenodd" d="M230.464 27.7537L219.127 89.2046V89.2694C219.127 90.2705 218.407 90.9602 217.656 90.9602H116.736C116.003 90.9602 115.296 90.2985 115.268 89.3294L126.604 27.8786V27.8138C126.604 26.8151 127.327 26.123 128.076 26.123H228.993C229.729 26.123 230.436 26.7869 230.464 27.7537ZM231.882 27.8138C231.882 26.1634 230.652 24.7061 228.993 24.7061H128.076C126.443 24.7061 125.221 26.1227 125.188 27.7452L113.849 89.2046V89.2694C113.849 90.922 115.08 92.3771 116.736 92.3771H217.656C219.291 92.3771 220.51 90.9626 220.544 89.338L231.882 27.8786V27.8138Z" fill="#D8BAA3"/>
<path d="M86.4287 297.253L83.2801 275.636C93.7651 276.817 98.4774 275.636 98.4774 275.636L94.8918 292.058C94.9698 294.722 100.561 305.4 103.518 306.303C106.475 307.205 92.9384 309.946 86.4287 297.253Z" fill="#FFCFC9"/>
<path d="M111.287 314.804H85.5712C85.5712 314.804 81.1826 306.539 81.8676 301.036C82.7439 293.952 86.6531 293.123 86.6531 293.123C90.2599 293.123 89.3316 302.116 96.2145 305.249C99.6442 306.81 102.578 305.83 105.545 306.735C112.175 308.756 111.287 314.804 111.287 314.804Z" fill="#3F4D90"/>
<path d="M125.78 197.35C123.496 201.535 108.868 230.928 98.4751 275.636C98.4751 275.636 93.6022 277.173 83.2778 275.636C83.2778 275.636 73.8746 221.529 84.2392 204.241L125.78 197.35Z" fill="#642648"/>
<path d="M44.1486 142.117C44.1486 142.117 29.393 179.065 37.2822 193.154C50.4292 216.615 125.78 197.35 125.78 197.35C125.78 197.35 109.329 217.558 128.463 275.28C128.463 275.28 129.153 277.627 143.937 275.752C143.937 275.752 162.058 192.509 162.061 174.77C162.061 160.246 136.078 155.726 93.5928 158.778C93.5928 158.778 87.9806 153.738 83.7526 143.192C83.7526 143.177 71.3756 147.046 44.1486 142.117Z" fill="#722D54"/>
<path d="M131.543 297.253L128.395 275.636C138.88 276.817 143.828 275.636 143.828 275.636L140.007 292.058C140.084 294.722 145.675 305.401 148.633 306.303C151.59 307.205 138.053 309.946 131.543 297.253Z" fill="#FFCFC9"/>
<path d="M156.401 314.804H130.686C130.686 314.804 126.297 306.539 126.982 301.036C127.859 293.952 131.768 293.123 131.768 293.123C135.375 293.123 134.446 302.116 141.329 305.249C144.759 306.81 147.693 305.83 150.659 306.735C157.289 308.756 156.401 314.804 156.401 314.804Z" fill="#3F4D90"/>
<path d="M33.4911 90.7358C37.6341 107.658 43.4116 137.224 43.5746 141.234C43.7376 145.244 71.8362 147.806 84.3431 144.12C84.3431 144.12 87.7987 124.25 88.6632 113.486C95.2179 122.696 101.905 129.852 106.449 129.852C123.125 129.852 150.633 120.502 152.719 118.259L151.507 111.954C144.612 112.114 110.779 108.043 110.779 108.043C110.779 108.043 97.3342 73.844 88.5428 66.7808L88.505 66.7477C82.7322 61.4202 67.7452 59.7128 64.3864 58.8863C60.9118 58.0314 43.1919 55.6274 43.1919 55.6274C37.1806 59.5097 29.804 75.6647 33.4911 90.7358Z" fill="#F3E7DD"/>
<path d="M84.2794 64.8022C84.28 65.1979 84.4017 65.5839 84.6279 65.9086C84.8542 66.2332 85.1743 66.481 85.5453 66.6187C85.9163 66.7564 86.3206 66.7774 86.7039 66.679C87.0873 66.5806 87.4314 66.3674 87.6901 66.0679C86.6684 65.3025 85.5696 64.6456 84.4116 64.1079C84.3243 64.329 84.2794 64.5645 84.2794 64.8022Z" fill="white"/>
<path d="M78.2042 66.7433C77.1332 66.7433 76.265 65.8753 76.265 64.8045C76.265 63.7337 77.1332 62.8657 78.2042 62.8657C79.2752 62.8657 80.1434 63.7337 80.1434 64.8045C80.1434 65.8753 79.2752 66.7433 78.2042 66.7433Z" fill="white"/>
<path d="M70.1875 66.7433C69.1165 66.7433 68.2483 65.8753 68.2483 64.8045C68.2483 63.7337 69.1165 62.8657 70.1875 62.8657C71.2585 62.8657 72.1268 63.7337 72.1268 64.8045C72.1268 65.8753 71.2585 66.7433 70.1875 66.7433Z" fill="white"/>
<path d="M62.1732 66.7433C61.1022 66.7433 60.234 65.8753 60.234 64.8045C60.234 63.7337 61.1022 62.8657 62.1732 62.8657C63.2442 62.8657 64.1124 63.7337 64.1124 64.8045C64.1124 65.8753 63.2442 66.7433 62.1732 66.7433Z" fill="white"/>
<path d="M54.1565 66.7433C53.0855 66.7433 52.2173 65.8753 52.2173 64.8045C52.2173 63.7337 53.0855 62.8657 54.1565 62.8657C55.2275 62.8657 56.0957 63.7337 56.0957 64.8045C56.0957 65.8753 55.2275 66.7433 54.1565 66.7433Z" fill="white"/>
<path d="M46.1421 66.7433C45.0711 66.7433 44.2029 65.8753 44.2029 64.8045C44.2029 63.7337 45.0711 62.8657 46.1421 62.8657C47.2131 62.8657 48.0814 63.7337 48.0814 64.8045C48.0814 65.8753 47.2131 66.7433 46.1421 66.7433Z" fill="white"/>
<path d="M36.2122 65.1135C36.2721 65.4786 36.4354 65.819 36.6826 66.0944C36.9298 66.3698 37.2507 66.5687 37.6074 66.6676C37.964 66.7665 38.3416 66.7613 38.6954 66.6526C39.0492 66.544 39.3645 66.3363 39.604 66.0542C39.8436 65.7721 39.9974 65.4274 40.0473 65.0607C40.0972 64.6941 40.0411 64.3208 39.8856 63.9849C39.7301 63.6491 39.4818 63.3648 39.1699 63.1656C38.858 62.9663 38.4955 62.8605 38.1254 62.8606C37.7953 62.8554 37.4695 62.9368 37.1806 63.0967C36.8523 63.7603 36.5263 64.4145 36.2122 65.1135Z" fill="white"/>
<path d="M88.2877 70.2312C88.2835 70.7065 88.4543 71.1668 88.7676 71.5244C89.0809 71.882 89.5149 72.1118 89.9867 72.1702C90.4586 72.2285 90.9355 72.1113 91.3265 71.8408C91.7175 71.5703 91.9953 71.1655 92.1071 70.7035C91.4937 69.8699 90.8369 69.069 90.1395 68.3042C89.6424 68.326 89.1727 68.5384 88.8279 68.8972C88.4831 69.2559 88.2897 69.7336 88.2877 70.2312Z" fill="white"/>
<path d="M82.2126 72.1725C81.1416 72.1725 80.2734 71.3045 80.2734 70.2337C80.2734 69.1629 81.1416 68.2949 82.2126 68.2949C83.2836 68.2949 84.1518 69.1629 84.1518 70.2337C84.1518 71.3045 83.2836 72.1725 82.2126 72.1725Z" fill="white"/>
<path d="M74.1959 72.1725C73.1249 72.1725 72.2567 71.3045 72.2567 70.2337C72.2567 69.1629 73.1249 68.2949 74.1959 68.2949C75.2669 68.2949 76.1351 69.1629 76.1351 70.2337C76.1351 71.3045 75.2669 72.1725 74.1959 72.1725Z" fill="white"/>
<path d="M66.1815 72.1725C65.1105 72.1725 64.2423 71.3045 64.2423 70.2337C64.2423 69.1629 65.1105 68.2949 66.1815 68.2949C67.2525 68.2949 68.1208 69.1629 68.1208 70.2337C68.1208 71.3045 67.2525 72.1725 66.1815 72.1725Z" fill="white"/>
<path d="M58.1649 72.1725C57.0939 72.1725 56.2256 71.3045 56.2256 70.2337C56.2256 69.1629 57.0939 68.2949 58.1649 68.2949C59.2359 68.2949 60.1041 69.1629 60.1041 70.2337C60.1041 71.3045 59.2359 72.1725 58.1649 72.1725Z" fill="white"/>
<path d="M50.1505 72.1725C49.0795 72.1725 48.2113 71.3045 48.2113 70.2337C48.2113 69.1629 49.0795 68.2949 50.1505 68.2949C51.2215 68.2949 52.0897 69.1629 52.0897 70.2337C52.0897 71.3045 51.2215 72.1725 50.1505 72.1725Z" fill="white"/>
<path d="M42.1338 72.1725C41.0628 72.1725 40.1945 71.3045 40.1945 70.2337C40.1945 69.1629 41.0628 68.2949 42.1338 68.2949C43.2048 68.2949 44.073 69.1629 44.073 70.2337C44.073 71.3045 43.2048 72.1725 42.1338 72.1725Z" fill="white"/>
<path d="M33.7864 72.1394C33.8953 72.1605 34.0061 72.1708 34.1171 72.1701C34.5626 72.1695 34.9944 72.0155 35.3397 71.734C35.6851 71.4525 35.9229 71.0607 36.0133 70.6245C36.1036 70.1883 36.041 69.7343 35.8359 69.3389C35.6308 68.9434 35.2958 68.6306 34.8871 68.4531C34.4643 69.6339 34.1053 70.8666 33.7864 72.1394Z" fill="white"/>
<path d="M64.24 59.1155C64.2406 59.588 64.4138 60.0441 64.727 60.398C65.0403 60.7518 65.472 60.9791 65.9411 61.0371C66.4102 61.0951 66.8843 60.9798 67.2744 60.7129C67.6644 60.4461 67.9436 60.0459 68.0593 59.5878C66.4201 59.2926 65.1233 59.0683 64.3864 58.8793L64.2612 58.8486C64.2455 58.9367 64.2384 59.0261 64.24 59.1155Z" fill="white"/>
<path d="M56.2256 59.1157C56.2228 59.4198 56.2917 59.7203 56.4266 59.9929C56.5614 60.2655 56.7586 60.5026 57.002 60.6849C57.2455 60.8673 57.5284 60.9898 57.828 61.0426C58.1276 61.0954 58.4354 61.0771 58.7265 60.989C59.0177 60.9009 59.284 60.7455 59.504 60.5355C59.724 60.3254 59.8915 60.0666 59.993 59.7799C60.0944 59.4931 60.127 59.1866 60.088 58.885C60.049 58.5833 59.9396 58.2951 59.7687 58.0436C58.8853 57.8995 57.931 57.7531 56.9342 57.5996C56.7102 57.7833 56.5303 58.0148 56.4077 58.2772C56.285 58.5395 56.2228 58.8261 56.2256 59.1157Z" fill="white"/>
<path d="M50.1505 61.0543C49.0795 61.0543 48.2113 60.1863 48.2113 59.1155C48.2113 58.0448 49.0795 57.1768 50.1505 57.1768C51.2215 57.1768 52.0897 58.0448 52.0897 59.1155C52.0897 60.1863 51.2215 61.0543 50.1505 61.0543Z" fill="white"/>
<path d="M42.1338 61.0543C41.0628 61.0543 40.1945 60.1863 40.1945 59.1155C40.1945 58.0448 41.0628 57.1768 42.1338 57.1768C43.2048 57.1768 44.073 58.0448 44.073 59.1155C44.073 60.1863 43.2048 61.0543 42.1338 61.0543Z" fill="white"/>
<path d="M86.2209 78.1163C85.1499 78.1163 84.2817 77.2483 84.2817 76.1776C84.2817 75.1068 85.1499 74.2388 86.2209 74.2388C87.2919 74.2388 88.1602 75.1068 88.1602 76.1776C88.1602 77.2483 87.2919 78.1163 86.2209 78.1163Z" fill="white"/>
<path d="M92.2961 76.1776C92.2909 76.6407 92.4518 77.0902 92.7497 77.4448C93.0476 77.7993 93.4627 78.0354 93.9198 78.1103C94.3769 78.1851 94.8456 78.0937 95.2411 77.8526C95.6365 77.6116 95.9325 77.2368 96.0753 76.7963C95.562 75.9179 95.051 75.074 94.5423 74.2648C94.4426 74.2466 94.3414 74.2379 94.24 74.2388C93.985 74.2385 93.7325 74.2884 93.4968 74.3857C93.2611 74.483 93.0469 74.6257 92.8664 74.8057C92.6859 74.9858 92.5426 75.1996 92.4448 75.435C92.3469 75.6704 92.2964 75.9227 92.2961 76.1776Z" fill="white"/>
<path d="M78.2042 78.1163C77.1332 78.1163 76.265 77.2483 76.265 76.1776C76.265 75.1068 77.1332 74.2388 78.2042 74.2388C79.2752 74.2388 80.1434 75.1068 80.1434 76.1776C80.1434 77.2483 79.2752 78.1163 78.2042 78.1163Z" fill="white"/>
<path d="M70.1875 78.1163C69.1165 78.1163 68.2483 77.2483 68.2483 76.1776C68.2483 75.1068 69.1165 74.2388 70.1875 74.2388C71.2585 74.2388 72.1268 75.1068 72.1268 76.1776C72.1268 77.2483 71.2585 78.1163 70.1875 78.1163Z" fill="white"/>
<path d="M62.1732 78.1163C61.1022 78.1163 60.234 77.2483 60.234 76.1776C60.234 75.1068 61.1022 74.2388 62.1732 74.2388C63.2442 74.2388 64.1124 75.1068 64.1124 76.1776C64.1124 77.2483 63.2442 78.1163 62.1732 78.1163Z" fill="white"/>
<path d="M54.1565 78.1163C53.0855 78.1163 52.2173 77.2483 52.2173 76.1776C52.2173 75.1068 53.0855 74.2388 54.1565 74.2388C55.2275 74.2388 56.0957 75.1068 56.0957 76.1776C56.0957 77.2483 55.2275 78.1163 54.1565 78.1163Z" fill="white"/>
<path d="M46.1421 78.1163C45.0711 78.1163 44.2029 77.2483 44.2029 76.1776C44.2029 75.1068 45.0711 74.2388 46.1421 74.2388C47.2131 74.2388 48.0814 75.1068 48.0814 76.1776C48.0814 77.2483 47.2131 78.1163 46.1421 78.1163Z" fill="white"/>
<path d="M38.1254 78.1163C37.0544 78.1163 36.1862 77.2483 36.1862 76.1776C36.1862 75.1068 37.0544 74.2388 38.1254 74.2388C39.1964 74.2388 40.0646 75.1068 40.0646 76.1776C40.0646 77.2483 39.1964 78.1163 38.1254 78.1163Z" fill="white"/>
<path d="M90.2269 83.5451C89.1559 83.5451 88.2877 82.677 88.2877 81.6063C88.2877 80.5355 89.1559 79.6675 90.2269 79.6675C91.2979 79.6675 92.1661 80.5355 92.1661 81.6063C92.1661 82.677 91.2979 83.5451 90.2269 83.5451Z" fill="white"/>
<path d="M96.3044 81.6066C96.3044 81.9779 96.4109 82.3414 96.6115 82.6538C96.812 82.9663 97.098 83.2147 97.4356 83.3694C97.7732 83.5241 98.1481 83.5786 98.5158 83.5265C98.8834 83.4744 99.2284 83.3179 99.5097 83.0755C98.9263 81.942 98.3287 80.825 97.7358 79.7363C97.3248 79.8474 96.9618 80.0909 96.7031 80.4289C96.4443 80.767 96.3042 81.1809 96.3044 81.6066Z" fill="white"/>
<path d="M82.2126 83.5451C81.1416 83.5451 80.2734 82.677 80.2734 81.6063C80.2734 80.5355 81.1416 79.6675 82.2126 79.6675C83.2836 79.6675 84.1518 80.5355 84.1518 81.6063C84.1518 82.677 83.2836 83.5451 82.2126 83.5451Z" fill="white"/>
<path d="M74.1959 83.5451C73.1249 83.5451 72.2567 82.677 72.2567 81.6063C72.2567 80.5355 73.1249 79.6675 74.1959 79.6675C75.2669 79.6675 76.1351 80.5355 76.1351 81.6063C76.1351 82.677 75.2669 83.5451 74.1959 83.5451Z" fill="white"/>
<path d="M66.1815 83.5451C65.1105 83.5451 64.2423 82.677 64.2423 81.6063C64.2423 80.5355 65.1105 79.6675 66.1815 79.6675C67.2525 79.6675 68.1208 80.5355 68.1208 81.6063C68.1208 82.677 67.2525 83.5451 66.1815 83.5451Z" fill="white"/>
<path d="M58.1649 83.5451C57.0939 83.5451 56.2256 82.677 56.2256 81.6063C56.2256 80.5355 57.0939 79.6675 58.1649 79.6675C59.2359 79.6675 60.1041 80.5355 60.1041 81.6063C60.1041 82.677 59.2359 83.5451 58.1649 83.5451Z" fill="white"/>
<path d="M50.1505 83.5451C49.0795 83.5451 48.2113 82.677 48.2113 81.6063C48.2113 80.5355 49.0795 79.6675 50.1505 79.6675C51.2215 79.6675 52.0897 80.5355 52.0897 81.6063C52.0897 82.677 51.2215 83.5451 50.1505 83.5451Z" fill="white"/>
<path d="M42.1338 83.5451C41.0628 83.5451 40.1945 82.677 40.1945 81.6063C40.1945 80.5355 41.0628 79.6675 42.1338 79.6675C43.2048 79.6675 44.073 80.5355 44.073 81.6063C44.073 82.677 43.2048 83.5451 42.1338 83.5451Z" fill="white"/>
<path d="M32.5038 82.681C32.7332 83.0246 33.0662 83.2859 33.4545 83.427C33.8428 83.5681 34.2659 83.5815 34.6624 83.4653C35.0588 83.3491 35.4077 83.1094 35.6584 82.781C35.909 82.4527 36.0482 82.053 36.0557 81.64C36.0632 81.2271 35.9386 80.8225 35.7001 80.4853C35.4615 80.1481 35.1215 79.8959 34.7296 79.7654C34.3376 79.6348 33.9142 79.6329 33.5211 79.7598C33.128 79.8866 32.7856 80.1357 32.544 80.4707C32.5109 81.2059 32.4975 81.9427 32.5038 82.681Z" fill="white"/>
<path d="M86.2209 89.234C85.1499 89.234 84.2817 88.366 84.2817 87.2952C84.2817 86.2245 85.1499 85.3564 86.2209 85.3564C87.2919 85.3564 88.1602 86.2245 88.1602 87.2952C88.1602 88.366 87.2919 89.234 86.2209 89.234Z" fill="white"/>
<path d="M78.2042 89.234C77.1332 89.234 76.265 88.366 76.265 87.2952C76.265 86.2245 77.1332 85.3564 78.2042 85.3564C79.2752 85.3564 80.1434 86.2245 80.1434 87.2952C80.1434 88.366 79.2752 89.234 78.2042 89.234Z" fill="white"/>
<path d="M70.1875 89.234C69.1165 89.234 68.2483 88.366 68.2483 87.2952C68.2483 86.2245 69.1165 85.3564 70.1875 85.3564C71.2585 85.3564 72.1268 86.2245 72.1268 87.2952C72.1268 88.366 71.2585 89.234 70.1875 89.234Z" fill="white"/>
<path d="M62.1732 89.234C61.1022 89.234 60.234 88.366 60.234 87.2952C60.234 86.2245 61.1022 85.3564 62.1732 85.3564C63.2442 85.3564 64.1124 86.2245 64.1124 87.2952C64.1124 88.366 63.2442 89.234 62.1732 89.234Z" fill="white"/>
<path d="M54.1565 89.234C53.0855 89.234 52.2173 88.366 52.2173 87.2952C52.2173 86.2245 53.0855 85.3564 54.1565 85.3564C55.2275 85.3564 56.0957 86.2245 56.0957 87.2952C56.0957 88.366 55.2275 89.234 54.1565 89.234Z" fill="white"/>
<path d="M46.1421 89.234C45.0711 89.234 44.2029 88.366 44.2029 87.2952C44.2029 86.2245 45.0711 85.3564 46.1421 85.3564C47.2131 85.3564 48.0814 86.2245 48.0814 87.2952C48.0814 88.366 47.2131 89.234 46.1421 89.234Z" fill="white"/>
<path d="M38.1254 89.234C37.0544 89.234 36.1862 88.366 36.1862 87.2952C36.1862 86.2245 37.0544 85.3564 38.1254 85.3564C39.1964 85.3564 40.0646 86.2245 40.0646 87.2952C40.0646 88.366 39.1964 89.234 38.1254 89.234Z" fill="white"/>
<path d="M90.2269 94.6608C89.1559 94.6608 88.2877 93.7928 88.2877 92.722C88.2877 91.6512 89.1559 90.7832 90.2269 90.7832C91.2979 90.7832 92.1661 91.6512 92.1661 92.722C92.1661 93.7928 91.2979 94.6608 90.2269 94.6608Z" fill="white"/>
<path d="M82.2126 94.6608C81.1416 94.6608 80.2734 93.7928 80.2734 92.722C80.2734 91.6512 81.1416 90.7832 82.2126 90.7832C83.2836 90.7832 84.1518 91.6512 84.1518 92.722C84.1518 93.7928 83.2836 94.6608 82.2126 94.6608Z" fill="white"/>
<path d="M74.1959 94.6608C73.1249 94.6608 72.2567 93.7928 72.2567 92.722C72.2567 91.6512 73.1249 90.7832 74.1959 90.7832C75.2669 90.7832 76.1351 91.6512 76.1351 92.722C76.1351 93.7928 75.2669 94.6608 74.1959 94.6608Z" fill="white"/>
<path d="M66.1815 94.6608C65.1105 94.6608 64.2423 93.7928 64.2423 92.722C64.2423 91.6512 65.1105 90.7832 66.1815 90.7832C67.2525 90.7832 68.1208 91.6512 68.1208 92.722C68.1208 93.7928 67.2525 94.6608 66.1815 94.6608Z" fill="white"/>
<path d="M58.1649 94.6608C57.0939 94.6608 56.2256 93.7928 56.2256 92.722C56.2256 91.6512 57.0939 90.7832 58.1649 90.7832C59.2359 90.7832 60.1041 91.6512 60.1041 92.722C60.1041 93.7928 59.2359 94.6608 58.1649 94.6608Z" fill="white"/>
<path d="M50.1505 94.6608C49.0795 94.6608 48.2113 93.7928 48.2113 92.722C48.2113 91.6512 49.0795 90.7832 50.1505 90.7832C51.2215 90.7832 52.0897 91.6512 52.0897 92.722C52.0897 93.7928 51.2215 94.6608 50.1505 94.6608Z" fill="white"/>
<path d="M42.1338 94.6608C41.0628 94.6608 40.1945 93.7928 40.1945 92.722C40.1945 91.6512 41.0628 90.7832 42.1338 90.7832C43.2048 90.7832 44.073 91.6512 44.073 92.722C44.073 93.7928 43.2048 94.6608 42.1338 94.6608Z" fill="white"/>
<path d="M33.5195 90.8753C33.8124 92.0702 34.1124 93.3265 34.4195 94.6348C34.899 94.5555 35.3313 94.2991 35.6307 93.9164C35.9302 93.5336 36.0749 93.0523 36.0363 92.5679C35.9977 92.0835 35.7785 91.6313 35.4222 91.3007C35.0659 90.9702 34.5984 90.7855 34.1124 90.7832C33.9112 90.7833 33.7112 90.8143 33.5195 90.8753Z" fill="white"/>
<path d="M86.2209 100.607C85.1499 100.607 84.2817 99.7391 84.2817 98.6683C84.2817 97.5975 85.1499 96.7295 86.2209 96.7295C87.2919 96.7295 88.1602 97.5975 88.1602 98.6683C88.1602 99.7391 87.2919 100.607 86.2209 100.607Z" fill="white"/>
<path d="M94.2353 100.607C93.1643 100.607 92.2961 99.7391 92.2961 98.6683C92.2961 97.5975 93.1643 96.7295 94.2353 96.7295C95.3063 96.7295 96.1745 97.5975 96.1745 98.6683C96.1745 99.7391 95.3063 100.607 94.2353 100.607Z" fill="white"/>
<path d="M78.2042 100.607C77.1332 100.607 76.265 99.7391 76.265 98.6683C76.265 97.5975 77.1332 96.7295 78.2042 96.7295C79.2752 96.7295 80.1434 97.5975 80.1434 98.6683C80.1434 99.7391 79.2752 100.607 78.2042 100.607Z" fill="white"/>
<path d="M70.1875 100.607C69.1165 100.607 68.2483 99.7391 68.2483 98.6683C68.2483 97.5975 69.1165 96.7295 70.1875 96.7295C71.2585 96.7295 72.1268 97.5975 72.1268 98.6683C72.1268 99.7391 71.2585 100.607 70.1875 100.607Z" fill="white"/>
<path d="M62.1732 100.607C61.1022 100.607 60.234 99.7391 60.234 98.6683C60.234 97.5975 61.1022 96.7295 62.1732 96.7295C63.2442 96.7295 64.1124 97.5975 64.1124 98.6683C64.1124 99.7391 63.2442 100.607 62.1732 100.607Z" fill="white"/>
<path d="M54.1565 100.607C53.0855 100.607 52.2173 99.7391 52.2173 98.6683C52.2173 97.5975 53.0855 96.7295 54.1565 96.7295C55.2275 96.7295 56.0957 97.5975 56.0957 98.6683C56.0957 99.7391 55.2275 100.607 54.1565 100.607Z" fill="white"/>
<path d="M46.1421 100.607C45.0711 100.607 44.2029 99.7391 44.2029 98.6683C44.2029 97.5975 45.0711 96.7295 46.1421 96.7295C47.2131 96.7295 48.0814 97.5975 48.0814 98.6683C48.0814 99.7391 47.2131 100.607 46.1421 100.607Z" fill="white"/>
<path d="M38.1254 100.607C37.0544 100.607 36.1862 99.7391 36.1862 98.6683C36.1862 97.5975 37.0544 96.7295 38.1254 96.7295C39.1964 96.7295 40.0646 97.5975 40.0646 98.6683C40.0646 99.7391 39.1964 100.607 38.1254 100.607Z" fill="white"/>
<path d="M90.2269 106.036C89.1559 106.036 88.2877 105.168 88.2877 104.097C88.2877 103.027 89.1559 102.159 90.2269 102.159C91.2979 102.159 92.1661 103.027 92.1661 104.097C92.1661 105.168 91.2979 106.036 90.2269 106.036Z" fill="white"/>
<path d="M94.2353 89.234C93.1643 89.234 92.2961 88.366 92.2961 87.2952C92.2961 86.2245 93.1643 85.3564 94.2353 85.3564C95.3063 85.3564 96.1745 86.2245 96.1745 87.2952C96.1745 88.366 95.3063 89.234 94.2353 89.234Z" fill="white"/>
<path d="M98.2437 94.6608C97.1727 94.6608 96.3044 93.7928 96.3044 92.722C96.3044 91.6512 97.1727 90.7832 98.2437 90.7832C99.3147 90.7832 100.183 91.6512 100.183 92.722C100.183 93.7928 99.3147 94.6608 98.2437 94.6608Z" fill="white"/>
<path d="M102.252 100.607C101.181 100.607 100.313 99.7391 100.313 98.6683C100.313 97.5975 101.181 96.7295 102.252 96.7295C103.323 96.7295 104.191 97.5975 104.191 98.6683C104.191 99.7391 103.323 100.607 102.252 100.607Z" fill="white"/>
<path d="M98.2437 106.036C97.1727 106.036 96.3044 105.168 96.3044 104.097C96.3044 103.027 97.1727 102.159 98.2437 102.159C99.3147 102.159 100.183 103.027 100.183 104.097C100.183 105.168 99.3147 106.036 98.2437 106.036Z" fill="white"/>
<path d="M100.31 87.2929C100.31 87.8071 100.515 88.3002 100.878 88.6638C101.242 89.0274 101.735 89.2317 102.25 89.2317C102.351 89.2327 102.452 89.224 102.552 89.2057C102.025 88.1029 101.482 86.9882 100.932 85.876C100.735 86.0562 100.579 86.2752 100.472 86.5191C100.365 86.763 100.31 87.0265 100.31 87.2929Z" fill="white"/>
<path d="M106.258 106.036C105.187 106.036 104.319 105.168 104.319 104.097C104.319 103.027 105.187 102.159 106.258 102.159C107.329 102.159 108.197 103.027 108.197 104.097C108.197 105.168 107.329 106.036 106.258 106.036Z" fill="white"/>
<path d="M82.2126 106.036C81.1416 106.036 80.2734 105.168 80.2734 104.097C80.2734 103.027 81.1416 102.159 82.2126 102.159C83.2836 102.159 84.1518 103.027 84.1518 104.097C84.1518 105.168 83.2836 106.036 82.2126 106.036Z" fill="white"/>
<path d="M74.1959 106.036C73.1249 106.036 72.2567 105.168 72.2567 104.097C72.2567 103.027 73.1249 102.159 74.1959 102.159C75.2669 102.159 76.1351 103.027 76.1351 104.097C76.1351 105.168 75.2669 106.036 74.1959 106.036Z" fill="white"/>
<path d="M66.1815 106.036C65.1105 106.036 64.2423 105.168 64.2423 104.097C64.2423 103.027 65.1105 102.159 66.1815 102.159C67.2525 102.159 68.1208 103.027 68.1208 104.097C68.1208 105.168 67.2525 106.036 66.1815 106.036Z" fill="white"/>
<path d="M58.1649 106.036C57.0939 106.036 56.2256 105.168 56.2256 104.097C56.2256 103.027 57.0939 102.159 58.1649 102.159C59.2359 102.159 60.1041 103.027 60.1041 104.097C60.1041 105.168 59.2359 106.036 58.1649 106.036Z" fill="white"/>
<path d="M50.1505 106.036C49.0795 106.036 48.2113 105.168 48.2113 104.097C48.2113 103.027 49.0795 102.159 50.1505 102.159C51.2215 102.159 52.0897 103.027 52.0897 104.097C52.0897 105.168 51.2215 106.036 50.1505 106.036Z" fill="white"/>
<path d="M42.1338 106.036C41.0628 106.036 40.1945 105.168 40.1945 104.097C40.1945 103.027 41.0628 102.159 42.1338 102.159C43.2048 102.159 44.073 103.027 44.073 104.097C44.073 105.168 43.2048 106.036 42.1338 106.036Z" fill="white"/>
<path d="M86.2209 111.723C85.1499 111.723 84.2817 110.855 84.2817 109.784C84.2817 108.713 85.1499 107.845 86.2209 107.845C87.2919 107.845 88.1602 108.713 88.1602 109.784C88.1602 110.855 87.2919 111.723 86.2209 111.723Z" fill="white"/>
<path d="M78.2042 111.723C77.1332 111.723 76.265 110.855 76.265 109.784C76.265 108.713 77.1332 107.845 78.2042 107.845C79.2752 107.845 80.1434 108.713 80.1434 109.784C80.1434 110.855 79.2752 111.723 78.2042 111.723Z" fill="white"/>
<path d="M70.1875 111.723C69.1165 111.723 68.2483 110.855 68.2483 109.784C68.2483 108.713 69.1165 107.845 70.1875 107.845C71.2585 107.845 72.1268 108.713 72.1268 109.784C72.1268 110.855 71.2585 111.723 70.1875 111.723Z" fill="white"/>
<path d="M62.1732 111.723C61.1022 111.723 60.234 110.855 60.234 109.784C60.234 108.713 61.1022 107.845 62.1732 107.845C63.2442 107.845 64.1124 108.713 64.1124 109.784C64.1124 110.855 63.2442 111.723 62.1732 111.723Z" fill="white"/>
<path d="M54.1565 111.723C53.0855 111.723 52.2173 110.855 52.2173 109.784C52.2173 108.713 53.0855 107.845 54.1565 107.845C55.2275 107.845 56.0957 108.713 56.0957 109.784C56.0957 110.855 55.2275 111.723 54.1565 111.723Z" fill="white"/>
<path d="M46.1421 111.723C45.0711 111.723 44.2029 110.855 44.2029 109.784C44.2029 108.713 45.0711 107.845 46.1421 107.845C47.2131 107.845 48.0814 108.713 48.0814 109.784C48.0814 110.855 47.2131 111.723 46.1421 111.723Z" fill="white"/>
<path d="M37.3908 107.989C37.6538 109.231 37.9152 110.475 38.175 111.72C38.4596 111.713 38.7391 111.644 38.9938 111.517C39.2485 111.39 39.4722 111.209 39.6489 110.986C39.8256 110.763 39.951 110.504 40.0163 110.227C40.0816 109.95 40.0851 109.662 40.0265 109.383C39.968 109.105 39.8489 108.843 39.6777 108.615C39.5064 108.388 39.2872 108.201 39.0357 108.068C38.7841 107.935 38.5064 107.859 38.2221 107.846C37.9378 107.832 37.654 107.881 37.3908 107.989Z" fill="white"/>
<path d="M90.2269 113.274C89.7309 113.273 89.2535 113.463 88.8948 113.806C89.6553 114.868 90.4159 115.9 91.1765 116.902C91.5502 116.692 91.844 116.364 92.0119 115.97C92.1797 115.576 92.2122 115.137 92.1043 114.722C91.9964 114.308 91.754 113.941 91.4152 113.678C91.0764 113.416 90.6602 113.273 90.2317 113.272L90.2269 113.274Z" fill="white"/>
<path d="M82.2126 117.151C81.1416 117.151 80.2734 116.283 80.2734 115.213C80.2734 114.142 81.1416 113.274 82.2126 113.274C83.2836 113.274 84.1518 114.142 84.1518 115.213C84.1518 116.283 83.2836 117.151 82.2126 117.151Z" fill="white"/>
<path d="M74.1959 117.151C73.1249 117.151 72.2567 116.283 72.2567 115.213C72.2567 114.142 73.1249 113.274 74.1959 113.274C75.2669 113.274 76.1351 114.142 76.1351 115.213C76.1351 116.283 75.2669 117.151 74.1959 117.151Z" fill="white"/>
<path d="M66.1815 117.151C65.1105 117.151 64.2423 116.283 64.2423 115.213C64.2423 114.142 65.1105 113.274 66.1815 113.274C67.2525 113.274 68.1208 114.142 68.1208 115.213C68.1208 116.283 67.2525 117.151 66.1815 117.151Z" fill="white"/>
<path d="M58.1649 117.151C57.0939 117.151 56.2256 116.283 56.2256 115.213C56.2256 114.142 57.0939 113.274 58.1649 113.274C59.2359 113.274 60.1041 114.142 60.1041 115.213C60.1041 116.283 59.2359 117.151 58.1649 117.151Z" fill="white"/>
<path d="M50.1505 117.151C49.0795 117.151 48.2113 116.283 48.2113 115.213C48.2113 114.142 49.0795 113.274 50.1505 113.274C51.2215 113.274 52.0897 114.142 52.0897 115.213C52.0897 116.283 51.2215 117.151 50.1505 117.151Z" fill="white"/>
<path d="M42.1338 117.151C41.0628 117.151 40.1945 116.283 40.1945 115.213C40.1945 114.142 41.0628 113.274 42.1338 113.274C43.2048 113.274 44.073 114.142 44.073 115.213C44.073 116.283 43.2048 117.151 42.1338 117.151Z" fill="white"/>
<path d="M85.7037 123.098C84.6326 123.098 83.7644 122.23 83.7644 121.159C83.7644 120.088 84.6326 119.22 85.7037 119.22C86.7747 119.22 87.6429 120.088 87.6429 121.159C87.6429 122.23 86.7747 123.098 85.7037 123.098Z" fill="white"/>
<path d="M93.222 119.508C94.0581 120.538 94.8895 121.513 95.7068 122.422C95.9493 122.14 96.1055 121.794 96.1567 121.426C96.2079 121.057 96.1519 120.682 95.9956 120.344C95.8392 120.007 95.5889 119.721 95.2747 119.522C94.9605 119.323 94.5956 119.218 94.2234 119.22C93.8692 119.221 93.5222 119.32 93.222 119.508Z" fill="white"/>
<path d="M78.2042 123.098C77.1332 123.098 76.265 122.23 76.265 121.159C76.265 120.088 77.1332 119.22 78.2042 119.22C79.2752 119.22 80.1434 120.088 80.1434 121.159C80.1434 122.23 79.2752 123.098 78.2042 123.098Z" fill="white"/>
<path d="M70.1875 123.098C69.1165 123.098 68.2483 122.23 68.2483 121.159C68.2483 120.088 69.1165 119.22 70.1875 119.22C71.2585 119.22 72.1268 120.088 72.1268 121.159C72.1268 122.23 71.2585 123.098 70.1875 123.098Z" fill="white"/>
<path d="M62.1732 123.098C61.1022 123.098 60.234 122.23 60.234 121.159C60.234 120.088 61.1022 119.22 62.1732 119.22C63.2442 119.22 64.1124 120.088 64.1124 121.159C64.1124 122.23 63.2442 123.098 62.1732 123.098Z" fill="white"/>
<path d="M54.1565 123.098C53.0855 123.098 52.2173 122.23 52.2173 121.159C52.2173 120.088 53.0855 119.22 54.1565 119.22C55.2275 119.22 56.0957 120.088 56.0957 121.159C56.0957 122.23 55.2275 123.098 54.1565 123.098Z" fill="white"/>
<path d="M46.1421 123.098C45.0711 123.098 44.2029 122.23 44.2029 121.159C44.2029 120.088 45.0711 119.22 46.1421 119.22C47.2131 119.22 48.0814 120.088 48.0814 121.159C48.0814 122.23 47.2131 123.098 46.1421 123.098Z" fill="white"/>
<path d="M94.2353 111.723C93.1643 111.723 92.2961 110.855 92.2961 109.784C92.2961 108.713 93.1643 107.845 94.2353 107.845C95.3063 107.845 96.1745 108.713 96.1745 109.784C96.1745 110.855 95.3063 111.723 94.2353 111.723Z" fill="white"/>
<path d="M98.2437 117.151C97.1727 117.151 96.3044 116.283 96.3044 115.213C96.3044 114.142 97.1727 113.274 98.2437 113.274C99.3147 113.274 100.183 114.142 100.183 115.213C100.183 116.283 99.3147 117.151 98.2437 117.151Z" fill="white"/>
<path d="M102.252 123.098C101.181 123.098 100.313 122.23 100.313 121.159C100.313 120.088 101.181 119.22 102.252 119.22C103.323 119.22 104.191 120.088 104.191 121.159C104.191 122.23 103.323 123.098 102.252 123.098Z" fill="white"/>
<path d="M106.258 128.527C105.187 128.527 104.319 127.659 104.319 126.588C104.319 125.517 105.187 124.649 106.258 124.649C107.329 124.649 108.197 125.517 108.197 126.588C108.197 127.659 107.329 128.527 106.258 128.527Z" fill="white"/>
<path d="M102.252 111.723C101.181 111.723 100.313 110.855 100.313 109.784C100.313 108.713 101.181 107.845 102.252 107.845C103.323 107.845 104.191 108.713 104.191 109.784C104.191 110.855 103.323 111.723 102.252 111.723Z" fill="white"/>
<path d="M106.258 117.151C105.187 117.151 104.319 116.283 104.319 115.213C104.319 114.142 105.187 113.274 106.258 113.274C107.329 113.274 108.197 114.142 108.197 115.213C108.197 116.283 107.329 117.151 106.258 117.151Z" fill="white"/>
<path d="M110.266 123.098C109.195 123.098 108.327 122.23 108.327 121.159C108.327 120.088 109.195 119.22 110.266 119.22C111.337 119.22 112.206 120.088 112.206 121.159C112.206 122.23 111.337 123.098 110.266 123.098Z" fill="white"/>
<path d="M114.275 128.527C113.204 128.527 112.335 127.659 112.335 126.588C112.335 125.517 113.204 124.649 114.275 124.649C115.346 124.649 116.214 125.517 116.214 126.588C116.214 127.659 115.346 128.527 114.275 128.527Z" fill="white"/>
<path d="M110.266 111.723C109.195 111.723 108.327 110.855 108.327 109.784C108.327 108.713 109.195 107.845 110.266 107.845C111.337 107.845 112.206 108.713 112.206 109.784C112.206 110.855 111.337 111.723 110.266 111.723Z" fill="white"/>
<path d="M114.275 117.151C113.204 117.151 112.335 116.283 112.335 115.213C112.335 114.142 113.204 113.274 114.275 113.274C115.346 113.274 116.214 114.142 116.214 115.213C116.214 116.283 115.346 117.151 114.275 117.151Z" fill="white"/>
<path d="M118.283 123.098C117.212 123.098 116.344 122.23 116.344 121.159C116.344 120.088 117.212 119.22 118.283 119.22C119.354 119.22 120.222 120.088 120.222 121.159C120.222 122.23 119.354 123.098 118.283 123.098Z" fill="white"/>
<path d="M120.35 126.576C120.349 126.898 120.429 127.214 120.581 127.497C120.734 127.78 120.955 128.02 121.224 128.196C122.114 128.029 123.009 127.847 123.9 127.658C124.071 127.407 124.18 127.119 124.219 126.818C124.258 126.517 124.226 126.21 124.125 125.924C124.024 125.637 123.857 125.379 123.638 125.168C123.419 124.958 123.153 124.803 122.862 124.714C122.572 124.625 122.265 124.606 121.965 124.658C121.666 124.71 121.383 124.831 121.139 125.012C120.895 125.194 120.697 125.43 120.562 125.701C120.426 125.973 120.356 126.273 120.357 126.576H120.35Z" fill="white"/>
<path d="M116.341 109.784C116.341 110.298 116.546 110.791 116.909 111.155C117.273 111.518 117.766 111.723 118.281 111.723C118.795 111.723 119.288 111.518 119.652 111.155C120.016 110.791 120.22 110.298 120.22 109.784C120.221 109.56 120.181 109.338 120.104 109.127L116.663 108.735C116.456 109.046 116.344 109.411 116.341 109.784Z" fill="white"/>
<path d="M122.291 117.151C121.22 117.151 120.352 116.283 120.352 115.213C120.352 114.142 121.22 113.274 122.291 113.274C123.362 113.274 124.231 114.142 124.231 115.213C124.231 116.283 123.362 117.151 122.291 117.151Z" fill="white"/>
<path d="M126.297 123.098C125.226 123.098 124.358 122.23 124.358 121.159C124.358 120.088 125.226 119.22 126.297 119.22C127.368 119.22 128.237 120.088 128.237 121.159C128.237 122.23 127.368 123.098 126.297 123.098Z" fill="white"/>
<path d="M128.367 126.576C128.365 126.599 128.365 126.622 128.367 126.645C129.604 126.347 130.832 126.035 132.037 125.714C131.843 125.324 131.522 125.01 131.127 124.825C130.732 124.639 130.285 124.593 129.861 124.692C129.436 124.792 129.057 125.033 128.786 125.374C128.515 125.716 128.367 126.14 128.367 126.576Z" fill="white"/>
<path d="M124.358 109.784C124.362 110.275 124.552 110.746 124.89 111.102C125.228 111.458 125.689 111.673 126.179 111.703C126.669 111.733 127.152 111.576 127.531 111.264C127.91 110.951 128.156 110.507 128.22 110.02L124.368 109.6C124.361 109.661 124.358 109.722 124.358 109.784Z" fill="white"/>
<path d="M130.306 117.151C129.235 117.151 128.366 116.283 128.366 115.213C128.366 114.142 129.235 113.274 130.306 113.274C131.377 113.274 132.245 114.142 132.245 115.213C132.245 116.283 131.377 117.151 130.306 117.151Z" fill="white"/>
<path d="M134.314 123.098C133.243 123.098 132.375 122.23 132.375 121.159C132.375 120.088 133.243 119.22 134.314 119.22C135.385 119.22 136.253 120.088 136.253 121.159C136.253 122.23 135.385 123.098 134.314 123.098Z" fill="white"/>
<path d="M132.502 110.476C132.63 110.811 132.849 111.104 133.134 111.323C133.419 111.541 133.759 111.676 134.117 111.712C134.474 111.748 134.834 111.685 135.157 111.528C135.48 111.371 135.753 111.128 135.946 110.825C134.812 110.712 133.669 110.596 132.502 110.476Z" fill="white"/>
<path d="M138.322 117.151C137.251 117.151 136.383 116.283 136.383 115.213C136.383 114.142 137.251 113.274 138.322 113.274C139.393 113.274 140.262 114.142 140.262 115.213C140.262 116.283 139.393 117.151 138.322 117.151Z" fill="white"/>
<path d="M140.389 121.159C140.389 121.532 140.497 121.896 140.699 122.209C140.902 122.522 141.19 122.77 141.53 122.923C142.404 122.637 143.243 122.354 144.039 122.078C144.177 121.818 144.255 121.53 144.266 121.236C144.277 120.941 144.221 120.648 144.102 120.379C143.983 120.11 143.804 119.871 143.578 119.681C143.353 119.491 143.088 119.355 142.802 119.283C142.516 119.211 142.218 119.205 141.93 119.266C141.641 119.327 141.371 119.452 141.138 119.633C140.905 119.814 140.717 120.045 140.587 120.309C140.458 120.574 140.39 120.864 140.389 121.159Z" fill="white"/>
<path d="M146.337 117.151C145.266 117.151 144.398 116.283 144.398 115.213C144.398 114.142 145.266 113.274 146.337 113.274C147.408 113.274 148.276 114.142 148.276 115.213C148.276 116.283 147.408 117.151 146.337 117.151Z" fill="white"/>
<path d="M82.2126 128.527C81.1416 128.527 80.2734 127.659 80.2734 126.588C80.2734 125.517 81.1416 124.649 82.2126 124.649C83.2836 124.649 84.1518 125.517 84.1518 126.588C84.1518 127.659 83.2836 128.527 82.2126 128.527Z" fill="white"/>
<path d="M74.1959 128.527C73.1249 128.527 72.2567 127.659 72.2567 126.588C72.2567 125.517 73.1249 124.649 74.1959 124.649C75.2669 124.649 76.1351 125.517 76.1351 126.588C76.1351 127.659 75.2669 128.527 74.1959 128.527Z" fill="white"/>
<path d="M66.1815 128.527C65.1105 128.527 64.2423 127.659 64.2423 126.588C64.2423 125.517 65.1105 124.649 66.1815 124.649C67.2525 124.649 68.1208 125.517 68.1208 126.588C68.1208 127.659 67.2525 128.527 66.1815 128.527Z" fill="white"/>
<path d="M58.1649 128.527C57.0939 128.527 56.2256 127.659 56.2256 126.588C56.2256 125.517 57.0939 124.649 58.1649 124.649C59.2359 124.649 60.1041 125.517 60.1041 126.588C60.1041 127.659 59.2359 128.527 58.1649 128.527Z" fill="white"/>
<path d="M50.1505 128.527C49.0795 128.527 48.2113 127.659 48.2113 126.588C48.2113 125.517 49.0795 124.649 50.1505 124.649C51.2215 124.649 52.0897 125.517 52.0897 126.588C52.0897 127.659 51.2215 128.527 50.1505 128.527Z" fill="white"/>
<path d="M40.8654 125.122C41.0827 126.255 41.2929 127.356 41.4913 128.413C41.6972 128.488 41.9146 128.527 42.1338 128.527C42.4476 128.528 42.7571 128.453 43.0356 128.308C43.3141 128.163 43.5534 127.953 43.7329 127.696C43.9124 127.438 44.0268 127.141 44.0663 126.83C44.1058 126.519 44.0692 126.202 43.9597 125.908C43.8501 125.614 43.6709 125.351 43.4373 125.141C43.2038 124.932 42.9229 124.782 42.6187 124.704C42.3145 124.627 41.996 124.625 41.6907 124.697C41.3853 124.77 41.1021 124.916 40.8654 125.122Z" fill="white"/>
<path d="M84.2794 132.275C84.279 132.745 84.4503 133.2 84.7612 133.553C85.0721 133.907 85.5013 134.135 85.9682 134.195C86.1595 132.971 86.3556 131.687 86.5516 130.367C86.4419 130.346 86.3303 130.335 86.2186 130.336C85.7045 130.337 85.2116 130.541 84.848 130.905C84.4845 131.268 84.28 131.761 84.2794 132.275Z" fill="white"/>
<path d="M78.2042 134.214C77.1332 134.214 76.265 133.345 76.265 132.275C76.265 131.204 77.1332 130.336 78.2042 130.336C79.2752 130.336 80.1434 131.204 80.1434 132.275C80.1434 133.345 79.2752 134.214 78.2042 134.214Z" fill="white"/>
<path d="M70.1875 134.214C69.1165 134.214 68.2483 133.345 68.2483 132.275C68.2483 131.204 69.1165 130.336 70.1875 130.336C71.2585 130.336 72.1268 131.204 72.1268 132.275C72.1268 133.345 71.2585 134.214 70.1875 134.214Z" fill="white"/>
<path d="M62.1732 134.214C61.1022 134.214 60.234 133.345 60.234 132.275C60.234 131.204 61.1022 130.336 62.1732 130.336C63.2442 130.336 64.1124 131.204 64.1124 132.275C64.1124 133.345 63.2442 134.214 62.1732 134.214Z" fill="white"/>
<path d="M54.1565 134.214C53.0855 134.214 52.2173 133.345 52.2173 132.275C52.2173 131.204 53.0855 130.336 54.1565 130.336C55.2275 130.336 56.0957 131.204 56.0957 132.275C56.0957 133.345 55.2275 134.214 54.1565 134.214Z" fill="white"/>
<path d="M46.1421 134.214C45.0711 134.214 44.2029 133.345 44.2029 132.275C44.2029 131.204 45.0711 130.336 46.1421 130.336C47.2131 130.336 48.0814 131.204 48.0814 132.275C48.0814 133.345 47.2131 134.214 46.1421 134.214Z" fill="white"/>
<path d="M82.2126 139.643C81.1416 139.643 80.2734 138.775 80.2734 137.704C80.2734 136.633 81.1416 135.765 82.2126 135.765C83.2836 135.765 84.1518 136.633 84.1518 137.704C84.1518 138.775 83.2836 139.643 82.2126 139.643Z" fill="white"/>
<path d="M74.1959 139.643C73.1249 139.643 72.2567 138.775 72.2567 137.704C72.2567 136.633 73.1249 135.765 74.1959 135.765C75.2669 135.765 76.1351 136.633 76.1351 137.704C76.1351 138.775 75.2669 139.643 74.1959 139.643Z" fill="white"/>
<path d="M66.1815 139.643C65.1105 139.643 64.2423 138.775 64.2423 137.704C64.2423 136.633 65.1105 135.765 66.1815 135.765C67.2525 135.765 68.1208 136.633 68.1208 137.704C68.1208 138.775 67.2525 139.643 66.1815 139.643Z" fill="white"/>
<path d="M58.1649 139.643C57.0939 139.643 56.2256 138.775 56.2256 137.704C56.2256 136.633 57.0939 135.765 58.1649 135.765C59.2359 135.765 60.1041 136.633 60.1041 137.704C60.1041 138.775 59.2359 139.643 58.1649 139.643Z" fill="white"/>
<path d="M50.1505 139.643C49.0795 139.643 48.2113 138.775 48.2113 137.704C48.2113 136.633 49.0795 135.765 50.1505 135.765C51.2215 135.765 52.0897 136.633 52.0897 137.704C52.0897 138.775 51.2215 139.643 50.1505 139.643Z" fill="white"/>
<path d="M42.8329 135.895C43.0502 137.196 43.2274 138.316 43.3502 139.201C43.6123 138.987 43.8139 138.708 43.9348 138.392C44.0557 138.076 44.0918 137.734 44.0395 137.4C43.9872 137.066 43.8483 136.751 43.6366 136.487C43.425 136.223 43.1479 136.019 42.8329 135.895Z" fill="white"/>
<path d="M76.2721 143.648C76.2718 144.022 76.3799 144.388 76.5832 144.702C76.7865 145.015 77.0763 145.264 77.4177 145.417C78.105 145.343 78.7735 145.254 79.4254 145.159C79.6806 144.954 79.8795 144.687 80.0036 144.384C80.1278 144.081 80.173 143.751 80.1352 143.426C80.0974 143.1 79.9778 142.79 79.7874 142.523C79.5971 142.256 79.3423 142.042 79.0468 141.901C78.7513 141.759 78.4247 141.695 78.0976 141.714C77.7705 141.732 77.4535 141.834 77.1762 142.008C76.8988 142.183 76.6702 142.425 76.5117 142.711C76.3532 142.998 76.27 143.32 76.2697 143.648H76.2721Z" fill="white"/>
<path d="M70.1875 145.589C69.1165 145.589 68.2483 144.721 68.2483 143.65C68.2483 142.579 69.1165 141.711 70.1875 141.711C71.2585 141.711 72.1268 142.579 72.1268 143.65C72.1268 144.721 71.2585 145.589 70.1875 145.589Z" fill="white"/>
<path d="M62.1732 145.589C61.1022 145.589 60.234 144.721 60.234 143.65C60.234 142.579 61.1022 141.711 62.1732 141.711C63.2442 141.711 64.1124 142.579 64.1124 143.65C64.1124 144.721 63.2442 145.589 62.1732 145.589Z" fill="white"/>
<path d="M52.2173 143.648C52.2172 144.053 52.3436 144.447 52.5786 144.777C53.4668 144.918 54.3974 145.051 55.3635 145.166C55.6198 144.962 55.8202 144.696 55.9457 144.393C56.0712 144.09 56.1178 143.76 56.0812 143.434C56.0445 143.108 55.9258 142.797 55.7362 142.529C55.5465 142.262 55.292 142.047 54.9966 141.904C54.7012 141.762 54.3745 141.697 54.047 141.715C53.7195 141.733 53.402 141.834 53.1241 142.008C52.8462 142.182 52.6171 142.424 52.4581 142.711C52.299 142.998 52.2154 143.32 52.2149 143.648H52.2173Z" fill="white"/>
<path d="M44.5832 142.495C45.3627 142.984 46.5602 143.44 48.0695 143.846C48.0731 143.78 48.0731 143.714 48.0695 143.648C48.0702 143.24 47.942 142.842 47.7031 142.511C47.4642 142.18 47.1268 141.933 46.7392 141.805C46.3516 141.678 45.9335 141.676 45.5446 141.799C45.1558 141.923 44.816 142.167 44.5738 142.495H44.5832Z" fill="white"/>
<path fill-rule="evenodd" clip-rule="evenodd" d="M74.5611 91.8502C78.104 98.9486 82.0185 106.792 88.0354 114.786L88.7903 114.218C82.8291 106.298 78.9543 98.5354 75.4103 91.4356C74.8655 90.3443 74.3285 89.2686 73.793 88.2104L72.95 88.6369C73.4824 89.689 74.0174 90.7608 74.5611 91.8502Z" fill="#D8BAA3"/>
<path d="M165.878 111.267C163.582 110.773 155.506 110.815 151.373 111.937L152.154 118.785C152.154 118.785 156.042 120.689 158.61 119.633C161.177 118.578 163.114 116.5 164.942 117.069C166.771 117.638 169.019 119.078 170.118 118.816C171.426 118.524 172.675 118.007 173.807 117.288C173.37 116.485 168.707 112.143 165.878 111.267Z" fill="#FFCFC9"/>
<path d="M67.5917 43.4962C66.9516 46.0608 64.3864 57.1764 64.3864 58.8861C64.3864 60.5958 46.7397 58.6169 43.3195 55.6249C43.3195 55.6249 50.2757 47.8744 51.9858 36.2275L67.5917 43.4962Z" fill="#FFCFC9"/>
<path d="M54.1517 37.4205C54.1517 37.4205 59.5348 48.647 70.719 47.752C71.0928 47.7228 71.4535 47.6014 71.7688 47.3986C72.0841 47.1959 72.3443 46.9181 72.5259 46.5902C74.0612 43.8036 78.1334 35.9634 77.9846 31.3089C77.8003 25.5917 75.3674 14.991 75.3674 14.991C75.3674 14.991 61.748 12.1714 54.1872 24.7959C49.9521 31.8804 54.1517 37.4205 54.1517 37.4205Z" fill="#FFCFC9"/>
<path fill-rule="evenodd" clip-rule="evenodd" d="M83.7644 26.8081H63.9825V27.7527H83.7644V26.8081Z" fill="#D8BAA3"/>
<path fill-rule="evenodd" clip-rule="evenodd" d="M82.5962 25.7346C82.9241 26.6436 83.1361 27.9306 83.1361 29.3749C83.1361 30.8192 82.9241 32.1062 82.5962 33.0152C82.4315 33.4717 82.2464 33.8078 82.0647 34.0208C81.8814 34.2357 81.746 34.2774 81.6693 34.2774C81.5926 34.2774 81.4572 34.2357 81.2739 34.0208C81.0922 33.8078 80.9072 33.4717 80.7425 33.0152C80.4145 32.1062 80.2025 30.8192 80.2025 29.3749C80.2025 27.9306 80.4145 26.6436 80.7425 25.7346C80.9072 25.2781 81.0922 24.942 81.2739 24.729C81.4572 24.5141 81.5926 24.4724 81.6693 24.4724C81.746 24.4724 81.8814 24.5141 82.0647 24.729C82.2464 24.942 82.4315 25.2781 82.5962 25.7346ZM82.7836 24.116C82.5029 23.7869 82.1281 23.5278 81.6693 23.5278C81.2105 23.5278 80.8358 23.7869 80.555 24.116C80.2728 24.4469 80.0399 24.898 79.8537 25.4141C79.4798 26.4504 79.2577 27.8508 79.2577 29.3749C79.2577 30.899 79.4798 32.2994 79.8537 33.3357C80.0399 33.8518 80.2728 34.3029 80.555 34.6338C80.8358 34.9628 81.2105 35.222 81.6693 35.222C82.1281 35.222 82.5029 34.9628 82.7836 34.6338C83.0658 34.3029 83.2987 33.8518 83.4849 33.3357C83.8588 32.2994 84.0809 30.899 84.0809 29.3749C84.0809 27.8508 83.8588 26.4504 83.4849 25.4141C83.2987 24.898 83.0658 24.4469 82.7836 24.116Z" fill="#D8BAA3"/>
<path d="M28.3396 48.2901C28.3396 48.2901 44.0352 52.8266 65.1706 54.208C65.1706 54.208 72.5283 46.5899 64.051 37.1887C59.2041 31.814 65.1446 25.0011 65.1446 25.0011C71.9354 22.8757 80.0041 22.6396 80.0041 22.6396C82.6992 18.6793 82.7724 13.0566 75.28 7.50473C67.5184 1.76157 52.3094 -3.9745 43.3337 5.11962C38.1916 10.3149 41.6803 20.7291 35.0997 23.8888C14.3871 33.8094 28.3396 48.2901 28.3396 48.2901Z" fill="#3F4D90"/>
<path fill-rule="evenodd" clip-rule="evenodd" d="M57.3586 1.08798C63.1878 2.09204 68.88 4.93504 72.7287 7.78025L73.15 7.21061C69.2299 4.31266 63.4368 1.41604 57.4789 0.389813C51.5181 -0.636914 45.3389 0.203026 40.7411 4.86116C39.3953 6.22089 38.5957 8.02451 38.0413 9.97632C37.5838 11.587 37.286 13.3285 36.9944 15.034C36.9332 15.3919 36.8722 15.7482 36.8101 16.1014C36.4496 18.1525 36.0501 20.101 35.3431 21.7296C34.6396 23.3501 33.643 24.6272 32.0999 25.3692L32.407 26.0076C34.1495 25.1698 35.2454 23.7341 35.9931 22.0117C36.7373 20.2975 37.1479 18.273 37.508 16.224C37.5715 15.8633 37.6333 15.5018 37.6951 15.1407C37.9868 13.436 38.2769 11.7403 38.723 10.1698C39.2626 8.2699 40.0195 6.59739 41.2448 5.35947L41.2451 5.35912C45.6231 0.923447 51.5324 0.0844325 57.3586 1.08798Z" fill="#3F4D90"/>
<path fill-rule="evenodd" clip-rule="evenodd" d="M82.2256 15.377C83.1801 17.9832 82.7983 20.5497 81.5181 22.4309L82.104 22.8294C83.5188 20.7503 83.9201 17.9433 82.891 15.1334C81.8616 12.3224 79.4116 9.53137 75.1629 7.43506L74.8493 8.07036C78.9716 10.1043 81.2716 12.7719 82.2256 15.377Z" fill="#3F4D90"/>
<path fill-rule="evenodd" clip-rule="evenodd" d="M63.2897 28.6815C62.8168 31.4216 62.994 34.8818 65.7126 37.5208C70.1714 41.8534 70.821 45.9675 70.3907 48.9793C70.1742 50.4947 69.682 51.7441 69.2437 52.6145C69.0247 53.0494 68.8198 53.3883 68.6708 53.6171C68.5963 53.7315 68.5359 53.8182 68.4947 53.8754C68.4742 53.904 68.4584 53.9253 68.4482 53.9389C68.443 53.9458 68.4393 53.9507 68.437 53.9537L68.4346 53.9567L68.4344 53.9571C68.4344 53.957 68.4346 53.9569 68.7136 54.1751C68.9927 54.3933 68.9929 54.3931 68.993 54.3929L68.9935 54.3923L68.9949 54.3905L68.9994 54.3847C69.0031 54.3798 69.0083 54.373 69.0148 54.3643C69.028 54.3468 69.0466 54.3216 69.0702 54.2888C69.1173 54.2233 69.1839 54.1277 69.2646 54.0037C69.426 53.7558 69.6444 53.3942 69.8766 52.9331C70.3405 52.0118 70.8623 50.6883 71.0922 49.0795C71.5547 45.8427 70.8272 41.5027 66.2064 37.0127L66.2063 37.0126C63.7285 34.6074 63.5337 31.4343 63.988 28.802C64.2145 27.4894 64.6003 26.328 64.9304 25.4938C65.0953 25.0772 65.2456 24.7436 65.3543 24.5151C65.4086 24.4009 65.4524 24.3131 65.4824 24.2543C65.4973 24.225 65.5088 24.2029 65.5164 24.1885L65.5248 24.1726L65.5267 24.1691L65.5271 24.1684L65.5271 24.1684C65.5271 24.1684 65.527 24.1685 65.2155 23.9999C64.9039 23.8312 64.9038 23.8314 64.9037 23.8316L64.9034 23.8321L64.9026 23.8336L64.8997 23.8391C64.8972 23.8437 64.8937 23.8502 64.8893 23.8587C64.8803 23.8757 64.8675 23.9004 64.8511 23.9325C64.8183 23.9967 64.7716 24.0905 64.7143 24.211C64.5998 24.4518 64.4429 24.8 64.2715 25.2332C63.9292 26.0984 63.5267 27.3079 63.2897 28.6815Z" fill="#3F4D90"/>
<path d="M0.892853 104.648C2.14709 109.371 18.9387 139.834 20.6039 182.849C20.8317 188.828 23.3668 194.486 27.6773 198.637C31.9879 202.787 37.7388 205.107 43.7234 205.11H119.481C122.058 205.11 123.81 206.145 124.913 207.824C125.01 207.963 125.149 208.069 125.309 208.124C125.47 208.18 125.644 208.182 125.806 208.132C125.969 208.082 126.111 207.981 126.212 207.844C126.313 207.708 126.368 207.543 126.368 207.373V203.455C126.368 198.26 122.143 193.093 116.937 193.107L93.8077 193.126C83.4526 193.156 77.3232 185.914 76.9311 175.568C75.4855 137.359 63.1936 113.175 57.6239 105.344C56.6343 103.956 55.3268 102.824 53.8106 102.043C52.2944 101.263 50.6134 100.856 48.9081 100.857H2.81318C0.866875 100.86 0.392105 102.761 0.892853 104.648Z" fill="white"/>
<path fill-rule="evenodd" clip-rule="evenodd" d="M48.9087 101.566C50.5011 101.565 52.0706 101.944 53.4863 102.673C54.9019 103.402 56.1226 104.458 57.0466 105.755C62.5333 113.469 74.7826 137.519 76.2231 175.595C76.4241 180.897 78.0984 185.469 81.1139 188.72C84.1382 191.98 88.456 193.85 93.81 193.834L116.939 193.815C119.298 193.809 121.472 194.977 123.073 196.795C124.675 198.616 125.66 201.043 125.66 203.455V207.371C125.66 207.39 125.653 207.408 125.642 207.423C125.631 207.438 125.615 207.45 125.597 207.455C125.578 207.461 125.559 207.461 125.541 207.455C125.524 207.449 125.509 207.438 125.499 207.424C124.256 205.54 122.276 204.402 119.481 204.402H43.7239C37.9225 204.399 32.3476 202.15 28.169 198.126C23.9905 194.103 21.533 188.617 21.3122 182.822L21.3121 182.821C20.4762 161.229 15.8442 142.791 11.2661 129.163C8.97694 122.348 6.70098 116.736 4.92027 112.534C4.40573 111.32 3.92478 110.205 3.49985 109.221C3.19658 108.518 2.92186 107.882 2.68382 107.322C2.09511 105.938 1.71896 104.997 1.5779 104.466C1.35122 103.612 1.371 102.838 1.58865 102.321C1.69328 102.072 1.8381 101.893 2.01633 101.774C2.1935 101.655 2.44612 101.566 2.81379 101.566L48.9087 101.566ZM48.9079 100.149C50.7263 100.148 52.5185 100.581 54.1351 101.413C55.7518 102.246 57.1459 103.453 58.2011 104.933L58.2015 104.934C63.854 112.881 76.1887 137.199 77.6393 175.541C77.8305 180.585 79.4169 184.807 82.153 187.756C84.8802 190.696 88.8047 192.432 93.8058 192.417L116.935 192.398C119.782 192.391 122.323 193.799 124.137 195.859C125.949 197.918 127.077 200.671 127.077 203.455V207.373L127.077 207.375C127.076 207.696 126.972 208.008 126.782 208.266C126.591 208.524 126.323 208.714 126.016 208.809C125.71 208.904 125.381 208.898 125.078 208.794C124.775 208.689 124.513 208.49 124.331 208.227L124.326 208.22L124.321 208.213C123.357 206.745 121.834 205.819 119.481 205.819H43.7232C37.5554 205.816 31.6284 203.424 27.1859 199.147C22.7434 194.869 20.1307 189.037 19.896 182.875C19.896 182.876 19.896 182.876 19.896 182.876L20.6041 182.849L19.896 182.875" fill="#D8BAA3"/>
<path fill-rule="evenodd" clip-rule="evenodd" d="M51.5815 104.856C50.0411 104.065 48.3339 103.653 46.6022 103.656H1.54008C1.14873 103.656 0.831474 103.973 0.831474 104.364C0.831474 104.755 1.14873 105.073 1.54008 105.073L46.6038 105.073C48.1098 105.07 49.5945 105.428 50.9341 106.116C52.2732 106.804 53.4287 107.801 54.3041 109.025C56.886 112.656 61.0176 122.021 64.6803 134.832C68.3351 147.616 71.5005 163.752 72.1911 180.882L72.1911 180.882C72.3706 185.242 74.2297 189.363 77.3793 192.383C80.5288 195.403 84.7247 197.088 89.0888 197.086L89.0885 196.378V197.086H89.0888H117.745C119.844 197.086 121.858 197.92 123.343 199.404C124.828 200.889 125.662 202.902 125.662 205.002C125.662 205.393 125.979 205.71 126.371 205.71C126.762 205.71 127.079 205.393 127.079 205.002C127.079 202.527 126.096 200.153 124.345 198.403C122.595 196.652 120.22 195.669 117.745 195.669H89.0881C85.0899 195.671 81.2457 194.127 78.3603 191.36C75.4748 188.593 73.7716 184.818 73.6071 180.824C73.6072 180.824 73.6072 180.824 73.6072 180.825L72.8991 180.853L73.6071 180.824C72.9112 163.563 69.7228 147.314 66.0429 134.443C62.371 121.6 58.1871 112.041 55.4592 108.204L55.4582 108.203C54.4513 106.794 53.1221 105.647 51.5815 104.856Z" fill="#D8BAA3"/>
<path d="M70.8749 220.604H79.142V296.673H70.8749V220.604Z" fill="#F0E1D4"/>
<path fill-rule="evenodd" clip-rule="evenodd" d="M79.8506 219.896H70.1663V297.381H79.8506V219.896ZM78.4334 221.312V295.964H71.5835V221.312H78.4334Z" fill="#D8BAA3"/>
<path fill-rule="evenodd" clip-rule="evenodd" d="M85.2667 297.475C88.9295 297.475 91.9961 300.716 91.9961 304.836C91.9961 305.228 92.3133 305.545 92.7047 305.545C93.096 305.545 93.4133 305.228 93.4133 304.836C93.4133 300.044 89.819 296.059 85.2667 296.059H64.7171C60.1651 296.059 56.5681 300.044 56.5681 304.836C56.5681 305.228 56.8854 305.545 57.2767 305.545C57.6681 305.545 57.9853 305.228 57.9853 304.836C57.9853 300.716 61.054 297.475 64.7171 297.475H85.2667Z" fill="#D8BAA3"/>
<path d="M57.7468 314.292C54.5455 314.292 51.9504 311.697 51.9504 308.497C51.9504 305.296 54.5455 302.702 57.7468 302.702C60.948 302.702 63.5432 305.296 63.5432 308.497C63.5432 311.697 60.948 314.292 57.7468 314.292Z" fill="white"/>
<path fill-rule="evenodd" clip-rule="evenodd" d="M57.7468 303.41C60.5567 303.41 62.8346 305.687 62.8346 308.497C62.8346 311.306 60.5567 313.583 57.7468 313.583C54.9369 313.583 52.659 311.306 52.659 308.497C52.659 305.687 54.9369 303.41 57.7468 303.41ZM64.2518 308.497C64.2518 304.905 61.3394 301.993 57.7468 301.993C54.1541 301.993 51.2418 304.905 51.2418 308.497C51.2418 312.089 54.1541 315 57.7468 315C61.3394 315 64.2518 312.089 64.2518 308.497Z" fill="#D8BAA3"/>
<path d="M91.9961 314.292C88.7948 314.292 86.1997 311.697 86.1997 308.497C86.1997 305.296 88.7948 302.702 91.9961 302.702C95.1973 302.702 97.7925 305.296 97.7925 308.497C97.7925 311.697 95.1973 314.292 91.9961 314.292Z" fill="white"/>
<path fill-rule="evenodd" clip-rule="evenodd" d="M91.9961 303.41C94.806 303.41 97.0839 305.687 97.0839 308.497C97.0839 311.306 94.806 313.583 91.9961 313.583C89.1862 313.583 86.9083 311.306 86.9083 308.497C86.9083 305.687 89.1862 303.41 91.9961 303.41ZM98.5011 308.497C98.5011 304.905 95.5887 301.993 91.9961 301.993C88.4035 301.993 85.4911 304.905 85.4911 308.497C85.4911 312.089 88.4035 315 91.9961 315C95.5887 315 98.5011 312.089 98.5011 308.497Z" fill="#D8BAA3"/>
<path d="M84.0668 205.248H65.9572V216.602C65.9572 217.457 66.1257 218.304 66.4532 219.095C66.7807 219.885 67.2608 220.604 67.8659 221.209C68.471 221.814 69.1894 222.294 69.9801 222.621C70.7708 222.948 71.6182 223.117 72.474 223.117H77.5453C78.4017 223.118 79.2498 222.949 80.0411 222.622C80.8325 222.295 81.5516 221.815 82.1572 221.21C82.7629 220.604 83.2433 219.885 83.571 219.094C83.8986 218.303 84.0671 217.455 84.0668 216.599V205.248Z" fill="white"/>
<path fill-rule="evenodd" clip-rule="evenodd" d="M84.7754 204.539H65.2486V216.602C65.2486 217.55 65.4355 218.49 65.7986 219.366C66.1617 220.242 66.6939 221.039 67.3648 221.71C68.0358 222.38 68.8323 222.912 69.7089 223.275C70.5856 223.638 71.5251 223.825 72.474 223.825H77.5448M84.7754 204.539V216.599V204.539ZM83.3582 205.956V216.599C83.3585 217.363 83.2083 218.118 82.9163 218.823C82.6243 219.528 82.1961 220.169 81.6563 220.708C81.1165 221.248 80.4756 221.676 79.7703 221.967C79.0649 222.259 78.3091 222.409 77.5458 222.408H72.474C71.7112 222.408 70.956 222.258 70.2513 221.966C69.5466 221.675 68.9063 221.247 68.367 220.708C67.8276 220.168 67.3998 219.528 67.1079 218.824C66.816 218.119 66.6658 217.364 66.6658 216.602V205.956H83.3582Z" fill="#D8BAA3"/>
<path fill-rule="evenodd" clip-rule="evenodd" d="M100.516 297.474C102.458 297.474 104.32 298.245 105.694 299.618C107.067 300.991 107.838 302.853 107.838 304.794C107.838 305.185 108.155 305.503 108.547 305.503C108.938 305.503 109.255 305.185 109.255 304.794C109.255 302.477 108.335 300.254 106.696 298.616C105.057 296.977 102.834 296.057 100.516 296.057H46.898C44.5802 296.057 42.3572 296.977 40.7183 298.616C39.0793 300.254 38.1585 302.477 38.1585 304.794C38.1585 305.185 38.4758 305.503 38.8671 305.503C39.2585 305.503 39.5757 305.185 39.5757 304.794C39.5757 302.853 40.3472 300.991 41.7204 299.618C43.0936 298.245 44.956 297.474 46.898 297.474H100.516Z" fill="#D8BAA3"/>
<path d="M110.184 314.292C106.982 314.292 104.387 311.697 104.387 308.497C104.387 305.296 106.982 302.702 110.184 302.702C113.385 302.702 115.98 305.296 115.98 308.497C115.98 311.697 113.385 314.292 110.184 314.292Z" fill="white"/>
<path fill-rule="evenodd" clip-rule="evenodd" d="M110.184 303.41C112.994 303.41 115.271 305.687 115.271 308.497C115.271 311.306 112.994 313.583 110.184 313.583C107.374 313.583 105.096 311.306 105.096 308.497C105.096 305.687 107.374 303.41 110.184 303.41ZM116.689 308.497C116.689 304.905 113.776 301.993 110.184 301.993C106.591 301.993 103.679 304.905 103.679 308.497C103.679 312.089 106.591 315 110.184 315C113.776 315 116.689 312.089 116.689 308.497Z" fill="#D8BAA3"/>
<path d="M37.9058 314.292C34.7045 314.292 32.1094 311.697 32.1094 308.497C32.1094 305.296 34.7045 302.702 37.9058 302.702C41.107 302.702 43.7022 305.296 43.7022 308.497C43.7022 311.697 41.107 314.292 37.9058 314.292Z" fill="white"/>
<path fill-rule="evenodd" clip-rule="evenodd" d="M37.9058 303.41C40.7157 303.41 42.9936 305.687 42.9936 308.497C42.9936 311.306 40.7157 313.583 37.9058 313.583C35.0959 313.583 32.818 311.306 32.818 308.497C32.818 305.687 35.0959 303.41 37.9058 303.41ZM44.4108 308.497C44.4108 304.905 41.4984 301.993 37.9058 301.993C34.3132 301.993 31.4008 304.905 31.4008 308.497C31.4008 312.089 34.3132 315 37.9058 315C41.4984 315 44.4108 312.089 44.4108 308.497Z" fill="#D8BAA3"/>
</svg>
