<svg width="283" height="414" viewBox="0 0 283 414" fill="none" xmlns="http://www.w3.org/2000/svg">
<g clip-path="url(#clip0)">
<path d="M52.8971 258.933H177.219V266.512H52.8971V258.933Z" fill="white"/>
<path fill-rule="evenodd" clip-rule="evenodd" d="M177.985 258.933C177.985 258.509 177.642 258.165 177.219 258.165H52.8974C52.4741 258.165 52.1309 258.509 52.1309 258.933V266.512C52.1309 266.936 52.4741 267.279 52.8974 267.279H177.219C177.642 267.279 177.985 266.936 177.985 266.512V258.933ZM176.453 259.7V265.744H53.6638V259.7H176.453Z" fill="#3F4D90"/>
<path d="M36.5851 242.66C36.5851 173.037 2.06888 134.725 2.06888 134.725H104.67C104.67 134.725 139.187 173.037 139.187 242.66H36.5851Z" fill="white"/>
<path fill-rule="evenodd" clip-rule="evenodd" d="M105.079 133.804H-0.000213623L1.38568 135.342L1.38994 135.347L1.40648 135.365C1.42162 135.382 1.44492 135.409 1.47609 135.444C1.53845 135.516 1.63239 135.624 1.75581 135.769C2.00264 136.06 2.36736 136.498 2.83313 137.082C3.76471 138.25 5.10042 140.002 6.70573 142.324C9.91649 146.967 14.2048 153.888 18.4953 162.978C27.0756 181.155 35.6652 208.005 35.6652 242.66V243.581H140.106V242.66C140.106 207.692 131.437 180.574 122.76 162.19C118.421 152.999 114.08 145.991 110.819 141.275C109.189 138.916 107.828 137.131 106.872 135.932C106.394 135.333 106.017 134.88 105.758 134.575C105.629 134.423 105.529 134.308 105.461 134.23C105.426 134.191 105.4 134.161 105.382 134.141L105.361 134.117L105.355 134.111L105.354 134.109C105.353 134.108 105.353 134.108 104.67 134.725L105.353 134.108L105.079 133.804ZM104.252 135.646C104.284 135.684 104.319 135.725 104.357 135.769C104.604 136.06 104.969 136.498 105.435 137.082C106.366 138.25 107.702 140.002 109.307 142.324C112.518 146.967 116.806 153.888 121.097 162.978C129.601 180.994 138.114 207.529 138.265 241.739H37.5025C37.352 207.216 28.7596 180.413 20.1582 162.19C15.8196 152.999 11.4789 145.991 8.21782 141.275C6.58723 138.916 5.22636 137.131 4.27032 135.932C4.1911 135.833 4.11465 135.738 4.04106 135.646H104.252Z" fill="#D8BAA3"/>
<path d="M176.21 242.66H36.5847C36.5847 246.977 38.2965 251.116 41.3436 254.169C44.3907 257.221 48.5234 258.936 52.8327 258.936H192.458C192.458 254.619 190.746 250.479 187.699 247.427C184.652 244.375 180.519 242.66 176.21 242.66Z" fill="white"/>
<path fill-rule="evenodd" clip-rule="evenodd" d="M176.21 243.581C180.276 243.581 184.174 245.199 187.049 248.078C189.706 250.74 191.287 254.278 191.511 258.014H52.8329C48.7676 258.014 44.8688 256.397 41.9941 253.517C39.3371 250.856 37.7562 247.317 37.5322 243.581H176.21ZM188.35 246.776C185.13 243.551 180.763 241.739 176.21 241.739H35.6652V242.66C35.6652 247.221 37.4739 251.595 40.6935 254.82C43.9131 258.045 48.2797 259.857 52.8329 259.857H193.378V258.936C193.378 254.375 191.569 250.001 188.35 246.776Z" fill="#D8BAA3"/>
<path d="M54.1813 410.883C54.5883 410.883 54.9826 410.741 55.2965 410.481C55.6104 410.222 55.8242 409.861 55.9011 409.461L83.2192 266.515H67.5599L52.44 408.942C52.4138 409.187 52.4393 409.434 52.5148 409.668C52.5904 409.902 52.7143 410.118 52.8785 410.301C53.0428 410.484 53.2437 410.631 53.4682 410.731C53.6926 410.831 53.9356 410.883 54.1813 410.883Z" fill="white"/>
<path fill-rule="evenodd" clip-rule="evenodd" d="M83.8101 266.026C83.6645 265.849 83.4479 265.747 83.2194 265.747H67.56C67.1681 265.747 66.8394 266.043 66.7979 266.434L51.6782 408.86C51.6404 409.212 51.6771 409.568 51.7857 409.904C51.8943 410.241 52.0725 410.551 52.3087 410.815C52.5449 411.078 52.8337 411.288 53.1565 411.432C53.4791 411.576 53.8283 411.651 54.1814 411.65C54.7665 411.651 55.3333 411.447 55.7845 411.074C56.2358 410.701 56.5432 410.182 56.6539 409.606L56.6541 409.605L83.9722 266.659C84.0151 266.434 83.9557 266.202 83.8101 266.026ZM54.1815 410.883L54.1819 411.65C54.1817 411.65 54.1816 411.65 54.1814 411.65C54.1813 411.65 54.1812 411.65 54.1811 411.65L54.1815 410.883ZM55.1486 409.317C55.1486 409.316 55.1487 409.316 55.1488 409.316L55.9013 409.461L55.1486 409.317ZM68.2493 267.283H67.56V266.515L68.3222 266.596L68.2493 267.283ZM82.2924 267.283H83.2194V266.515L82.4667 266.37L82.2924 267.283Z" fill="#3F4D90"/>
<path d="M175.677 410.883C175.27 410.883 174.876 410.741 174.562 410.481C174.248 410.222 174.034 409.861 173.957 409.461L146.639 266.515H162.295L177.418 408.942C177.444 409.187 177.419 409.434 177.343 409.668C177.268 409.902 177.144 410.118 176.98 410.301C176.815 410.484 176.615 410.631 176.39 410.731C176.166 410.831 175.923 410.883 175.677 410.883Z" fill="white"/>
<path fill-rule="evenodd" clip-rule="evenodd" d="M163.057 266.434C163.016 266.043 162.687 265.747 162.295 265.747H146.639C146.41 265.747 146.194 265.849 146.048 266.026C145.902 266.202 145.843 266.434 145.886 266.659L173.204 409.606C173.315 410.182 173.622 410.701 174.074 411.074C174.525 411.447 175.092 411.651 175.677 411.65C176.03 411.651 176.379 411.576 176.702 411.432C177.024 411.288 177.313 411.078 177.549 410.815C177.786 410.551 177.964 410.241 178.072 409.904C178.181 409.568 178.218 409.212 178.18 408.86L163.057 266.434ZM175.677 410.883L175.677 411.65C175.677 411.65 175.677 411.65 175.677 411.65C175.677 411.65 175.676 411.65 175.676 411.65L175.677 410.883ZM174.709 409.316C174.709 409.316 174.709 409.316 174.709 409.316L174.71 409.317L173.957 409.461L174.709 409.316ZM147.566 267.283L147.391 266.37L146.639 266.515V267.283H147.566ZM161.606 267.283H162.295V266.515L161.533 266.596L161.606 267.283Z" fill="#3F4D90"/>
<path d="M206.115 178.301C164.116 188.435 143.073 177.017 139.259 170.052C139.259 170.052 141.359 156.977 139.808 136.706C138.257 116.435 141.519 71.0352 141.519 71.0352C150.774 74.6004 164.318 80.3061 168.349 92.1904C172.381 104.075 173.015 136.635 173.254 150.555C173.254 150.555 194.803 157.959 204.457 163.014C205.533 163.576 206.408 164.462 206.958 165.547C207.507 166.631 207.705 167.861 207.522 169.064L206.115 178.301Z" fill="#FFB000"/>
<path fill-rule="evenodd" clip-rule="evenodd" d="M164.382 149.842C164.382 149.842 164.381 149.842 164.664 150.555C164.947 151.269 164.947 151.269 164.946 151.269L164.946 151.269L164.947 151.269C164.951 151.267 164.96 151.264 164.972 151.26C164.996 151.251 165.037 151.237 165.094 151.219C165.208 151.182 165.386 151.129 165.629 151.07C166.115 150.952 166.86 150.807 167.864 150.718C169.87 150.539 172.917 150.577 177.001 151.48L177.331 149.981C173.097 149.044 169.893 148.995 167.728 149.188C166.646 149.285 165.825 149.442 165.267 149.578C164.987 149.646 164.774 149.709 164.626 149.756C164.553 149.78 164.495 149.8 164.454 149.814C164.434 149.822 164.418 149.828 164.405 149.832L164.39 149.838L164.385 149.84L164.383 149.841L164.382 149.842Z" fill="white"/>
<path d="M203.758 170.881C203.529 172.293 203.697 173.741 204.244 175.063C204.791 176.384 205.695 177.527 206.854 178.362L207.335 178.703C210.625 180.978 216.934 182.818 218.43 182.717C219.926 182.615 229.123 180.911 229.123 180.911C229.123 180.911 229.451 179.655 228.105 178C226.759 176.345 216.9 177.659 220.505 174.026C222.109 172.411 230.095 176.056 233.568 180.097C237.042 184.138 238.691 180.936 238.691 180.936C238.691 180.936 235.365 173.449 234.178 172.094C232.992 170.74 225.058 164.988 219.696 164.11C217.139 163.693 213.546 163.929 209.978 164.549C208.413 164.826 206.973 165.585 205.858 166.72C204.743 167.855 204.009 169.309 203.758 170.881Z" fill="#FFCFC9"/>
<path d="M180.783 397.623C177.393 396.855 172.705 395.209 170.093 391.742L168.61 383.724C168.61 383.724 178.358 384.836 187.264 383.982L185.538 394.475C185.443 395 185.243 395.5 184.949 395.945C184.656 396.391 184.276 396.772 183.832 397.066C183.387 397.36 182.888 397.561 182.364 397.657C181.84 397.752 181.303 397.741 180.783 397.623Z" fill="#FFCFC9"/>
<path d="M220.459 407.44C220.407 408.036 219.334 410.88 219.334 410.88L164.499 409.019V405.948C164.499 400.807 166.243 396.37 167.166 394.441C168.589 391.466 170.563 392.209 170.563 392.209C170.563 392.209 175.925 397.46 181.939 397.46C183.098 397.46 183.929 396.846 184.524 395.949C184.878 395.394 185.155 394.793 185.345 394.162C185.595 393.34 185.772 392.497 185.873 391.644C185.918 391.283 186.049 390.938 186.256 390.639C186.462 390.34 186.738 390.095 187.059 389.926C187.38 389.756 187.737 389.666 188.1 389.665C188.463 389.663 188.821 389.749 189.144 389.915C191.504 391.143 194.371 393.852 202.047 398.004C202.43 398.212 202.829 398.424 203.24 398.642C212.575 403.562 220.355 401.732 220.459 407.44Z" fill="#FFB000"/>
<path d="M214.288 413.597C215.876 413.597 217.814 412.879 218.853 411.712C219.499 410.953 219.964 410.057 220.211 409.091C220.458 408.125 220.481 407.115 220.278 406.138H220.235C220.015 407.3 219.404 408.351 218.503 409.116C217.603 409.88 216.468 410.312 215.287 410.339L167.748 408.945C166.274 408.945 165.011 407.922 164.496 406.488V409.688C164.496 411.853 166.062 413.607 167.997 413.607L214.288 413.597Z" fill="#3F4D79"/>
<path d="M204.11 399.091C201.307 399.599 198.705 400.888 196.601 402.811C194.498 404.734 192.979 407.213 192.218 409.962L190.029 409.885C190.723 407.052 192.12 404.441 194.091 402.293C196.062 400.146 198.542 398.532 201.302 397.602L202.044 398.004C202.427 398.213 202.825 398.425 203.236 398.643C203.526 398.8 203.818 398.95 204.11 399.091Z" fill="#3F4D79"/>
<path d="M209.534 401.197V401.482C206.745 401.486 204.018 402.303 201.686 403.834C199.353 405.364 197.517 407.543 196.4 410.102L194.126 410.026C195.076 407.51 196.624 405.265 198.636 403.484C200.648 401.702 203.062 400.439 205.671 399.803C206.933 400.335 208.223 400.8 209.534 401.197Z" fill="#3F4D79"/>
<path d="M114.16 397.623C110.77 396.855 106.392 395.209 103.78 391.742L102.906 383.058C102.906 383.058 112.051 383.859 120.957 383.002L118.912 394.475C118.817 395 118.617 395.5 118.324 395.945C118.031 396.39 117.652 396.772 117.207 397.066C116.763 397.36 116.265 397.561 115.741 397.657C115.217 397.752 114.68 397.741 114.16 397.623Z" fill="#FFCFC9"/>
<path d="M150.734 407.44C150.682 408.036 149.609 410.88 149.609 410.88L97.8728 409.019V405.948C97.8728 400.807 99.6172 396.37 100.537 394.441C101.962 391.466 103.934 391.588 103.934 391.588C103.934 391.588 109.299 397.46 115.313 397.46C116.472 397.46 117.303 396.846 117.895 395.949C118.25 395.395 118.527 394.793 118.716 394.162C118.967 393.34 119.144 392.497 119.243 391.644C119.289 391.283 119.421 390.938 119.628 390.639C119.834 390.34 120.11 390.095 120.431 389.926C120.753 389.756 121.11 389.666 121.473 389.665C121.836 389.663 122.195 389.748 122.518 389.915C124.878 391.143 124.645 393.852 132.328 398.003C132.711 398.212 133.109 398.424 133.52 398.642C142.852 403.562 150.633 401.731 150.734 407.44Z" fill="#FFC033"/>
<path d="M144.566 413.597C146.154 413.597 148.091 412.879 149.131 411.712C149.777 410.953 150.242 410.057 150.489 409.091C150.736 408.125 150.759 407.115 150.556 406.138H150.513C150.293 407.3 149.682 408.351 148.781 409.116C147.881 409.88 146.746 410.312 145.565 410.339L101.113 408.945C99.6387 408.945 98.3787 407.922 97.8637 406.488V409.688C97.8637 411.853 99.4302 413.607 101.365 413.607L144.566 413.597Z" fill="#3F4D79"/>
<path d="M134.387 399.09C131.585 399.598 128.982 400.888 126.879 402.811C124.775 404.734 123.256 407.212 122.496 409.961L120.307 409.885C121 407.052 122.398 404.44 124.368 402.293C126.339 400.145 128.819 398.532 131.579 397.601L132.321 398.003C132.704 398.212 133.103 398.424 133.514 398.642C133.804 398.8 134.095 398.949 134.387 399.09Z" fill="#3F4D79"/>
<path d="M139.811 401.197V401.483C137.023 401.486 134.295 402.303 131.963 403.834C129.631 405.365 127.794 407.543 126.678 410.103L124.403 410.026C125.353 407.511 126.902 405.265 128.913 403.484C130.925 401.703 133.34 400.439 135.948 399.803C137.211 400.335 138.5 400.801 139.811 401.197Z" fill="#3F4D79"/>
<path d="M100.083 258.26C100.083 258.26 77.9494 289.844 97.3765 382.017C97.3765 382.017 107.558 385.438 123.784 382.938C123.784 382.938 145.753 293.314 148.742 254.48C154.131 254.32 159.714 254.222 165.468 254.222C165.468 254.222 142.252 301.756 164.787 383.696C164.787 383.696 181.388 384.885 190.116 383.638C190.116 383.638 216.906 249.665 215.174 237.206C213.102 222.211 165.946 203.064 136.283 200.365L69.8929 199.954C69.8929 199.954 52.8754 217.151 59.9786 241.549C65.3067 259.854 100.083 258.26 100.083 258.26Z" fill="#D8BAA3"/>
<path d="M65.0558 206.273C64.8398 206.925 64.5097 207.534 64.0809 208.07C64.0809 208.07 122.258 227.908 146.74 202.951C120.14 212.277 76.4876 207.707 65.0558 206.273Z" fill="#F0E1D4"/>
<path d="M89.6113 54.8823C86.5886 57.3697 49.3347 78.9979 43.9974 81.9705C38.6601 84.9431 68.8967 150.184 67.9555 173.461C67.2565 190.738 62.5232 205.896 62.5232 205.896C62.5232 205.896 115.893 213.766 146.74 202.951C146.74 202.951 140.333 193.431 143.892 173.716C146.777 157.72 152.647 113.315 151.01 96.2317C150.416 90.05 149.349 74.7202 141.507 71.0351C129.643 65.4554 121.457 60.5942 121.457 60.5942L89.6113 54.8823Z" fill="#FFB000"/>
<path fill-rule="evenodd" clip-rule="evenodd" d="M147.974 142.052C146.724 154.613 144.583 166.501 143.141 174.501L144.649 174.774C146.091 166.777 148.242 154.833 149.499 142.204C150.754 129.587 151.124 116.222 148.972 105.393L147.469 105.692C149.575 116.295 149.224 129.478 147.974 142.052Z" fill="white"/>
<path d="M43.9971 82.1485C28.0986 96.1732 26.5842 154.124 36.6395 164.684C56.3333 185.364 115.779 185.13 115.779 185.13C115.779 185.13 122 184.231 118.44 169.733C118.44 169.733 74.3686 147.438 70.0981 147.57C70.0981 147.57 70.8093 106.212 61.7932 93.8547C52.7771 81.4975 45.8672 80.4995 43.9971 82.1485Z" fill="#FFB000"/>
<path fill-rule="evenodd" clip-rule="evenodd" d="M65.6218 180.034C65.5176 180.445 65.7656 180.863 66.1758 180.967C77.9093 183.955 90.3165 185.264 99.7777 185.828C104.511 186.11 108.513 186.206 111.334 186.231C112.744 186.244 113.859 186.239 114.622 186.231C115.004 186.226 115.297 186.222 115.496 186.218C115.596 186.216 115.671 186.214 115.723 186.213L115.781 186.211L115.801 186.211C115.801 186.211 115.801 186.211 115.78 185.443C115.759 184.676 115.759 184.676 115.759 184.676L115.741 184.677L115.686 184.678C115.637 184.679 115.564 184.681 115.466 184.683C115.272 184.686 114.983 184.691 114.606 184.695C113.852 184.703 112.747 184.708 111.347 184.696C108.548 184.671 104.572 184.575 99.8687 184.295C90.4562 183.734 78.1557 182.433 66.5535 179.479C66.1432 179.374 65.7261 179.623 65.6218 180.034ZM116.546 185.422C116.534 184.998 116.182 184.664 115.759 184.676L115.78 185.443L115.801 186.211C116.224 186.199 116.558 185.846 116.546 185.422Z" fill="white"/>
<path fill-rule="evenodd" clip-rule="evenodd" d="M69.3323 147.285C69.3323 147.285 69.3323 147.285 70.0983 147.26L69.3323 147.285C69.3426 147.599 69.5432 147.876 69.8386 147.983C82.2594 152.464 94.3172 157.991 103.274 162.401C107.752 164.606 111.452 166.53 114.031 167.902C115.321 168.588 116.331 169.136 117.017 169.513C117.361 169.701 117.623 169.846 117.8 169.944C117.888 169.993 117.955 170.03 117.999 170.055L118.049 170.083L118.065 170.092L118.065 170.092C118.065 170.092 118.065 170.092 118.441 169.423C118.816 168.753 118.816 168.753 118.815 168.753L118.746 168.714C118.7 168.689 118.633 168.651 118.543 168.601C118.364 168.502 118.099 168.355 117.753 168.166C117.061 167.786 116.046 167.235 114.75 166.546C112.159 165.167 108.444 163.236 103.951 161.023C95.0823 156.657 83.167 151.19 70.8463 146.715C70.8384 146.492 70.8278 146.202 70.8145 145.851C70.781 144.965 70.7302 143.689 70.6611 142.129C70.5228 139.009 70.3111 134.752 70.0174 130.203C69.4324 121.145 68.5159 110.806 67.1785 106.062L65.7034 106.479C66.9872 111.033 67.8993 121.189 68.4877 130.302C68.7807 134.838 68.9918 139.084 69.1298 142.197C69.1987 143.753 69.2494 145.026 69.2828 145.909C69.2995 146.351 69.3119 146.695 69.3201 146.929C69.3226 147 69.3247 147.061 69.3264 147.112C69.3275 147.144 69.3285 147.172 69.3293 147.195L69.3321 147.28L69.3322 147.284L69.3323 147.285Z" fill="white"/>
<path d="M117.53 169.512C117.53 169.512 130.835 164.478 135.136 167.009C139.842 169.773 148.555 178.607 149.064 180.094C149.572 181.58 149.416 183.131 149.324 184.728C149.232 186.325 133.291 186.297 131.402 186.186C129.514 186.076 119.161 187.197 117.414 185.296C110.994 178.328 117.53 169.512 117.53 169.512Z" fill="#FFCFC9"/>
<path d="M92.2818 34.0161C92.2818 34.0161 95.8411 42.9217 89.6116 54.8981C89.6116 54.8981 98.1556 67.0864 111.684 67.0096C129.159 66.9144 121.473 60.5945 121.473 60.5945C121.473 60.5945 118.803 56.3137 119.327 48.6488L92.2818 34.0161Z" fill="#FAB6AD"/>
<path d="M95.013 39.3071C95.3686 40.9715 95.4207 48.1573 98.3852 50.178C102.223 52.7944 113.517 56.8971 122.058 53.8078C123.153 53.4116 128.585 37.4062 128.229 31.9401C127.874 26.4739 127.754 7.10282 115.66 2.22934C103.566 -2.64414 89.0871 0.0797235 85.0527 14.3501C83.4033 20.1847 84.7645 25.4052 86.9503 29.554C86.9503 29.554 85.5524 32.066 87.7934 34.5687C90.2306 37.2987 95.013 39.3071 95.013 39.3071Z" fill="#FFCFC9"/>
<path d="M86.9445 29.5508C89.7895 26.3295 93.7074 32.0567 93.7074 32.0567L93.7626 32.3638C94.8342 31.7834 95.7461 30.9469 96.4174 29.9286C98.0545 27.4473 98.1894 24.6866 97.9717 14.7584C97.9717 14.7584 113.855 16.4382 125.373 13.6652C123.604 8.71189 120.648 4.23148 115.654 2.22006C103.554 -2.65342 89.0782 0.0704461 85.0469 14.3408C83.3976 20.1724 84.7587 25.4021 86.9445 29.5508Z" fill="#722D54"/>
<path d="M108.002 62.2985C105.789 61.2698 96.6135 57.9225 90.1297 51.3447C90.1297 51.3447 83.6581 57.6308 83.5998 58.7486C83.5416 59.8664 97.3064 69.2141 101.181 69.6103L108.002 62.2985Z" fill="#F0E1D4"/>
<path d="M121.458 57.25C120.844 58.3586 119.293 60.975 114.863 62.1634C114.863 62.1634 118.107 67.4699 121.114 69.1343C121.114 69.1343 126.019 66.9847 127.353 64.184C128.236 62.3384 121.458 57.25 121.458 57.25Z" fill="#F0E1D4"/>
<path d="M114.863 62.1636L111.681 66.9941L108.002 62.2987L104.63 65.91C104.63 65.91 109.333 68.1549 118.119 66.5457L114.863 62.1636Z" fill="#D8BAA3"/>
<path d="M282.999 185.481H115.988C114.362 185.481 112.803 186.128 111.653 187.28C110.503 188.432 109.857 189.994 109.857 191.623V193.25C109.857 194.879 110.503 196.441 111.653 197.593C112.803 198.745 114.362 199.392 115.988 199.392H282.692" fill="white"/>
<path fill-rule="evenodd" clip-rule="evenodd" d="M115.988 186.402H282.999V184.56H115.988C114.118 184.56 112.325 185.304 111.002 186.628C109.68 187.953 108.937 189.749 108.937 191.623V193.25C108.937 195.123 109.68 196.92 111.002 198.244C112.325 199.569 114.118 200.313 115.988 200.313H282.692V198.471H115.988C114.606 198.471 113.28 197.921 112.303 196.942C111.326 195.963 110.777 194.635 110.777 193.25V191.623C110.777 190.238 111.326 188.91 112.303 187.931C113.28 186.952 114.606 186.402 115.988 186.402Z" fill="#D8BAA3"/>
<path d="M151.188 414V199.613H137.849V413.994" fill="white"/>
<path d="M151.188 203.875V199.613H137.849V214.43L151.188 203.875Z" fill="#F0E1D4"/>
<path fill-rule="evenodd" clip-rule="evenodd" d="M152.107 198.692H136.929V413.684H138.769V200.534H150.268V413.69H152.107V198.692Z" fill="#D8BAA3"/>
<path d="M145.71 185.481H212.489C213.535 185.481 214.56 185.184 215.444 184.626C216.329 184.067 217.038 183.269 217.489 182.324L239.075 137.145C239.282 136.712 239.376 136.232 239.348 135.752C239.32 135.272 239.172 134.807 238.916 134.4C238.66 133.994 238.305 133.658 237.884 133.426C237.464 133.194 236.992 133.073 236.512 133.073H169.732C168.687 133.073 167.662 133.37 166.777 133.928C165.892 134.487 165.184 135.285 164.732 136.23L143.147 181.415C142.941 181.848 142.848 182.327 142.876 182.806C142.905 183.285 143.054 183.75 143.31 184.155C143.566 184.561 143.92 184.896 144.34 185.127C144.759 185.359 145.231 185.481 145.71 185.481Z" fill="white"/>
<path fill-rule="evenodd" clip-rule="evenodd" d="M236.513 133.841C236.863 133.841 237.208 133.929 237.515 134.099C237.822 134.268 238.081 134.513 238.267 134.81C238.454 135.107 238.563 135.446 238.583 135.797C238.604 136.147 238.535 136.497 238.383 136.814L216.798 181.993C216.409 182.807 215.798 183.495 215.036 183.976C214.273 184.458 213.391 184.713 212.489 184.713H145.71C145.36 184.713 145.016 184.624 144.71 184.455C144.404 184.286 144.145 184.042 143.958 183.746C143.771 183.449 143.663 183.11 143.642 182.761C143.621 182.411 143.689 182.062 143.839 181.746C143.839 181.746 143.839 181.745 143.839 181.745L165.424 136.562C165.813 135.747 166.424 135.059 167.186 134.578C167.949 134.097 168.831 133.841 169.733 133.841L236.513 133.841ZM236.512 132.306C237.121 132.305 237.721 132.459 238.254 132.754C238.788 133.049 239.239 133.474 239.564 133.991C239.889 134.508 240.078 135.098 240.114 135.708C240.149 136.318 240.029 136.926 239.766 137.477C239.766 137.477 239.766 137.477 239.766 137.477L218.181 182.655C218.181 182.655 218.181 182.655 218.181 182.655C217.667 183.731 216.86 184.639 215.853 185.275C214.846 185.911 213.68 186.249 212.489 186.249H145.71C145.101 186.249 144.503 186.094 143.97 185.8C143.437 185.506 142.987 185.081 142.662 184.565C142.337 184.05 142.148 183.46 142.112 182.852C142.075 182.243 142.194 181.636 142.455 181.085L164.041 135.899C164.041 135.899 164.041 135.899 164.041 135.899C164.555 134.823 165.362 133.915 166.369 133.279C167.376 132.643 168.542 132.306 169.733 132.306H236.512Z" fill="#3F4D90"/>
<path d="M145.818 184.802H211.521C212.5 184.766 213.45 184.463 214.269 183.925C215.089 183.387 215.745 182.635 216.168 181.75L225.672 161.835L225.528 161.583H153.485L153.365 161.832L144.276 180.872C142.899 183.095 143.797 184.802 145.818 184.802Z" fill="#F0E1D4"/>
<path d="M152.709 161.485L164.926 182.852C165.845 184.461 167.792 185.487 169.929 185.487H236.708C238.799 185.487 240.172 183.663 239.271 182.084L227.486 161.485H152.709Z" fill="white"/>
<path fill-rule="evenodd" clip-rule="evenodd" d="M228.151 161.103C228.015 160.865 227.761 160.717 227.486 160.717H152.709C152.436 160.717 152.183 160.863 152.046 161.1C151.909 161.337 151.908 161.629 152.044 161.867L164.26 183.234C164.26 183.234 164.26 183.234 164.261 183.234C165.34 185.123 167.568 186.255 169.929 186.255H236.708C237.975 186.255 239.075 185.7 239.723 184.84C240.381 183.966 240.554 182.785 239.936 181.703L239.936 181.703L228.151 161.103ZM227.042 162.253L238.606 182.466C238.606 182.466 238.606 182.466 238.606 182.466M227.042 162.253H154.031H227.042Z" fill="#3F4D90"/>
</g>
<defs>
<clipPath id="clip0">
<rect width="283" height="414" fill="white"/>
</clipPath>
</defs>
</svg>
