<svg width="53" height="53" viewBox="0 0 53 53" fill="none" xmlns="http://www.w3.org/2000/svg">
<path d="M14.9062 3.3125H39.75V4.96875H14.9062V3.3125Z" fill="#B961FF"/>
<path d="M3.3125 3.3125H4.96875V4.96875H3.3125V3.3125Z" fill="#B961FF"/>
<path d="M6.625 3.3125H8.28125V4.96875H6.625V3.3125Z" fill="#B961FF"/>
<path d="M9.9375 3.3125H11.5938V4.96875H9.9375V3.3125Z" fill="#B961FF"/>
<path d="M21.7744 24.2578L25.0869 20.9453L26.2579 22.1163L22.9454 25.4288L21.7744 24.2578Z" fill="#B961FF"/>
<path d="M26.7427 24.2583L30.0552 20.9458L31.2262 22.1168L27.9137 25.4293L26.7427 24.2583Z" fill="#B961FF"/>
<path d="M4.96875 13.25H20.7031V14.9062H4.96875V13.25Z" fill="#B961FF"/>
<path d="M4.96875 18.2188H16.5625V19.875H4.96875V18.2188Z" fill="#B961FF"/>
<path d="M4.96875 23.1875H15.3203V24.8438H4.96875V23.1875Z" fill="#B961FF"/>
<path d="M4.96875 28.1562H17.3906V29.8125H4.96875V28.1562Z" fill="#B961FF"/>
<path d="M48.0312 9.9375V4.96875H43.0625V0H0V34.7812H4.96875V39.75H9.9375V44.7188H22.3594V53H30.6406V44.7188H53V9.9375H48.0312ZM43.0625 6.625H46.375V11.5938H43.0625V6.625ZM1.65625 1.65625H41.4062V6.625H1.65625V1.65625ZM1.65625 33.125V8.28125H41.4062V33.125H32.493C36.949 30.4344 39.065 25.1042 37.6688 20.0897C36.2721 15.0757 31.7049 11.6067 26.5 11.6067C21.2951 11.6067 16.7279 15.0757 15.3312 20.0897C13.935 25.1042 16.051 30.4344 20.507 33.125H1.65625ZM24.9703 33.0073C19.8414 32.2083 16.1913 27.5966 16.592 22.4212C16.9927 17.2459 21.3093 13.2508 26.5 13.2508C31.6907 13.2508 36.0073 17.2459 36.408 22.4212C36.8087 27.5966 33.1586 32.2083 28.0297 33.0073L27.3281 33.1157V36.4375H25.6719V33.1157L24.9703 33.0073ZM22.3594 43.0625H11.5938V39.75H22.3594V43.0625ZM22.3594 38.0938H6.625V34.7812H24.0156V36.4375H22.3594V38.0938ZM28.9844 51.3438H24.0156V38.0938H28.9844V51.3438ZM28.9844 36.4375V34.7812H43.0625V13.25H46.375V38.0938H30.6406V36.4375H28.9844ZM51.3438 43.0625H30.6406V39.75H48.0312V18.2188H51.3438V43.0625ZM51.3438 16.5625H48.0312V11.5938H51.3438V16.5625Z" fill="#B961FF"/>
<path d="M34.7812 23.1875C34.7812 18.6138 31.0737 14.9062 26.5 14.9062C21.9263 14.9062 18.2188 18.6138 18.2188 23.1875C18.2188 27.7612 21.9263 31.4688 26.5 31.4688C31.0717 31.4639 34.7764 27.7592 34.7812 23.1875ZM19.875 23.1875C19.875 19.5285 22.841 16.5625 26.5 16.5625C30.159 16.5625 33.125 19.5285 33.125 23.1875C33.125 26.8465 30.159 29.8125 26.5 29.8125C22.843 29.8085 19.879 26.8445 19.875 23.1875Z" fill="#B961FF"/>
</svg>
