<svg width="151" height="219" viewBox="0 0 151 219" fill="none" xmlns="http://www.w3.org/2000/svg">
<path fill-rule="evenodd" clip-rule="evenodd" d="M77.0061 101.4H8.5603V100.526H77.0061C77.36 100.526 77.6995 100.666 77.9497 100.916C78.2 101.166 78.3406 101.505 78.3406 101.859V107.127C78.3406 107.48 78.2 107.819 77.9497 108.069C77.6994 108.319 77.36 108.459 77.0061 108.459H41.8331V120.713H40.9575V107.585H77.0061C77.1278 107.585 77.2445 107.537 77.3305 107.451C77.4166 107.365 77.4649 107.248 77.4649 107.127V101.859C77.4649 101.737 77.4166 101.621 77.3305 101.535C77.2445 101.449 77.1278 101.4 77.0061 101.4Z" fill="#FFB000"/>
<path d="M16.6372 6.16553L13.231 31.084C12.3753 37.3205 13.3397 43.6711 16.0085 49.3737L20.9875 59.971C24.2957 67.0127 30.0066 72.5134 36.9995 75.394L52.0326 81.5873L16.6372 6.16553Z" fill="white"/>
<path fill-rule="evenodd" clip-rule="evenodd" d="M16.4042 4.63818L52.9073 82.4204L36.8327 75.798C29.7354 72.8744 23.9443 67.2938 20.5912 60.1565L15.612 49.5586C12.9075 43.7798 11.9302 37.3444 12.7973 31.0246C12.7973 31.0245 12.7973 31.0245 12.7973 31.0244L16.4042 4.63818ZM16.8705 7.69237L13.6648 31.1431C12.8206 37.2962 13.7721 43.5619 16.4053 49.1883L21.3839 59.7851C24.6471 66.731 30.278 72.1519 37.1666 74.9896L51.1581 80.7538L16.8705 7.69237Z" fill="#FFB000"/>
<path fill-rule="evenodd" clip-rule="evenodd" d="M17.7318 54.0278C14.345 54.0278 11.3705 56.4298 10.5394 59.886L10.5368 59.897L1.07982 91.857C0.0167166 96.2983 3.23741 100.55 7.56558 100.55H27.9822V101.425H7.56558C2.61888 101.425 -0.960739 96.5888 0.231052 91.6417L0.233676 91.6308L9.69067 59.6707C10.6146 55.8498 13.921 53.1533 17.7318 53.1533V54.0278Z" fill="#FFB000"/>
<path d="M53.3304 82.9936C53.1364 82.9921 52.9468 82.9352 52.7842 82.8295C52.6216 82.7238 52.4927 82.5738 52.4127 82.3972L16.3711 5.56564C16.0384 4.85728 16.534 4.03174 17.2888 4.03174C17.4839 4.03233 17.6748 4.08884 17.8387 4.19456C18.0026 4.30029 18.1327 4.45078 18.2135 4.62816L54.2481 81.4597C54.5808 82.1681 54.0852 82.9936 53.3304 82.9936Z" fill="white"/>
<path fill-rule="evenodd" clip-rule="evenodd" d="M17.2881 4.46876C16.8834 4.46926 16.5585 4.93478 16.7675 5.37969L52.8104 82.2141L52.8116 82.2168C52.8571 82.3172 52.9305 82.4026 53.023 82.4627C53.1151 82.5226 53.2224 82.555 53.3322 82.5561C53.7364 82.5547 54.0605 82.0896 53.8517 81.6452L53.8516 81.6449L17.8159 4.81119L17.8149 4.80898C17.7688 4.70779 17.6946 4.62195 17.6011 4.56164C17.5078 4.50145 17.3992 4.46922 17.2881 4.46876ZM15.9746 5.7509C15.5184 4.77937 16.1842 3.59424 17.2888 3.59424H17.2901C17.569 3.59508 17.8419 3.67587 18.0762 3.82701C18.3098 3.97767 18.4953 4.19192 18.6109 4.44444C18.6112 4.44525 18.6116 4.44605 18.612 4.44685L54.6444 81.2737C54.6445 81.2738 54.6445 81.2739 54.6445 81.274C55.1007 82.2455 54.4349 83.4306 53.3304 83.4306H53.3287L53.327 83.4306C53.0493 83.4285 52.7781 83.3469 52.5454 83.1957C52.3136 83.045 52.1297 82.8315 52.0152 82.5801C52.0147 82.5791 52.0142 82.5781 52.0138 82.5771L15.9747 5.75111C15.9747 5.75104 15.9747 5.75097 15.9746 5.7509Z" fill="#FFB000"/>
<path fill-rule="evenodd" clip-rule="evenodd" d="M30.8333 95.7105C29.6194 95.7105 28.6354 96.6932 28.6354 97.9055C28.6354 99.1178 29.6194 100.101 30.8333 100.101C32.0471 100.101 33.0312 99.1178 33.0312 97.9055C33.0312 96.6932 32.0471 95.7105 30.8333 95.7105ZM27.7598 97.9055C27.7598 96.2102 29.1358 94.8359 30.8333 94.8359C32.5307 94.8359 33.9068 96.2102 33.9068 97.9055C33.9068 99.6008 32.5307 100.975 30.8333 100.975C29.1358 100.975 27.7598 99.6008 27.7598 97.9055Z" fill="#FFB000"/>
<path fill-rule="evenodd" clip-rule="evenodd" d="M31.1028 95.7014L30.8461 95.7102C29.5134 95.7492 28.6026 96.8394 28.644 98.2459L27.7687 98.2716C27.7156 96.4672 28.9233 94.8921 30.8194 94.8361L31.0763 94.8273C31.7988 94.8064 32.5211 94.8776 33.2256 95.0394L33.2262 95.0395L54.5517 99.9683L54.3543 100.82L33.0294 95.8917C33.0293 95.8916 33.0292 95.8916 33.0291 95.8916C32.3977 95.7467 31.7504 95.6828 31.1028 95.7014Z" fill="#FFB000"/>
<path fill-rule="evenodd" clip-rule="evenodd" d="M133.224 136.625L150.154 74.3242L150.999 74.5533L134.069 136.854C133.186 140.109 131.254 142.984 128.571 145.034C125.889 147.084 122.606 148.195 119.228 148.195H61.8837V147.321H119.228C122.413 147.321 125.51 146.273 128.039 144.34C130.569 142.406 132.391 139.695 133.224 136.625L133.224 136.625Z" fill="#FFB000"/>
<path fill-rule="evenodd" clip-rule="evenodd" d="M66.2785 147.386C66.4803 147.253 66.7519 147.309 66.885 147.511L113.109 217.545C113.242 217.747 113.186 218.018 112.984 218.151C112.782 218.284 112.511 218.228 112.378 218.027L66.1539 147.992C66.0208 147.79 66.0766 147.519 66.2785 147.386Z" fill="#FFB000"/>
<path fill-rule="evenodd" clip-rule="evenodd" d="M117.375 147.395C117.572 147.535 117.618 147.808 117.478 148.005L67.0512 218.739C66.9109 218.936 66.6376 218.982 66.4406 218.842C66.2436 218.702 66.1976 218.429 66.3379 218.232L116.765 147.498C116.905 147.301 117.178 147.255 117.375 147.395Z" fill="#FFB000"/>
<path d="M67.2795 193.886C67.2795 193.886 64.8749 197.559 60.6999 197.044L57.8768 193.009C60.789 192.384 63.6388 191.498 66.3916 190.361C66.6788 191.703 66.9782 192.932 67.2795 193.886Z" fill="#FFCFC9"/>
<path d="M126.794 129.822C125.102 133.605 119.466 143.435 106.503 143.842C90.4333 144.348 60.868 142.833 60.868 142.833C60.868 142.833 67.6297 169.516 67.7751 189.737C67.7751 189.737 62.4459 192.437 54.5353 193.623C54.5353 193.623 26.1643 140.628 31.7982 127.671C35.9908 118.032 67.8574 114.284 82.2618 113.073C88.2477 116.54 108.165 127.403 126.794 129.822Z" fill="#52509D"/>
<path d="M67.2795 193.885C67.2795 193.885 70.2006 197.093 73.4248 199.64C75.4668 201.252 74.6647 204.362 72.9256 206.975C70.3104 210.894 67.4082 214.614 64.2427 218.104C64.2427 218.104 59.7191 218.582 50.9154 218.221C50.9154 218.221 50.5861 215.101 53.6982 213.691C60.7909 210.478 62.3881 201.973 60.7034 197.053C60.6999 197.044 64.2427 197.675 67.2795 193.885Z" fill="#3F4D79"/>
<path fill-rule="evenodd" clip-rule="evenodd" d="M74.5522 199.997C74.8584 199.853 75.2236 199.984 75.3679 200.29C75.8907 201.398 75.7349 202.707 75.3451 203.903C74.9498 205.116 74.2775 206.326 73.6092 207.317L73.6041 207.324L73.5988 207.332L73.1007 206.975C73.5988 207.332 73.5988 207.332 73.5988 207.332L73.5432 207.409C73.5068 207.46 73.4529 207.534 73.3831 207.631C73.2435 207.824 73.0401 208.105 72.7845 208.457C72.2735 209.16 71.5537 210.145 70.7189 211.273C69.0503 213.527 66.9175 216.359 65.0707 218.654L64.8887 218.88L50.7454 219C50.4069 219.002 50.1301 218.731 50.1273 218.393C50.1244 218.055 50.3965 217.778 50.735 217.775L64.2967 217.661C66.0851 215.427 68.122 212.722 69.7331 210.545C70.5654 209.42 71.2831 208.438 71.7926 207.737C72.0473 207.387 72.2499 207.107 72.3889 206.915C72.4583 206.819 72.5118 206.744 72.548 206.694L72.5974 206.626C73.2266 205.691 73.8323 204.589 74.1794 203.524C74.533 202.439 74.5839 201.5 74.259 200.812C74.1147 200.506 74.246 200.141 74.5522 199.997Z" fill="#FFB000"/>
<path fill-rule="evenodd" clip-rule="evenodd" d="M59.311 207.764C59.4277 207.976 59.3506 208.242 59.1388 208.358C58.6424 208.632 58.535 208.889 58.5221 209.071C58.5065 209.29 58.6143 209.565 58.8462 209.875C59.0706 210.176 59.3675 210.451 59.6177 210.656C59.7411 210.757 59.8494 210.838 59.9262 210.894C59.9646 210.921 59.9949 210.942 60.0151 210.956C60.0251 210.963 60.0327 210.968 60.0374 210.971L60.0424 210.974L60.0429 210.975C60.0429 210.975 60.043 210.975 60.0431 210.975C60.043 210.975 60.0429 210.975 59.8032 211.341L59.5635 211.706C59.7658 211.839 60.0372 211.782 60.1696 211.58C60.3019 211.378 60.2453 211.107 60.0431 210.975M59.8032 211.341C59.5635 211.706 59.5634 211.706 59.5632 211.706L59.562 211.706L59.5594 211.704L59.5507 211.698C59.5435 211.693 59.5334 211.686 59.5206 211.678C59.4951 211.66 59.459 211.635 59.4145 211.603C59.3256 211.539 59.2024 211.447 59.0624 211.332C58.7858 211.106 58.4287 210.779 58.1442 210.398C57.867 210.027 57.6109 209.54 57.6487 209.009C57.6891 208.44 58.0524 207.958 58.7163 207.592C58.928 207.476 59.1943 207.553 59.311 207.764" fill="#FFB000"/>
<path fill-rule="evenodd" clip-rule="evenodd" d="M60.3617 205.841C60.4784 206.052 60.4013 206.318 60.1895 206.435C59.9414 206.571 59.8126 206.699 59.7479 206.799C59.6881 206.892 59.6715 206.979 59.6811 207.071C59.7037 207.289 59.8782 207.577 60.2054 207.903C60.5175 208.214 60.9045 208.497 61.2221 208.705C61.3792 208.808 61.5158 208.891 61.6126 208.947C61.6609 208.975 61.6991 208.997 61.7248 209.011C61.7376 209.018 61.7473 209.024 61.7535 209.027L61.7602 209.031L61.7614 209.031C61.9744 209.146 62.0545 209.411 61.9402 209.623C61.8259 209.836 61.5605 209.916 61.3474 209.802L61.5544 209.417C61.3474 209.802 61.3473 209.802 61.3472 209.802L61.3459 209.801L61.343 209.8L61.3331 209.794C61.3248 209.79 61.3128 209.783 61.2977 209.775C61.2674 209.758 61.2242 209.733 61.1705 209.702C61.0632 209.639 60.9135 209.549 60.7416 209.436C60.4011 209.213 59.9589 208.893 59.5869 208.522C59.23 208.167 58.8655 207.694 58.8101 207.161C58.7807 206.878 58.8404 206.592 59.0116 206.326C59.178 206.068 59.435 205.851 59.767 205.669C59.9788 205.552 60.245 205.629 60.3617 205.841Z" fill="#FFB000"/>
<path d="M108.822 41.7514C108.822 41.7514 123.498 37.7129 124.536 25.7198C124.713 23.6891 108.822 41.7514 108.822 41.7514Z" fill="#6562CF"/>
<path d="M108.999 18.3105C108.999 18.3105 115.333 31.5385 121.161 36.476C121.161 36.476 111.857 42.6553 104.046 42.6519C104.046 42.6519 98.9323 33.6583 96.8132 30.218L108.999 18.3105Z" fill="#FFCFC9"/>
<path d="M101.603 38.3823C99.9866 35.5716 97.9603 32.0858 96.8132 30.2178L106.085 21.1631L106.72 22.4276C107.396 28.4898 105.703 35.1046 101.603 38.3823Z" fill="#FFC0B7"/>
<path d="M106.965 20.9554C106.965 20.9554 106.937 26.0276 105.006 28.8348C102.575 32.3696 96.3877 36.1808 91.6785 35.4812C86.9692 34.7816 82.8624 10.9615 86.3948 9.55175C89.9272 8.14203 99.7957 6.84774 102.738 11.1941C105.68 15.5404 106.965 20.9554 106.965 20.9554Z" fill="#FFCFC9"/>
<path d="M111.908 23.8955C111.908 23.8955 109.857 24.2243 106.876 22.8583C106.969 21.7459 107.011 19.4617 105.859 18.804C104.601 18.0869 103.883 20.1105 103.661 20.8766C103.392 20.6691 103.121 20.4458 102.846 20.2067C97.9428 15.9513 99.2195 11.7851 99.2195 11.7851C99.2195 11.7851 91.9236 16.0703 84.9728 15.7869C79.204 15.5526 76.3792 7.48952 81.2425 5.08635C81.2425 5.08635 80.8923 7.29538 85.1374 6.23721C89.3825 5.17905 88.5577 0.874676 94.5068 0.117344C101.838 -0.807894 103.353 4.04218 103.353 4.04218C103.353 4.04218 106.864 2.19695 110.479 5.55334C114.33 9.13012 109.354 19.1136 111.908 23.8955Z" fill="#FFB000"/>
<path fill-rule="evenodd" clip-rule="evenodd" d="M79.0268 13.1612C80.0199 15.5822 82.3902 17.4868 85.6928 17.0577C89.3351 16.584 92.8478 15.0087 95.4611 13.5402C96.7653 12.8073 97.8399 12.1043 98.5878 11.585C98.9616 11.3254 99.2536 11.1119 99.4515 10.9637C99.5505 10.8896 99.6259 10.8319 99.6762 10.793C99.7014 10.7735 99.7204 10.7587 99.7328 10.7489L99.7467 10.738L99.7499 10.7355L99.7506 10.7349C99.7506 10.7349 99.7507 10.7348 99.9691 11.0083C100.187 11.2818 100.187 11.2819 100.187 11.2819L100.186 11.2832L100.182 11.2865L100.166 11.2989C100.152 11.3098 100.132 11.3256 100.105 11.3461C100.052 11.3872 99.9737 11.4472 99.8717 11.5235C99.6677 11.6762 99.369 11.8947 98.9877 12.1594C98.2253 12.6888 97.1318 13.4041 95.8046 14.1499C93.1553 15.6386 89.5525 17.2613 85.7833 17.7514C82.114 18.2282 79.4712 16.09 78.3786 13.4265C77.2928 10.7798 77.7077 7.52041 80.2504 5.77051L80.6479 6.34659C78.4534 7.85689 78.0267 10.7235 79.0268 13.1612Z" fill="#FFB000"/>
<path fill-rule="evenodd" clip-rule="evenodd" d="M103.008 4.60572C103.009 4.60558 103.009 4.60543 102.722 4.40426C102.436 4.20308 102.436 4.20291 102.436 4.20272L102.436 4.20227L102.437 4.20115L102.439 4.198C102.441 4.19549 102.443 4.19218 102.446 4.1881C102.452 4.17994 102.461 4.1687 102.471 4.15465C102.493 4.12656 102.524 4.0872 102.564 4.03876C102.645 3.94192 102.764 3.8084 102.92 3.65582C103.233 3.35119 103.7 2.96719 104.317 2.64874C105.565 2.00533 107.4 1.64603 109.76 2.68494L109.477 3.32512C107.324 2.37713 105.711 2.71744 104.639 3.27038C104.096 3.5501 103.685 3.88845 103.41 4.15662C103.272 4.29044 103.17 4.40594 103.102 4.48653C103.069 4.52679 103.044 4.55824 103.029 4.57878C103.021 4.58905 103.015 4.59658 103.012 4.60111L103.008 4.60572C103.008 4.60602 103.008 4.60609 103.008 4.60613L103.008 4.60572ZM103.008 4.60613C103.008 4.60613 103.008 4.60613 103.008 4.60613V4.60613Z" fill="#FFB000"/>
<path d="M128.335 130.004C133.799 124.659 140.758 90.9497 138.941 69.3386C138.827 66.8782 138.466 64.4353 137.864 62.0469C137.554 60.6407 137.139 59.2598 136.622 57.9157C135.046 53.8929 131.442 49.6952 126.429 46.8285C121.321 43.1748 114.655 40.6475 105.822 42.1236C92.6732 44.3204 89.6207 57.4294 88.9132 63.3971L88.9027 63.3866L85.3353 83.4166L59.3041 84.3978V92.9016C59.3041 92.9016 80.6646 105.914 95.7958 102.143L95.9289 102.108C88.7486 109.122 80.4615 112.008 80.4615 112.008C80.4615 112.008 105.675 127.63 128.335 130.004Z" fill="#3F4D79"/>
<path fill-rule="evenodd" clip-rule="evenodd" d="M108.665 74.318C108.903 74.3651 109.057 74.5952 109.01 74.8321L108.58 74.7469L108.151 74.6618C108.198 74.4249 108.428 74.271 108.665 74.318ZM108.58 74.7469C108.151 74.6618 108.151 74.6616 108.151 74.6618L108.15 74.6658L108.147 74.6788C108.145 74.6905 108.141 74.7081 108.137 74.7315C108.127 74.7783 108.113 74.848 108.094 74.9394C108.055 75.1222 107.997 75.3913 107.921 75.7354C107.767 76.4235 107.537 77.4111 107.232 78.6066C106.623 80.9984 105.714 84.2181 104.518 87.5348C103.321 90.8546 101.842 94.2554 100.095 97.0179C98.3405 99.7941 96.3593 101.855 94.1869 102.605C93.9584 102.684 93.8372 102.933 93.9162 103.161C93.9952 103.389 94.2445 103.51 94.473 103.432C96.9337 102.582 99.0503 100.309 100.836 97.4848C102.63 94.6464 104.135 91.1794 105.342 87.8311C106.55 84.4799 107.467 81.2316 108.081 78.8224C108.388 77.6173 108.62 76.6211 108.775 75.9256C108.853 75.5778 108.911 75.3052 108.95 75.1191C108.97 75.0261 108.985 74.9547 108.995 74.9064C109 74.8822 109.003 74.8638 109.006 74.8514L109.009 74.8372L109.01 74.8325C109.01 74.8322 109.01 74.8321 108.58 74.7469Z" fill="white"/>
<path d="M108.822 41.7514C112.883 41.2267 123.645 34.3932 124.527 25.3979C124.527 25.3979 140.708 41.7514 134.781 54.8184C134.781 54.8184 131.482 48.6968 124.347 44.9766C115.808 40.5288 108.822 41.7514 108.822 41.7514Z" fill="#3F4D79"/>
<path fill-rule="evenodd" clip-rule="evenodd" d="M109.821 41.071C114.079 41.0368 119.601 41.7155 124.567 44.5988C128.094 46.6457 131.091 49.3124 133.203 51.4607C134.26 52.5361 135.098 53.4844 135.672 54.1649C135.959 54.5051 136.181 54.7786 136.331 54.9676C136.406 55.0621 136.463 55.1356 136.502 55.1857C136.521 55.2108 136.536 55.2301 136.546 55.2432L136.558 55.2584L136.561 55.2624L136.562 55.2639C136.562 55.2641 136.562 55.2641 136.212 55.527L136.562 55.2641C136.707 55.4571 136.669 55.7313 136.475 55.8764C136.282 56.0216 136.008 55.9829 135.862 55.7899M135.862 55.7899L135.859 55.7862L135.85 55.7732C135.841 55.7615 135.827 55.7437 135.809 55.7201C135.772 55.6729 135.717 55.6025 135.645 55.5112C135.5 55.3284 135.284 55.0617 135.002 54.7286C134.44 54.0621 133.617 53.1305 132.578 52.0733C130.497 49.9566 127.562 47.3483 124.127 45.3549C119.348 42.5801 114.001 41.912 109.828 41.9455C107.745 41.9623 105.962 42.1538 104.702 42.341C104.072 42.4346 103.573 42.5269 103.233 42.5956C103.063 42.6299 102.932 42.6583 102.845 42.6779C102.802 42.6878 102.769 42.6954 102.747 42.7005C102.737 42.703 102.729 42.7049 102.724 42.7062L102.718 42.7075L102.717 42.7078M109.821 41.071C107.689 41.0882 105.865 41.2841 104.573 41.476L109.821 41.071ZM104.573 41.476C103.927 41.572 103.413 41.667 103.059 41.7384L104.573 41.476ZM103.059 41.7384C102.882 41.7741 102.746 41.8039 102.652 41.8249L103.059 41.7384ZM102.652 41.8249C102.606 41.8354 102.57 41.8437 102.546 41.8495L102.652 41.8249ZM102.546 41.8495C102.533 41.8524 102.524 41.8547 102.517 41.8562L102.546 41.8495ZM102.517 41.8562L102.51 41.8581L102.517 41.8562ZM102.51 41.8581L102.508 41.8586L102.51 41.8581ZM102.508 41.8586L102.507 41.8588L102.508 41.8586ZM102.507 41.8588C102.507 41.8588 102.507 41.8589 102.612 42.2833L102.507 41.8588Z" fill="white"/>
<path d="M59.3881 89.8796C59.3881 89.8796 56.8014 93.9636 54.0484 93.3777C51.2953 92.7917 48.7332 92.3895 47.3374 93.1066C45.6124 93.9933 43.8996 95.9505 42.7736 95.9138C41.4103 95.8782 40.0667 95.5813 38.8156 95.0392C39.5242 93.597 40.3051 92.1913 41.1554 90.8276C40.2009 91.431 38.9347 92.6693 38.2342 93.138C37.1134 93.8901 36.3288 92.8197 36.3288 92.8197C36.3288 92.8197 38.2657 90.072 39.1134 89.3566C39.9277 88.6693 42.8664 86.5372 44.1483 86.3483C45.6877 85.9828 53.2831 84.8721 59.4056 84.4541L59.3881 89.8796Z" fill="#FFCFC9"/>
<path fill-rule="evenodd" clip-rule="evenodd" d="M48.3844 87.9325C48.5655 87.8647 48.7674 87.9564 48.8353 88.1373C48.9031 88.3183 48.8113 88.5199 48.6301 88.5876L48.5073 88.2601L48.3844 87.9325ZM44.7551 90.0293C44.7064 90.0473 44.5922 90.1209 44.4087 90.2905C44.2361 90.4499 44.0328 90.6649 43.8086 90.9208C43.3609 91.4317 42.8481 92.0847 42.3611 92.7321C41.8749 93.3785 41.418 94.0144 41.0823 94.4892C40.9145 94.7264 40.7773 94.9232 40.682 95.0605C40.6344 95.1291 40.5973 95.1829 40.5721 95.2195L40.5435 95.2611L40.534 95.2749L40.5339 95.275C40.5339 95.275 40.5339 95.275 40.2447 95.0778C39.9554 94.8805 39.9554 94.8805 39.9555 94.8805L39.9656 94.8657L39.9948 94.8231C40.0204 94.7859 40.058 94.7314 40.1062 94.662C40.2025 94.5233 40.3409 94.3248 40.5101 94.0856C40.8482 93.6075 41.3094 92.9655 41.8011 92.3119C42.292 91.6593 42.8168 90.9903 43.2814 90.46C43.5134 90.1953 43.7349 89.9599 43.9329 89.777C44.1199 89.6042 44.3217 89.4436 44.5117 89.3733L44.5119 89.3732C45.352 89.0629 46.3201 88.7027 47.0783 88.4201C47.4574 88.2788 47.7839 88.1569 48.0157 88.0703L48.3844 87.9325C48.3844 87.9325 48.3844 87.9325 48.5073 88.2601C48.6301 88.5876 48.6301 88.5876 48.6301 88.5876L48.2611 88.7256C48.0292 88.8122 47.7025 88.9342 47.3233 89.0755C46.5649 89.3582 45.5962 89.7186 44.7551 90.0293ZM40.0472 95.3667C39.8874 95.2577 39.8464 95.04 39.9555 94.8805L40.2447 95.0778L40.5339 95.275C40.4249 95.4346 40.2069 95.4756 40.0472 95.3667Z" fill="#F7B3AF"/>
<path fill-rule="evenodd" clip-rule="evenodd" d="M49.7257 89.2143C49.9069 89.1464 50.1088 89.2381 50.1767 89.4189C50.2446 89.5998 50.1529 89.8015 49.9718 89.8693L49.8487 89.5418L49.7257 89.2143ZM41.9171 95.5322C41.6354 95.3245 41.6354 95.3244 41.6354 95.3244L41.6355 95.3242L41.6447 95.3119L41.6712 95.2762C41.6944 95.2451 41.7285 95.1994 41.7721 95.1413C41.8594 95.025 41.9851 94.8588 42.1388 94.6583C42.446 94.2574 42.8661 93.7186 43.3167 93.1683C43.7665 92.6189 44.2504 92.0532 44.6846 91.6008C44.9015 91.3748 45.1104 91.1725 45.2995 91.0132C45.4805 90.8607 45.6722 90.7226 45.852 90.6565C46.692 90.3463 47.6603 89.9858 48.4188 89.7028C48.7981 89.5612 49.1248 89.4391 49.3568 89.3524L49.7257 89.2143C49.7257 89.2143 49.7257 89.2143 49.8487 89.5418C49.9718 89.8693 49.9718 89.8693 49.9718 89.8693L49.6024 90.0075C49.3704 90.0943 49.0435 90.2165 48.664 90.3581C47.9051 90.6413 46.9358 91.0022 46.0946 91.3128L46.094 91.3131C46.0357 91.3345 45.9221 91.404 45.7511 91.548C45.5882 91.6852 45.3983 91.8682 45.1903 92.0849C44.7747 92.5179 44.3042 93.0673 43.859 93.6111C43.4147 94.1538 42.9995 94.6863 42.695 95.0835C42.5429 95.282 42.4187 95.4464 42.3325 95.5611C42.2895 95.6184 42.256 95.6633 42.2333 95.6938L42.2075 95.7284L42.199 95.7399C42.199 95.7399 42.1989 95.74 41.9171 95.5322ZM41.9171 95.5322L41.6354 95.3244C41.5205 95.4798 41.5535 95.6989 41.7091 95.8136C41.8647 95.9284 42.0841 95.8953 42.199 95.7399L41.9171 95.5322Z" fill="#F7B3AF"/>
</svg>
