<svg width="56" height="56" viewBox="0 0 56 56" fill="none" xmlns="http://www.w3.org/2000/svg">
<path d="M54.2501 0.875H27.1251C26.952 0.875037 26.7829 0.926375 26.639 1.02252C26.4952 1.11867 26.3831 1.25531 26.3168 1.41518C26.2506 1.57504 26.2333 1.75094 26.2671 1.92065C26.3008 2.09036 26.3841 2.24625 26.5064 2.36863L39.0128 14.875H19.3909C19.5181 14.5896 19.6296 14.2975 19.7252 14H21.0001C21.2321 14 21.4547 13.9078 21.6188 13.7437C21.7829 13.5796 21.8751 13.3571 21.8751 13.125V9.625C21.8751 9.39294 21.7829 9.17038 21.6188 9.00628C21.4547 8.84219 21.2321 8.75 21.0001 8.75H19.7252C19.5708 8.25962 19.3734 7.78382 19.1354 7.32812L20.0376 6.42863C20.2016 6.26454 20.2938 6.04202 20.2938 5.81C20.2938 5.57798 20.2016 5.35546 20.0376 5.19138L17.5587 2.7125C17.3946 2.54846 17.1721 2.45631 16.9401 2.45631C16.708 2.45631 16.4855 2.54846 16.3214 2.7125L15.4219 3.61462C14.9662 3.37662 14.4904 3.17927 14.0001 3.02487V1.75C14.0001 1.51794 13.9079 1.29538 13.7438 1.13128C13.5797 0.967187 13.3571 0.875 13.1251 0.875H9.62506C9.393 0.875 9.17044 0.967187 9.00634 1.13128C8.84225 1.29538 8.75006 1.51794 8.75006 1.75V3.02487C8.25968 3.17927 7.78388 3.37662 7.32819 3.61462L6.42869 2.7125C6.2646 2.54846 6.04208 2.45631 5.81006 2.45631C5.57804 2.45631 5.35552 2.54846 5.19144 2.7125L2.71256 5.19138C2.54852 5.35546 2.45637 5.57798 2.45637 5.81C2.45637 6.04202 2.54852 6.26454 2.71256 6.42863L3.61469 7.32812C3.37668 7.78382 3.17933 8.25962 3.02494 8.75H1.75006C1.518 8.75 1.29544 8.84219 1.13134 9.00628C0.967248 9.17038 0.87506 9.39294 0.87506 9.625V13.125C0.87506 13.3571 0.967248 13.5796 1.13134 13.7437C1.29544 13.9078 1.518 14 1.75006 14H3.02494C3.17933 14.4904 3.37668 14.9662 3.61469 15.4219L2.71256 16.3214C2.54852 16.4855 2.45637 16.708 2.45637 16.94C2.45637 17.172 2.54852 17.3945 2.71256 17.5586L5.18881 20.0349C5.3529 20.1989 5.57542 20.2911 5.80744 20.2911C6.03945 20.2911 6.26197 20.1989 6.42606 20.0349L7.32556 19.1354C7.7821 19.3735 8.25879 19.5709 8.75006 19.7251V21C8.75006 21.2321 8.84225 21.4546 9.00634 21.6187C9.17044 21.7828 9.393 21.875 9.62506 21.875V29.764C7.90343 29.7618 6.21951 30.2682 4.78461 31.2196C3.34972 32.1709 2.22778 33.5249 1.55959 35.1116C0.891401 36.6983 0.706733 38.4469 1.02876 40.1382C1.35079 41.8294 2.16516 43.3879 3.36969 44.618C5.08955 46.3018 6.07908 48.5938 6.12506 51.0002V51.5148C6.11782 51.9744 6.20118 52.4309 6.37039 52.8583C6.53959 53.2857 6.79132 53.6756 7.11121 54.0058C7.43109 54.3359 7.81287 54.5998 8.23474 54.7824C8.65661 54.9649 9.11031 55.0626 9.56994 55.0699C10.0296 55.0771 10.4861 54.9938 10.9135 54.8246C11.3409 54.6553 11.7308 54.4036 12.061 54.0837C12.3911 53.7638 12.655 53.3821 12.8375 52.9602C13.0201 52.5383 13.1178 52.0846 13.1251 51.625V51.4062C13.1791 48.6178 14.2937 45.9548 16.2418 43.9591C17.0048 43.1469 17.5845 42.1805 17.9419 41.125H31.8999L31.8947 41.1416C30.0844 41.2666 28.3934 42.0897 27.1782 43.4373C25.963 44.785 25.3187 46.5518 25.381 48.3653C25.4433 50.1789 26.2074 51.8973 27.5122 53.1584C28.817 54.4194 30.5605 55.1245 32.3751 55.125H48.1251C49.9397 55.1245 51.6832 54.4194 52.988 53.1584C54.2928 51.8973 55.0569 50.1789 55.1192 48.3653C55.1815 46.5518 54.5371 44.785 53.3219 43.4373C52.1067 42.0897 50.4157 41.2666 48.6054 41.1416C48.177 39.7575 47.4105 38.502 46.3751 37.4885V22.2372L53.6314 29.4936C53.7538 29.616 53.9097 29.6993 54.0794 29.733C54.2491 29.7668 54.425 29.7494 54.5849 29.6832C54.7448 29.617 54.8814 29.5049 54.9775 29.361C55.0737 29.2172 55.125 29.048 55.1251 28.875V1.75C55.1251 1.51794 55.0329 1.29538 54.8688 1.13128C54.7047 0.967187 54.4821 0.875 54.2501 0.875ZM42.5128 18.375H39.3751V16.625H40.7628L42.5128 18.375ZM20.0376 17.5586C20.1565 17.4383 20.2379 17.286 20.2721 17.1203C20.3063 16.9546 20.2917 16.7826 20.2301 16.625H30.6251V18.375H19.2186L20.0376 17.5586ZM32.3751 16.625H34.1251V18.375H32.3751V16.625ZM35.8751 16.625H37.6251V18.375H35.8751V16.625ZM7.65106 17.3022C7.48312 17.1963 7.28414 17.1506 7.08681 17.1727C6.88947 17.1948 6.70553 17.2834 6.56519 17.4239L5.81006 18.179L4.57106 16.94L5.32619 16.1849C5.46666 16.0445 5.55522 15.8606 5.57733 15.6633C5.59943 15.4659 5.55376 15.2669 5.44781 15.099C5.02831 14.4306 4.72313 13.6969 4.54481 12.9281C4.50031 12.7354 4.39182 12.5635 4.23705 12.4403C4.08228 12.3172 3.89035 12.2501 3.69256 12.25H2.62506V10.5H3.69256C3.89035 10.4999 4.08228 10.4328 4.23705 10.3097C4.39182 10.1865 4.50031 10.0146 4.54481 9.82188C4.72313 9.05311 5.02831 8.31944 5.44781 7.651C5.55443 7.48281 5.60048 7.28327 5.57837 7.08537C5.55626 6.88746 5.4673 6.70301 5.32619 6.5625L4.57106 5.81L5.81006 4.571L6.56519 5.32613C6.70553 5.4666 6.88947 5.55516 7.08681 5.57727C7.28414 5.59937 7.48312 5.5537 7.65106 5.44775C8.3195 5.02825 9.05317 4.72307 9.82194 4.54475C10.0147 4.50025 10.1866 4.39176 10.3098 4.23699C10.4329 4.08222 10.5 3.89029 10.5001 3.6925V2.625H12.2501V3.6925C12.2501 3.89029 12.3172 4.08222 12.4404 4.23699C12.5635 4.39176 12.7355 4.50025 12.9282 4.54475C13.6969 4.72307 14.4306 5.02825 15.0991 5.44775C15.2673 5.55437 15.4668 5.60042 15.6647 5.57831C15.8626 5.5562 16.047 5.46724 16.1876 5.32613L16.9427 4.571L18.1791 5.81L17.4239 6.56512C17.2835 6.70546 17.1949 6.88941 17.1728 7.08674C17.1507 7.28408 17.1964 7.48306 17.3023 7.651C17.7218 8.31944 18.027 9.05311 18.2053 9.82188C18.2498 10.0146 18.3583 10.1865 18.5131 10.3097C18.6678 10.4328 18.8598 10.4999 19.0576 10.5H20.1251V12.25H19.0576C18.8598 12.2501 18.6678 12.3172 18.5131 12.4403C18.3583 12.5635 18.2498 12.7354 18.2053 12.9281C18.027 13.6969 17.7218 14.4306 17.3023 15.099C17.1964 15.2669 17.1507 15.4659 17.1728 15.6633C17.1949 15.8606 17.2835 16.0445 17.4239 16.1849L18.1791 16.94L16.9401 18.179L16.1849 17.4239C16.0446 17.2834 15.8607 17.1948 15.6633 17.1727C15.466 17.1506 15.267 17.1963 15.0991 17.3022C14.4312 17.722 13.6977 18.027 12.9291 18.2044C12.736 18.2487 12.5638 18.3573 12.4404 18.5122C12.3171 18.6672 12.25 18.8594 12.2501 19.0575V20.125H10.5001V19.0575C10.5001 18.8594 10.433 18.6672 10.3097 18.5122C10.1864 18.3573 10.0141 18.2487 9.82106 18.2044C9.05242 18.027 8.31893 17.722 7.65106 17.3022ZM7.63094 40.25H11.6192C10.8808 41.7794 10.4982 43.4561 10.5001 45.1544V46.375H8.75006V45.15C8.75127 43.4532 8.36868 41.7781 7.63094 40.25ZM11.8581 48.125C11.6917 48.6982 11.5688 49.2832 11.4906 49.875H7.80681C7.73783 49.2822 7.61691 48.6966 7.44544 48.125H11.8581ZM9.62506 53.375C9.1626 53.3725 8.71995 53.187 8.39384 52.859C8.06773 52.5311 7.88468 52.0875 7.88469 51.625H11.3751C11.3751 52.0891 11.1907 52.5342 10.8625 52.8624C10.5343 53.1906 10.0892 53.375 9.62506 53.375ZM14.9626 42.763C13.9628 43.8295 13.1398 45.0488 12.5248 46.375H12.2501V45.15C12.2482 43.2656 12.8061 41.4231 13.8531 39.8563C13.9398 39.7245 13.9893 39.5718 13.9964 39.4142C14.0035 39.2567 13.9678 39.1001 13.8933 38.9612C13.8187 38.8222 13.7079 38.706 13.5727 38.6248C13.4374 38.5436 13.2828 38.5005 13.1251 38.5H6.12506C5.96665 38.5 5.8112 38.543 5.6753 38.6244C5.5394 38.7058 5.42815 38.8225 5.35342 38.9622C5.27869 39.1019 5.24327 39.2592 5.25096 39.4174C5.25865 39.5757 5.30914 39.7289 5.39706 39.8606C6.44401 41.4274 7.00194 43.27 7.00006 45.1544V46.375H6.74719C6.19716 45.2769 5.47953 44.2712 4.62006 43.3939C3.6576 42.4096 3.00674 41.1633 2.74891 39.811C2.49108 38.4587 2.63772 37.0604 3.17048 35.791C3.70325 34.5216 4.59849 33.4375 5.74421 32.6743C6.88994 31.911 8.23528 31.5026 9.61194 31.5C9.99687 31.4994 10.3813 31.5287 10.7617 31.5875C12.4173 31.8597 13.92 32.7176 14.9962 34.0048C16.0724 35.292 16.6504 36.923 16.6251 38.6006C16.6178 40.1485 16.0237 41.636 14.9626 42.763ZM27.1251 29.75H28.8751V39.375H27.1251V29.75ZM27.4637 28L28.0001 26.3918L28.5364 28H27.4637ZM38.5001 46.375H37.4168L40.2501 44.0125L43.0833 46.375H42.0001C41.768 46.375 41.5454 46.4672 41.3813 46.6313C41.2172 46.7954 41.1251 47.0179 41.1251 47.25V53.375H39.3751V47.25C39.3751 47.0179 39.2829 46.7954 39.1188 46.6313C38.9547 46.4672 38.7321 46.375 38.5001 46.375ZM47.0794 42.2021C47.1444 42.4208 47.2857 42.6089 47.4775 42.7324C47.6694 42.8558 47.8991 42.9064 48.1251 42.875C49.5174 42.875 50.8528 43.4281 51.8374 44.4127C52.8219 45.3973 53.3751 46.7326 53.3751 48.125C53.3751 49.5174 52.8219 50.8527 51.8374 51.8373C50.8528 52.8219 49.5174 53.375 48.1251 53.375H42.8751V48.125H45.5001C45.6798 48.1249 45.8552 48.0695 46.0023 47.9662C46.1495 47.8629 46.2612 47.7169 46.3224 47.5478C46.3836 47.3788 46.3913 47.195 46.3443 47.0215C46.2974 46.848 46.1981 46.6931 46.0601 46.578L40.8101 42.203C40.6528 42.072 40.4547 42.0003 40.2501 42.0003C40.0454 42.0003 39.8473 42.072 39.6901 42.203L34.4401 46.578C34.302 46.6931 34.2028 46.848 34.1558 47.0215C34.1089 47.195 34.1165 47.3788 34.1777 47.5478C34.2389 47.7169 34.3506 47.8629 34.4978 47.9662C34.6449 48.0695 34.8203 48.1249 35.0001 48.125H37.6251V53.375H32.3751C31.6856 53.3703 31.0038 53.2299 30.3687 52.9618C29.7335 52.6937 29.1573 52.3031 28.6731 51.8123C28.1889 51.3215 27.8061 50.7401 27.5466 50.1013C27.287 49.4626 27.1558 48.779 27.1605 48.0896C27.1652 47.4001 27.3056 46.7183 27.5737 46.0832C27.8418 45.448 28.2324 44.8718 28.7232 44.3876C29.214 43.9034 29.7954 43.5206 30.4341 43.2611C31.0729 43.0015 31.7565 42.8703 32.4459 42.875C32.6632 42.9054 32.8839 42.8532 33.0645 42.7286C33.245 42.6039 33.3721 42.4161 33.4207 42.2021C33.7695 40.6513 34.6358 39.2654 35.877 38.2723C37.1182 37.2793 38.6605 36.7382 40.2501 36.7382C41.8396 36.7382 43.3819 37.2793 44.6231 38.2723C45.8643 39.2654 46.7306 40.6513 47.0794 42.2021ZM44.6294 36.1646C42.6168 35.0074 40.2274 34.6955 37.9852 35.2974C35.743 35.8992 33.8309 37.3656 32.6682 39.375H30.6251V28.875C30.6251 28.781 30.6101 28.6877 30.5804 28.5985L28.8304 23.3485C28.7729 23.1734 28.6616 23.021 28.5123 22.913C28.363 22.8049 28.1835 22.7467 27.9992 22.7467C27.8149 22.7467 27.6353 22.8049 27.4861 22.913C27.3368 23.021 27.2255 23.1734 27.1679 23.3485L25.4179 28.5985C25.3889 28.6878 25.3744 28.7811 25.3751 28.875V39.375H18.3304C18.3558 39.1283 18.3707 38.878 18.3742 38.626C18.4003 36.5888 17.7157 34.6062 16.4382 33.0191C15.1606 31.4321 13.37 30.3398 11.3742 29.9303V21.875H13.1242C13.3563 21.875 13.5788 21.7828 13.7429 21.6187C13.907 21.4546 13.9992 21.2321 13.9992 21V19.7251C14.4896 19.5707 14.9654 19.3734 15.4211 19.1354L16.3214 20.0375C16.4658 20.1787 16.6551 20.2648 16.8564 20.2808C17.0577 20.2968 17.2582 20.2416 17.4231 20.125H44.2628L44.6251 20.4872L44.6294 36.1646ZM53.3751 26.7628L29.2373 2.625H53.3751V26.7628Z" fill="#B961FF"/>
<path d="M35.2564 5.86862L50.1314 20.7436C50.2538 20.866 50.4097 20.9493 50.5794 20.983C50.7491 21.0168 50.925 20.9994 51.0849 20.9332C51.2447 20.867 51.3814 20.7549 51.4775 20.611C51.5737 20.4672 51.625 20.298 51.6251 20.125V5.25C51.6251 5.01794 51.5329 4.79538 51.3688 4.63128C51.2047 4.46719 50.9821 4.375 50.7501 4.375H35.8751C35.702 4.37504 35.5329 4.42637 35.389 4.52252C35.2452 4.61867 35.133 4.75531 35.0668 4.91518C35.0006 5.07504 34.9833 5.25094 35.017 5.42065C35.0508 5.59036 35.1341 5.74625 35.2564 5.86862ZM49.8751 6.125V18.0128L37.9873 6.125H49.8751Z" fill="#B961FF"/>
<path d="M15.75 11.375C15.75 10.5097 15.4934 9.66385 15.0127 8.94438C14.532 8.22492 13.8487 7.66416 13.0492 7.33303C12.2498 7.0019 11.3701 6.91526 10.5215 7.08407C9.67282 7.25288 8.89326 7.66956 8.28141 8.28141C7.66956 8.89326 7.25288 9.67282 7.08407 10.5215C6.91526 11.3701 7.0019 12.2498 7.33303 13.0492C7.66416 13.8487 8.22492 14.532 8.94438 15.0127C9.66385 15.4934 10.5097 15.75 11.375 15.75C12.5349 15.7486 13.6469 15.2872 14.4671 14.4671C15.2872 13.6469 15.7486 12.5349 15.75 11.375ZM8.75 11.375C8.75 10.8558 8.90396 10.3483 9.19239 9.91663C9.48083 9.48495 9.8908 9.1485 10.3705 8.94982C10.8501 8.75114 11.3779 8.69915 11.8871 8.80044C12.3963 8.90173 12.864 9.15173 13.2312 9.51885C13.5983 9.88596 13.8483 10.3537 13.9496 10.8629C14.0508 11.3721 13.9989 11.8999 13.8002 12.3795C13.6015 12.8592 13.2651 13.2692 12.8334 13.5576C12.4017 13.846 11.8942 14 11.375 14C10.6788 14 10.0111 13.7234 9.51885 13.2312C9.02656 12.7389 8.75 12.0712 8.75 11.375Z" fill="#B961FF"/>
</svg>
