<svg width="310" height="414" viewBox="0 0 310 414" fill="none" xmlns="http://www.w3.org/2000/svg">
<g clip-path="url(#clip0)">
<path d="M65.942 288.755C95.7657 288.755 119.943 284.157 119.943 278.485C119.943 272.813 95.7657 268.215 65.942 268.215C36.1183 268.215 11.9414 272.813 11.9414 278.485C11.9414 284.157 36.1183 288.755 65.942 288.755Z" fill="white"/>
<path fill-rule="evenodd" clip-rule="evenodd" d="M13.5814 276.998C12.9507 277.584 12.7384 278.08 12.7384 278.485C12.7384 278.889 12.9507 279.386 13.5814 279.972C14.2112 280.557 15.1848 281.16 16.5121 281.757C19.1616 282.948 23.0454 284.04 27.9068 284.965C37.6165 286.811 51.0644 287.959 65.9419 287.959C80.8194 287.959 94.2673 286.811 103.977 284.965C108.838 284.04 112.722 282.948 115.372 281.757C116.699 281.16 117.673 280.557 118.302 279.972C118.933 279.386 119.145 278.889 119.145 278.485C119.145 278.08 118.933 277.584 118.302 276.998C117.673 276.413 116.699 275.81 115.372 275.213C112.722 274.022 108.838 272.93 103.977 272.005C94.2673 270.159 80.8194 269.011 65.9419 269.011C51.0644 269.011 37.6165 270.159 27.9068 272.005C23.0454 272.93 19.1616 274.022 16.5121 275.213C15.1848 275.81 14.2112 276.413 13.5814 276.998ZM27.6086 270.441C37.4433 268.571 50.9957 267.419 65.9419 267.419C80.888 267.419 94.4405 268.571 104.275 270.441C109.186 271.375 113.21 272.495 116.026 273.761C117.431 274.393 118.579 275.081 119.388 275.832C120.196 276.583 120.739 277.472 120.739 278.485C120.739 279.498 120.196 280.387 119.388 281.138C118.579 281.889 117.431 282.577 116.026 283.208C113.21 284.474 109.186 285.595 104.275 286.529C94.4405 288.399 80.888 289.551 65.9419 289.551C50.9957 289.551 37.4433 288.399 27.6086 286.529C22.6979 285.595 18.6735 284.474 15.8578 283.208C14.4525 282.577 13.3043 281.889 12.4955 281.138C11.6874 280.387 11.1443 279.498 11.1443 278.485C11.1443 277.472 11.6874 276.583 12.4955 275.832C13.3043 275.081 14.4525 274.393 15.8578 273.761C18.6735 272.495 22.6979 271.375 27.6086 270.441Z" fill="#6562CF"/>
<path fill-rule="evenodd" clip-rule="evenodd" d="M61.9503 360.921V288.758H63.5444V360.922C63.5429 365.011 62.3956 369.018 60.2323 372.49C58.069 375.962 54.9762 378.76 51.3037 380.567C51.3036 380.567 51.3038 380.567 51.3037 380.567L32.0921 390.028C30.2542 390.934 28.7067 392.335 27.6246 394.073C26.5425 395.811 25.969 397.817 25.9691 399.864L24.375 399.864C24.375 397.52 25.0317 395.223 26.2709 393.232C27.5101 391.242 29.2823 389.637 31.387 388.6L50.5988 379.139C54.0045 377.463 56.8729 374.869 58.8789 371.649C60.8849 368.43 61.9489 364.713 61.9503 360.921C61.9503 360.921 61.9503 360.921 61.9503 360.921Z" fill="#6562CF"/>
<path fill-rule="evenodd" clip-rule="evenodd" d="M25.3472 400.66C22.1004 400.66 19.4683 403.289 19.4683 406.532C19.4683 409.775 22.1004 412.404 25.3472 412.404C28.5941 412.404 31.2262 409.775 31.2262 406.532C31.2262 403.289 28.5941 400.66 25.3472 400.66ZM17.8743 406.532C17.8743 402.41 21.22 399.068 25.3472 399.068C29.4745 399.068 32.8202 402.41 32.8202 406.532C32.8202 410.655 29.4745 413.997 25.3472 413.997C21.22 413.997 17.8743 410.655 17.8743 406.532Z" fill="#FFB000"/>
<path fill-rule="evenodd" clip-rule="evenodd" d="M50.6197 400.66C47.3729 400.66 44.7408 403.289 44.7408 406.532C44.7408 409.775 47.3729 412.404 50.6197 412.404C53.8665 412.404 56.4986 409.775 56.4986 406.532C56.4986 403.289 53.8665 400.66 50.6197 400.66ZM43.1467 406.532C43.1467 402.41 46.4925 399.068 50.6197 399.068C54.7469 399.068 58.0927 402.41 58.0927 406.532C58.0927 410.655 54.7469 413.997 50.6197 413.997C46.4925 413.997 43.1467 410.655 43.1467 406.532Z" fill="#FFB000"/>
<path fill-rule="evenodd" clip-rule="evenodd" d="M61.9504 375.057V352.447H63.5445V375.057C63.5444 378.871 62.1287 382.55 59.5709 385.382L54.984 390.477L54.983 390.478C52.688 393.017 51.4174 396.316 51.4168 399.737L49.8228 399.736C49.8234 395.922 51.2402 392.243 53.7992 389.411C53.7994 389.411 53.7996 389.411 53.7997 389.411L58.3872 384.316C60.6808 381.776 61.9504 378.477 61.9504 375.057Z" fill="#6562CF"/>
<path fill-rule="evenodd" clip-rule="evenodd" d="M68.7666 288.758H70.3607V360.921C70.3607 360.921 70.3607 360.921 70.3607 360.921C70.3617 364.713 71.4255 368.43 73.4316 371.649C75.4377 374.869 78.306 377.463 81.7119 379.139L81.7122 379.139L100.92 388.6C100.921 388.6 100.92 388.6 100.92 388.6C103.026 389.636 104.799 391.241 106.039 393.231C107.279 395.222 107.936 397.52 107.936 399.864L106.342 399.864C106.342 397.817 105.768 395.811 104.686 394.072C103.603 392.334 102.055 390.933 100.216 390.028L81.0076 380.567C77.3347 378.76 74.2416 375.963 72.0782 372.491C69.9149 369.019 68.7677 365.011 68.7666 360.922V288.758Z" fill="#6562CF"/>
<path fill-rule="evenodd" clip-rule="evenodd" d="M106.967 400.66C103.72 400.66 101.088 403.289 101.088 406.532C101.088 409.775 103.72 412.404 106.967 412.404C110.213 412.404 112.846 409.775 112.846 406.532C112.846 403.289 110.213 400.66 106.967 400.66ZM99.4937 406.532C99.4937 402.41 102.839 399.068 106.967 399.068C111.094 399.068 114.44 402.41 114.44 406.532C114.44 410.655 111.094 413.997 106.967 413.997C102.839 413.997 99.4937 410.655 99.4937 406.532Z" fill="#FFB000"/>
<path fill-rule="evenodd" clip-rule="evenodd" d="M81.6912 400.66C78.4444 400.66 75.8123 403.289 75.8123 406.532C75.8123 409.775 78.4444 412.404 81.6912 412.404C84.9381 412.404 87.5701 409.775 87.5701 406.532C87.5701 403.289 84.9381 400.66 81.6912 400.66ZM74.2183 406.532C74.2183 402.41 77.564 399.068 81.6912 399.068C85.8184 399.068 89.1642 402.41 89.1642 406.532C89.1642 410.655 85.8184 413.997 81.6912 413.997C77.564 413.997 74.2183 410.655 74.2183 406.532Z" fill="#FFB000"/>
<path fill-rule="evenodd" clip-rule="evenodd" d="M68.7666 375.057V352.447H70.3607V375.057C70.3607 378.477 71.6302 381.776 73.9238 384.316L78.5147 389.411C78.5148 389.411 78.515 389.411 78.5151 389.412C81.0732 392.243 82.4889 395.922 82.4883 399.737L80.8942 399.736C80.8948 396.316 79.6252 393.017 77.3312 390.478L72.7402 385.382C70.1824 382.55 68.7667 378.871 68.7666 375.057Z" fill="#6562CF"/>
<path d="M115.607 367.437C115.607 367.437 115.983 379.99 108.408 385.248C101.266 390.203 101.002 394.19 101.002 394.19C101.002 394.19 112.903 405.733 115.833 406.928C118.763 408.122 129.433 411.8 134.962 411.8C134.962 411.8 138.701 409.077 130.138 401.61C118.52 391.454 131.703 373.21 131.703 373.21C131.703 373.21 119.595 369.59 115.607 367.437Z" fill="#FFC0B7"/>
<path d="M94.3066 219.092C94.3066 219.092 154.763 226.212 178.885 251.338C191.918 264.916 140.627 346.767 138.22 374.258C138.22 374.258 119.611 371.813 107.55 362.517C107.55 362.517 109.782 286.431 137.2 272.33C137.2 272.33 85.0196 276.47 62.6899 265.101C40.3603 253.732 62.6899 222.655 62.6899 222.655C62.6899 222.655 82.112 226.438 94.3066 219.092Z" fill="#3C4564"/>
<path d="M110.321 382.382C110.321 382.382 100.287 386.327 100.045 393.553C100.045 393.553 110.518 404.269 115.833 406.928C124.163 411.115 135.599 412.437 135.599 412.437C135.599 412.437 139.744 407.342 133.23 402.403C126.717 397.463 125.461 388.709 125.461 388.709C125.461 388.709 124.744 394.906 118.948 396.034C113.757 397.053 112.08 394.441 112.08 394.441C112.08 394.441 113.643 383.261 110.321 382.382Z" fill="#5654B7"/>
<path d="M26.9096 223.713C26.9096 223.713 15.9361 254.736 19.8957 263.397C27.2667 279.575 85.8518 284.396 129.274 276.476C129.274 276.476 114.108 329.819 132.029 373.535C132.029 373.535 144.093 375.615 160.977 373.217C160.977 373.217 160.633 320.549 168.214 264.442C169.722 253.166 104.773 226.693 76.179 223.703C47.5846 220.713 26.9096 223.713 26.9096 223.713Z" fill="#3F4D79"/>
<path d="M136.326 374.064C136.326 374.064 139.6 386.267 139.6 389.901C139.6 397.302 133.913 406.25 134.946 412.447H186.45C186.45 412.447 183.332 404.852 170.787 402.1C156.657 399.002 154.065 389.942 154.419 374.077C154.419 374.064 145.109 374.778 136.326 374.064Z" fill="#FFCFC9"/>
<path d="M138.708 395.744C138.708 395.744 132.708 404.183 134.946 412.447H187.254C187.254 412.447 187.136 405.059 179.844 404.167C172.553 403.275 160.716 397.285 160.716 397.285C160.716 397.285 161.592 406.065 148.151 407.097C148.151 407.11 148.671 396.079 138.708 395.744Z" fill="#6562CF"/>
<path d="M101.977 95.4772C94.6129 99.1266 90.1559 100.311 92.4864 123.593C94.8169 146.875 111.762 174.076 111.762 174.076L133.798 152.377C133.798 152.377 118.948 109.228 115.836 104.451C109.776 95.1811 104.844 94.0569 101.977 95.4772Z" fill="#6562CF"/>
<path d="M139.817 159.377C139.817 159.377 135.303 149.186 133.077 149.081C130.852 148.976 115.096 160.666 112.884 171.01C112.173 174.347 108.867 179.926 127.903 182.356C133.804 183.107 139.817 159.377 139.817 159.377Z" fill="#8382D8"/>
<path d="M210.275 177.315C210.275 177.315 208.866 178.232 204.705 177.245C203.366 176.926 201.476 174.576 199.483 173.299C197.87 172.264 194.701 172.443 191.293 172.847C189.361 173.07 187.537 170.519 186.316 169.086C174.201 172.589 140.449 182.397 127.036 181.286C123.631 181.006 133.377 159.577 139.279 158.179C143.742 157.125 170.009 158.065 186.661 160.189C192.588 161.043 198.438 162.363 204.157 164.138C206.344 165.513 210.275 177.315 210.275 177.315Z" fill="#FFC0B7"/>
<path d="M94.3068 219.092C94.3068 219.092 88.463 223.929 76.1823 223.694V223.674C74.7987 200.256 71.9166 156.262 68.9102 139.923C62.8878 107.222 46.4689 79.0232 46.2139 78.5869L77.6871 80.2492C77.6871 80.2492 93.9976 91.7674 97.5587 139.952C101.12 188.136 94.3068 219.092 94.3068 219.092Z" fill="white"/>
<path d="M77.6838 80.249C80.6679 81.4273 100.17 91.2928 106.377 94.9645C112.584 98.6361 116.337 127.363 113.072 150.502C107.56 189.511 108.019 204.768 113.48 222.436C113.48 222.436 101.031 219.834 94.3131 219.296C94.3131 219.296 90.8923 192.546 95.5884 165.418C105.102 110.39 77.6838 80.249 77.6838 80.249Z" fill="#6562CF"/>
<path d="M46.2075 78.5933C46.2075 78.5933 15.0913 88.8727 4.85106 100.248C0.706493 104.836 24.3816 161.52 22.3125 178.041C20.2434 194.562 10.5961 231.04 10.5961 231.04C10.5961 231.04 25.3635 250.316 77.0303 238.836C77.0303 238.836 73.0866 162.647 68.9038 139.929C62.8368 106.976 46.2075 78.5933 46.2075 78.5933Z" fill="#6562CF"/>
<path fill-rule="evenodd" clip-rule="evenodd" d="M112.138 130.277C112.661 130.351 113.025 130.834 112.951 131.357C112.244 136.351 111.552 144.757 111.139 152.893C110.725 161.048 110.597 168.829 110.998 172.61C111.053 173.134 110.673 173.605 110.147 173.66C109.622 173.716 109.151 173.336 109.095 172.811C108.677 168.859 108.815 160.933 109.228 152.796C109.643 144.639 110.339 136.167 111.057 131.089C111.131 130.567 111.615 130.203 112.138 130.277Z" fill="#8382D8"/>
<path d="M11.696 94.5343C4.8511 100.235 -1.12027 99.7759 1.40792 125.019C3.93611 150.263 22.3125 179.757 22.3125 179.757L46.2075 156.227C46.2075 156.227 33.879 110.501 31.5039 104.823C28.0097 96.4514 18.5409 88.8468 11.696 94.5343Z" fill="#6562CF"/>
<path fill-rule="evenodd" clip-rule="evenodd" d="M33.2906 110.979C33.731 110.687 34.3244 110.808 34.6161 111.248C35.9816 113.308 37.4511 117.177 38.8796 121.694C40.3207 126.25 41.7561 131.586 43.028 136.668C44.3006 141.752 45.4123 146.593 46.2058 150.161C46.6026 151.946 46.9199 153.413 47.1382 154.435C47.2473 154.946 47.3316 155.345 47.3887 155.617C47.4173 155.753 47.439 155.857 47.4537 155.927L47.4758 156.033C47.4759 156.034 47.4759 156.034 46.5392 156.227C45.6026 156.421 45.6026 156.42 45.6025 156.42L45.6023 156.419L45.5809 156.316C45.5665 156.247 45.545 156.144 45.5166 156.009C45.4599 155.739 45.376 155.342 45.2674 154.834C45.0501 153.817 44.7339 152.354 44.3384 150.576C43.5473 147.017 42.4395 142.194 41.1723 137.131C39.9045 132.066 38.4799 126.772 37.0556 122.269C35.6186 117.726 34.2173 114.107 33.0211 112.303C32.7295 111.863 32.8501 111.27 33.2906 110.979ZM46.7328 157.163C46.2155 157.27 45.7095 156.937 45.6026 156.421L46.5392 156.227L47.4759 156.034C47.5828 156.551 47.2501 157.056 46.7328 157.163Z" fill="#8382D8"/>
<path d="M55.4753 161.058C55.4753 161.058 47.8238 152.753 45.404 152.654C42.9842 152.555 26.5941 164.28 23.0871 176.283C22.051 179.837 16.3283 185.858 38.9544 191.657C51.538 194.89 55.4753 161.058 55.4753 161.058Z" fill="#8382D8"/>
<path d="M152.914 176.42C152.914 176.42 151.741 178.056 150.029 176.932C148.961 176.232 147.026 174.385 145.566 173.471C146.872 175.532 148.074 177.657 149.165 179.84C147.275 180.675 145.243 181.14 143.178 181.209C141.469 181.282 138.845 178.343 136.215 177.018C134.088 175.951 130.205 176.585 126.042 177.528C121.878 178.47 117.392 172.315 117.392 172.315V172.28C109.492 174.939 58.7496 189.157 39.8631 188.164C35.6261 187.941 46.9185 162.758 54.1906 160.803C60.3309 159.15 100.527 159.574 119.936 162.325C127.425 163.169 138.823 166.229 140.959 166.713C142.907 166.978 147.392 170.168 148.639 171.2C149.94 172.28 152.914 176.42 152.914 176.42Z" fill="#FFCFC9"/>
<path fill-rule="evenodd" clip-rule="evenodd" d="M133.773 169.464C133.893 169.133 134.259 168.963 134.59 169.083L134.372 169.682L134.154 170.28C133.824 170.16 133.653 169.795 133.773 169.464ZM134.372 169.682C134.154 170.28 134.154 170.28 134.154 170.28L134.717 170.484C135.071 170.612 135.568 170.793 136.146 171.002C137.301 171.42 138.775 171.952 140.051 172.411L140.052 172.412C140.105 172.43 140.265 172.527 140.546 172.78C140.806 173.016 141.114 173.336 141.457 173.719C142.14 174.484 142.926 175.464 143.673 176.438C144.418 177.41 145.12 178.367 145.635 179.082C145.893 179.439 146.104 179.735 146.25 179.942C146.323 180.045 146.38 180.126 146.419 180.181L146.463 180.244L146.477 180.264C146.477 180.264 146.477 180.265 146.853 180.003L146.477 180.264C146.678 180.553 147.076 180.624 147.365 180.423C147.654 180.222 147.725 179.825 147.524 179.536L147.052 179.865C147.524 179.536 147.524 179.536 147.524 179.536L147.508 179.514L147.463 179.45C147.423 179.393 147.365 179.311 147.291 179.207C147.143 178.997 146.93 178.698 146.67 178.337C146.15 177.616 145.441 176.649 144.685 175.663C143.931 174.68 143.123 173.671 142.408 172.871C142.051 172.471 141.709 172.115 141.402 171.837C141.115 171.577 140.793 171.323 140.482 171.212L140.267 171.812L140.483 171.213C139.208 170.754 137.735 170.222 136.58 169.804C136.003 169.595 135.505 169.415 135.152 169.287L134.59 169.083C134.59 169.083 134.59 169.083 134.372 169.682Z" fill="#F7B3AF"/>
<path fill-rule="evenodd" clip-rule="evenodd" d="M131.758 171.435C131.878 171.105 132.243 170.934 132.575 171.054L132.357 171.653L132.14 172.251C131.809 172.131 131.638 171.766 131.758 171.435ZM144.472 180.614L143.963 180.998L143.95 180.981L143.911 180.929C143.876 180.883 143.824 180.816 143.758 180.73C143.626 180.557 143.434 180.31 143.2 180.012C142.732 179.416 142.094 178.616 141.412 177.802C140.729 176.985 140.009 176.162 139.376 175.514C139.059 175.19 138.771 174.918 138.527 174.716C138.268 174.501 138.108 174.407 138.038 174.382C136.763 173.923 135.288 173.391 134.133 172.973C133.555 172.764 133.056 172.583 132.703 172.455L132.14 172.251C132.14 172.251 132.14 172.251 132.357 171.653C132.575 171.054 132.575 171.054 132.575 171.054L133.137 171.258C133.491 171.386 133.989 171.566 134.567 171.775C135.722 172.193 137.196 172.725 138.471 173.184L138.472 173.184C138.762 173.289 139.065 173.506 139.341 173.736C139.633 173.977 139.955 174.284 140.288 174.624C140.955 175.306 141.699 176.158 142.391 176.985C143.084 177.813 143.731 178.623 144.204 179.227C144.441 179.528 144.635 179.778 144.769 179.953C144.837 180.041 144.889 180.11 144.925 180.157L144.966 180.21L144.98 180.229C144.98 180.229 144.98 180.229 144.472 180.614ZM144.472 180.614L143.963 180.998C144.176 181.279 144.576 181.334 144.857 181.122C145.138 180.909 145.193 180.51 144.98 180.229L144.472 180.614Z" fill="#F7B3AF"/>
<path d="M78.2197 76.1376L71.0113 96.3844C71.0113 96.3844 51.4107 98.5403 46.2874 78.5196L53.1928 58.7759L78.2197 76.1376Z" fill="#FFCFC9"/>
<path d="M78.2229 76.1376L74.9646 85.2834C70.6287 87.2545 65.0814 87.194 59.6616 80.0003C54.7487 73.4658 53.6902 63.8774 52.7625 60.3203L53.1801 58.7886L78.2229 76.1376Z" fill="#FFC0B7"/>
<path d="M53.1927 58.7885C53.1927 58.7885 59.2055 72.5805 66.5542 74.8064C73.568 76.9273 82.1473 76.3636 83.0368 74.8064C83.9263 73.2492 91.2048 54.8653 89.2728 42.7197C87.9369 34.3159 84.3726 33.1663 77.6903 33.8191C71.008 34.4719 68.6583 35.2075 60.4903 32.7077C58.1981 32.0071 62.1354 44.8533 55.2331 49.7478C55.2331 49.7478 50.0556 48.0091 48.9397 49.7892C47.8239 51.5693 53.1927 58.7885 53.1927 58.7885Z" fill="#FFCFC9"/>
<path d="M52.2555 61.3333C52.2555 61.3333 34.6092 50.5634 35.4636 35.9849C35.8367 29.7433 49.0706 12.9612 57.178 12.267C65.2854 11.5728 77.7956 15.738 81.7266 19.2091C85.6576 22.6802 91.0391 26.4124 89.6364 39.7044C89.557 40.4307 89.3834 41.1436 89.1199 41.8252C87.6725 34.2334 84.1305 33.1762 77.6936 33.8195C70.9986 34.4882 68.6585 35.2047 60.4777 32.7081C58.1855 32.0043 62.126 44.8536 55.2205 49.7482C55.2205 49.7482 50.043 48.0094 48.9303 49.7864C47.8177 51.5633 53.1801 58.7857 53.1801 58.7857L52.2555 61.3333Z" fill="#3F4D79"/>
<path d="M50.8973 15.0119C50.8973 15.0119 52.5456 2.09252 43.9727 2.54789C35.3998 3.00327 30.1872 11.1109 29.3806 16.4067C28.3477 23.2119 40.7144 25.2181 40.7144 25.2181L50.8973 15.0119Z" fill="#3F4D79"/>
<path fill-rule="evenodd" clip-rule="evenodd" d="M37.7439 27.071C35.9208 27.4926 33.5058 27.5124 31.8208 25.5246L32.7941 24.7015C34.0135 26.1401 35.802 26.2126 37.4563 25.83C38.2709 25.6417 39.0072 25.3511 39.5429 25.1049C39.8096 24.9824 40.0238 24.8723 40.1697 24.7936C40.2426 24.7543 40.2983 24.723 40.3348 24.7021C40.3531 24.6916 40.3666 24.6838 40.375 24.6788L40.3838 24.6736L40.3851 24.6729C40.3849 24.6729 40.3848 24.673 40.7145 25.2181C41.0443 25.7632 41.0441 25.7634 41.0439 25.7635L41.0418 25.7647L41.0373 25.7674L41.0224 25.7763C41.0098 25.7837 40.992 25.7941 40.9692 25.8071C40.9237 25.8332 40.8584 25.8699 40.7751 25.9147C40.6088 26.0043 40.3703 26.1269 40.0758 26.2622C39.489 26.5318 38.6681 26.8573 37.7439 27.071Z" fill="#3F4D79"/>
<path fill-rule="evenodd" clip-rule="evenodd" d="M53.895 14.5944C53.895 14.5947 53.8949 14.595 53.2628 14.5119L53.8949 14.595L53.8647 14.8248L41.6713 25.9881L41.2759 25.7838L41.5687 25.2181C41.2759 25.7838 41.276 25.7839 41.2759 25.7838L41.2752 25.7834L41.2677 25.7796L41.2455 25.768C41.2261 25.7579 41.1977 25.7431 41.1607 25.7236C41.0869 25.6847 40.979 25.6275 40.8415 25.5536C40.5667 25.4059 40.1736 25.1912 39.6981 24.9223C38.7477 24.385 37.4646 23.6292 36.1376 22.7571C34.813 21.8867 33.4312 20.8917 32.2901 19.8748C31.1689 18.8757 30.201 17.7877 29.8112 16.7205C29.4005 15.5958 29.6145 14.0003 30.1937 12.3444C30.7852 10.6529 31.8029 8.76842 33.1723 6.99385C35.9022 3.45609 40.1165 0.250455 45.2872 0.0010051C47.9216 -0.126088 49.8319 0.746589 51.1727 2.16818C52.4905 3.56537 53.2115 5.44198 53.6021 7.26316C53.9943 9.09153 54.0661 10.923 54.042 12.2884C54.03 12.9733 53.9937 13.5459 53.9602 13.9489C53.9435 14.1504 53.9275 14.3098 53.9155 14.4198C53.9095 14.4748 53.9045 14.5175 53.9009 14.547C53.8998 14.5563 53.8988 14.5642 53.898 14.5709C53.8975 14.5748 53.8971 14.5782 53.8967 14.5812L53.8955 14.5907L53.8951 14.5935L53.895 14.5944ZM41.4697 24.4448L52.656 14.2034C52.6657 14.1098 52.6773 13.9888 52.6894 13.8436C52.7209 13.4637 52.7555 12.919 52.767 12.266C52.79 10.9558 52.7197 9.22964 52.3552 7.53002C51.989 5.82321 51.3385 4.20148 50.2445 3.04164C49.1736 1.9062 47.632 1.16316 45.3487 1.27331C40.6841 1.49834 36.7798 4.4053 34.1823 7.77146C32.888 9.44886 31.9398 11.2141 31.3976 12.7645C30.8429 14.3504 30.7553 15.5886 31.0093 16.2839C31.2842 17.0366 32.0435 17.948 33.1391 18.9243C34.2149 19.883 35.5396 20.8394 36.8385 21.693C38.1348 22.5449 39.3921 23.2856 40.3263 23.8138C40.793 24.0777 41.1781 24.288 41.446 24.432C41.454 24.4363 41.4619 24.4406 41.4697 24.4448Z" fill="#3F4D79"/>
<path fill-rule="evenodd" clip-rule="evenodd" d="M60.484 31.8081C63.4358 35.6047 69.0028 36.7822 77.5412 34.729L77.5413 34.729C78.4306 34.5152 79.2484 34.1913 80.0627 33.8688C80.4201 33.7273 80.7769 33.586 81.1387 33.4544C82.2486 33.0508 83.462 32.7192 84.5802 33.1643L84.108 34.3476C83.4823 34.0985 82.6936 34.2446 81.575 34.6514C81.2794 34.7589 80.9612 34.8847 80.6258 35.0174C79.7784 35.3527 78.8209 35.7315 77.8397 35.9674C69.1623 38.054 62.9077 37.0023 59.4768 32.5894L60.484 31.8081Z" fill="#3F4D79"/>
<path fill-rule="evenodd" clip-rule="evenodd" d="M70.0134 45.831C66.7472 45.831 64.0994 48.4757 64.0994 51.7382C64.0994 55.0006 66.7472 57.6454 70.0134 57.6454C73.2796 57.6454 75.9274 55.0006 75.9274 51.7382C75.9274 48.4757 73.2796 45.831 70.0134 45.831ZM62.5054 51.7382C62.5054 47.5964 65.8668 44.2388 70.0134 44.2388C74.16 44.2388 77.5215 47.5964 77.5215 51.7382C77.5215 55.88 74.16 59.2376 70.0134 59.2376C65.8668 59.2376 62.5054 55.88 62.5054 51.7382Z" fill="#FFB000"/>
<path fill-rule="evenodd" clip-rule="evenodd" d="M87.3281 45.831C84.3465 45.831 81.8414 48.4256 81.8414 51.7382C81.8414 55.0508 84.3465 57.6454 87.3281 57.6454C90.3098 57.6454 92.8149 55.0508 92.8149 51.7382C92.8149 48.4256 90.3098 45.831 87.3281 45.831ZM80.2473 51.7382C80.2473 47.6465 83.3689 44.2388 87.3281 44.2388C91.2874 44.2388 94.409 47.6465 94.409 51.7382C94.409 55.8299 91.2874 59.2376 87.3281 59.2376C83.3689 59.2376 80.2473 55.8299 80.2473 51.7382Z" fill="#FFB000"/>
<path fill-rule="evenodd" clip-rule="evenodd" d="M80.7796 52.0727H76.6765V50.4805H80.7796V52.0727Z" fill="#FFB000"/>
<path fill-rule="evenodd" clip-rule="evenodd" d="M248.984 193.826H255.554L284.338 413.1C284.395 413.536 284.088 413.936 283.652 413.993C283.215 414.05 282.815 413.743 282.758 413.307L254.155 195.418H250.383L221.781 413.307C221.724 413.743 221.323 414.05 220.887 413.993C220.45 413.936 220.143 413.536 220.2 413.1L248.984 193.826Z" fill="#FFB000"/>
<path d="M271.637 184.804H257.291L255.059 181.658C252.875 178.566 248.832 176.662 244.455 176.662H223.391C219.014 176.662 214.971 178.572 212.787 181.658L210.556 184.804H196.767L202.279 177.881C204.744 174.786 209.293 172.882 214.228 172.882H254.173C259.105 172.882 263.664 174.793 266.125 177.881L271.637 184.804Z" fill="#D1D0FF"/>
<path fill-rule="evenodd" clip-rule="evenodd" d="M214.229 173.837C209.506 173.837 205.267 175.664 203.028 178.476L198.75 183.849H210.061L212.007 181.107C212.007 181.106 212.007 181.106 212.007 181.106M255.841 181.107C253.448 177.719 249.088 175.706 244.455 175.706H223.391C218.758 175.706 214.4 177.726 212.007 181.106M255.841 181.107L257.785 183.849H269.655L265.377 178.476C265.377 178.476 265.376 178.476 265.376 178.476C263.14 175.67 258.892 173.837 254.173 173.837H214.229M201.531 177.287C204.221 173.908 209.081 171.926 214.229 171.926H254.173C259.318 171.926 264.187 173.915 266.873 177.286L266.874 177.287L272.386 184.21C272.614 184.497 272.658 184.889 272.499 185.219C272.339 185.55 272.004 185.76 271.637 185.76H257.291C256.98 185.76 256.69 185.609 256.51 185.357L254.277 182.209C252.303 179.413 248.577 177.617 244.455 177.617H223.391C219.27 177.617 215.544 179.418 213.569 182.209L213.568 182.21L211.336 185.357C211.157 185.609 210.866 185.76 210.556 185.76H196.767C196.4 185.76 196.065 185.55 195.906 185.219C195.746 184.889 195.79 184.497 196.019 184.21L201.531 177.287C201.531 177.287 201.531 177.287 201.531 177.287Z" fill="#6562CF"/>
<path d="M271.902 184.804H266.083L263.852 181.658C261.665 178.566 257.622 176.662 253.248 176.662H223.665C219.291 176.662 215.249 178.572 213.062 181.658L210.83 184.804H197.032L202.544 177.881C205.008 174.786 209.558 172.882 214.496 172.882H254.44C259.372 172.882 263.928 174.793 266.389 177.881L271.902 184.804Z" fill="white"/>
<path fill-rule="evenodd" clip-rule="evenodd" d="M214.496 173.837C209.771 173.837 205.532 175.664 203.293 178.476L199.014 183.849H210.335L212.281 181.106C212.281 181.106 212.281 181.106 212.281 181.106C214.677 177.726 219.035 175.706 223.665 175.706H253.248C257.878 175.706 262.237 177.719 264.633 181.107L266.578 183.849H269.919L265.641 178.476C265.641 178.476 265.641 178.476 265.641 178.476C263.405 175.67 259.159 173.837 254.44 173.837H214.496ZM201.795 177.287C204.485 173.908 209.345 171.926 214.496 171.926H254.44C259.586 171.926 264.452 173.915 267.138 177.286L267.138 177.287L273.885 185.76H265.589L263.071 182.21L263.071 182.209C261.092 179.412 257.367 177.617 253.248 177.617H223.665C219.548 177.617 215.821 179.418 213.842 182.21L211.325 185.76H195.049L201.795 177.287C201.795 177.287 201.795 177.287 201.795 177.287Z" fill="#6562CF"/>
<path d="M279.955 153.38H144.893C141.306 153.38 138.721 149.82 139.715 146.25L159.861 74.0774C160.359 72.1873 161.464 70.5129 163.007 69.3115C164.55 68.1101 166.446 67.4485 168.402 67.4282H303.464C307.051 67.4282 309.64 70.9885 308.642 74.5551L288.496 146.731C287.996 148.62 286.89 150.293 285.348 151.494C283.805 152.695 281.911 153.357 279.955 153.38Z" fill="white"/>
<path fill-rule="evenodd" clip-rule="evenodd" d="M168.397 66.4727H303.464C307.729 66.4727 310.719 70.6798 309.563 74.812L289.421 146.975C289.42 146.977 289.42 146.979 289.419 146.982C288.865 149.07 287.642 150.919 285.936 152.247C284.228 153.576 282.131 154.31 279.966 154.335L279.955 153.38V154.335H144.893C140.628 154.335 137.642 150.127 138.794 145.994L158.938 73.8272C159.49 71.7375 160.713 69.8863 162.419 68.5578C164.128 67.2277 166.227 66.4951 168.393 66.4727L168.397 66.4727ZM279.95 152.425C281.694 152.403 283.384 151.811 284.76 150.74C286.137 149.667 287.125 148.173 287.571 146.487L287.573 146.48L307.721 74.2983L307.721 74.2977C308.56 71.2967 306.373 68.3833 303.464 68.3833H168.408C166.662 68.4024 164.972 68.9931 163.595 70.0648C162.217 71.1374 161.231 72.6325 160.786 74.32L160.785 74.3269L140.637 146.506C140.637 146.506 140.637 146.506 140.637 146.507C139.8 149.513 141.986 152.425 144.893 152.425H279.95Z" fill="#6562CF"/>
<path d="M201.326 131.417L197.918 152.294H209.714L204.495 131.382C204.38 130.914 201.403 130.942 201.326 131.417Z" fill="#E2E2FF"/>
<path d="M249.276 172.662H215.8L207.533 139.48C206.621 135.834 205.442 134.413 202.617 133.611V131.7H231.03C233.322 131.7 235.549 132.466 237.355 133.876C239.162 135.286 240.444 137.258 240.999 139.48L249.276 172.662Z" fill="#D1D0FF"/>
<path fill-rule="evenodd" clip-rule="evenodd" d="M201.661 131.7C201.661 131.172 202.089 130.745 202.617 130.745H231.03C233.536 130.745 235.97 131.582 237.944 133.123C239.919 134.664 241.321 136.82 241.927 139.248L250.204 172.431C250.275 172.716 250.211 173.018 250.029 173.25C249.848 173.482 249.57 173.617 249.276 173.617H215.8C215.361 173.617 214.978 173.318 214.872 172.892L206.606 139.711C206.605 139.711 206.605 139.711 206.605 139.711C206.161 137.934 205.681 136.836 205.059 136.091C204.459 135.374 203.652 134.898 202.356 134.53C201.945 134.413 201.661 134.038 201.661 133.611V131.7ZM203.574 132.655V132.912C204.776 133.337 205.748 133.935 206.527 134.866C207.428 135.944 207.994 137.379 208.461 139.248L216.548 171.706H248.052L240.071 139.711C240.071 139.711 240.071 139.711 240.071 139.711C239.568 137.696 238.405 135.907 236.767 134.628C235.128 133.35 233.109 132.655 231.03 132.655C231.03 132.655 231.03 132.655 231.03 132.655H203.574Z" fill="#6562CF"/>
<path d="M252.598 172.662H219.122L210.856 139.48C209.714 134.91 208.158 131.7 203.44 131.7H234.365C236.655 131.704 238.878 132.472 240.681 133.881C242.485 135.29 243.766 137.261 244.321 139.48L252.598 172.662Z" fill="white"/>
<path fill-rule="evenodd" clip-rule="evenodd" d="M209.23 133.272C210.496 134.823 211.209 136.949 211.784 139.248L219.87 171.706H251.374L243.393 139.711M209.23 133.272C209.052 133.054 208.863 132.848 208.665 132.655L209.23 133.272ZM203.44 132.655C205.541 132.655 206.826 133.35 207.748 134.48C208.725 135.677 209.36 137.44 209.928 139.711L218.375 173.617H253.822L245.249 139.248C244.642 136.823 243.242 134.669 241.271 133.128C239.299 131.588 236.869 130.749 234.366 130.745H203.44V132.655ZM208.665 132.655H234.364H208.665Z" fill="#6562CF"/>
<path d="M166.011 179.104L121.514 181.655V184.804H166.011V179.104Z" fill="white"/>
<path fill-rule="evenodd" clip-rule="evenodd" d="M166.668 178.41C166.859 178.59 166.968 178.841 166.968 179.104V184.804C166.968 185.332 166.539 185.76 166.011 185.76H121.515C120.986 185.76 120.558 185.332 120.558 184.804V181.655C120.558 181.149 120.954 180.73 121.46 180.701L165.956 178.15C166.219 178.135 166.477 178.229 166.668 178.41ZM122.471 182.557V183.849H165.055V180.116L122.471 182.557Z" fill="#6562CF"/>
<path d="M193.837 179.104H166.011V184.683H193.837V179.104Z" fill="#D1D0FF"/>
<path fill-rule="evenodd" clip-rule="evenodd" d="M165.055 179.104C165.055 178.577 165.483 178.149 166.011 178.149H193.837C194.365 178.149 194.794 178.577 194.794 179.104V184.683C194.794 185.211 194.365 185.639 193.837 185.639H166.011C165.483 185.639 165.055 185.211 165.055 184.683V179.104ZM166.968 180.06V183.728H192.881V180.06H166.968Z" fill="#6562CF"/>
<path d="M73.5651 194.151H277.851V184.804H73.1028L73.5651 194.151Z" fill="white"/>
<path fill-rule="evenodd" clip-rule="evenodd" d="M72.4099 184.146C72.5904 183.956 72.8408 183.849 73.1027 183.849H277.851C278.379 183.849 278.807 184.277 278.807 184.804V194.151C278.807 194.678 278.379 195.106 277.851 195.106H73.565C73.0551 195.106 72.6348 194.707 72.6097 194.198L72.1474 184.852C72.1345 184.59 72.2294 184.335 72.4099 184.146ZM74.1075 185.76L74.4753 193.196H276.894V185.76H74.1075Z" fill="#6562CF"/>
</g>
<defs>
<clipPath id="clip0">
<rect width="309" height="414" fill="white" transform="translate(0.814941)"/>
</clipPath>
</defs>
</svg>
